<?xml version="1.0" encoding="UTF-8"?>
<!DOCTYPE svg PUBLIC "-//W3C//DTD SVG 1.1//EN" "http://www.w3.org/Graphics/SVG/1.1/DTD/svg11.dtd">
<svg xmlns="http://www.w3.org/2000/svg" version="1.1" width="1750px" height="1000px" style="shape-rendering:geometricPrecision; text-rendering:geometricPrecision; image-rendering:optimizeQuality; fill-rule:evenodd; clip-rule:evenodd" xmlns:xlink="http://www.w3.org/1999/xlink">
<g><path style="opacity:1" fill="#fefefe" d="M -0.5,-0.5 C 582.833,-0.5 1166.17,-0.5 1749.5,-0.5C 1749.5,332.833 1749.5,666.167 1749.5,999.5C 1166.17,999.5 582.833,999.5 -0.5,999.5C -0.5,666.167 -0.5,332.833 -0.5,-0.5 Z"/></g>
<g><path style="opacity:1" fill="#3138ab" d="M 799.5,142.5 C 799.5,144.833 799.5,147.167 799.5,149.5C 803.833,149.5 808.167,149.5 812.5,149.5C 813.416,149.982 814.416,150.315 815.5,150.5C 820.433,149.289 825.433,148.622 830.5,148.5C 830.326,141.776 829.659,135.109 828.5,128.5C 828.556,123.269 827.889,118.269 826.5,113.5C 825.603,108.86 825.436,104.194 826,99.5C 827.789,97.771 829.956,97.1043 832.5,97.5C 832.955,112.96 834.288,128.294 836.5,143.5C 836.5,144.833 836.5,146.167 836.5,147.5C 839.713,147.81 842.713,147.477 845.5,146.5C 849.514,146.334 853.514,146.501 857.5,147C 859.305,147.972 860.972,149.139 862.5,150.5C 865.258,156.868 866.758,163.535 867,170.5C 867.926,181.827 868.259,193.16 868,204.5C 865.733,205.935 863.733,205.602 862,203.5C 861.807,194.09 861.307,184.756 860.5,175.5C 860.638,170.586 859.972,165.919 858.5,161.5C 858.78,158.728 858.113,156.228 856.5,154C 851.511,153.501 846.511,153.334 841.5,153.5C 840.167,153.5 838.833,153.5 837.5,153.5C 837.194,156.385 837.527,159.052 838.5,161.5C 839.344,165.099 839.677,168.766 839.5,172.5C 839.444,177.731 840.111,182.731 841.5,187.5C 843.016,202.01 844.683,216.51 846.5,231C 846.774,236.772 844.607,238.272 840,235.5C 837.129,209.496 834.462,183.496 832,157.5C 830.475,156.28 828.641,155.613 826.5,155.5C 821.826,156.169 817.159,156.836 812.5,157.5C 808.971,155.577 804.971,154.911 800.5,155.5C 800.183,159.702 800.517,163.702 801.5,167.5C 802.429,180.162 802.929,192.828 803,205.5C 800.478,208.326 798.478,207.993 797,204.5C 795.904,192.181 795.071,179.848 794.5,167.5C 794.5,163.833 794.5,160.167 794.5,156.5C 790.958,156.187 787.625,156.521 784.5,157.5C 777.882,159.722 776.215,157.889 779.5,152C 783.963,150.025 788.629,149.192 793.5,149.5C 792.788,142.857 792.454,136.191 792.5,129.5C 792.348,123.301 791.682,117.301 790.5,111.5C 790.334,107.154 790.501,102.821 791,98.5C 793,97.1667 795,97.1667 797,98.5C 797.58,113.188 798.413,127.855 799.5,142.5 Z"/></g>
<g><path style="opacity:1" fill="#2f37ab" d="M 700.5,116.5 C 700.663,118.857 700.497,121.19 700,123.5C 698.989,124.337 697.822,124.67 696.5,124.5C 695.336,119.018 692.669,114.185 688.5,110C 683.922,108.19 679.255,106.69 674.5,105.5C 671.472,105.847 668.806,107.014 666.5,109C 659.926,114.904 654.092,121.404 649,128.5C 648.056,131.347 648.556,133.847 650.5,136C 667.303,142.481 681.803,152.314 694,165.5C 708.549,184.85 704.383,198.35 681.5,206C 673.898,207.523 666.232,207.856 658.5,207C 650.222,204.514 641.889,202.18 633.5,200C 631.398,198.267 631.065,196.267 632.5,194C 642.554,196.013 652.554,198.346 662.5,201C 673.131,202.592 682.797,200.259 691.5,194C 695.203,190.604 696.369,186.437 695,181.5C 691.671,173.009 686.504,165.842 679.5,160C 668.05,152.192 656.216,145.025 644,138.5C 641.144,134.361 640.81,130.028 643,125.5C 649.549,114.617 658.383,106.117 669.5,100C 680.401,98.203 689.568,101.37 697,109.5C 698.705,111.577 699.872,113.91 700.5,116.5 Z"/></g>
<g><path style="opacity:1" fill="#3e43b0" d="M 859.5,119.5 C 860.833,119.5 862.167,119.5 863.5,119.5C 863.5,121.167 863.5,122.833 863.5,124.5C 861.833,124.5 860.167,124.5 858.5,124.5C 858.366,122.708 858.699,121.042 859.5,119.5 Z"/></g>
<g><path style="opacity:1" fill="#abaedd" d="M 700.5,116.5 C 701.634,118.966 701.801,121.633 701,124.5C 699.384,125.801 697.884,125.801 696.5,124.5C 697.822,124.67 698.989,124.337 700,123.5C 700.497,121.19 700.663,118.857 700.5,116.5 Z"/></g>
<g><path style="opacity:1" fill="#8d92d1" d="M 826.5,113.5 C 827.889,118.269 828.556,123.269 828.5,128.5C 827.111,123.731 826.444,118.731 826.5,113.5 Z"/></g>
<g><path style="opacity:1" fill="#898dcf" d="M 790.5,111.5 C 791.682,117.301 792.348,123.301 792.5,129.5C 790.943,123.739 790.276,117.739 790.5,111.5 Z"/></g>
<g><path style="opacity:1" fill="#a1a5d9" d="M 836.5,143.5 C 837.404,144.209 837.737,145.209 837.5,146.5C 840.167,146.5 842.833,146.5 845.5,146.5C 842.713,147.477 839.713,147.81 836.5,147.5C 836.5,146.167 836.5,144.833 836.5,143.5 Z"/></g>
<g><path style="opacity:1" fill="#3138ab" d="M 1055.5,158.5 C 1055.5,160.167 1055.5,161.833 1055.5,163.5C 1054.17,163.5 1052.83,163.5 1051.5,163.5C 1044.75,157.406 1036.75,153.906 1027.5,153C 1021.84,151.282 1017.34,152.782 1014,157.5C 1013.19,159.902 1013.35,162.235 1014.5,164.5C 1024.16,170.001 1034.16,174.834 1044.5,179C 1051.93,184.11 1052.43,189.943 1046,196.5C 1039.67,201.492 1032.84,205.659 1025.5,209C 1014.65,211.658 1006.49,208.158 1001,198.5C 1000.24,196.231 1000.41,194.064 1001.5,192C 1002.5,191.333 1003.5,191.333 1004.5,192C 1007.19,195.683 1010.19,199.017 1013.5,202C 1017.5,202.667 1021.5,202.667 1025.5,202C 1032.68,198.755 1038.68,194.089 1043.5,188C 1043.24,186.739 1042.57,185.739 1041.5,185C 1030.96,180.378 1020.63,175.378 1010.5,170C 1005.77,164.965 1005.27,159.465 1009,153.5C 1011.54,150.628 1014.37,148.128 1017.5,146C 1027.88,145.843 1037.88,147.843 1047.5,152C 1050.42,153.946 1053.09,156.113 1055.5,158.5 Z"/></g>
<g><path style="opacity:1" fill="#a5a9db" d="M 799.5,142.5 C 800.461,144.265 800.795,146.265 800.5,148.5C 804.702,148.183 808.702,148.517 812.5,149.5C 808.167,149.5 803.833,149.5 799.5,149.5C 799.5,147.167 799.5,144.833 799.5,142.5 Z"/></g>
<g><path style="opacity:1" fill="#3038ab" d="M 727.5,151.5 C 739.135,151.158 746.468,156.491 749.5,167.5C 748.805,171.577 747.138,175.244 744.5,178.5C 737.663,182.546 730.33,185.379 722.5,187C 725.859,194.359 731.192,199.692 738.5,203C 746.864,203.244 754.864,201.577 762.5,198C 765.73,195.927 769.063,194.094 772.5,192.5C 775.246,193.096 776.08,194.763 775,197.5C 763.967,206.041 751.467,210.208 737.5,210C 725.619,204.561 717.952,195.561 714.5,183C 715.999,175.842 717.499,168.675 719,161.5C 720.978,157.362 723.811,154.029 727.5,151.5 Z"/></g>
<g><path style="opacity:1" fill="#3239ab" d="M 877.5,152.5 C 879.144,152.286 880.644,152.62 882,153.5C 882.333,161.5 882.667,169.5 883,177.5C 888.547,168.953 895.713,162.12 904.5,157C 909.898,155.781 914.398,157.281 918,161.5C 920.414,164.815 922.081,168.482 923,172.5C 924.478,180.441 925.645,188.441 926.5,196.5C 926.468,198.759 926.134,200.925 925.5,203C 922.783,204.033 920.949,203.2 920,200.5C 919.231,190.017 917.565,179.683 915,169.5C 913.062,164.542 909.562,162.709 904.5,164C 893.38,172.129 885.714,182.796 881.5,196C 879.299,196.825 877.466,196.325 876,194.5C 875.333,181.167 875.333,167.833 876,154.5C 876.717,153.956 877.217,153.289 877.5,152.5 Z"/></g>
<g><path style="opacity:1" fill="#979dd5" d="M 812.5,157.5 C 808.936,156.577 805.269,156.244 801.5,156.5C 801.5,160.167 801.5,163.833 801.5,167.5C 800.517,163.702 800.183,159.702 800.5,155.5C 804.971,154.911 808.971,155.577 812.5,157.5 Z"/></g>
<g><path style="opacity:1" fill="#2d36aa" d="M 980.5,177.5 C 980.735,184.354 981.402,191.021 982.5,197.5C 982.5,198.5 982.5,199.5 982.5,200.5C 982.444,205.731 983.111,210.731 984.5,215.5C 989.972,232.057 984.306,242.557 967.5,247C 959.343,249.043 951.176,249.876 943,249.5C 942.36,247.735 942.527,246.068 943.5,244.5C 948.731,244.556 953.731,243.889 958.5,242.5C 965.839,241.543 972.339,238.543 978,233.5C 978.667,226.5 978.667,219.5 978,212.5C 976.606,204.559 975.606,196.559 975,188.5C 968.926,197.751 960.426,200.918 949.5,198C 943.353,195.615 939.02,191.449 936.5,185.5C 936.704,182.482 937.037,179.482 937.5,176.5C 943.441,159.533 955.108,153.033 972.5,157C 979.012,159.203 982.179,163.703 982,170.5C 978.085,172.289 975.752,170.956 975,166.5C 964.788,158.86 955.788,160.193 948,170.5C 944.593,174.628 942.926,179.295 943,184.5C 949.846,193.405 957.846,194.738 967,188.5C 969.958,184.084 972.792,179.584 975.5,175C 977.928,174.253 979.594,175.086 980.5,177.5 Z"/></g>
<g><path style="opacity:1" fill="#babce3" d="M 784.5,157.5 C 787.625,156.521 790.958,156.187 794.5,156.5C 794.5,160.167 794.5,163.833 794.5,167.5C 793.521,164.375 793.187,161.042 793.5,157.5C 790.5,157.5 787.5,157.5 784.5,157.5 Z"/></g>
<g><path style="opacity:1" fill="#f5f5fb" d="M 728.5,158.5 C 734.49,158.099 738.99,160.432 742,165.5C 742.484,167.913 742.15,170.246 741,172.5C 735.519,176.581 729.352,178.915 722.5,179.5C 722.745,171.91 724.745,164.91 728.5,158.5 Z"/></g>
<g><path style="opacity:1" fill="#6369c0" d="M 841.5,153.5 C 840.791,154.404 839.791,154.737 838.5,154.5C 838.5,156.833 838.5,159.167 838.5,161.5C 837.527,159.052 837.194,156.385 837.5,153.5C 838.833,153.5 840.167,153.5 841.5,153.5 Z"/></g>
<g><path style="opacity:1" fill="#babce3" d="M 1055.5,158.5 C 1056.46,160.265 1056.79,162.265 1056.5,164.5C 1054.59,164.784 1052.92,164.451 1051.5,163.5C 1052.83,163.5 1054.17,163.5 1055.5,163.5C 1055.5,161.833 1055.5,160.167 1055.5,158.5 Z"/></g>
<g><path style="opacity:1" fill="#a3a6da" d="M 858.5,161.5 C 859.972,165.919 860.638,170.586 860.5,175.5C 859.028,171.081 858.362,166.414 858.5,161.5 Z"/></g>
<g><path style="opacity:1" fill="#666cc1" d="M 937.5,176.5 C 937.037,179.482 936.704,182.482 936.5,185.5C 935.185,182.373 935.518,179.373 937.5,176.5 Z"/></g>
<g><path style="opacity:1" fill="#7075c5" d="M 839.5,172.5 C 840.889,177.269 841.556,182.269 841.5,187.5C 840.111,182.731 839.444,177.731 839.5,172.5 Z"/></g>
<g><path style="opacity:1" fill="#7a7fc9" d="M 980.5,177.5 C 982.126,183.928 982.793,190.595 982.5,197.5C 981.402,191.021 980.735,184.354 980.5,177.5 Z"/></g>
<g><path style="opacity:1" fill="#6c71c3" d="M 982.5,200.5 C 983.889,205.269 984.556,210.269 984.5,215.5C 983.111,210.731 982.444,205.731 982.5,200.5 Z"/></g>
<g><path style="opacity:1" fill="#5f63be" d="M 958.5,242.5 C 953.731,243.889 948.731,244.556 943.5,244.5C 948.269,243.111 953.269,242.444 958.5,242.5 Z"/></g>
<g><path style="opacity:1" fill="#3339ac" d="M 566.5,320.5 C 579.505,320.682 592.505,321.015 605.5,321.5C 722.849,322.343 840.183,323.843 957.5,326C 1001.96,330.074 1046.63,331.408 1091.5,330C 1101.59,326.358 1109.09,329.191 1114,338.5C 1117.51,356.524 1121.01,374.524 1124.5,392.5C 1124.2,396.79 1124.86,400.79 1126.5,404.5C 1127.31,410.027 1128.31,415.527 1129.5,421C 1129.21,424.911 1127.21,427.578 1123.5,429C 1117.13,430.723 1110.79,432.223 1104.5,433.5C 1098.96,434.087 1093.63,435.087 1088.5,436.5C 1047.95,441.776 1007.28,445.943 966.5,449C 920.167,449.667 873.833,449.667 827.5,449C 780.284,445.57 732.951,443.403 685.5,442.5C 680.731,441.111 675.731,440.444 670.5,440.5C 643.913,437.483 617.579,432.983 591.5,427C 579.526,425.924 567.526,425.257 555.5,425C 550.912,419.265 549.412,412.765 551,405.5C 552.733,403.398 554.733,403.065 557,404.5C 557.226,408.887 557.726,413.221 558.5,417.5C 571.857,418.742 585.19,420.075 598.5,421.5C 600.515,422.924 602.848,423.59 605.5,423.5C 612.662,425.099 619.995,426.433 627.5,427.5C 632.959,428.951 638.626,429.951 644.5,430.5C 646.5,430.833 648.5,431.167 650.5,431.5C 655.269,432.889 660.269,433.556 665.5,433.5C 669.119,434.18 672.786,434.68 676.5,435C 725.995,436.117 775.329,438.45 824.5,442C 877.177,442.869 929.843,442.535 982.5,441C 1002.15,439.138 1021.82,437.304 1041.5,435.5C 1046.73,435.556 1051.73,434.889 1056.5,433.5C 1078.57,431.849 1100.41,428.182 1122,422.5C 1120.13,401.585 1116.63,380.919 1111.5,360.5C 1111.19,356.64 1110.52,352.974 1109.5,349.5C 1109.5,349.167 1109.5,348.833 1109.5,348.5C 1109.59,345.848 1108.92,343.515 1107.5,341.5C 1106.8,339.284 1105.46,337.451 1103.5,336C 1098.8,335.352 1094.13,335.519 1089.5,336.5C 1058.83,336.385 1028.16,336.051 997.5,335.5C 986.785,335.193 976.119,334.36 965.5,333C 910.147,332.779 854.814,331.946 799.5,330.5C 740.674,328.888 681.674,328.221 622.5,328.5C 603.834,327.778 585.167,326.945 566.5,326C 563.876,324.031 563.876,322.198 566.5,320.5 Z"/></g>
<g><path style="opacity:1" fill="#9da1d8" d="M 566.5,320.5 C 579.525,319.298 592.525,319.631 605.5,321.5C 592.505,321.015 579.505,320.682 566.5,320.5 Z"/></g>
<g><path style="opacity:1" fill="#989bd5" d="M 622.5,328.5 C 681.674,328.221 740.674,328.888 799.5,330.5C 740.331,330.229 681.331,329.562 622.5,328.5 Z"/></g>
<g><path style="opacity:1" fill="#393dad" d="M 565.5,332.5 C 569.949,332.256 571.615,334.422 570.5,339C 568.732,356.793 567.565,374.626 567,392.5C 565.267,394.602 563.267,394.935 561,393.5C 560.833,388.5 560.667,383.5 560.5,378.5C 561.827,363.964 562.994,349.298 564,334.5C 564.717,333.956 565.217,333.289 565.5,332.5 Z"/></g>
<g><path style="opacity:1" fill="#969ad5" d="M 997.5,335.5 C 1028.16,336.051 1058.83,336.385 1089.5,336.5C 1058.82,337.794 1028.15,337.46 997.5,335.5 Z"/></g>
<g><path style="opacity:1" fill="#2833a9" d="M 722.5,344.5 C 725.93,343.755 727.597,345.089 727.5,348.5C 726.697,371.483 726.197,394.483 726,417.5C 724.333,418.833 722.667,418.833 721,417.5C 720.333,393.833 720.333,370.167 721,346.5C 721.717,345.956 722.217,345.289 722.5,344.5 Z"/></g>
<g><path style="opacity:1" fill="#b7b9e2" d="M 1107.5,341.5 C 1108.92,343.515 1109.59,345.848 1109.5,348.5C 1108.08,346.485 1107.41,344.152 1107.5,341.5 Z"/></g>
<g><path style="opacity:1" fill="#3139ab" d="M 629.5,419.5 C 629.59,416.848 628.924,414.515 627.5,412.5C 626.664,408.677 625.664,405.011 624.5,401.5C 624.59,398.848 623.924,396.515 622.5,394.5C 618.78,380.099 617.28,365.432 618,350.5C 620,349.167 622,349.167 624,350.5C 623.911,372.223 627.745,393.223 635.5,413.5C 637.146,412.221 638.313,410.555 639,408.5C 644.333,390.5 649.667,372.5 655,354.5C 656.667,353.167 658.333,353.167 660,354.5C 656.711,374.65 651.378,394.317 644,413.5C 642.539,417.26 640.039,420.093 636.5,422C 635.167,422.667 633.833,422.667 632.5,422C 631.627,420.955 630.627,420.122 629.5,419.5 Z"/></g>
<g><path style="opacity:1" fill="#bbbee4" d="M 1109.5,349.5 C 1110.52,352.974 1111.19,356.64 1111.5,360.5C 1109.78,357.155 1109.12,353.489 1109.5,349.5 Z"/></g>
<g><path style="opacity:1" fill="#2d36aa" d="M 737.5,379.5 C 737.697,386.026 738.364,392.359 739.5,398.5C 739.879,405.902 741.712,412.902 745,419.5C 749.577,423.551 753.577,422.885 757,417.5C 762.71,410.413 766.543,402.413 768.5,393.5C 767.585,389.856 767.419,386.19 768,382.5C 769.388,381.446 770.888,381.28 772.5,382C 775.85,392.321 774.684,402.155 769,411.5C 765.218,418.948 759.718,424.782 752.5,429C 747.37,429.521 743.203,427.688 740,423.5C 737.566,420.205 735.899,416.538 735,412.5C 733.128,400.167 731.794,387.834 731,375.5C 735.033,373.69 737.2,375.024 737.5,379.5 Z"/></g>
<g><path style="opacity:1" fill="#3139ab" d="M 674.5,375.5 C 685.19,376.998 693.024,382.665 698,392.5C 700.857,399.507 699.691,405.674 694.5,411C 683.908,419.676 673.408,419.51 663,410.5C 658.783,396.251 662.616,384.585 674.5,375.5 Z"/></g>
<g><path style="opacity:1" fill="#2e37aa" d="M 785.5,393.5 C 785.335,396.518 785.502,399.518 786,402.5C 786.513,401.473 787.013,400.473 787.5,399.5C 789.875,391.268 795.208,387.101 803.5,387C 807.827,388.573 810.993,391.407 813,395.5C 815.465,401.697 817.465,408.031 819,414.5C 821.876,408.577 825.376,403.077 829.5,398C 833.505,396.902 837.005,397.735 840,400.5C 845.112,409.672 848.945,419.338 851.5,429.5C 852.091,433.92 850.424,435.253 846.5,433.5C 843.443,426.715 840.943,419.715 839,412.5C 835.895,402.417 832.228,402.084 828,411.5C 825.912,417.121 823.078,422.287 819.5,427C 818.167,427.667 816.833,427.667 815.5,427C 812.736,418.266 810.236,409.432 808,400.5C 805.717,393.125 801.717,391.792 796,396.5C 792.917,402.657 790.417,408.99 788.5,415.5C 787.076,417.515 786.41,419.848 786.5,422.5C 783.991,424.157 781.825,423.824 780,421.5C 779.689,409.324 779.189,397.158 778.5,385C 778.53,382.576 778.863,380.243 779.5,378C 781.701,377.175 783.534,377.675 785,379.5C 785.499,384.155 785.666,388.821 785.5,393.5 Z"/></g>
<g><path style="opacity:1" fill="#f8f8fc" d="M 667.5,399.5 C 668.924,397.485 669.59,395.152 669.5,392.5C 670.777,389.447 672.444,386.614 674.5,384C 676.178,384.112 677.845,384.612 679.5,385.5C 680.554,385.32 681.554,384.987 682.5,384.5C 685.484,386.984 688.318,389.65 691,392.5C 694.313,400.373 692.146,406.206 684.5,410C 680.833,410.667 677.167,410.667 673.5,410C 668.755,408.084 666.755,404.584 667.5,399.5 Z"/></g>
<g><path style="opacity:1" fill="#2e36aa" d="M 904.5,430.5 C 898.536,431.307 892.536,431.64 886.5,431.5C 872.661,431.154 866.328,423.987 867.5,410C 869.864,404.726 871.697,399.226 873,393.5C 877.514,386.836 883.347,385.67 890.5,390C 898.982,396.352 899.649,403.352 892.5,411C 887.012,413.016 881.345,413.849 875.5,413.5C 874.431,420.567 877.431,424.4 884.5,425C 889.833,425.667 895.167,425.667 900.5,425C 905.91,422.618 911.576,421.451 917.5,421.5C 917.739,423.467 917.406,425.301 916.5,427C 912.454,428.061 908.454,429.228 904.5,430.5 Z"/></g>
<g><path style="opacity:1" fill="#797ec9" d="M 737.5,379.5 C 739.094,385.594 739.761,391.928 739.5,398.5C 738.364,392.359 737.697,386.026 737.5,379.5 Z"/></g>
<g><path style="opacity:1" fill="#f0f0f9" d="M 880.5,393.5 C 886.026,393.853 889.693,396.686 891.5,402C 891.241,403.261 890.574,404.261 889.5,405C 885.219,406.628 880.886,406.795 876.5,405.5C 877.537,401.333 878.87,397.333 880.5,393.5 Z"/></g>
<g><path style="opacity:1" fill="#353ead" d="M 554.5,395.5 C 558.676,394.831 560.009,396.331 558.5,400C 557.207,400.49 555.873,400.657 554.5,400.5C 554.5,398.833 554.5,397.167 554.5,395.5 Z"/></g>
<g><path style="opacity:1" fill="#b4b6e1" d="M 622.5,394.5 C 623.924,396.515 624.59,398.848 624.5,401.5C 623.076,399.485 622.41,397.152 622.5,394.5 Z"/></g>
<g><path style="opacity:1" fill="#a4a7da" d="M 669.5,392.5 C 669.59,395.152 668.924,397.485 667.5,399.5C 667.41,396.848 668.076,394.515 669.5,392.5 Z"/></g>
<g><path style="opacity:1" fill="#a9addc" d="M 785.5,393.5 C 786.167,395.5 786.833,397.5 787.5,399.5C 787.013,400.473 786.513,401.473 786,402.5C 785.502,399.518 785.335,396.518 785.5,393.5 Z"/></g>
<g><path style="opacity:1" fill="#6d70c3" d="M 1124.5,392.5 C 1125.62,396.295 1126.28,400.295 1126.5,404.5C 1124.86,400.79 1124.2,396.79 1124.5,392.5 Z"/></g>
<g><path style="opacity:1" fill="#b1b3e0" d="M 627.5,412.5 C 628.924,414.515 629.59,416.848 629.5,419.5C 628.076,417.485 627.41,415.152 627.5,412.5 Z"/></g>
<g><path style="opacity:1" fill="#b2b3e0" d="M 788.5,415.5 C 788.59,418.152 787.924,420.485 786.5,422.5C 786.41,419.848 787.076,417.515 788.5,415.5 Z"/></g>
<g><path style="opacity:1" fill="#b5b7e1" d="M 598.5,421.5 C 601.152,421.41 603.485,422.076 605.5,423.5C 602.848,423.59 600.515,422.924 598.5,421.5 Z"/></g>
<g><path style="opacity:1" fill="#b4b6e1" d="M 627.5,427.5 C 633.503,427.333 639.17,428.333 644.5,430.5C 638.626,429.951 632.959,428.951 627.5,427.5 Z"/></g>
<g><path style="opacity:1" fill="#b8bae2" d="M 904.5,430.5 C 901.305,432.03 897.805,432.696 894,432.5C 891.31,432.497 888.81,432.164 886.5,431.5C 892.536,431.64 898.536,431.307 904.5,430.5 Z"/></g>
<g><path style="opacity:1" fill="#9195d3" d="M 650.5,431.5 C 655.731,431.444 660.731,432.111 665.5,433.5C 660.269,433.556 655.269,432.889 650.5,431.5 Z"/></g>
<g><path style="opacity:1" fill="#6a6fc2" d="M 1056.5,433.5 C 1051.73,434.889 1046.73,435.556 1041.5,435.5C 1046.27,434.111 1051.27,433.444 1056.5,433.5 Z"/></g>
<g><path style="opacity:1" fill="#cacbea" d="M 1104.5,433.5 C 1099.55,435.773 1094.22,436.773 1088.5,436.5C 1093.63,435.087 1098.96,434.087 1104.5,433.5 Z"/></g>
<g><path style="opacity:1" fill="#9195d3" d="M 670.5,440.5 C 675.731,440.444 680.731,441.111 685.5,442.5C 680.269,442.556 675.269,441.889 670.5,440.5 Z"/></g>
<g><path style="opacity:1" fill="#3037ab" d="M 584.5,477.5 C 586.515,478.924 588.848,479.59 591.5,479.5C 604.41,481.976 617.41,483.976 630.5,485.5C 635.269,486.889 640.269,487.556 645.5,487.5C 670.123,490.265 694.79,492.431 719.5,494C 750.5,494.333 781.5,494.667 812.5,495C 820.516,495.477 828.516,496.144 836.5,497C 897.828,498.411 959.161,498.744 1020.5,498C 1028.57,497.598 1036.57,496.765 1044.5,495.5C 1048.49,495.884 1052.16,495.217 1055.5,493.5C 1063.76,491.957 1072.09,490.957 1080.5,490.5C 1084.36,490.192 1088.03,489.525 1091.5,488.5C 1097.29,488.096 1102.96,488.596 1108.5,490C 1111.71,492.731 1113.21,496.231 1113,500.5C 1113.67,518.5 1113.67,536.5 1113,554.5C 1109.47,559.345 1104.64,561.679 1098.5,561.5C 1094.64,561.808 1090.97,562.475 1087.5,563.5C 1085.83,563.5 1084.17,563.5 1082.5,563.5C 1071.97,563.47 1061.64,564.137 1051.5,565.5C 1050.17,565.5 1048.83,565.5 1047.5,565.5C 1040.58,565.656 1033.91,566.656 1027.5,568.5C 1022.59,568.362 1017.92,569.028 1013.5,570.5C 1012.83,570.5 1012.17,570.5 1011.5,570.5C 1007.64,570.808 1003.97,571.475 1000.5,572.5C 993.102,573.981 985.602,574.647 978,574.5C 951.851,573.053 925.684,571.886 899.5,571C 797.493,570.692 695.493,569.692 593.5,568C 583.825,567.458 574.158,566.791 564.5,566C 563.193,564.057 563.193,562.223 564.5,560.5C 588.16,561.201 611.827,561.534 635.5,561.5C 637.833,561.5 640.167,561.5 642.5,561.5C 652.658,562.659 662.992,562.825 673.5,562C 672.956,561.283 672.289,560.783 671.5,560.5C 669.919,558.858 669.253,556.858 669.5,554.5C 670.12,548.074 669.453,542.074 667.5,536.5C 672.488,517.885 682.321,515.552 697,529.5C 699.608,533.684 698.775,536.684 694.5,538.5C 687.833,538.5 681.167,538.5 674.5,538.5C 674.183,542.702 674.517,546.702 675.5,550.5C 675.833,552.5 676.167,554.5 676.5,556.5C 686.555,556.737 696.221,554.903 705.5,551C 707.5,550.333 709.5,550.333 711.5,551C 712.86,552.938 712.527,554.604 710.5,556C 704.757,558.707 698.757,560.54 692.5,561.5C 690.199,562.06 687.866,562.56 685.5,563C 702.497,563.5 719.497,563.667 736.5,563.5C 786.814,564.477 837.147,564.81 887.5,564.5C 901.661,565.661 915.994,565.827 930.5,565C 929.756,563.961 928.756,563.461 927.5,563.5C 924.435,558.77 923.769,553.77 925.5,548.5C 926.451,547.081 926.784,545.415 926.5,543.5C 924.585,543.216 922.919,543.549 921.5,544.5C 916.877,545.592 915.044,543.925 916,539.5C 919.583,537.71 923.416,537.043 927.5,537.5C 928.041,534.348 927.041,531.848 924.5,530C 920.137,529.106 915.804,528.106 911.5,527C 909.473,525.604 909.14,523.938 910.5,522C 930.785,519.802 937.951,528.302 932,547.5C 931.19,551.358 931.357,555.024 932.5,558.5C 934.515,559.924 936.848,560.59 939.5,560.5C 939.5,560.833 939.5,561.167 939.5,561.5C 939.5,563.167 939.5,564.833 939.5,566.5C 942.5,566.5 945.5,566.5 948.5,566.5C 963.154,567.25 977.821,567.583 992.5,567.5C 997.45,567.23 1002.12,566.23 1006.5,564.5C 1016.07,562.732 1025.73,561.399 1035.5,560.5C 1040.73,560.556 1045.73,559.889 1050.5,558.5C 1066.57,558.225 1082.57,557.058 1098.5,555C 1101.15,554.548 1103.65,553.714 1106,552.5C 1106.28,537.324 1106.78,522.157 1107.5,507C 1108.56,496.669 1103.89,492.836 1093.5,495.5C 1089.09,495.529 1084.75,495.862 1080.5,496.5C 1072.3,497.422 1064.3,498.755 1056.5,500.5C 1055.83,500.5 1055.17,500.5 1054.5,500.5C 1050.64,500.808 1046.97,501.475 1043.5,502.5C 1038.55,503.228 1033.55,503.728 1028.5,504C 999.167,504.167 969.833,504.333 940.5,504.5C 868.51,503.334 796.51,502.167 724.5,501C 696.474,499.064 668.474,496.731 640.5,494C 625.15,491.739 609.817,489.406 594.5,487C 584.736,484.799 575.069,482.299 565.5,479.5C 565.44,478.957 565.107,478.624 564.5,478.5C 563.505,484.128 563.171,489.794 563.5,495.5C 564.578,515.485 564.745,535.485 564,555.5C 562,558.167 560,558.167 558,555.5C 557.049,529.17 556.715,502.837 557,476.5C 557.021,471.177 559.521,468.677 564.5,469C 565.337,470.011 565.67,471.178 565.5,472.5C 571.779,474.32 578.112,475.987 584.5,477.5 Z"/></g>
<g><path style="opacity:1" fill="#a8abdc" d="M 584.5,477.5 C 587.152,477.41 589.485,478.076 591.5,479.5C 588.848,479.59 586.515,478.924 584.5,477.5 Z"/></g>
<g><path style="opacity:1" fill="#a0a4d9" d="M 630.5,485.5 C 635.731,485.444 640.731,486.111 645.5,487.5C 640.269,487.556 635.269,486.889 630.5,485.5 Z"/></g>
<g><path style="opacity:1" fill="#757ac7" d="M 1091.5,488.5 C 1088.03,489.525 1084.36,490.192 1080.5,490.5C 1083.84,488.783 1087.51,488.116 1091.5,488.5 Z"/></g>
<g><path style="opacity:1" fill="#c9cbe9" d="M 565.5,479.5 C 564.833,484.833 564.167,490.167 563.5,495.5C 563.171,489.794 563.505,484.128 564.5,478.5C 565.107,478.624 565.44,478.957 565.5,479.5 Z"/></g>
<g><path style="opacity:1" fill="#7b7ec9" d="M 1055.5,493.5 C 1052.16,495.217 1048.49,495.884 1044.5,495.5C 1047.97,494.475 1051.64,493.808 1055.5,493.5 Z"/></g>
<g><path style="opacity:1" fill="#babce3" d="M 1080.5,496.5 C 1072.83,499.027 1064.83,500.36 1056.5,500.5C 1064.3,498.755 1072.3,497.422 1080.5,496.5 Z"/></g>
<g><path style="opacity:1" fill="#b0b3df" d="M 1054.5,500.5 C 1051.16,502.217 1047.49,502.884 1043.5,502.5C 1046.97,501.475 1050.64,500.808 1054.5,500.5 Z"/></g>
<g><path style="opacity:1" fill="#343aac" d="M 765.5,530.5 C 763.047,529.355 760.713,529.688 758.5,531.5C 756.265,531.795 754.265,531.461 752.5,530.5C 752.286,528.856 752.62,527.356 753.5,526C 755.927,525.098 758.26,524.264 760.5,523.5C 761.833,523.5 763.167,523.5 764.5,523.5C 764.5,517.167 764.5,510.833 764.5,504.5C 767.808,503.974 769.974,505.307 771,508.5C 771.499,513.155 771.666,517.821 771.5,522.5C 774.518,522.335 777.518,522.502 780.5,523C 783.326,525.522 782.993,527.522 779.5,529C 777.19,529.497 774.857,529.663 772.5,529.5C 772.393,535.88 772.893,542.213 774,548.5C 776.447,554.478 780.947,556.978 787.5,556C 790.167,558 790.167,560 787.5,562C 777.19,563.593 770.357,559.426 767,549.5C 766.103,543.194 765.603,536.861 765.5,530.5 Z"/></g>
<g><path style="opacity:1" fill="#343aac" d="M 642.5,549.5 C 643.314,547.369 643.814,545.036 644,542.5C 644.5,533.173 644.666,523.839 644.5,514.5C 639.833,514.5 635.167,514.5 630.5,514.5C 629.193,512.777 629.193,510.943 630.5,509C 645.5,508.333 660.5,508.333 675.5,509C 678.167,511 678.167,513 675.5,515C 667.173,515.5 658.84,515.666 650.5,515.5C 650.784,527.869 650.284,540.202 649,552.5C 648.051,555.2 646.217,556.033 643.5,555C 642.594,553.301 642.261,551.467 642.5,549.5 Z"/></g>
<g><path style="opacity:1" fill="#b9bce3" d="M 892.5,514.5 C 893.919,513.549 895.585,513.216 897.5,513.5C 897.975,516.082 897.308,518.082 895.5,519.5C 896.301,517.958 896.634,516.292 896.5,514.5C 895.167,514.5 893.833,514.5 892.5,514.5 Z"/></g>
<g><path style="opacity:1" fill="#3d43b0" d="M 892.5,514.5 C 893.833,514.5 895.167,514.5 896.5,514.5C 896.634,516.292 896.301,517.958 895.5,519.5C 891.727,519.343 890.727,517.676 892.5,514.5 Z"/></g>
<g><path style="opacity:1" fill="#2d36aa" d="M 755.5,519.5 C 755.657,520.873 755.49,522.207 755,523.5C 752.672,524.664 750.838,526.33 749.5,528.5C 747.176,531.804 744.843,535.138 742.5,538.5C 746.964,543.976 752.131,548.643 758,552.5C 759.167,556.667 757.667,558.167 753.5,557C 748.033,553.199 742.866,549.032 738,544.5C 735.318,547.349 732.485,550.016 729.5,552.5C 728.167,552.5 726.833,552.5 725.5,552.5C 725.5,551.167 725.5,549.833 725.5,548.5C 726.793,546.704 728.293,545.037 730,543.5C 731.187,541.956 731.52,540.289 731,538.5C 725.445,533.945 719.612,529.779 713.5,526C 711.398,524.267 711.065,522.267 712.5,520C 715.419,519.448 718.086,520.115 720.5,522C 725.977,525.976 731.31,530.142 736.5,534.5C 740.645,529.187 744.979,524.02 749.5,519C 751.712,518.211 753.712,518.378 755.5,519.5 Z"/></g>
<g><path style="opacity:1" fill="#2f37ab" d="M 954.5,521.5 C 964.192,521.096 972.359,524.43 979,531.5C 980.58,536.596 978.746,539.763 973.5,541C 967.485,541.424 961.485,541.924 955.5,542.5C 956.379,548.21 959.379,552.376 964.5,555C 970.361,555.72 976.194,555.554 982,554.5C 986.001,555.674 986.501,557.84 983.5,561C 974.561,563.422 965.895,562.755 957.5,559C 956,557.5 954.5,556 953,554.5C 950.951,549.455 948.451,544.788 945.5,540.5C 946.611,533.278 949.611,526.945 954.5,521.5 Z"/></g>
<g><path style="opacity:1" fill="#adb1de" d="M 755.5,519.5 C 756.434,520.568 756.768,521.901 756.5,523.5C 757.833,523.5 759.167,523.5 760.5,523.5C 758.26,524.264 755.927,525.098 753.5,526C 752.62,527.356 752.286,528.856 752.5,530.5C 751.778,529.449 750.778,528.782 749.5,528.5C 750.838,526.33 752.672,524.664 755,523.5C 755.49,522.207 755.657,520.873 755.5,519.5 Z"/></g>
<g><path style="opacity:1" fill="#e3e4f4" d="M 678.5,527.5 C 682.844,527.339 686.511,528.839 689.5,532C 685.129,532.828 680.795,532.661 676.5,531.5C 677.18,530.14 677.847,528.807 678.5,527.5 Z"/></g>
<g><path style="opacity:1" fill="#3139ab" d="M 867.5,526.5 C 872.897,526.215 878.23,526.549 883.5,527.5C 884.833,529.167 884.833,530.833 883.5,532.5C 878.849,533.116 874.182,533.782 869.5,534.5C 875.152,540.652 880.985,546.652 887,552.5C 887.896,555.025 887.396,557.192 885.5,559C 879.728,560.953 873.895,561.453 868,560.5C 867.257,558.559 867.424,556.726 868.5,555C 872.167,554.667 875.833,554.333 879.5,554C 873.245,548.083 867.412,541.916 862,535.5C 861.333,533.833 861.333,532.167 862,530.5C 863.812,529.023 865.645,527.69 867.5,526.5 Z"/></g>
<g><path style="opacity:1" fill="#f1f1f9" d="M 971.5,533.5 C 968.5,534.167 965.5,534.833 962.5,535.5C 959.833,535.833 957.167,536.167 954.5,536.5C 954.538,529.631 957.871,527.131 964.5,529C 967.202,530.012 969.535,531.512 971.5,533.5 Z"/></g>
<g><path style="opacity:1" fill="#a9acdc" d="M 765.5,530.5 C 763.194,530.993 760.861,531.326 758.5,531.5C 760.713,529.688 763.047,529.355 765.5,530.5 Z"/></g>
<g><path style="opacity:1" fill="#373cad" d="M 893.5,530.5 C 895.722,530.178 897.556,530.845 899,532.5C 899.667,540.5 899.667,548.5 899,556.5C 897.267,558.602 895.267,558.935 893,557.5C 892.196,548.422 892.363,539.422 893.5,530.5 Z"/></g>
<g><path style="opacity:1" fill="#6a70c3" d="M 971.5,533.5 C 972.043,533.56 972.376,533.893 972.5,534.5C 969.232,535.487 965.898,535.82 962.5,535.5C 965.5,534.833 968.5,534.167 971.5,533.5 Z"/></g>
<g><path style="opacity:1" fill="#4f57b8" d="M 630.5,514.5 C 635.167,514.5 639.833,514.5 644.5,514.5C 644.666,523.839 644.5,533.173 644,542.5C 643.814,545.036 643.314,547.369 642.5,549.5C 643.294,538.185 643.627,526.852 643.5,515.5C 638.968,515.818 634.634,515.485 630.5,514.5 Z"/></g>
<g><path style="opacity:1" fill="#5158b9" d="M 667.5,536.5 C 669.453,542.074 670.12,548.074 669.5,554.5C 668.795,548.601 668.128,542.601 667.5,536.5 Z"/></g>
<g><path style="opacity:1" fill="#777ec9" d="M 694.5,538.5 C 688.355,539.49 682.022,539.823 675.5,539.5C 675.5,543.167 675.5,546.833 675.5,550.5C 674.517,546.702 674.183,542.702 674.5,538.5C 681.167,538.5 687.833,538.5 694.5,538.5 Z"/></g>
<g><path style="opacity:1" fill="#6d73c4" d="M 921.5,544.5 C 922.919,543.549 924.585,543.216 926.5,543.5C 926.784,545.415 926.451,547.081 925.5,548.5C 925.5,547.167 925.5,545.833 925.5,544.5C 924.167,544.5 922.833,544.5 921.5,544.5 Z"/></g>
<g><path style="opacity:1" fill="#bcbee4" d="M 725.5,548.5 C 725.5,549.833 725.5,551.167 725.5,552.5C 726.833,552.5 728.167,552.5 729.5,552.5C 728.081,553.451 726.415,553.784 724.5,553.5C 724.216,551.585 724.549,549.919 725.5,548.5 Z"/></g>
<g><path style="opacity:1" fill="#bec0e5" d="M 932.5,558.5 C 935.152,558.41 937.485,559.076 939.5,560.5C 936.848,560.59 934.515,559.924 932.5,558.5 Z"/></g>
<g><path style="opacity:1" fill="#7478c6" d="M 1050.5,558.5 C 1045.73,559.889 1040.73,560.556 1035.5,560.5C 1040.27,559.111 1045.27,558.444 1050.5,558.5 Z"/></g>
<g><path style="opacity:1" fill="#afb3df" d="M 564.5,560.5 C 568.151,559.835 571.985,559.501 576,559.5C 596,560.008 615.833,560.675 635.5,561.5C 611.827,561.534 588.16,561.201 564.5,560.5 Z"/></g>
<g><path style="opacity:1" fill="#7077c6" d="M 671.5,560.5 C 672.289,560.783 672.956,561.283 673.5,562C 662.992,562.825 652.658,562.659 642.5,561.5C 652.348,561.827 662.014,561.494 671.5,560.5 Z"/></g>
<g><path style="opacity:1" fill="#8c92d1" d="M 692.5,561.5 C 707.167,562.167 721.833,562.833 736.5,563.5C 719.497,563.667 702.497,563.5 685.5,563C 687.866,562.56 690.199,562.06 692.5,561.5 Z"/></g>
<g><path style="opacity:1" fill="#8389cd" d="M 939.5,561.5 C 940.434,562.568 940.768,563.901 940.5,565.5C 943.385,565.194 946.052,565.527 948.5,566.5C 945.5,566.5 942.5,566.5 939.5,566.5C 939.5,564.833 939.5,563.167 939.5,561.5 Z"/></g>
<g><path style="opacity:1" fill="#bdbfe4" d="M 1098.5,561.5 C 1095.16,563.217 1091.49,563.884 1087.5,563.5C 1090.97,562.475 1094.64,561.808 1098.5,561.5 Z"/></g>
<g><path style="opacity:1" fill="#898ed0" d="M 1082.5,563.5 C 1072.36,564.863 1062.03,565.53 1051.5,565.5C 1061.64,564.137 1071.97,563.47 1082.5,563.5 Z"/></g>
<g><path style="opacity:1" fill="#7a80ca" d="M 927.5,563.5 C 928.756,563.461 929.756,563.961 930.5,565C 915.994,565.827 901.661,565.661 887.5,564.5C 901.01,564.829 914.344,564.496 927.5,563.5 Z"/></g>
<g><path style="opacity:1" fill="#666ac0" d="M 1006.5,564.5 C 1002.12,566.23 997.45,567.23 992.5,567.5C 996.883,565.77 1001.55,564.77 1006.5,564.5 Z"/></g>
<g><path style="opacity:1" fill="#babce3" d="M 1047.5,565.5 C 1041.09,567.344 1034.42,568.344 1027.5,568.5C 1033.91,566.656 1040.58,565.656 1047.5,565.5 Z"/></g>
<g><path style="opacity:1" fill="#c2c4e7" d="M 1027.5,568.5 C 1023.08,569.972 1018.41,570.638 1013.5,570.5C 1017.92,569.028 1022.59,568.362 1027.5,568.5 Z"/></g>
<g><path style="opacity:1" fill="#bdbfe4" d="M 1011.5,570.5 C 1008.16,572.217 1004.49,572.884 1000.5,572.5C 1003.97,571.475 1007.64,570.808 1011.5,570.5 Z"/></g>
<g><path style="opacity:1" fill="#3339ac" d="M 1127.5,651.5 C 1127.41,654.152 1128.08,656.485 1129.5,658.5C 1130.65,680.094 1130.82,701.761 1130,723.5C 1129.22,725.286 1128.05,726.786 1126.5,728C 1115.05,732.207 1103.22,734.374 1091,734.5C 1067.15,734.281 1043.65,731.614 1020.5,726.5C 1016.08,725.028 1011.41,724.362 1006.5,724.5C 995.414,723.105 984.248,722.438 973,722.5C 900.691,724.602 828.524,722.768 756.5,717C 728.766,716.737 701.099,715.404 673.5,713C 636.833,712.667 600.167,712.333 563.5,712C 563,711.5 562.5,711 562,710.5C 561.333,706.833 561.333,703.167 562,699.5C 564.235,698.02 566.068,698.353 567.5,700.5C 567.5,702.5 567.5,704.5 567.5,706.5C 598.833,706.5 630.167,706.5 661.5,706.5C 714.912,707.791 768.246,710.625 821.5,715C 878.844,716.389 936.177,716.889 993.5,716.5C 998.269,717.889 1003.27,718.556 1008.5,718.5C 1021.53,720.228 1034.53,722.395 1047.5,725C 1067.12,727.063 1086.79,727.73 1106.5,727C 1111.66,726.197 1116.66,724.864 1121.5,723C 1123.24,718.808 1124.07,714.308 1124,709.5C 1124.79,693.468 1124.62,677.468 1123.5,661.5C 1123.59,658.848 1122.92,656.515 1121.5,654.5C 1121.39,653.883 1121.06,653.383 1120.5,653C 1110.34,652.919 1100.18,653.085 1090,653.5C 1077.98,653.471 1066.14,652.804 1054.5,651.5C 1049.75,649.969 1044.75,649.302 1039.5,649.5C 1003.87,647.487 968.208,646.987 932.5,648C 927.231,649.106 921.897,649.773 916.5,650C 893.498,650.861 870.498,651.695 847.5,652.5C 838.001,651.584 828.335,650.917 818.5,650.5C 773.769,649.532 729.102,647.532 684.5,644.5C 678.739,642.943 672.739,642.276 666.5,642.5C 636.577,639.338 606.577,638.171 576.5,639C 575.5,639.5 574.5,640 573.5,640.5C 572.667,654.822 572.167,669.155 572,683.5C 570,686.167 568,686.167 566,683.5C 565.333,664.833 565.333,646.167 566,627.5C 568.267,626.065 570.267,626.398 572,628.5C 572.202,630.256 572.702,631.922 573.5,633.5C 575.115,632.846 576.782,632.346 578.5,632C 587.833,631.333 597.167,631.333 606.5,632C 661.52,635.967 716.52,639.634 771.5,643C 799.855,643.348 828.188,644.181 856.5,645.5C 878.732,644.419 901.065,643.253 923.5,642C 957.833,641.333 992.167,641.333 1026.5,642C 1041.37,644.232 1056.37,645.565 1071.5,646C 1088.5,646.2 1105.5,646.2 1122.5,646C 1124.37,647.704 1126.04,649.537 1127.5,651.5 Z"/></g>
<g><path style="opacity:1" fill="#878bce" d="M 666.5,642.5 C 672.739,642.276 678.739,642.943 684.5,644.5C 678.301,644.348 672.301,643.682 666.5,642.5 Z"/></g>
<g><path style="opacity:1" fill="#6c70c3" d="M 1039.5,649.5 C 1044.75,649.302 1049.75,649.969 1054.5,651.5C 1049.27,651.556 1044.27,650.889 1039.5,649.5 Z"/></g>
<g><path style="opacity:1" fill="#777dc8" d="M 818.5,650.5 C 828.335,650.917 838.001,651.584 847.5,652.5C 840.159,652.666 832.826,652.5 825.5,652C 822.964,651.814 820.631,651.314 818.5,650.5 Z"/></g>
<g><path style="opacity:1" fill="#3239ac" d="M 595.5,651.5 C 603.187,649.996 609.687,651.996 615,657.5C 616.907,663.08 615.74,668.08 611.5,672.5C 622.132,678.111 623.132,684.944 614.5,693C 608.368,696.907 601.701,698.74 594.5,698.5C 594.261,696.533 594.594,694.699 595.5,693C 600.637,691.732 605.637,690.066 610.5,688C 613.362,686.214 614.028,683.881 612.5,681C 608.924,680.81 605.758,679.643 603,677.5C 602.333,675.5 602.333,673.5 603,671.5C 613.05,662.018 611.217,657.685 597.5,658.5C 597.666,668.506 597.5,678.506 597,688.5C 595,691.167 593,691.167 591,688.5C 590.168,677.152 590.334,665.819 591.5,654.5C 592.901,653.479 594.235,652.479 595.5,651.5 Z"/></g>
<g><path style="opacity:1" fill="#3239ab" d="M 720.5,653.5 C 720.334,660.508 720.5,667.508 721,674.5C 721.717,673.956 722.217,673.289 722.5,672.5C 725.646,670.425 728.979,668.592 732.5,667C 734.769,666.242 736.936,666.409 739,667.5C 739.781,668.944 739.614,670.277 738.5,671.5C 732.046,673.954 726.38,677.621 721.5,682.5C 722.313,683.814 723.313,684.981 724.5,686C 730.114,689.054 735.614,692.221 741,695.5C 742.167,699.667 740.667,701.167 736.5,700C 731.093,697.548 725.926,694.714 721,691.5C 719.916,692.665 719.083,693.998 718.5,695.5C 716.955,696.452 715.288,696.785 713.5,696.5C 713.333,682.163 713.5,667.829 714,653.5C 716.156,650.939 718.323,650.939 720.5,653.5 Z"/></g>
<g><path style="opacity:1" fill="#7377c6" d="M 1127.5,651.5 C 1128.92,653.515 1129.59,655.848 1129.5,658.5C 1128.08,656.485 1127.41,654.152 1127.5,651.5 Z"/></g>
<g><path style="opacity:1" fill="#8e91d1" d="M 1121.5,654.5 C 1122.92,656.515 1123.59,658.848 1123.5,661.5C 1122.08,659.485 1121.41,657.152 1121.5,654.5 Z"/></g>
<g><path style="opacity:1" fill="#2e36aa" d="M 636.5,664.5 C 646.709,662.923 655.542,665.59 663,672.5C 665.057,678.015 665.724,683.682 665,689.5C 663.667,690.833 662.333,690.833 661,689.5C 660.038,685.666 658.704,681.999 657,678.5C 649.091,685.549 639.924,688.715 629.5,688C 625.725,682.757 625.558,677.257 629,671.5C 631.396,668.933 633.896,666.6 636.5,664.5 Z"/></g>
<g><path style="opacity:1" fill="#2e36aa" d="M 677.5,684.5 C 677.552,680.802 677.886,677.135 678.5,673.5C 682.196,665.468 688.196,663.301 696.5,667C 697.554,668.388 697.72,669.888 697,671.5C 693.589,672.293 690.089,672.793 686.5,673C 683.512,676.252 682.845,679.918 684.5,684C 689.051,685.215 693.718,685.881 698.5,686C 699.833,687.667 699.833,689.333 698.5,691C 693.5,691.667 688.5,691.667 683.5,691C 680.591,689.594 678.591,687.428 677.5,684.5 Z"/></g>
<g><path style="opacity:1" fill="#c5c8e8" d="M 720.5,653.5 C 721.167,659.833 721.833,666.167 722.5,672.5C 722.217,673.289 721.717,673.956 721,674.5C 720.5,667.508 720.334,660.508 720.5,653.5 Z"/></g>
<g><path style="opacity:1" fill="#eeeef8" d="M 639.5,670.5 C 644.121,669.993 648.454,670.826 652.5,673C 647.364,678.569 641.031,681.402 633.5,681.5C 633.171,676.487 635.171,672.82 639.5,670.5 Z"/></g>
<g><path style="opacity:1" fill="#8a8ed0" d="M 678.5,673.5 C 677.886,677.135 677.552,680.802 677.5,684.5C 676.098,680.71 676.431,677.044 678.5,673.5 Z"/></g>
<g><path style="opacity:1" fill="#c8cae9" d="M 567.5,700.5 C 568.451,701.919 568.784,703.585 568.5,705.5C 599.671,705.169 630.671,705.502 661.5,706.5C 630.167,706.5 598.833,706.5 567.5,706.5C 567.5,704.5 567.5,702.5 567.5,700.5 Z"/></g>
<g><path style="opacity:1" fill="#9da0d7" d="M 993.5,716.5 C 998.731,716.444 1003.73,717.111 1008.5,718.5C 1003.27,718.556 998.269,717.889 993.5,716.5 Z"/></g>
<g><path style="opacity:1" fill="#6a6ec2" d="M 1006.5,724.5 C 1011.41,724.362 1016.08,725.028 1020.5,726.5C 1015.59,726.638 1010.92,725.972 1006.5,724.5 Z"/></g>
</svg>
