<?xml version="1.0" encoding="UTF-8"?>
<!DOCTYPE svg PUBLIC "-//W3C//DTD SVG 1.1//EN" "http://www.w3.org/Graphics/SVG/1.1/DTD/svg11.dtd">
<svg xmlns="http://www.w3.org/2000/svg" version="1.1" width="1750px" height="1000px" style="shape-rendering:geometricPrecision; text-rendering:geometricPrecision; image-rendering:optimizeQuality; fill-rule:evenodd; clip-rule:evenodd" xmlns:xlink="http://www.w3.org/1999/xlink">
<g><path style="opacity:1" fill="#fefefe" d="M -0.5,-0.5 C 582.833,-0.5 1166.17,-0.5 1749.5,-0.5C 1749.5,332.833 1749.5,666.167 1749.5,999.5C 1166.17,999.5 582.833,999.5 -0.5,999.5C -0.5,666.167 -0.5,332.833 -0.5,-0.5 Z"/></g>
<g><path style="opacity:1" fill="#2b35a9" d="M 686.5,162.5 C 685.399,190.843 685.732,219.176 687.5,247.5C 687.666,257.172 687.5,266.839 687,276.5C 684.733,277.935 682.733,277.602 681,275.5C 680.5,260.837 680.333,246.17 680.5,231.5C 680.235,202.819 680.569,174.152 681.5,145.5C 683.339,144.248 685.172,144.248 687,145.5C 686.782,151.132 686.616,156.799 686.5,162.5 Z"/></g>
<g><path style="opacity:1" fill="#343bac" d="M 638.5,210.5 C 641.293,211.746 643.96,211.413 646.5,209.5C 653.831,208.332 661.164,207.499 668.5,207C 671.167,209 671.167,211 668.5,213C 659.131,214.337 649.797,215.837 640.5,217.5C 639.667,235.824 639.167,254.158 639,272.5C 636.844,275.061 634.677,275.061 632.5,272.5C 632.5,254.5 632.5,236.5 632.5,218.5C 630.901,218.232 629.568,218.566 628.5,219.5C 624.779,220.049 621.112,220.549 617.5,221C 616.446,219.612 616.28,218.112 617,216.5C 621.215,213.112 626.049,211.779 631.5,212.5C 631.943,192.448 631.277,172.448 629.5,152.5C 630.994,148.925 633.161,148.591 636,151.5C 638.206,171.072 639.039,190.739 638.5,210.5 Z"/></g>
<g><path style="opacity:1" fill="#2e37aa" d="M 901.5,202.5 C 900.028,206.919 899.362,211.586 899.5,216.5C 899.5,216.833 899.5,217.167 899.5,217.5C 898.517,221.298 898.183,225.298 898.5,229.5C 899.791,229.737 900.791,229.404 901.5,228.5C 906.179,228.334 910.845,228.501 915.5,229C 916.86,230.938 916.527,232.604 914.5,234C 908.839,234.094 903.339,234.927 898,236.5C 897.333,247.5 897.333,258.5 898,269.5C 899.409,276.436 900.242,283.436 900.5,290.5C 900.362,295.414 901.028,300.081 902.5,304.5C 903.132,314.541 904.132,324.541 905.5,334.5C 907.948,334.085 909.281,335.085 909.5,337.5C 907.746,344.376 904.912,345.042 901,339.5C 899.844,335.877 898.844,332.211 898,328.5C 897.313,311.67 895.313,295.004 892,278.5C 891.501,272.843 891.334,267.176 891.5,261.5C 891.831,253.804 891.497,246.138 890.5,238.5C 889.893,238.624 889.56,238.957 889.5,239.5C 886.676,241.201 885.009,240.367 884.5,237C 884.439,235.289 885.106,233.956 886.5,233C 888.351,232.163 890.184,231.329 892,230.5C 892.499,226.514 892.666,222.514 892.5,218.5C 894.344,212.089 895.344,205.422 895.5,198.5C 895.54,195.012 896.207,191.679 897.5,188.5C 898.924,186.485 899.59,184.152 899.5,181.5C 902.7,172.458 908.366,165.291 916.5,160C 923.592,158.535 929.925,160.035 935.5,164.5C 938.629,168.289 938.129,171.289 934,173.5C 931.951,171.256 929.785,169.089 927.5,167C 924.167,166.333 920.833,166.333 917.5,167C 906.867,176.382 901.534,188.215 901.5,202.5 Z"/></g>
<g><path style="opacity:1" fill="#8185cc" d="M 681.5,145.5 C 680.569,174.152 680.235,202.819 680.5,231.5C 679.336,204.67 679.17,177.67 680,150.5C 680.198,148.618 680.698,146.952 681.5,145.5 Z"/></g>
<g><path style="opacity:1" fill="#353dad" d="M 581.5,169.5 C 585.676,168.831 587.009,170.331 585.5,174C 584.207,174.49 582.873,174.657 581.5,174.5C 581.5,172.833 581.5,171.167 581.5,169.5 Z"/></g>
<g><path style="opacity:1" fill="#3139ab" d="M 1026.5,193.5 C 1026.41,196.152 1027.08,198.485 1028.5,200.5C 1029.45,201.919 1029.78,203.585 1029.5,205.5C 1029.59,209.857 1029.92,214.19 1030.5,218.5C 1028.28,221.271 1026.44,220.938 1025,217.5C 1023.56,210.532 1022.23,203.532 1021,196.5C 1015.68,184.839 1006.84,180.672 994.5,184C 988.35,189.312 984.016,195.812 981.5,203.5C 980.076,205.515 979.41,207.848 979.5,210.5C 977.461,219 976.961,227.667 978,236.5C 981.53,245.732 986.696,253.898 993.5,261C 997.48,264.155 1001.81,266.655 1006.5,268.5C 1008.51,269.924 1010.85,270.59 1013.5,270.5C 1022.44,271.389 1026.61,267.389 1026,258.5C 1021.26,257.271 1019.09,254.271 1019.5,249.5C 1034.46,251.989 1037.63,259.656 1029,272.5C 1022.3,277.845 1014.8,279.011 1006.5,276C 989.513,269.013 978.013,256.846 972,239.5C 968.043,216.906 973.543,197.073 988.5,180C 1000.9,173.383 1012.07,175.216 1022,185.5C 1023.78,188.059 1025.28,190.726 1026.5,193.5 Z"/></g>
<g><path style="opacity:1" fill="#696cc1" d="M 899.5,181.5 C 899.59,184.152 898.924,186.485 897.5,188.5C 897.41,185.848 898.076,183.515 899.5,181.5 Z"/></g>
<g><path style="opacity:1" fill="#b4b6e0" d="M 555.5,186.5 C 553.485,187.924 551.152,188.59 548.5,188.5C 550.515,187.076 552.848,186.41 555.5,186.5 Z"/></g>
<g><path style="opacity:1" fill="#6669c0" d="M 511.5,188.5 C 508.155,190.217 504.489,190.884 500.5,190.5C 503.974,189.475 507.64,188.808 511.5,188.5 Z"/></g>
<g><path style="opacity:1" fill="#696dc2" d="M 489.5,192.5 C 487.485,193.924 485.152,194.59 482.5,194.5C 484.515,193.076 486.848,192.41 489.5,192.5 Z"/></g>
<g><path style="opacity:1" fill="#2f37aa" d="M 555.5,186.5 C 552.848,186.41 550.515,187.076 548.5,188.5C 535.583,191.313 522.583,193.646 509.5,195.5C 508.325,195.281 507.325,195.614 506.5,196.5C 506.624,197.107 506.957,197.44 507.5,197.5C 508.268,198.263 508.768,199.263 509,200.5C 513.472,236.374 514.805,272.374 513,308.5C 510.121,312.641 507.955,312.308 506.5,307.5C 507.702,281.831 507.368,256.164 505.5,230.5C 505.556,225.269 504.889,220.269 503.5,215.5C 503.628,211.119 503.295,206.785 502.5,202.5C 502.261,200.533 502.594,198.699 503.5,197C 501.934,196.235 500.601,196.402 499.5,197.5C 491.178,197.957 483.512,200.29 476.5,204.5C 473.754,203.904 472.92,202.237 474,199.5C 476.313,196.928 479.146,195.261 482.5,194.5C 485.152,194.59 487.485,193.924 489.5,192.5C 493.112,191.578 496.779,190.911 500.5,190.5C 504.489,190.884 508.155,190.217 511.5,188.5C 527.431,185.891 543.265,182.891 559,179.5C 560.833,179.667 562.667,179.833 564.5,180C 565.554,181.388 565.72,182.888 565,184.5C 562.096,186.227 558.93,186.893 555.5,186.5 Z"/></g>
<g><path style="opacity:1" fill="#7f85cb" d="M 509.5,195.5 C 508.833,196.167 508.167,196.833 507.5,197.5C 506.957,197.44 506.624,197.107 506.5,196.5C 507.325,195.614 508.325,195.281 509.5,195.5 Z"/></g>
<g><path style="opacity:1" fill="#6568bf" d="M 1026.5,193.5 C 1027.92,195.515 1028.59,197.848 1028.5,200.5C 1027.08,198.485 1026.41,196.152 1026.5,193.5 Z"/></g>
<g><path style="opacity:1" fill="#858bce" d="M 499.5,197.5 C 500.601,196.402 501.934,196.235 503.5,197C 502.594,198.699 502.261,200.533 502.5,202.5C 502.028,200.469 501.028,198.802 499.5,197.5 Z"/></g>
<g><path style="opacity:1" fill="#6b6dc2" d="M 895.5,198.5 C 895.344,205.422 894.344,212.089 892.5,218.5C 892.656,211.578 893.656,204.911 895.5,198.5 Z"/></g>
<g><path style="opacity:1" fill="#b5b6e1" d="M 981.5,203.5 C 981.59,206.152 980.924,208.485 979.5,210.5C 979.41,207.848 980.076,205.515 981.5,203.5 Z"/></g>
<g><path style="opacity:1" fill="#6367bf" d="M 646.5,209.5 C 643.96,211.413 641.293,211.746 638.5,210.5C 641.167,210.167 643.833,209.833 646.5,209.5 Z"/></g>
<g><path style="opacity:1" fill="#2431a8" d="M 588.5,211.5 C 590.144,211.286 591.644,211.62 593,212.5C 593.667,237.167 593.667,261.833 593,286.5C 591.333,287.833 589.667,287.833 588,286.5C 587.177,261.428 587.344,236.428 588.5,211.5 Z"/></g>
<g><path style="opacity:1" fill="#2d36aa" d="M 713.5,267.5 C 713.5,261.167 713.5,254.833 713.5,248.5C 712.5,248.5 711.5,248.5 710.5,248.5C 707.297,243.984 708.63,241.651 714.5,241.5C 714.543,232.878 716.71,224.878 721,217.5C 724.822,211.959 729.989,210.126 736.5,212C 754.304,215.885 758.638,225.885 749.5,242C 747.913,242.862 746.246,243.529 744.5,244C 736.122,244.012 727.955,245.179 720,247.5C 714.446,268.578 721.946,282.078 742.5,288C 745.957,288.444 749.29,287.944 752.5,286.5C 756.826,286.978 757.493,288.811 754.5,292C 737.363,296.357 724.197,290.857 715,275.5C 713.921,272.937 713.421,270.271 713.5,267.5 Z"/></g>
<g><path style="opacity:1" fill="#696cc1" d="M 1029.5,205.5 C 1031.26,209.773 1031.59,214.106 1030.5,218.5C 1029.92,214.19 1029.59,209.857 1029.5,205.5 Z"/></g>
<g><path style="opacity:1" fill="#a2a6da" d="M 901.5,202.5 C 901.638,207.414 900.972,212.081 899.5,216.5C 899.362,211.586 900.028,206.919 901.5,202.5 Z"/></g>
<g><path style="opacity:1" fill="#f9f9fc" d="M 743.5,237.5 C 736.48,237.07 729.814,238.07 723.5,240.5C 722.235,239.486 721.569,237.986 721.5,236C 722.803,218.099 730.969,213.932 746,223.5C 746.667,227.5 746.667,231.5 746,235.5C 745.292,236.381 744.458,237.047 743.5,237.5 Z"/></g>
<g><path style="opacity:1" fill="#2e37aa" d="M 831.5,251.5 C 830.076,253.515 829.41,255.848 829.5,258.5C 829.286,260.144 829.62,261.644 830.5,263C 840.796,268.995 851.129,268.995 861.5,263C 864.762,260.408 867.262,257.241 869,253.5C 869.907,247.527 870.573,241.527 871,235.5C 872.667,234.167 874.333,234.167 876,235.5C 880.024,254.637 872.857,267.137 854.5,273C 844.992,274.644 835.992,273.311 827.5,269C 822.847,265.212 821.347,260.378 823,254.5C 827.014,240.512 834.847,229.346 846.5,221C 851.726,219.836 856.559,220.669 861,223.5C 862.164,226.567 861.164,228.233 858,228.5C 856,227.833 854,227.167 852,226.5C 841.409,231.644 834.576,239.977 831.5,251.5 Z"/></g>
<g><path style="opacity:1" fill="#2d36aa" d="M 1233.5,268.5 C 1230.24,269.324 1226.9,269.658 1223.5,269.5C 1222.83,269.5 1222.17,269.5 1221.5,269.5C 1219.49,268.076 1217.15,267.41 1214.5,267.5C 1207.33,265.151 1202.33,260.484 1199.5,253.5C 1199.5,249.833 1199.5,246.167 1199.5,242.5C 1198.21,242.263 1197.21,242.596 1196.5,243.5C 1192.32,244.158 1190.82,242.492 1192,238.5C 1194.97,236.966 1198.13,235.8 1201.5,235C 1204.34,229.322 1208.34,224.655 1213.5,221C 1224.72,217.893 1228.89,221.726 1226,232.5C 1224.44,235.728 1221.94,237.895 1218.5,239C 1214.65,240.616 1210.65,241.616 1206.5,242C 1203.58,252.123 1207.25,258.789 1217.5,262C 1220.31,262.629 1223.14,263.129 1226,263.5C 1229.14,262.499 1232.3,261.999 1235.5,262C 1237.08,264.86 1236.41,267.027 1233.5,268.5 Z"/></g>
<g><path style="opacity:1" fill="#878cce" d="M 686.5,162.5 C 686.759,190.834 687.093,219.168 687.5,247.5C 685.732,219.176 685.399,190.843 686.5,162.5 Z"/></g>
<g><path style="opacity:1" fill="#3038ab" d="M 1142.5,248.5 C 1142.59,245.848 1141.92,243.515 1140.5,241.5C 1140.06,237.128 1138.4,233.294 1135.5,230C 1129.39,230.811 1124.22,233.644 1120,238.5C 1116.45,244.93 1113.45,251.596 1111,258.5C 1106.32,261.807 1103.65,260.474 1103,254.5C 1102.03,246.486 1101.37,238.486 1101,230.5C 1103.27,229.065 1105.27,229.398 1107,231.5C 1107.42,235.191 1107.92,238.858 1108.5,242.5C 1108.35,245.853 1109.01,246.186 1110.5,243.5C 1114.09,233.832 1120.76,226.999 1130.5,223C 1135.88,221.936 1140.04,223.769 1143,228.5C 1145.12,232.969 1146.78,237.636 1148,242.5C 1151.23,237.212 1155.06,232.378 1159.5,228C 1166.53,222.606 1172.69,223.44 1178,230.5C 1180,233.833 1182,237.167 1184,240.5C 1185.17,244.667 1183.67,246.167 1179.5,245C 1176.71,241.919 1174.54,238.419 1173,234.5C 1169.54,230.554 1166.04,230.554 1162.5,234.5C 1158.31,239.524 1154.31,244.69 1150.5,250C 1147.15,252.324 1144.48,251.824 1142.5,248.5 Z"/></g>
<g><path style="opacity:1" fill="#8388cd" d="M 899.5,217.5 C 898.92,221.649 899.586,225.316 901.5,228.5C 900.791,229.404 899.791,229.737 898.5,229.5C 898.183,225.298 898.517,221.298 899.5,217.5 Z"/></g>
<g><path style="opacity:1" fill="#2f38aa" d="M 1088.5,264.5 C 1088.59,261.848 1087.92,259.515 1086.5,257.5C 1086.59,254.848 1085.92,252.515 1084.5,250.5C 1084.54,249.244 1084.04,248.244 1083,247.5C 1079.49,253.191 1075.49,258.524 1071,263.5C 1064.62,271.276 1056.45,274.442 1046.5,273C 1044.86,271.871 1043.86,270.371 1043.5,268.5C 1043.55,264.802 1043.89,261.135 1044.5,257.5C 1048.16,245.002 1055.16,234.835 1065.5,227C 1074.56,224.277 1083.06,225.444 1091,230.5C 1091.82,233.517 1090.66,235.183 1087.5,235.5C 1081.4,232.84 1075.07,232.007 1068.5,233C 1057.57,242.023 1051.24,253.523 1049.5,267.5C 1055.19,266.988 1060.19,264.821 1064.5,261C 1070.11,254.722 1074.94,247.888 1079,240.5C 1082.29,237.689 1085.29,238.022 1088,241.5C 1091.33,248.155 1093.67,255.155 1095,262.5C 1095.78,265.429 1095.61,268.263 1094.5,271C 1093.06,271.781 1091.72,271.614 1090.5,270.5C 1089.63,268.55 1088.96,266.55 1088.5,264.5 Z"/></g>
<g><path style="opacity:1" fill="#9197d3" d="M 1216.5,227.5 C 1218.03,226.212 1219.7,226.212 1221.5,227.5C 1221.38,228.107 1221.04,228.44 1220.5,228.5C 1219.43,227.566 1218.1,227.232 1216.5,227.5 Z"/></g>
<g><path style="opacity:1" fill="#eaebf7" d="M 1216.5,227.5 C 1218.1,227.232 1219.43,227.566 1220.5,228.5C 1218.65,231.847 1215.81,233.847 1212,234.5C 1210.74,234.15 1210.41,233.483 1211,232.5C 1212.7,230.627 1214.54,228.96 1216.5,227.5 Z"/></g>
<g><path style="opacity:1" fill="#8f93d1" d="M 503.5,215.5 C 504.889,220.269 505.556,225.269 505.5,230.5C 504.111,225.731 503.444,220.731 503.5,215.5 Z"/></g>
<g><path style="opacity:1" fill="#7074c5" d="M 743.5,237.5 C 736.994,238.669 730.327,239.669 723.5,240.5C 729.814,238.07 736.48,237.07 743.5,237.5 Z"/></g>
<g><path style="opacity:1" fill="#9da3d8" d="M 1108.5,242.5 C 1109.17,242.833 1109.83,243.167 1110.5,243.5C 1109.01,246.186 1108.35,245.853 1108.5,242.5 Z"/></g>
<g><path style="opacity:1" fill="#a0a5d9" d="M 889.5,239.5 C 889.56,238.957 889.893,238.624 890.5,238.5C 891.497,246.138 891.831,253.804 891.5,261.5C 890.833,254.167 890.167,246.833 889.5,239.5 Z"/></g>
<g><path style="opacity:1" fill="#bec0e5" d="M 1140.5,241.5 C 1141.92,243.515 1142.59,245.848 1142.5,248.5C 1141.08,246.485 1140.41,244.152 1140.5,241.5 Z"/></g>
<g><path style="opacity:1" fill="#747cc7" d="M 1196.5,243.5 C 1197.21,242.596 1198.21,242.263 1199.5,242.5C 1199.5,246.167 1199.5,249.833 1199.5,253.5C 1199.12,249.881 1198.12,246.548 1196.5,243.5 Z"/></g>
<g><path style="opacity:1" fill="#c4c8e7" d="M 628.5,219.5 C 629.568,218.566 630.901,218.232 632.5,218.5C 632.5,236.5 632.5,254.5 632.5,272.5C 631.503,255.008 631.17,237.341 631.5,219.5C 630.5,219.5 629.5,219.5 628.5,219.5 Z"/></g>
<g><path style="opacity:1" fill="#b5b7e1" d="M 1084.5,250.5 C 1085.92,252.515 1086.59,254.848 1086.5,257.5C 1085.08,255.485 1084.41,253.152 1084.5,250.5 Z"/></g>
<g><path style="opacity:1" fill="#b3b6e1" d="M 831.5,251.5 C 831.59,254.152 830.924,256.485 829.5,258.5C 829.41,255.848 830.076,253.515 831.5,251.5 Z"/></g>
<g><path style="opacity:1" fill="#888fcf" d="M 710.5,248.5 C 711.5,248.5 712.5,248.5 713.5,248.5C 713.5,254.833 713.5,261.167 713.5,267.5C 713.082,261.07 712.082,254.736 710.5,248.5 Z"/></g>
<g><path style="opacity:1" fill="#6d72c4" d="M 1044.5,257.5 C 1043.89,261.135 1043.55,264.802 1043.5,268.5C 1042.1,264.71 1042.43,261.044 1044.5,257.5 Z"/></g>
<g><path style="opacity:1" fill="#afb2df" d="M 1086.5,257.5 C 1087.92,259.515 1088.59,261.848 1088.5,264.5C 1087.08,262.485 1086.41,260.152 1086.5,257.5 Z"/></g>
<g><path style="opacity:1" fill="#b7b9e2" d="M 1006.5,268.5 C 1009.15,268.41 1011.49,269.076 1013.5,270.5C 1010.85,270.59 1008.51,269.924 1006.5,268.5 Z"/></g>
<g><path style="opacity:1" fill="#787cc8" d="M 1214.5,267.5 C 1217.15,267.41 1219.49,268.076 1221.5,269.5C 1218.85,269.59 1216.51,268.924 1214.5,267.5 Z"/></g>
<g><path style="opacity:1" fill="#b3b6e0" d="M 1233.5,268.5 C 1233.39,269.117 1233.06,269.617 1232.5,270C 1229.3,270.805 1226.3,270.638 1223.5,269.5C 1226.9,269.658 1230.24,269.324 1233.5,268.5 Z"/></g>
<g><path style="opacity:1" fill="#7d82ca" d="M 900.5,290.5 C 901.972,294.919 902.638,299.586 902.5,304.5C 901.028,300.081 900.362,295.414 900.5,290.5 Z"/></g>
<g><path style="opacity:1" fill="#3037ab" d="M 600.5,413.5 C 600.5,414.5 600.5,415.5 600.5,416.5C 624.157,415.679 647.824,415.345 671.5,415.5C 701.15,418.914 730.816,422.248 760.5,425.5C 765.598,426.957 770.931,427.624 776.5,427.5C 781.181,427.669 785.848,428.002 790.5,428.5C 795.598,429.957 800.931,430.624 806.5,430.5C 817.198,430.725 827.864,431.392 838.5,432.5C 843.269,433.889 848.269,434.556 853.5,434.5C 893.718,438.212 934.051,439.379 974.5,438C 987.368,436.8 1000.03,434.633 1012.5,431.5C 1017.41,431.638 1022.08,430.972 1026.5,429.5C 1046.46,428.567 1066.12,430.067 1085.5,434C 1088.89,437.018 1090.72,440.851 1091,445.5C 1091.67,452.167 1091.67,458.833 1091,465.5C 1087.42,478.972 1084.92,492.639 1083.5,506.5C 1082.11,511.269 1081.44,516.269 1081.5,521.5C 1081.53,531.86 1081.7,542.193 1082,552.5C 1079.22,554.14 1077.22,553.473 1076,550.5C 1073.97,533.494 1074.3,516.494 1077,499.5C 1079.07,487.801 1081.41,476.134 1084,464.5C 1084.66,456.221 1084.16,448.054 1082.5,440C 1061.05,435.275 1039.39,434.275 1017.5,437C 1010.36,438.16 1003.36,439.827 996.5,442C 988.205,443.327 979.872,444.327 971.5,445C 949.167,445.667 926.833,445.667 904.5,445C 859.485,440.898 814.485,437.065 769.5,433.5C 762.399,431.772 755.066,430.772 747.5,430.5C 722.5,427.734 697.5,424.901 672.5,422C 650.124,421.188 627.79,421.355 605.5,422.5C 603.833,422.5 602.167,422.5 600.5,422.5C 600.167,463.505 600.5,504.505 601.5,545.5C 602.107,545.376 602.44,545.043 602.5,544.5C 602.833,544.5 603.167,544.5 603.5,544.5C 614,544.061 624.333,543.395 634.5,542.5C 636.833,542.5 639.167,542.5 641.5,542.5C 650.683,542.282 659.683,541.615 668.5,540.5C 698.738,536.93 729.071,534.097 759.5,532C 794.368,530.131 829.034,531.631 863.5,536.5C 866.974,537.525 870.64,538.192 874.5,538.5C 879.5,539.167 884.5,539.833 889.5,540.5C 894.269,541.889 899.269,542.556 904.5,542.5C 951.137,540.468 997.803,539.302 1044.5,539C 1051.56,536.402 1058.73,535.569 1066,536.5C 1066.72,538.112 1066.55,539.612 1065.5,541C 1058.9,542.658 1052.23,543.992 1045.5,545C 1012.75,544.673 980.083,546.006 947.5,549C 933.837,549.5 920.171,549.667 906.5,549.5C 901.731,548.111 896.731,547.444 891.5,547.5C 887.267,547.461 883.267,546.795 879.5,545.5C 873.089,543.656 866.422,542.656 859.5,542.5C 850.808,541.663 842.141,540.497 833.5,539C 790.357,537.243 747.357,538.743 704.5,543.5C 697.352,544.426 690.352,545.426 683.5,546.5C 657.879,548.289 632.212,549.455 606.5,550C 605.584,550.374 604.75,550.874 604,551.5C 603.907,554.007 603.074,556.174 601.5,558C 599.633,558.711 598.133,558.211 597,556.5C 596.899,553.3 596.232,550.3 595,547.5C 594.333,502.5 594.333,457.5 595,412.5C 597.235,411.02 599.068,411.353 600.5,413.5 Z"/></g>
<g><path style="opacity:1" fill="#898ecf" d="M 600.5,413.5 C 602.384,414.675 604.551,415.342 607,415.5C 628.659,414.223 650.159,414.223 671.5,415.5C 647.824,415.345 624.157,415.679 600.5,416.5C 600.5,415.5 600.5,414.5 600.5,413.5 Z"/></g>
<g><path style="opacity:1" fill="#9fa3d9" d="M 760.5,425.5 C 766.051,425.527 771.384,426.194 776.5,427.5C 770.931,427.624 765.598,426.957 760.5,425.5 Z"/></g>
<g><path style="opacity:1" fill="#8e93d2" d="M 790.5,428.5 C 796.051,428.527 801.384,429.194 806.5,430.5C 800.931,430.624 795.598,429.957 790.5,428.5 Z"/></g>
<g><path style="opacity:1" fill="#7a7dc9" d="M 747.5,430.5 C 755.066,430.772 762.399,431.772 769.5,433.5C 761.934,433.228 754.601,432.228 747.5,430.5 Z"/></g>
<g><path style="opacity:1" fill="#6b6fc3" d="M 1026.5,429.5 C 1022.08,430.972 1017.41,431.638 1012.5,431.5C 1016.92,430.028 1021.59,429.362 1026.5,429.5 Z"/></g>
<g><path style="opacity:1" fill="#8e92d1" d="M 838.5,432.5 C 843.731,432.444 848.731,433.111 853.5,434.5C 848.269,434.556 843.269,433.889 838.5,432.5 Z"/></g>
<g><path style="opacity:1" fill="#333aac" d="M 680.5,447.5 C 682.042,446.699 683.708,446.366 685.5,446.5C 686.468,448.607 686.802,450.941 686.5,453.5C 685.51,459.31 685.177,465.31 685.5,471.5C 687.099,471.768 688.432,471.434 689.5,470.5C 698.517,470.3 706.35,467.3 713,461.5C 715.043,453.419 712.21,447.919 704.5,445C 698.509,444.501 692.509,444.334 686.5,444.5C 683.99,444.927 681.657,445.593 679.5,446.5C 674.968,447.763 670.635,449.597 666.5,452C 664.866,452.494 663.199,452.66 661.5,452.5C 661.104,449.956 661.771,447.789 663.5,446C 676.27,438.784 689.936,436.118 704.5,438C 718.153,442.471 722.986,451.638 719,465.5C 709.151,472.951 697.984,476.951 685.5,477.5C 685.667,488.172 685.5,498.839 685,509.5C 683.522,512.993 681.522,513.326 679,510.5C 678.333,491.5 678.333,472.5 679,453.5C 679.315,451.414 679.815,449.414 680.5,447.5 Z"/></g>
<g><path style="opacity:1" fill="#3138ab" d="M 737.5,510.5 C 737.01,507.345 736.344,504.345 735.5,501.5C 733.57,481.899 732.737,462.233 733,442.5C 735.267,441.065 737.267,441.398 739,443.5C 738.559,465.706 740.226,487.706 744,509.5C 745.154,511.957 746.488,511.957 748,509.5C 750.902,504.105 753.402,498.605 755.5,493C 758.517,492.178 760.183,493.345 760.5,496.5C 758.152,504.226 754.485,511.226 749.5,517.5C 743.137,519.505 739.137,517.171 737.5,510.5 Z"/></g>
<g><path style="opacity:1" fill="#fbfbfd" d="M 686.5,444.5 C 692.509,444.334 698.509,444.501 704.5,445C 712.21,447.919 715.043,453.419 713,461.5C 706.35,467.3 698.517,470.3 689.5,470.5C 688.5,470.5 687.5,470.5 686.5,470.5C 686.5,464.833 686.5,459.167 686.5,453.5C 686.802,450.941 686.468,448.607 685.5,446.5C 685.833,445.833 686.167,445.167 686.5,444.5 Z"/></g>
<g><path style="opacity:1" fill="#6068bf" d="M 686.5,444.5 C 686.167,445.167 685.833,445.833 685.5,446.5C 683.708,446.366 682.042,446.699 680.5,447.5C 680.5,446.833 680.167,446.5 679.5,446.5C 681.657,445.593 683.99,444.927 686.5,444.5 Z"/></g>
<g><path style="opacity:1" fill="#2c35aa" d="M 797.5,483.5 C 796.861,484.097 796.528,484.93 796.5,486C 796.912,489.027 797.579,491.86 798.5,494.5C 799.178,499.63 800.844,504.296 803.5,508.5C 803.567,509.959 803.234,511.292 802.5,512.5C 799.956,512.896 797.789,512.229 796,510.5C 794.827,506.469 793.66,502.469 792.5,498.5C 792.263,494.711 791.596,494.711 790.5,498.5C 780.703,516.13 771.537,515.797 763,497.5C 762.023,495.26 761.523,492.927 761.5,490.5C 761.467,486.131 761.8,481.798 762.5,477.5C 763.921,472.91 766.921,469.744 771.5,468C 782.244,465.123 791.077,467.957 798,476.5C 798.796,479.039 798.629,481.372 797.5,483.5 Z"/></g>
<g><path style="opacity:1" fill="#c0c3e6" d="M 686.5,453.5 C 686.5,459.167 686.5,464.833 686.5,470.5C 687.5,470.5 688.5,470.5 689.5,470.5C 688.432,471.434 687.099,471.768 685.5,471.5C 685.177,465.31 685.51,459.31 686.5,453.5 Z"/></g>
<g><path style="opacity:1" fill="#2f37aa" d="M 833.5,516.5 C 826.201,517.35 818.868,517.683 811.5,517.5C 809.053,517.385 807.053,516.385 805.5,514.5C 805.077,511.757 806.244,510.424 809,510.5C 814.987,511.743 820.82,511.743 826.5,510.5C 833.013,510.53 839.013,508.863 844.5,505.5C 845.651,500.35 845.817,495.016 845,489.5C 843.961,490.244 843.461,491.244 843.5,492.5C 841.727,495.06 839.727,497.393 837.5,499.5C 834.904,500.265 832.237,500.599 829.5,500.5C 825.529,498.281 822.696,494.948 821,490.5C 820.049,486.973 818.716,483.64 817,480.5C 816.231,477.901 816.398,475.401 817.5,473C 819.701,472.175 821.534,472.675 823,474.5C 824.465,479.894 826.131,485.228 828,490.5C 829.34,491.868 830.674,493.201 832,494.5C 833.944,493.561 835.611,492.227 837,490.5C 839.522,485.903 841.355,481.069 842.5,476C 844.579,475.192 846.579,475.359 848.5,476.5C 849.083,478.002 849.916,479.335 851,480.5C 851.92,490.242 851.587,499.908 850,509.5C 845.128,513.291 839.628,515.625 833.5,516.5 Z"/></g>
<g><path style="opacity:1" fill="#f7f7fb" d="M 774.5,473.5 C 782.225,472.232 788.225,474.732 792.5,481C 791.465,482.274 790.298,483.44 789,484.5C 786.859,492.794 782.692,499.794 776.5,505.5C 771.242,500.24 768.242,493.907 767.5,486.5C 766.972,480.553 769.305,476.22 774.5,473.5 Z"/></g>
<g><path style="opacity:1" fill="#6469c0" d="M 762.5,477.5 C 761.8,481.798 761.467,486.131 761.5,490.5C 760.84,489.036 760.507,487.369 760.5,485.5C 760.382,482.514 761.048,479.848 762.5,477.5 Z"/></g>
<g><path style="opacity:1" fill="#8286cc" d="M 797.5,483.5 C 798.114,487.135 798.448,490.802 798.5,494.5C 797.579,491.86 796.912,489.027 796.5,486C 796.528,484.93 796.861,484.097 797.5,483.5 Z"/></g>
<g><path style="opacity:1" fill="#747cc8" d="M 844.5,505.5 C 844.818,500.968 844.485,496.634 843.5,492.5C 843.461,491.244 843.961,490.244 845,489.5C 845.817,495.016 845.651,500.35 844.5,505.5 Z"/></g>
<g><path style="opacity:1" fill="#8c91d1" d="M 792.5,498.5 C 791.833,498.5 791.167,498.5 790.5,498.5C 791.596,494.711 792.263,494.711 792.5,498.5 Z"/></g>
<g><path style="opacity:1" fill="#9299d4" d="M 605.5,422.5 C 604.432,423.434 603.099,423.768 601.5,423.5C 601.168,464.003 601.501,504.337 602.5,544.5C 602.44,545.043 602.107,545.376 601.5,545.5C 600.5,504.505 600.167,463.505 600.5,422.5C 602.167,422.5 603.833,422.5 605.5,422.5 Z"/></g>
<g><path style="opacity:1" fill="#b6b8e1" d="M 837.5,499.5 C 836.508,501.026 835.008,501.693 833,501.5C 831.615,501.486 830.449,501.152 829.5,500.5C 832.237,500.599 834.904,500.265 837.5,499.5 Z"/></g>
<g><path style="opacity:1" fill="#acaede" d="M 735.5,501.5 C 736.344,504.345 737.01,507.345 737.5,510.5C 736.883,510.389 736.383,510.056 736,509.5C 735.503,506.854 735.336,504.187 735.5,501.5 Z"/></g>
<g><path style="opacity:1" fill="#c6c8e8" d="M 803.5,508.5 C 811.039,510.063 818.706,510.73 826.5,510.5C 820.82,511.743 814.987,511.743 809,510.5C 806.244,510.424 805.077,511.757 805.5,514.5C 804.778,513.449 803.778,512.782 802.5,512.5C 803.234,511.292 803.567,509.959 803.5,508.5 Z"/></g>
<g><path style="opacity:1" fill="#adb0de" d="M 833.5,516.5 C 832.737,517.268 831.737,517.768 830.5,518C 823.986,518.82 817.653,518.653 811.5,517.5C 818.868,517.683 826.201,517.35 833.5,516.5 Z"/></g>
<g><path style="opacity:1" fill="#9095d2" d="M 1083.5,506.5 C 1083.56,511.731 1082.89,516.731 1081.5,521.5C 1081.44,516.269 1082.11,511.269 1083.5,506.5 Z"/></g>
<g><path style="opacity:1" fill="#b2b5e0" d="M 863.5,536.5 C 867.489,536.116 871.155,536.783 874.5,538.5C 870.64,538.192 866.974,537.525 863.5,536.5 Z"/></g>
<g><path style="opacity:1" fill="#6e73c4" d="M 668.5,540.5 C 659.683,541.615 650.683,542.282 641.5,542.5C 650.283,540.903 659.283,540.236 668.5,540.5 Z"/></g>
<g><path style="opacity:1" fill="#999dd6" d="M 889.5,540.5 C 894.731,540.444 899.731,541.111 904.5,542.5C 899.269,542.556 894.269,541.889 889.5,540.5 Z"/></g>
<g><path style="opacity:1" fill="#858bce" d="M 634.5,542.5 C 624.333,543.395 614,544.061 603.5,544.5C 605.631,543.686 607.964,543.186 610.5,543C 618.493,542.5 626.493,542.334 634.5,542.5 Z"/></g>
<g><path style="opacity:1" fill="#6466bf" d="M 859.5,542.5 C 866.422,542.656 873.089,543.656 879.5,545.5C 872.578,545.344 865.911,544.344 859.5,542.5 Z"/></g>
<g><path style="opacity:1" fill="#acaedd" d="M 704.5,543.5 C 697.838,545.87 690.838,546.87 683.5,546.5C 690.352,545.426 697.352,544.426 704.5,543.5 Z"/></g>
<g><path style="opacity:1" fill="#8f93d2" d="M 891.5,547.5 C 896.731,547.444 901.731,548.111 906.5,549.5C 901.269,549.556 896.269,548.889 891.5,547.5 Z"/></g>
<g><path style="opacity:1" fill="#898dcf" d="M 865.5,577.5 C 843.158,577.394 820.825,577.727 798.5,578.5C 812.138,577.042 825.971,576.375 840,576.5C 848.673,576.5 857.173,576.834 865.5,577.5 Z"/></g>
<g><path style="opacity:1" fill="#3339ac" d="M 865.5,577.5 C 911.368,580.407 957.368,582.907 1003.5,585C 1025.26,585.034 1046.93,585.867 1068.5,587.5C 1075.19,587.153 1081.85,586.986 1088.5,587C 1089.71,588.039 1090.71,589.206 1091.5,590.5C 1091.81,594.36 1092.48,598.026 1093.5,601.5C 1093.83,622.312 1095.33,642.978 1098,663.5C 1098.94,672.935 1098.61,682.268 1097,691.5C 1090.19,694.562 1083.02,695.895 1075.5,695.5C 1063.47,694.051 1051.47,692.384 1039.5,690.5C 1034.73,689.111 1029.73,688.444 1024.5,688.5C 962.505,687.743 900.505,687.243 838.5,687C 805.173,683.778 771.84,680.445 738.5,677C 699.587,675.041 660.587,673.874 621.5,673.5C 613.684,672.508 605.684,672.174 597.5,672.5C 597.5,676.167 597.5,679.833 597.5,683.5C 596.147,691.432 595.314,699.432 595,707.5C 593.534,709.325 591.701,709.825 589.5,709C 588.863,706.757 588.53,704.424 588.5,702C 589.77,694.209 590.77,686.376 591.5,678.5C 591.682,674.924 591.015,671.59 589.5,668.5C 591.288,646.934 592.122,625.267 592,603.5C 592.333,599.833 592.667,596.167 593,592.5C 593.163,590.324 593.996,588.491 595.5,587C 602.46,585.347 609.46,584.014 616.5,583C 662.167,582.667 707.833,582.333 753.5,582C 768.529,581.062 783.529,579.895 798.5,578.5C 820.825,577.727 843.158,577.394 865.5,577.5 Z"/></g>
<g><path style="opacity:1" fill="#fcfcfe" d="M 1052.5,592.5 C 1058.44,593.911 1064.61,594.577 1071,594.5C 1074.68,594.499 1078.18,594.165 1081.5,593.5C 1083.17,593.5 1084.83,593.5 1086.5,593.5C 1087.93,622.727 1089.93,651.894 1092.5,681C 1092.46,683.094 1092.13,685.094 1091.5,687C 1081.89,688.557 1072.23,688.891 1062.5,688C 1045.16,683.633 1027.49,681.3 1009.5,681C 978.337,680.967 947.17,681.134 916,681.5C 887.472,681.679 858.972,681.013 830.5,679.5C 824.03,678.304 817.363,677.638 810.5,677.5C 786.623,674.146 762.623,671.646 738.5,670C 692.526,667.824 646.526,666.657 600.5,666.5C 599.515,649.577 599.182,632.577 599.5,615.5C 599.523,607.817 599.857,600.15 600.5,592.5C 602.435,591.85 604.435,591.517 606.5,591.5C 614.675,591.159 622.675,590.492 630.5,589.5C 669.168,589.667 707.835,589.5 746.5,589C 757.94,588.8 769.273,587.967 780.5,586.5C 788.079,586.906 795.412,586.239 802.5,584.5C 840.286,582.706 877.952,583.873 915.5,588C 938.502,588.611 961.502,589.278 984.5,590C 989.104,591.061 993.771,591.727 998.5,592C 1016.5,592.5 1034.5,592.667 1052.5,592.5 Z"/></g>
<g><path style="opacity:1" fill="#969ad5" d="M 802.5,584.5 C 795.412,586.239 788.079,586.906 780.5,586.5C 787.653,585.462 794.986,584.796 802.5,584.5 Z"/></g>
<g><path style="opacity:1" fill="#aaaddd" d="M 630.5,589.5 C 622.675,590.492 614.675,591.159 606.5,591.5C 614.264,589.785 622.264,589.118 630.5,589.5 Z"/></g>
<g><path style="opacity:1" fill="#2e36aa" d="M 768.5,591.5 C 768.5,597.5 768.5,603.5 768.5,609.5C 777.5,609.5 786.5,609.5 795.5,609.5C 797.371,609.859 798.871,610.859 800,612.5C 800.953,615.432 801.453,618.432 801.5,621.5C 803.39,621.297 804.89,621.963 806,623.5C 806.844,627.211 807.844,630.877 809,634.5C 811.272,625.231 816.772,618.731 825.5,615C 834.139,612.813 839.472,615.98 841.5,624.5C 841.41,627.152 842.076,629.485 843.5,631.5C 844.319,634.305 844.819,637.305 845,640.5C 849.192,644.657 850.026,644.324 847.5,639.5C 847.616,636.14 847.949,632.807 848.5,629.5C 852.108,620.062 858.441,617.896 867.5,623C 869.765,624.758 871.432,626.925 872.5,629.5C 872.343,630.873 872.51,632.207 873,633.5C 873.717,632.956 874.217,632.289 874.5,631.5C 875.601,630.402 876.934,630.235 878.5,631C 880.808,633.128 882.474,635.628 883.5,638.5C 883.41,641.152 884.076,643.485 885.5,645.5C 885.41,648.152 886.076,650.485 887.5,652.5C 891.08,659.191 890.08,665.025 884.5,670C 875.067,675.048 865.067,676.715 854.5,675C 853.233,673.204 853.233,671.371 854.5,669.5C 863.883,669.358 872.883,667.525 881.5,664C 882.523,661.226 882.523,658.393 881.5,655.5C 881.59,652.848 880.924,650.515 879.5,648.5C 879.122,645.259 878.122,642.259 876.5,639.5C 871.15,642.508 866.15,646.008 861.5,650C 856.5,650.667 851.5,650.667 846.5,650C 840.072,646.931 837.072,641.764 837.5,634.5C 837.277,630.838 836.277,627.505 834.5,624.5C 834.126,622.05 832.626,621.05 830,621.5C 824.494,621.919 820.494,624.585 818,629.5C 816.503,634.499 814.336,639.165 811.5,643.5C 809.827,645.086 807.827,645.753 805.5,645.5C 804.206,643.704 803.206,641.704 802.5,639.5C 801.692,641.423 801.192,643.423 801,645.5C 799.989,646.337 798.822,646.67 797.5,646.5C 796.883,646.389 796.383,646.056 796,645.5C 795.73,635.475 795.23,625.475 794.5,615.5C 787.5,615.5 780.5,615.5 773.5,615.5C 772.167,615.5 770.833,615.5 769.5,615.5C 769.5,625.5 769.5,635.5 769.5,645.5C 767.359,648.019 765.359,648.019 763.5,645.5C 763.5,635.833 763.5,626.167 763.5,616.5C 761.5,616.5 759.5,616.5 757.5,616.5C 756.18,615.058 754.514,614.392 752.5,614.5C 752.666,623.506 752.5,632.506 752,641.5C 750,644.167 748,644.167 746,641.5C 745.667,638.167 745.333,634.833 745,631.5C 739.43,638.067 732.93,643.567 725.5,648C 714.373,651.242 705.873,648.075 700,638.5C 699.016,629.947 701.85,622.781 708.5,617C 713.505,616.083 717.672,617.583 721,621.5C 721.944,624.347 721.444,626.847 719.5,629C 715.679,630.832 711.679,632.166 707.5,633C 706.444,637.672 708.444,640.672 713.5,642C 718.94,643.174 723.94,642.174 728.5,639C 737.068,632.123 742.735,623.456 745.5,613C 744.756,611.961 743.756,611.461 742.5,611.5C 740.485,610.076 738.152,609.41 735.5,609.5C 733.353,608.068 733.02,606.235 734.5,604C 738.148,603.938 741.815,604.105 745.5,604.5C 745.335,601.482 745.502,598.482 746,595.5C 747.726,594.424 749.559,594.257 751.5,595C 752.467,599.401 752.8,603.901 752.5,608.5C 755.5,608.5 758.5,608.5 761.5,608.5C 761.56,609.043 761.893,609.376 762.5,609.5C 763.496,603.537 763.829,597.537 763.5,591.5C 765.284,590.28 766.95,590.28 768.5,591.5 Z"/></g>
<g><path style="opacity:1" fill="#989cd5" d="M 1052.5,592.5 C 1062.15,593.199 1071.82,593.532 1081.5,593.5C 1078.18,594.165 1074.68,594.499 1071,594.5C 1064.61,594.577 1058.44,593.911 1052.5,592.5 Z"/></g>
<g><path style="opacity:1" fill="#3138ab" d="M 677.5,594.5 C 683.842,594.334 690.175,594.5 696.5,595C 699.693,596.026 701.026,598.192 700.5,601.5C 692.493,601.334 684.493,601.5 676.5,602C 672.76,603.29 669.593,605.457 667,608.5C 666.289,610.367 666.789,611.867 668.5,613C 674.535,615.71 680.035,619.21 685,623.5C 691.726,636.04 687.893,643.04 673.5,644.5C 668.502,643.984 667.502,641.818 670.5,638C 674.297,637.591 677.964,636.758 681.5,635.5C 681.896,632.518 681.229,629.851 679.5,627.5C 674.838,623.834 669.838,620.667 664.5,618C 660.883,614.941 659.383,611.108 660,606.5C 664.505,600.348 670.338,596.348 677.5,594.5 Z"/></g>
<g><path style="opacity:1" fill="#8589ce" d="M 1091.5,590.5 C 1093.22,593.845 1093.88,597.511 1093.5,601.5C 1092.48,598.026 1091.81,594.36 1091.5,590.5 Z"/></g>
<g><path style="opacity:1" fill="#4d50b6" d="M 790.5,599.5 C 792.5,599.5 794.5,599.5 796.5,599.5C 796.985,604.159 795.152,605.492 791,603.5C 790.51,602.207 790.343,600.873 790.5,599.5 Z"/></g>
<g><path style="opacity:1" fill="#737bc7" d="M 763.5,591.5 C 763.829,597.537 763.496,603.537 762.5,609.5C 761.893,609.376 761.56,609.043 761.5,608.5C 762.167,602.833 762.833,597.167 763.5,591.5 Z"/></g>
<g><path style="opacity:1" fill="#444eb4" d="M 768.5,591.5 C 769.489,596.975 769.822,602.642 769.5,608.5C 778.349,608.174 787.016,608.507 795.5,609.5C 786.5,609.5 777.5,609.5 768.5,609.5C 768.5,603.5 768.5,597.5 768.5,591.5 Z"/></g>
<g><path style="opacity:1" fill="#666ac1" d="M 735.5,609.5 C 738.152,609.41 740.485,610.076 742.5,611.5C 739.848,611.59 737.515,610.924 735.5,609.5 Z"/></g>
<g><path style="opacity:1" fill="#9296d3" d="M 600.5,592.5 C 599.857,600.15 599.523,607.817 599.5,615.5C 599.167,615.5 598.833,615.5 598.5,615.5C 598.079,607.589 598.745,599.923 600.5,592.5 Z"/></g>
<g><path style="opacity:1" fill="#dbddf0" d="M 773.5,615.5 C 772.791,616.404 771.791,616.737 770.5,616.5C 770.827,626.348 770.494,636.014 769.5,645.5C 769.5,635.5 769.5,625.5 769.5,615.5C 770.833,615.5 772.167,615.5 773.5,615.5 Z"/></g>
<g><path style="opacity:1" fill="#a2a6da" d="M 710.5,623.5 C 714.276,623.469 714.443,624.136 711,625.5C 709.316,625.317 709.15,624.65 710.5,623.5 Z"/></g>
<g><path style="opacity:1" fill="#b3b5e0" d="M 834.5,624.5 C 836.277,627.505 837.277,630.838 837.5,634.5C 835.723,631.495 834.723,628.162 834.5,624.5 Z"/></g>
<g><path style="opacity:1" fill="#eaeaf6" d="M 857.5,626.5 C 866.627,627.428 868.627,631.595 863.5,639C 852.558,639.75 850.558,635.583 857.5,626.5 Z"/></g>
<g><path style="opacity:1" fill="#6b6fc3" d="M 841.5,624.5 C 842.924,626.515 843.59,628.848 843.5,631.5C 842.076,629.485 841.41,627.152 841.5,624.5 Z"/></g>
<g><path style="opacity:1" fill="#7c82ca" d="M 872.5,629.5 C 873.167,630.167 873.833,630.833 874.5,631.5C 874.217,632.289 873.717,632.956 873,633.5C 872.51,632.207 872.343,630.873 872.5,629.5 Z"/></g>
<g><path style="opacity:1" fill="#757dc8" d="M 757.5,616.5 C 759.5,616.5 761.5,616.5 763.5,616.5C 763.5,626.167 763.5,635.833 763.5,645.5C 762.506,636.348 762.173,627.015 762.5,617.5C 760.585,617.784 758.919,617.451 757.5,616.5 Z"/></g>
<g><path style="opacity:1" fill="#7176c5" d="M 848.5,629.5 C 847.949,632.807 847.616,636.14 847.5,639.5C 846.135,636.041 846.469,632.708 848.5,629.5 Z"/></g>
<g><path style="opacity:1" fill="#676ac0" d="M 883.5,638.5 C 884.924,640.515 885.59,642.848 885.5,645.5C 884.076,643.485 883.41,641.152 883.5,638.5 Z"/></g>
<g><path style="opacity:1" fill="#b2b5e0" d="M 805.5,645.5 C 804.504,645.586 803.671,645.252 803,644.5C 801.827,647.41 799.994,648.077 797.5,646.5C 798.822,646.67 799.989,646.337 801,645.5C 801.192,643.423 801.692,641.423 802.5,639.5C 803.206,641.704 804.206,643.704 805.5,645.5 Z"/></g>
<g><path style="opacity:1" fill="#6467bf" d="M 885.5,645.5 C 886.924,647.515 887.59,649.848 887.5,652.5C 886.076,650.485 885.41,648.152 885.5,645.5 Z"/></g>
<g><path style="opacity:1" fill="#ced1ec" d="M 598.5,615.5 C 598.833,615.5 599.167,615.5 599.5,615.5C 599.182,632.577 599.515,649.577 600.5,666.5C 598.514,649.866 597.848,632.866 598.5,615.5 Z"/></g>
<g><path style="opacity:1" fill="#a0a3d9" d="M 879.5,648.5 C 880.924,650.515 881.59,652.848 881.5,655.5C 880.076,653.485 879.41,651.152 879.5,648.5 Z"/></g>
<g><path style="opacity:1" fill="#737ac7" d="M 621.5,673.5 C 613.833,673.5 606.167,673.5 598.5,673.5C 598.813,677.042 598.479,680.375 597.5,683.5C 597.5,679.833 597.5,676.167 597.5,672.5C 605.684,672.174 613.684,672.508 621.5,673.5 Z"/></g>
<g><path style="opacity:1" fill="#9095d3" d="M 810.5,677.5 C 817.363,677.638 824.03,678.304 830.5,679.5C 823.604,679.706 816.937,679.039 810.5,677.5 Z"/></g>
<g><path style="opacity:1" fill="#7a7fc9" d="M 1024.5,688.5 C 1029.73,688.444 1034.73,689.111 1039.5,690.5C 1034.27,690.556 1029.27,689.889 1024.5,688.5 Z"/></g>
<g><path style="opacity:1" fill="#2e36aa" d="M 969.5,738.5 C 974.269,739.889 979.269,740.556 984.5,740.5C 1010.39,737.531 1036.39,735.864 1062.5,735.5C 1067.45,735.23 1072.12,734.23 1076.5,732.5C 1085.6,729.106 1092.1,731.773 1096,740.5C 1096.61,742.154 1097.11,743.821 1097.5,745.5C 1097.41,748.152 1098.08,750.485 1099.5,752.5C 1099.69,754.564 1100.19,756.564 1101,758.5C 1101.9,775.83 1102.24,793.163 1102,810.5C 1099.59,812.956 1096.76,814.789 1093.5,816C 1081.2,817.074 1068.87,817.574 1056.5,817.5C 1026.85,816.167 997.188,814.834 967.5,813.5C 948.5,814.167 929.5,814.833 910.5,815.5C 819.533,812.182 728.533,810.682 637.5,811C 625.052,810.13 613.052,807.297 601.5,802.5C 600.772,799.788 599.939,797.121 599,794.5C 598.12,774.168 596.62,754.001 594.5,734C 595.001,729.161 597.168,728.327 601,731.5C 603.974,729.937 607.141,728.937 610.5,728.5C 656.333,728.036 701.999,727.369 747.5,726.5C 770.514,726 793.514,725.166 816.5,724C 835.359,722.797 854.025,723.463 872.5,726C 884.839,726.567 897.172,727.234 909.5,728C 929.507,731.61 949.507,735.11 969.5,738.5 Z"/></g>
<g><path style="opacity:1" fill="#8d92d1" d="M 747.5,726.5 C 701.999,727.369 656.333,728.036 610.5,728.5C 620.659,727.67 630.992,727.17 641.5,727C 676.832,726.5 712.165,726.333 747.5,726.5 Z"/></g>
<g><path style="opacity:1" fill="#fcfcfd" d="M 1014.5,745.5 C 1019.73,745.556 1024.73,744.889 1029.5,743.5C 1047.27,743.39 1064.94,741.723 1082.5,738.5C 1087.06,738.591 1089.73,740.924 1090.5,745.5C 1090.41,748.152 1091.08,750.485 1092.5,752.5C 1093.15,754.086 1093.65,755.753 1094,757.5C 1095.05,774.509 1095.22,791.509 1094.5,808.5C 1082.49,810.981 1070.33,811.981 1058,811.5C 1039.54,810.385 1021.04,809.385 1002.5,808.5C 990.872,806.982 979.039,806.315 967,806.5C 958.66,806.5 950.493,806.834 942.5,807.5C 930.912,808.992 919.245,809.659 907.5,809.5C 867.829,808.143 828.162,806.643 788.5,805C 753.166,804.604 717.833,804.771 682.5,805.5C 668.5,805.333 654.5,805.167 640.5,805C 637.883,804.178 635.216,803.678 632.5,803.5C 629.026,802.475 625.36,801.808 621.5,801.5C 615.873,801.124 610.707,799.457 606,796.5C 605.467,778.203 603.967,760.037 601.5,742C 601.667,739.833 601.833,737.667 602,735.5C 604.796,736.679 607.629,736.679 610.5,735.5C 651.996,734.932 693.329,734.265 734.5,733.5C 768.17,732.363 801.836,731.03 835.5,729.5C 860.779,731.333 886.112,733.166 911.5,735C 932.414,739.081 953.414,742.747 974.5,746C 987.878,746.797 1001.21,746.63 1014.5,745.5 Z"/></g>
<g><path style="opacity:1" fill="#999ed6" d="M 734.5,733.5 C 693.329,734.265 651.996,734.932 610.5,735.5C 614.647,734.675 618.981,734.175 623.5,734C 660.498,733.5 697.498,733.333 734.5,733.5 Z"/></g>
<g><path style="opacity:1" fill="#7175c5" d="M 1076.5,732.5 C 1072.12,734.23 1067.45,735.23 1062.5,735.5C 1066.88,733.77 1071.55,732.77 1076.5,732.5 Z"/></g>
<g><path style="opacity:1" fill="#3239ac" d="M 847.5,760.5 C 844.167,760.5 840.833,760.5 837.5,760.5C 837.177,766.69 837.51,772.69 838.5,778.5C 838.665,782.182 838.499,785.848 838,789.5C 835.478,792.326 833.478,791.993 832,788.5C 831.225,779.494 830.392,770.494 829.5,761.5C 826.643,760.045 825.977,758.045 827.5,755.5C 828.833,755.5 830.167,755.5 831.5,755.5C 831.5,750.5 831.5,745.5 831.5,740.5C 833.223,739.193 835.057,739.193 837,740.5C 837.499,745.155 837.666,749.821 837.5,754.5C 841.182,754.335 844.848,754.501 848.5,755C 851.362,757.558 851.029,759.391 847.5,760.5 Z"/></g>
<g><path style="opacity:1" fill="#858ace" d="M 969.5,738.5 C 974.731,738.444 979.731,739.111 984.5,740.5C 979.269,740.556 974.269,739.889 969.5,738.5 Z"/></g>
<g><path style="opacity:1" fill="#a0a3d9" d="M 1029.5,743.5 C 1024.73,744.889 1019.73,745.556 1014.5,745.5C 1019.27,744.111 1024.27,743.444 1029.5,743.5 Z"/></g>
<g><path style="opacity:1" fill="#8085cc" d="M 831.5,740.5 C 831.5,745.5 831.5,750.5 831.5,755.5C 830.167,755.5 828.833,755.5 827.5,755.5C 828.209,754.596 829.209,754.263 830.5,754.5C 830.181,749.637 830.514,744.97 831.5,740.5 Z"/></g>
<g><path style="opacity:1" fill="#babce3" d="M 1090.5,745.5 C 1091.92,747.515 1092.59,749.848 1092.5,752.5C 1091.08,750.485 1090.41,748.152 1090.5,745.5 Z"/></g>
<g><path style="opacity:1" fill="#2e36aa" d="M 722.5,760.5 C 720.297,760.396 718.297,759.73 716.5,758.5C 699.074,754.418 691.574,761.418 694,779.5C 698.14,784.211 703.306,785.711 709.5,784C 713.76,782.868 717.76,781.201 721.5,779C 715.822,774.483 713.322,768.649 714,761.5C 714.383,760.944 714.883,760.611 715.5,760.5C 716.552,760.351 717.552,760.517 718.5,761C 719.099,762.622 719.766,764.122 720.5,765.5C 720.709,766.922 721.209,768.255 722,769.5C 723.566,771.993 725.566,773.993 728,775.5C 733.508,773.511 737.342,769.844 739.5,764.5C 739.392,763.558 739.059,762.725 738.5,762C 735.751,760.877 733.251,759.377 731,757.5C 730.28,755.888 730.446,754.388 731.5,753C 737.412,753.208 742.245,755.708 746,760.5C 746.912,764.452 746.245,768.119 744,771.5C 740.942,775.062 737.442,778.062 733.5,780.5C 738.715,785.525 744.882,788.859 752,790.5C 752.433,794.068 750.767,795.734 747,795.5C 742.917,794.711 739.084,793.211 735.5,791C 732.597,788.428 729.431,786.261 726,784.5C 717.085,789.438 707.585,791.271 697.5,790C 688.469,786.102 685.135,779.269 687.5,769.5C 688.924,767.485 689.59,765.152 689.5,762.5C 692.792,753.388 699.292,749.388 709,750.5C 714.334,750.418 719.167,751.918 723.5,755C 724.98,757.235 724.647,759.068 722.5,760.5 Z"/></g>
<g><path style="opacity:1" fill="#7a7ec9" d="M 1097.5,745.5 C 1098.92,747.515 1099.59,749.848 1099.5,752.5C 1098.08,750.485 1097.41,748.152 1097.5,745.5 Z"/></g>
<g><path style="opacity:1" fill="#3239ab" d="M 792.5,775.5 C 792.762,774.022 792.429,772.689 791.5,771.5C 790.893,771.624 790.56,771.957 790.5,772.5C 788.001,775.169 785.668,778.002 783.5,781C 775.364,786.684 767.197,786.851 759,781.5C 756.059,775.531 754.892,769.364 755.5,763C 757.701,762.175 759.534,762.675 761,764.5C 761.774,768.147 762.441,771.814 763,775.5C 770.743,780.382 777.41,779.048 783,771.5C 786.711,767.41 789.377,762.743 791,757.5C 793.034,754.141 795.368,753.808 798,756.5C 798.333,762.167 798.667,767.833 799,773.5C 799.823,777.311 801.323,780.811 803.5,784C 803.355,784.772 803.022,785.439 802.5,786C 800.833,786.667 799.167,786.667 797.5,786C 795.145,782.738 793.478,779.238 792.5,775.5 Z"/></g>
<g><path style="opacity:1" fill="#f5f5fb" d="M 716.5,758.5 C 716.167,759.167 715.833,759.833 715.5,760.5C 714.883,760.611 714.383,760.944 714,761.5C 713.322,768.649 715.822,774.483 721.5,779C 717.76,781.201 713.76,782.868 709.5,784C 703.306,785.711 698.14,784.211 694,779.5C 691.574,761.418 699.074,754.418 716.5,758.5 Z"/></g>
<g><path style="opacity:1" fill="#c7c8e8" d="M 812.5,753.5 C 811.488,759.477 811.488,765.477 812.5,771.5C 811.338,767.551 810.672,763.384 810.5,759C 810.547,756.705 811.213,754.871 812.5,753.5 Z"/></g>
<g><path style="opacity:1" fill="#2c35aa" d="M 817.5,759.5 C 817.362,764.414 818.028,769.081 819.5,773.5C 820.452,779.075 820.786,784.741 820.5,790.5C 818.278,790.822 816.444,790.155 815,788.5C 814.691,782.738 813.858,777.072 812.5,771.5C 811.488,765.477 811.488,759.477 812.5,753.5C 813.568,752.566 814.901,752.232 816.5,752.5C 816.198,755.059 816.532,757.393 817.5,759.5 Z"/></g>
<g><path style="opacity:1" fill="#aeb2df" d="M 716.5,758.5 C 718.297,759.73 720.297,760.396 722.5,760.5C 721.032,761.779 720.365,763.446 720.5,765.5C 719.766,764.122 719.099,762.622 718.5,761C 717.552,760.517 716.552,760.351 715.5,760.5C 715.833,759.833 716.167,759.167 716.5,758.5 Z"/></g>
<g><path style="opacity:1" fill="#a7abdc" d="M 847.5,760.5 C 844.713,761.477 841.713,761.81 838.5,761.5C 838.5,767.167 838.5,772.833 838.5,778.5C 837.51,772.69 837.177,766.69 837.5,760.5C 840.833,760.5 844.167,760.5 847.5,760.5 Z"/></g>
<g><path style="opacity:1" fill="#6d71c3" d="M 689.5,762.5 C 689.59,765.152 688.924,767.485 687.5,769.5C 687.41,766.848 688.076,764.515 689.5,762.5 Z"/></g>
<g><path style="opacity:1" fill="#6b70c3" d="M 817.5,759.5 C 818.972,763.919 819.638,768.586 819.5,773.5C 818.028,769.081 817.362,764.414 817.5,759.5 Z"/></g>
<g><path style="opacity:1" fill="#a2a6da" d="M 790.5,772.5 C 790.56,771.957 790.893,771.624 791.5,771.5C 792.429,772.689 792.762,774.022 792.5,775.5C 791.833,774.5 791.167,773.5 790.5,772.5 Z"/></g>
<g><path style="opacity:1" fill="#999dd6" d="M 621.5,801.5 C 625.36,801.808 629.026,802.475 632.5,803.5C 628.511,803.884 624.845,803.217 621.5,801.5 Z"/></g>
<g><path style="opacity:1" fill="#7e83cb" d="M 942.5,807.5 C 950.493,806.834 958.66,806.5 967,806.5C 979.039,806.315 990.872,806.982 1002.5,808.5C 982.511,807.703 962.511,807.37 942.5,807.5 Z"/></g>
</svg>
