<?xml version="1.0" encoding="UTF-8"?>
<!DOCTYPE svg PUBLIC "-//W3C//DTD SVG 1.1//EN" "http://www.w3.org/Graphics/SVG/1.1/DTD/svg11.dtd">
<svg xmlns="http://www.w3.org/2000/svg" version="1.1" width="1750px" height="1000px" style="shape-rendering:geometricPrecision; text-rendering:geometricPrecision; image-rendering:optimizeQuality; fill-rule:evenodd; clip-rule:evenodd" xmlns:xlink="http://www.w3.org/1999/xlink">
<g><path style="opacity:1" fill="#fefefe" d="M -0.5,-0.5 C 582.833,-0.5 1166.17,-0.5 1749.5,-0.5C 1749.5,332.833 1749.5,666.167 1749.5,999.5C 1166.17,999.5 582.833,999.5 -0.5,999.5C -0.5,666.167 -0.5,332.833 -0.5,-0.5 Z"/></g>
<g><path style="opacity:1" fill="#111111" d="M 702.5,143.5 C 702.5,138.167 702.5,132.833 702.5,127.5C 699.833,127.5 697.167,127.5 694.5,127.5C 693.659,125.621 693.325,123.621 693.5,121.5C 696.5,121.5 699.5,121.5 702.5,121.5C 702.186,113.913 702.519,106.413 703.5,99C 702.167,98.3333 700.833,98.3333 699.5,99C 691.267,104.134 686.267,111.468 684.5,121C 680.771,122.272 679.104,120.939 679.5,117C 681.48,106.368 687.147,98.3681 696.5,93C 705.556,89.6571 714.889,87.4904 724.5,86.5C 728.489,86.8836 732.155,86.217 735.5,84.5C 746.052,81.4758 756.385,81.9758 766.5,86C 772.599,90.6452 774.766,96.4785 773,103.5C 766.419,110.542 758.585,115.709 749.5,119C 736.69,124.522 723.356,127.355 709.5,127.5C 709.667,145.17 709.5,162.836 709,180.5C 706.46,181.876 704.46,181.21 703,178.5C 702.5,166.838 702.333,155.171 702.5,143.5 Z"/></g>
<g><path style="opacity:1" fill="#4a4a4a" d="M 735.5,84.5 C 732.155,86.217 728.489,86.8836 724.5,86.5C 727.974,85.4751 731.64,84.8084 735.5,84.5 Z"/></g>
<g><path style="opacity:1" fill="#adadad" d="M 756.5,89.5 C 751.848,89.9981 747.181,90.3314 742.5,90.5C 747.087,88.5445 751.754,88.2111 756.5,89.5 Z"/></g>
<g><path style="opacity:1" fill="#f9f9f9" d="M 756.5,89.5 C 763.313,90.1433 766.813,93.81 767,100.5C 762.108,105.7 756.275,109.534 749.5,112C 739.241,116.398 728.574,119.231 717.5,120.5C 714.833,120.5 712.167,120.5 709.5,120.5C 709.5,114.5 709.5,108.5 709.5,102.5C 709.822,100.278 709.155,98.4443 707.5,97C 718.952,93.7577 730.619,91.591 742.5,90.5C 747.181,90.3314 751.848,89.9981 756.5,89.5 Z"/></g>
<g><path style="opacity:1" fill="#696969" d="M 709.5,102.5 C 709.5,108.5 709.5,114.5 709.5,120.5C 712.167,120.5 714.833,120.5 717.5,120.5C 714.713,121.477 711.713,121.81 708.5,121.5C 708.177,114.978 708.51,108.645 709.5,102.5 Z"/></g>
<g><path style="opacity:1" fill="#111111" d="M 909.5,119.5 C 922.466,117.878 933.633,121.545 943,130.5C 944.167,134.667 942.667,136.167 938.5,135C 934.411,131.905 930.077,129.239 925.5,127C 916.833,126.333 908.167,126.333 899.5,127C 895.225,128.958 892.058,131.792 890,135.5C 897.097,140.301 904.597,144.467 912.5,148C 921.323,150.941 929.99,154.274 938.5,158C 941.295,159.793 943.795,161.96 946,164.5C 946.667,165.833 946.667,167.167 946,168.5C 942.104,174.707 936.604,178.874 929.5,181C 914.612,186.137 899.612,190.803 884.5,195C 881.833,195.667 879.167,195.667 876.5,195C 875.233,193.204 875.233,191.371 876.5,189.5C 896.105,185.681 915.105,179.848 933.5,172C 935.09,170.954 936.59,169.787 938,168.5C 938.684,167.216 938.517,166.049 937.5,165C 921.836,159.111 906.503,152.445 891.5,145C 887.216,142.553 884.216,139.053 882.5,134.5C 884.554,129.609 887.887,125.776 892.5,123C 898.16,121.211 903.827,120.044 909.5,119.5 Z"/></g>
<g><path style="opacity:1" fill="#737373" d="M 806.5,129.5 C 802.131,129.467 797.798,129.8 793.5,130.5C 795.848,129.048 798.514,128.382 801.5,128.5C 803.369,128.507 805.036,128.84 806.5,129.5 Z"/></g>
<g><path style="opacity:1" fill="#101010" d="M 806.5,129.5 C 809.473,130.987 812.473,132.487 815.5,134C 818.435,136.856 817.935,138.689 814,139.5C 811.104,138.633 808.271,137.633 805.5,136.5C 804.207,135.842 802.707,135.508 801,135.5C 798.179,135.408 795.679,136.074 793.5,137.5C 778.905,141.039 767.071,148.706 758,160.5C 755.755,163.881 755.088,167.548 756,171.5C 758.844,177.681 763.511,181.681 770,183.5C 771.627,183.375 773.127,182.875 774.5,182C 786.951,171.94 796.118,159.44 802,144.5C 803.95,141.013 806.283,140.679 809,143.5C 811.702,157.785 813.368,172.119 814,186.5C 812.867,188.211 811.367,188.711 809.5,188C 807.811,184.038 806.811,179.872 806.5,175.5C 806.624,169.931 805.957,164.598 804.5,159.5C 804.607,157.621 804.107,157.288 803,158.5C 795.885,171.949 785.718,182.449 772.5,190C 764.524,189.591 758.024,186.091 753,179.5C 748.928,174.906 747.594,169.572 749,163.5C 752.665,154.169 758.832,147.002 767.5,142C 775.85,137.322 784.517,133.489 793.5,130.5C 797.798,129.8 802.131,129.467 806.5,129.5 Z"/></g>
<g><path style="opacity:1" fill="#0f0f0f" d="M 869.5,131.5 C 870.054,138.153 870.388,144.82 870.5,151.5C 868.035,164.801 860.201,173.134 847,176.5C 842.691,176.203 839.357,174.203 837,170.5C 830.937,161.632 827.27,151.965 826,141.5C 827.388,140.446 828.888,140.28 830.5,141C 833.841,151.015 838.507,160.348 844.5,169C 858.997,166.973 865.664,158.473 864.5,143.5C 864.214,139.156 863.88,134.823 863.5,130.5C 865.735,130.205 867.735,130.539 869.5,131.5 Z"/></g>
<g><path style="opacity:1" fill="#101010" d="M 992.5,132.5 C 1004.58,131.626 1014.75,135.626 1023,144.5C 1026.49,148.551 1026.32,152.384 1022.5,156C 1008.49,159.61 994.492,163.11 980.5,166.5C 987.403,178.299 997.736,185.133 1011.5,187C 1029.28,188.154 1046.95,187.321 1064.5,184.5C 1068.92,183.909 1070.25,185.576 1068.5,189.5C 1060.42,192.36 1052.08,193.86 1043.5,194C 1020.84,198.554 1000.34,194.054 982,180.5C 970.721,167.57 970.721,154.57 982,141.5C 985.665,138.601 989.165,135.601 992.5,132.5 Z"/></g>
<g><path style="opacity:1" fill="#999999" d="M 694.5,127.5 C 697.167,127.5 699.833,127.5 702.5,127.5C 702.5,132.833 702.5,138.167 702.5,143.5C 701.513,138.695 701.179,133.695 701.5,128.5C 698.941,128.802 696.607,128.468 694.5,127.5 Z"/></g>
<g><path style="opacity:1" fill="#a9a9a9" d="M 805.5,136.5 C 801.466,136.505 797.466,136.838 793.5,137.5C 795.679,136.074 798.179,135.408 801,135.5C 802.707,135.508 804.207,135.842 805.5,136.5 Z"/></g>
<g><path style="opacity:1" fill="#f3f3f3" d="M 995.5,138.5 C 1005.31,138.569 1012.97,142.569 1018.5,150.5C 1005.96,153.807 993.297,156.474 980.5,158.5C 981.176,154.813 982.676,151.48 985,148.5C 988.396,144.935 991.896,141.602 995.5,138.5 Z"/></g>
<g><path style="opacity:1" fill="#5f5f5f" d="M 869.5,131.5 C 871.471,138.109 871.804,144.776 870.5,151.5C 870.388,144.82 870.054,138.153 869.5,131.5 Z"/></g>
<g><path style="opacity:1" fill="#7d7d7d" d="M 804.5,159.5 C 805.957,164.598 806.624,169.931 806.5,175.5C 805.194,170.384 804.527,165.051 804.5,159.5 Z"/></g>
<g><path style="opacity:1" fill="#3339ac" d="M 924.5,294.5 C 928.919,295.972 933.586,296.638 938.5,296.5C 956.286,297.183 973.953,296.183 991.5,293.5C 996.414,293.638 1001.08,292.972 1005.5,291.5C 1016.49,290.332 1027.49,290.332 1038.5,291.5C 1047.32,292.493 1056.32,292.827 1065.5,292.5C 1072.01,293.329 1078.68,293.995 1085.5,294.5C 1085.83,294.5 1086.17,294.5 1086.5,294.5C 1088.84,296.965 1090.34,299.965 1091,303.5C 1094.74,324.879 1098.74,346.212 1103,367.5C 1103.82,376.412 1103.65,385.245 1102.5,394C 1100.91,394.862 1099.25,395.529 1097.5,396C 1046.13,396.824 994.792,396.657 943.5,395.5C 939.081,394.028 934.414,393.362 929.5,393.5C 884.829,386 839.829,382.5 794.5,383C 776.406,378.038 758.073,376.704 739.5,379C 721.767,381.682 704.1,384.849 686.5,388.5C 684.192,388.635 682.192,387.969 680.5,386.5C 679.218,385.042 679.218,383.708 680.5,382.5C 681.833,382.5 683.167,382.5 684.5,382.5C 684.5,362.833 684.5,343.167 684.5,323.5C 684.834,314.161 685.334,304.828 686,295.5C 687.529,292.734 689.696,290.734 692.5,289.5C 721.217,288.947 749.884,290.113 778.5,293C 827.185,293.19 875.851,293.69 924.5,294.5 Z"/></g>
<g><path style="opacity:1" fill="#b4b8e1" d="M 1038.5,291.5 C 1054.5,291.5 1070.5,291.5 1086.5,291.5C 1086.5,292.5 1086.5,293.5 1086.5,294.5C 1086.17,294.5 1085.83,294.5 1085.5,294.5C 1085.39,293.883 1085.06,293.383 1084.5,293C 1078.18,292.5 1071.84,292.334 1065.5,292.5C 1056.32,292.827 1047.32,292.493 1038.5,291.5 Z"/></g>
<g><path style="opacity:1" fill="#7377c6" d="M 1005.5,291.5 C 1001.08,292.972 996.414,293.638 991.5,293.5C 995.919,292.028 1000.59,291.362 1005.5,291.5 Z"/></g>
<g><path style="opacity:1" fill="#4e57b8" d="M 1065.5,292.5 C 1071.84,292.334 1078.18,292.5 1084.5,293C 1085.06,293.383 1085.39,293.883 1085.5,294.5C 1078.68,293.995 1072.01,293.329 1065.5,292.5 Z"/></g>
<g><path style="opacity:1" fill="#666ec2" d="M 708.5,295.5 C 702.865,294.963 697.532,295.63 692.5,297.5C 692.5,296.5 692.5,295.5 692.5,294.5C 698.026,294.179 703.36,294.512 708.5,295.5 Z"/></g>
<g><path style="opacity:1" fill="#fbfcfd" d="M 708.5,295.5 C 732.94,296.141 757.274,297.641 781.5,300C 827.5,300.333 873.5,300.667 919.5,301C 937.74,303.768 956.074,304.268 974.5,302.5C 977.85,302.665 981.183,302.498 984.5,302C 985.737,301.768 986.737,301.268 987.5,300.5C 988.167,300.5 988.833,300.5 989.5,300.5C 997.066,300.228 1004.4,299.228 1011.5,297.5C 1035.5,298.666 1059.5,299.833 1083.5,301C 1084.41,302.699 1084.74,304.533 1084.5,306.5C 1084.34,309.187 1084.5,311.854 1085,314.5C 1085.28,315.416 1085.78,316.082 1086.5,316.5C 1090.27,335.766 1093.6,355.099 1096.5,374.5C 1097.03,379.807 1096.36,384.807 1094.5,389.5C 1053.17,389.5 1011.83,389.5 970.5,389.5C 956.292,388.809 941.959,387.809 927.5,386.5C 925.194,386.007 922.861,385.674 920.5,385.5C 915.731,384.111 910.731,383.444 905.5,383.5C 868.4,378.317 831.067,375.817 793.5,376C 768.061,369.937 742.727,370.104 717.5,376.5C 713.511,376.116 709.845,376.783 706.5,378.5C 702.665,378.417 698.998,379.083 695.5,380.5C 693.833,380.5 692.167,380.5 690.5,380.5C 690.5,371.167 690.5,361.833 690.5,352.5C 691.216,334.169 691.883,315.836 692.5,297.5C 697.532,295.63 702.865,294.963 708.5,295.5 Z"/></g>
<g><path style="opacity:1" fill="#a7aadb" d="M 924.5,294.5 C 929.414,294.362 934.081,295.028 938.5,296.5C 933.586,296.638 928.919,295.972 924.5,294.5 Z"/></g>
<g><path style="opacity:1" fill="#a4a7da" d="M 1011.5,297.5 C 1004.4,299.228 997.066,300.228 989.5,300.5C 996.601,298.772 1003.93,297.772 1011.5,297.5 Z"/></g>
<g><path style="opacity:1" fill="#b0b2df" d="M 987.5,300.5 C 986.737,301.268 985.737,301.768 984.5,302C 981.183,302.498 977.85,302.665 974.5,302.5C 978.657,301.551 982.99,300.884 987.5,300.5 Z"/></g>
<g><path style="opacity:1" fill="#2e36aa" d="M 750.5,322.5 C 747.848,322.41 745.515,323.076 743.5,324.5C 742.833,324.5 742.167,324.5 741.5,324.5C 738.941,324.39 736.608,325.056 734.5,326.5C 734.624,327.107 734.957,327.44 735.5,327.5C 743.716,333.862 752.383,339.695 761.5,345C 763.744,346.422 765.41,348.256 766.5,350.5C 765.304,353.138 763.304,353.971 760.5,353C 751.952,346.945 743.285,341.112 734.5,335.5C 734.44,334.957 734.107,334.624 733.5,334.5C 732.516,337.428 732.183,340.428 732.5,343.5C 731.895,346.127 731.395,348.793 731,351.5C 729.604,353.527 727.938,353.86 726,352.5C 726.237,344.844 726.237,337.177 726,329.5C 720.797,324.635 721.631,321.635 728.5,320.5C 728.5,319.5 728.5,318.5 728.5,317.5C 725.199,317.653 722.199,318.653 719.5,320.5C 717.5,320.5 716.5,319.5 716.5,317.5C 717.269,314.896 718.936,313.062 721.5,312C 735.855,306.208 750.188,306.208 764.5,312C 766.325,313.466 766.825,315.299 766,317.5C 761.078,319.851 755.912,321.518 750.5,322.5 Z"/></g>
<g><path style="opacity:1" fill="#3239ac" d="M 782.5,312.5 C 794.428,311.714 803.595,316.381 810,326.5C 811.183,330.274 810.349,333.441 807.5,336C 797.172,336.5 786.839,336.666 776.5,336.5C 776.02,339.685 776.686,342.519 778.5,345C 789.883,350.342 801.883,352.676 814.5,352C 815.935,354.267 815.602,356.267 813.5,358C 801.785,359.058 790.451,357.391 779.5,353C 769.167,348.25 766.667,340.75 772,330.5C 774.755,323.98 778.255,317.98 782.5,312.5 Z"/></g>
<g><path style="opacity:1" fill="#b0b3df" d="M 1084.5,306.5 C 1085.58,309.627 1086.25,312.96 1086.5,316.5C 1085.78,316.082 1085.28,315.416 1085,314.5C 1084.5,311.854 1084.34,309.187 1084.5,306.5 Z"/></g>
<g><path style="opacity:1" fill="#f0f1f9" d="M 747.5,314.5 C 747.5,315.167 747.5,315.833 747.5,316.5C 743.538,317.376 739.538,318.042 735.5,318.5C 735.5,317.167 735.5,315.833 735.5,314.5C 739.5,314.5 743.5,314.5 747.5,314.5 Z"/></g>
<g><path style="opacity:1" fill="#979dd5" d="M 747.5,314.5 C 751.5,315.167 751.5,315.833 747.5,316.5C 747.5,315.833 747.5,315.167 747.5,314.5 Z"/></g>
<g><path style="opacity:1" fill="#3038ab" d="M 839.5,322.5 C 837.372,321.371 835.039,321.204 832.5,322C 833.044,322.717 833.711,323.217 834.5,323.5C 843.637,329.573 852.97,335.406 862.5,341C 866.256,345.03 866.422,349.197 863,353.5C 853.781,360.365 843.781,362.365 833,359.5C 832.28,357.888 832.446,356.388 833.5,355C 839.204,354.633 844.87,353.966 850.5,353C 853.726,351.894 856.393,350.061 858.5,347.5C 857.687,346.186 856.687,345.019 855.5,344C 844.557,338.282 834.39,331.448 825,323.5C 823.595,317.573 825.928,314.573 832,314.5C 837.846,315.201 843.512,316.535 849,318.5C 849.72,320.112 849.554,321.612 848.5,323C 845.469,323.495 842.469,323.329 839.5,322.5 Z"/></g>
<g><path style="opacity:1" fill="#f2f2fa" d="M 785.5,318.5 C 792.95,319.225 798.95,322.558 803.5,328.5C 795.833,329.833 788.167,329.833 780.5,328.5C 782.18,325.14 783.847,321.807 785.5,318.5 Z"/></g>
<g><path style="opacity:1" fill="#9298d4" d="M 839.5,322.5 C 837.585,322.216 835.919,322.549 834.5,323.5C 833.711,323.217 833.044,322.717 832.5,322C 835.039,321.204 837.372,321.371 839.5,322.5 Z"/></g>
<g><path style="opacity:1" fill="#3138ab" d="M 874.5,322.5 C 876.467,322.261 878.301,322.594 880,323.5C 879.074,329.524 879.408,335.524 881,341.5C 882.739,344.907 885.406,347.24 889,348.5C 895.235,343.025 898.568,336.025 899,327.5C 901,326.167 903,326.167 905,327.5C 904.456,337.434 900.956,346.267 894.5,354C 886.586,356.135 880.42,353.635 876,346.5C 873.322,338.63 872.822,330.63 874.5,322.5 Z"/></g>
<g><path style="opacity:1" fill="#b8bae2" d="M 750.5,322.5 C 748.485,323.924 746.152,324.59 743.5,324.5C 745.515,323.076 747.848,322.41 750.5,322.5 Z"/></g>
<g><path style="opacity:1" fill="#3038ab" d="M 919.5,336.5 C 920.301,338.793 920.968,338.46 921.5,335.5C 926.304,321.239 933.47,319.906 943,331.5C 944.935,336.473 946.768,341.473 948.5,346.5C 953.012,341.488 957.679,336.655 962.5,332C 964.971,331.294 967.305,331.627 969.5,333C 976.179,337.859 980.179,344.359 981.5,352.5C 980.006,356.075 977.839,356.409 975,353.5C 973.847,347.188 970.681,342.188 965.5,338.5C 960.676,344.157 955.343,349.323 949.5,354C 944.229,355.856 941.562,354.023 941.5,348.5C 941.59,345.848 940.924,343.515 939.5,341.5C 938.936,337.207 936.936,333.707 933.5,331C 932.5,330.333 931.5,330.333 930.5,331C 927.476,337.735 924.642,344.569 922,351.5C 919.558,355.462 917.225,355.462 915,351.5C 914.092,341.956 912.759,332.623 911,323.5C 913.881,321.972 916.214,322.638 918,325.5C 918.42,329.191 918.92,332.858 919.5,336.5 Z"/></g>
<g><path style="opacity:1" fill="#b8bae2" d="M 741.5,324.5 C 739.629,325.797 737.629,326.797 735.5,327.5C 734.957,327.44 734.624,327.107 734.5,326.5C 736.608,325.056 738.941,324.39 741.5,324.5 Z"/></g>
<g><path style="opacity:1" fill="#333aac" d="M 1010.5,350.5 C 1011.45,349.081 1011.78,347.415 1011.5,345.5C 1009.9,345.232 1008.57,345.566 1007.5,346.5C 1003.32,347.158 1001.82,345.492 1003,341.5C 1005.93,339.934 1009.1,339.1 1012.5,339C 1016.31,327.307 1022.81,325.474 1032,333.5C 1034.86,338.92 1033.69,343.087 1028.5,346C 1024.85,346.499 1021.18,346.665 1017.5,346.5C 1016.54,350.796 1016.37,355.129 1017,359.5C 1020.75,360.297 1024.58,360.797 1028.5,361C 1030.53,362.396 1030.86,364.062 1029.5,366C 1023.62,368.258 1017.95,367.925 1012.5,365C 1009.37,360.551 1008.7,355.718 1010.5,350.5 Z"/></g>
<g><path style="opacity:1" fill="#969cd5" d="M 921.5,335.5 C 920.968,338.46 920.301,338.793 919.5,336.5C 920.167,336.167 920.833,335.833 921.5,335.5 Z"/></g>
<g><path style="opacity:1" fill="#d3d5ed" d="M 1021.5,335.5 C 1024.95,334.756 1026.62,336.09 1026.5,339.5C 1024.5,339.5 1022.5,339.5 1020.5,339.5C 1020.43,338.041 1020.77,336.708 1021.5,335.5 Z"/></g>
<g><path style="opacity:1" fill="#868cce" d="M 734.5,335.5 C 733.833,338.167 733.167,340.833 732.5,343.5C 732.183,340.428 732.516,337.428 733.5,334.5C 734.107,334.624 734.44,334.957 734.5,335.5 Z"/></g>
<g><path style="opacity:1" fill="#b6b8e1" d="M 939.5,341.5 C 940.924,343.515 941.59,345.848 941.5,348.5C 940.076,346.485 939.41,344.152 939.5,341.5 Z"/></g>
<g><path style="opacity:1" fill="#6169c0" d="M 1007.5,346.5 C 1008.57,345.566 1009.9,345.232 1011.5,345.5C 1011.78,347.415 1011.45,349.081 1010.5,350.5C 1010.5,349.167 1010.5,347.833 1010.5,346.5C 1009.5,346.5 1008.5,346.5 1007.5,346.5 Z"/></g>
<g><path style="opacity:1" fill="#676cc1" d="M 684.5,323.5 C 684.5,343.167 684.5,362.833 684.5,382.5C 683.167,382.5 681.833,382.5 680.5,382.5C 681.209,381.596 682.209,381.263 683.5,381.5C 683.17,361.993 683.503,342.659 684.5,323.5 Z"/></g>
<g><path style="opacity:1" fill="#676fc2" d="M 690.5,352.5 C 690.5,361.833 690.5,371.167 690.5,380.5C 692.167,380.5 693.833,380.5 695.5,380.5C 693.735,381.461 691.735,381.795 689.5,381.5C 689.173,371.652 689.506,361.986 690.5,352.5 Z"/></g>
<g><path style="opacity:1" fill="#696ec2" d="M 717.5,376.5 C 714.026,377.525 710.36,378.192 706.5,378.5C 709.845,376.783 713.511,376.116 717.5,376.5 Z"/></g>
<g><path style="opacity:1" fill="#a7aadc" d="M 905.5,383.5 C 910.731,383.444 915.731,384.111 920.5,385.5C 915.269,385.556 910.269,384.889 905.5,383.5 Z"/></g>
<g><path style="opacity:1" fill="#abafdd" d="M 1096.5,374.5 C 1097.49,379.305 1097.82,384.305 1097.5,389.5C 1096.5,389.5 1095.5,389.5 1094.5,389.5C 1096.36,384.807 1097.03,379.807 1096.5,374.5 Z"/></g>
<g><path style="opacity:1" fill="#b6b9e2" d="M 927.5,386.5 C 941.959,387.809 956.292,388.809 970.5,389.5C 960.828,389.666 951.161,389.5 941.5,389C 936.638,388.477 931.972,387.644 927.5,386.5 Z"/></g>
<g><path style="opacity:1" fill="#7d81ca" d="M 929.5,393.5 C 934.414,393.362 939.081,394.028 943.5,395.5C 938.586,395.638 933.919,394.972 929.5,393.5 Z"/></g>
<g><path style="opacity:1" fill="#3037ab" d="M 694.5,436.5 C 693.539,438.265 693.205,440.265 693.5,442.5C 726.173,442.36 758.84,442.693 791.5,443.5C 809.594,445.654 827.761,446.654 846,446.5C 864.57,446.616 883.07,445.616 901.5,443.5C 908.736,443.235 915.736,442.235 922.5,440.5C 926.586,439.864 930.752,439.53 935,439.5C 958.8,441.369 982.633,443.203 1006.5,445C 1028.5,445.667 1050.5,445.667 1072.5,445C 1080.04,444.426 1087.54,443.592 1095,442.5C 1102.06,441.739 1106.56,444.739 1108.5,451.5C 1108.41,454.152 1109.08,456.485 1110.5,458.5C 1115.26,487.284 1116.76,516.284 1115,545.5C 1112.97,547.737 1110.47,549.237 1107.5,550C 1098.39,550.23 1089.39,551.064 1080.5,552.5C 1075.9,552.28 1071.57,552.946 1067.5,554.5C 1029.57,557.449 991.567,558.282 953.5,557C 905.199,553.653 856.866,551.153 808.5,549.5C 803.731,548.111 798.731,547.444 793.5,547.5C 774.946,545.134 756.279,543.967 737.5,544C 719.327,537.928 700.66,534.928 681.5,535C 680.167,533.333 680.167,531.667 681.5,530C 692.519,529.316 703.519,529.482 714.5,530.5C 716.515,531.924 718.848,532.59 721.5,532.5C 727.805,535.206 734.471,537.04 741.5,538C 763.666,537.56 785.666,539.227 807.5,543C 841.881,543.644 876.214,545.144 910.5,547.5C 915.96,548.737 921.627,549.404 927.5,549.5C 970.857,552.374 1014.19,552.041 1057.5,548.5C 1063.74,548.724 1069.74,548.057 1075.5,546.5C 1085.99,545.113 1096.66,544.113 1107.5,543.5C 1108.83,537.202 1109.5,530.535 1109.5,523.5C 1109.5,516.658 1109.17,509.991 1108.5,503.5C 1108.88,495.264 1108.22,487.264 1106.5,479.5C 1105.88,471.097 1104.71,462.763 1103,454.5C 1102.29,452.919 1101.46,451.419 1100.5,450C 1095.83,449.333 1091.17,449.333 1086.5,450C 1080.22,451.163 1073.88,451.997 1067.5,452.5C 1045.83,452.558 1024.16,452.224 1002.5,451.5C 981.866,449.645 961.199,447.978 940.5,446.5C 917.458,448.006 894.458,450.172 871.5,453C 863.667,453.167 855.833,453.333 848,453.5C 823.495,452.305 798.995,450.805 774.5,449C 747.5,448.333 720.5,448.333 693.5,449C 692.672,472.094 692.172,495.261 692,518.5C 690.121,521.066 688.288,521.066 686.5,518.5C 686.328,491.158 686.662,463.824 687.5,436.5C 687.824,430.654 690.657,428.654 696,430.5C 696.743,432.874 696.243,434.874 694.5,436.5 Z"/></g>
<g><path style="opacity:1" fill="#aaafdd" d="M 694.5,436.5 C 694.5,438.167 694.5,439.833 694.5,441.5C 719.836,441.333 745.169,441.5 770.5,442C 777.679,442.171 784.679,442.671 791.5,443.5C 758.84,442.693 726.173,442.36 693.5,442.5C 693.205,440.265 693.539,438.265 694.5,436.5 Z"/></g>
<g><path style="opacity:1" fill="#5f63be" d="M 922.5,440.5 C 915.736,442.235 908.736,443.235 901.5,443.5C 908.251,441.678 915.251,440.678 922.5,440.5 Z"/></g>
<g><path style="opacity:1" fill="#b4b7e1" d="M 1002.5,451.5 C 1024.16,452.224 1045.83,452.558 1067.5,452.5C 1059.84,453.166 1052.01,453.5 1044,453.5C 1029.97,453.578 1016.14,452.911 1002.5,451.5 Z"/></g>
<g><path style="opacity:1" fill="#797dc9" d="M 1108.5,451.5 C 1109.92,453.515 1110.59,455.848 1110.5,458.5C 1109.08,456.485 1108.41,454.152 1108.5,451.5 Z"/></g>
<g><path style="opacity:1" fill="#3038ab" d="M 1009.5,492.5 C 1008.21,493.871 1007.55,495.705 1007.5,498C 1007.51,500.033 1007.84,501.866 1008.5,503.5C 1008.19,512.552 1008.69,521.552 1010,530.5C 1010.83,531.333 1011.67,532.167 1012.5,533C 1019.61,533.893 1026.61,533.393 1033.5,531.5C 1037.35,531.72 1038.35,533.553 1036.5,537C 1028.86,540.247 1020.86,541.247 1012.5,540C 1005.49,537.836 1001.99,533.003 1002,525.5C 1001.5,518.508 1001.33,511.508 1001.5,504.5C 1001.67,501.15 1001.5,497.817 1001,494.5C 1000.28,495.044 999.783,495.711 999.5,496.5C 984.783,496.552 971.283,500.552 959,508.5C 957.81,512.381 957.143,516.381 957,520.5C 955.333,521.833 953.667,521.833 952,520.5C 951.333,516.167 951.333,511.833 952,507.5C 955.253,502.951 959.42,499.451 964.5,497C 976.356,493.369 988.356,490.369 1000.5,488C 1001.32,480.246 1001.82,472.412 1002,464.5C 1003.73,462.398 1005.73,462.065 1008,463.5C 1007.57,471.143 1007.57,478.809 1008,486.5C 1009.01,487.337 1010.18,487.67 1011.5,487.5C 1011.88,489.698 1011.21,491.365 1009.5,492.5 Z"/></g>
<g><path style="opacity:1" fill="#2f37ab" d="M 876.5,469.5 C 876.833,475.5 877.167,481.5 877.5,487.5C 878.791,487.737 879.791,487.404 880.5,486.5C 881.5,486.5 882.5,486.5 883.5,486.5C 888.45,486.23 893.117,485.23 897.5,483.5C 899.966,482.366 902.633,482.199 905.5,483C 906.76,484.814 906.76,486.647 905.5,488.5C 897.124,489.949 888.791,491.616 880.5,493.5C 879.206,495.048 878.539,497.048 878.5,499.5C 878.505,501.696 878.838,503.696 879.5,505.5C 879.5,511.5 879.5,517.5 879.5,523.5C 877.958,524.301 876.292,524.634 874.5,524.5C 873.778,524.082 873.278,523.416 873,522.5C 872.5,515.508 872.334,508.508 872.5,501.5C 872.5,499.5 872.5,497.5 872.5,495.5C 871.209,495.263 870.209,495.596 869.5,496.5C 865.938,497.282 862.605,498.615 859.5,500.5C 855.62,498.347 855.62,495.847 859.5,493C 862.756,491.526 866.089,490.36 869.5,489.5C 870.805,487.603 871.471,485.269 871.5,482.5C 871.497,479.975 871.163,477.641 870.5,475.5C 869.779,472.183 869.612,468.849 870,465.5C 874.448,463.339 876.615,464.672 876.5,469.5 Z"/></g>
<g><path style="opacity:1" fill="#3239ab" d="M 723.5,485.5 C 724.797,483.307 724.797,480.973 723.5,478.5C 722.893,478.624 722.56,478.957 722.5,479.5C 720.429,481.1 718.095,481.6 715.5,481C 714.446,479.612 714.28,478.112 715,476.5C 718.374,473.591 722.207,471.424 726.5,470C 732.886,468.049 739.386,466.882 746,466.5C 752.777,465.536 758.443,467.536 763,472.5C 763.755,475.303 763.422,477.97 762,480.5C 759.079,484.092 755.579,486.925 751.5,489C 747.01,490.549 742.677,492.383 738.5,494.5C 740.316,496.817 742.316,498.984 744.5,501C 750.833,505.167 757.167,509.333 763.5,513.5C 765.028,518.084 763.362,519.584 758.5,518C 751.328,513.581 744.328,508.915 737.5,504C 734.456,500.913 732.456,497.247 731.5,493C 731.643,490.849 732.643,489.182 734.5,488C 741.692,486.069 748.358,483.069 754.5,479C 756.421,477.759 756.754,476.259 755.5,474.5C 747.424,473.034 739.424,473.367 731.5,475.5C 730.874,488.157 730.374,500.823 730,513.5C 728.267,515.602 726.267,515.935 724,514.5C 723.5,504.839 723.334,495.172 723.5,485.5 Z"/></g>
<g><path style="opacity:1" fill="#aeb2de" d="M 722.5,479.5 C 722.56,478.957 722.893,478.624 723.5,478.5C 724.797,480.973 724.797,483.307 723.5,485.5C 723.795,483.265 723.461,481.265 722.5,479.5 Z"/></g>
<g><path style="opacity:1" fill="#2f38ab" d="M 817.5,478.5 C 823.072,477.99 828.405,478.823 833.5,481C 835.797,482.263 836.63,484.097 836,486.5C 832.66,487.299 829.493,487.299 826.5,486.5C 824.649,489.625 824.149,492.958 825,496.5C 832.603,501.481 840.769,505.315 849.5,508C 850.894,508.956 851.561,510.289 851.5,512C 846.375,522.901 837.708,527.567 825.5,526C 823.771,524.211 823.104,522.044 823.5,519.5C 831.386,520.985 838.052,518.985 843.5,513.5C 836.743,510.622 830.076,507.456 823.5,504C 817.25,499.066 815.917,493.066 819.5,486C 816.562,484.082 815.896,481.582 817.5,478.5 Z"/></g>
<g><path style="opacity:1" fill="#9398d3" d="M 870.5,475.5 C 871.163,477.641 871.497,479.975 871.5,482.5C 871.471,485.269 870.805,487.603 869.5,489.5C 870.441,484.93 870.774,480.263 870.5,475.5 Z"/></g>
<g><path style="opacity:1" fill="#2d36aa" d="M 915.5,483.5 C 923.051,482.026 928.551,484.693 932,491.5C 933.583,496.1 932.083,497.934 927.5,497C 926.324,494.314 924.657,491.981 922.5,490C 921.167,489.333 919.833,489.333 918.5,490C 908.66,497.857 904.493,508.023 906,520.5C 908.243,522.282 910.743,522.782 913.5,522C 918.059,517.72 921.226,512.553 923,506.5C 924.388,505.446 925.888,505.28 927.5,506C 930.383,511.038 934.05,515.205 938.5,518.5C 938.426,520.739 937.259,521.739 935,521.5C 931.555,520.891 928.722,519.225 926.5,516.5C 924.433,518.956 922.599,521.622 921,524.5C 916.483,528.242 911.316,529.409 905.5,528C 902.667,526.5 900.5,524.333 899,521.5C 897.829,511.337 900.162,502.004 906,493.5C 909.371,490.297 912.538,486.964 915.5,483.5 Z"/></g>
<g><path style="opacity:1" fill="#8e92d1" d="M 876.5,469.5 C 877.255,475.427 878.588,481.093 880.5,486.5C 879.791,487.404 878.791,487.737 877.5,487.5C 877.167,481.5 876.833,475.5 876.5,469.5 Z"/></g>
<g><path style="opacity:1" fill="#6367bf" d="M 897.5,483.5 C 893.117,485.23 888.45,486.23 883.5,486.5C 887.883,484.77 892.55,483.77 897.5,483.5 Z"/></g>
<g><path style="opacity:1" fill="#2e36aa" d="M 784.5,488.5 C 792.003,487.854 797.003,491.021 799.5,498C 799.561,499.711 798.894,501.044 797.5,502C 793.654,503.669 789.654,504.836 785.5,505.5C 785.977,506.478 786.643,507.311 787.5,508C 797.793,512.32 808.293,515.82 819,518.5C 819.667,519.833 819.667,521.167 819,522.5C 808.77,522.785 798.937,520.618 789.5,516C 783.547,514.217 779.881,510.384 778.5,504.5C 775.15,504.665 771.817,504.498 768.5,504C 767.446,502.612 767.28,501.112 768,499.5C 771.79,498.864 775.623,498.197 779.5,497.5C 780.925,494.312 782.592,491.312 784.5,488.5 Z"/></g>
<g><path style="opacity:1" fill="#d0d1ec" d="M 787.5,495.5 C 788.978,495.238 790.311,495.571 791.5,496.5C 790.833,496.833 790.167,497.167 789.5,497.5C 788.287,497.253 787.62,496.586 787.5,495.5 Z"/></g>
<g><path style="opacity:1" fill="#b6bae2" d="M 1009.5,492.5 C 1008.58,496.064 1008.24,499.731 1008.5,503.5C 1007.84,501.866 1007.51,500.033 1007.5,498C 1007.55,495.705 1008.21,493.871 1009.5,492.5 Z"/></g>
<g><path style="opacity:1" fill="#a9aedd" d="M 869.5,496.5 C 870.209,495.596 871.209,495.263 872.5,495.5C 872.5,497.5 872.5,499.5 872.5,501.5C 872.028,499.469 871.028,497.802 869.5,496.5 Z"/></g>
<g><path style="opacity:1" fill="#8f95d2" d="M 880.5,493.5 C 879.57,497.4 879.237,501.4 879.5,505.5C 878.838,503.696 878.505,501.696 878.5,499.5C 878.539,497.048 879.206,495.048 880.5,493.5 Z"/></g>
<g><path style="opacity:1" fill="#969ad5" d="M 1106.5,479.5 C 1108.22,487.264 1108.88,495.264 1108.5,503.5C 1107.51,495.675 1106.84,487.675 1106.5,479.5 Z"/></g>
<g><path style="opacity:1" fill="#989dd6" d="M 1001.5,504.5 C 1000.83,501.833 1000.17,499.167 999.5,496.5C 999.783,495.711 1000.28,495.044 1001,494.5C 1001.5,497.817 1001.67,501.15 1001.5,504.5 Z"/></g>
<g><path style="opacity:1" fill="#9095d2" d="M 687.5,436.5 C 686.662,463.824 686.328,491.158 686.5,518.5C 685.833,507.505 685.5,496.338 685.5,485C 685.315,468.638 685.981,452.472 687.5,436.5 Z"/></g>
<g><path style="opacity:1" fill="#9fa2d8" d="M 879.5,523.5 C 879.209,524.649 878.376,525.316 877,525.5C 875.93,525.472 875.097,525.139 874.5,524.5C 875.097,525.139 875.93,525.472 877,525.5C 878.376,525.316 879.209,524.649 879.5,523.5 Z"/></g>
<g><path style="opacity:1" fill="#b4b6e1" d="M 714.5,530.5 C 717.152,530.41 719.485,531.076 721.5,532.5C 718.848,532.59 716.515,531.924 714.5,530.5 Z"/></g>
<g><path style="opacity:1" fill="#4b54b7" d="M 1108.5,503.5 C 1109.17,509.991 1109.5,516.658 1109.5,523.5C 1109.5,530.535 1108.83,537.202 1107.5,543.5C 1108.48,530.246 1108.81,516.913 1108.5,503.5 Z"/></g>
<g><path style="opacity:1" fill="#787cc8" d="M 1075.5,546.5 C 1069.74,548.057 1063.74,548.724 1057.5,548.5C 1063.3,547.318 1069.3,546.652 1075.5,546.5 Z"/></g>
<g><path style="opacity:1" fill="#8084cc" d="M 793.5,547.5 C 798.731,547.444 803.731,548.111 808.5,549.5C 803.269,549.556 798.269,548.889 793.5,547.5 Z"/></g>
<g><path style="opacity:1" fill="#8c90d1" d="M 910.5,547.5 C 916.417,547.216 922.084,547.883 927.5,549.5C 921.627,549.404 915.96,548.737 910.5,547.5 Z"/></g>
<g><path style="opacity:1" fill="#bfc1e5" d="M 1080.5,552.5 C 1076.43,554.054 1072.1,554.72 1067.5,554.5C 1071.57,552.946 1075.9,552.28 1080.5,552.5 Z"/></g>
<g><path style="opacity:1" fill="#343aac" d="M 870.5,591.5 C 873.152,591.59 875.485,590.924 877.5,589.5C 882.117,588.513 886.784,587.846 891.5,587.5C 904.149,586.678 916.815,586.345 929.5,586.5C 951.917,589.6 974.25,589.1 996.5,585C 1007.83,584.333 1019.17,584.333 1030.5,585C 1039.33,587.499 1048.33,588.832 1057.5,589C 1071.26,589.035 1084.93,589.702 1098.5,591C 1099.7,591.903 1100.53,593.069 1101,594.5C 1104.19,612.322 1105.69,630.322 1105.5,648.5C 1105.35,658.185 1104.85,667.852 1104,677.5C 1103.34,678.984 1102.5,680.317 1101.5,681.5C 1098.99,681.927 1096.66,682.593 1094.5,683.5C 1093.83,683.5 1093.17,683.5 1092.5,683.5C 1084.16,683.334 1075.83,683.5 1067.5,684C 1064.96,684.186 1062.63,684.686 1060.5,685.5C 1059.5,685.5 1058.5,685.5 1057.5,685.5C 1052.59,685.362 1047.92,686.028 1043.5,687.5C 1028.27,688.971 1012.93,689.638 997.5,689.5C 965.863,687.759 934.197,687.259 902.5,688C 889.643,690.259 876.643,691.425 863.5,691.5C 822.952,689.425 782.452,686.758 742,683.5C 723.862,685.16 705.695,685.66 687.5,685C 685.676,684.34 684.343,683.173 683.5,681.5C 683.802,667.964 683.135,654.631 681.5,641.5C 680.115,623.854 678.948,606.187 678,588.5C 677.056,587.737 676.556,586.737 676.5,585.5C 677.531,583.618 678.365,581.618 679,579.5C 682.448,576.541 684.615,577.374 685.5,582C 708.067,582.146 730.567,582.979 753,584.5C 785.326,581.272 817.159,583.772 848.5,592C 855.856,592.636 863.189,592.469 870.5,591.5 Z"/></g>
<g><path style="opacity:1" fill="#787cc8" d="M 929.5,586.5 C 916.815,586.345 904.149,586.678 891.5,587.5C 898.772,585.983 906.272,585.316 914,585.5C 919.344,585.501 924.511,585.834 929.5,586.5 Z"/></g>
<g><path style="opacity:1" fill="#fbfbfd" d="M 883.5,595.5 C 890.736,595.235 897.736,594.235 904.5,592.5C 923.849,592.768 943.182,593.435 962.5,594.5C 971.518,594.404 980.518,594.071 989.5,593.5C 994.1,593.72 998.433,593.054 1002.5,591.5C 1008.99,590.346 1015.65,590.179 1022.5,591C 1030.15,592.329 1037.81,593.496 1045.5,594.5C 1047.63,595.314 1049.96,595.814 1052.5,596C 1066.5,596.5 1080.5,596.667 1094.5,596.5C 1097.07,608.283 1098.24,620.283 1098,632.5C 1099.14,635.08 1099.98,637.747 1100.5,640.5C 1100.91,645.692 1100.24,650.692 1098.5,655.5C 1098.5,655.833 1098.5,656.167 1098.5,656.5C 1097.19,657.145 1096.19,658.145 1095.5,659.5C 1097.38,664.6 1098.05,669.933 1097.5,675.5C 1096.74,676.268 1095.74,676.768 1094.5,677C 1082.8,677.23 1071.13,677.73 1059.5,678.5C 1055.18,678.083 1051.18,678.75 1047.5,680.5C 1032.2,681.829 1016.87,682.496 1001.5,682.5C 969.183,680.864 936.85,680.364 904.5,681C 897.721,681.493 891.054,682.493 884.5,684C 878.5,684.167 872.5,684.333 866.5,684.5C 824.793,682.398 783.126,679.731 741.5,676.5C 724.2,677.97 706.867,678.637 689.5,678.5C 689.5,676.5 689.5,674.5 689.5,672.5C 689.223,667.767 689.557,663.1 690.5,658.5C 690.006,656.974 689.339,655.641 688.5,654.5C 687.079,632.862 686.079,611.195 685.5,589.5C 724.833,589.937 764.167,590.437 803.5,591C 810.115,592.108 816.782,592.775 823.5,593C 843.227,599.387 863.227,600.22 883.5,595.5 Z"/></g>
<g><path style="opacity:1" fill="#6469c0" d="M 877.5,589.5 C 875.485,590.924 873.152,591.59 870.5,591.5C 872.515,590.076 874.848,589.41 877.5,589.5 Z"/></g>
<g><path style="opacity:1" fill="#b8bae2" d="M 1002.5,591.5 C 998.433,593.054 994.1,593.72 989.5,593.5C 993.567,591.946 997.9,591.28 1002.5,591.5 Z"/></g>
<g><path style="opacity:1" fill="#b3b5e0" d="M 904.5,592.5 C 897.736,594.235 890.736,595.235 883.5,595.5C 890.251,593.678 897.251,592.678 904.5,592.5 Z"/></g>
<g><path style="opacity:1" fill="#6a71c3" d="M 1045.5,594.5 C 1061.99,595.038 1078.33,595.705 1094.5,596.5C 1080.5,596.667 1066.5,596.5 1052.5,596C 1049.96,595.814 1047.63,595.314 1045.5,594.5 Z"/></g>
<g><path style="opacity:1" fill="#4247b1" d="M 793.5,604.5 C 797.5,603.833 799.167,605.5 798.5,609.5C 796.833,609.5 795.167,609.5 793.5,609.5C 793.5,607.833 793.5,606.167 793.5,604.5 Z"/></g>
<g><path style="opacity:1" fill="#2c35aa" d="M 752.5,649.5 C 750.661,650.752 748.828,650.752 747,649.5C 746.667,642.5 746.333,635.5 746,628.5C 745.283,629.044 744.783,629.711 744.5,630.5C 740.459,639.685 734.125,641.685 725.5,636.5C 725.44,635.957 725.107,635.624 724.5,635.5C 723.503,642.134 723.17,648.8 723.5,655.5C 721.802,658.124 719.969,658.124 718,655.5C 717.375,640.16 717.041,624.827 717,609.5C 718.826,605.963 721.16,605.629 724,608.5C 724.333,614.5 724.667,620.5 725,626.5C 726.831,629.839 729.665,631.839 733.5,632.5C 735.383,632.124 736.883,631.124 738,629.5C 741.275,622.616 744.275,615.616 747,608.5C 749,607.167 751,607.167 753,608.5C 752.745,622.15 752.579,635.817 752.5,649.5 Z"/></g>
<g><path style="opacity:1" fill="#2c35aa" d="M 903.5,642.5 C 904.654,636.013 904.821,629.346 904,622.5C 903.283,623.044 902.783,623.711 902.5,624.5C 896.616,628.245 890.616,628.245 884.5,624.5C 884.44,623.957 884.107,623.624 883.5,623.5C 882.501,634.814 882.168,646.147 882.5,657.5C 881.391,661.029 879.558,661.362 877,658.5C 876.176,642.592 876.343,626.759 877.5,611C 878.833,610.333 880.167,610.333 881.5,611C 889.255,623.577 896.922,623.577 904.5,611C 906.441,610.257 908.274,610.424 910,611.5C 910.667,626.833 910.667,642.167 910,657.5C 907.916,660.033 905.916,660.033 904,657.5C 903.501,652.511 903.334,647.511 903.5,642.5 Z"/></g>
<g><path style="opacity:1" fill="#2f37ab" d="M 991.5,649.5 C 991.956,644.404 990.956,639.738 988.5,635.5C 988.34,633.847 987.674,632.514 986.5,631.5C 984.034,630.366 981.367,630.199 978.5,631C 976.68,631.2 975.347,632.034 974.5,633.5C 968.614,637.937 965.448,643.937 965,651.5C 962.733,652.935 960.733,652.602 959,650.5C 958.168,641.149 958.335,631.816 959.5,622.5C 961.371,621.233 963.204,621.233 965,622.5C 965.333,625.833 965.667,629.167 966,632.5C 972.468,624.494 980.635,622.327 990.5,626C 996.629,633.719 998.629,642.386 996.5,652C 994.072,652.747 992.406,651.914 991.5,649.5 Z"/></g>
<g><path style="opacity:1" fill="#2f37ab" d="M 767.5,623.5 C 771.182,623.335 774.848,623.501 778.5,624C 779.5,624.833 780.5,625.667 781.5,626.5C 783.214,633.067 783.714,639.734 783,646.5C 781.333,647.833 779.667,647.833 778,646.5C 777.818,643.774 777.318,641.107 776.5,638.5C 773.691,642.477 770.691,646.31 767.5,650C 763.031,652.623 759.531,651.79 757,647.5C 756.333,644.5 756.333,641.5 757,638.5C 759.525,632.771 763.025,627.771 767.5,623.5 Z"/></g>
<g><path style="opacity:1" fill="#7e85cc" d="M 884.5,624.5 C 883.833,635.5 883.167,646.5 882.5,657.5C 882.168,646.147 882.501,634.814 883.5,623.5C 884.107,623.624 884.44,623.957 884.5,624.5 Z"/></g>
<g><path style="opacity:1" fill="#2e36aa" d="M 1042.5,651.5 C 1042.96,654.482 1043.3,657.482 1043.5,660.5C 1042.42,662.582 1040.92,662.916 1039,661.5C 1037.89,657.797 1036.73,654.131 1035.5,650.5C 1035.59,647.848 1034.92,645.515 1033.5,643.5C 1033.5,642.833 1033.5,642.167 1033.5,641.5C 1032.83,638.833 1032.17,638.833 1031.5,641.5C 1027.83,648.695 1022.16,653.528 1014.5,656C 1005.82,657.333 1001.32,653.499 1001,644.5C 999.935,638.189 999.602,631.856 1000,625.5C 1002.27,624.065 1004.27,624.398 1006,626.5C 1006.12,633.246 1006.79,639.913 1008,646.5C 1008.48,648.646 1009.81,649.646 1012,649.5C 1017.74,648.103 1022.07,644.769 1025,639.5C 1027.27,635.286 1029.27,630.953 1031,626.5C 1033.27,625.065 1035.27,625.398 1037,627.5C 1038.53,635.617 1040.36,643.617 1042.5,651.5 Z"/></g>
<g><path style="opacity:1" fill="#2f37ab" d="M 933.5,627.5 C 938.371,627.192 943.037,628.025 947.5,630C 950.241,634.778 949.908,639.445 946.5,644C 941.676,645.819 936.676,646.985 931.5,647.5C 932.665,648.584 933.998,649.417 935.5,650C 941.167,650.333 946.833,650.667 952.5,651C 953.86,652.938 953.527,654.604 951.5,656C 943.578,658.28 935.911,657.613 928.5,654C 926.333,650.803 923.833,647.97 921,645.5C 920.333,644.167 920.333,642.833 921,641.5C 924.975,636.69 929.141,632.024 933.5,627.5 Z"/></g>
<g><path style="opacity:1" fill="#333aac" d="M 811.5,628.5 C 816.74,627.538 820.907,629.205 824,633.5C 828.394,639.073 829.894,645.24 828.5,652C 826.633,652.711 825.133,652.211 824,650.5C 818.428,630.765 812.261,630.598 805.5,650C 803.299,650.825 801.466,650.325 800,648.5C 799.441,643.137 799.108,637.804 799,632.5C 801.382,631.134 803.548,631.467 805.5,633.5C 807.941,632.291 809.941,630.624 811.5,628.5 Z"/></g>
<g><path style="opacity:1" fill="#353cad" d="M 790.5,630.5 C 795.07,630.238 797.07,632.404 796.5,637C 796,641.5 795.5,646 795,650.5C 793.776,653.473 791.776,654.14 789,652.5C 788.631,645.072 789.131,637.739 790.5,630.5 Z"/></g>
<g><path style="opacity:1" fill="#a3a6da" d="M 986.5,631.5 C 982.342,631.332 978.342,631.998 974.5,633.5C 975.347,632.034 976.68,631.2 978.5,631C 981.367,630.199 984.034,630.366 986.5,631.5 Z"/></g>
<g><path style="opacity:1" fill="#e1e2f3" d="M 769.5,630.5 C 770.675,630.281 771.675,630.614 772.5,631.5C 770.249,635.916 767.416,639.916 764,643.5C 764.55,638.732 766.383,634.399 769.5,630.5 Z"/></g>
<g><path style="opacity:1" fill="#f0f1f9" d="M 937.5,639.5 C 935.585,639.784 933.919,639.451 932.5,638.5C 934.782,634.909 938.116,633.576 942.5,634.5C 943.167,638.5 941.5,640.167 937.5,639.5 Z"/></g>
<g><path style="opacity:1" fill="#7c83cb" d="M 903.5,642.5 C 903.823,636.31 903.49,630.31 902.5,624.5C 902.783,623.711 903.283,623.044 904,622.5C 904.821,629.346 904.654,636.013 903.5,642.5 Z"/></g>
<g><path style="opacity:1" fill="#8d93d1" d="M 932.5,638.5 C 933.919,639.451 935.585,639.784 937.5,639.5C 935.636,640.793 933.636,640.793 931.5,639.5C 931.624,638.893 931.957,638.56 932.5,638.5 Z"/></g>
<g><path style="opacity:1" fill="#8c91d1" d="M 1033.5,641.5 C 1032.83,641.5 1032.17,641.5 1031.5,641.5C 1032.17,638.833 1032.83,638.833 1033.5,641.5 Z"/></g>
<g><path style="opacity:1" fill="#9da2d8" d="M 752.5,649.5 C 750.807,651.766 748.64,652.1 746,650.5C 745.828,643.654 745.328,636.987 744.5,630.5C 744.783,629.711 745.283,629.044 746,628.5C 746.333,635.5 746.667,642.5 747,649.5C 748.828,650.752 750.661,650.752 752.5,649.5 Z"/></g>
<g><path style="opacity:1" fill="#7a82ca" d="M 725.5,636.5 C 724.833,642.833 724.167,649.167 723.5,655.5C 723.17,648.8 723.503,642.134 724.5,635.5C 725.107,635.624 725.44,635.957 725.5,636.5 Z"/></g>
<g><path style="opacity:1" fill="#b0b3df" d="M 988.5,635.5 C 990.956,639.738 991.956,644.404 991.5,649.5C 990.509,644.95 989.509,640.283 988.5,635.5 Z"/></g>
<g><path style="opacity:1" fill="#b7b9e2" d="M 1033.5,643.5 C 1034.92,645.515 1035.59,647.848 1035.5,650.5C 1034.08,648.485 1033.41,646.152 1033.5,643.5 Z"/></g>
<g><path style="opacity:1" fill="#6569c0" d="M 1100.5,640.5 C 1101.65,644.646 1101.81,648.98 1101,653.5C 1100.58,654.756 1099.75,655.423 1098.5,655.5C 1100.24,650.692 1100.91,645.692 1100.5,640.5 Z"/></g>
<g><path style="opacity:1" fill="#8d91d1" d="M 1042.5,651.5 C 1044.48,654.373 1044.81,657.373 1043.5,660.5C 1043.3,657.482 1042.96,654.482 1042.5,651.5 Z"/></g>
<g><path style="opacity:1" fill="#8388cd" d="M 1098.5,656.5 C 1098.71,662.839 1098.37,669.172 1097.5,675.5C 1098.05,669.933 1097.38,664.6 1095.5,659.5C 1096.19,658.145 1097.19,657.145 1098.5,656.5 Z"/></g>
<g><path style="opacity:1" fill="#4f57b8" d="M 688.5,654.5 C 689.339,655.641 690.006,656.974 690.5,658.5C 689.557,663.1 689.223,667.767 689.5,672.5C 688.51,666.69 688.177,660.69 688.5,654.5 Z"/></g>
<g><path style="opacity:1" fill="#898ecf" d="M 681.5,641.5 C 683.135,654.631 683.802,667.964 683.5,681.5C 682.395,668.344 681.728,655.01 681.5,641.5 Z"/></g>
<g><path style="opacity:1" fill="#7c82ca" d="M 1059.5,678.5 C 1055.68,679.482 1051.68,680.149 1047.5,680.5C 1051.18,678.75 1055.18,678.083 1059.5,678.5 Z"/></g>
<g><path style="opacity:1" fill="#b3b4e0" d="M 1101.5,681.5 C 1101.39,682.117 1101.06,682.617 1100.5,683C 1098.53,683.495 1096.53,683.662 1094.5,683.5C 1096.66,682.593 1098.99,681.927 1101.5,681.5 Z"/></g>
<g><path style="opacity:1" fill="#898ecf" d="M 1092.5,683.5 C 1082,684.385 1071.33,685.052 1060.5,685.5C 1062.63,684.686 1064.96,684.186 1067.5,684C 1075.83,683.5 1084.16,683.334 1092.5,683.5 Z"/></g>
<g><path style="opacity:1" fill="#bcbfe4" d="M 1057.5,685.5 C 1053.08,686.972 1048.41,687.638 1043.5,687.5C 1047.92,686.028 1052.59,685.362 1057.5,685.5 Z"/></g>
</svg>
