<?xml version="1.0" standalone="no"?>
<!DOCTYPE svg PUBLIC "-//W3C//DTD SVG 20010904//EN"
 "http://www.w3.org/TR/2001/REC-SVG-20010904/DTD/svg10.dtd">
<svg version="1.0" xmlns="http://www.w3.org/2000/svg"
 width="1777.000000pt" height="1915.000000pt" viewBox="0 0 1777.000000 1915.000000"
 preserveAspectRatio="xMidYMid meet">

<g transform="translate(0.000000,1915.000000) scale(0.100000,-0.100000)"
fill="#000000" stroke="none">
<path d="M8633 18853 c-23 -9 -26 -68 -5 -114 12 -27 39 -168 71 -374 29 -181
59 -340 66 -352 8 -12 24 -25 36 -28 38 -12 71 24 118 133 25 56 46 100 48 99
1 -2 14 -71 28 -153 30 -181 40 -217 71 -271 29 -50 49 -63 97 -63 39 0 81 39
116 108 10 20 28 45 38 54 19 17 21 16 53 -17 40 -41 95 -59 154 -50 22 4 109
40 191 80 163 80 256 111 372 121 80 7 106 25 96 65 -10 36 -44 43 -140 30
-117 -16 -230 -55 -392 -135 -73 -36 -144 -66 -156 -66 -12 0 -34 9 -48 20
l-26 21 40 52 c56 74 80 129 86 197 9 100 -32 160 -110 160 -33 0 -46 -6 -76
-38 -51 -54 -74 -132 -69 -242 l3 -85 -38 -34 c-20 -18 -49 -55 -64 -82 -14
-27 -31 -48 -36 -46 -18 6 -37 78 -63 232 -37 225 -62 285 -118 285 -38 0 -73
-36 -110 -113 -38 -80 -36 -82 -56 48 -30 202 -81 495 -90 521 -16 41 -46 54
-87 37z m817 -621 c0 -22 -12 -62 -27 -93 l-28 -54 -3 47 c-3 50 27 138 47
138 6 0 11 -17 11 -38z"/>
<path d="M7478 18465 c-89 -30 -195 -132 -251 -238 -28 -55 -31 -72 -32 -144
0 -76 2 -84 28 -111 33 -34 66 -44 110 -31 40 11 72 42 117 111 l37 56 34
-131 c30 -116 34 -147 34 -259 0 -113 -2 -130 -21 -155 -29 -39 -84 -56 -138
-42 -55 15 -131 92 -147 151 -16 59 1 87 71 115 60 24 80 44 73 74 -10 36 -39
42 -101 23 -172 -54 -198 -222 -57 -373 127 -135 319 -124 398 24 20 36 22 55
22 180 -1 120 -5 156 -29 255 -37 146 -71 248 -93 272 -22 25 -65 23 -90 -4
-12 -13 -33 -48 -48 -78 -60 -121 -105 -154 -105 -77 0 104 146 287 230 287
31 0 60 27 60 57 0 39 -48 57 -102 38z"/>
<path d="M8323 18428 c-6 -7 -13 -53 -16 -103 -4 -49 -14 -117 -22 -150 -21
-81 -70 -180 -102 -205 -24 -18 -28 -19 -43 -5 -18 16 -33 65 -45 138 -4 27
-13 41 -30 49 -25 11 -25 11 -5 25 30 21 25 60 -11 94 -26 24 -40 29 -80 29
-175 0 -296 -244 -179 -361 52 -53 121 -51 186 5 l40 34 23 -44 c29 -55 64
-77 118 -77 30 0 52 7 78 27 37 29 105 121 105 144 0 29 18 0 24 -39 4 -23 14
-55 22 -71 9 -17 17 -50 19 -74 2 -25 7 -54 10 -65 8 -23 40 -38 67 -31 36 9
39 35 18 137 -11 54 -20 100 -20 104 0 4 15 5 34 3 73 -9 134 55 167 175 33
120 22 168 -38 161 -21 -2 -29 -10 -34 -33 -43 -180 -59 -212 -100 -202 -58
15 -63 29 -90 237 -5 46 -15 90 -21 97 -13 17 -63 17 -75 1z m-327 -247 c20
-16 22 -20 9 -31 -8 -6 -28 -36 -44 -65 -47 -83 -93 -107 -111 -59 -16 42 -1
92 40 135 41 43 69 49 106 20z"/>
<path d="M11058 17209 c-71 -17 -153 -66 -209 -126 -49 -54 -56 -58 -81 -49
-38 13 -78 -14 -78 -54 0 -31 22 -50 60 -50 12 0 19 -4 15 -9 -11 -19 17 -107
43 -134 36 -39 69 -55 129 -63 56 -7 88 4 96 35 9 35 -18 58 -73 63 -57 6 -85
26 -95 70 -8 31 -10 30 79 47 212 39 362 212 231 266 -38 17 -62 17 -117 4z
m27 -105 c-19 -15 -119 -64 -131 -64 -27 0 62 54 116 71 36 11 37 10 15 -7z"/>
<path d="M11482 17174 c-53 -26 -103 -79 -122 -130 -33 -87 33 -169 205 -253
98 -47 108 -54 91 -66 -16 -12 -58 -26 -286 -97 -74 -23 -75 -23 -75 -57 0
-58 18 -60 163 -18 251 71 314 107 314 181 0 53 -27 77 -164 148 -109 55 -158
93 -158 123 0 6 16 29 36 49 l36 37 20 -20 c37 -41 84 -15 95 52 12 74 -60 98
-155 51z"/>
<path d="M10455 17156 c-62 -20 -104 -44 -155 -92 -32 -30 -67 -51 -110 -65
-118 -39 -179 -94 -248 -226 l-39 -74 -37 83 c-71 158 -110 170 -225 67 -65
-58 -98 -70 -118 -44 -19 26 -16 59 8 116 16 36 26 48 37 44 28 -11 51 6 67
49 20 51 10 82 -30 92 -53 13 -107 -31 -157 -130 -42 -81 -45 -175 -8 -229 58
-84 150 -76 261 21 l46 41 23 -57 c37 -94 69 -142 104 -159 53 -25 83 -2 141
107 46 86 117 181 128 170 3 -3 0 -28 -6 -55 -29 -142 65 -235 222 -222 119
10 353 104 364 146 6 24 -18 61 -41 61 -9 0 -57 -18 -107 -39 -163 -72 -270
-89 -319 -50 -18 14 -26 30 -26 52 0 54 52 147 116 208 70 66 110 89 157 89
38 0 57 15 57 45 0 50 -43 70 -105 51z"/>
<path d="M8435 17101 c-47 -12 -112 -49 -129 -73 -9 -12 -16 -40 -16 -62 0
-48 33 -82 141 -145 73 -43 129 -87 129 -103 0 -10 -58 -40 -97 -48 -27 -7
-35 -4 -48 16 -20 31 -59 31 -90 -1 -63 -62 9 -135 119 -119 198 27 273 148
158 255 -20 20 -62 51 -92 69 -90 54 -120 75 -120 81 0 7 74 39 89 39 5 0 12
-11 15 -25 8 -33 50 -44 76 -20 22 20 27 74 10 105 -18 33 -81 46 -145 31z"/>
<path d="M7632 17086 c-86 -39 -149 -122 -178 -236 -34 -134 -1 -263 84 -327
59 -45 103 -51 159 -24 40 19 44 24 41 53 -4 42 -28 56 -70 40 -27 -10 -36 -9
-62 6 -50 28 -68 75 -63 159 3 56 11 87 35 135 40 79 67 99 148 107 35 4 66
10 70 14 11 10 7 58 -5 70 -17 17 -122 19 -159 3z"/>
<path d="M7925 17088 c-99 -35 -185 -147 -185 -242 0 -119 100 -188 275 -190
153 -1 243 40 213 97 -15 29 -34 31 -114 12 -51 -12 -91 -15 -128 -11 -61 8
-138 43 -144 66 -4 12 -2 13 9 3 26 -25 54 -13 110 45 84 86 99 110 99 153 0
34 -5 42 -32 59 -36 22 -58 24 -103 8z m5 -111 c0 -2 -17 -19 -37 -38 l-38
-34 34 38 c33 34 41 42 41 34z"/>
<path d="M9150 17080 c-30 -30 -28 -104 4 -125 13 -8 31 -13 40 -9 25 9 21
-33 -9 -93 -52 -104 -180 -190 -244 -163 -17 6 -35 25 -42 42 -26 63 53 208
114 208 67 0 82 77 20 101 -34 13 -120 -27 -159 -74 -80 -94 -103 -228 -52
-304 77 -116 242 -99 373 38 119 125 147 276 68 369 -30 37 -82 41 -113 10z"/>
<path d="M5398 16610 c-147 -17 -188 -39 -188 -102 0 -36 40 -64 69 -49 11 6
24 18 29 27 15 26 251 41 419 26 291 -27 542 -110 507 -169 -19 -31 -132 -104
-283 -183 -131 -67 -146 -78 -149 -103 -4 -31 12 -57 36 -57 21 0 262 123 347
177 118 76 155 120 155 187 0 130 -313 240 -715 251 -82 2 -185 0 -227 -5z"/>
<path d="M5575 16399 c-454 -46 -865 -209 -1302 -516 -644 -452 -1092 -1100
-1237 -1792 -62 -295 -56 -465 20 -567 28 -38 56 -47 83 -27 27 18 53 80 45
105 -7 22 -40 41 -60 34 -51 -20 -34 278 31 528 178 687 610 1264 1275 1705
300 199 615 334 922 395 132 27 303 46 403 46 83 0 121 33 89 79 -14 19 -24
21 -102 20 -48 -1 -123 -5 -167 -10z"/>
<path d="M11479 16153 c-60 -5 -87 -31 -73 -71 l9 -27 150 -1 c174 -1 288 -21
478 -85 435 -144 831 -437 1068 -788 267 -395 363 -895 318 -1642 -6 -101 -12
-231 -13 -288 -1 -93 1 -105 19 -117 16 -11 25 -11 45 -1 24 12 25 16 37 187
56 834 -1 1310 -207 1720 -253 504 -780 912 -1375 1065 -181 46 -307 60 -456
48z"/>
<path d="M13270 13638 c-20 -49 -32 -150 -37 -318 -4 -139 -2 -194 11 -265 36
-192 109 -285 224 -285 99 0 215 107 387 359 69 100 77 116 69 140 -7 19 -17
27 -41 29 -30 3 -35 -3 -112 -115 -90 -132 -173 -231 -235 -280 -81 -65 -136
-34 -178 100 -21 64 -23 92 -23 267 0 119 5 227 14 278 15 93 9 112 -40 112
-21 0 -32 -7 -39 -22z"/>
<path d="M3562 13098 c-52 -56 -99 -322 -89 -508 5 -100 4 -108 -25 -177 -31
-76 -82 -133 -118 -133 -24 0 -60 33 -61 58 -4 67 21 142 60 177 13 11 37 24
54 30 25 8 33 17 35 38 5 39 -14 57 -60 57 -32 0 -47 -8 -87 -45 -79 -74 -122
-205 -96 -292 12 -40 12 -43 -11 -58 -29 -19 -47 -19 -83 -1 -44 23 -91 83
-127 162 -49 108 -85 111 -133 10 -59 -122 -136 -164 -167 -91 -20 50 -18 141
6 194 19 40 19 46 5 67 -34 52 -96 9 -116 -81 -11 -48 -15 -53 -43 -58 -32 -5
-162 5 -169 13 -2 3 -25 81 -50 175 -48 174 -59 195 -104 195 -37 0 -49 -38
-30 -92 9 -23 30 -96 47 -161 28 -105 30 -120 16 -130 -8 -7 -20 -25 -26 -41
-15 -39 9 -76 49 -76 25 0 29 -5 33 -32 3 -17 -1 -42 -8 -56 -33 -64 59 -121
104 -64 14 18 15 80 3 134 l-9 37 93 -2 93 -1 5 -33 c24 -145 210 -166 302
-33 l28 40 19 -32 c37 -62 110 -127 161 -144 60 -20 106 -14 159 21 33 22 46
25 82 20 72 -11 163 42 203 119 l16 30 18 -36 c60 -117 183 -141 302 -58 l60
41 104 -103 c85 -85 103 -108 103 -133 0 -42 13 -57 46 -57 34 0 54 25 54 70
0 49 -12 66 -132 189 l-110 112 21 33 c105 160 120 298 31 298 -36 0 -52 -26
-44 -68 4 -22 -2 -47 -21 -89 -27 -57 -28 -57 -36 -30 -11 39 -28 57 -54 57
-46 0 -49 -16 -33 -175 3 -26 -3 -34 -46 -62 -61 -41 -98 -43 -136 -5 -36 36
-73 151 -64 199 4 21 2 39 -6 48 -34 41 16 420 61 461 25 23 25 70 0 84 -31
16 -56 12 -79 -12z"/>
<path d="M1674 12666 c-42 -19 -102 -73 -130 -118 -32 -50 -31 -98 2 -138 33
-38 54 -49 183 -94 106 -37 193 -79 212 -103 30 -35 -179 -68 -279 -43 -43 10
-52 16 -52 34 0 29 -18 46 -51 46 -30 0 -44 -14 -54 -52 -10 -41 20 -83 79
-110 44 -19 68 -22 171 -22 85 0 137 5 177 17 71 21 118 66 118 110 0 82 -90
150 -283 216 -69 24 -132 49 -138 57 -25 31 73 121 119 109 47 -12 84 55 47
85 -22 18 -87 22 -121 6z"/>
<path d="M13816 12408 c-37 -33 -56 -120 -63 -290 l-6 -147 -24 16 c-54 35
-166 -12 -259 -108 -77 -81 -106 -151 -107 -261 0 -59 -4 -78 -14 -78 -69 0
-121 136 -109 284 4 45 7 90 7 100 0 39 -56 49 -86 16 -11 -12 -25 -18 -34
-15 -41 16 -126 23 -178 15 -83 -14 -193 -71 -242 -126 -114 -130 -86 -308 56
-355 89 -29 185 11 301 128 46 46 84 77 87 70 2 -6 11 -35 20 -63 20 -64 74
-129 121 -144 20 -7 54 -9 77 -6 38 6 45 3 70 -24 91 -96 245 -39 342 126 l18
32 24 -48 c28 -57 78 -89 110 -72 33 18 35 49 4 85 -38 44 -54 98 -57 192 -1
44 -7 96 -13 115 -12 37 -15 290 -5 353 5 29 11 37 28 37 32 0 46 19 46 62 0
68 -37 128 -79 128 -5 0 -21 -10 -35 -22z m-85 -554 l29 6 0 -62 c0 -53 -6
-75 -40 -144 -44 -88 -114 -168 -156 -178 -17 -5 -35 -1 -51 9 l-24 16 25 29
c38 45 8 102 -45 85 -18 -6 -19 -3 -13 37 4 24 14 58 21 77 20 47 101 131 147
152 l39 17 20 -25 c16 -20 26 -24 48 -19z m-643 -25 l22 -9 -31 -50 c-73 -119
-196 -220 -267 -220 -46 0 -82 38 -82 85 0 140 206 251 358 194z"/>
<path d="M14600 12018 c-11 -12 -20 -26 -20 -32 0 -6 -7 0 -16 12 -17 24 -68
30 -81 10 -4 -7 -6 -58 -4 -113 3 -119 -17 -218 -64 -320 -91 -196 -162 -156
-173 98 -3 80 -1 117 6 117 24 0 33 38 18 74 -23 55 -79 57 -108 3 -17 -32
-23 -223 -9 -303 26 -145 76 -214 158 -214 99 0 169 83 239 280 4 11 8 8 17
-9 7 -13 24 -33 39 -44 32 -24 63 -18 107 18 l30 26 41 -27 c57 -38 139 -44
204 -15 26 11 62 20 80 19 18 -1 38 2 44 6 7 4 21 39 33 77 12 39 32 83 45 99
l24 28 52 -34 c29 -20 64 -38 79 -41 24 -5 28 -11 38 -64 34 -197 253 -263
433 -130 38 28 43 30 51 14 36 -68 128 -126 236 -149 99 -21 157 -19 174 7 17
24 11 56 -12 68 -9 5 -46 11 -82 14 -91 8 -171 40 -209 84 l-32 35 69 39 c102
56 182 156 183 227 0 30 -25 78 -45 86 -32 12 -96 6 -133 -13 -51 -26 -129
-112 -154 -169 -50 -116 -59 -130 -113 -168 -120 -82 -244 -48 -270 74 -6 29
-5 32 19 32 38 0 73 16 78 37 8 33 -3 53 -34 61 l-31 8 32 36 c40 45 109 75
139 59 33 -18 70 -13 82 9 25 47 -26 94 -100 94 -92 -1 -203 -76 -247 -169
-20 -42 -31 -41 -118 17 -49 33 -66 39 -94 34 -44 -7 -95 -56 -129 -123 -49
-96 -168 -150 -232 -106 -45 31 -49 43 -33 88 9 22 16 70 17 106 1 53 -3 71
-18 88 -29 31 -82 25 -110 -12 -18 -25 -21 -43 -21 -137 0 -71 -4 -113 -12
-121 -21 -21 -26 34 -15 142 7 65 16 107 26 118 19 21 21 62 4 79 -19 19 -55
14 -78 -10z m1475 -175 c-10 -16 -27 -38 -38 -51 -21 -23 -87 -66 -87 -56 0
32 96 134 126 134 15 0 15 -3 -1 -27z"/>
<path d="M2810 11981 c-11 -21 -3 -165 11 -192 5 -10 1 -21 -12 -32 -23 -20
-23 -28 -4 -92 23 -73 35 -176 37 -290 0 -55 4 -110 9 -121 15 -42 83 -35 95
10 17 69 -38 474 -68 492 -5 3 0 13 12 21 21 15 22 22 18 103 -2 53 -9 95 -17
104 -19 23 -68 21 -81 -3z"/>
<path d="M6062 11944 c-23 -16 -30 -62 -12 -80 6 -6 20 -64 31 -130 51 -302
115 -490 178 -524 60 -32 122 5 151 89 22 67 15 95 -27 99 -34 3 -48 -9 -66
-63 l-13 -38 -24 54 c-36 85 -58 170 -95 372 -37 197 -44 221 -71 231 -22 9
-27 8 -52 -10z"/>
<path d="M3798 11885 c-18 -40 1 -117 32 -132 24 -11 70 -105 115 -232 19 -56
19 -61 -3 -61 -25 0 -52 -31 -52 -59 0 -12 7 -37 14 -56 12 -29 20 -35 45 -35
16 0 33 5 37 11 5 8 10 6 16 -5 6 -10 8 -18 6 -19 -58 -30 -62 -61 -15 -111
39 -41 74 -47 101 -17 14 16 17 34 14 89 l-3 70 67 4 c40 3 79 13 100 25 l33
19 20 -30 c28 -41 82 -76 117 -76 39 0 85 24 134 72 l41 40 34 -42 c87 -109
111 -130 144 -130 46 0 82 40 69 78 -7 21 -17 28 -42 30 -25 3 -38 13 -61 46
-54 78 -101 116 -143 116 -32 0 -47 -9 -98 -55 -33 -30 -66 -55 -74 -55 -29 0
-46 42 -46 112 0 40 4 68 10 68 6 0 15 11 22 25 17 38 -13 77 -55 73 -27 -2
-36 -11 -54 -48 -13 -24 -23 -63 -23 -85 0 -34 -3 -41 -21 -42 -12 -1 -29 -9
-39 -18 -22 -20 -86 -30 -132 -21 -32 6 -34 10 -66 108 -36 109 -132 320 -159
350 -25 27 -71 23 -85 -7z"/>
<path d="M5845 11691 c-59 -25 -78 -95 -50 -197 14 -52 15 -67 5 -80 -26 -30
-74 -58 -124 -70 -28 -6 -59 -15 -68 -19 -16 -6 -18 -1 -18 38 0 84 -40 147
-93 147 -34 0 -102 -63 -112 -103 -5 -19 -11 -22 -40 -19 -29 4 -36 0 -46 -22
-9 -19 -9 -32 -1 -49 6 -12 13 -42 16 -67 7 -67 48 -92 93 -58 6 5 23 44 38
86 37 112 42 116 50 37 11 -102 56 -138 114 -92 7 6 18 12 25 13 115 18 184
48 225 98 10 11 24 14 55 10 36 -5 47 -2 74 21 38 32 90 136 98 197 7 51 -9
71 -53 66 -22 -2 -30 -10 -39 -37 l-11 -34 -6 41 c-5 28 -16 48 -38 66 -17 14
-34 26 -39 26 -5 0 -14 2 -22 4 -7 3 -22 1 -33 -3z"/>
<path d="M3019 11657 c-8 -18 -6 -38 6 -83 8 -32 18 -117 22 -188 5 -107 9
-132 25 -148 10 -10 25 -18 33 -18 26 0 60 45 79 107 27 87 74 185 85 179 5
-4 22 -43 37 -89 53 -162 97 -219 172 -221 29 -1 38 4 48 23 16 32 2 59 -37
73 -34 12 -47 34 -79 133 -46 140 -96 202 -154 191 -36 -8 -72 -39 -95 -84
l-17 -33 -18 76 c-10 41 -24 82 -33 90 -23 23 -62 19 -74 -8z"/>
<path d="M5080 11500 c-15 -16 -36 -56 -46 -88 l-19 -59 -16 37 c-22 49 -64
81 -92 71 -43 -16 -43 -34 0 -122 23 -46 48 -110 57 -141 17 -61 44 -89 77
-81 27 7 49 42 49 76 0 41 30 178 45 207 l13 25 11 -29 c7 -16 18 -69 25 -119
10 -70 18 -95 35 -108 26 -21 57 -14 78 18 14 21 14 27 0 61 -8 20 -18 59 -21
86 -9 74 -26 121 -58 160 -25 30 -36 36 -70 36 -31 0 -46 -6 -68 -30z"/>
<path d="M12678 10910 c-9 -6 -26 -26 -38 -45 -27 -43 -21 -82 14 -91 23 -5
23 -8 29 -172 4 -142 3 -170 -10 -184 -19 -21 -12 -102 11 -127 7 -9 16 -50
19 -93 10 -115 31 -147 85 -127 27 10 37 46 23 83 -6 15 -11 52 -11 82 l0 55
31 -16 c76 -40 208 -20 236 35 l13 25 0 -32 c0 -117 112 -174 206 -104 21 15
50 40 63 55 14 14 30 26 37 26 7 0 32 -33 55 -72 82 -141 100 -166 129 -178
25 -10 34 -10 55 4 33 22 49 56 75 157 24 92 58 179 71 179 12 0 42 -47 83
-128 39 -77 66 -99 110 -88 14 3 33 17 42 31 15 23 15 27 0 50 -9 14 -24 25
-34 25 -11 0 -30 26 -55 75 -49 95 -93 135 -149 135 -63 0 -100 -45 -139 -173
-48 -157 -42 -151 -77 -82 -65 129 -122 180 -185 168 -15 -3 -55 -30 -88 -60
-71 -63 -93 -65 -97 -10 -5 53 22 127 63 175 51 58 44 102 -16 102 -49 0 -127
-115 -145 -213 -6 -36 -7 -37 -21 -18 -16 24 -47 26 -83 6 -36 -21 -65 -18
-131 11 -45 20 -59 32 -59 48 -1 11 -5 119 -9 239 -7 187 -11 221 -26 237 -19
22 -50 25 -77 10z"/>
<path d="M15196 10808 c-8 -13 -19 -72 -25 -133 -19 -184 -47 -271 -123 -382
-30 -45 -101 -93 -135 -93 -22 0 -73 36 -73 51 0 5 20 34 45 64 57 70 74 103
81 159 6 39 3 48 -19 70 -30 30 -47 32 -85 12 -56 -29 -103 -105 -123 -195 -8
-40 -15 -51 -40 -61 -39 -17 -110 -8 -147 19 -16 11 -51 55 -77 96 -63 101
-121 128 -194 91 -41 -22 -108 -99 -138 -161 -25 -51 -28 -54 -45 -39 -21 20
-67 21 -79 3 -12 -20 -11 -53 3 -67 6 -6 15 -39 19 -73 8 -69 16 -81 54 -81
36 0 57 24 85 97 51 133 120 235 159 235 9 0 36 -31 62 -74 50 -78 96 -120
156 -142 45 -16 122 -18 158 -4 24 9 31 6 68 -35 75 -81 167 -84 270 -9 56 41
131 151 163 238 11 32 24 54 27 49 4 -6 10 -69 13 -141 6 -111 4 -137 -11
-179 -19 -54 -17 -76 12 -91 52 -27 92 36 100 159 9 125 -44 572 -72 616 -21
31 -69 31 -89 1z"/>
<path d="M2985 10598 c-150 -54 -348 -341 -385 -558 -14 -89 3 -160 43 -174
23 -8 31 -6 49 11 19 20 20 25 9 66 -11 37 -10 55 3 108 40 156 174 366 274
430 55 35 72 36 99 7 57 -63 95 -191 144 -490 17 -106 35 -200 40 -209 13 -25
46 -29 71 -9 l23 18 -38 226 c-53 318 -92 445 -161 524 -50 56 -106 73 -171
50z"/>
<path d="M2842 10053 c-28 -53 -19 -618 13 -872 86 -684 388 -1118 1101 -1584
169 -111 590 -362 771 -461 335 -183 609 -283 803 -293 129 -6 209 15 224 60
8 23 6 31 -12 49 -21 22 -22 22 -69 5 -165 -59 -476 36 -918 278 -366 201
-774 456 -1005 628 -165 123 -387 342 -482 477 -169 237 -268 506 -313 845
-19 148 -38 626 -29 757 5 72 3 102 -6 113 -17 21 -67 19 -78 -2z"/>
<path d="M12753 9229 c-26 -10 -34 -36 -73 -228 -37 -186 -64 -270 -129 -399
-212 -419 -679 -756 -1303 -937 -504 -147 -1018 -183 -2163 -152 -378 11 -554
12 -562 5 -18 -14 -16 -63 2 -78 21 -18 1024 -43 1435 -36 603 10 1016 67
1419 198 418 135 749 332 1006 600 209 217 326 443 385 738 11 58 23 116 26
130 l6 25 10 -25 c22 -59 142 -453 173 -574 115 -442 167 -904 231 -2061 21
-378 24 -1032 6 -1240 -28 -310 -85 -591 -196 -957 -36 -120 -66 -226 -66
-237 0 -38 67 -61 86 -30 13 21 118 377 158 534 137 537 162 1006 106 2030
-72 1336 -138 1763 -382 2500 -47 142 -56 161 -83 175 -42 23 -67 28 -92 19z"/>
<path d="M5815 8507 c-47 -47 -59 -116 -52 -292 3 -77 17 -222 31 -322 l27
-182 -52 -50 -52 -50 5 -64 c3 -35 12 -77 19 -93 17 -36 57 -43 82 -16 15 17
16 25 6 69 -11 45 -7 94 6 81 3 -2 12 -55 21 -117 15 -103 15 -113 0 -130 -29
-32 -18 -74 25 -96 37 -20 45 -19 69 5 25 25 26 92 5 230 -24 158 -29 148 68
152 45 2 89 7 98 12 14 6 19 -2 29 -44 13 -54 39 -81 71 -73 27 7 42 39 36 77
-7 47 -50 152 -72 176 -28 30 -66 23 -85 -17 -15 -31 -16 -31 -95 -35 -44 -2
-82 -2 -83 -1 -2 1 -15 77 -29 170 -42 291 -42 544 0 543 21 -1 68 -49 91 -93
26 -49 61 -60 90 -28 16 17 17 25 7 53 -32 90 -121 168 -194 168 -31 0 -46 -7
-72 -33z"/>
<path d="M6750 8505 c-14 -16 -7 -103 10 -133 9 -16 119 -350 173 -529 25 -82
25 -82 4 -85 -14 -2 -25 -16 -34 -45 -16 -46 -54 -93 -77 -93 -23 0 -53 38
-60 75 -8 41 21 122 37 106 16 -16 43 -13 61 5 23 23 21 89 -4 114 -56 56
-143 -7 -181 -131 -21 -68 -21 -74 -6 -128 9 -30 14 -57 13 -59 -2 -1 -18 20
-36 48 -43 68 -123 138 -166 146 -39 7 -88 -10 -108 -37 -12 -17 -15 -15 -41
34 -44 80 -134 219 -163 250 -40 42 -102 33 -102 -16 0 -27 50 -189 63 -205 7
-9 23 -12 43 -9 30 5 33 3 78 -79 43 -76 57 -90 89 -85 4 0 7 -11 7 -27 0 -45
20 -101 41 -116 44 -31 89 11 70 66 -13 38 -14 128 -2 128 19 0 73 -54 112
-111 21 -32 49 -65 61 -73 31 -22 78 -20 104 5 18 17 26 19 42 10 54 -29 138
6 182 75 l28 45 12 -35 c6 -20 20 -42 31 -50 43 -30 90 12 70 62 -6 15 -29 90
-51 167 -43 146 -205 663 -221 703 -10 26 -59 31 -79 7z"/>
<path d="M8641 7768 c-258 -37 -397 -186 -320 -344 44 -93 200 -204 347 -251
91 -28 124 -24 135 16 8 31 -21 57 -78 71 -67 16 -194 83 -250 132 -51 45 -75
84 -75 122 0 37 52 90 112 116 67 29 196 51 252 44 36 -5 47 -3 65 15 26 26
27 45 1 71 -22 22 -75 25 -189 8z"/>
<path d="M7523 7490 c-48 -11 -64 -29 -61 -63 4 -42 28 -55 72 -39 30 11 40
11 65 -2 58 -30 75 -80 46 -136 -21 -40 -74 -69 -145 -81 -34 -5 -93 -25 -131
-44 -86 -44 -115 -45 -124 -6 -7 33 2 77 21 106 19 27 17 49 -6 70 -50 45
-110 -30 -113 -141 -1 -30 -5 -54 -9 -54 -5 0 -20 -14 -35 -30 -21 -24 -34
-30 -58 -28 -24 2 -29 7 -27 23 12 74 13 149 2 175 -24 58 -99 87 -151 60 -55
-30 -62 -134 -14 -217 21 -35 24 -47 15 -59 -19 -22 -92 -18 -124 7 -16 13
-36 19 -50 17 -20 -4 -27 3 -50 54 -36 77 -86 113 -150 106 -79 -9 -144 -77
-190 -199 -15 -42 -25 -56 -29 -45 -7 19 -57 22 -75 4 -19 -19 -15 -50 18
-140 41 -112 68 -131 115 -83 17 16 25 35 25 57 0 86 70 264 115 294 47 31 74
1 109 -120 28 -97 90 -133 119 -69 7 16 15 22 26 17 9 -4 43 -9 77 -12 63 -4
106 9 133 42 12 14 16 14 42 1 15 -8 51 -15 78 -15 44 0 56 5 91 36 36 33 43
36 66 25 46 -21 103 -13 177 25 39 20 97 40 130 45 174 28 277 165 222 297
-37 87 -137 143 -222 122z m-596 -312 c-3 -7 -5 -2 -5 12 0 14 2 19 5 13 2 -7
2 -19 0 -25z"/>
<path d="M8811 6963 c-25 -27 -28 -27 -44 -10 -25 25 -70 21 -107 -9 -41 -35
-73 -99 -66 -134 7 -36 -28 -55 -61 -33 -39 26 -94 -22 -96 -84 -2 -35 -5 -39
-38 -47 -56 -14 -88 -1 -106 42 -14 34 -14 40 3 72 17 32 24 35 66 38 36 2 51
8 59 24 18 33 -3 66 -47 74 -77 14 -146 -31 -181 -118 -12 -31 -20 -38 -43
-38 -31 0 -85 -34 -112 -71 -11 -14 -22 -44 -25 -67 -3 -23 -8 -42 -10 -42 -2
0 -24 14 -48 30 -72 50 -106 38 -140 -47 -19 -48 -30 -54 -39 -20 -11 43 -6
63 25 90 24 20 29 32 24 49 -18 59 -86 64 -122 9 -13 -19 -23 -45 -23 -57 0
-28 -3 -29 -36 -7 -25 16 -107 35 -151 35 -69 0 -155 -136 -156 -245 l0 -38
-31 29 c-17 17 -50 39 -73 51 -51 25 -59 37 -39 57 33 32 8 84 -41 84 -36 0
-93 -60 -93 -97 0 -34 62 -100 126 -131 53 -27 69 -46 51 -60 -28 -23 -88 -42
-135 -42 -55 0 -72 -12 -72 -52 0 -39 30 -52 105 -46 112 9 215 76 215 140 l0
30 35 -30 c67 -59 153 -52 230 20 24 22 54 60 66 84 l21 45 22 -20 c51 -47
110 -35 157 33 l32 44 39 -25 c22 -13 56 -27 74 -30 51 -8 70 14 79 92 4 38
13 72 23 83 22 24 72 46 72 31 0 -23 43 -70 83 -90 58 -30 139 -23 204 17 26
16 53 40 59 53 7 13 41 39 76 58 34 20 74 41 88 49 14 8 30 14 37 14 23 0 42
41 32 68 l-10 26 24 -26 c15 -16 49 -34 83 -44 33 -9 63 -20 68 -25 15 -14
-42 -66 -108 -100 -53 -26 -70 -29 -134 -28 -79 2 -92 -5 -92 -48 0 -39 40
-56 127 -52 91 5 163 35 237 100 112 99 102 199 -22 235 -31 9 -58 18 -60 19
-2 2 6 13 17 24 26 26 27 45 1 71 -28 28 -66 25 -99 -7z m-1213 -467 c7 -58
-46 -130 -105 -142 -26 -5 -34 -2 -47 19 -15 23 -15 28 1 78 18 53 19 54 58
56 22 0 41 6 43 13 2 6 14 10 26 8 15 -2 22 -11 24 -32z"/>
<path d="M6760 6524 c-49 -46 -100 -131 -100 -167 0 -10 -5 -27 -10 -38 -9
-16 -15 -17 -31 -8 -16 8 -26 7 -45 -6 -54 -35 -6 -111 66 -102 27 3 43 -3 71
-25 71 -57 209 -44 284 26 29 28 34 37 27 57 -17 44 -36 46 -103 11 -64 -33
-106 -40 -139 -22 -17 9 -15 14 30 56 138 129 158 264 40 264 -35 0 -48 -7
-90 -46z"/>
<path d="M6402 6372 c-68 -53 -36 -247 62 -381 46 -62 85 -80 122 -57 30 21
30 63 -1 80 -11 6 -26 18 -33 26 -25 29 -80 155 -86 202 l-7 47 33 3 c42 4 65
42 44 73 -18 28 -102 32 -134 7z"/>
<path d="M12809 4613 c-32 -37 -20 -480 17 -656 39 -189 124 -266 242 -222 85
32 243 213 314 359 18 38 20 49 10 71 -10 22 -18 26 -44 23 -27 -3 -36 -11
-57 -53 -69 -132 -209 -297 -264 -310 -54 -14 -85 41 -113 200 -20 115 -32
509 -15 519 15 9 14 59 -1 74 -17 17 -73 15 -89 -5z"/>
<path d="M11592 3650 c-57 -35 -84 -111 -90 -249 -5 -127 7 -248 64 -630 31
-209 33 -235 19 -245 -20 -15 -44 -83 -37 -109 3 -10 20 -26 38 -33 39 -17 42
-24 13 -42 -46 -29 8 -112 65 -98 39 10 50 41 48 136 l-2 86 69 17 c110 29
201 103 201 164 0 44 -57 59 -88 22 -33 -42 -64 -64 -110 -81 -92 -33 -83 -51
-125 245 -53 376 -60 446 -55 566 7 171 45 209 142 142 72 -50 118 -122 156
-249 19 -63 21 -87 17 -195 -3 -67 -9 -136 -12 -154 -6 -26 -3 -34 19 -48 23
-16 28 -16 49 -2 32 21 47 94 47 226 0 186 -57 347 -160 451 -93 95 -194 125
-268 80z"/>
<path d="M12908 3429 c-22 -12 -23 -45 -4 -91 8 -18 33 -140 55 -271 76 -440
115 -567 176 -567 44 0 57 31 76 186 23 178 37 259 53 297 11 29 13 27 95
-134 94 -184 104 -199 137 -199 33 0 54 36 54 95 0 55 -12 75 -44 75 -17 0
-35 27 -85 125 -66 129 -112 185 -154 185 -67 0 -101 -78 -142 -324 -3 -21 -8
-36 -10 -35 -1 2 -19 96 -39 209 -61 348 -66 371 -86 410 -24 48 -48 59 -82
39z"/>
<path d="M13552 3403 c-31 -12 -34 -43 -8 -96 17 -33 52 -169 97 -377 75 -338
84 -365 129 -353 38 10 42 27 30 105 -11 67 -11 77 8 120 31 70 110 111 243
126 54 6 65 11 76 32 18 36 -3 64 -52 68 -83 7 -243 -46 -302 -100 -26 -24
-21 -36 -63 157 -60 275 -94 344 -158 318z"/>
<path d="M12128 3196 c-24 -18 -37 -57 -28 -82 12 -32 60 -65 88 -62 14 2 31
12 38 23 11 17 11 25 0 47 -8 15 -12 29 -9 32 3 3 -2 17 -11 31 -18 27 -51 32
-78 11z"/>
<path d="M12475 3051 c-73 -33 -185 -182 -204 -270 -27 -127 53 -185 188 -137
68 25 112 21 160 -14 98 -71 203 -263 205 -373 1 -53 -2 -61 -27 -83 -100 -85
-284 54 -312 236 -9 56 -20 70 -56 70 -42 0 -52 -27 -39 -103 16 -88 56 -163
121 -228 157 -157 379 -123 413 63 21 118 -87 357 -213 471 -88 79 -158 94
-284 58 -37 -11 -67 -16 -67 -12 0 38 78 170 127 214 18 16 22 16 33 2 19 -23
57 -18 75 9 14 22 14 27 -1 59 -14 30 -49 57 -72 57 -4 0 -25 -9 -47 -19z"/>
<path d="M12023 2748 c-19 -24 -20 -43 -5 -73 8 -16 20 -50 27 -75 14 -54 47
-78 80 -56 30 20 30 69 0 134 -28 60 -48 82 -76 82 -9 0 -21 -6 -26 -12z"/>
<path d="M14979 2644 c-7 -8 -12 -30 -12 -47 1 -48 28 -213 61 -387 31 -156
50 -303 55 -415 2 -52 5 -61 27 -72 20 -10 29 -10 45 1 40 27 30 198 -30 507
-19 98 -39 224 -44 282 -5 57 -14 114 -20 126 -14 25 -62 29 -82 5z"/>
<path d="M13533 2249 c-33 -12 -43 -41 -43 -117 0 -67 29 -260 50 -331 24 -83
-39 -421 -93 -502 -49 -73 -72 -17 -42 102 26 103 28 118 15 134 -21 26 -68
19 -84 -12 -19 -38 -46 -163 -46 -213 0 -86 51 -150 121 -150 80 0 149 100
190 278 l22 93 27 -65 c35 -82 67 -133 90 -146 31 -16 65 -11 87 13 26 28 41
111 23 132 -15 18 -61 20 -77 4 -14 -14 -28 16 -84 181 -28 83 -39 132 -39
176 0 46 -4 65 -18 78 -13 11 -23 43 -31 100 -12 81 -12 85 8 105 26 26 26 44
2 97 -20 43 -43 56 -78 43z"/>
<path d="M13940 2220 c-14 -14 -20 -33 -20 -63 0 -70 40 -101 84 -66 48 38 26
149 -29 149 -8 0 -24 -9 -35 -20z"/>
<path d="M14582 2046 c-127 -61 -240 -226 -250 -367 -4 -65 -6 -69 -28 -69
-19 0 -29 10 -46 45 -26 53 -58 67 -88 40 -26 -23 -25 -33 4 -99 30 -66 65
-89 137 -85 46 3 50 1 78 -38 51 -70 138 -124 232 -144 108 -23 205 24 256
124 35 69 42 98 32 125 -7 19 -15 23 -41 20 -30 -3 -36 -10 -68 -73 -28 -56
-43 -74 -74 -89 -34 -17 -44 -17 -92 -7 -64 15 -141 64 -166 107 l-18 30 71
59 c164 134 269 349 203 415 -32 33 -81 35 -142 6z m53 -113 c-26 -64 -104
-171 -157 -215 l-50 -42 7 35 c18 82 86 178 161 228 26 17 49 31 51 31 2 0 -4
-17 -12 -37z"/>
<path d="M13012 2003 c-7 -3 -20 -19 -30 -36 -14 -27 -17 -60 -16 -214 l0
-183 -25 0 c-45 0 -130 -47 -182 -101 -63 -64 -79 -89 -89 -136 -13 -55 -1
-92 41 -134 36 -36 37 -39 19 -49 -31 -17 -47 -2 -95 91 -53 103 -77 129 -118
129 -30 0 -35 -4 -141 -121 -51 -56 -66 -55 -46 5 8 27 15 33 31 29 23 -6 59
22 59 47 0 20 -37 55 -67 64 -63 19 -126 -71 -127 -182 -1 -59 1 -66 27 -86
60 -45 144 -16 220 78 l43 52 31 -66 c56 -118 119 -161 200 -138 45 12 95 60
87 82 -5 13 1 16 32 16 46 0 106 26 150 63 l32 27 26 -55 c49 -98 119 -125
170 -64 47 56 28 103 -40 97 l-37 -3 -25 68 -25 68 16 87 c10 48 17 121 17
163 0 86 -11 104 -60 97 l-30 -5 0 83 c0 73 2 85 20 94 46 25 4 145 -48 139
-4 0 -13 -3 -20 -6z m-50 -548 c51 -21 58 -64 21 -124 -33 -53 -82 -81 -140
-81 -53 0 -88 29 -77 63 10 32 69 98 116 130 48 32 38 30 80 12z"/>
<path d="M11655 1810 c-19 -21 -23 11 59 -538 7 -46 9 -85 4 -88 -4 -3 -8 -21
-8 -39 0 -92 184 -195 348 -195 66 0 104 14 137 50 64 71 -33 294 -168 385
-43 29 -61 35 -104 35 -44 0 -58 -5 -88 -31 -19 -17 -35 -26 -35 -19 0 6 -14
105 -31 218 -32 208 -43 242 -79 242 -9 0 -25 -9 -35 -20z m321 -511 c62 -38
155 -195 140 -235 -11 -29 -138 -14 -222 25 -62 30 -67 34 -46 42 27 10 34 65
10 80 -10 6 12 71 33 96 16 19 47 16 85 -8z"/>
<path d="M13956 1744 c-29 -29 -18 -290 16 -377 22 -56 76 -59 104 -5 24 47
16 164 -14 188 -19 16 -22 28 -22 98 0 85 -12 112 -50 112 -10 0 -26 -7 -34
-16z"/>
<path d="M15257 1551 c-8 -23 -16 -29 -29 -25 -19 6 -58 -28 -58 -51 0 -25 70
-95 95 -95 32 0 62 41 76 107 15 66 6 87 -40 91 -28 3 -34 -1 -44 -27z"/>
</g>
</svg>
