<?xml version="1.0" standalone="no"?>
<!DOCTYPE svg PUBLIC "-//W3C//DTD SVG 20010904//EN"
 "http://www.w3.org/TR/2001/REC-SVG-20010904/DTD/svg10.dtd">
<svg version="1.0" xmlns="http://www.w3.org/2000/svg"
 width="3121.000000pt" height="1021.000000pt" viewBox="0 0 3121.000000 1021.000000"
 preserveAspectRatio="xMidYMid meet">

<g transform="translate(0.000000,1021.000000) scale(0.100000,-0.100000)"
fill="#000000" stroke="none">
<path d="M15845 8524 c-5392 -26 -7576 -44 -8460 -69 -275 -8 -614 -15 -753
-15 -239 0 -253 -1 -272 -20 -23 -23 -24 -33 -10 -61 10 -18 24 -19 273 -19
144 0 487 7 762 15 1761 50 11197 89 13900 57 1169 -14 2014 -27 3185 -47 990
-17 2411 -42 3165 -54 306 -5 547 -5 556 0 25 13 29 46 10 70 -16 20 -27 21
-561 30 -843 14 -2250 38 -3165 54 -2439 43 -3639 55 -6020 58 -1116 2 -2291
3 -2610 1z"/>
<path d="M7235 5543 c-421 -17 -445 -21 -445 -72 0 -45 38 -68 88 -53 57 18
869 45 1152 39 217 -4 257 -8 353 -31 60 -14 134 -37 165 -51 l55 -25 -26 -28
c-33 -34 -36 -77 -7 -92 30 -16 55 -5 95 42 99 116 -1 200 -315 264 -117 24
-614 27 -1115 7z"/>
<path d="M6575 5530 c-32 -35 -35 -120 -19 -485 8 -192 14 -401 12 -462 -1
-74 2 -117 9 -124 19 -19 65 -13 84 10 19 24 59 123 59 147 0 12 4 13 21 3 34
-18 1018 -6 1219 15 285 29 513 71 661 121 112 38 124 57 94 142 -13 38 -13
55 2 158 20 131 15 148 -36 153 -27 3 -33 -1 -45 -30 -8 -18 -23 -93 -35 -167
-12 -73 -24 -138 -27 -143 -3 -5 -26 -6 -50 -2 -48 7 -74 -6 -74 -37 0 -21 -3
-22 -140 -48 -324 -61 -786 -80 -1499 -62 -45 1 -85 -19 -89 -45 -3 -19 -6
-20 -27 -10 -14 6 -25 20 -25 31 0 11 -7 174 -15 363 -15 337 -14 368 7 425
21 54 -48 91 -87 47z"/>
<path d="M20377 5278 c-13 -24 -55 -104 -92 -178 -37 -74 -69 -137 -71 -139
-2 -3 -10 3 -17 13 -9 12 -23 17 -41 14 -25 -3 -35 -15 -72 -86 -88 -171 -242
-391 -708 -1017 -470 -629 -639 -894 -654 -1020 -4 -41 -2 -45 23 -57 39 -18
55 -3 90 88 64 164 183 341 622 931 328 440 451 609 543 748 85 128 84 122 -5
-70 -205 -443 -479 -1181 -625 -1685 l-42 -145 -120 -130 c-187 -202 -338
-389 -338 -419 0 -29 31 -50 60 -41 11 3 69 66 129 138 60 73 132 157 159 187
l51 55 -20 -75 c-175 -643 -316 -1052 -475 -1376 -35 -73 -64 -139 -64 -148 0
-20 43 -48 63 -40 27 10 64 75 128 219 157 359 258 654 408 1190 56 199 101
364 101 368 0 4 57 70 126 145 150 162 198 230 198 278 0 54 -41 76 -100 54
-24 -10 -26 -14 -21 -50 5 -37 1 -44 -60 -115 -36 -42 -67 -75 -69 -73 -4 5
107 354 173 543 192 551 390 1017 660 1555 90 178 163 331 163 340 0 24 -21
40 -51 40 -21 0 -32 -9 -52 -42z"/>
<path d="M7015 5220 c-22 -10 -52 -21 -67 -24 -42 -9 -61 -34 -53 -70 3 -17 9
-51 12 -76 6 -51 15 -66 44 -73 31 -8 76 39 98 101 13 38 27 59 50 73 33 20
38 37 21 70 -13 24 -52 24 -105 -1z"/>
<path d="M7292 5188 c-16 -16 -15 -60 3 -84 8 -11 14 -42 15 -76 0 -69 15
-104 45 -112 32 -8 55 2 66 31 7 20 12 22 28 13 48 -25 129 7 145 58 5 14 19
17 78 17 48 0 83 6 103 17 28 15 30 15 52 -8 30 -33 81 -31 186 6 98 35 97 34
97 17 0 -8 10 -23 23 -35 32 -30 78 -28 225 10 98 25 127 36 139 55 14 21 14
25 -2 49 -15 23 -21 25 -58 20 -23 -4 -78 -18 -122 -31 -101 -31 -111 -31
-127 2 -26 54 -55 58 -170 20 l-103 -34 -10 30 c-16 48 -42 50 -126 11 -80
-36 -104 -40 -143 -23 -29 14 -75 4 -83 -16 -11 -30 -62 -77 -75 -69 -34 19
-55 47 -51 65 13 47 -99 103 -135 67z"/>
<path d="M8920 4404 c-71 -31 -134 -114 -175 -232 -30 -86 -32 -136 -5 -179
19 -31 35 -39 92 -45 l27 -3 -37 -52 c-20 -29 -71 -92 -112 -140 -41 -48 -85
-100 -96 -116 -21 -25 -30 -28 -159 -42 -75 -9 -146 -20 -156 -26 -22 -11 -26
-58 -7 -77 15 -15 170 -16 185 -1 6 6 19 9 29 7 13 -2 -31 -44 -148 -141 -92
-77 -170 -139 -175 -139 -4 0 -15 -5 -23 -11 -8 -7 -26 -18 -40 -26 -41 -23
-370 -291 -370 -301 0 -6 -17 -10 -39 -10 -43 0 -58 -13 -67 -56 -4 -19 -22
-41 -50 -63 -24 -18 -44 -37 -44 -41 0 -5 -38 -39 -85 -76 -47 -37 -85 -71
-85 -75 0 -4 -14 -17 -31 -29 -30 -22 -30 -22 -52 -3 -36 32 -45 35 -72 17
-30 -20 -32 -43 -5 -77 l20 -25 -25 -20 c-14 -11 -25 -24 -25 -28 -1 -5 -33
-34 -72 -64 -96 -74 -198 -173 -198 -192 0 -8 -17 -22 -37 -30 -99 -41 -429
-202 -439 -214 -14 -18 -293 -19 -947 -3 -427 10 -469 10 -492 -5 -19 -13 -25
-25 -25 -54 0 -21 5 -43 12 -50 17 -17 53 -15 68 3 14 16 145 21 273 8 62 -5
67 -8 67 -29 0 -20 13 -96 68 -408 l5 -29 -194 6 c-107 4 -241 12 -299 17
-102 11 -105 11 -122 -10 -22 -27 -22 -33 0 -59 30 -36 163 -43 904 -48 587
-4 686 -7 681 -19 -20 -52 37 -90 86 -57 14 10 91 50 171 89 80 40 192 99 250
132 85 49 107 58 122 49 13 -8 27 -8 53 2 40 14 54 11 30 -9 -35 -29 2 -88 48
-76 13 3 145 131 302 293 392 405 868 883 873 878 3 -2 -3 -74 -13 -160 -9
-86 -15 -158 -12 -161 2 -2 10 17 17 43 22 87 80 297 91 335 8 26 39 62 110
128 55 50 99 97 99 103 0 12 110 123 219 222 46 42 55 46 63 31 5 -9 36 -90
68 -179 93 -261 115 -311 141 -324 34 -17 64 4 64 46 0 23 3 27 11 18 86 -96
185 -219 180 -224 -8 -9 -44 25 -72 70 -19 29 -31 37 -54 37 -31 0 -50 -22
-50 -57 0 -11 38 -62 84 -114 77 -87 83 -98 88 -146 3 -29 13 -64 23 -79 15
-23 22 -26 59 -21 l41 5 90 -106 c85 -100 220 -223 295 -269 33 -20 42 -21
200 -13 125 6 178 12 220 27 82 30 210 97 263 137 26 20 49 36 50 36 2 0 18
-20 36 -45 43 -60 65 -71 97 -50 13 9 24 25 24 38 0 24 -35 87 -47 87 -5 0
-14 9 -21 21 -12 18 -8 27 40 87 29 37 79 102 111 144 83 110 164 182 223 199
73 21 386 18 478 -4 42 -11 75 -25 83 -36 9 -14 29 -20 70 -23 32 -3 101 -17
153 -32 90 -27 108 -29 375 -35 273 -7 282 -8 355 -35 41 -15 82 -30 91 -33 9
-3 20 -18 23 -34 7 -36 96 -132 181 -196 33 -25 148 -89 255 -143 l195 -98
146 -184 c220 -275 419 -485 569 -599 40 -30 44 -37 35 -57 l-10 -22 -195 7
c-220 9 -3295 11 -5055 3 -897 -4 -1165 -2 -1180 7 -19 12 -18 12 8 13 42 0
93 25 100 49 3 12 -2 30 -12 42 -17 21 -21 21 -82 10 -42 -8 -285 -15 -709
-21 -355 -5 -760 -14 -900 -21 -140 -7 -473 -13 -740 -13 -394 -1 -525 2 -700
18 -156 13 -220 22 -232 33 -39 35 -91 -12 -73 -66 10 -34 37 -41 193 -56 410
-39 877 -44 1587 -16 143 6 383 12 533 13 245 3 272 2 272 -13 0 -42 23 -46
305 -58 657 -27 1184 -32 2356 -20 1133 11 4274 6 4437 -7 68 -6 72 -8 72 -30
0 -41 32 -60 146 -87 163 -38 238 -47 474 -57 236 -10 579 -2 1280 31 624 28
1009 35 1095 19 67 -13 69 -12 87 10 l19 23 257 -7 c141 -3 491 -13 777 -21
286 -8 765 -20 1065 -27 720 -16 3280 -16 4010 0 751 17 2117 49 2825 67 563
14 580 15 597 35 19 23 13 56 -12 70 -10 5 -242 3 -591 -5 -701 -18 -2069 -50
-2819 -67 -733 -16 -3290 -16 -4015 0 -1025 24 -3340 91 -3364 98 -10 3 -1 14
25 31 80 53 151 121 323 310 97 107 180 201 185 210 15 27 -10 63 -43 63 -25
0 -49 -22 -167 -152 -76 -84 -172 -187 -214 -229 -73 -74 -155 -137 -165 -127
-3 3 0 52 6 109 16 144 15 1045 -2 1065 -6 8 -22 14 -34 14 -50 0 -50 -2 -51
-474 0 -243 -4 -492 -8 -554 l-8 -114 -35 49 c-61 85 -139 222 -266 468 -104
200 -129 242 -152 250 -23 8 -30 6 -46 -14 -11 -13 -17 -31 -14 -40 5 -15 94
-187 236 -456 35 -66 99 -172 141 -235 78 -118 102 -170 77 -170 -8 0 -230 7
-494 15 -264 8 -544 15 -622 15 -102 0 -143 3 -143 12 0 6 -18 35 -41 65 -36
48 -44 54 -72 51 -20 -2 -35 -11 -42 -25 l-11 -22 -55 30 c-103 56 -217 157
-383 338 -191 208 -316 367 -314 398 2 20 -6 33 -32 52 -19 14 -55 48 -80 76
-115 126 -216 224 -237 230 -35 8 -63 -11 -63 -45 0 -21 10 -37 38 -60 l37
-32 -65 32 c-93 47 -157 89 -222 149 -46 42 -56 57 -56 82 1 42 -32 72 -117
109 l-70 29 47 1 c26 0 67 -5 90 -11 28 -8 74 -9 131 -4 77 6 90 10 104 31 14
22 14 26 -1 49 -15 23 -21 25 -109 24 -50 -1 -213 3 -362 9 -148 6 -381 11
-517 11 -235 1 -252 2 -335 27 -183 53 -449 70 -597 39 -121 -26 -191 -83
-344 -284 -48 -62 -94 -122 -103 -133 -15 -20 -20 -15 -147 136 -73 86 -132
158 -132 160 0 2 11 4 24 4 17 0 66 34 153 109 127 108 314 258 405 322 25 18
48 41 51 51 7 26 -20 60 -47 60 -31 0 -259 -172 -461 -346 -44 -38 -96 -81
-114 -95 -24 -19 -33 -35 -33 -55 l0 -28 -22 26 c-11 14 -95 115 -186 223 -91
109 -164 201 -163 206 6 21 -20 61 -48 73 -20 8 -66 57 -129 137 -89 113 -96
126 -84 144 19 27 17 49 -7 70 -16 16 -25 17 -47 9 -27 -10 -30 -8 -116 109
l-87 119 45 -31 c67 -47 94 -55 122 -36 51 33 17 107 -92 200 -34 28 -130 98
-215 155 -85 57 -175 123 -201 147 -26 23 -52 43 -58 43 -6 0 0 15 14 33 13
17 27 44 31 59 5 18 24 38 56 58 52 34 66 58 50 88 -14 26 -44 33 -76 16 -24
-13 -26 -12 -40 19 -7 18 -17 45 -20 61 -3 16 -23 47 -44 68 -43 43 -80 49
-141 22z m7 -226 c-3 -8 -6 -5 -6 6 -1 11 2 17 5 13 3 -3 4 -12 1 -19z m-88
-105 c10 -19 9 -23 -4 -23 -10 0 -15 9 -15 27 0 29 2 29 19 -4z m236 -314
c106 -29 132 -47 185 -131 43 -66 50 -84 45 -109 -6 -25 -1 -35 33 -69 27 -28
49 -40 68 -40 25 -1 40 -16 110 -113 l82 -112 -27 -31 c-14 -17 -95 -111 -180
-208 l-155 -178 -35 44 c-20 23 -47 54 -61 68 -16 15 -39 63 -59 120 -18 52
-49 117 -68 143 -32 45 -32 48 -11 41 44 -15 72 -10 84 15 18 35 3 55 -63 86
-52 24 -56 27 -38 37 11 6 23 16 27 22 10 15 0 118 -12 130 -18 18 -12 101 9
120 17 16 19 16 25 -1 15 -37 36 -154 42 -233 6 -64 11 -84 27 -95 26 -18 59
-5 71 28 12 33 -15 237 -44 329 -25 83 -46 102 -101 95 -33 -4 -39 -3 -35 10
3 8 6 21 6 29 0 17 21 18 75 3z m-189 -135 c-6 -17 -56 -19 -56 -2 0 6 12 27
28 47 l27 36 3 -33 c2 -19 1 -40 -2 -48z m-136 -171 c6 -23 30 -71 54 -107 28
-41 45 -80 49 -109 6 -44 5 -45 -43 -86 -30 -25 -51 -37 -55 -30 -4 6 -4 13
-1 16 11 11 -16 44 -67 82 -29 21 -72 57 -97 79 l-45 41 29 24 c27 22 32 23
55 11 37 -20 75 -17 97 7 18 19 18 22 2 50 -14 24 -15 34 -6 55 7 15 13 22 15
18 1 -5 7 -28 13 -51z m160 -39 c7 -8 6 -13 -5 -18 -10 -4 -21 7 -36 36 -21
40 -21 42 -3 55 17 13 20 11 27 -23 4 -21 12 -43 17 -50z m-302 -357 c32 -19
32 -20 15 -41 -36 -44 -148 -156 -155 -156 -5 0 -8 15 -8 33 -1 17 -7 57 -14
87 l-13 55 -6 -46 c-7 -51 -19 -65 -158 -189 -40 -36 -89 -82 -109 -102 -28
-30 -40 -36 -63 -31 -29 6 -55 -9 -66 -40 -6 -16 -20 -6 -94 67 -48 47 -91 86
-96 86 -15 0 -22 32 -10 47 9 10 14 11 19 2 22 -34 61 -10 305 194 l247 206
87 -76 c47 -42 101 -85 119 -96z m1167 -97 c59 -74 109 -141 112 -148 3 -6
-14 -45 -37 -85 -62 -106 -241 -377 -249 -376 -9 0 -250 283 -251 294 0 6 13
13 30 18 60 15 73 78 20 101 l-27 11 141 162 c77 89 144 161 148 160 4 -1 55
-63 113 -137z m-1913 -331 l113 -111 -38 -30 c-21 -17 -68 -60 -105 -97 -114
-112 -119 -116 -137 -101 -22 18 -63 -2 -71 -35 -3 -14 -9 -25 -12 -25 -12 0
-90 66 -113 96 -13 18 -27 30 -30 28 -3 -2 -19 15 -35 36 -16 22 -33 40 -38
40 -13 0 77 86 152 144 34 27 62 52 62 57 0 8 121 108 132 109 3 0 57 -50 120
-111z m2432 -296 c157 -188 286 -346 286 -352 0 -27 -161 -120 -276 -159 -48
-16 -89 -21 -197 -23 -76 -1 -142 2 -149 8 -97 73 -188 158 -264 247 -52 60
-94 113 -94 118 0 21 25 1 109 -89 50 -54 128 -131 173 -170 66 -60 87 -73
114 -73 25 0 38 7 50 25 15 23 14 28 -10 80 -24 54 -27 56 -60 54 -38 -4 -52
7 -213 173 l-93 95 81 119 c44 66 110 168 146 228 l66 108 22 -23 c12 -13 151
-178 309 -366z m-2034 324 c0 -2 -10 -12 -22 -23 l-23 -19 19 23 c18 21 26 27
26 19z m-90 -92 c-13 -14 -27 -25 -32 -25 -9 0 42 49 51 50 3 0 -6 -11 -19
-25z m-160 -148 c0 -2 -10 -12 -22 -23 l-23 -19 19 23 c18 21 26 27 26 19z
m-654 -86 c16 -22 31 -38 34 -36 3 2 16 -12 30 -31 14 -18 28 -34 32 -34 3 0
25 -18 47 -40 22 -22 45 -40 51 -40 5 0 10 -4 10 -10 0 -11 -80 -90 -92 -90
-4 0 -8 -7 -8 -15 0 -8 -4 -15 -9 -15 -4 0 -35 -26 -69 -57 -180 -172 -315
-283 -343 -283 -27 0 -44 -37 -30 -66 6 -13 15 -25 21 -25 5 -1 15 -3 20 -4 6
-1 13 -3 18 -4 15 -4 -62 -31 -87 -31 -33 0 -51 -17 -51 -46 0 -19 -24 -36
-137 -98 -137 -75 -138 -75 -154 -54 -20 25 -67 27 -85 3 -8 -10 -31 -19 -58
-22 -42 -5 -46 -3 -55 20 -13 33 -45 43 -76 23 -40 -26 -54 -20 -80 37 -21 46
-34 115 -61 325 l-5 42 110 0 c121 0 141 -4 141 -29 0 -51 59 -54 107 -6 34
34 36 44 19 86 -5 12 13 24 81 53 48 21 129 61 178 89 136 76 218 116 242 117
48 1 69 54 34 89 -19 19 -19 20 27 57 26 21 69 59 95 86 27 26 54 48 61 48 7
0 25 -18 42 -39z m544 -14 c0 -2 -10 -12 -22 -23 l-23 -19 19 23 c18 21 26 27
26 19z m1638 -63 c-10 -10 -28 6 -28 24 0 15 1 15 17 -1 9 -9 14 -19 11 -23z
m-1733 -34 c-16 -16 -31 -28 -33 -25 -4 4 48 54 57 55 3 0 -8 -13 -24 -30z
m-85 -74 c0 -2 -8 -10 -17 -17 -16 -13 -17 -12 -4 4 13 16 21 21 21 13z m-70
-69 c0 -2 -12 -14 -27 -28 l-28 -24 24 28 c23 25 31 32 31 24z m-125 -129
c-36 -40 -134 -137 -217 -215 -113 -107 -157 -143 -176 -143 -30 0 -30 0 58
70 75 60 162 137 298 267 53 51 99 93 100 93 2 0 -26 -33 -63 -72z m-1793
-170 c-14 -14 -16 -64 -3 -72 5 -3 14 -36 20 -73 12 -66 58 -262 68 -289 4
-11 -13 -14 -87 -14 -84 0 -92 2 -97 21 -4 12 -17 22 -35 26 -15 3 -31 9 -33
13 -7 11 -65 350 -65 378 0 22 2 22 122 22 95 0 119 -3 110 -12z m360 -27 c-3
-21 2 -32 17 -43 16 -11 22 -33 31 -104 14 -110 25 -159 49 -224 l19 -50 -108
0 -109 0 11 31 c15 45 -2 79 -41 79 -18 0 -35 -8 -44 -20 -12 -18 -15 -14 -31
48 -9 37 -27 122 -40 190 l-23 122 137 0 137 0 -5 -29z m8328 -1031 c63 -16
106 -29 94 -30 -25 0 -228 36 -269 49 -29 9 -28 9 15 10 25 1 97 -12 160 -29z
m951 0 c190 -6 386 -10 435 -11 160 -1 75 -7 -261 -18 -181 -6 -403 -14 -492
-17 l-163 -6 -9 26 c-7 16 -22 28 -43 34 -23 7 -1 8 77 6 61 -3 266 -9 456
-14z"/>
<path d="M7282 4364 c-28 -19 -28 -44 2 -130 58 -172 105 -234 177 -234 50 0
102 45 185 163 32 47 68 88 79 93 43 19 20 104 -28 104 -32 0 -46 -13 -113
-110 -67 -96 -112 -150 -126 -150 -12 0 -74 134 -90 196 -13 51 -33 84 -52 84
-6 0 -22 -7 -34 -16z"/>
<path d="M3488 4335 c-160 -61 -334 -299 -437 -597 -62 -182 -75 -258 -76
-458 0 -183 12 -363 26 -391 12 -24 44 -29 70 -12 20 15 21 21 15 102 -17 234
-18 388 -2 488 48 305 236 660 400 753 60 35 127 40 184 13 82 -37 241 -224
352 -413 102 -173 534 -1001 607 -1165 183 -410 148 -621 -152 -920 -219 -220
-454 -334 -790 -386 -122 -19 -354 -16 -455 5 -215 45 -413 153 -459 249 -12
26 -26 94 -36 177 -9 74 -37 234 -61 355 -25 121 -63 310 -85 419 -22 110 -42
203 -45 208 -8 12 -58 10 -72 -4 -20 -20 -15 -61 38 -318 92 -445 109 -534
125 -665 21 -164 30 -199 66 -251 63 -93 259 -205 433 -249 378 -96 860 -14
1186 201 141 93 316 266 406 401 98 148 131 298 104 473 -22 143 -79 287 -232
588 -205 405 -368 715 -446 852 -149 262 -298 448 -417 519 -49 30 -67 35
-133 38 -50 2 -90 -2 -114 -12z"/>
<path d="M2530 3673 c-48 -18 -71 -65 -99 -201 -12 -59 -4 -87 29 -97 24 -8
60 11 60 31 0 32 32 154 41 154 15 0 53 -86 118 -263 145 -397 235 -802 306
-1382 19 -154 39 -297 45 -319 15 -50 51 -87 79 -79 38 10 43 36 22 100 -11
34 -30 157 -46 293 -58 515 -149 944 -285 1346 -71 206 -148 374 -183 397 -30
19 -67 28 -87 20z"/>
<path d="M15345 2990 c-439 -22 -837 -52 -1305 -101 -156 -16 -370 -34 -475
-40 -104 -6 -200 -15 -213 -20 -19 -7 -23 -15 -20 -41 2 -17 11 -36 20 -42 21
-13 323 5 643 39 761 80 1450 120 1940 114 252 -4 261 -5 289 -26 35 -28 57
-29 79 -5 22 24 22 65 0 84 -41 36 -91 41 -443 43 -190 2 -421 -1 -515 -5z"/>
<path d="M16787 2993 c-25 -6 -40 -49 -27 -74 6 -10 14 -19 18 -19 4 0 79 -2
167 -5 88 -2 363 -7 610 -10 429 -6 728 -17 849 -31 54 -6 56 -8 56 -36 0 -42
38 -57 82 -31 18 10 39 31 48 46 13 24 13 28 -6 54 -48 66 -178 80 -824 93
-814 16 -954 18 -973 13z"/>
<path d="M12600 2959 c-113 -5 -477 -6 -811 -3 -560 6 -606 5 -622 -10 -20
-21 -22 -59 -4 -75 17 -14 1341 -20 1619 -8 l187 9 3 -33 c4 -49 39 -58 101
-29 85 40 100 102 34 137 -40 21 -211 25 -507 12z"/>
<path d="M18390 2463 c-30 -2 -172 -15 -315 -29 -644 -62 -802 -75 -976 -81
-161 -5 -188 -4 -210 10 -21 14 -31 15 -64 5 -54 -16 -65 -26 -65 -58 0 -53
12 -55 274 -54 242 1 253 2 1036 78 329 32 500 40 575 28 68 -11 100 -3 108
27 17 67 -99 90 -363 74z"/>
<path d="M15175 2360 c-93 -4 -449 -15 -790 -25 -341 -9 -630 -21 -642 -26
-16 -6 -23 -17 -23 -37 0 -46 14 -52 135 -52 118 0 845 22 1369 41 342 13 738
8 954 -11 140 -13 154 -10 165 30 3 11 -2 29 -11 39 -14 16 -40 22 -147 31
-161 14 -780 21 -1010 10z"/>
<path d="M17460 2231 c-14 -27 -13 -38 10 -69 32 -45 67 -280 95 -639 14 -172
14 -206 3 -222 -13 -18 -17 -9 -41 92 -38 161 -49 231 -45 300 3 59 2 61 -26
71 -25 9 -31 7 -53 -19 -25 -28 -25 -33 -19 -115 7 -104 53 -314 96 -440 77
-232 167 -329 277 -298 56 15 148 111 306 318 192 252 290 373 362 450 34 36
64 72 68 81 8 24 -20 59 -47 59 -42 0 -172 -148 -463 -531 -130 -169 -238
-289 -261 -289 -24 0 -65 48 -97 114 -19 40 -35 76 -35 79 0 4 12 4 28 1 20
-4 33 0 46 15 18 19 19 33 12 158 -14 293 -59 683 -93 807 -9 32 -25 67 -37
77 -26 25 -72 25 -86 0z"/>
<path d="M13911 1742 c-15 -29 -14 -39 9 -62 13 -13 33 -20 59 -20 22 0 43 -4
46 -10 10 -16 51 -12 67 8 25 29 28 50 9 73 -15 19 -31 23 -98 27 -74 4 -82 3
-92 -16z"/>
<path d="M24470 889 c-184 -4 -609 -15 -945 -23 -335 -9 -828 -18 -1095 -22
-267 -4 -493 -11 -502 -16 -22 -11 -24 -61 -3 -78 18 -15 597 -9 1585 15 1223
31 1477 35 2266 35 447 0 993 -5 1215 -11 445 -11 1216 -45 1266 -55 26 -5 34
-2 48 19 20 32 7 63 -33 78 -31 13 -709 43 -1282 58 -441 12 -2004 12 -2520 0z"/>
</g>
</svg>
