<?xml version="1.0" encoding="UTF-8"?>
<!DOCTYPE svg PUBLIC "-//W3C//DTD SVG 1.1//EN" "http://www.w3.org/Graphics/SVG/1.1/DTD/svg11.dtd">
<svg xmlns="http://www.w3.org/2000/svg" version="1.1" width="719px" height="694px" style="shape-rendering:geometricPrecision; text-rendering:geometricPrecision; image-rendering:optimizeQuality; fill-rule:evenodd; clip-rule:evenodd" xmlns:xlink="http://www.w3.org/1999/xlink">
<g><path style="opacity:1" fill="#fefefe" d="M -0.5,-0.5 C 239.167,-0.5 478.833,-0.5 718.5,-0.5C 718.5,230.833 718.5,462.167 718.5,693.5C 478.833,693.5 239.167,693.5 -0.5,693.5C -0.5,462.167 -0.5,230.833 -0.5,-0.5 Z"/></g>
<g><path style="opacity:1" fill="#ea177a" d="M 493.5,660.5 C 492.833,660.5 492.5,660.167 492.5,659.5C 578.424,613.335 628.258,541.668 642,444.5C 649.102,350.244 617.602,271.744 547.5,209C 478.657,152.955 399.99,130.955 311.5,143C 231.838,157.054 168.338,196.554 121,261.5C 66.5752,344.162 57.9085,431.496 95,523.5C 121.258,582.366 162.758,627.033 219.5,657.5C 219.5,658.167 219.167,658.5 218.5,658.5C 127.793,618.625 64.9601,552.292 30,459.5C -7.5685,344.722 9.09817,238.722 80,141.5C 150.694,53.8218 242.694,8.48849 356,5.5C 470.938,7.3068 564.271,52.6401 636,141.5C 706.902,238.725 723.569,344.725 686,459.5C 650.253,553.747 586.086,620.747 493.5,660.5 Z"/></g>
<g><path style="opacity:1" fill="#fef3f8" d="M 258.5,48.5 C 261.187,48.3359 263.854,48.5026 266.5,49C 268.607,50.2635 269.607,52.0968 269.5,54.5C 266.77,54.5266 264.27,53.8599 262,52.5C 261.167,52.8333 260.333,53.1667 259.5,53.5C 262.988,55.3975 266.488,57.3975 270,59.5C 271.379,63.4755 270.213,66.3088 266.5,68C 263.036,68.8166 259.702,68.4833 256.5,67C 255.139,65.4157 254.472,63.5824 254.5,61.5C 257.343,62.0049 260.01,63.0049 262.5,64.5C 264.107,64.363 265.441,63.6964 266.5,62.5C 263.814,60.7261 260.814,59.3928 257.5,58.5C 253.532,54.7371 253.865,51.4038 258.5,48.5 Z"/></g>
<g><path style="opacity:1" fill="#fef8fb" d="M 273.5,48.5 C 274.833,48.5 276.167,48.5 277.5,48.5C 277.5,55.1667 277.5,61.8333 277.5,68.5C 276.167,68.5 274.833,68.5 273.5,68.5C 273.5,61.8333 273.5,55.1667 273.5,48.5 Z"/></g>
<g><path style="opacity:1" fill="#fefbfc" d="M 329.5,48.5 C 330.833,48.5 332.167,48.5 333.5,48.5C 333.337,50.8568 333.503,53.1902 334,55.5C 336.667,52.8333 339.333,52.8333 342,55.5C 342.499,59.8206 342.666,64.1539 342.5,68.5C 341.167,68.5 339.833,68.5 338.5,68.5C 338.665,64.8183 338.499,61.1516 338,57.5C 336.667,56.1667 335.333,56.1667 334,57.5C 333.501,61.1516 333.335,64.8183 333.5,68.5C 332.167,68.5 330.833,68.5 329.5,68.5C 329.5,61.8333 329.5,55.1667 329.5,48.5 Z"/></g>
<g><path style="opacity:1" fill="#feedf4" d="M 378.5,48.5 C 380.167,48.5 381.833,48.5 383.5,48.5C 383.5,55.1667 383.5,61.8333 383.5,68.5C 379.873,67.6423 376.206,67.4756 372.5,68C 368.251,64.6234 367.418,60.4567 370,55.5C 372.418,53.3199 375.084,52.9865 378,54.5C 378.495,52.5273 378.662,50.5273 378.5,48.5 Z"/></g>
<g><path style="opacity:1" fill="#fefafc" d="M 323.5,48.5 C 324.451,49.9187 324.784,51.5853 324.5,53.5C 325.5,53.5 326.5,53.5 327.5,53.5C 327.5,54.5 327.5,55.5 327.5,56.5C 326.5,56.5 325.5,56.5 324.5,56.5C 324.5,59.5 324.5,62.5 324.5,65.5C 325.5,65.5 326.5,65.5 327.5,65.5C 327.5,66.5 327.5,67.5 327.5,68.5C 325.396,68.7989 323.396,68.4656 321.5,67.5C 321.07,63.1831 320.07,59.0164 318.5,55C 319.732,52.3564 321.399,50.1897 323.5,48.5 Z"/></g>
<g><path style="opacity:1" fill="#feedf4" d="M 283.5,53.5 C 286.807,53.0632 289.807,53.7298 292.5,55.5C 293.439,59.7649 293.772,64.0983 293.5,68.5C 290.616,67.6174 287.783,67.6174 285,68.5C 280.918,67.8413 279.584,65.508 281,61.5C 283.707,60.3849 286.207,59.0515 288.5,57.5C 288,57.1667 287.5,56.8333 287,56.5C 280.913,59.5788 279.746,58.5788 283.5,53.5 Z"/></g>
<g><path style="opacity:1" fill="#fef2f7" d="M 295.5,53.5 C 296.833,53.5 298.167,53.5 299.5,53.5C 300.656,64.8119 302.656,65.1452 305.5,54.5C 306.689,53.5713 308.022,53.238 309.5,53.5C 307.641,59.9101 305.474,66.2434 303,72.5C 301.211,74.229 299.044,74.8957 296.5,74.5C 297.164,72.1331 298.497,70.1331 300.5,68.5C 298.229,63.6863 296.562,58.6863 295.5,53.5 Z"/></g>
<g><path style="opacity:1" fill="#fef5f9" d="M 349.5,53.5 C 355.969,52.9678 359.303,55.9678 359.5,62.5C 356.102,62.1796 352.768,62.513 349.5,63.5C 351.099,65.7288 353.099,66.0622 355.5,64.5C 359.361,65.4988 359.361,66.6655 355.5,68C 349.126,69.9556 345.793,67.6223 345.5,61C 345.43,57.6335 346.763,55.1335 349.5,53.5 Z"/></g>
<g><path style="opacity:1" fill="#fef4f9" d="M 386.5,53.5 C 389.5,54.8333 392.5,54.8333 395.5,53.5C 395.5,54.5 395.5,55.5 395.5,56.5C 393.61,56.2965 392.11,56.9632 391,58.5C 390.502,61.8168 390.335,65.1501 390.5,68.5C 389.167,68.5 387.833,68.5 386.5,68.5C 386.5,63.5 386.5,58.5 386.5,53.5 Z"/></g>
<g><path style="opacity:1" fill="#feedf4" d="M 399.5,53.5 C 402.807,53.0632 405.807,53.7298 408.5,55.5C 409.439,59.7649 409.772,64.0983 409.5,68.5C 406.616,67.6174 403.783,67.6174 401,68.5C 396.918,67.8413 395.584,65.508 397,61.5C 399.707,60.3849 402.207,59.0515 404.5,57.5C 404,57.1667 403.5,56.8333 403,56.5C 396.913,59.5788 395.746,58.5788 399.5,53.5 Z"/></g>
<g><path style="opacity:1" fill="#fef2f7" d="M 415.5,53.5 C 418.044,53.1043 420.211,53.771 422,55.5C 423.049,53.8934 424.549,53.2267 426.5,53.5C 426.916,59.9522 426.416,66.2855 425,72.5C 421.817,74.5234 418.317,75.0234 414.5,74C 412.963,72.8904 412.297,71.3904 412.5,69.5C 414.905,69.8664 417.238,70.5331 419.5,71.5C 422.246,70.9037 423.08,69.2371 422,66.5C 417.546,69.6696 414.213,68.6696 412,63.5C 411.205,59.434 412.372,56.1006 415.5,53.5 Z"/></g>
<g><path style="opacity:1" fill="#fef3f8" d="M 432.5,53.5 C 442.855,53.0383 445.855,57.5383 441.5,67C 432.961,70.4511 428.794,67.6177 429,58.5C 429.997,56.6769 431.164,55.0103 432.5,53.5 Z"/></g>
<g><path style="opacity:1" fill="#feedf5" d="M 446.5,53.5 C 450.127,54.3577 453.794,54.5244 457.5,54C 458.333,54.8333 459.167,55.6667 460,56.5C 460.499,60.4862 460.666,64.4862 460.5,68.5C 458.833,68.5 457.167,68.5 455.5,68.5C 455.665,64.8183 455.499,61.1516 455,57.5C 453.413,56.273 452.079,56.6063 451,58.5C 450.502,61.8168 450.335,65.1501 450.5,68.5C 449.167,68.5 447.833,68.5 446.5,68.5C 446.5,63.5 446.5,58.5 446.5,53.5 Z"/></g>
<g><path style="opacity:1" fill="#ec3485" d="M 350.5,56.5 C 352.681,56.2837 354.347,57.117 355.5,59C 353.421,59.8077 351.421,59.641 349.5,58.5C 349.863,57.8165 350.196,57.1499 350.5,56.5 Z"/></g>
<g><path style="opacity:1" fill="#ec3484" d="M 374.5,56.5 C 375.822,56.33 376.989,56.6634 378,57.5C 378.667,59.8333 378.667,62.1667 378,64.5C 374.718,65.9114 372.884,64.7448 372.5,61C 372.519,59.167 373.185,57.667 374.5,56.5 Z"/></g>
<g><path style="opacity:1" fill="#ec3484" d="M 417.5,56.5 C 421.976,56.8222 423.476,59.1556 422,63.5C 420.604,65.5268 418.938,65.8602 417,64.5C 416.278,61.7395 416.445,59.0728 417.5,56.5 Z"/></g>
<g><path style="opacity:1" fill="#ec3584" d="M 434.5,56.5 C 437.83,56.1635 439.496,57.6635 439.5,61C 438.697,65.5996 436.531,66.4329 433,63.5C 432.167,60.829 432.667,58.4957 434.5,56.5 Z"/></g>
<g><path style="opacity:1" fill="#ea217e" d="M 285.5,61.5 C 286.5,61.5 287.5,61.5 288.5,61.5C 288.426,65.5412 287.093,66.2079 284.5,63.5C 284.863,62.8165 285.196,62.1499 285.5,61.5 Z"/></g>
<g><path style="opacity:1" fill="#ea217e" d="M 401.5,61.5 C 402.5,61.5 403.5,61.5 404.5,61.5C 404.426,65.5412 403.093,66.2079 400.5,63.5C 400.863,62.8165 401.196,62.1499 401.5,61.5 Z"/></g>
<g><path style="opacity:1" fill="#feb80d" d="M 337.5,144.5 C 427.67,140.531 504.17,170.531 567,234.5C 635.099,311.921 654.433,400.254 625,499.5C 596.202,579.299 542.535,635.299 464,667.5C 463.5,667.333 463,667.167 462.5,667C 547.177,618.82 584.677,545.987 575,448.5C 560.007,375.847 519.173,323.347 452.5,291C 383.712,261.571 316.045,263.904 249.5,298C 170.82,344.181 134.32,413.015 140,504.5C 150.86,577.665 188.694,631.832 253.5,667C 178.27,637.772 125.437,585.605 95,510.5C 61.2701,412.84 76.6034,323.84 141,243.5C 193.291,184.604 258.791,151.604 337.5,144.5 Z"/></g>
<g><path style="opacity:1" fill="#fffdf9" d="M 270.5,194.5 C 275.5,194.5 280.5,194.5 285.5,194.5C 285.5,195.833 285.5,197.167 285.5,198.5C 281.833,198.5 278.167,198.5 274.5,198.5C 274.5,199.833 274.5,201.167 274.5,202.5C 278.167,202.5 281.833,202.5 285.5,202.5C 285.5,203.833 285.5,205.167 285.5,206.5C 281.833,206.5 278.167,206.5 274.5,206.5C 274.5,207.833 274.5,209.167 274.5,210.5C 278.5,210.5 282.5,210.5 286.5,210.5C 286.5,211.833 286.5,213.167 286.5,214.5C 281.167,214.5 275.833,214.5 270.5,214.5C 270.5,207.833 270.5,201.167 270.5,194.5 Z"/></g>
<g><path style="opacity:1" fill="#fefffe" d="M 321.5,194.5 C 322.833,194.5 324.167,194.5 325.5,194.5C 325.5,201.167 325.5,207.833 325.5,214.5C 324.167,214.5 322.833,214.5 321.5,214.5C 321.5,207.833 321.5,201.167 321.5,194.5 Z"/></g>
<g><path style="opacity:1" fill="#fff7e5" d="M 356.5,194.5 C 358.167,194.5 359.833,194.5 361.5,194.5C 361.5,195.5 361.5,196.5 361.5,197.5C 359.833,197.5 358.167,197.5 356.5,197.5C 356.5,196.5 356.5,195.5 356.5,194.5 Z"/></g>
<g><path style="opacity:1" fill="#fff9eb" d="M 415.5,194.5 C 417.167,194.5 418.833,194.5 420.5,194.5C 420.338,196.527 420.505,198.527 421,200.5C 424.249,198.883 426.916,199.549 429,202.5C 429.499,206.486 429.666,210.486 429.5,214.5C 428.167,214.5 426.833,214.5 425.5,214.5C 425.665,210.818 425.499,207.152 425,203.5C 423.667,202.167 422.333,202.167 421,203.5C 420.501,207.152 420.335,210.818 420.5,214.5C 418.833,214.5 417.167,214.5 415.5,214.5C 415.5,207.833 415.5,201.167 415.5,194.5 Z"/></g>
<g><path style="opacity:1" fill="#fffcf5" d="M 409.5,194.5 C 410.451,195.919 410.784,197.585 410.5,199.5C 411.5,199.5 412.5,199.5 413.5,199.5C 413.5,200.5 413.5,201.5 413.5,202.5C 412.5,202.5 411.5,202.5 410.5,202.5C 410.5,205.5 410.5,208.5 410.5,211.5C 411.5,211.5 412.5,211.5 413.5,211.5C 413.5,212.5 413.5,213.5 413.5,214.5C 410.956,214.896 408.789,214.229 407,212.5C 406.928,208.469 406.094,204.636 404.5,201C 405.732,198.356 407.399,196.19 409.5,194.5 Z"/></g>
<g><path style="opacity:1" fill="#fffbf3" d="M 287.5,200.5 C 290.43,198.926 292.93,199.592 295,202.5C 296.605,199.726 298.772,199.06 301.5,200.5C 300.167,202.5 298.833,204.5 297.5,206.5C 298.971,209.136 300.637,211.636 302.5,214C 298.834,215.271 296.334,214.104 295,210.5C 293.666,214.104 291.166,215.271 287.5,214C 289.363,211.636 291.029,209.136 292.5,206.5C 291.291,204.059 289.624,202.059 287.5,200.5 Z"/></g>
<g><path style="opacity:1" fill="#fffbf4" d="M 304.5,199.5 C 308.026,199.939 311.693,200.106 315.5,200C 319.5,204.667 319.5,209.333 315.5,214C 313.432,214.687 311.432,214.52 309.5,213.5C 308.526,215.743 308.192,218.076 308.5,220.5C 307.167,220.5 305.833,220.5 304.5,220.5C 304.5,213.5 304.5,206.5 304.5,199.5 Z"/></g>
<g><path style="opacity:1" fill="#fffaf1" d="M 332.5,199.5 C 340.656,198.821 344.156,202.488 343,210.5C 338.239,215.812 333.572,215.812 329,210.5C 327.663,205.872 328.83,202.205 332.5,199.5 Z"/></g>
<g><path style="opacity:1" fill="#fffbf4" d="M 346.5,199.5 C 349.572,199.183 352.572,199.516 355.5,200.5C 354.345,201.95 352.845,202.95 351,203.5C 350.501,207.152 350.335,210.818 350.5,214.5C 349.167,214.5 347.833,214.5 346.5,214.5C 346.5,209.5 346.5,204.5 346.5,199.5 Z"/></g>
<g><path style="opacity:1" fill="#fff7e5" d="M 356.5,199.5 C 358.167,199.5 359.833,199.5 361.5,199.5C 361.5,204.5 361.5,209.5 361.5,214.5C 359.833,214.5 358.167,214.5 356.5,214.5C 356.5,209.5 356.5,204.5 356.5,199.5 Z"/></g>
<g><path style="opacity:1" fill="#fff9ed" d="M 364.5,199.5 C 367.384,200.383 370.217,200.383 373,199.5C 374.812,199.493 376.312,200.16 377.5,201.5C 378.439,205.765 378.772,210.098 378.5,214.5C 377.167,214.5 375.833,214.5 374.5,214.5C 374.665,211.15 374.498,207.817 374,204.5C 373.047,202.408 371.714,202.075 370,203.5C 369.501,207.152 369.335,210.818 369.5,214.5C 367.833,214.5 366.167,214.5 364.5,214.5C 364.5,209.5 364.5,204.5 364.5,199.5 Z"/></g>
<g><path style="opacity:1" fill="#fff9ec" d="M 384.5,199.5 C 387.044,199.104 389.211,199.771 391,201.5C 392.049,199.893 393.549,199.227 395.5,199.5C 395.666,205.176 395.499,210.843 395,216.5C 393.471,219.516 390.971,220.849 387.5,220.5C 383.256,220.929 381.59,219.262 382.5,215.5C 384.295,216.265 386.128,216.932 388,217.5C 390.188,216.941 390.854,215.607 390,213.5C 382.091,215.13 379.091,211.796 381,203.5C 381.69,201.65 382.856,200.316 384.5,199.5 Z"/></g>
<g><path style="opacity:1" fill="#fffaf1" d="M 435.5,199.5 C 442.295,198.628 445.628,201.628 445.5,208.5C 442.15,208.335 438.817,208.502 435.5,209C 437.7,211.593 440.367,212.26 443.5,211C 444.815,212.395 444.481,213.395 442.5,214C 433.667,215.833 430.167,212.333 432,203.5C 432.69,201.65 433.856,200.316 435.5,199.5 Z"/></g>
<g><path style="opacity:1" fill="#feb910" d="M 310.5,202.5 C 313.05,202.884 314.383,204.384 314.5,207C 312.5,213 310.5,213 308.5,207C 308.519,205.167 309.185,203.667 310.5,202.5 Z"/></g>
<g><path style="opacity:1" fill="#feba1c" d="M 334.5,202.5 C 338.976,202.822 340.476,205.156 339,209.5C 335.509,212.446 333.342,211.612 332.5,207C 332.519,205.167 333.185,203.667 334.5,202.5 Z"/></g>
<g><path style="opacity:1" fill="#febe2d" d="M 386.5,202.5 C 387.822,202.33 388.989,202.663 390,203.5C 390.667,205.833 390.667,208.167 390,210.5C 386.718,211.911 384.884,210.745 384.5,207C 384.519,205.167 385.185,203.667 386.5,202.5 Z"/></g>
<g><path style="opacity:1" fill="#febb1d" d="M 437.5,202.5 C 439.196,202.685 440.529,203.519 441.5,205C 439.421,205.808 437.421,205.641 435.5,204.5C 436.243,203.818 436.909,203.151 437.5,202.5 Z"/></g>
<g><path style="opacity:1" fill="#fffbf2" d="M 323.5,227.5 C 324.833,227.5 326.167,227.5 327.5,227.5C 327.5,234.167 327.5,240.833 327.5,247.5C 323.873,246.642 320.206,246.476 316.5,247C 311.632,242.828 311.298,238.328 315.5,233.5C 318.291,231.96 320.791,232.294 323,234.5C 323.497,232.19 323.663,229.857 323.5,227.5 Z"/></g>
<g><path style="opacity:1" fill="#fffaee" d="M 372.5,227.5 C 373.833,227.5 375.167,227.5 376.5,227.5C 376.337,229.857 376.503,232.19 377,234.5C 380.294,231.689 383.294,232.022 386,235.5C 386.499,239.486 386.666,243.486 386.5,247.5C 384.833,247.5 383.167,247.5 381.5,247.5C 381.665,243.818 381.499,240.152 381,236.5C 379.413,235.273 378.079,235.606 377,237.5C 376.502,240.817 376.335,244.15 376.5,247.5C 375.167,247.5 373.833,247.5 372.5,247.5C 372.5,240.833 372.5,234.167 372.5,227.5 Z"/></g>
<g><path style="opacity:1" fill="#fffdf8" d="M 366.5,227.5 C 367.451,228.919 367.784,230.585 367.5,232.5C 368.5,232.5 369.5,232.5 370.5,232.5C 370.5,233.5 370.5,234.5 370.5,235.5C 369.5,235.5 368.5,235.5 367.5,235.5C 367.5,238.5 367.5,241.5 367.5,244.5C 368.5,244.5 369.5,244.5 370.5,244.5C 370.5,245.5 370.5,246.5 370.5,247.5C 368.208,247.756 366.041,247.423 364,246.5C 363.95,242.141 363.117,237.974 361.5,234C 362.732,231.356 364.399,229.19 366.5,227.5 Z"/></g>
<g><path style="opacity:1" fill="#fffbf2" d="M 333.5,232.5 C 340.633,231.387 343.966,234.387 343.5,241.5C 340.15,241.335 336.817,241.502 333.5,242C 334.399,243.236 335.566,244.07 337,244.5C 339.349,243.024 341.516,243.19 343.5,245C 340.148,247.598 336.481,248.098 332.5,246.5C 328.363,241.516 328.697,236.849 333.5,232.5 Z"/></g>
<g><path style="opacity:1" fill="#fffbf4" d="M 346.5,232.5 C 349.758,233.068 353.091,233.234 356.5,233C 358.333,233.5 359.5,234.667 360,236.5C 361.936,244.723 358.936,248.056 351,246.5C 350.503,248.81 350.337,251.143 350.5,253.5C 349.167,253.5 347.833,253.5 346.5,253.5C 346.5,246.5 346.5,239.5 346.5,232.5 Z"/></g>
<g><path style="opacity:1" fill="#fffaef" d="M 391.5,232.5 C 395.302,231.88 398.635,232.714 401.5,235C 398.613,236.038 395.613,236.538 392.5,236.5C 395.382,237.772 398.215,239.105 401,240.5C 402.167,245.701 400.001,248.034 394.5,247.5C 391.994,247.779 389.994,246.946 388.5,245C 391.493,244.48 394.493,243.814 397.5,243C 394.194,242.308 391.36,240.808 389,238.5C 388.034,235.66 388.867,233.66 391.5,232.5 Z"/></g>
<g><path style="opacity:1" fill="#febd29" d="M 318.5,235.5 C 322.976,235.822 324.476,238.156 323,242.5C 321.604,244.527 319.938,244.86 318,243.5C 317.278,240.739 317.445,238.073 318.5,235.5 Z"/></g>
<g><path style="opacity:1" fill="#febe2b" d="M 335.5,235.5 C 337.346,235.222 338.68,235.889 339.5,237.5C 337.579,238.641 335.579,238.808 333.5,238C 334.381,237.292 335.047,236.458 335.5,235.5 Z"/></g>
<g><path style="opacity:1" fill="#febb21" d="M 351.5,235.5 C 355.976,235.822 357.476,238.156 356,242.5C 352.844,245.178 351.011,244.345 350.5,240C 350.605,238.408 350.939,236.908 351.5,235.5 Z"/></g>
<g><path style="opacity:1" fill="#04addc" d="M 339.5,275.5 C 412.992,271.703 474.492,296.703 524,350.5C 575.272,414.48 585.939,484.813 556,561.5C 532.748,610.418 496.582,646.252 447.5,669C 437.133,673.569 426.466,676.902 415.5,679C 464.541,651.772 487.707,609.938 485,553.5C 477.219,505.393 451.052,471.559 406.5,452C 363.049,436.185 322.049,440.851 283.5,466C 237.019,502.444 221.519,549.278 237,606.5C 249.047,640.211 271.214,664.711 303.5,680C 265.779,671.308 233.112,653.475 205.5,626.5C 152.626,572.357 133.793,508.024 149,433.5C 168.554,365.945 210.721,318.445 275.5,291C 296.28,282.971 317.613,277.804 339.5,275.5 Z"/></g>
<g><path style="opacity:1" fill="#fafdfe" d="M 257.5,342.5 C 261.514,342.334 265.514,342.501 269.5,343C 273.01,346.048 273.343,349.381 270.5,353C 267.649,354.289 264.649,354.789 261.5,354.5C 261.5,357.167 261.5,359.833 261.5,362.5C 260.167,362.5 258.833,362.5 257.5,362.5C 257.5,355.833 257.5,349.167 257.5,342.5 Z"/></g>
<g><path style="opacity:1" fill="#f5fbfd" d="M 401.5,342.5 C 406.691,341.467 410.691,343.134 413.5,347.5C 413.113,348.72 412.28,349.387 411,349.5C 403.593,344.539 400.26,346.539 401,355.5C 401.899,357.368 403.399,358.368 405.5,358.5C 407.747,357.755 409.581,356.422 411,354.5C 413.188,355.059 413.854,356.393 413,358.5C 407.236,364.102 401.903,363.769 397,357.5C 396.333,354.167 396.333,350.833 397,347.5C 398.707,345.963 400.207,344.296 401.5,342.5 Z"/></g>
<g><path style="opacity:1" fill="#f7fcfe" d="M 444.5,342.5 C 446.833,342.5 449.167,342.5 451.5,342.5C 451.5,343.5 451.5,344.5 451.5,345.5C 450.022,345.238 448.689,345.571 447.5,346.5C 449.045,347.452 450.712,347.785 452.5,347.5C 452.277,344.886 453.444,343.219 456,342.5C 456.494,344.134 456.66,345.801 456.5,347.5C 457.5,347.5 458.5,347.5 459.5,347.5C 459.5,348.5 459.5,349.5 459.5,350.5C 458.5,350.5 457.5,350.5 456.5,350.5C 456.5,353.5 456.5,356.5 456.5,359.5C 457.5,359.5 458.5,359.5 459.5,359.5C 459.5,360.5 459.5,361.5 459.5,362.5C 456.956,362.896 454.789,362.229 453,360.5C 452.502,357.183 452.335,353.85 452.5,350.5C 450.833,350.5 449.167,350.5 447.5,350.5C 447.5,354.5 447.5,358.5 447.5,362.5C 446.167,362.5 444.833,362.5 443.5,362.5C 443.965,357.795 443.299,353.295 441.5,349C 443.178,347.125 444.178,344.958 444.5,342.5 Z"/></g>
<g><path style="opacity:1" fill="#f4fbfd" d="M 376.5,345.5 C 377.833,345.5 379.167,345.5 380.5,345.5C 380.5,347.167 380.5,348.833 380.5,350.5C 382.167,350.5 383.833,350.5 385.5,350.5C 385.5,351.833 385.5,353.167 385.5,354.5C 383.833,354.5 382.167,354.5 380.5,354.5C 380.5,356.167 380.5,357.833 380.5,359.5C 379.167,359.5 377.833,359.5 376.5,359.5C 376.5,357.833 376.5,356.167 376.5,354.5C 374.833,354.5 373.167,354.5 371.5,354.5C 371.5,353.167 371.5,351.833 371.5,350.5C 373.167,350.5 374.833,350.5 376.5,350.5C 376.5,348.833 376.5,347.167 376.5,345.5 Z"/></g>
<g><path style="opacity:1" fill="#22b1de" d="M 261.5,346.5 C 263.527,346.338 265.527,346.505 267.5,347C 268.833,348 268.833,349 267.5,350C 265.527,350.495 263.527,350.662 261.5,350.5C 261.5,349.167 261.5,347.833 261.5,346.5 Z"/></g>
<g><path style="opacity:1" fill="#fcfefe" d="M 275.5,347.5 C 278.527,348.379 281.527,348.713 284.5,348.5C 283.345,349.95 281.845,350.95 280,351.5C 279.501,355.152 279.335,358.818 279.5,362.5C 278.167,362.5 276.833,362.5 275.5,362.5C 275.5,357.5 275.5,352.5 275.5,347.5 Z"/></g>
<g><path style="opacity:1" fill="#f4fbfd" d="M 289.5,347.5 C 297.656,346.821 301.156,350.488 300,358.5C 295.333,363.833 290.667,363.833 286,358.5C 284.662,353.96 285.829,350.293 289.5,347.5 Z"/></g>
<g><path style="opacity:1" fill="#f3fbfd" d="M 306.5,347.5 C 310.122,346.924 313.122,347.924 315.5,350.5C 315.113,351.72 314.28,352.387 313,352.5C 307.278,349.21 305.278,350.876 307,357.5C 309.12,360.08 311.287,360.08 313.5,357.5C 317.087,358.537 317.087,360.037 313.5,362C 304.667,363.833 301.167,360.333 303,351.5C 303.69,349.65 304.856,348.316 306.5,347.5 Z"/></g>
<g><path style="opacity:1" fill="#f6fcfd" d="M 321.5,347.5 C 327.969,346.968 331.303,349.968 331.5,356.5C 328.102,356.18 324.768,356.513 321.5,357.5C 322,358.881 323,359.547 324.5,359.5C 326.701,358.131 328.701,358.298 330.5,360C 327.157,362.951 323.49,363.284 319.5,361C 316.397,355.886 317.064,351.386 321.5,347.5 Z"/></g>
<g><path style="opacity:1" fill="#f1fafd" d="M 335.5,347.5 C 339.302,346.88 342.635,347.714 345.5,350C 344.892,350.87 344.059,351.37 343,351.5C 341.118,350.394 339.284,350.394 337.5,351.5C 340.525,352.429 343.358,353.762 346,355.5C 346.92,358.308 346.087,360.475 343.5,362C 339.712,363.116 336.378,362.45 333.5,360C 336.493,359.48 339.493,358.814 342.5,358C 339.643,356.957 336.81,355.79 334,354.5C 333.167,351.829 333.667,349.496 335.5,347.5 Z"/></g>
<g><path style="opacity:1" fill="#f2fafd" d="M 351.5,347.5 C 355.219,347.002 358.553,347.836 361.5,350C 358.603,350.743 355.603,351.243 352.5,351.5C 354.547,353.015 356.881,353.849 359.5,354C 362.986,355.947 363.319,358.28 360.5,361C 356.186,363.291 352.186,362.958 348.5,360C 349.108,359.13 349.941,358.63 351,358.5C 353.199,359.645 355.365,359.645 357.5,358.5C 354.629,357.051 351.795,355.385 349,353.5C 348.333,352.5 348.333,351.5 349,350.5C 350.045,349.627 350.878,348.627 351.5,347.5 Z"/></g>
<g><path style="opacity:1" fill="#e9f7fb" d="M 416.5,347.5 C 419.5,348.833 422.5,348.833 425.5,347.5C 425.5,348.5 425.5,349.5 425.5,350.5C 424.178,350.33 423.011,350.663 422,351.5C 421.501,355.152 421.335,358.818 421.5,362.5C 419.833,362.5 418.167,362.5 416.5,362.5C 416.5,357.5 416.5,352.5 416.5,347.5 Z"/></g>
<g><path style="opacity:1" fill="#f0fafc" d="M 429.5,347.5 C 433.007,346.994 436.174,347.66 439,349.5C 439.2,353.753 439.7,357.92 440.5,362C 438.567,362.783 437.067,362.283 436,360.5C 432.925,363.059 429.925,363.059 427,360.5C 426.08,357.692 426.913,355.525 429.5,354C 431.608,353.64 433.608,352.973 435.5,352C 434.892,351.13 434.059,350.63 433,350.5C 428.027,353.357 426.861,352.357 429.5,347.5 Z"/></g>
<g><path style="opacity:1" fill="#10afdd" d="M 291.5,350.5 C 295.976,350.822 297.476,353.156 296,357.5C 292.509,360.446 290.342,359.612 289.5,355C 289.519,353.167 290.185,351.667 291.5,350.5 Z"/></g>
<g><path style="opacity:1" fill="#3cb7e0" d="M 322.5,350.5 C 324.665,350.116 326.332,350.783 327.5,352.5C 325.5,353.833 323.5,353.833 321.5,352.5C 321.863,351.817 322.196,351.15 322.5,350.5 Z"/></g>
<g><path style="opacity:1" fill="#2ab4df" d="M 434.5,354.5 C 435.805,357.38 434.805,358.88 431.5,359C 430.549,358.282 430.383,357.449 431,356.5C 432.302,355.915 433.469,355.249 434.5,354.5 Z"/></g>
<g><path style="opacity:1" fill="#738ac8" d="M 343.5,447.5 C 397.032,444.365 437.866,465.365 466,510.5C 489.074,557.547 484.741,601.88 453,643.5C 416.641,682.838 372.475,695.672 320.5,682C 265.801,661.283 237.468,621.616 235.5,563C 240.86,508.634 269.193,471.967 320.5,453C 328.259,450.976 335.925,449.142 343.5,447.5 Z"/></g>
<g><path style="opacity:1" fill="#f8f9fc" d="M 304.5,539.5 C 306.833,539.5 309.167,539.5 311.5,539.5C 313.494,554.155 315.494,554.155 317.5,539.5C 319.833,539.5 322.167,539.5 324.5,539.5C 324.5,546.167 324.5,552.833 324.5,559.5C 323.167,559.5 321.833,559.5 320.5,559.5C 321.057,541.571 319.891,541.238 317,558.5C 315.333,559.833 313.667,559.833 312,558.5C 309.919,548.04 308.753,548.374 308.5,559.5C 307.167,559.5 305.833,559.5 304.5,559.5C 304.5,552.833 304.5,546.167 304.5,539.5 Z"/></g>
<g><path style="opacity:1" fill="#f0f2f9" d="M 327.5,539.5 C 329.167,539.5 330.833,539.5 332.5,539.5C 332.5,540.5 332.5,541.5 332.5,542.5C 330.833,542.5 329.167,542.5 327.5,542.5C 327.5,541.5 327.5,540.5 327.5,539.5 Z"/></g>
<g><path style="opacity:1" fill="#fafbfd" d="M 352.5,539.5 C 353.833,539.5 355.167,539.5 356.5,539.5C 356.5,540.5 356.5,541.5 356.5,542.5C 355.167,542.5 353.833,542.5 352.5,542.5C 352.5,541.5 352.5,540.5 352.5,539.5 Z"/></g>
<g><path style="opacity:1" fill="#fcfcfd" d="M 406.5,542.5 C 407.833,542.5 409.167,542.5 410.5,542.5C 410.5,544.167 410.5,545.833 410.5,547.5C 412.167,547.5 413.833,547.5 415.5,547.5C 415.5,548.833 415.5,550.167 415.5,551.5C 413.833,551.5 412.167,551.5 410.5,551.5C 410.5,553.167 410.5,554.833 410.5,556.5C 409.167,556.5 407.833,556.5 406.5,556.5C 406.5,554.833 406.5,553.167 406.5,551.5C 404.833,551.5 403.167,551.5 401.5,551.5C 401.5,550.167 401.5,548.833 401.5,547.5C 403.167,547.5 404.833,547.5 406.5,547.5C 406.5,545.833 406.5,544.167 406.5,542.5 Z"/></g>
<g><path style="opacity:1" fill="#f0f2f9" d="M 327.5,544.5 C 329.167,544.5 330.833,544.5 332.5,544.5C 332.5,549.5 332.5,554.5 332.5,559.5C 330.833,559.5 329.167,559.5 327.5,559.5C 327.5,554.5 327.5,549.5 327.5,544.5 Z"/></g>
<g><path style="opacity:1" fill="#f3f5fa" d="M 335.5,544.5 C 338.262,545.353 340.929,545.353 343.5,544.5C 345.481,544.437 347.148,545.104 348.5,546.5C 349.439,550.765 349.772,555.098 349.5,559.5C 347.833,559.5 346.167,559.5 344.5,559.5C 344.665,555.818 344.499,552.152 344,548.5C 342.413,547.273 341.079,547.606 340,549.5C 339.502,552.817 339.335,556.15 339.5,559.5C 338.167,559.5 336.833,559.5 335.5,559.5C 335.5,554.5 335.5,549.5 335.5,544.5 Z"/></g>
<g><path style="opacity:1" fill="#fafbfd" d="M 352.5,544.5 C 353.833,544.5 355.167,544.5 356.5,544.5C 356.5,549.5 356.5,554.5 356.5,559.5C 355.167,559.5 353.833,559.5 352.5,559.5C 352.5,554.5 352.5,549.5 352.5,544.5 Z"/></g>
<g><path style="opacity:1" fill="#fafbfd" d="M 360.5,544.5 C 363.262,545.353 365.929,545.353 368.5,544.5C 370.374,544.39 371.874,545.056 373,546.5C 373.499,550.821 373.666,555.154 373.5,559.5C 372.167,559.5 370.833,559.5 369.5,559.5C 369.665,555.818 369.499,552.152 369,548.5C 367.413,547.273 366.079,547.606 365,549.5C 364.502,552.817 364.335,556.15 364.5,559.5C 363.167,559.5 361.833,559.5 360.5,559.5C 360.5,554.5 360.5,549.5 360.5,544.5 Z"/></g>
<g><path style="opacity:1" fill="#f6f7fb" d="M 379.5,544.5 C 383.315,545.105 386.982,545.105 390.5,544.5C 390.666,550.509 390.499,556.509 390,562.5C 388.537,564.885 386.371,565.885 383.5,565.5C 380.202,565.87 377.868,564.537 376.5,561.5C 377.167,561.167 377.833,560.833 378.5,560.5C 380.167,561.167 381.833,561.833 383.5,562.5C 386.082,562.253 386.915,560.92 386,558.5C 381.965,560.444 378.965,559.444 377,555.5C 375.812,551.259 376.645,547.592 379.5,544.5 Z"/></g>
<g><path style="opacity:1" fill="#758cc9" d="M 382.5,547.5 C 385.05,547.884 386.383,549.384 386.5,552C 384.5,558 382.5,558 380.5,552C 380.519,550.167 381.185,548.667 382.5,547.5 Z"/></g>
<g><path style="opacity:1" fill="#fafbfd" d="M 379.5,572.5 C 380.833,572.5 382.167,572.5 383.5,572.5C 383.335,575.518 383.502,578.518 384,581.5C 385.907,577.99 388.74,576.824 392.5,578C 390.552,579.439 389.219,581.272 388.5,583.5C 389.815,586.13 391.149,588.797 392.5,591.5C 391.277,592.614 389.944,592.781 388.5,592C 385.601,584.556 383.935,584.723 383.5,592.5C 382.167,592.5 380.833,592.5 379.5,592.5C 379.5,585.833 379.5,579.167 379.5,572.5 Z"/></g>
<g><path style="opacity:1" fill="#f9fafc" d="M 331.5,572.5 C 332.451,573.919 332.784,575.585 332.5,577.5C 333.5,577.5 334.5,577.5 335.5,577.5C 335.5,578.5 335.5,579.5 335.5,580.5C 334.5,580.5 333.5,580.5 332.5,580.5C 332.5,583.5 332.5,586.5 332.5,589.5C 333.5,589.5 334.5,589.5 335.5,589.5C 335.5,590.5 335.5,591.5 335.5,592.5C 333.396,592.799 331.396,592.466 329.5,591.5C 329.07,587.183 328.07,583.016 326.5,579C 327.732,576.356 329.399,574.19 331.5,572.5 Z"/></g>
<g><path style="opacity:1" fill="#f8f9fc" d="M 337.5,577.5 C 340.5,578.833 343.5,578.833 346.5,577.5C 346.5,578.5 346.5,579.5 346.5,580.5C 344.61,580.297 343.11,580.963 342,582.5C 341.502,585.817 341.335,589.15 341.5,592.5C 340.167,592.5 338.833,592.5 337.5,592.5C 337.5,587.5 337.5,582.5 337.5,577.5 Z"/></g>
<g><path style="opacity:1" fill="#f3f4fa" d="M 350.5,577.5 C 354.007,576.994 357.174,577.66 360,579.5C 360.2,583.753 360.7,587.92 361.5,592C 358.261,591.871 355.094,592.038 352,592.5C 347.918,591.841 346.584,589.508 348,585.5C 350.707,584.385 353.207,583.052 355.5,581.5C 355,581.167 354.5,580.833 354,580.5C 347.913,583.579 346.746,582.579 350.5,577.5 Z"/></g>
<g><path style="opacity:1" fill="#f5f6fb" d="M 366.5,577.5 C 370.64,576.715 373.973,577.881 376.5,581C 375.5,581.5 374.5,582 373.5,582.5C 369.771,579.352 367.771,580.186 367.5,585C 367.928,589.924 370.095,590.757 374,587.5C 376.341,588.007 376.841,589.174 375.5,591C 366.961,594.451 362.794,591.618 363,582.5C 363.997,580.677 365.164,579.01 366.5,577.5 Z"/></g>
<g><path style="opacity:1" fill="#778dc9" d="M 352.5,585.5 C 353.5,585.5 354.5,585.5 355.5,585.5C 355.426,589.541 354.093,590.208 351.5,587.5C 351.863,586.817 352.196,586.15 352.5,585.5 Z"/></g>
<g><path style="opacity:1" fill="#f8f9fc" d="M 307.5,606.5 C 308.833,606.5 310.167,606.5 311.5,606.5C 311.338,608.527 311.505,610.527 312,612.5C 315.525,610.81 318.525,611.476 321,614.5C 322.262,618.909 321.428,622.743 318.5,626C 314.693,625.894 311.026,626.061 307.5,626.5C 307.5,619.833 307.5,613.167 307.5,606.5 Z"/></g>
<g><path style="opacity:1" fill="#fefffe" d="M 341.5,606.5 C 342.833,606.5 344.167,606.5 345.5,606.5C 345.5,607.5 345.5,608.5 345.5,609.5C 344.167,609.5 342.833,609.5 341.5,609.5C 341.5,608.5 341.5,607.5 341.5,606.5 Z"/></g>
<g><path style="opacity:1" fill="#fafbfd" d="M 349.5,606.5 C 350.833,606.5 352.167,606.5 353.5,606.5C 353.5,613.167 353.5,619.833 353.5,626.5C 352.167,626.5 350.833,626.5 349.5,626.5C 349.5,619.833 349.5,613.167 349.5,606.5 Z"/></g>
<g><path style="opacity:1" fill="#f5f6fb" d="M 366.5,606.5 C 367.833,606.5 369.167,606.5 370.5,606.5C 370.5,613.167 370.5,619.833 370.5,626.5C 366.974,626.061 363.307,625.894 359.5,626C 355.338,622.522 354.504,618.356 357,613.5C 359.634,611.406 362.467,611.073 365.5,612.5C 366.466,610.604 366.799,608.604 366.5,606.5 Z"/></g>
<g><path style="opacity:1" fill="#f0f2f9" d="M 373.5,606.5 C 375.167,606.5 376.833,606.5 378.5,606.5C 378.5,607.5 378.5,608.5 378.5,609.5C 376.833,609.5 375.167,609.5 373.5,609.5C 373.5,608.5 373.5,607.5 373.5,606.5 Z"/></g>
<g><path style="opacity:1" fill="#fafbfd" d="M 324.5,611.5 C 325.833,611.5 327.167,611.5 328.5,611.5C 328.335,615.182 328.501,618.848 329,622.5C 330.113,623.711 331.28,623.711 332.5,622.5C 333.489,618.893 333.823,615.226 333.5,611.5C 334.833,611.5 336.167,611.5 337.5,611.5C 337.5,616.5 337.5,621.5 337.5,626.5C 334.738,625.647 332.071,625.647 329.5,626.5C 327.626,626.61 326.126,625.944 325,624.5C 324.501,620.179 324.334,615.846 324.5,611.5 Z"/></g>
<g><path style="opacity:1" fill="#fefffe" d="M 341.5,611.5 C 342.833,611.5 344.167,611.5 345.5,611.5C 345.5,616.5 345.5,621.5 345.5,626.5C 344.167,626.5 342.833,626.5 341.5,626.5C 341.5,621.5 341.5,616.5 341.5,611.5 Z"/></g>
<g><path style="opacity:1" fill="#f0f2f9" d="M 373.5,611.5 C 375.167,611.5 376.833,611.5 378.5,611.5C 378.5,616.5 378.5,621.5 378.5,626.5C 376.833,626.5 375.167,626.5 373.5,626.5C 373.5,621.5 373.5,616.5 373.5,611.5 Z"/></g>
<g><path style="opacity:1" fill="#f3f5fa" d="M 381.5,611.5 C 384.262,612.353 386.929,612.353 389.5,611.5C 391.481,611.437 393.148,612.104 394.5,613.5C 395.439,617.765 395.772,622.098 395.5,626.5C 393.833,626.5 392.167,626.5 390.5,626.5C 390.665,622.818 390.499,619.152 390,615.5C 388.413,614.273 387.079,614.606 386,616.5C 385.502,619.817 385.335,623.15 385.5,626.5C 384.167,626.5 382.833,626.5 381.5,626.5C 381.5,621.5 381.5,616.5 381.5,611.5 Z"/></g>
<g><path style="opacity:1" fill="#f3f5fa" d="M 400.5,611.5 C 404.601,612.366 408.601,612.366 412.5,611.5C 412.666,617.176 412.499,622.843 412,628.5C 410.471,631.516 407.971,632.849 404.5,632.5C 400.256,632.929 398.59,631.262 399.5,627.5C 401.295,628.265 403.128,628.932 405,629.5C 407.188,628.941 407.854,627.607 407,625.5C 399.091,627.13 396.091,623.796 398,615.5C 398.662,614.016 399.496,612.683 400.5,611.5 Z"/></g>
<g><path style="opacity:1" fill="#748ac8" d="M 313.5,614.5 C 316.05,614.884 317.383,616.384 317.5,619C 315.5,625 313.5,625 311.5,619C 311.519,617.167 312.185,615.667 313.5,614.5 Z"/></g>
<g><path style="opacity:1" fill="#778dc9" d="M 361.5,614.5 C 362.822,614.33 363.989,614.663 365,615.5C 365.667,617.833 365.667,620.167 365,622.5C 363.667,623.833 362.333,623.833 361,622.5C 360.278,619.739 360.445,617.073 361.5,614.5 Z"/></g>
<g><path style="opacity:1" fill="#7e93cc" d="M 403.5,614.5 C 406.734,614.237 408.068,615.737 407.5,619C 405.544,624.974 403.544,624.974 401.5,619C 401.519,617.167 402.185,615.667 403.5,614.5 Z"/></g>
<g><path style="opacity:1" fill="#f47ab0" d="M 219.5,657.5 C 223.14,659.32 226.807,661.153 230.5,663C 226.098,662.588 222.098,661.088 218.5,658.5C 219.167,658.5 219.5,658.167 219.5,657.5 Z"/></g>
<g><path style="opacity:1" fill="#f79cc6" d="M 492.5,659.5 C 492.5,660.167 492.833,660.5 493.5,660.5C 491.117,662.189 488.451,663.022 485.5,663C 487.86,661.82 490.193,660.653 492.5,659.5 Z"/></g>
</svg>
