<?xml version="1.0" encoding="UTF-8"?>
<!DOCTYPE svg PUBLIC "-//W3C//DTD SVG 1.1//EN" "http://www.w3.org/Graphics/SVG/1.1/DTD/svg11.dtd">
<svg xmlns="http://www.w3.org/2000/svg" version="1.1" width="1640px" height="1548px" style="shape-rendering:geometricPrecision; text-rendering:geometricPrecision; image-rendering:optimizeQuality; fill-rule:evenodd; clip-rule:evenodd" xmlns:xlink="http://www.w3.org/1999/xlink">
<g><path style="opacity:1" fill="#fefffe" d="M -0.5,-0.5 C 546.167,-0.5 1092.83,-0.5 1639.5,-0.5C 1639.5,515.5 1639.5,1031.5 1639.5,1547.5C 1092.83,1547.5 546.167,1547.5 -0.5,1547.5C -0.5,1031.5 -0.5,515.5 -0.5,-0.5 Z"/></g>
<g><path style="opacity:1" fill="#000000" d="M 300.5,420.5 C 300.5,449.833 300.5,479.167 300.5,508.5C 204.5,508.5 108.5,508.5 12.5,508.5C 12.5,341.833 12.5,175.167 12.5,8.5C 108.5,8.5 204.5,8.5 300.5,8.5C 300.5,145.833 300.5,283.167 300.5,420.5 Z"/></g>
<g><path style="opacity:1" fill="#9b9b9b" d="M 440.5,420.5 C 414.167,420.5 387.833,420.5 361.5,420.5C 361.5,393.5 361.5,366.5 361.5,339.5C 365.5,339.5 369.5,339.5 373.5,339.5C 373.5,229.167 373.5,118.833 373.5,8.5C 375.833,8.5 378.167,8.5 380.5,8.5C 380.5,118.833 380.5,229.167 380.5,339.5C 387.167,339.5 393.833,339.5 400.5,339.5C 400.5,229.167 400.5,118.833 400.5,8.5C 401.833,8.5 403.167,8.5 404.5,8.5C 404.5,118.833 404.5,229.167 404.5,339.5C 406.833,339.5 409.167,339.5 411.5,339.5C 411.5,229.167 411.5,118.833 411.5,8.5C 412.5,8.5 413.5,8.5 414.5,8.5C 414.5,118.833 414.5,229.167 414.5,339.5C 423.167,339.5 431.833,339.5 440.5,339.5C 440.5,366.5 440.5,393.5 440.5,420.5 Z"/></g>
<g><path style="opacity:1" fill="#000000" d="M 503.5,508.5 C 503.832,463.997 503.499,419.664 502.5,375.5C 502.5,253.167 502.5,130.833 502.5,8.5C 605.833,8.5 709.167,8.5 812.5,8.5C 812.5,175.167 812.5,341.833 812.5,508.5C 709.5,508.5 606.5,508.5 503.5,508.5 Z"/></g>
<g><path style="opacity:1" fill="#000000" d="M 1110.5,421.5 C 1110.5,450.833 1110.5,480.167 1110.5,509.5C 1014.5,509.5 918.5,509.5 822.5,509.5C 822.5,342.833 822.5,176.167 822.5,9.5C 918.5,9.5 1014.5,9.5 1110.5,9.5C 1110.33,126.167 1110.5,242.834 1111,359.5C 1113.05,357.624 1114.88,355.624 1116.5,353.5C 1114.84,351.665 1113.34,349.665 1112,347.5C 1111.17,340.333 1114.33,337.167 1121.5,338C 1125.83,340.89 1126.66,344.723 1124,349.5C 1122.65,351.019 1121.15,352.352 1119.5,353.5C 1121.75,356.295 1124.42,358.628 1127.5,360.5C 1128.39,361.325 1128.72,362.325 1128.5,363.5C 1125.34,362.53 1122.51,360.863 1120,358.5C 1119.33,360.833 1119.33,363.167 1120,365.5C 1122.85,368.183 1125.35,371.183 1127.5,374.5C 1126.64,375.583 1125.64,375.749 1124.5,375C 1122.28,372.735 1119.94,370.568 1117.5,368.5C 1115.17,370.997 1113.01,373.664 1111,376.5C 1110.5,391.496 1110.33,406.496 1110.5,421.5 Z"/></g>
<g><path style="opacity:1" fill="#9b9b9b" d="M 1250.5,371.5 C 1250.07,372.953 1249.9,374.619 1250,376.5C 1249.31,377.357 1248.48,378.023 1247.5,378.5C 1246.5,376.833 1245.17,375.5 1243.5,374.5C 1241.27,375.963 1238.94,376.797 1236.5,377C 1235.71,375.915 1235.04,374.748 1234.5,373.5C 1235.6,365.704 1234.94,365.704 1232.5,373.5C 1234.39,380.349 1238.06,381.349 1243.5,376.5C 1244.93,379.987 1247.27,380.987 1250.5,379.5C 1250.5,393.5 1250.5,407.5 1250.5,421.5C 1236.5,421.5 1222.5,421.5 1208.5,421.5C 1208.5,409.5 1208.5,397.5 1208.5,385.5C 1213.99,384.679 1218.65,382.346 1222.5,378.5C 1219.78,376.889 1216.78,376.056 1213.5,376C 1215.08,373.915 1217.08,372.415 1219.5,371.5C 1217.06,370.668 1214.9,371.335 1213,373.5C 1211.95,372.483 1210.78,372.316 1209.5,373C 1207.92,374.828 1206.59,376.828 1205.5,379C 1204.5,379.667 1203.5,379.667 1202.5,379C 1201.36,373.742 1202.69,369.075 1206.5,365C 1206,364.5 1205.5,364 1205,363.5C 1202.64,366.888 1200.81,370.554 1199.5,374.5C 1196.87,376.633 1194.37,378.966 1192,381.5C 1191.54,378.415 1192.71,376.082 1195.5,374.5C 1193.67,373.718 1192.17,374.384 1191,376.5C 1190.03,378.392 1189.36,380.392 1189,382.5C 1186.06,383.37 1182.9,383.37 1179.5,382.5C 1181.59,378.078 1184.92,375.078 1189.5,373.5C 1189.17,373.167 1188.83,372.833 1188.5,372.5C 1185.27,373.733 1182.27,375.399 1179.5,377.5C 1176.51,375.448 1173.18,374.281 1169.5,374C 1170.67,373.581 1171.67,372.915 1172.5,372C 1172.27,371.601 1171.94,371.435 1171.5,371.5C 1171.5,364.833 1171.5,358.167 1171.5,351.5C 1172.31,352.429 1173.15,353.429 1174,354.5C 1174.5,354 1175,353.5 1175.5,353C 1172.36,350.226 1171.02,347.059 1171.5,343.5C 1171.5,342.5 1171.5,341.5 1171.5,340.5C 1175.5,340.5 1179.5,340.5 1183.5,340.5C 1183.5,230.167 1183.5,119.833 1183.5,9.5C 1185.83,9.5 1188.17,9.5 1190.5,9.5C 1190.5,119.833 1190.5,230.167 1190.5,340.5C 1197.17,340.5 1203.83,340.5 1210.5,340.5C 1210.5,230.167 1210.5,119.833 1210.5,9.5C 1211.83,9.5 1213.17,9.5 1214.5,9.5C 1214.5,119.833 1214.5,230.167 1214.5,340.5C 1216.83,340.5 1219.17,340.5 1221.5,340.5C 1221.5,230.167 1221.5,119.833 1221.5,9.5C 1222.5,9.5 1223.5,9.5 1224.5,9.5C 1224.5,119.833 1224.5,230.167 1224.5,340.5C 1233.17,340.5 1241.83,340.5 1250.5,340.5C 1250.5,350.833 1250.5,361.167 1250.5,371.5 Z"/></g>
<g><path style="opacity:1" fill="#000000" d="M 1313.5,509.5 C 1313.83,464.997 1313.5,420.664 1312.5,376.5C 1312.5,254.167 1312.5,131.833 1312.5,9.5C 1415.83,9.5 1519.17,9.5 1622.5,9.5C 1622.5,176.167 1622.5,342.833 1622.5,509.5C 1519.5,509.5 1416.5,509.5 1313.5,509.5 Z"/></g>
<g><path style="opacity:1" fill="#000000" d="M 1128.5,315.5 C 1131.04,319.581 1133.38,323.914 1135.5,328.5C 1135.19,329.308 1134.69,329.975 1134,330.5C 1133.53,328.754 1132.86,327.087 1132,325.5C 1131.67,330.833 1131.33,336.167 1131,341.5C 1129.88,338.691 1129.38,335.691 1129.5,332.5C 1129.56,329.387 1130.23,326.554 1131.5,324C 1130.28,322.352 1129.45,320.519 1129,318.5C 1127.42,320.911 1126.42,323.578 1126,326.5C 1125.67,326.833 1125.33,327.167 1125,327.5C 1124.45,322.992 1125.61,318.992 1128.5,315.5 Z"/></g>
<g><path style="opacity:1" fill="#000000" d="M 1171.5,343.5 C 1171.02,347.059 1172.36,350.226 1175.5,353C 1175,353.5 1174.5,354 1174,354.5C 1173.15,353.429 1172.31,352.429 1171.5,351.5C 1171.22,350.711 1170.72,350.044 1170,349.5C 1167.34,352.537 1164.67,354.871 1162,356.5C 1161.17,346.816 1161.33,337.149 1162.5,327.5C 1163.33,334.476 1163.83,341.476 1164,348.5C 1164.96,343.984 1167.46,342.317 1171.5,343.5 Z"/></g>
<g><path style="opacity:1" fill="#000000" d="M 1153.5,330.5 C 1155.37,330.859 1156.87,331.859 1158,333.5C 1160.25,340.703 1157.75,344.703 1150.5,345.5C 1151.44,349.463 1151.61,353.463 1151,357.5C 1149.98,358.634 1149.32,358.301 1149,356.5C 1147.58,350.224 1147.24,343.891 1148,337.5C 1148.97,334.379 1150.8,332.046 1153.5,330.5 Z"/></g>
<g><path style="opacity:1" fill="#fefffe" d="M 1153.5,332.5 C 1154.5,332.414 1155.33,332.748 1156,333.5C 1156.67,336.167 1156.67,338.833 1156,341.5C 1152.84,344.501 1150.67,344.001 1149.5,340C 1149.93,336.977 1151.26,334.477 1153.5,332.5 Z"/></g>
<g><path style="opacity:1" fill="#000000" d="M 1187.5,340.5 C 1188.38,340.369 1189.04,340.702 1189.5,341.5C 1184.4,350.287 1180.57,359.62 1178,369.5C 1177.5,369 1177,368.5 1176.5,368C 1177.97,363.268 1179.63,358.602 1181.5,354C 1175.97,351.578 1173.97,347.412 1175.5,341.5C 1176.4,344.144 1177.23,346.81 1178,349.5C 1178.74,350.574 1179.74,351.241 1181,351.5C 1183.67,348.164 1185.84,344.497 1187.5,340.5 Z"/></g>
<g><path style="opacity:1" fill="#000000" d="M 1201.5,345.5 C 1200.83,345.5 1200.5,345.833 1200.5,346.5C 1201.59,354.24 1198.26,357.406 1190.5,356C 1186.25,350.816 1186.92,346.149 1192.5,342C 1194.24,341.388 1195.24,342.054 1195.5,344C 1194.89,347.45 1192.89,349.284 1189.5,349.5C 1189.47,354.213 1191.8,355.713 1196.5,354C 1196.09,347.9 1198.76,343.733 1204.5,341.5C 1204.83,341.833 1205.17,342.167 1205.5,342.5C 1204.1,343.521 1202.77,344.521 1201.5,345.5 Z"/></g>
<g><path style="opacity:1" fill="#fefffe" d="M 431.5,343.5 C 432.376,343.369 433.043,343.702 433.5,344.5C 432.811,346.444 432.311,348.444 432,350.5C 431.506,348.866 431.34,347.199 431.5,345.5C 420.078,344.869 408.912,345.536 398,347.5C 388.422,345.704 378.589,344.871 368.5,345C 389.671,344.832 410.671,344.332 431.5,343.5 Z"/></g>
<g><path style="opacity:1" fill="#fefffe" d="M 1168.5,344.5 C 1169.51,347.204 1168.68,349.537 1166,351.5C 1165.68,348.793 1166.52,346.46 1168.5,344.5 Z"/></g>
<g><path style="opacity:1" fill="#fefffe" d="M 1200.5,346.5 C 1200.5,345.833 1200.83,345.5 1201.5,345.5C 1215.22,345.815 1228.88,345.482 1242.5,344.5C 1242.83,344.833 1243.17,345.167 1243.5,345.5C 1242.81,347.444 1242.31,349.444 1242,351.5C 1241.51,349.866 1241.34,348.199 1241.5,346.5C 1230.08,345.869 1218.91,346.536 1208,348.5C 1205.89,346.709 1203.39,346.042 1200.5,346.5 Z"/></g>
<g><path style="opacity:1" fill="#c9c9c9" d="M 1192.5,343.5 C 1193.52,344.892 1193.19,346.225 1191.5,347.5C 1191.17,347.167 1190.83,346.833 1190.5,346.5C 1191.19,345.482 1191.86,344.482 1192.5,343.5 Z"/></g>
<g><path style="opacity:1" fill="#000000" d="M 1270.5,358.5 C 1271.12,358.611 1271.62,358.944 1272,359.5C 1272.22,366.703 1272.72,373.87 1273.5,381C 1273.37,382.059 1272.87,382.892 1272,383.5C 1270.53,375.337 1270.03,367.004 1270.5,358.5 Z"/></g>
<g><path style="opacity:1" fill="#fefffe" d="M 1114.5,359.5 C 1116.34,360.204 1116.84,361.537 1116,363.5C 1111.82,373.486 1110.15,373.486 1111,363.5C 1112.38,362.295 1113.54,360.962 1114.5,359.5 Z"/></g>
<g><path style="opacity:1" fill="#000000" d="M 1275.5,362.5 C 1276.82,365.598 1277.49,369.098 1277.5,373C 1277.33,376.5 1277.17,380 1277,383.5C 1275.54,376.677 1275.04,369.677 1275.5,362.5 Z"/></g>
<g><path style="opacity:1" fill="#000000" d="M 1208.5,385.5 C 1205.5,382.749 1202.34,380.083 1199,377.5C 1198.92,379.657 1198.76,381.657 1198.5,383.5C 1197.03,382.619 1196.2,381.286 1196,379.5C 1195.5,381.333 1194.33,382.5 1192.5,383C 1188.81,383.852 1185.14,384.685 1181.5,385.5C 1179.51,384.519 1177.51,383.519 1175.5,382.5C 1174.15,382.846 1172.82,383.179 1171.5,383.5C 1166.17,382.833 1166.17,382.167 1171.5,381.5C 1180.62,380.063 1180.62,378.397 1171.5,376.5C 1166.3,375.173 1166.3,373.507 1171.5,371.5C 1171.94,371.435 1172.27,371.601 1172.5,372C 1171.67,372.915 1170.67,373.581 1169.5,374C 1173.18,374.281 1176.51,375.448 1179.5,377.5C 1182.27,375.399 1185.27,373.733 1188.5,372.5C 1188.83,372.833 1189.17,373.167 1189.5,373.5C 1184.92,375.078 1181.59,378.078 1179.5,382.5C 1182.9,383.37 1186.06,383.37 1189,382.5C 1189.36,380.392 1190.03,378.392 1191,376.5C 1192.17,374.384 1193.67,373.718 1195.5,374.5C 1192.71,376.082 1191.54,378.415 1192,381.5C 1194.37,378.966 1196.87,376.633 1199.5,374.5C 1200.81,370.554 1202.64,366.888 1205,363.5C 1205.5,364 1206,364.5 1206.5,365C 1202.69,369.075 1201.36,373.742 1202.5,379C 1203.5,379.667 1204.5,379.667 1205.5,379C 1206.59,376.828 1207.92,374.828 1209.5,373C 1210.78,372.316 1211.95,372.483 1213,373.5C 1214.9,371.335 1217.06,370.668 1219.5,371.5C 1217.08,372.415 1215.08,373.915 1213.5,376C 1216.78,376.056 1219.78,376.889 1222.5,378.5C 1218.65,382.346 1213.99,384.679 1208.5,385.5 Z"/></g>
<g><path style="opacity:1" fill="#000000" d="M 1250.5,371.5 C 1251.79,372.058 1252.62,373.058 1253,374.5C 1254.55,371.898 1256.72,370.731 1259.5,371C 1256.47,372.191 1254.8,374.358 1254.5,377.5C 1257.78,377.731 1260.28,376.397 1262,373.5C 1263.54,375.955 1263.87,378.621 1263,381.5C 1261.88,380.051 1261.22,378.384 1261,376.5C 1257.98,380.373 1254.98,380.373 1252,376.5C 1251.49,377.527 1250.99,378.527 1250.5,379.5C 1247.27,380.987 1244.93,379.987 1243.5,376.5C 1238.06,381.349 1234.39,380.349 1232.5,373.5C 1234.94,365.704 1235.6,365.704 1234.5,373.5C 1235.04,374.748 1235.71,375.915 1236.5,377C 1238.94,376.797 1241.27,375.963 1243.5,374.5C 1245.17,375.5 1246.5,376.833 1247.5,378.5C 1248.48,378.023 1249.31,377.357 1250,376.5C 1249.9,374.619 1250.07,372.953 1250.5,371.5 Z"/></g>
<g><path style="opacity:1" fill="#444544" d="M 502.5,375.5 C 503.499,419.664 503.832,463.997 503.5,508.5C 435.833,508.5 368.167,508.5 300.5,508.5C 300.5,479.167 300.5,449.833 300.5,420.5C 309.833,420.5 319.167,420.5 328.5,420.5C 329.5,421.833 330.5,421.833 331.5,420.5C 335.5,420.5 339.5,420.5 343.5,420.5C 344.5,420.5 345.5,420.5 346.5,420.5C 351.5,420.5 356.5,420.5 361.5,420.5C 387.833,420.5 414.167,420.5 440.5,420.5C 461.167,420.5 481.833,420.5 502.5,420.5C 502.5,405.5 502.5,390.5 502.5,375.5 Z"/></g>
<g><path style="opacity:1" fill="#999a99" d="M 1171.5,376.5 C 1180.62,378.397 1180.62,380.063 1171.5,381.5C 1171.5,379.833 1171.5,378.167 1171.5,376.5 Z"/></g>
<g><path style="opacity:1" fill="#a3a3a3" d="M 1210.5,376.5 C 1213.53,378.14 1216.86,378.974 1220.5,379C 1216.95,380.793 1213.29,382.293 1209.5,383.5C 1208.28,383.113 1207.61,382.28 1207.5,381C 1209.1,379.877 1210.1,378.377 1210.5,376.5 Z"/></g>
<g><path style="opacity:1" fill="#444544" d="M 1312.5,376.5 C 1313.5,420.664 1313.83,464.997 1313.5,509.5C 1245.83,509.5 1178.17,509.5 1110.5,509.5C 1110.5,480.167 1110.5,450.833 1110.5,421.5C 1130.83,421.5 1151.17,421.5 1171.5,421.5C 1174.83,421.5 1178.17,421.5 1181.5,421.5C 1190.5,421.5 1199.5,421.5 1208.5,421.5C 1222.5,421.5 1236.5,421.5 1250.5,421.5C 1271.17,421.5 1291.83,421.5 1312.5,421.5C 1312.5,406.5 1312.5,391.5 1312.5,376.5 Z"/></g>
<g><path style="opacity:1" fill="#999a99" d="M 1208.5,385.5 C 1208.5,397.5 1208.5,409.5 1208.5,421.5C 1199.5,421.5 1190.5,421.5 1181.5,421.5C 1181.5,409.5 1181.5,397.5 1181.5,385.5C 1185.14,384.685 1188.81,383.852 1192.5,383C 1194.33,382.5 1195.5,381.333 1196,379.5C 1196.2,381.286 1197.03,382.619 1198.5,383.5C 1198.76,381.657 1198.92,379.657 1199,377.5C 1202.34,380.083 1205.5,382.749 1208.5,385.5 Z"/></g>
<g><path style="opacity:1" fill="#000000" d="M 1133.5,380.5 C 1134.55,380.351 1135.55,380.517 1136.5,381C 1139.2,384.038 1142.2,386.705 1145.5,389C 1145,389.5 1144.5,390 1144,390.5C 1141.28,387.078 1138.11,384.578 1134.5,383C 1133.81,387.911 1133.81,392.744 1134.5,397.5C 1131.22,391.923 1130.89,386.256 1133.5,380.5 Z"/></g>
<g><path style="opacity:1" fill="#000000" d="M 346.5,420.5 C 345.5,420.5 344.5,420.5 343.5,420.5C 341.401,418.006 339.068,415.673 336.5,413.5C 334.453,415.55 332.786,417.883 331.5,420.5C 330.5,421.833 329.5,421.833 328.5,420.5C 331.337,416.16 333.67,411.494 335.5,406.5C 335.167,405.833 334.833,405.167 334.5,404.5C 333.019,405.48 331.685,406.647 330.5,408C 329.365,408.749 328.365,408.583 327.5,407.5C 330.195,404.474 332.862,401.474 335.5,398.5C 332.811,396.302 331.145,393.468 330.5,390C 332.873,382.125 337.373,380.625 344,385.5C 345.467,391.233 343.633,395.566 338.5,398.5C 340.751,401.295 343.418,403.628 346.5,405.5C 347.386,406.325 347.719,407.325 347.5,408.5C 344.339,407.53 341.506,405.863 339,403.5C 337.385,408.93 339.052,412.93 344,415.5C 345.094,417.078 345.928,418.745 346.5,420.5 Z"/></g>
<g><path style="opacity:1" fill="#a2a2a2" d="M 1181.5,385.5 C 1181.5,397.5 1181.5,409.5 1181.5,421.5C 1178.17,421.5 1174.83,421.5 1171.5,421.5C 1171.5,408.833 1171.5,396.167 1171.5,383.5C 1172.82,383.179 1174.15,382.846 1175.5,382.5C 1177.51,383.519 1179.51,384.519 1181.5,385.5 Z"/></g>
<g><path style="opacity:1" fill="#000000" d="M 1135.5,385.5 C 1137.93,389.666 1140.43,394 1143,398.5C 1148.82,406.049 1156.32,408.715 1165.5,406.5C 1166.52,407.002 1166.69,407.668 1166,408.5C 1155.55,410.784 1147.22,407.451 1141,398.5C 1138.06,394.626 1136.23,390.293 1135.5,385.5 Z"/></g>
<g><path style="opacity:1" fill="#fefffe" d="M 343.5,420.5 C 339.5,420.5 335.5,420.5 331.5,420.5C 332.786,417.883 334.453,415.55 336.5,413.5C 339.068,415.673 341.401,418.006 343.5,420.5 Z"/></g>
<g><path style="opacity:1" fill="#000000" d="M 1111.5,741.5 C 1099.23,739.98 1087.23,737.313 1075.5,733.5C 1041.49,740.187 1007.16,743.52 972.5,743.5C 961.188,744.72 949.855,745.72 938.5,746.5C 930.816,745.896 923.149,745.063 915.5,744C 900.67,740.042 885.67,736.876 870.5,734.5C 862.679,736.411 855.679,739.911 849.5,745C 840.786,744.875 832.12,744.042 823.5,742.5C 823.5,667.833 823.5,593.167 823.5,518.5C 919.5,518.5 1015.5,518.5 1111.5,518.5C 1111.5,592.833 1111.5,667.167 1111.5,741.5 Z"/></g>
<g><path style="opacity:1" fill="#999a99" d="M 1191.5,804.5 C 1189.4,805.612 1187.07,806.279 1184.5,806.5C 1184.5,710.5 1184.5,614.5 1184.5,518.5C 1186.83,518.5 1189.17,518.5 1191.5,518.5C 1191.5,613.833 1191.5,709.167 1191.5,804.5 Z"/></g>
<g><path style="opacity:1" fill="#999a99" d="M 1215.5,819.5 C 1214.04,819.433 1212.71,819.766 1211.5,820.5C 1211.5,719.833 1211.5,619.167 1211.5,518.5C 1212.83,518.5 1214.17,518.5 1215.5,518.5C 1215.5,618.833 1215.5,719.167 1215.5,819.5 Z"/></g>
<g><path style="opacity:1" fill="#999a99" d="M 1225.5,818.5 C 1224.9,817.1 1223.9,816.1 1222.5,815.5C 1222.5,716.5 1222.5,617.5 1222.5,518.5C 1223.5,518.5 1224.5,518.5 1225.5,518.5C 1225.5,618.5 1225.5,718.5 1225.5,818.5 Z"/></g>
<g><path style="opacity:1" fill="#000000" d="M 1314.5,1018.5 C 1314.83,973.997 1314.5,929.664 1313.5,885.5C 1313.5,763.167 1313.5,640.833 1313.5,518.5C 1416.83,518.5 1520.17,518.5 1623.5,518.5C 1623.5,685.167 1623.5,851.833 1623.5,1018.5C 1520.5,1018.5 1417.5,1018.5 1314.5,1018.5 Z"/></g>
<g><path style="opacity:1" fill="#000000" d="M 299.5,931.5 C 299.5,960.833 299.5,990.167 299.5,1019.5C 203.5,1019.5 107.5,1019.5 11.5,1019.5C 11.5,852.833 11.5,686.167 11.5,519.5C 107.5,519.5 203.5,519.5 299.5,519.5C 299.333,636.167 299.5,752.834 300,869.5C 302.222,867.615 304.056,865.449 305.5,863C 299.889,858.96 299.222,854.293 303.5,849C 310.853,846.094 314.687,848.594 315,856.5C 316.833,854.667 318.667,852.833 320.5,851C 318.444,848.556 315.944,846.723 313,845.5C 312.409,844.517 312.743,843.85 314,843.5C 317.072,845.287 320.239,846.953 323.5,848.5C 325.167,847.167 326.833,845.833 328.5,844.5C 330.167,844.5 331.833,844.5 333.5,844.5C 331.473,847.194 329.139,849.527 326.5,851.5C 329.086,855.443 329.086,859.443 326.5,863.5C 324.856,860.655 323.356,857.655 322,854.5C 318.333,857.833 314.667,861.167 311,864.5C 310.333,865.167 310.333,865.833 311,866.5C 314.12,868.113 316.287,870.447 317.5,873.5C 314.339,872.53 311.506,870.863 309,868.5C 308.333,870.833 308.333,873.167 309,875.5C 311.847,878.183 314.347,881.183 316.5,884.5C 315.635,885.583 314.635,885.749 313.5,885C 311.278,882.735 308.945,880.568 306.5,878.5C 304.174,880.997 302.007,883.664 300,886.5C 299.5,901.496 299.333,916.496 299.5,931.5 Z"/></g>
<g><path style="opacity:1" fill="#000000" d="M 502.5,1019.5 C 502.832,974.997 502.499,930.664 501.5,886.5C 501.5,764.167 501.5,641.833 501.5,519.5C 604.833,519.5 708.167,519.5 811.5,519.5C 811.5,686.167 811.5,852.833 811.5,1019.5C 708.5,1019.5 605.5,1019.5 502.5,1019.5 Z"/></g>
<g><path style="opacity:1" fill="#b3b4b3" d="M 1111.5,741.5 C 1113.45,754.587 1114.12,767.92 1113.5,781.5C 1113.5,782.167 1113.5,782.833 1113.5,783.5C 1113.03,806.164 1112.69,828.831 1112.5,851.5C 1112.5,853.167 1112.5,854.833 1112.5,856.5C 1112.5,859.167 1112.5,861.833 1112.5,864.5C 1109.8,859.62 1106.47,855.12 1102.5,851C 1098.6,850.262 1094.93,850.928 1091.5,853C 1083.83,857.167 1076.17,861.333 1068.5,865.5C 1067.91,865.291 1067.41,864.957 1067,864.5C 1062.03,849.95 1057.36,835.284 1053,820.5C 1046.96,806.418 1039.96,793.084 1032,780.5C 1029.5,781.151 1028.16,782.818 1028,785.5C 1025.13,804.052 1021.63,822.385 1017.5,840.5C 1009.96,836.481 1001.96,834.648 993.5,835C 990.382,836.059 987.382,837.392 984.5,839C 972.662,846.418 960.996,854.085 949.5,862C 940.158,862.834 930.824,863.667 921.5,864.5C 915.582,863.607 909.748,863.273 904,863.5C 899.8,852.565 895.8,841.565 892,830.5C 889.67,828.968 887.67,829.302 886,831.5C 885.528,837.432 884.694,843.265 883.5,849C 875.118,849.242 866.785,848.908 858.5,848C 855.203,850.295 852.203,852.962 849.5,856C 846.39,856.609 844.39,858.443 843.5,861.5C 837.078,857.075 830.411,853.075 823.5,849.5C 823.5,813.833 823.5,778.167 823.5,742.5C 832.12,744.042 840.786,744.875 849.5,745C 855.679,739.911 862.679,736.411 870.5,734.5C 885.67,736.876 900.67,740.042 915.5,744C 923.149,745.063 930.816,745.896 938.5,746.5C 943.481,763.421 948.315,780.421 953,797.5C 957.146,809.391 960.813,809.391 964,797.5C 965.463,787.054 967.463,776.721 970,766.5C 970.451,758.74 971.284,751.073 972.5,743.5C 1007.16,743.52 1041.49,740.187 1075.5,733.5C 1087.23,737.313 1099.23,739.98 1111.5,741.5 Z"/></g>
<g><path style="opacity:1" fill="#000000" d="M 1128.5,735.5 C 1130.71,735.291 1132.38,736.124 1133.5,738C 1133.18,739.653 1132.18,740.653 1130.5,741C 1125.73,743.488 1121.4,742.988 1117.5,739.5C 1121.13,737.738 1124.8,736.404 1128.5,735.5 Z"/></g>
<g><path style="opacity:1" fill="#747574" d="M 972.5,743.5 C 971.284,751.073 970.451,758.74 970,766.5C 967.463,776.721 965.463,787.054 964,797.5C 960.813,809.391 957.146,809.391 953,797.5C 948.315,780.421 943.481,763.421 938.5,746.5C 949.855,745.72 961.188,744.72 972.5,743.5 Z"/></g>
<g><path style="opacity:1" fill="#050505" d="M 1113.5,783.5 C 1113.5,782.833 1113.5,782.167 1113.5,781.5C 1120.47,777.679 1127.47,773.846 1134.5,770C 1133.3,769.097 1132.47,767.931 1132,766.5C 1126.42,768.478 1120.75,770.145 1115,771.5C 1114.38,770.551 1114.55,769.718 1115.5,769C 1120.85,767.829 1126.18,766.663 1131.5,765.5C 1132.96,760.546 1136.29,757.38 1141.5,756C 1146.77,754.809 1152.1,754.309 1157.5,754.5C 1157.09,758.203 1156.43,761.87 1155.5,765.5C 1156.43,769.965 1157.77,774.299 1159.5,778.5C 1159.18,779.647 1158.52,780.481 1157.5,781C 1154.71,781.241 1152.04,781.908 1149.5,783C 1150.83,783.333 1152.17,783.667 1153.5,784C 1154.71,784.893 1154.71,785.726 1153.5,786.5C 1151.06,787.112 1148.56,787.445 1146,787.5C 1138.53,786.256 1131.03,785.256 1123.5,784.5C 1124,782.403 1124.33,780.57 1124.5,779C 1130.15,777.075 1135.82,775.408 1141.5,774C 1139.41,773.208 1137.58,772.041 1136,770.5C 1128.72,775.224 1121.22,779.557 1113.5,783.5 Z"/></g>
<g><path style="opacity:1" fill="#747574" d="M 1112.5,864.5 C 1112.5,865.5 1112.5,866.5 1112.5,867.5C 1112.5,868.5 1112.5,869.5 1112.5,870.5C 1016.17,870.5 919.833,870.5 823.5,870.5C 823.5,863.5 823.5,856.5 823.5,849.5C 830.411,853.075 837.078,857.075 843.5,861.5C 844.39,858.443 846.39,856.609 849.5,856C 852.203,852.962 855.203,850.295 858.5,848C 866.785,848.908 875.118,849.242 883.5,849C 884.694,843.265 885.528,837.432 886,831.5C 887.67,829.302 889.67,828.968 892,830.5C 895.8,841.565 899.8,852.565 904,863.5C 909.748,863.273 915.582,863.607 921.5,864.5C 930.824,863.667 940.158,862.834 949.5,862C 960.996,854.085 972.662,846.418 984.5,839C 987.382,837.392 990.382,836.059 993.5,835C 1001.96,834.648 1009.96,836.481 1017.5,840.5C 1021.63,822.385 1025.13,804.052 1028,785.5C 1028.16,782.818 1029.5,781.151 1032,780.5C 1039.96,793.084 1046.96,806.418 1053,820.5C 1057.36,835.284 1062.03,849.95 1067,864.5C 1067.41,864.957 1067.91,865.291 1068.5,865.5C 1076.17,861.333 1083.83,857.167 1091.5,853C 1094.93,850.928 1098.6,850.262 1102.5,851C 1106.47,855.12 1109.8,859.62 1112.5,864.5 Z"/></g>
<g><path style="opacity:1" fill="#000000" d="M 1240.5,798.5 C 1241.12,798.611 1241.62,798.944 1242,799.5C 1242.04,808.678 1243.21,817.678 1245.5,826.5C 1245.17,826.833 1244.83,827.167 1244.5,827.5C 1243.19,826.088 1242.36,824.421 1242,822.5C 1240.84,814.541 1240.34,806.541 1240.5,798.5 Z"/></g>
<g><path style="opacity:1" fill="#000000" d="M 1191.5,807.5 C 1188.57,807.565 1185.91,808.232 1183.5,809.5C 1178.52,810.332 1173.52,810.498 1168.5,810C 1167.22,808.703 1167.38,807.536 1169,806.5C 1174.02,808.791 1179.18,808.791 1184.5,806.5C 1187.07,806.279 1189.4,805.612 1191.5,804.5C 1195.58,803.863 1199.41,802.53 1203,800.5C 1203.5,801 1204,801.5 1204.5,802C 1200.08,803.885 1195.74,805.719 1191.5,807.5 Z"/></g>
<g><path style="opacity:1" fill="#9d9d9d" d="M 1191.5,807.5 C 1191.5,821.5 1191.5,835.5 1191.5,849.5C 1198.17,849.5 1204.83,849.5 1211.5,849.5C 1211.5,841.5 1211.5,833.5 1211.5,825.5C 1211.63,823.91 1212.29,822.577 1213.5,821.5C 1214.38,824.13 1215.05,826.797 1215.5,829.5C 1215.5,836.167 1215.5,842.833 1215.5,849.5C 1217.83,849.5 1220.17,849.5 1222.5,849.5C 1224.14,849.714 1225.64,849.38 1227,848.5C 1229.78,853.428 1233.61,854.595 1238.5,852C 1236.17,851.667 1233.83,851.333 1231.5,851C 1230.94,850.617 1230.61,850.117 1230.5,849.5C 1233.83,849.5 1237.17,849.5 1240.5,849.5C 1242.7,850.219 1244.2,849.219 1245,846.5C 1246.76,848.765 1248.92,850.432 1251.5,851.5C 1251.5,877.833 1251.5,904.167 1251.5,930.5C 1225.17,930.5 1198.83,930.5 1172.5,930.5C 1172.5,903.5 1172.5,876.5 1172.5,849.5C 1176.5,849.5 1180.5,849.5 1184.5,849.5C 1184.5,837.833 1184.5,826.167 1184.5,814.5C 1185.99,821.67 1187.32,829.004 1188.5,836.5C 1189.31,827.666 1188.31,818.999 1185.5,810.5C 1185.04,809.702 1184.38,809.369 1183.5,809.5C 1185.91,808.232 1188.57,807.565 1191.5,807.5 Z"/></g>
<g><path style="opacity:1" fill="#000000" d="M 1183.5,809.5 C 1184.38,809.369 1185.04,809.702 1185.5,810.5C 1188.31,818.999 1189.31,827.666 1188.5,836.5C 1187.32,829.004 1185.99,821.67 1184.5,814.5C 1184.37,812.784 1184.04,811.117 1183.5,809.5 Z"/></g>
<g><path style="opacity:1" fill="#040404" d="M 1222.5,815.5 C 1223.9,816.1 1224.9,817.1 1225.5,818.5C 1225.5,820.833 1225.5,823.167 1225.5,825.5C 1226.5,825.5 1227.5,825.5 1228.5,825.5C 1228.11,822.07 1228.77,818.904 1230.5,816C 1232.47,815.462 1233.47,816.296 1233.5,818.5C 1232.9,820.857 1231.9,823.023 1230.5,825C 1231.93,826.44 1233.6,826.774 1235.5,826C 1236.96,824.255 1238.29,822.422 1239.5,820.5C 1239.83,820.833 1240.17,821.167 1240.5,821.5C 1238.47,827.638 1234.8,829.305 1229.5,826.5C 1228.26,827.246 1226.93,827.579 1225.5,827.5C 1224.05,824.647 1223.05,821.647 1222.5,818.5C 1222.19,817.262 1221.69,817.262 1221,818.5C 1219.96,821.757 1219.46,825.09 1219.5,828.5C 1218.04,828.433 1216.71,828.766 1215.5,829.5C 1215.05,826.797 1214.38,824.13 1213.5,821.5C 1212.29,822.577 1211.63,823.91 1211.5,825.5C 1210.66,827.792 1209.66,830.125 1208.5,832.5C 1207.9,828.233 1208.9,824.233 1211.5,820.5C 1212.71,819.766 1214.04,819.433 1215.5,819.5C 1216.23,822.079 1216.73,824.746 1217,827.5C 1217.54,824.471 1218.21,821.471 1219,818.5C 1220.04,817.29 1221.21,816.29 1222.5,815.5 Z"/></g>
<g><path style="opacity:1" fill="#fefffe" d="M 1222.5,818.5 C 1222.5,828.167 1222.5,837.833 1222.5,847.5C 1222.5,848.167 1222.5,848.833 1222.5,849.5C 1220.17,849.5 1217.83,849.5 1215.5,849.5C 1215.5,842.833 1215.5,836.167 1215.5,829.5C 1216.71,828.766 1218.04,828.433 1219.5,828.5C 1219.46,825.09 1219.96,821.757 1221,818.5C 1221.69,817.262 1222.19,817.262 1222.5,818.5 Z"/></g>
<g><path style="opacity:1" fill="#999a99" d="M 1222.5,818.5 C 1223.05,821.647 1224.05,824.647 1225.5,827.5C 1225.5,834.167 1225.5,840.833 1225.5,847.5C 1224.5,847.5 1223.5,847.5 1222.5,847.5C 1222.5,837.833 1222.5,828.167 1222.5,818.5 Z"/></g>
<g><path style="opacity:1" fill="#000000" d="M 1194.5,822.5 C 1196,824.768 1197.34,827.268 1198.5,830C 1199.33,830.688 1200,830.521 1200.5,829.5C 1200.98,828.069 1201.64,826.736 1202.5,825.5C 1203.83,827.5 1205.17,829.5 1206.5,831.5C 1204.67,832.571 1203.51,831.904 1203,829.5C 1201.33,832.6 1199.16,833.1 1196.5,831C 1194.82,828.435 1194.15,825.602 1194.5,822.5 Z"/></g>
<g><path style="opacity:1" fill="#000000" d="M 1251.5,851.5 C 1248.92,850.432 1246.76,848.765 1245,846.5C 1244.2,849.219 1242.7,850.219 1240.5,849.5C 1243.91,846.865 1244.24,843.865 1241.5,840.5C 1241.67,840.167 1241.83,839.833 1242,839.5C 1242.69,840.357 1243.52,841.023 1244.5,841.5C 1245.35,839.096 1246.35,836.763 1247.5,834.5C 1247.83,835 1248.17,835.5 1248.5,836C 1247.26,839.098 1246.76,842.265 1247,845.5C 1247.76,847.635 1249.26,848.968 1251.5,849.5C 1252.38,845.846 1253.21,842.179 1254,838.5C 1255.08,834.894 1257.24,833.894 1260.5,835.5C 1261.3,837.078 1261.8,838.744 1262,840.5C 1263.07,839.809 1264.23,839.309 1265.5,839C 1263.73,838.465 1263.4,837.631 1264.5,836.5C 1266,837.752 1267.67,838.752 1269.5,839.5C 1272.09,837.238 1274.75,837.071 1277.5,839C 1275.57,839.35 1273.57,840.017 1271.5,841C 1272.69,842.353 1274.02,843.52 1275.5,844.5C 1276.8,841.362 1278.97,839.029 1282,837.5C 1284.61,839.037 1285.11,841.037 1283.5,843.5C 1285.08,840.932 1287.41,839.599 1290.5,839.5C 1291.02,833.832 1291.69,828.165 1292.5,822.5C 1293.19,823.025 1293.69,823.692 1294,824.5C 1294.22,831.37 1294.72,838.203 1295.5,845C 1295.17,845.5 1294.83,846 1294.5,846.5C 1293.38,844.631 1292.54,842.631 1292,840.5C 1291.06,844.728 1288.9,848.061 1285.5,850.5C 1281.9,849.244 1278.57,847.577 1275.5,845.5C 1274.41,846.727 1273.08,847.56 1271.5,848C 1267.34,848.185 1263.34,849.018 1259.5,850.5C 1257.97,850.471 1256.8,849.804 1256,848.5C 1256.26,847.049 1256.1,845.716 1255.5,844.5C 1255.19,850.118 1255.02,855.785 1255,861.5C 1253.16,858.319 1251.99,854.986 1251.5,851.5 Z"/></g>
<g><path style="opacity:1" fill="#000000" d="M 1300.5,831.5 C 1301.81,833.915 1302.48,836.748 1302.5,840C 1302.62,843.355 1302.12,846.522 1301,849.5C 1300.5,843.509 1300.33,837.509 1300.5,831.5 Z"/></g>
<g><path style="opacity:1" fill="#000000" d="M 1230.5,849.5 C 1230.61,850.117 1230.94,850.617 1231.5,851C 1233.83,851.333 1236.17,851.667 1238.5,852C 1233.61,854.595 1229.78,853.428 1227,848.5C 1225.64,849.38 1224.14,849.714 1222.5,849.5C 1222.5,848.833 1222.5,848.167 1222.5,847.5C 1223.5,847.5 1224.5,847.5 1225.5,847.5C 1226.12,847.389 1226.62,847.056 1227,846.5C 1227.33,844.5 1227.67,842.5 1228,840.5C 1230,837.113 1232.83,835.613 1236.5,836C 1238.21,837.133 1238.71,838.633 1238,840.5C 1235.97,844.026 1233.14,846.693 1229.5,848.5C 1229.62,849.107 1229.96,849.44 1230.5,849.5 Z"/></g>
<g><path style="opacity:1" fill="#fefffe" d="M 1256.5,836.5 C 1257.5,836.5 1258.5,836.5 1259.5,836.5C 1260.11,839.969 1258.78,841.969 1255.5,842.5C 1255.52,840.435 1255.85,838.435 1256.5,836.5 Z"/></g>
<g><path style="opacity:1" fill="#fefffe" d="M 1232.5,837.5 C 1233.83,837.5 1235.17,837.5 1236.5,837.5C 1236.42,841.585 1234.42,844.252 1230.5,845.5C 1229.37,843.926 1229.2,842.259 1230,840.5C 1231.04,839.627 1231.88,838.627 1232.5,837.5 Z"/></g>
<g><path style="opacity:1" fill="#fefffe" d="M 1281.5,839.5 C 1282.53,839.897 1282.69,840.563 1282,841.5C 1281.16,843.007 1280,843.507 1278.5,843C 1279.71,841.961 1280.71,840.794 1281.5,839.5 Z"/></g>
<g><path style="opacity:1" fill="#fefffe" d="M 1266.5,840.5 C 1267.62,842.377 1267.29,844.21 1265.5,846C 1263.03,848.099 1260.36,848.599 1257.5,847.5C 1259.27,843.462 1262.27,841.129 1266.5,840.5 Z"/></g>
<g><path style="opacity:1" fill="#fefffe" d="M 1287.5,841.5 C 1288.38,841.369 1289.04,841.702 1289.5,842.5C 1285.4,850.362 1284.73,850.029 1287.5,841.5 Z"/></g>
<g><path style="opacity:1" fill="#000000" d="M 1136.5,843.5 C 1136.9,842.475 1137.56,842.308 1138.5,843C 1144.46,848.787 1149.46,855.287 1153.5,862.5C 1154.63,863.262 1155.79,863.929 1157,864.5C 1156.19,859.061 1154.35,853.894 1151.5,849C 1152.45,848.383 1153.28,848.549 1154,849.5C 1156.11,854.055 1157.94,858.722 1159.5,863.5C 1159.29,864.086 1158.96,864.586 1158.5,865C 1163.41,868.078 1167.08,872.244 1169.5,877.5C 1167.52,880.389 1164.69,881.723 1161,881.5C 1157.83,881.387 1154.99,880.387 1152.5,878.5C 1150.34,873.843 1148.67,869.009 1147.5,864C 1148.72,860.816 1149.89,860.983 1151,864.5C 1151.67,863.5 1151.67,862.5 1151,861.5C 1147.06,854.733 1142.23,848.733 1136.5,843.5 Z"/></g>
<g><path style="opacity:1" fill="#fefffe" d="M 1269.5,842.5 C 1274.55,845.238 1273.88,846.405 1267.5,846C 1268.31,844.887 1268.97,843.721 1269.5,842.5 Z"/></g>
<g><path style="opacity:1" fill="#fefffe" d="M 1283.5,843.5 C 1283.5,844.5 1283.5,845.5 1283.5,846.5C 1277.2,846.595 1277.2,845.595 1283.5,843.5 Z"/></g>
<g><path style="opacity:1" fill="#020202" d="M 425.5,850.5 C 424.244,850.461 423.244,850.961 422.5,852C 439.469,853.81 439.803,857.31 423.5,862.5C 422.167,861.833 422.167,861.167 423.5,860.5C 427.209,859.812 430.543,858.312 433.5,856C 429.152,855.427 424.819,854.76 420.5,854C 420,853.5 419.5,853 419,852.5C 418.097,853.701 416.931,854.535 415.5,855C 417.929,855.451 418.096,856.285 416,857.5C 411.557,855.325 410.723,852.325 413.5,848.5C 415.868,845.647 418.868,844.481 422.5,845C 423.071,846.205 423.738,847.372 424.5,848.5C 430.718,847.12 431.052,847.786 425.5,850.5 Z"/></g>
<g><path style="opacity:1" fill="#e4e4e4" d="M 418.5,846.5 C 420.355,846.272 421.188,846.939 421,848.5C 419.833,849.667 418.667,850.833 417.5,852C 416.056,852.781 414.723,852.614 413.5,851.5C 414.882,849.451 416.548,847.785 418.5,846.5 Z"/></g>
<g><path style="opacity:1" fill="#000000" d="M 1111.5,930.5 C 1111.5,959.833 1111.5,989.167 1111.5,1018.5C 1015.5,1018.5 919.5,1018.5 823.5,1018.5C 823.5,969.167 823.5,919.833 823.5,870.5C 919.833,870.5 1016.17,870.5 1112.5,870.5C 1112.5,869.5 1112.5,868.5 1112.5,867.5C 1114.51,866.161 1116.17,864.494 1117.5,862.5C 1115.81,860.481 1114.14,858.481 1112.5,856.5C 1112.5,854.833 1112.5,853.167 1112.5,851.5C 1116.23,845.855 1120.73,845.188 1126,849.5C 1127.47,855.233 1125.63,859.566 1120.5,862.5C 1122.75,865.295 1125.42,867.628 1128.5,869.5C 1129.39,870.325 1129.72,871.325 1129.5,872.5C 1126.34,871.53 1123.51,869.863 1121,867.5C 1120.33,869.833 1120.33,872.167 1121,874.5C 1123.85,877.183 1126.35,880.183 1128.5,883.5C 1127.64,884.583 1126.64,884.749 1125.5,884C 1123.28,881.735 1120.94,879.568 1118.5,877.5C 1116.17,879.997 1114.01,882.664 1112,885.5C 1111.5,900.496 1111.33,915.496 1111.5,930.5 Z"/></g>
<g><path style="opacity:1" fill="#020202" d="M 360.5,858.5 C 362.671,856.5 365.004,854.666 367.5,853C 371.644,851.592 373.477,852.759 373,856.5C 374.264,854.393 376.097,853.393 378.5,853.5C 378.231,855.429 378.731,857.095 380,858.5C 381.69,855.976 383.857,853.976 386.5,852.5C 387.522,852.855 388.189,853.522 388.5,854.5C 387.448,854.351 386.448,854.517 385.5,855C 383.288,857.043 381.288,859.209 379.5,861.5C 378.833,860.833 378.167,860.167 377.5,859.5C 374.163,862.554 371.997,861.888 371,857.5C 368.5,859.536 365.833,859.87 363,858.5C 362.51,859.793 362.343,861.127 362.5,862.5C 364.752,863.333 366.919,863.333 369,862.5C 370.795,863.719 370.628,864.719 368.5,865.5C 365.733,865.142 363.067,864.475 360.5,863.5C 360.565,863.062 360.399,862.728 360,862.5C 355.812,865.494 352.312,864.827 349.5,860.5C 349.833,860.167 350.167,859.833 350.5,859.5C 352.882,862.862 355.549,863.195 358.5,860.5C 356.056,858.105 353.39,855.938 350.5,854C 352.732,851.265 355.399,849.098 358.5,847.5C 358.833,847.833 359.167,848.167 359.5,848.5C 356.804,849.851 354.47,851.684 352.5,854C 355.356,855.259 358.023,856.759 360.5,858.5 Z"/></g>
<g><path style="opacity:1" fill="#000000" d="M 397.5,859.5 C 395.098,863.078 391.765,864.245 387.5,863C 384.815,859.883 385.148,857.05 388.5,854.5C 390.473,853.513 392.473,852.513 394.5,851.5C 395.308,851.808 395.975,852.308 396.5,853C 394.051,853.725 391.717,854.725 389.5,856C 387.845,857.444 387.178,859.278 387.5,861.5C 391.08,862.077 394.08,861.077 396.5,858.5C 397.107,858.624 397.44,858.957 397.5,859.5 Z"/></g>
<g><path style="opacity:1" fill="#000000" d="M 1300.5,851.5 C 1302.97,851.947 1303.14,852.947 1301,854.5C 1300.52,853.552 1300.35,852.552 1300.5,851.5 Z"/></g>
<g><path style="opacity:1" fill="#fefffe" d="M 1242.5,853.5 C 1243.38,853.369 1244.04,853.702 1244.5,854.5C 1243.81,856.444 1243.31,858.444 1243,860.5C 1242.51,858.866 1242.34,857.199 1242.5,855.5C 1231.08,854.869 1219.91,855.536 1209,857.5C 1199.42,855.704 1189.59,854.871 1179.5,855C 1200.67,854.832 1221.67,854.332 1242.5,853.5 Z"/></g>
<g><path style="opacity:1" fill="#a4a4a4" d="M 375.5,855.5 C 376.867,857.093 376.534,858.426 374.5,859.5C 374.167,859.167 373.833,858.833 373.5,858.5C 374.193,857.482 374.859,856.482 375.5,855.5 Z"/></g>
<g><path style="opacity:1" fill="#9d9d9d" d="M 388.5,854.5 C 385.148,857.05 384.815,859.883 387.5,863C 391.765,864.245 395.098,863.078 397.5,859.5C 397.5,866.167 397.5,872.833 397.5,879.5C 394.317,881.096 391.15,881.763 388,881.5C 386.775,876.915 386.275,872.248 386.5,867.5C 389.099,867.549 391.266,868.549 393,870.5C 392.813,867.644 391.146,865.977 388,865.5C 386.739,865.759 385.739,866.426 385,867.5C 384.18,872.638 384.68,877.638 386.5,882.5C 386.167,883.167 385.833,883.833 385.5,884.5C 387.019,886.556 387.853,888.89 388,891.5C 388.333,891.833 388.667,892.167 389,892.5C 389.288,889.47 389.455,886.636 389.5,884C 390.167,883.833 390.833,883.667 391.5,883.5C 393.241,885.244 395.241,886.577 397.5,887.5C 397.5,902.167 397.5,916.833 397.5,931.5C 388.167,931.5 378.833,931.5 369.5,931.5C 369.477,909.494 369.143,887.494 368.5,865.5C 370.628,864.719 370.795,863.719 369,862.5C 366.919,863.333 364.752,863.333 362.5,862.5C 362.343,861.127 362.51,859.793 363,858.5C 365.833,859.87 368.5,859.536 371,857.5C 371.997,861.888 374.163,862.554 377.5,859.5C 378.167,860.167 378.833,860.833 379.5,861.5C 381.288,859.209 383.288,857.043 385.5,855C 386.448,854.517 387.448,854.351 388.5,854.5 Z"/></g>
<g><path style="opacity:1" fill="#9c9c9c" d="M 399.5,850.5 C 400.038,852.117 400.371,853.784 400.5,855.5C 403.434,854.711 405.268,852.711 406,849.5C 406.333,852.5 406.667,855.5 407,858.5C 407.965,860.26 409.132,860.594 410.5,859.5C 408.74,856.788 408.073,853.788 408.5,850.5C 410.498,740.505 411.165,630.172 410.5,519.5C 411.5,519.5 412.5,519.5 413.5,519.5C 413.5,629.167 413.5,738.833 413.5,848.5C 410.723,852.325 411.557,855.325 416,857.5C 418.096,856.285 417.929,855.451 415.5,855C 416.931,854.535 418.097,853.701 419,852.5C 419.5,853 420,853.5 420.5,854C 424.819,854.76 429.152,855.427 433.5,856C 430.543,858.312 427.209,859.812 423.5,860.5C 422.167,861.167 422.167,861.833 423.5,862.5C 439.803,857.31 439.469,853.81 422.5,852C 423.244,850.961 424.244,850.461 425.5,850.5C 430.167,850.5 434.833,850.5 439.5,850.5C 439.5,859.5 439.5,868.5 439.5,877.5C 439.5,878.5 439.5,879.5 439.5,880.5C 439.5,897.5 439.5,914.5 439.5,931.5C 425.5,931.5 411.5,931.5 397.5,931.5C 397.5,916.833 397.5,902.167 397.5,887.5C 402.835,887.995 405.335,885.662 405,880.5C 402.292,876.424 399.792,876.091 397.5,879.5C 397.5,872.833 397.5,866.167 397.5,859.5C 397.44,858.957 397.107,858.624 396.5,858.5C 394.08,861.077 391.08,862.077 387.5,861.5C 387.178,859.278 387.845,857.444 389.5,856C 391.717,854.725 394.051,853.725 396.5,853C 395.975,852.308 395.308,851.808 394.5,851.5C 392.473,852.513 390.473,853.513 388.5,854.5C 388.189,853.522 387.522,852.855 386.5,852.5C 383.857,853.976 381.69,855.976 380,858.5C 378.731,857.095 378.231,855.429 378.5,853.5C 376.097,853.393 374.264,854.393 373,856.5C 373.477,852.759 371.644,851.592 367.5,853C 365.004,854.666 362.671,856.5 360.5,858.5C 360.5,855.833 360.5,853.167 360.5,850.5C 364.5,850.5 368.5,850.5 372.5,850.5C 372.5,740.167 372.5,629.833 372.5,519.5C 374.833,519.5 377.167,519.5 379.5,519.5C 379.5,629.833 379.5,740.167 379.5,850.5C 386.167,850.5 392.833,850.5 399.5,850.5 Z"/></g>
<g><path style="opacity:1" fill="#c5c5c5" d="M 367.5,854.5 C 368.675,854.281 369.675,854.614 370.5,855.5C 368.809,857.256 366.809,857.756 364.5,857C 365.571,856.148 366.571,855.315 367.5,854.5 Z"/></g>
<g><path style="opacity:1" fill="#000000" d="M 399.5,836.5 C 400.395,841.812 401.229,847.145 402,852.5C 403.039,851.756 403.539,850.756 403.5,849.5C 404.794,848.71 405.961,847.71 407,846.5C 408.188,847.563 408.688,848.897 408.5,850.5C 408.073,853.788 408.74,856.788 410.5,859.5C 409.132,860.594 407.965,860.26 407,858.5C 406.667,855.5 406.333,852.5 406,849.5C 405.268,852.711 403.434,854.711 400.5,855.5C 400.371,853.784 400.038,852.117 399.5,850.5C 399.223,846.444 398.556,842.444 397.5,838.5C 397.747,837.287 398.414,836.62 399.5,836.5 Z"/></g>
<g><path style="opacity:1" fill="#999a99" d="M 403.5,849.5 C 403.539,850.756 403.039,851.756 402,852.5C 401.229,847.145 400.395,841.812 399.5,836.5C 399.5,730.833 399.5,625.167 399.5,519.5C 400.833,519.5 402.167,519.5 403.5,519.5C 403.5,629.5 403.5,739.5 403.5,849.5 Z"/></g>
<g><path style="opacity:1" fill="#fefffe" d="M 1112.5,856.5 C 1114.14,858.481 1115.81,860.481 1117.5,862.5C 1116.17,864.494 1114.51,866.161 1112.5,867.5C 1112.5,866.5 1112.5,865.5 1112.5,864.5C 1112.5,861.833 1112.5,859.167 1112.5,856.5 Z"/></g>
<g><path style="opacity:1" fill="#060606" d="M 468.5,862.5 C 470.295,869.487 471.628,876.82 472.5,884.5C 472.192,885.308 471.692,885.975 471,886.5C 470.086,882.858 469.252,879.192 468.5,875.5C 466.712,877.576 465.046,879.743 463.5,882C 460.756,882.628 458.756,881.628 457.5,879C 458.249,877.266 458.749,875.433 459,873.5C 460.907,870.713 462.407,870.88 463.5,874C 462.38,875.737 461.38,877.571 460.5,879.5C 461,879.833 461.5,880.167 462,880.5C 466.598,875.475 468.765,869.475 468.5,862.5 Z"/></g>
<g><path style="opacity:1" fill="#999a99" d="M 360.5,863.5 C 363.067,864.475 365.733,865.142 368.5,865.5C 369.143,887.494 369.477,909.494 369.5,931.5C 366.5,931.5 363.5,931.5 360.5,931.5C 360.5,908.833 360.5,886.167 360.5,863.5 Z"/></g>
<g><path style="opacity:1" fill="#010101" d="M 397.5,879.5 C 399.792,876.091 402.292,876.424 405,880.5C 405.335,885.662 402.835,887.995 397.5,887.5C 395.241,886.577 393.241,885.244 391.5,883.5C 390.833,883.667 390.167,883.833 389.5,884C 389.455,886.636 389.288,889.47 389,892.5C 388.667,892.167 388.333,891.833 388,891.5C 387.853,888.89 387.019,886.556 385.5,884.5C 385.833,883.833 386.167,883.167 386.5,882.5C 384.68,877.638 384.18,872.638 385,867.5C 385.739,866.426 386.739,865.759 388,865.5C 391.146,865.977 392.813,867.644 393,870.5C 391.266,868.549 389.099,867.549 386.5,867.5C 386.275,872.248 386.775,876.915 388,881.5C 391.15,881.763 394.317,881.096 397.5,879.5 Z"/></g>
<g><path style="opacity:1" fill="#000000" d="M 419.5,867.5 C 421.413,870.335 422.413,873.668 422.5,877.5C 426.193,878.056 428.86,876.722 430.5,873.5C 431.347,875.061 431.014,876.561 429.5,878C 431.594,878.445 433.094,877.612 434,875.5C 434.928,877.307 436.094,878.974 437.5,880.5C 437.167,880.833 436.833,881.167 436.5,881.5C 435.5,880.833 434.5,880.167 433.5,879.5C 430.229,880.198 426.896,880.198 423.5,879.5C 423.719,880.675 423.386,881.675 422.5,882.5C 420.351,877.755 419.351,872.755 419.5,867.5 Z"/></g>
<g><path style="opacity:1" fill="#fefffe" d="M 1115.5,868.5 C 1117.34,869.204 1117.84,870.537 1117,872.5C 1112.82,882.486 1111.15,882.486 1112,872.5C 1113.38,871.295 1114.54,869.962 1115.5,868.5 Z"/></g>
<g><path style="opacity:1" fill="#fefffe" d="M 303.5,869.5 C 305.344,870.204 305.844,871.537 305,873.5C 300.817,883.486 299.15,883.486 300,873.5C 301.376,872.295 302.542,870.962 303.5,869.5 Z"/></g>
<g><path style="opacity:1" fill="#000000" d="M 451.5,872.5 C 452.496,872.414 453.329,872.748 454,873.5C 454.147,876.11 454.981,878.444 456.5,880.5C 455.132,881.594 453.965,881.26 453,879.5C 452.039,873.325 450.705,873.658 449,880.5C 448.308,879.975 447.808,879.308 447.5,878.5C 448.467,876.21 449.8,874.21 451.5,872.5 Z"/></g>
<g><path style="opacity:1" fill="#000000" d="M 439.5,880.5 C 439.5,879.5 439.5,878.5 439.5,877.5C 440.493,875.677 441.993,874.344 444,873.5C 445.947,874.044 446.78,875.377 446.5,877.5C 446.167,878.5 445.833,879.5 445.5,880.5C 444.833,878.833 444.167,877.167 443.5,875.5C 442.388,877.419 441.054,879.086 439.5,880.5 Z"/></g>
<g><path style="opacity:1" fill="#000000" d="M 409.5,876.5 C 409.976,879.402 411.309,881.902 413.5,884C 408.632,883.711 407.299,881.211 409.5,876.5 Z"/></g>
<g><path style="opacity:1" fill="#a3a3a3" d="M 400.5,879.5 C 403.244,880.072 404.077,881.738 403,884.5C 394.167,886.294 393.333,884.627 400.5,879.5 Z"/></g>
<g><path style="opacity:1" fill="#444544" d="M 1313.5,885.5 C 1314.5,929.664 1314.83,973.997 1314.5,1018.5C 1246.83,1018.5 1179.17,1018.5 1111.5,1018.5C 1111.5,989.167 1111.5,959.833 1111.5,930.5C 1131.83,930.5 1152.17,930.5 1172.5,930.5C 1198.83,930.5 1225.17,930.5 1251.5,930.5C 1272.17,930.5 1292.83,930.5 1313.5,930.5C 1313.5,915.5 1313.5,900.5 1313.5,885.5 Z"/></g>
<g><path style="opacity:1" fill="#444544" d="M 501.5,886.5 C 502.499,930.664 502.832,974.997 502.5,1019.5C 434.833,1019.5 367.167,1019.5 299.5,1019.5C 299.5,990.167 299.5,960.833 299.5,931.5C 319.833,931.5 340.167,931.5 360.5,931.5C 363.5,931.5 366.5,931.5 369.5,931.5C 378.833,931.5 388.167,931.5 397.5,931.5C 411.5,931.5 425.5,931.5 439.5,931.5C 460.167,931.5 480.833,931.5 501.5,931.5C 501.5,916.5 501.5,901.5 501.5,886.5 Z"/></g>
<g><path style="opacity:1" fill="#000000" d="M 1131.5,902.5 C 1132.24,902.369 1132.91,902.536 1133.5,903C 1129.36,906.12 1127.52,910.287 1128,915.5C 1126.07,920.581 1122.91,924.581 1118.5,927.5C 1115.67,926.518 1114.34,924.518 1114.5,921.5C 1114.82,916.914 1115.98,912.581 1118,908.5C 1120.71,905.022 1123.71,904.689 1127,907.5C 1128.71,905.963 1130.21,904.296 1131.5,902.5 Z"/></g>
<g><path style="opacity:1" fill="#000000" d="M 300.5,1253.5 C 288.231,1251.98 276.231,1249.31 264.5,1245.5C 230.494,1252.19 196.161,1255.52 161.5,1255.5C 150.188,1256.72 138.855,1257.72 127.5,1258.5C 119.816,1257.9 112.149,1257.06 104.5,1256C 89.6695,1252.04 74.6695,1248.88 59.5,1246.5C 51.6787,1248.41 44.6787,1251.91 38.5,1257C 29.7862,1256.88 21.1196,1256.04 12.5,1254.5C 12.5,1179.83 12.5,1105.17 12.5,1030.5C 108.5,1030.5 204.5,1030.5 300.5,1030.5C 300.5,1104.83 300.5,1179.17 300.5,1253.5 Z"/></g>
<g><path style="opacity:1" fill="#9b9b9b" d="M 440.5,1442.5 C 414.167,1442.5 387.833,1442.5 361.5,1442.5C 361.5,1415.5 361.5,1388.5 361.5,1361.5C 365.5,1361.5 369.5,1361.5 373.5,1361.5C 373.5,1251.17 373.5,1140.83 373.5,1030.5C 375.833,1030.5 378.167,1030.5 380.5,1030.5C 380.5,1140.83 380.5,1251.17 380.5,1361.5C 387.167,1361.5 393.833,1361.5 400.5,1361.5C 400.5,1251.17 400.5,1140.83 400.5,1030.5C 401.833,1030.5 403.167,1030.5 404.5,1030.5C 404.5,1140.83 404.5,1251.17 404.5,1361.5C 406.833,1361.5 409.167,1361.5 411.5,1361.5C 411.5,1251.17 411.5,1140.83 411.5,1030.5C 412.5,1030.5 413.5,1030.5 414.5,1030.5C 414.5,1140.83 414.5,1251.17 414.5,1361.5C 423.167,1361.5 431.833,1361.5 440.5,1361.5C 440.5,1388.5 440.5,1415.5 440.5,1442.5 Z"/></g>
<g><path style="opacity:1" fill="#000000" d="M 812.5,1261.5 C 802.436,1260.97 792.436,1259.97 782.5,1258.5C 780.054,1259.98 780.388,1261.15 783.5,1262C 793.156,1263.02 802.823,1263.86 812.5,1264.5C 812.5,1278.83 812.5,1293.17 812.5,1307.5C 803.322,1306.33 794.988,1308.66 787.5,1314.5C 785.585,1316.07 784.585,1318.07 784.5,1320.5C 778.51,1321.24 772.51,1321.41 766.5,1321C 773.888,1316.94 780.722,1312.11 787,1306.5C 789.175,1303.33 788.341,1301.16 784.5,1300C 781.5,1299.33 778.5,1299.33 775.5,1300C 772.22,1300.06 769.22,1300.89 766.5,1302.5C 766.808,1303.31 767.308,1303.97 768,1304.5C 771.896,1303.47 775.896,1302.8 780,1302.5C 782.051,1302.42 783.884,1302.92 785.5,1304C 778.86,1310.14 771.526,1315.31 763.5,1319.5C 761.997,1320.59 761.664,1321.76 762.5,1323C 768.616,1324.8 774.783,1324.96 781,1323.5C 785.527,1325.68 790.361,1327.01 795.5,1327.5C 799.523,1327.2 803.356,1326.2 807,1324.5C 808.765,1325.63 810.598,1326.63 812.5,1327.5C 812.5,1336.17 812.5,1344.83 812.5,1353.5C 810.855,1357.11 809.522,1360.78 808.5,1364.5C 809.5,1364.5 810.5,1364.5 811.5,1364.5C 811.263,1363.21 811.596,1362.21 812.5,1361.5C 812.5,1417.83 812.5,1474.17 812.5,1530.5C 709.5,1530.5 606.5,1530.5 503.5,1530.5C 503.832,1486 503.499,1441.66 502.5,1397.5C 502.5,1275.17 502.5,1152.83 502.5,1030.5C 605.833,1030.5 709.167,1030.5 812.5,1030.5C 812.5,1107.5 812.5,1184.5 812.5,1261.5 Z"/></g>
<g><path style="opacity:1" fill="#000000" d="M 1625.5,1126.5 C 1588.82,1125.09 1552.16,1125.42 1515.5,1127.5C 1488.5,1128.15 1461.5,1128.82 1434.5,1129.5C 1380,1131.57 1325.83,1136.9 1272,1145.5C 1265.39,1145.85 1259.22,1144.35 1253.5,1141C 1247.61,1139.36 1241.61,1138.36 1235.5,1138C 1203.84,1135.99 1172.18,1135.49 1140.5,1136.5C 1123.85,1137.37 1107.18,1137.71 1090.5,1137.5C 1090.17,1137.5 1089.83,1137.5 1089.5,1137.5C 1068.17,1138.5 1046.83,1139.5 1025.5,1140.5C 1003.4,1141.45 981.397,1140.11 959.5,1136.5C 946.906,1139.11 934.906,1137.61 923.5,1132C 904.839,1128.33 886.506,1129.67 868.5,1136C 863.22,1137.09 857.887,1137.59 852.5,1137.5C 843.546,1135.67 834.546,1135.34 825.5,1136.5C 825.5,1101.83 825.5,1067.17 825.5,1032.5C 1092.17,1032.5 1358.83,1032.5 1625.5,1032.5C 1625.5,1063.83 1625.5,1095.17 1625.5,1126.5 Z"/></g>
<g><path style="opacity:1" fill="#b3b4b3" d="M 1625.5,1126.5 C 1625.5,1188.17 1625.5,1249.83 1625.5,1311.5C 1621.47,1289.7 1616.3,1268.03 1610,1246.5C 1608.6,1242.72 1606.1,1241.72 1602.5,1243.5C 1592.46,1287.34 1581.62,1331 1570,1374.5C 1569.33,1377.5 1567.83,1380 1565.5,1382C 1565.83,1382.33 1566.17,1382.67 1566.5,1383C 1555.17,1383.67 1545.5,1380 1537.5,1372C 1527.53,1370.5 1517.53,1369.34 1507.5,1368.5C 1507.95,1367.54 1508.62,1366.71 1509.5,1366C 1506.33,1362.17 1503.17,1358.33 1500,1354.5C 1499.18,1351.45 1499.35,1348.45 1500.5,1345.5C 1503.05,1346.93 1505.38,1348.6 1507.5,1350.5C 1508.91,1350.13 1509.91,1349.3 1510.5,1348C 1506.76,1345.14 1503.09,1342.31 1499.5,1339.5C 1501.76,1337.05 1503.93,1334.39 1506,1331.5C 1507.79,1320.95 1503.63,1317.12 1493.5,1320C 1489.87,1323.05 1488.7,1326.88 1490,1331.5C 1491.32,1334.31 1493.16,1336.65 1495.5,1338.5C 1492.77,1341.74 1489.77,1344.9 1486.5,1348C 1487.33,1348.83 1488.17,1349.67 1489,1350.5C 1490.82,1348.6 1492.82,1346.93 1495,1345.5C 1495.67,1349.17 1495.67,1352.83 1495,1356.5C 1491.41,1359.9 1488.91,1363.9 1487.5,1368.5C 1459.51,1376.37 1430.84,1379.87 1401.5,1379C 1390.05,1383.94 1381.72,1392.11 1376.5,1403.5C 1375.68,1404.39 1374.68,1404.72 1373.5,1404.5C 1363.58,1350.9 1346.74,1299.56 1323,1250.5C 1320.14,1247.6 1317.8,1247.93 1316,1251.5C 1315.67,1255.83 1315.33,1260.17 1315,1264.5C 1314.83,1297.86 1313.83,1331.19 1312,1364.5C 1308.55,1357.88 1303.38,1353.22 1296.5,1350.5C 1291.58,1351.91 1287.58,1354.74 1284.5,1359C 1282.04,1360.56 1279.38,1361.56 1276.5,1362C 1257.2,1365.12 1237.87,1368.12 1218.5,1371C 1204.52,1372.1 1190.52,1372.76 1176.5,1373C 1171.1,1380.29 1166.6,1388.13 1163,1396.5C 1151.12,1390.81 1139.29,1384.98 1127.5,1379C 1115.65,1378.33 1103.82,1377.5 1092,1376.5C 1077.53,1378.21 1063.03,1379.54 1048.5,1380.5C 1039.62,1380.44 1030.78,1379.77 1022,1378.5C 1014.81,1378.47 1007.98,1379.97 1001.5,1383C 990.5,1392.67 979.5,1402.33 968.5,1412C 963.028,1412.38 957.861,1412.88 953,1413.5C 941.416,1405.06 928.583,1402.23 914.5,1405C 888.497,1405.45 862.497,1405.95 836.5,1406.5C 833.324,1392.13 829.991,1377.8 826.5,1363.5C 829.147,1358.89 828.814,1354.23 825.5,1349.5C 825.5,1341.83 825.5,1334.17 825.5,1326.5C 833.264,1320.25 834.431,1312.91 829,1304.5C 827.989,1303.66 826.822,1303.33 825.5,1303.5C 825.5,1290.5 825.5,1277.5 825.5,1264.5C 834.798,1265.4 844.131,1266.4 853.5,1267.5C 853.5,1266.5 853.5,1265.5 853.5,1264.5C 844.131,1263.4 834.798,1262.4 825.5,1261.5C 825.5,1248.17 825.5,1234.83 825.5,1221.5C 834.467,1193.6 843.467,1165.6 852.5,1137.5C 857.887,1137.59 863.22,1137.09 868.5,1136C 886.506,1129.67 904.839,1128.33 923.5,1132C 934.906,1137.61 946.906,1139.11 959.5,1136.5C 981.397,1140.11 1003.4,1141.45 1025.5,1140.5C 1030.1,1172.07 1033.93,1203.73 1037,1235.5C 1040.65,1251.44 1043.98,1267.44 1047,1283.5C 1049.52,1286.33 1051.52,1285.99 1053,1282.5C 1060.39,1254.66 1068.39,1226.99 1077,1199.5C 1082.39,1179.06 1086.55,1158.39 1089.5,1137.5C 1089.83,1137.5 1090.17,1137.5 1090.5,1137.5C 1091.05,1139.69 1092.22,1140.35 1094,1139.5C 1098,1151.84 1103.83,1163.17 1111.5,1173.5C 1114.61,1177.26 1117.78,1177.26 1121,1173.5C 1129.07,1162.03 1135.57,1149.7 1140.5,1136.5C 1172.18,1135.49 1203.84,1135.99 1235.5,1138C 1241.61,1138.36 1247.61,1139.36 1253.5,1141C 1259.22,1144.35 1265.39,1145.85 1272,1145.5C 1325.83,1136.9 1380,1131.57 1434.5,1129.5C 1440.75,1163.94 1447.59,1198.27 1455,1232.5C 1456.97,1241.41 1460.3,1249.75 1465,1257.5C 1469.22,1263.21 1473.55,1263.54 1478,1258.5C 1483.44,1241.73 1488.11,1224.73 1492,1207.5C 1500.46,1180.99 1508.29,1154.32 1515.5,1127.5C 1552.16,1125.42 1588.82,1125.09 1625.5,1126.5 Z"/></g>
<g><path style="opacity:1" fill="#747574" d="M 1515.5,1127.5 C 1508.29,1154.32 1500.46,1180.99 1492,1207.5C 1488.11,1224.73 1483.44,1241.73 1478,1258.5C 1473.55,1263.54 1469.22,1263.21 1465,1257.5C 1460.3,1249.75 1456.97,1241.41 1455,1232.5C 1447.59,1198.27 1440.75,1163.94 1434.5,1129.5C 1461.5,1128.82 1488.5,1128.15 1515.5,1127.5 Z"/></g>
<g><path style="opacity:1" fill="#757575" d="M 852.5,1137.5 C 843.467,1165.6 834.467,1193.6 825.5,1221.5C 825.5,1193.17 825.5,1164.83 825.5,1136.5C 834.546,1135.34 843.546,1135.67 852.5,1137.5 Z"/></g>
<g><path style="opacity:1" fill="#747574" d="M 1140.5,1136.5 C 1135.57,1149.7 1129.07,1162.03 1121,1173.5C 1117.78,1177.26 1114.61,1177.26 1111.5,1173.5C 1103.83,1163.17 1098,1151.84 1094,1139.5C 1092.22,1140.35 1091.05,1139.69 1090.5,1137.5C 1107.18,1137.71 1123.85,1137.37 1140.5,1136.5 Z"/></g>
<g><path style="opacity:1" fill="#747574" d="M 1089.5,1137.5 C 1086.55,1158.39 1082.39,1179.06 1077,1199.5C 1068.39,1226.99 1060.39,1254.66 1053,1282.5C 1051.52,1285.99 1049.52,1286.33 1047,1283.5C 1043.98,1267.44 1040.65,1251.44 1037,1235.5C 1033.93,1203.73 1030.1,1172.07 1025.5,1140.5C 1046.83,1139.5 1068.17,1138.5 1089.5,1137.5 Z"/></g>
<g><path style="opacity:1" fill="#757575" d="M 1625.5,1311.5 C 1625.5,1346.17 1625.5,1380.83 1625.5,1415.5C 1579.54,1412.93 1533.54,1412.09 1487.5,1413C 1365.5,1416.71 1243.5,1420.38 1121.5,1424C 1022.81,1425.08 924.144,1424.24 825.5,1421.5C 825.5,1401.83 825.5,1382.17 825.5,1362.5C 826.167,1362.5 826.5,1362.83 826.5,1363.5C 829.991,1377.8 833.324,1392.13 836.5,1406.5C 862.497,1405.95 888.497,1405.45 914.5,1405C 928.583,1402.23 941.416,1405.06 953,1413.5C 957.861,1412.88 963.028,1412.38 968.5,1412C 979.5,1402.33 990.5,1392.67 1001.5,1383C 1007.98,1379.97 1014.81,1378.47 1022,1378.5C 1030.78,1379.77 1039.62,1380.44 1048.5,1380.5C 1063.03,1379.54 1077.53,1378.21 1092,1376.5C 1103.82,1377.5 1115.65,1378.33 1127.5,1379C 1139.29,1384.98 1151.12,1390.81 1163,1396.5C 1166.6,1388.13 1171.1,1380.29 1176.5,1373C 1190.52,1372.76 1204.52,1372.1 1218.5,1371C 1237.87,1368.12 1257.2,1365.12 1276.5,1362C 1279.38,1361.56 1282.04,1360.56 1284.5,1359C 1287.58,1354.74 1291.58,1351.91 1296.5,1350.5C 1303.38,1353.22 1308.55,1357.88 1312,1364.5C 1313.83,1331.19 1314.83,1297.86 1315,1264.5C 1315.33,1260.17 1315.67,1255.83 1316,1251.5C 1317.8,1247.93 1320.14,1247.6 1323,1250.5C 1346.74,1299.56 1363.58,1350.9 1373.5,1404.5C 1374.68,1404.72 1375.68,1404.39 1376.5,1403.5C 1381.72,1392.11 1390.05,1383.94 1401.5,1379C 1430.84,1379.87 1459.51,1376.37 1487.5,1368.5C 1488.83,1368.5 1490.17,1368.5 1491.5,1368.5C 1496.5,1368.5 1501.5,1368.5 1506.5,1368.5C 1506.83,1368.5 1507.17,1368.5 1507.5,1368.5C 1517.53,1369.34 1527.53,1370.5 1537.5,1372C 1545.5,1380 1555.17,1383.67 1566.5,1383C 1566.17,1382.67 1565.83,1382.33 1565.5,1382C 1567.83,1380 1569.33,1377.5 1570,1374.5C 1581.62,1331 1592.46,1287.34 1602.5,1243.5C 1606.1,1241.72 1608.6,1242.72 1610,1246.5C 1616.3,1268.03 1621.47,1289.7 1625.5,1311.5 Z"/></g>
<g><path style="opacity:1" fill="#b3b4b3" d="M 300.5,1253.5 C 301.813,1265.44 302.48,1277.61 302.5,1290C 301.964,1318.83 301.631,1347.66 301.5,1376.5C 299.992,1374.82 298.992,1372.82 298.5,1370.5C 298.719,1369.32 298.386,1368.32 297.5,1367.5C 294.418,1365.63 291.751,1363.29 289.5,1360.5C 294.633,1357.57 296.467,1353.23 295,1347.5C 289.879,1343.12 285.545,1343.79 282,1349.5C 281.333,1351.17 281.333,1352.83 282,1354.5C 283.339,1356.67 284.839,1358.67 286.5,1360.5C 285.606,1362.28 284.273,1363.61 282.5,1364.5C 274.063,1368.55 265.73,1372.89 257.5,1377.5C 256.914,1377.29 256.414,1376.96 256,1376.5C 251.028,1361.95 246.361,1347.28 242,1332.5C 235.964,1318.42 228.964,1305.08 221,1292.5C 218.496,1293.15 217.163,1294.82 217,1297.5C 214.133,1316.05 210.633,1334.38 206.5,1352.5C 198.956,1348.48 190.956,1346.65 182.5,1347C 179.382,1348.06 176.382,1349.39 173.5,1351C 161.662,1358.42 149.996,1366.08 138.5,1374C 129.158,1374.83 119.824,1375.67 110.5,1376.5C 104.582,1375.61 98.7484,1375.27 93,1375.5C 88.7998,1364.57 84.7998,1353.57 81,1342.5C 78.67,1340.97 76.67,1341.3 75,1343.5C 74.5276,1349.43 73.6942,1355.26 72.5,1361C 64.1181,1361.24 55.7848,1360.91 47.5,1360C 44.2026,1362.3 41.2026,1364.96 38.5,1368C 35.3901,1368.61 33.3901,1370.44 32.5,1373.5C 26.0781,1369.08 19.4114,1365.08 12.5,1361.5C 12.5,1325.83 12.5,1290.17 12.5,1254.5C 21.1196,1256.04 29.7862,1256.88 38.5,1257C 44.6787,1251.91 51.6787,1248.41 59.5,1246.5C 74.6695,1248.88 89.6695,1252.04 104.5,1256C 112.149,1257.06 119.816,1257.9 127.5,1258.5C 132.481,1275.42 137.315,1292.42 142,1309.5C 146.146,1321.39 149.813,1321.39 153,1309.5C 154.463,1299.05 156.463,1288.72 159,1278.5C 159.451,1270.74 160.284,1263.07 161.5,1255.5C 196.161,1255.52 230.494,1252.19 264.5,1245.5C 276.231,1249.31 288.231,1251.98 300.5,1253.5 Z"/></g>
<g><path style="opacity:1" fill="#0104ff" d="M 837.5,1250.5 C 848.276,1251.02 858.776,1253.02 869,1256.5C 872.162,1258.38 872.329,1260.54 869.5,1263C 859.552,1270.47 848.886,1276.64 837.5,1281.5C 837.5,1280.5 837.5,1279.5 837.5,1278.5C 842.715,1276.56 847.715,1274.06 852.5,1271C 857.899,1267.64 862.899,1263.81 867.5,1259.5C 857.643,1255.43 847.476,1253.76 837,1254.5C 835.07,1252.92 835.237,1251.59 837.5,1250.5 Z"/></g>
<g><path style="opacity:1" fill="#747574" d="M 161.5,1255.5 C 160.284,1263.07 159.451,1270.74 159,1278.5C 156.463,1288.72 154.463,1299.05 153,1309.5C 149.813,1321.39 146.146,1321.39 142,1309.5C 137.315,1292.42 132.481,1275.42 127.5,1258.5C 138.855,1257.72 150.188,1256.72 161.5,1255.5 Z"/></g>
<g><path style="opacity:1" fill="#0104ff" d="M 812.5,1261.5 C 816.833,1261.5 821.167,1261.5 825.5,1261.5C 834.798,1262.4 844.131,1263.4 853.5,1264.5C 853.5,1265.5 853.5,1266.5 853.5,1267.5C 844.131,1266.4 834.798,1265.4 825.5,1264.5C 821.167,1264.5 816.833,1264.5 812.5,1264.5C 802.823,1263.86 793.156,1263.02 783.5,1262C 780.388,1261.15 780.054,1259.98 782.5,1258.5C 792.436,1259.97 802.436,1260.97 812.5,1261.5 Z"/></g>
<g><path style="opacity:1" fill="#fefffe" d="M 812.5,1264.5 C 816.833,1264.5 821.167,1264.5 825.5,1264.5C 825.5,1277.5 825.5,1290.5 825.5,1303.5C 820.956,1304.19 816.789,1305.85 813,1308.5C 812.601,1308.27 812.435,1307.94 812.5,1307.5C 812.5,1293.17 812.5,1278.83 812.5,1264.5 Z"/></g>
<g><path style="opacity:1" fill="#747574" d="M 282.5,1364.5 C 281.19,1366.15 279.857,1367.81 278.5,1369.5C 279.365,1370.58 280.365,1370.75 281.5,1370C 282.685,1368.65 284.019,1367.48 285.5,1366.5C 285.833,1367.17 286.167,1367.83 286.5,1368.5C 284.947,1373.27 282.613,1377.61 279.5,1381.5C 190.502,1382.5 101.502,1382.83 12.5,1382.5C 12.5,1375.5 12.5,1368.5 12.5,1361.5C 19.4114,1365.08 26.0781,1369.08 32.5,1373.5C 33.3901,1370.44 35.3901,1368.61 38.5,1368C 41.2026,1364.96 44.2026,1362.3 47.5,1360C 55.7848,1360.91 64.1181,1361.24 72.5,1361C 73.6942,1355.26 74.5276,1349.43 75,1343.5C 76.67,1341.3 78.67,1340.97 81,1342.5C 84.7998,1353.57 88.7998,1364.57 93,1375.5C 98.7484,1375.27 104.582,1375.61 110.5,1376.5C 119.824,1375.67 129.158,1374.83 138.5,1374C 149.996,1366.08 161.662,1358.42 173.5,1351C 176.382,1349.39 179.382,1348.06 182.5,1347C 190.956,1346.65 198.956,1348.48 206.5,1352.5C 210.633,1334.38 214.133,1316.05 217,1297.5C 217.163,1294.82 218.496,1293.15 221,1292.5C 228.964,1305.08 235.964,1318.42 242,1332.5C 246.361,1347.28 251.028,1361.95 256,1376.5C 256.414,1376.96 256.914,1377.29 257.5,1377.5C 265.73,1372.89 274.063,1368.55 282.5,1364.5 Z"/></g>
<g><path style="opacity:1" fill="#0f08fd" d="M 812.5,1307.5 C 812.435,1307.94 812.601,1308.27 813,1308.5C 816.789,1305.85 820.956,1304.19 825.5,1303.5C 826.822,1303.33 827.989,1303.66 829,1304.5C 834.431,1312.91 833.264,1320.25 825.5,1326.5C 821.238,1328.45 816.904,1328.78 812.5,1327.5C 810.598,1326.63 808.765,1325.63 807,1324.5C 803.356,1326.2 799.523,1327.2 795.5,1327.5C 790.361,1327.01 785.527,1325.68 781,1323.5C 774.783,1324.96 768.616,1324.8 762.5,1323C 761.664,1321.76 761.997,1320.59 763.5,1319.5C 771.526,1315.31 778.86,1310.14 785.5,1304C 783.884,1302.92 782.051,1302.42 780,1302.5C 775.896,1302.8 771.896,1303.47 768,1304.5C 767.308,1303.97 766.808,1303.31 766.5,1302.5C 769.22,1300.89 772.22,1300.06 775.5,1300C 778.5,1299.33 781.5,1299.33 784.5,1300C 788.341,1301.16 789.175,1303.33 787,1306.5C 780.722,1312.11 773.888,1316.94 766.5,1321C 772.51,1321.41 778.51,1321.24 784.5,1320.5C 784.585,1318.07 785.585,1316.07 787.5,1314.5C 794.988,1308.66 803.322,1306.33 812.5,1307.5 Z"/></g>
<g><path style="opacity:1" fill="#f6f6f6" d="M 812.5,1324.5 C 812.5,1323.17 812.5,1321.83 812.5,1320.5C 813.71,1317.26 814.71,1313.92 815.5,1310.5C 817.001,1309.25 818.668,1308.25 820.5,1307.5C 821.506,1307.94 821.506,1308.6 820.5,1309.5C 822.078,1310.3 823.744,1310.8 825.5,1311C 824.007,1312.16 824.174,1312.99 826,1313.5C 828.163,1311.67 829.33,1312.17 829.5,1315C 826.72,1323.39 821.053,1326.56 812.5,1324.5 Z"/></g>
<g><path style="opacity:1" fill="#0104ff" d="M 848.5,1308.5 C 850.812,1309.48 852.478,1311.14 853.5,1313.5C 860.103,1308.98 865.437,1310.15 869.5,1317C 874.193,1317.82 874.526,1319.32 870.5,1321.5C 867.937,1319.89 865.937,1317.72 864.5,1315C 863.271,1314.22 861.938,1313.72 860.5,1313.5C 856.87,1315.16 853.203,1316.49 849.5,1317.5C 850.551,1311.21 849.051,1310.21 845,1314.5C 843.103,1317.13 841.603,1319.96 840.5,1323C 839.4,1323.43 838.733,1322.93 838.5,1321.5C 839.711,1315.36 843.044,1311.02 848.5,1308.5 Z"/></g>
<g><path style="opacity:1" fill="#000000" d="M 806.5,1309.5 C 807.922,1309.71 809.255,1310.21 810.5,1311C 807.74,1314.19 806.074,1317.85 805.5,1322C 801.042,1324.14 796.375,1324.81 791.5,1324C 790.695,1322.03 789.361,1320.53 787.5,1319.5C 792.006,1313.66 797.84,1310.99 805,1311.5C 806.03,1311.16 806.53,1310.5 806.5,1309.5 Z"/></g>
<g><path style="opacity:1" fill="#000000" d="M 1507.5,1368.5 C 1507.17,1368.5 1506.83,1368.5 1506.5,1368.5C 1503.5,1365.33 1500.67,1362 1498,1358.5C 1495.57,1361.69 1493.41,1365.02 1491.5,1368.5C 1490.17,1368.5 1488.83,1368.5 1487.5,1368.5C 1488.91,1363.9 1491.41,1359.9 1495,1356.5C 1495.67,1352.83 1495.67,1349.17 1495,1345.5C 1492.82,1346.93 1490.82,1348.6 1489,1350.5C 1488.17,1349.67 1487.33,1348.83 1486.5,1348C 1489.77,1344.9 1492.77,1341.74 1495.5,1338.5C 1493.16,1336.65 1491.32,1334.31 1490,1331.5C 1488.7,1326.88 1489.87,1323.05 1493.5,1320C 1503.63,1317.12 1507.79,1320.95 1506,1331.5C 1503.93,1334.39 1501.76,1337.05 1499.5,1339.5C 1503.09,1342.31 1506.76,1345.14 1510.5,1348C 1509.91,1349.3 1508.91,1350.13 1507.5,1350.5C 1505.38,1348.6 1503.05,1346.93 1500.5,1345.5C 1499.35,1348.45 1499.18,1351.45 1500,1354.5C 1503.17,1358.33 1506.33,1362.17 1509.5,1366C 1508.62,1366.71 1507.95,1367.54 1507.5,1368.5 Z"/></g>
<g><path style="opacity:1" fill="#000000" d="M 812.5,1320.5 C 812.5,1321.83 812.5,1323.17 812.5,1324.5C 809.833,1323.17 809.833,1321.83 812.5,1320.5 Z"/></g>
<g><path style="opacity:1" fill="#fefffe" d="M 825.5,1326.5 C 825.5,1334.17 825.5,1341.83 825.5,1349.5C 823.164,1347.61 820.498,1347.11 817.5,1348C 815.598,1349.73 813.931,1351.56 812.5,1353.5C 812.5,1344.83 812.5,1336.17 812.5,1327.5C 816.904,1328.78 821.238,1328.45 825.5,1326.5 Z"/></g>
<g><path style="opacity:1" fill="#0104ff" d="M 800.5,1334.5 C 802.384,1335.38 803.717,1336.88 804.5,1339C 803.975,1339.69 803.308,1340.19 802.5,1340.5C 799.884,1338.97 799.217,1336.97 800.5,1334.5 Z"/></g>
<g><path style="opacity:1" fill="#000000" d="M 298.5,1370.5 C 295.339,1369.53 292.506,1367.86 290,1365.5C 289.333,1367.83 289.333,1370.17 290,1372.5C 292.847,1375.18 295.347,1378.18 297.5,1381.5C 298.325,1382.39 299.325,1382.72 300.5,1382.5C 300.5,1402.5 300.5,1422.5 300.5,1442.5C 300.5,1471.83 300.5,1501.17 300.5,1530.5C 204.5,1530.5 108.5,1530.5 12.5,1530.5C 12.5,1481.17 12.5,1431.83 12.5,1382.5C 101.502,1382.83 190.502,1382.5 279.5,1381.5C 282.613,1377.61 284.947,1373.27 286.5,1368.5C 286.167,1367.83 285.833,1367.17 285.5,1366.5C 284.019,1367.48 282.685,1368.65 281.5,1370C 280.365,1370.75 279.365,1370.58 278.5,1369.5C 279.857,1367.81 281.19,1366.15 282.5,1364.5C 284.273,1363.61 285.606,1362.28 286.5,1360.5C 284.839,1358.67 283.339,1356.67 282,1354.5C 281.333,1352.83 281.333,1351.17 282,1349.5C 285.545,1343.79 289.879,1343.12 295,1347.5C 296.467,1353.23 294.633,1357.57 289.5,1360.5C 291.751,1363.29 294.418,1365.63 297.5,1367.5C 298.386,1368.32 298.719,1369.32 298.5,1370.5 Z"/></g>
<g><path style="opacity:1" fill="#0104ff" d="M 825.5,1349.5 C 828.814,1354.23 829.147,1358.89 826.5,1363.5C 826.5,1362.83 826.167,1362.5 825.5,1362.5C 825.664,1359.81 825.497,1357.15 825,1354.5C 822.523,1349.63 819.523,1349.3 816,1353.5C 814.546,1356.07 813.38,1358.74 812.5,1361.5C 811.596,1362.21 811.263,1363.21 811.5,1364.5C 810.5,1364.5 809.5,1364.5 808.5,1364.5C 809.522,1360.78 810.855,1357.11 812.5,1353.5C 813.931,1351.56 815.598,1349.73 817.5,1348C 820.498,1347.11 823.164,1347.61 825.5,1349.5 Z"/></g>
<g><path style="opacity:1" fill="#0104ff" d="M 797.5,1350.5 C 798.496,1350.41 799.329,1350.75 800,1351.5C 800.667,1355.83 800.667,1360.17 800,1364.5C 799.29,1365.97 798.124,1366.64 796.5,1366.5C 797.342,1361.21 797.676,1355.88 797.5,1350.5 Z"/></g>
<g><path style="opacity:1" fill="#b3b4b3" d="M 1506.5,1368.5 C 1501.5,1368.5 1496.5,1368.5 1491.5,1368.5C 1493.41,1365.02 1495.57,1361.69 1498,1358.5C 1500.67,1362 1503.5,1365.33 1506.5,1368.5 Z"/></g>
<g><path style="opacity:1" fill="#747574" d="M 298.5,1370.5 C 298.992,1372.82 299.992,1374.82 301.5,1376.5C 301.795,1378.74 301.461,1380.74 300.5,1382.5C 299.325,1382.72 298.325,1382.39 297.5,1381.5C 295.347,1378.18 292.847,1375.18 290,1372.5C 289.333,1370.17 289.333,1367.83 290,1365.5C 292.506,1367.86 295.339,1369.53 298.5,1370.5 Z"/></g>
<g><path style="opacity:1" fill="#fefffe" d="M 431.5,1365.5 C 432.376,1365.37 433.043,1365.7 433.5,1366.5C 432.811,1368.44 432.311,1370.44 432,1372.5C 431.506,1370.87 431.34,1369.2 431.5,1367.5C 420.078,1366.87 408.912,1367.54 398,1369.5C 388.422,1367.7 378.589,1366.87 368.5,1367C 389.671,1366.83 410.671,1366.33 431.5,1365.5 Z"/></g>
<g><path style="opacity:1" fill="#747574" d="M 286.5,1375.5 C 289.588,1377.08 292.254,1379.25 294.5,1382C 290.5,1382.67 286.5,1382.67 282.5,1382C 284.058,1379.95 285.392,1377.78 286.5,1375.5 Z"/></g>
<g><path style="opacity:1" fill="#444544" d="M 502.5,1397.5 C 503.499,1441.66 503.832,1486 503.5,1530.5C 435.833,1530.5 368.167,1530.5 300.5,1530.5C 300.5,1501.17 300.5,1471.83 300.5,1442.5C 320.833,1442.5 341.167,1442.5 361.5,1442.5C 387.833,1442.5 414.167,1442.5 440.5,1442.5C 461.167,1442.5 481.833,1442.5 502.5,1442.5C 502.5,1427.5 502.5,1412.5 502.5,1397.5 Z"/></g>
<g><path style="opacity:1" fill="#000000" d="M 1625.5,1415.5 C 1625.5,1454.5 1625.5,1493.5 1625.5,1532.5C 1358.83,1532.5 1092.17,1532.5 825.5,1532.5C 825.5,1495.5 825.5,1458.5 825.5,1421.5C 924.144,1424.24 1022.81,1425.08 1121.5,1424C 1243.5,1420.38 1365.5,1416.71 1487.5,1413C 1533.54,1412.09 1579.54,1412.93 1625.5,1415.5 Z"/></g>
</svg>
