<svg width="1862" height="1826" xmlns="http://www.w3.org/2000/svg" xmlns:xlink="http://www.w3.org/1999/xlink" xml:space="preserve" overflow="hidden"><g transform="translate(-719 -15)"><path d="M726 928C726 427.63 1139.69 22 1650 22 2160.31 22 2574 427.63 2574 928 2574 1428.37 2160.31 1834 1650 1834 1139.69 1834 726 1428.37 726 928Z" stroke="#FFFFFF" stroke-width="13.75" stroke-miterlimit="8" fill="#EA157A" fill-rule="evenodd"/><text fill="#FFFFFF" font-family="Arial,Arial_MSFontService,sans-serif" font-weight="700" font-size="73" transform="matrix(1 0 0 1 1321.72 196)">Have </text><text fill="#FFFFFF" font-family="Arial,Arial_MSFontService,sans-serif" font-weight="700" font-size="73" transform="matrix(1 0 0 1 1517.08 196)">fun</text><text fill="#FFFFFF" font-family="Arial,Arial_MSFontService,sans-serif" font-weight="700" font-size="73" transform="matrix(1 0 0 1 1651.72 196)">with</text><text fill="#FFFFFF" font-family="Arial,Arial_MSFontService,sans-serif" font-weight="700" font-size="73" transform="matrix(1 0 0 1 1819.58 196)">your</text><text fill="#FFFFFF" font-family="Arial,Arial_MSFontService,sans-serif" font-weight="700" font-size="73" transform="matrix(1 0 0 1 1452.34 284)">classmates</text><path d="M902 1111.5C902 712.474 1236.89 389 1650 389 2063.11 389 2398 712.474 2398 1111.5 2398 1510.53 2063.11 1834 1650 1834 1236.89 1834 902 1510.53 902 1111.5Z" stroke="#FFFFFF" stroke-width="13.75" stroke-miterlimit="8" fill="#FEB80A" fill-rule="evenodd"/><text fill="#FFFFFF" font-family="Arial,Arial_MSFontService,sans-serif" font-weight="700" font-size="73" transform="matrix(1 0 0 1 1331.46 522)">Putt</text><text fill="#FFFFFF" font-family="Arial,Arial_MSFontService,sans-serif" font-weight="700" font-size="73" transform="matrix(1 0 0 1 1494.74 522)">the</text><text fill="#FFFFFF" font-family="Arial,Arial_MSFontService,sans-serif" font-weight="700" font-size="73" transform="matrix(1 0 0 1 1625.36 522)">ball</text><text fill="#FFFFFF" font-family="Arial,Arial_MSFontService,sans-serif" font-weight="700" font-size="73" transform="matrix(1 0 0 1 1772.6 522)">in </text><text fill="#FFFFFF" font-family="Arial,Arial_MSFontService,sans-serif" font-weight="700" font-size="73" transform="matrix(1 0 0 1 1858.54 522)">the</text><text fill="#FFFFFF" font-family="Arial,Arial_MSFontService,sans-serif" font-weight="700" font-size="73" transform="matrix(1 0 0 1 1574.65 610)">hole</text><path d="M1078 1284C1078 980.243 1334.09 734 1650 734 1965.91 734 2222 980.243 2222 1284 2222 1587.76 1965.91 1834 1650 1834 1334.09 1834 1078 1587.76 1078 1284Z" stroke="#FFFFFF" stroke-width="13.75" stroke-miterlimit="8" fill="#00ADDC" fill-rule="evenodd"/><text fill="#FFFFFF" font-family="Arial,Arial_MSFontService,sans-serif" font-weight="700" font-size="73" transform="matrix(1 0 0 1 1395.34 972)">Phone a </text><text fill="#FFFFFF" font-family="Arial,Arial_MSFontService,sans-serif" font-weight="700" font-size="73" transform="matrix(1 0 0 1 1700.7 972)">friend</text><path d="M1320 1510.5C1320 1331.84 1467.75 1187 1650 1187 1832.25 1187 1980 1331.84 1980 1510.5 1980 1689.16 1832.25 1834 1650 1834 1467.75 1834 1320 1689.16 1320 1510.5Z" stroke="#FFFFFF" stroke-width="13.75" stroke-miterlimit="8" fill="#738AC8" fill-rule="evenodd"/><text fill="#FFFFFF" font-family="Arial,Arial_MSFontService,sans-serif" font-weight="700" font-size="73" transform="matrix(1 0 0 1 1584.17 1490)">Putt</text></g></svg>