<svg width="1862" height="1826" xmlns="http://www.w3.org/2000/svg" xmlns:xlink="http://www.w3.org/1999/xlink" xml:space="preserve" overflow="hidden"><g transform="translate(-719 -15)"><path d="M726 928C726 427.63 1139.69 22 1650 22 2160.31 22 2574 427.63 2574 928 2574 1428.37 2160.31 1834 1650 1834 1139.69 1834 726 1428.37 726 928Z" stroke="#FFFFFF" stroke-width="13.75" stroke-miterlimit="8" fill="#EA157A" fill-rule="evenodd"/><text fill="#FFFFFF" font-family="Arial,Arial_MSFontService,sans-serif" font-weight="700" font-size="73" transform="matrix(1 0 0 1 1368.98 196)">Save </text><text fill="#FFFFFF" font-family="Arial,Arial_MSFontService,sans-serif" font-weight="700" font-size="73" transform="matrix(1 0 0 1 1560.34 196)">T</text><text fill="#FFFFFF" font-family="Arial,Arial_MSFontService,sans-serif" font-weight="700" font-size="73" transform="matrix(1 0 0 1 1605.03 196)">he </text><text fill="#FFFFFF" font-family="Arial,Arial_MSFontService,sans-serif" font-weight="700" font-size="73" transform="matrix(1 0 0 1 1711.02 196)">Planet</text><text fill="#FFFFFF" font-family="Arial,Arial_MSFontService,sans-serif" font-weight="700" font-size="73" transform="matrix(1 0 0 1 1458.36 284)">From</text><text fill="#FFFFFF" font-family="Arial,Arial_MSFontService,sans-serif" font-weight="700" font-size="73" transform="matrix(1 0 0 1 1662.32 284)">Kaiju</text><path d="M902 1111.5C902 712.474 1236.89 389 1650 389 2063.11 389 2398 712.474 2398 1111.5 2398 1510.53 2063.11 1834 1650 1834 1236.89 1834 902 1510.53 902 1111.5Z" stroke="#FFFFFF" stroke-width="13.75" stroke-miterlimit="8" fill="#FEB80A" fill-rule="evenodd"/><text fill="#FFFFFF" font-family="Arial,Arial_MSFontService,sans-serif" font-weight="700" font-size="73" transform="matrix(1 0 0 1 1305.96 582)">Customize</text><text fill="#FFFFFF" font-family="Arial,Arial_MSFontService,sans-serif" font-weight="700" font-size="73" transform="matrix(1 0 0 1 1676.64 582)">/Upgrade </text><text fill="#FFFFFF" font-family="Arial,Arial_MSFontService,sans-serif" font-weight="700" font-size="73" transform="matrix(1 0 0 1 1556.33 670)">Mech</text><path d="M1078 1284C1078 980.243 1334.09 734 1650 734 1965.91 734 2222 980.243 2222 1284 2222 1587.76 1965.91 1834 1650 1834 1334.09 1834 1078 1587.76 1078 1284Z" stroke="#FFFFFF" stroke-width="13.75" stroke-miterlimit="8" fill="#00ADDC" fill-rule="evenodd"/><text fill="#FFFFFF" font-family="Arial,Arial_MSFontService,sans-serif" font-weight="700" font-size="73" transform="matrix(1 0 0 1 1383.02 946)">Defeating</text><text fill="#FFFFFF" font-family="Arial,Arial_MSFontService,sans-serif" font-weight="700" font-size="73" transform="matrix(1 0 0 1 1737.66 946)">Kaiju</text><text fill="#FFFFFF" font-family="Arial,Arial_MSFontService,sans-serif" font-weight="700" font-size="73" transform="matrix(1 0 0 1 1446.32 1034)">A</text><text fill="#FFFFFF" font-family="Arial,Arial_MSFontService,sans-serif" font-weight="700" font-size="73" transform="matrix(1 0 0 1 1499.02 1034)">nd</text><text fill="#FFFFFF" font-family="Arial,Arial_MSFontService,sans-serif" font-weight="700" font-size="73" transform="matrix(1 0 0 1 1609.02 1034)">Collect </text><text fill="#FFFFFF" font-family="Arial,Arial_MSFontService,sans-serif" font-weight="700" font-size="73" transform="matrix(1 0 0 1 1558.33 1122)">Parts</text><path d="M1320 1510.5C1320 1331.84 1467.75 1187 1650 1187 1832.25 1187 1980 1331.84 1980 1510.5 1980 1689.16 1832.25 1834 1650 1834 1467.75 1834 1320 1689.16 1320 1510.5Z" stroke="#FFFFFF" stroke-width="13.75" stroke-miterlimit="8" fill="#738AC8" fill-rule="evenodd"/><text fill="#FFFFFF" font-family="Arial,Arial_MSFontService,sans-serif" font-weight="700" font-size="73" transform="matrix(1 0 0 1 1483.28 1529)">Punching</text></g></svg>