<?xml version="1.0" standalone="no"?>
<!DOCTYPE svg PUBLIC "-//W3C//DTD SVG 20010904//EN"
 "http://www.w3.org/TR/2001/REC-SVG-20010904/DTD/svg10.dtd">
<svg version="1.0" xmlns="http://www.w3.org/2000/svg"
 width="2893.000000pt" height="1117.000000pt" viewBox="0 0 2893.000000 1117.000000"
 preserveAspectRatio="xMidYMid meet">

<g transform="translate(0.000000,1117.000000) scale(0.100000,-0.100000)"
fill="#000000" stroke="none">
<path d="M17135 10133 c-754 -8 -2612 -42 -3225 -58 -118 -3 -494 -12 -835
-20 -737 -18 -2761 -70 -3270 -85 -198 -6 -675 -19 -1060 -30 -385 -11 -848
-25 -1030 -30 -1803 -55 -2310 -63 -3452 -57 -1084 6 -1483 16 -2576 63 -415
18 -427 17 -427 -35 0 -16 6 -34 13 -40 21 -17 598 -90 621 -78 10 5 21 17 23
27 4 14 12 17 36 14 18 -2 181 -8 362 -14 182 -6 465 -15 630 -21 165 -5 753
-13 1306 -16 1152 -6 1651 2 3464 57 182 5 645 19 1030 30 385 11 862 24 1060
30 459 13 2463 65 3265 85 1067 26 1799 42 3070 66 294 5 1329 13 2300 16
1767 6 2515 0 4160 -32 415 -8 994 -19 1285 -25 292 -6 1016 -15 1610 -20
1095 -10 1309 -17 1330 -47 14 -19 64 -20 76 -2 14 22 10 66 -6 83 -49 48
-195 55 -1400 66 -594 5 -1314 14 -1600 20 -2937 57 -3234 60 -5010 58 -852
-2 -1640 -4 -1750 -5z"/>
<path d="M27152 9908 c-12 -15 -27 -255 -42 -658 -27 -717 -54 -1019 -185
-2025 -123 -946 -159 -1315 -153 -1565 4 -167 16 -213 61 -229 62 -23 109 46
58 87 -13 10 -17 39 -19 158 -6 238 33 631 148 1514 133 1017 163 1343 190
2060 6 157 15 361 21 454 9 147 8 171 -6 192 -17 26 -56 32 -73 12z"/>
<path d="M1307 9715 c-12 -11 -16 -72 -23 -302 -13 -432 -11 -1317 4 -1528 74
-1044 166 -1762 378 -2944 44 -246 48 -298 29 -373 -5 -19 -2 -31 14 -47 27
-27 46 -27 76 4 22 21 25 33 25 97 0 40 -14 152 -31 248 -106 606 -115 659
-102 648 8 -7 35 -9 71 -5 31 3 237 24 457 46 220 23 400 41 401 41 1 0 -1
-11 -3 -24 -6 -32 9 -102 53 -253 l36 -122 -35 -31 c-20 -17 -41 -47 -48 -67
-16 -50 -7 -132 22 -191 l25 -50 -136 -21 c-74 -12 -189 -28 -255 -36 -66 -9
-127 -18 -135 -20 -12 -4 -20 10 -32 52 -83 305 -128 479 -128 501 0 15 -9 42
-20 60 -24 38 -72 45 -90 12 -15 -28 3 -102 201 -802 60 -213 109 -389 109
-392 0 -2 -16 -13 -35 -25 -28 -16 -35 -27 -35 -50 0 -36 27 -54 72 -49 l31 3
52 -189 c54 -193 65 -216 109 -216 12 0 56 7 98 15 43 8 191 26 330 40 139 14
280 30 313 35 38 6 63 6 69 0 16 -16 46 -12 73 10 14 11 34 20 44 20 19 0 393
67 420 76 11 3 20 -5 29 -27 14 -33 42 -49 73 -41 20 5 47 51 47 80 0 15 25
24 171 56 94 20 225 52 292 71 l121 33 28 -21 c27 -20 31 -20 56 -6 22 12 28
24 32 64 3 28 2 59 -1 71 -10 28 -42 493 -35 509 4 12 121 49 141 45 48 -10
77 35 50 76 -19 29 -54 31 -137 8 -32 -9 -61 -15 -63 -12 -2 2 -11 65 -20 139
-20 170 -58 409 -85 524 -18 80 -95 361 -107 393 -3 7 3 12 15 12 26 0 45 24
49 63 2 18 6 53 9 79 l6 47 69 26 c67 26 119 70 119 101 0 16 -35 54 -50 54
-6 0 -33 -11 -60 -25 -33 -17 -51 -21 -56 -14 -14 23 -16 139 -5 259 13 135
35 220 56 220 17 0 35 -60 35 -120 0 -51 13 -70 45 -70 42 0 58 33 53 103 -9
112 -59 187 -125 187 -10 0 -23 10 -28 23 -13 29 -69 36 -83 10 -6 -10 -15
-54 -21 -98 -7 -44 -17 -104 -23 -132 -11 -52 -12 -53 -46 -53 -29 0 -44 -8
-81 -47 -88 -92 -181 -308 -181 -423 0 -55 3 -65 29 -91 16 -16 38 -29 48 -30
56 -3 -725 -136 -1077 -183 -235 -32 -1190 -129 -1249 -127 -26 0 -55 -6 -69
-15 -13 -9 -25 -14 -26 -12 -10 11 -105 659 -145 988 -125 1017 -159 1725
-131 2678 12 412 12 433 -5 452 -21 24 -48 26 -68 5z m2963 -3370 c1 -27 1
-95 1 -151 l-1 -101 -68 -32 c-97 -44 -106 -42 -100 17 10 95 134 351 158 326
5 -5 9 -31 10 -59z m10 -374 c0 -8 -12 -12 -75 -26 -11 -3 -2 4 20 14 46 22
55 24 55 12z m-34 -286 c77 -265 125 -516 155 -808 10 -96 10 -120 0 -127 -33
-20 -700 -234 -707 -227 -3 3 163 275 244 399 50 77 61 88 86 88 21 0 42 13
77 49 53 52 59 76 30 112 -18 22 -18 23 15 79 91 156 93 281 3 327 -36 19
-138 16 -200 -6 -123 -42 -305 -153 -413 -251 -32 -30 -61 -49 -65 -44 -5 5
-21 59 -36 121 -29 119 -38 132 -90 119 -28 -7 -32 -22 -41 -167 -6 -113 -6
-117 15 -129 12 -6 30 -8 40 -5 35 11 33 -25 -3 -65 -57 -63 -69 -87 -63 -124
5 -30 3 -34 -21 -39 -21 -4 -41 8 -109 67 -46 40 -112 87 -147 104 -64 32
-162 62 -202 62 -18 0 -26 13 -49 88 -50 158 -65 225 -53 239 6 7 8 24 6 38
-5 22 -1 25 36 30 23 3 131 16 241 30 201 25 732 112 1010 165 83 15 161 27
174 27 22 -2 27 -14 67 -152z m-133 -243 c-2 -41 -68 -184 -111 -239 -13 -17
-68 -36 -227 -82 -115 -33 -218 -61 -229 -63 -25 -4 -55 88 -34 107 134 126
293 237 417 292 61 27 87 33 131 31 l55 -3 -2 -43z m-1151 -370 c35 -16 86
-50 114 -74 l52 -44 -110 -23 c-61 -13 -113 -19 -117 -14 -8 8 -71 183 -71
195 0 11 68 -9 132 -40z m-198 -80 c30 -87 32 -101 18 -107 -17 -6 -22 -1 -57
67 -14 26 -25 61 -25 78 0 31 17 76 26 67 2 -2 20 -49 38 -105z m666 42 c0 -7
-11 -14 -25 -16 -24 -5 -24 -5 -8 23 16 27 32 24 33 -7z m454 -11 c-10 -16
-65 -102 -122 -193 -57 -91 -107 -168 -111 -173 -4 -4 -26 61 -50 144 -23 83
-41 152 -39 154 5 4 312 93 327 94 10 1 9 -6 -5 -26z m-400 -175 c72 -238 90
-316 77 -344 l-12 -27 -15 21 c-19 27 -69 30 -83 5 -8 -16 -14 -16 -58 -5 -87
24 -227 83 -325 140 -97 55 -97 56 -117 114 l-20 58 22 5 c12 3 72 16 132 29
105 23 111 24 130 7 11 -10 27 -21 36 -24 24 -8 59 20 59 47 0 20 8 25 68 39
37 8 70 15 74 16 4 1 18 -36 32 -81z m-680 -148 l82 -70 46 -145 45 -144 -66
-15 c-76 -17 -437 -86 -451 -86 -6 0 -10 11 -10 23 0 13 -9 32 -19 41 -22 20
-39 17 -114 -21 -27 -13 -51 -23 -52 -21 -4 4 -124 422 -122 425 1 0 88 13
192 27 105 14 224 32 265 40 117 22 114 23 204 -54z m1630 -265 c8 -115 14
-211 12 -212 -2 -2 -15 1 -28 8 -36 16 -68 -3 -68 -39 0 -16 5 -33 11 -39 16
-16 -35 -30 -468 -128 -18 -4 -23 1 -28 28 -10 44 -22 57 -56 57 -18 0 -29 6
-33 18 -28 96 -66 285 -60 291 5 4 72 26 149 49 77 23 232 73 345 110 113 38
206 68 207 67 2 -1 9 -95 17 -210z m-1219 19 c39 -15 74 -30 78 -34 4 -4 -39
-17 -95 -30 -57 -13 -108 -25 -114 -27 -8 -3 -64 155 -64 180 0 3 28 -10 63
-28 34 -19 94 -46 132 -61z m405 -102 c21 -80 80 -338 80 -353 0 -12 -36 -22
-167 -47 -93 -17 -188 -34 -212 -38 l-44 -7 7 127 c8 140 3 156 -43 156 -39 0
-51 -17 -52 -74 -1 -101 -13 -93 -50 30 l-36 118 241 62 c133 34 246 62 253
63 7 0 17 -16 23 -37z m-559 -291 l55 -179 -80 -10 c-45 -7 -178 -21 -296 -32
-118 -12 -245 -27 -283 -34 l-67 -13 -10 36 c-80 289 -79 281 -56 286 11 2
136 25 276 50 140 25 280 52 310 60 101 25 90 37 151 -164z"/>
<path d="M10415 7391 c-168 -58 -301 -114 -522 -221 -239 -116 -336 -169 -754
-410 -367 -213 -580 -328 -738 -399 -112 -51 -307 -121 -335 -121 -8 0 -31 24
-52 53 -124 172 -306 307 -415 307 -39 0 -50 4 -63 25 -12 18 -25 25 -49 25
-26 0 -42 -11 -92 -63 l-60 -63 -30 18 c-17 10 -45 18 -62 18 -30 0 -33 3 -33
33 -1 52 -32 82 -83 78 -25 -2 -39 -46 -28 -87 5 -19 6 -34 1 -34 -17 0 -93
-87 -118 -135 -23 -43 -27 -62 -27 -141 0 -83 2 -94 30 -139 20 -33 44 -55 72
-69 49 -24 54 -42 16 -57 -91 -32 -155 -94 -311 -294 -109 -142 -129 -178
-114 -210 15 -32 45 -39 86 -20 46 22 58 37 60 77 1 23 16 52 46 91 l45 58 6
-53 c12 -111 71 -245 144 -330 62 -72 61 -70 68 -98 13 -53 28 -329 22 -401
-6 -69 -9 -76 -26 -72 -11 3 -19 14 -19 28 0 56 -83 73 -96 19 -4 -15 -33 -83
-65 -153 -62 -132 -69 -161 -44 -181 32 -27 68 -15 116 39 25 29 55 67 65 86
19 35 43 52 53 37 3 -4 36 -46 72 -93 78 -99 178 -247 207 -305 23 -44 44 -56
80 -43 33 12 34 62 3 107 -10 15 -47 70 -81 122 -35 52 -90 129 -122 171 l-59
77 11 112 c9 86 9 150 -1 274 -19 241 -20 228 19 240 19 5 56 29 83 54 88 79
125 185 117 335 l-4 86 67 -92 c78 -105 124 -190 116 -211 -3 -8 -24 -24 -47
-36 -32 -16 -40 -26 -40 -48 0 -60 53 -69 119 -21 107 77 91 157 -71 380 -100
136 -145 179 -189 182 -21 1 -53 15 -79 35 -25 18 -61 38 -81 44 -28 8 -35 15
-32 28 3 10 15 21 27 24 41 10 105 76 136 140 24 48 33 85 41 161 9 87 14 103
40 137 17 21 32 38 34 38 1 0 -1 -17 -5 -37 -22 -95 48 -237 150 -305 87 -58
203 -83 322 -70 l67 8 37 -79 c20 -43 39 -98 42 -122 4 -41 3 -44 -21 -50 -14
-4 -29 -5 -34 -2 -4 3 -18 1 -31 -4 -19 -7 -23 -15 -20 -41 4 -43 42 -62 100
-53 118 20 140 141 57 308 -16 33 -28 61 -27 62 2 2 28 10 58 19 104 31 245
90 410 172 154 77 303 160 820 459 378 218 764 403 1045 500 61 21 116 43 123
48 19 15 15 65 -7 77 -26 13 -19 14 -146 -29z m-2752 -907 c76 -39 235 -185
268 -245 24 -44 -152 -28 -240 22 -76 44 -140 154 -125 216 8 28 49 31 97 7z
m-513 -70 c6 -14 10 -37 10 -52 0 -17 12 -38 33 -58 44 -42 54 -47 77 -34 18
10 19 9 9 -17 -6 -15 -22 -43 -36 -61 -25 -33 -25 -33 -40 -13 -21 30 -69 28
-85 -4 -7 -13 -18 -21 -24 -17 -62 42 -58 189 8 259 28 29 36 29 48 -3z m154
-604 c58 -103 45 -285 -26 -365 -44 -51 -81 -68 -130 -60 -47 8 -81 50 -124
153 -24 57 -28 81 -29 160 l0 93 37 35 c21 19 43 34 49 34 11 0 9 -98 -4 -295
-2 -35 34 -60 65 -44 32 17 40 57 45 227 l6 162 41 -24 c26 -15 51 -42 70 -76z"/>
<path d="M7520 7129 c-511 -67 -1043 -184 -1315 -289 -100 -39 -123 -59 -109
-97 14 -40 40 -40 142 1 289 116 968 259 1432 302 41 3 82 10 91 15 23 12 29
44 12 68 -18 26 -54 26 -253 0z"/>
<path d="M13292 6368 c-5 -7 -22 -48 -36 -91 -49 -147 -185 -395 -302 -550
-62 -83 -174 -177 -210 -177 -27 0 -64 -32 -64 -56 0 -14 -2 -14 -17 1 -11 11
-24 15 -42 10 -112 -28 -177 -2 -363 147 -220 175 -403 276 -485 266 -17 -2
-33 -13 -42 -30 -14 -25 -12 -37 46 -215 34 -103 64 -198 68 -210 6 -20 3 -23
-24 -23 -34 0 -71 -30 -71 -58 0 -10 7 -28 16 -40 22 -32 -5 -30 -36 3 -26 28
-61 32 -84 10 -8 -8 -26 -15 -40 -15 -43 0 -168 29 -241 56 -65 23 -75 31
-131 102 -34 42 -89 116 -122 163 -34 48 -69 89 -79 91 -51 14 -82 -33 -62
-91 6 -18 9 -34 7 -37 -3 -2 -30 7 -60 21 -82 37 -109 40 -141 15 -33 -26 -36
-74 -7 -139 24 -53 25 -49 -3 -44 -16 3 -37 -7 -70 -34 -25 -21 -68 -47 -94
-57 -144 -58 -274 -126 -282 -148 -9 -24 10 -113 28 -131 14 -14 14 -102 1
-126 -12 -24 -47 -37 -145 -56 -90 -18 -167 -50 -222 -92 -20 -15 -90 -90
-155 -166 -123 -144 -135 -168 -98 -202 17 -16 31 -17 107 -11 105 8 271 44
448 97 72 22 163 46 203 55 40 8 93 24 118 34 25 11 67 20 92 20 26 0 54 4 62
10 9 6 19 5 28 -3 8 -6 33 -11 56 -12 l41 0 22 -65 c18 -53 22 -88 23 -191 0
-145 4 -153 82 -164 78 -12 120 27 269 245 l45 65 125 3 126 3 7 -103 c12
-176 32 -218 102 -218 56 0 172 95 299 244 l50 59 55 -99 c109 -195 236 -274
300 -184 11 15 49 112 84 215 36 103 69 192 74 197 6 6 19 4 35 -7 21 -14 32
-14 69 -5 58 16 237 108 250 130 10 16 19 15 142 -6 171 -30 264 -31 300 -3
15 12 26 30 26 44 0 13 5 27 10 30 20 12 9 44 -64 186 -59 116 -72 151 -68
177 4 29 -1 39 -40 76 -52 49 -139 82 -313 116 -149 29 -146 27 -95 57 74 43
167 123 213 182 96 123 219 327 285 471 l29 65 11 -40 c21 -75 52 -277 52
-339 0 -122 -57 -264 -145 -361 -45 -49 -55 -81 -33 -103 38 -38 113 20 190
150 80 135 102 273 74 463 -19 128 -68 328 -95 391 -17 38 -24 44 -49 44 -16
0 -34 -6 -40 -12z m-1326 -629 c45 -27 150 -102 232 -168 125 -99 165 -124
234 -151 65 -25 94 -31 133 -28 l51 4 -4 -28 c-5 -31 20 -68 46 -68 7 0 26 7
41 16 26 15 36 15 180 -15 184 -38 231 -55 224 -80 -3 -11 7 -32 25 -52 34
-40 104 -197 91 -205 -21 -13 -9 -63 22 -88 l31 -26 -41 0 c-22 0 -105 11
-185 25 -80 14 -169 25 -198 25 -81 0 -187 -27 -240 -59 -47 -30 -80 -38 -108
-29 -8 3 -33 11 -55 17 -22 6 -103 52 -180 102 -133 87 -268 159 -297 159 -8
0 -19 14 -25 31 -7 17 -21 33 -32 36 -11 3 -27 18 -35 34 -13 27 -13 28 15 34
33 7 59 38 53 63 -3 11 6 23 26 34 36 21 38 41 6 99 -13 24 -47 112 -75 196
-28 83 -54 159 -58 168 -9 25 23 13 123 -46z m-1010 -220 c79 -38 91 -41 119
-30 24 9 32 8 40 -2 97 -127 127 -155 183 -176 95 -34 212 -61 297 -68 52 -4
83 -11 88 -20 5 -8 26 -27 48 -42 l39 -29 -31 -6 c-18 -3 -55 -6 -83 -6 -29 0
-57 -5 -64 -12 -22 -22 -14 -72 16 -100 40 -37 58 -40 129 -22 124 31 237 -5
450 -144 157 -102 210 -132 235 -132 9 0 20 -5 23 -10 8 -13 -124 -400 -136
-400 -21 0 -88 82 -129 160 -105 196 -153 198 -309 17 -69 -79 -166 -166 -175
-156 -2 2 -9 61 -14 131 -12 136 -21 165 -55 176 -12 4 -93 5 -179 2 -185 -6
-171 1 -279 -155 -37 -55 -83 -116 -101 -135 l-33 -35 -6 115 c-3 63 -11 135
-18 160 -19 64 -58 138 -80 150 -25 13 -117 13 -141 0 -13 -7 -21 -7 -25 0
-11 19 -115 11 -188 -14 -40 -14 -103 -32 -142 -41 -38 -9 -113 -29 -165 -45
-128 -39 -338 -90 -373 -90 l-29 0 43 53 c128 155 184 190 350 222 102 19 153
50 180 108 23 52 26 168 5 186 -8 6 -16 23 -19 37 -4 22 2 28 57 56 33 17 97
46 141 65 44 19 95 46 113 60 l33 25 60 -27 c46 -20 66 -24 86 -18 37 13 46
44 22 84 -35 62 -79 149 -76 149 3 0 44 -19 93 -41z m1763 -86 c2 -2 -8 -3
-22 -3 -20 0 -25 4 -21 15 5 13 9 13 23 3 9 -7 18 -14 20 -15z"/>
<path d="M12564 5206 c-17 -8 -34 -21 -38 -31 -31 -81 66 -154 215 -163 103
-6 150 18 140 72 -1 4 18 5 43 2 38 -6 48 -4 65 13 24 24 26 40 9 64 -15 19
-28 21 -205 42 -155 18 -189 18 -229 1z"/>
<path d="M25615 4319 c-291 -4 -1016 -15 -1610 -23 -594 -9 -1424 -20 -1845
-26 -826 -10 -1185 -15 -2235 -30 -374 -6 -1141 -17 -1705 -25 -1488 -21
-2765 -34 -4655 -45 -3278 -20 -3857 -41 -7340 -265 -1560 -101 -2780 -182
-3005 -200 -343 -28 -1114 -95 -1210 -105 -157 -17 -374 -52 -387 -63 -19 -14
-16 -52 6 -71 18 -17 26 -17 148 2 183 29 585 67 1443 137 225 18 1445 99
3005 200 3483 224 4062 245 7340 265 2359 14 3233 24 6360 70 657 10 1382 19
3000 40 424 5 910 12 1080 15 1639 31 4046 45 4310 26 61 -5 117 -4 126 0 25
13 29 46 10 70 -15 18 -33 23 -132 30 -140 10 -1976 9 -2704 -2z"/>
<path d="M7134 2839 c-104 -54 -241 -168 -309 -257 l-37 -49 -55 58 c-90 95
-254 169 -374 169 -77 0 -104 -14 -130 -66 -18 -39 -19 -50 -10 -94 6 -28 22
-72 36 -99 86 -170 351 -428 522 -508 45 -21 61 -23 110 -17 53 6 63 12 122
68 73 71 203 260 267 391 46 95 84 224 84 284 0 142 -92 191 -226 120z m124
-113 c10 -116 -157 -442 -306 -599 -53 -55 -59 -59 -94 -54 -88 12 -323 205
-443 365 -65 87 -111 182 -100 210 10 26 119 10 206 -30 135 -63 212 -151 222
-256 11 -107 57 -169 105 -143 31 16 33 39 11 88 -18 39 -19 51 -10 95 14 63
24 81 77 144 84 99 263 227 309 222 15 -2 21 -12 23 -42z"/>
<path d="M4256 2794 c-20 -19 -21 -9 9 -155 14 -68 28 -159 32 -201 l6 -77
-155 2 c-141 2 -158 0 -177 -17 -29 -27 -26 -62 8 -97 36 -36 64 -37 88 -3
l19 25 112 -7 112 -7 0 -81 c0 -103 -15 -192 -35 -212 -32 -32 -13 -84 31 -84
35 0 54 10 69 39 18 36 35 163 35 265 l0 83 168 6 c274 11 370 37 355 98 -9
31 -37 36 -121 22 -42 -8 -152 -17 -243 -21 l-166 -7 -6 75 c-7 93 -55 341
-69 357 -14 18 -53 16 -72 -3z"/>
<path d="M5829 2673 c-19 -21 -47 -58 -63 -83 -32 -49 -151 -146 -161 -130 -3
6 -17 10 -30 10 -19 0 -34 -14 -65 -62 -45 -71 -49 -97 -20 -123 18 -16 27
-17 61 -8 22 6 42 6 45 2 3 -5 17 -9 31 -9 31 0 83 53 143 145 35 54 84 95 97
82 2 -3 8 -87 13 -188 5 -101 12 -214 15 -250 l6 -66 -103 -13 c-57 -6 -132
-19 -168 -29 -59 -15 -65 -19 -68 -44 -7 -58 37 -70 147 -43 31 8 84 17 119
21 57 6 62 6 62 -13 0 -24 18 -40 56 -48 38 -7 68 15 69 52 2 28 3 29 96 41
125 17 226 49 246 79 14 22 14 26 -1 49 -20 30 -35 31 -101 6 -27 -10 -84 -24
-125 -30 -41 -6 -87 -14 -102 -16 -25 -4 -27 -1 -32 43 -3 26 -10 151 -16 277
-13 263 -22 340 -46 366 -28 31 -67 24 -105 -18z"/>
<path d="M9631 2021 c-23 -15 -15 -65 27 -158 124 -277 263 -620 316 -780 40
-119 67 -156 107 -146 35 10 44 45 21 89 -11 21 -30 73 -42 114 -34 114 -335
845 -361 877 -13 15 -47 17 -68 4z"/>
<path d="M8399 1863 c-5 -14 -7 -40 -4 -57 19 -90 247 -752 286 -828 28 -55
48 -62 116 -42 32 9 73 28 92 42 27 20 37 23 50 13 39 -28 99 -51 137 -51 71
0 143 65 125 114 -11 30 -61 33 -86 6 -22 -25 -66 -26 -94 -2 l-21 17 25 50
c26 52 55 167 55 220 0 48 -20 106 -45 131 -37 37 -103 34 -150 -8 -61 -53
-80 -100 -80 -198 0 -72 4 -93 26 -137 24 -50 25 -54 9 -68 -10 -9 -31 -19
-47 -24 -35 -10 -19 -44 -142 304 -102 288 -151 442 -151 476 0 65 -80 98
-101 42z m577 -488 c10 -42 -26 -215 -46 -215 -11 0 -30 73 -30 113 0 41 15
85 37 109 22 24 31 22 39 -7z"/>
<path d="M7112 1798 c-16 -16 -15 -130 1 -150 6 -9 23 -18 37 -20 21 -3 33
-22 84 -133 32 -71 117 -272 188 -445 70 -173 136 -326 146 -340 27 -36 78
-34 105 2 17 23 19 31 9 53 -6 14 -20 25 -29 25 -13 0 -26 20 -45 68 -229 566
-352 844 -408 922 -23 32 -65 41 -88 18z"/>
<path d="M5875 1701 c-121 -73 -123 -310 -5 -689 l32 -104 -35 -29 c-52 -43
-56 -108 -7 -124 24 -8 60 11 60 30 0 8 4 15 9 15 9 0 61 -153 61 -177 0 -4
-9 -14 -20 -21 -30 -18 -25 -57 13 -96 42 -45 68 -52 98 -27 21 17 24 27 22
73 -2 30 -16 100 -33 157 -17 57 -29 105 -27 108 3 2 47 15 99 27 108 27 233
87 241 115 7 28 -20 61 -49 61 -13 0 -52 -14 -85 -30 -55 -28 -191 -69 -230
-70 -11 0 -26 33 -54 121 -57 186 -88 349 -82 440 11 168 61 182 194 56 64
-61 127 -54 125 13 -1 35 -17 60 -39 60 -8 0 -35 18 -61 39 -84 71 -166 90
-227 52z"/>
<path d="M7772 1608 c-25 -25 -9 -113 25 -135 20 -13 29 -14 44 -5 16 11 25 4
74 -56 31 -37 76 -103 101 -148 43 -80 164 -345 198 -437 20 -53 47 -77 77
-70 42 11 43 43 5 138 -20 49 -36 90 -36 90 0 1 33 5 74 8 88 6 138 28 172 73
28 36 35 91 13 105 -30 19 -59 10 -80 -25 -25 -43 -61 -56 -153 -56 l-71 0
-75 147 c-109 215 -251 383 -324 383 -18 0 -37 -5 -44 -12z"/>
<path d="M6890 1565 c-16 -19 -7 -80 19 -132 11 -21 85 -192 166 -380 81 -188
153 -350 159 -359 17 -22 66 -21 84 2 11 15 13 42 8 126 -8 134 -16 158 -54
158 -15 0 -33 -5 -38 -10 -7 -7 -45 69 -117 237 -58 137 -117 275 -130 308
-20 53 -27 60 -53 63 -19 2 -36 -3 -44 -13z"/>
<path d="M9248 1441 c-57 -45 -98 -219 -68 -291 21 -50 65 -80 116 -80 57 0
90 17 139 71 23 26 40 38 43 30 9 -26 69 -97 101 -118 23 -16 49 -23 79 -23
40 0 50 5 83 40 39 41 64 103 76 187 7 51 -7 73 -48 73 -32 0 -43 -15 -53 -75
-12 -66 -42 -125 -65 -125 -25 0 -68 51 -98 118 -28 59 -61 87 -93 77 -11 -3
-38 -32 -59 -63 -50 -73 -74 -94 -103 -90 -19 2 -24 10 -26 43 -5 58 14 114
36 109 48 -13 71 55 35 104 -25 34 -62 39 -95 13z"/>
<path d="M6534 1100 c-30 -12 -80 -73 -94 -116 -35 -105 42 -304 146 -377 80
-56 159 -46 245 31 51 45 52 46 78 29 107 -67 149 -72 185 -24 18 24 22 46 24
137 4 123 -4 150 -46 150 -45 0 -52 -16 -52 -117 0 -51 -2 -93 -5 -93 -3 0
-24 14 -47 30 -30 22 -52 30 -84 30 -38 0 -51 -6 -99 -50 -30 -27 -66 -52 -80
-56 -58 -15 -141 81 -166 193 -15 68 -4 106 31 111 38 6 50 21 50 62 0 51 -39
79 -86 60z"/>
</g>
</svg>
