<?xml version="1.0" encoding="UTF-8"?>
<!DOCTYPE svg PUBLIC "-//W3C//DTD SVG 1.1//EN" "http://www.w3.org/Graphics/SVG/1.1/DTD/svg11.dtd">
<svg xmlns="http://www.w3.org/2000/svg" version="1.1" width="2479px" height="2137px" style="shape-rendering:geometricPrecision; text-rendering:geometricPrecision; image-rendering:optimizeQuality; fill-rule:evenodd; clip-rule:evenodd" xmlns:xlink="http://www.w3.org/1999/xlink">
<g><path style="opacity:1" fill="#fefffe" d="M -0.5,-0.5 C 825.833,-0.5 1652.17,-0.5 2478.5,-0.5C 2478.5,711.833 2478.5,1424.17 2478.5,2136.5C 1652.17,2136.5 825.833,2136.5 -0.5,2136.5C -0.5,1424.17 -0.5,711.833 -0.5,-0.5 Z"/></g>
<g><path style="opacity:1" fill="#0b213b" d="M 2212.5,171.5 C 2222.36,174.76 2232.03,178.593 2241.5,183C 2245.31,186.273 2245.48,189.773 2242,193.5C 2237.38,196.445 2234.21,195.278 2232.5,190C 2225.5,187 2218.5,184 2211.5,181C 2208.64,177.376 2208.97,174.209 2212.5,171.5 Z"/></g>
<g><path style="opacity:1" fill="#0b213b" d="M 2099.5,187.5 C 2108.55,187.193 2117.55,187.693 2126.5,189C 2128.29,189.785 2129.79,190.951 2131,192.5C 2133.74,232.971 2139.74,272.971 2149,312.5C 2151.97,323.062 2155.13,333.562 2158.5,344C 2158.36,346.151 2157.36,347.818 2155.5,349C 2149.25,350.617 2142.91,351.784 2136.5,352.5C 2136.07,356.158 2133.9,357.825 2130,357.5C 2127.18,357.068 2124.35,356.735 2121.5,356.5C 2069.34,363.965 2017,365.298 1964.5,360.5C 1913.33,361.958 1862.16,363.625 1811,365.5C 1802.81,365.346 1794.65,364.846 1786.5,364C 1781.78,362.285 1777.28,360.119 1773,357.5C 1772.33,336.833 1772.33,316.167 1773,295.5C 1776.09,288.169 1779.59,287.835 1783.5,294.5C 1782.2,314.162 1782.2,333.829 1783.5,353.5C 1792.62,354.677 1801.79,355.344 1811,355.5C 1914.16,352.141 2017.33,348.974 2120.5,346C 2129.52,344.195 2138.52,342.195 2147.5,340C 2140.9,322.347 2136.07,304.181 2133,285.5C 2127.52,256.461 2123.35,227.294 2120.5,198C 2042.81,199.295 1965.15,201.628 1887.5,205C 1873.06,210.592 1858.39,215.592 1843.5,220C 1840.95,222.442 1837.95,224.108 1834.5,225C 1817.58,243.711 1801.75,263.211 1787,283.5C 1783.53,286.418 1780.53,286.085 1778,282.5C 1777.45,279.581 1778.12,276.914 1780,274.5C 1795.79,255.04 1811.96,235.874 1828.5,217C 1840.67,210.051 1853.67,205.051 1867.5,202C 1872.55,200.22 1877.22,197.887 1881.5,195C 1954.32,192.345 2026.99,189.845 2099.5,187.5 Z"/></g>
<g><path style="opacity:1" fill="#0b213b" d="M 2313.5,194.5 C 2316.62,194.642 2319.12,195.976 2321,198.5C 2326.68,213.805 2323.18,226.638 2310.5,237C 2330.58,249.754 2345.75,266.92 2356,288.5C 2357.52,293.466 2355.85,296.8 2351,298.5C 2345.03,307.564 2336.53,311.397 2325.5,310C 2324.17,309.333 2322.83,308.667 2321.5,308C 2307.5,288.504 2289.5,274.004 2267.5,264.5C 2265.42,278.493 2261.92,292.16 2257,305.5C 2251.63,318.407 2246.13,331.24 2240.5,344C 2243.82,343.189 2247.15,343.356 2250.5,344.5C 2252.37,344.61 2253.87,343.944 2255,342.5C 2262.47,324.418 2270.14,306.418 2278,288.5C 2280.15,286.556 2282.65,286.056 2285.5,287C 2287.04,288.599 2287.54,290.433 2287,292.5C 2280.49,305.355 2275.16,318.689 2271,332.5C 2268.5,341.35 2263.67,348.516 2256.5,354C 2250.61,353.989 2244.78,354.155 2239,354.5C 2233.54,354.706 2230.04,352.206 2228.5,347C 2236.74,328.019 2244.57,308.852 2252,289.5C 2254.89,280.021 2256.23,270.355 2256,260.5C 2239.01,249.949 2220.51,243.782 2200.5,242C 2197.89,239.205 2197.89,236.371 2200.5,233.5C 2199.46,231.232 2199.29,228.899 2200,226.5C 2227.92,219.875 2255.92,219.875 2284,226.5C 2284.83,226.167 2285.67,225.833 2286.5,225.5C 2293.09,212.923 2302.09,202.59 2313.5,194.5 Z"/></g>
<g><path style="opacity:1" fill="#fefffe" d="M 2312.5,207.5 C 2314.9,210.268 2315.07,213.268 2313,216.5C 2309.82,222.204 2306.65,227.871 2303.5,233.5C 2300.82,232.162 2298.16,230.829 2295.5,229.5C 2299.74,221.014 2305.4,213.681 2312.5,207.5 Z"/></g>
<g><path style="opacity:1" fill="#0b213b" d="M 1611.5,211.5 C 1613.58,212.029 1615.42,213.029 1617,214.5C 1620.41,220.643 1623.24,226.976 1625.5,233.5C 1624.95,235.135 1624.62,236.801 1624.5,238.5C 1634.94,239.7 1644.27,243.534 1652.5,250C 1655.16,252.604 1655.66,255.437 1654,258.5C 1649.46,260.211 1646.79,263.544 1646,268.5C 1642.89,271.954 1639.56,274.954 1636,277.5C 1630.1,273.169 1630.26,268.669 1636.5,264C 1625.92,263.181 1615.42,263.348 1605,264.5C 1605.02,272.837 1605.52,281.17 1606.5,289.5C 1606.15,293.432 1605.49,297.265 1604.5,301C 1605.9,302.269 1607.57,302.769 1609.5,302.5C 1609.14,291.802 1608.64,281.136 1608,270.5C 1609.24,265.254 1612.4,263.42 1617.5,265C 1618.13,265.75 1618.63,266.584 1619,267.5C 1618.56,270.43 1618.06,273.43 1617.5,276.5C 1619.26,286.106 1619.76,295.773 1619,305.5C 1617.65,310.36 1614.48,312.694 1609.5,312.5C 1603.86,312.135 1598.69,310.468 1594,307.5C 1594.71,301.55 1595.55,295.55 1596.5,289.5C 1595.74,281.502 1595.07,273.502 1594.5,265.5C 1589.79,266.137 1585.29,267.47 1581,269.5C 1578.38,268.535 1576.38,266.868 1575,264.5C 1571.5,266.998 1567.67,267.832 1563.5,267C 1560.79,265.136 1559.96,262.636 1561,259.5C 1562.49,254.356 1564.66,249.522 1567.5,245C 1569,244.5 1570.5,244 1572,243.5C 1574.12,244.459 1576.29,244.626 1578.5,244C 1586.56,240.755 1594.89,238.589 1603.5,237.5C 1604.1,229.734 1605.27,222.067 1607,214.5C 1608.41,213.219 1609.91,212.219 1611.5,211.5 Z"/></g>
<g><path style="opacity:1" fill="#fefffe" d="M 2232.5,231.5 C 2258.51,229.808 2283.18,234.641 2306.5,246C 2323.61,257.274 2336.61,272.107 2345.5,290.5C 2343.89,291.427 2342.22,292.261 2340.5,293C 2338.23,299.424 2333.9,301.424 2327.5,299C 2315.96,284.451 2302.29,272.451 2286.5,263C 2270.09,254.753 2253.42,247.086 2236.5,240C 2229.1,236.977 2221.43,234.977 2213.5,234C 2219.97,233.071 2226.3,232.237 2232.5,231.5 Z"/></g>
<g><path style="opacity:1" fill="#0b213b" d="M 2394.5,231.5 C 2401.74,230.586 2405.24,233.586 2405,240.5C 2402.33,244.004 2399.33,244.338 2396,241.5C 2387.88,243.358 2379.71,245.025 2371.5,246.5C 2365.42,245.345 2364.09,242.178 2367.5,237C 2376.7,235.461 2385.7,233.628 2394.5,231.5 Z"/></g>
<g><path style="opacity:1" fill="#0b213b" d="M 1436.5,244.5 C 1441.01,245.421 1445.35,246.921 1449.5,249C 1458.18,248.093 1465.35,250.927 1471,257.5C 1473.57,264.201 1471.4,268.701 1464.5,271C 1459.98,271.925 1455.81,271.092 1452,268.5C 1449.79,275.544 1445.29,280.544 1438.5,283.5C 1437.36,285.421 1437.19,287.421 1438,289.5C 1443.52,286.987 1446.85,288.654 1448,294.5C 1452.41,295.277 1455.24,297.777 1456.5,302C 1455.48,304.862 1453.48,306.362 1450.5,306.5C 1446.23,305.367 1442.06,304.033 1438,302.5C 1437.5,305.817 1437.33,309.15 1437.5,312.5C 1445.72,313.385 1450.39,318.051 1451.5,326.5C 1450.34,332.451 1447.01,333.951 1441.5,331C 1439,328.5 1436.5,326 1434,323.5C 1430.77,327.859 1426.6,330.859 1421.5,332.5C 1416.82,330.776 1415.32,327.443 1417,322.5C 1419.17,318.156 1421.84,314.156 1425,310.5C 1425.67,308.167 1425.67,305.833 1425,303.5C 1419.82,309.007 1413.65,310.841 1406.5,309C 1404.01,306.032 1403.84,302.865 1406,299.5C 1411.92,293.459 1418.76,288.792 1426.5,285.5C 1422.45,283.705 1418.95,281.038 1416,277.5C 1414.87,275.655 1414.37,273.655 1414.5,271.5C 1409.37,271.888 1404.37,271.388 1399.5,270C 1396.45,267.552 1395.95,264.719 1398,261.5C 1405.36,255.408 1413.86,251.908 1423.5,251C 1427.4,247.769 1431.73,245.602 1436.5,244.5 Z"/></g>
<g><path style="opacity:1" fill="#fefffe" d="M 1602.5,247.5 C 1609.51,247.334 1616.51,247.5 1623.5,248C 1627.4,248.468 1631.07,249.634 1634.5,251.5C 1634.29,252.086 1633.96,252.586 1633.5,253C 1620.44,253.097 1607.44,253.93 1594.5,255.5C 1592.01,254.745 1590.01,253.245 1588.5,251C 1593.22,249.506 1597.89,248.339 1602.5,247.5 Z"/></g>
<g><path style="opacity:1" fill="#0b213b" d="M 2188.5,263.5 C 2192.11,265.815 2195.94,267.815 2200,269.5C 2201.85,272.347 2201.35,274.847 2198.5,277C 2194.5,277.667 2190.5,277.667 2186.5,277C 2181.51,275.35 2180.01,272.183 2182,267.5C 2184.09,265.875 2186.26,264.542 2188.5,263.5 Z"/></g>
<g><path style="opacity:1" fill="#0b213b" d="M 2371.5,263.5 C 2374.27,264.432 2376.93,265.599 2379.5,267C 2385.54,267.337 2391.54,268.003 2397.5,269C 2402.37,272.178 2402.7,275.845 2398.5,280C 2395.51,281.735 2392.84,281.235 2390.5,278.5C 2384.51,277.577 2378.51,276.744 2372.5,276C 2366.27,272.169 2365.94,268.002 2371.5,263.5 Z"/></g>
<g><path style="opacity:1" fill="#0b213b" d="M 2219.5,323.5 C 2227,322.804 2229,325.637 2225.5,332C 2219.13,334.384 2212.63,336.218 2206,337.5C 2199.72,334.997 2198.55,331.164 2202.5,326C 2208.48,326.918 2214.14,326.084 2219.5,323.5 Z"/></g>
<g><path style="opacity:1" fill="#0b213b" d="M 1338.5,364.5 C 1337.39,358.199 1336.39,351.866 1335.5,345.5C 1335.74,338.475 1338.9,336.475 1345,339.5C 1346.9,355.094 1350.07,370.427 1354.5,385.5C 1360.97,387.874 1366.14,386.207 1370,380.5C 1372.58,376.913 1374.75,373.08 1376.5,369C 1375.23,367.333 1373.73,365.833 1372,364.5C 1371.09,358.9 1373.59,356.233 1379.5,356.5C 1384.78,356.95 1387.45,359.783 1387.5,365C 1386.28,372.607 1383.28,379.441 1378.5,385.5C 1392.48,386.499 1406.48,386.833 1420.5,386.5C 1420.82,377.915 1420.48,369.415 1419.5,361C 1421.1,355.353 1424.27,354.186 1429,357.5C 1430.39,367.1 1430.89,376.767 1430.5,386.5C 1435.87,386.828 1441.21,386.495 1446.5,385.5C 1442.57,384.711 1440.23,382.378 1439.5,378.5C 1442.1,364.862 1446.77,352.029 1453.5,340C 1457.2,336.911 1461.04,336.744 1465,339.5C 1468.4,347.874 1471.9,356.207 1475.5,364.5C 1481.98,366.393 1483.15,370.06 1479,375.5C 1477.16,377.35 1475.16,377.683 1473,376.5C 1472.29,379.734 1471.46,382.901 1470.5,386C 1668.06,384.083 1865.39,389.749 2062.5,403C 2075.24,403.733 2087.9,405.067 2100.5,407C 2105.99,411.221 2105.49,414.721 2099,417.5C 2091.31,415.476 2083.48,414.31 2075.5,414C 1873.42,399.739 1671.08,393.906 1468.5,396.5C 1465.55,410.869 1462.38,425.202 1459,439.5C 1458.32,482.622 1455.66,525.622 1451,568.5C 1450.49,587.166 1449.99,605.833 1449.5,624.5C 1452.51,668.436 1450.35,712.102 1443,755.5C 1442.53,760.209 1441.36,764.709 1439.5,769C 1453.73,776.296 1459.23,787.796 1456,803.5C 1450.14,821.27 1437.81,830.27 1419,830.5C 1401.6,831.079 1391.43,822.912 1388.5,806C 1388.76,799.984 1390.59,794.484 1394,789.5C 1400.29,783.223 1405.79,776.389 1410.5,769C 1416.47,766.015 1422.8,764.849 1429.5,765.5C 1430.37,762.103 1431.54,758.77 1433,755.5C 1440.35,712.102 1442.51,668.435 1439.5,624.5C 1439.68,582.03 1442.18,539.697 1447,497.5C 1447.59,487.82 1447.92,478.153 1448,468.5C 1436.03,497.144 1420.03,523.144 1400,546.5C 1390.3,555.863 1380.97,565.53 1372,575.5C 1372,586.494 1372.33,597.494 1373,608.5C 1375.13,618.548 1376.29,628.715 1376.5,639C 1374.21,672.129 1372.87,705.296 1372.5,738.5C 1376.88,738.091 1381.21,737.425 1385.5,736.5C 1386.51,732.977 1386.51,729.477 1385.5,726C 1385.79,722.896 1387.45,721.396 1390.5,721.5C 1392.37,721.39 1393.87,722.056 1395,723.5C 1395.77,726.19 1396.6,728.856 1397.5,731.5C 1401.74,729.513 1404.74,730.68 1406.5,735C 1405.87,736.892 1404.87,738.559 1403.5,740C 1400.5,741.167 1397.5,742.333 1394.5,743.5C 1389.25,761.668 1381.08,778.335 1370,793.5C 1366.81,796.025 1363.65,798.525 1360.5,801C 1357.9,814.126 1355.56,827.293 1353.5,840.5C 1401.84,840.272 1450.17,840.772 1498.5,842C 1505.21,842.289 1511.87,842.955 1518.5,844C 1523.36,846.234 1524.36,849.568 1521.5,854C 1519.61,854.973 1517.61,855.64 1515.5,856C 1498.56,858.162 1481.56,859.662 1464.5,860.5C 1463.91,861.799 1462.91,862.632 1461.5,863C 1453.87,864.246 1446.2,865.246 1438.5,866C 1451.14,866.626 1463.48,868.626 1475.5,872C 1480.33,874.307 1481.33,877.64 1478.5,882C 1476.28,883.275 1473.95,884.275 1471.5,885C 1456,888.638 1440.34,891.305 1424.5,893C 1421.68,895.613 1418.34,897.279 1414.5,898C 1416.77,899.816 1417.6,901.982 1417,904.5C 1421.34,905.077 1424.51,907.244 1426.5,911C 1425.86,914.561 1423.7,916.394 1420,916.5C 1394.24,913.508 1368.41,911.508 1342.5,910.5C 1342.67,918.174 1342.5,925.841 1342,933.5C 1338.71,937.088 1335.71,936.755 1333,932.5C 1332.5,925.508 1332.33,918.508 1332.5,911.5C 1314.5,911.667 1296.5,911.5 1278.5,911C 1275.62,909.334 1274.79,906.834 1276,903.5C 1277.49,901.996 1279.32,901.163 1281.5,901C 1276.89,899.839 1272.23,898.839 1267.5,898C 1263.06,889.426 1265.72,885.092 1275.5,885C 1295.16,884.5 1314.83,884.333 1334.5,884.5C 1334.5,882.833 1334.5,881.167 1334.5,879.5C 1304.79,877.902 1275.12,875.735 1245.5,873C 1244.58,872.626 1243.75,872.126 1243,871.5C 1242.5,869.527 1242.34,867.527 1242.5,865.5C 1238.63,865.57 1236.29,863.737 1235.5,860C 1236.1,857.532 1237.44,855.532 1239.5,854C 1238.83,852.667 1238.17,851.333 1237.5,850C 1238.52,848.951 1238.68,847.784 1238,846.5C 1237.02,852.237 1235.19,857.737 1232.5,863C 1222.48,864.503 1212.48,866.336 1202.5,868.5C 1106.99,865.816 1011.49,862.483 916,858.5C 845.516,860.919 775.016,862.586 704.5,863.5C 683.167,863.333 661.833,863.167 640.5,863C 604.146,860.999 567.813,858.665 531.5,856C 513.143,855.432 494.81,855.432 476.5,856C 472.673,852.905 472.673,849.905 476.5,847C 486.796,845.931 497.13,845.431 507.5,845.5C 551.856,847.514 596.189,850.014 640.5,853C 683.167,853.667 725.833,853.667 768.5,853C 809.826,851.445 851.16,850.111 892.5,849C 890.404,841.304 888.904,833.471 888,825.5C 885.054,823.044 882.387,820.377 880,817.5C 878.69,813.3 880.19,810.633 884.5,809.5C 897.118,817.171 902.618,828.504 901,843.5C 903.429,844.029 905.262,845.363 906.5,847.5C 930.814,849.19 955.147,850.023 979.5,850C 981.956,847.592 983.789,844.759 985,841.5C 988.771,823.853 995.104,807.186 1004,791.5C 1006.75,786.748 1010.25,782.581 1014.5,779C 1021.42,776.759 1028.09,777.425 1034.5,781C 1042.11,790.622 1051.45,797.955 1062.5,803C 1067.31,807.626 1071.64,812.626 1075.5,818C 1078.17,819.333 1080.83,820.667 1083.5,822C 1090.37,823.384 1097.04,825.384 1103.5,828C 1107.37,831.252 1109.53,835.419 1110,840.5C 1110.95,842.455 1112.29,844.122 1114,845.5C 1118.73,842.638 1123.73,840.305 1129,838.5C 1133.98,839.947 1135.15,842.781 1132.5,847C 1126.65,850.923 1120.32,853.756 1113.5,855.5C 1108.75,854.263 1104.91,851.596 1102,847.5C 1101.12,843.416 1099.62,839.583 1097.5,836C 1087.58,834.19 1078.24,830.857 1069.5,826C 1065.17,821 1060.83,816 1056.5,811C 1045.45,805.955 1036.11,798.622 1028.5,789C 1022.92,786.177 1018.42,787.343 1015,792.5C 1011,800.5 1007,808.5 1003,816.5C 999.346,827.447 995.846,838.447 992.5,849.5C 993.376,850.251 994.376,850.751 995.5,851C 1039.48,853.299 1083.48,855.133 1127.5,856.5C 1127.18,854.278 1127.84,852.444 1129.5,851C 1132.07,850.099 1134.4,848.766 1136.5,847C 1140.87,842.299 1145.53,837.966 1150.5,834C 1155.06,830.826 1160.06,829.826 1165.5,831C 1177.97,840.034 1191.3,841.7 1205.5,836C 1211.75,835.237 1213.91,837.737 1212,843.5C 1205.52,847.701 1198.35,849.701 1190.5,849.5C 1185.06,849.378 1179.72,848.545 1174.5,847C 1169.71,845.031 1165.04,842.864 1160.5,840.5C 1159.06,840.719 1157.73,841.219 1156.5,842C 1151.17,846.667 1145.83,851.333 1140.5,856C 1161.03,856.144 1181.53,856.977 1202,858.5C 1209.82,856.92 1217.65,855.42 1225.5,854C 1226.42,851.959 1226.76,849.792 1226.5,847.5C 1222.7,847.24 1219.03,846.406 1215.5,845C 1222.4,842.718 1225.4,837.885 1224.5,830.5C 1228.97,830.97 1229.47,829.97 1226,827.5C 1225.23,823.579 1225.9,819.912 1228,816.5C 1228.5,812.848 1228.67,809.182 1228.5,805.5C 1212.49,806.849 1196.49,808.349 1180.5,810C 1171.52,810.416 1162.69,810.582 1154,810.5C 1139.47,806.909 1124.97,803.076 1110.5,799C 1080.5,789 1050.5,779 1020.5,769C 1006.74,764.082 993.242,758.582 980,752.5C 966.397,758.444 952.231,762.611 937.5,765C 914.833,773 892.167,781 869.5,789C 861.982,791.467 854.315,792.8 846.5,793C 845.5,792 844.5,791 843.5,790C 821.436,786.636 800.769,779.303 781.5,768C 773.5,763 765.5,758 757.5,753C 738.781,738.614 719.781,724.614 700.5,711C 691.405,701.296 682.905,691.129 675,680.5C 669.927,674.756 664.26,669.756 658,665.5C 657.018,666.759 656.685,668.092 657,669.5C 662.041,669.2 664.707,671.867 665,677.5C 667.659,693.118 669.992,708.785 672,724.5C 673.673,745.919 676.007,767.252 679,788.5C 682.336,791.169 686.169,792.669 690.5,793C 700.148,793.925 709.815,794.592 719.5,795C 721.487,797.14 722.82,799.64 723.5,802.5C 725.375,799.249 727.375,796.082 729.5,793C 734.943,791.127 737.443,792.96 737,798.5C 734.726,802.714 732.726,807.047 731,811.5C 724.986,819.819 719.653,819.485 715,810.5C 714.187,808.564 713.687,806.564 713.5,804.5C 701.676,804.486 690.009,803.153 678.5,800.5C 675.566,801.799 673.066,801.132 671,798.5C 669.019,791.633 667.685,784.633 667,777.5C 665.242,750.322 662.075,723.322 657.5,696.5C 648.336,726.485 639.17,756.485 630,786.5C 625.85,795.638 620.517,803.971 614,811.5C 611.43,813.869 608.596,815.869 605.5,817.5C 601.148,816.464 599.648,813.798 601,809.5C 610.448,801.291 617.448,791.291 622,779.5C 630.514,750.443 639.18,721.443 648,692.5C 649.113,688.49 649.78,684.49 650,680.5C 641.834,692.161 634.168,704.161 627,716.5C 616.954,728.211 607.287,740.211 598,752.5C 586.544,765.137 573.044,774.804 557.5,781.5C 566.719,795.772 579.719,803.938 596.5,806C 599.93,808.378 600.263,811.045 597.5,814C 593.961,815.504 590.295,815.837 586.5,815C 579.115,812.474 572.115,809.141 565.5,805C 559.281,799.283 553.614,793.117 548.5,786.5C 543.987,789.756 538.987,791.922 533.5,793C 523.717,794.539 514.05,796.539 504.5,799C 498.667,807.5 492.833,816 487,824.5C 480.832,826.99 478.165,824.99 479,818.5C 483.873,811.924 488.373,805.09 492.5,798C 491.216,797.316 490.049,797.483 489,798.5C 487.667,797.833 486.333,797.167 485,796.5C 482.303,799.87 478.803,801.204 474.5,800.5C 474.335,806.362 474.669,812.196 475.5,818C 473.442,827.072 471.942,836.238 471,845.5C 468.289,849.755 465.289,850.088 462,846.5C 461.667,845.167 461.333,843.833 461,842.5C 452.097,849.43 442.764,850.43 433,845.5C 408.55,854.258 383.384,858.091 357.5,857C 345.19,854.178 333.857,849.178 323.5,842C 313.52,837.98 303.187,836.647 292.5,838C 276.198,839.913 259.864,841.413 243.5,842.5C 221.829,843.58 204.329,835.58 191,818.5C 184.333,809.833 177.667,801.167 171,792.5C 164.508,784.004 156.008,778.837 145.5,777C 128.114,776.944 110.781,776.277 93.5,775C 80.9528,770.453 73.4528,761.619 71,748.5C 68.4094,728.48 70.0761,708.813 76,689.5C 79.3603,680.586 85.8603,676.419 95.5,677C 103.928,669.236 112.928,662.236 122.5,656C 135.123,651.518 147.789,651.518 160.5,656C 177.283,661.39 192.616,669.39 206.5,680C 222.167,696.333 237.833,712.667 253.5,729C 265.234,740.036 278.901,747.702 294.5,752C 309.571,753.456 324.571,755.29 339.5,757.5C 341.507,755.992 343.174,754.158 344.5,752C 346.717,750.725 349.051,749.725 351.5,749C 362.477,747.86 373.477,746.86 384.5,746C 392.129,742.383 398.629,737.217 404,730.5C 416.65,714.849 431.483,701.682 448.5,691C 448.455,686.719 450.455,683.885 454.5,682.5C 455.086,682.709 455.586,683.043 456,683.5C 453.686,669.919 451.353,656.253 449,642.5C 447.966,635.633 448.633,628.967 451,622.5C 453.481,618.686 456.981,616.519 461.5,616C 491.7,614.498 521.867,612.332 552,609.5C 554.794,609.801 557.294,610.801 559.5,612.5C 584.294,610.904 609.127,609.904 634,609.5C 722.536,611.668 811.036,614.502 899.5,618C 881.95,612.223 864.616,605.89 847.5,599C 828.564,594.345 809.564,590.011 790.5,586C 783.747,583.249 780.081,578.249 779.5,571C 782.659,557.36 789.659,546.027 800.5,537C 853.672,500.285 912.672,483.285 977.5,486C 1001.22,487.393 1024.88,489.393 1048.5,492C 1077.93,496.719 1107.26,501.886 1136.5,507.5C 1138.77,496.648 1144.27,494.648 1153,501.5C 1154.04,504.636 1153.21,507.136 1150.5,509C 1155.38,509.576 1160.21,510.409 1165,511.5C 1165.83,511.167 1166.67,510.833 1167.5,510.5C 1174.63,499.519 1182.79,489.185 1192,479.5C 1195.18,475.328 1198.85,474.662 1203,477.5C 1203.67,479.5 1203.67,481.5 1203,483.5C 1199.86,486.64 1196.69,489.806 1193.5,493C 1198.44,495.75 1199.1,499.083 1195.5,503C 1188.13,506.682 1181.47,511.348 1175.5,517C 1179.64,518.398 1183.98,519.231 1188.5,519.5C 1192.8,517.721 1196.47,514.888 1199.5,511C 1202.62,509.355 1205.79,507.855 1209,506.5C 1213.85,508.227 1215.02,511.227 1212.5,515.5C 1208.65,516.92 1205.32,519.087 1202.5,522C 1230.69,528.724 1257.02,539.724 1281.5,555C 1287.26,558.754 1292.42,563.254 1297,568.5C 1294.48,548.444 1283.98,534.444 1265.5,526.5C 1265.25,531.028 1263.09,534.028 1259,535.5C 1257.49,534.743 1256.15,533.743 1255,532.5C 1254.3,529.522 1253.8,526.522 1253.5,523.5C 1242.56,521.859 1231.56,520.692 1220.5,520C 1216.92,517.472 1216.58,514.472 1219.5,511C 1230.92,510.62 1242.25,511.453 1253.5,513.5C 1252.94,498.166 1252.78,482.833 1253,467.5C 1254.56,466.48 1255.72,465.147 1256.5,463.5C 1254.01,450.58 1252.51,437.58 1252,424.5C 1253.58,423.139 1255.42,422.472 1257.5,422.5C 1256.5,413.174 1255.5,403.841 1254.5,394.5C 1107.71,389.087 960.878,385.421 814,383.5C 769.834,384.201 725.667,384.368 681.5,384C 677.412,380.51 677.745,377.51 682.5,375C 765.834,373.079 849.167,373.079 932.5,375C 1037.18,377.726 1141.85,380.893 1246.5,384.5C 1250.41,384.94 1253.08,383.44 1254.5,380C 1258.8,378.54 1261.8,379.874 1263.5,384C 1270.86,384.235 1278.2,384.735 1285.5,385.5C 1289.48,380.918 1293.48,380.751 1297.5,385C 1309.51,385.833 1321.51,385.666 1333.5,384.5C 1330.58,379.07 1328.25,373.403 1326.5,367.5C 1326.77,364.062 1328.6,362.062 1332,361.5C 1334.25,362.377 1336.42,363.377 1338.5,364.5 Z"/></g>
<g><path style="opacity:1" fill="#0b213b" d="M 2323.5,346.5 C 2325.65,346.372 2327.65,346.872 2329.5,348C 2335.5,352 2341.5,356 2347.5,360C 2353.14,364.865 2352.8,369.032 2346.5,372.5C 2341.71,372.291 2338.71,369.957 2337.5,365.5C 2332.84,361.834 2327.84,358.667 2322.5,356C 2319.67,352.476 2320.01,349.31 2323.5,346.5 Z"/></g>
<g><path style="opacity:1" fill="#fefffe" d="M 1458.5,350.5 C 1461.09,357.232 1464.09,363.899 1467.5,370.5C 1465,372.066 1462.83,374.066 1461,376.5C 1460,379.833 1459,383.167 1458,386.5C 1457.52,381.848 1455.02,379.515 1450.5,379.5C 1451.54,369.376 1454.21,359.71 1458.5,350.5 Z"/></g>
<g><path style="opacity:1" fill="#fefffe" d="M 1338.5,364.5 C 1340.27,368.239 1341.1,372.239 1341,376.5C 1338.87,372.792 1338.03,368.792 1338.5,364.5 Z"/></g>
<g><path style="opacity:1" fill="#fefffe" d="M 1264.5,394.5 C 1269.48,393.96 1274.15,394.793 1278.5,397C 1296.87,415.575 1319.2,425.242 1345.5,426C 1348.01,432.899 1349.51,440.066 1350,447.5C 1352.31,466.249 1351.81,484.916 1348.5,503.5C 1348.26,505.922 1349.26,507.588 1351.5,508.5C 1352.58,530.169 1352.42,551.836 1351,573.5C 1350.95,575.885 1349.78,577.219 1347.5,577.5C 1334.74,574.025 1321.74,572.692 1308.5,573.5C 1306.18,552.01 1296.51,534.843 1279.5,522C 1274.89,519.023 1269.89,517.19 1264.5,516.5C 1264.01,514.194 1263.67,511.861 1263.5,509.5C 1265.91,509.863 1267.41,508.863 1268,506.5C 1269.49,469.064 1268.32,431.73 1264.5,394.5 Z"/></g>
<g><path style="opacity:1" fill="#fefffe" d="M 1306.5,396.5 C 1318.66,395.34 1330.99,395.173 1343.5,396C 1350.65,400.21 1357.98,400.544 1365.5,397C 1383.83,396.5 1402.16,396.333 1420.5,396.5C 1420.79,398.288 1420.45,399.955 1419.5,401.5C 1412.56,404.035 1405.56,406.368 1398.5,408.5C 1397.81,405.81 1396.14,404.143 1393.5,403.5C 1371.41,413.67 1348.75,415.17 1325.5,408C 1318.49,405.133 1312.16,401.299 1306.5,396.5 Z"/></g>
<g><path style="opacity:1" fill="#fefffe" d="M 1447.5,404.5 C 1448.82,407.258 1449.48,410.424 1449.5,414C 1449.42,419.539 1448.92,425.039 1448,430.5C 1438.28,455.941 1425.95,479.941 1411,502.5C 1416.03,486.716 1420.7,470.716 1425,454.5C 1427.82,439.96 1429.65,425.293 1430.5,410.5C 1436.4,408.867 1442.07,406.867 1447.5,404.5 Z"/></g>
<g><path style="opacity:1" fill="#fefffe" d="M 1417.5,413.5 C 1418.8,415.397 1419.47,417.731 1419.5,420.5C 1417.45,446.686 1411.62,472.019 1402,496.5C 1398.2,507.577 1394.2,518.577 1390,529.5C 1383.67,536.833 1377.33,544.167 1371,551.5C 1369.77,531.863 1369.11,512.196 1369,492.5C 1367.58,489.805 1365.58,489.139 1363,490.5C 1363.27,468.851 1361.1,447.517 1356.5,426.5C 1356.71,425.914 1357.04,425.414 1357.5,425C 1377.96,422.874 1397.96,419.041 1417.5,413.5 Z"/></g>
<g><path style="opacity:1" fill="#fefffe" d="M 940.5,495.5 C 973.604,495.381 1006.6,497.215 1039.5,501C 1071.59,505.817 1103.59,511.15 1135.5,517C 1131.38,533.634 1130.21,550.467 1132,567.5C 1135.85,572.605 1140.69,573.771 1146.5,571C 1164.69,559.98 1180.85,546.48 1195,530.5C 1220.48,536.106 1244.65,545.273 1267.5,558C 1274.88,562.027 1281.55,567.027 1287.5,573C 1258.51,575.687 1229.35,577.187 1200,577.5C 1167.34,576.453 1134.67,575.786 1102,575.5C 1068.49,575.974 1034.99,576.474 1001.5,577C 985.556,577.01 970.223,574.01 955.5,568C 947.88,563.367 940.046,559.2 932,555.5C 927.419,556.66 926.086,559.327 928,563.5C 953.082,581.275 981.082,589.275 1012,587.5C 1074.66,584.898 1137.33,584.898 1200,587.5C 1229.71,586.985 1259.38,585.652 1289,583.5C 1291.63,584.831 1294.46,585.664 1297.5,586C 1287.01,594.014 1277.17,602.847 1268,612.5C 1263.58,617.326 1261.42,622.993 1261.5,629.5C 1240.86,628.088 1220.2,627.255 1199.5,627C 1114.03,618.355 1028.37,615.355 942.5,618C 930.726,615.807 919.059,613.14 907.5,610C 886.682,603.061 866.015,595.728 845.5,588C 828.562,584.011 811.562,580.344 794.5,577C 791.75,575.915 790.083,573.915 789.5,571C 792.395,560.549 798.062,551.882 806.5,545C 837.09,523.57 870.757,508.903 907.5,501C 918.575,498.731 929.575,496.897 940.5,495.5 Z"/></g>
<g><path style="opacity:1" fill="#0b213b" d="M 897.5,513.5 C 902.382,513.175 905.882,515.175 908,519.5C 924.318,555.528 912.818,570.695 873.5,565C 867.43,559.984 861.93,554.484 857,548.5C 856.333,546.833 856.333,545.167 857,543.5C 859.93,539.447 863.43,535.947 867.5,533C 877.087,525.717 887.087,519.217 897.5,513.5 Z"/></g>
<g><path style="opacity:1" fill="#fefffe" d="M 897.5,524.5 C 898.75,524.577 899.583,525.244 900,526.5C 903.105,533.911 904.771,541.578 905,549.5C 903.52,552.663 901.02,554.496 897.5,555C 893.833,555.667 890.167,555.667 886.5,555C 885.833,554 885.167,553 884.5,552C 879.945,549.555 875.278,547.388 870.5,545.5C 878.661,537.33 887.661,530.33 897.5,524.5 Z"/></g>
<g><path style="opacity:1" fill="#fefffe" d="M 1143.5,524.5 C 1147.38,525.823 1151.38,526.823 1155.5,527.5C 1152.42,532 1149.58,536.667 1147,541.5C 1145.46,545.805 1146.79,548.472 1151,549.5C 1153.5,549.01 1155.5,547.677 1157,545.5C 1160.96,539.752 1164.79,533.919 1168.5,528C 1173.53,527.586 1178.53,527.919 1183.5,529C 1170.77,542.072 1156.6,553.239 1141,562.5C 1140.73,549.765 1141.56,537.099 1143.5,524.5 Z"/></g>
<g><path style="opacity:1" fill="#fefffe" d="M 1311.5,583.5 C 1317.84,583.334 1324.18,583.5 1330.5,584C 1333.29,584.241 1335.96,584.908 1338.5,586C 1330.42,591.795 1321.92,596.961 1313,601.5C 1311.64,595.593 1311.14,589.593 1311.5,583.5 Z"/></g>
<g><path style="opacity:1" fill="#fefffe" d="M 1348.5,594.5 C 1349.04,594.56 1349.38,594.893 1349.5,595.5C 1348.69,596.814 1347.69,597.981 1346.5,599C 1343.97,600.934 1341.3,602.268 1338.5,603C 1341.72,599.911 1345.05,597.078 1348.5,594.5 Z"/></g>
<g><path style="opacity:1" fill="#fefffe" d="M 1300.5,595.5 C 1302.25,599.183 1302.92,603.183 1302.5,607.5C 1295.84,610.592 1289.01,612.925 1282,614.5C 1278.3,623.964 1281.13,626.964 1290.5,623.5C 1291.11,624.587 1290.77,625.754 1289.5,627C 1283.83,627.667 1278.17,627.667 1272.5,627C 1272.04,626.586 1271.71,626.086 1271.5,625.5C 1272.8,623.032 1274.3,620.699 1276,618.5C 1283.95,610.47 1292.12,602.803 1300.5,595.5 Z"/></g>
<g><path style="opacity:1" fill="#fefffe" d="M 1359.5,601.5 C 1361.57,604.223 1362.57,607.39 1362.5,611C 1358.66,653.088 1355.66,695.255 1353.5,737.5C 1348.3,734.73 1343.63,731.23 1339.5,727C 1342.1,724.127 1342.1,721.294 1339.5,718.5C 1325.64,714.882 1322.47,719.215 1330,731.5C 1336.89,740.228 1345.72,745.894 1356.5,748.5C 1356.56,761.935 1355.06,775.269 1352,788.5C 1346.99,782.497 1342.99,775.83 1340,768.5C 1336.47,759.566 1333.13,750.566 1330,741.5C 1325.13,738.353 1322.29,739.686 1321.5,745.5C 1325.73,762.363 1332.56,778.029 1342,792.5C 1344.56,795.395 1347.39,797.895 1350.5,800C 1349.39,805.841 1348.22,811.674 1347,817.5C 1344.76,813.308 1341.76,812.641 1338,815.5C 1337.67,819.833 1337.33,824.167 1337,828.5C 1333.54,826.993 1330.38,827.493 1327.5,830C 1322.86,830.83 1318.19,831.497 1313.5,832C 1294.17,832.5 1274.84,832.667 1255.5,832.5C 1256.62,823.503 1257.79,814.503 1259,805.5C 1263.28,805.122 1266.11,802.955 1267.5,799C 1266.69,795.257 1264.35,793.424 1260.5,793.5C 1263.13,766.57 1264.46,739.57 1264.5,712.5C 1266.93,712.523 1269.26,713.023 1271.5,714C 1268.53,725.435 1266.87,737.101 1266.5,749C 1266.83,755.657 1268,762.157 1270,768.5C 1275.31,777.254 1281.64,778.254 1289,771.5C 1296.63,759.16 1300.13,745.66 1299.5,731C 1299.48,721.69 1298.31,712.523 1296,703.5C 1292.94,697.967 1288.28,694.633 1282,693.5C 1276.97,694.363 1274.14,697.363 1273.5,702.5C 1270.55,703.321 1267.55,703.321 1264.5,702.5C 1263.32,681.528 1262.32,660.695 1261.5,640C 1275.81,641.146 1290.15,642.146 1304.5,643C 1309.47,640.057 1312.47,635.724 1313.5,630C 1325.82,624.176 1337.49,617.342 1348.5,609.5C 1348.83,610 1349.17,610.5 1349.5,611C 1346.54,616.001 1346.87,620.668 1350.5,625C 1356.73,626.111 1360.07,623.444 1360.5,617C 1359.63,611.871 1359.3,606.704 1359.5,601.5 Z"/></g>
<g><path style="opacity:1" fill="#fefffe" d="M 620.5,619.5 C 679.512,620.82 738.512,622.486 797.5,624.5C 798.077,631.856 798.91,639.189 800,646.5C 810.053,689.537 819.22,732.704 827.5,776C 813.601,772.395 800.268,767.061 787.5,760C 779.5,755 771.5,750 763.5,745C 744.781,730.614 725.781,716.614 706.5,703C 698.289,693.791 690.456,684.291 683,674.5C 678.167,669.667 673.333,664.833 668.5,660C 663.968,658.01 659.468,656.843 655,656.5C 652.849,656.643 651.182,657.643 650,659.5C 639.667,676.5 629.333,693.5 619,710.5C 608.954,722.211 599.287,734.211 590,746.5C 570.723,766.218 547.223,776.885 519.5,778.5C 516.693,769.537 513.859,760.537 511,751.5C 507.155,745.333 501.655,743.166 494.5,745C 487.04,745.93 480.207,748.43 474,752.5C 471.635,715.586 466.635,678.92 459,642.5C 458.112,637.382 458.445,632.382 460,627.5C 465.55,625.19 471.383,624.023 477.5,624C 525.312,623.445 572.979,621.945 620.5,619.5 Z"/></g>
<g><path style="opacity:1" fill="#fefffe" d="M 807.5,625.5 C 826.859,625.723 846.193,626.557 865.5,628C 862.114,638.592 859.614,649.425 858,660.5C 854.96,683.43 852.627,706.43 851,729.5C 847.443,739.623 842.11,748.623 835,756.5C 827.195,722.942 819.529,689.275 812,655.5C 809.74,645.606 808.24,635.606 807.5,625.5 Z"/></g>
<g><path style="opacity:1" fill="#fefffe" d="M 875.5,627.5 C 899.49,628.226 923.49,628.726 947.5,629C 975.986,633.715 1004.65,636.715 1033.5,638C 1065.16,639.108 1096.82,639.775 1128.5,640C 1155.7,643.706 1182.36,649.706 1208.5,658C 1213.82,660.327 1218.82,663.16 1223.5,666.5C 1225.72,669.068 1226.88,672.068 1227,675.5C 1231.92,679.635 1235.09,678.468 1236.5,672C 1235.84,667 1233.84,662.667 1230.5,659C 1213.06,648.071 1194.06,641.071 1173.5,638C 1199.45,636.019 1224.78,638.853 1249.5,646.5C 1247.77,649.839 1248.43,652.506 1251.5,654.5C 1252.66,669.852 1253.66,685.185 1254.5,700.5C 1250.23,701.088 1245.89,701.088 1241.5,700.5C 1241.33,695.804 1240.83,691.137 1240,686.5C 1238.25,682.579 1235.42,681.579 1231.5,683.5C 1230.74,684.628 1230.07,685.795 1229.5,687C 1230.76,691.039 1231.42,695.206 1231.5,699.5C 1229.5,699.5 1227.5,699.5 1225.5,699.5C 1225.5,702.833 1225.5,706.167 1225.5,709.5C 1227.83,709.5 1230.17,709.5 1232.5,709.5C 1233.47,738.235 1232.47,766.902 1229.5,795.5C 1205.63,797.738 1181.8,799.738 1158,801.5C 1141.48,797.245 1124.98,792.745 1108.5,788C 1065.05,774.406 1022.21,759.239 980,742.5C 963.602,748.742 946.769,753.576 929.5,757C 904.054,767.038 878.22,775.871 852,783.5C 851.167,782.667 850.333,781.833 849.5,781C 843.833,780 838.167,779 832.5,778C 833.931,777.535 835.097,776.701 836,775.5C 840.119,766.383 845.452,758.049 852,750.5C 854.94,744.954 857.606,739.287 860,733.5C 862.465,711.53 864.799,689.53 867,667.5C 869.006,653.967 871.84,640.633 875.5,627.5 Z"/></g>
<g><path style="opacity:1" fill="#0b213b" d="M 2056.5,651.5 C 2060.51,651.334 2064.51,651.501 2068.5,652C 2071.93,654.378 2072.26,657.045 2069.5,660C 2031.99,664.656 1994.33,667.656 1956.5,669C 1868.47,670.306 1780.63,675.139 1693,683.5C 1687.24,684.411 1684.91,682.078 1686,676.5C 1686.9,675.299 1688.07,674.465 1689.5,674C 1715.46,671.246 1741.46,668.913 1767.5,667C 1837.46,663.099 1907.46,660.099 1977.5,658C 2004.06,656.771 2030.4,654.604 2056.5,651.5 Z"/></g>
<g><path style="opacity:1" fill="#fefffe" d="M 132.5,662.5 C 143.556,662.065 154.222,663.898 164.5,668C 177.435,673.131 189.435,679.798 200.5,688C 212.368,700.2 223.868,712.7 235,725.5C 248.151,738.653 262.984,749.486 279.5,758C 283.787,759.488 288.12,760.822 292.5,762C 291.978,762.561 291.645,763.228 291.5,764C 292.899,774.591 295.232,784.925 298.5,795C 303.225,796.962 305.892,795.295 306.5,790C 304.579,781.235 303.246,772.401 302.5,763.5C 312.852,764.049 323.185,764.882 333.5,766C 337.223,767.385 340.723,769.219 344,771.5C 347.808,769.777 349.475,766.777 349,762.5C 349.833,761 351,759.833 352.5,759C 364.862,757.981 377.196,756.647 389.5,755C 392.661,753.587 395.661,751.92 398.5,750C 407.964,740.714 416.964,731.047 425.5,721C 435.987,712.591 446.653,704.424 457.5,696.5C 459.401,704.034 460.567,711.701 461,719.5C 462.683,737.805 463.35,756.138 463,774.5C 459.549,779.038 459.882,783.371 464,787.5C 464.667,799.167 464.667,810.833 464,822.5C 463.146,827.364 460.646,831.197 456.5,834C 452.274,836.531 447.774,838.364 443,839.5C 440.131,837.483 436.964,836.15 433.5,835.5C 418.988,839.628 404.321,843.128 389.5,846C 375.629,848.575 361.962,847.908 348.5,844C 340.676,840.255 333.009,836.255 325.5,832C 314.803,828.162 303.803,826.828 292.5,828C 276.198,829.913 259.864,831.413 243.5,832.5C 230.342,833.723 218.676,830.223 208.5,822C 197.832,810.813 187.999,798.979 179,786.5C 170.713,775.772 159.879,769.272 146.5,767C 130.5,766.667 114.5,766.333 98.5,766C 86.4466,762.433 80.2799,754.267 80,741.5C 78.9577,725.214 80.6244,709.214 85,693.5C 85.7065,691.919 86.5399,690.419 87.5,689C 91.2498,688.74 94.9164,688.073 98.5,687C 106.351,680.905 114.018,674.572 121.5,668C 125.259,666.121 128.925,664.287 132.5,662.5 Z"/></g>
<g><path style="opacity:1" fill="#fefffe" d="M 1242.5,710.5 C 1246.5,710.833 1250.5,711.167 1254.5,711.5C 1254.46,739.234 1253.13,766.9 1250.5,794.5C 1246.77,794.823 1243.11,794.489 1239.5,793.5C 1242.5,765.916 1243.5,738.249 1242.5,710.5 Z"/></g>
<g><path style="opacity:1" fill="#fefffe" d="M 1378.5,747.5 C 1383,747.219 1383.83,748.886 1381,752.5C 1376.89,764.055 1371.22,774.722 1364,784.5C 1365.02,772.85 1366.19,761.183 1367.5,749.5C 1371.34,749.069 1375,748.402 1378.5,747.5 Z"/></g>
<g><path style="opacity:1" fill="#0b213b" d="M 211.5,750.5 C 222.843,751.176 228.176,757.176 227.5,768.5C 227.746,781.029 221.913,789.029 210,792.5C 193.963,788.76 188.629,779.093 194,763.5C 199.94,759.103 205.773,754.77 211.5,750.5 Z"/></g>
<g><path style="opacity:1" fill="#fefffe" d="M 494.5,754.5 C 497.119,754.232 499.619,754.565 502,755.5C 503.934,762.637 506.268,769.637 509,776.5C 509.667,777.833 509.667,779.167 509,780.5C 501.101,784.239 493.101,787.573 485,790.5C 483.267,788.398 481.267,788.065 479,789.5C 477.287,788.122 475.953,786.455 475,784.5C 473.594,778.558 473.261,772.558 474,766.5C 479.006,769.72 482.506,768.554 484.5,763C 483.707,761.915 483.04,760.748 482.5,759.5C 486.416,757.423 490.416,755.756 494.5,754.5 Z"/></g>
<g><path style="opacity:1" fill="#0b213b" d="M 241.5,758.5 C 246.928,759.684 249.094,763.018 248,768.5C 246.104,769.68 244.604,771.18 243.5,773C 244.47,776.244 245.637,779.41 247,782.5C 247.142,768.028 254.309,760.528 268.5,760C 272.212,762.513 273.378,766.013 272,770.5C 268.535,774.967 264.702,779.133 260.5,783C 263.922,784.87 267.589,785.703 271.5,785.5C 276.503,784.657 281.503,784.157 286.5,784C 289.417,786.169 289.917,788.669 288,791.5C 277.172,796.809 266.338,796.809 255.5,791.5C 253.523,796.426 250.19,797.926 245.5,796C 234.786,786.381 231.786,774.881 236.5,761.5C 238.145,760.304 239.811,759.304 241.5,758.5 Z"/></g>
<g><path style="opacity:1" fill="#fefffe" d="M 208.5,765.5 C 209.873,765.343 211.207,765.51 212.5,766C 213.387,768.888 215.054,771.221 217.5,773C 216.416,777.578 213.749,780.744 209.5,782.5C 202.879,780.595 200.379,776.262 202,769.5C 204.013,767.752 206.18,766.418 208.5,765.5 Z"/></g>
<g><path style="opacity:1" fill="#fefffe" d="M 1428.5,776.5 C 1445.72,780.625 1450.89,790.959 1444,807.5C 1433.45,821.041 1420.28,824.208 1404.5,817C 1398.04,811.472 1396.88,804.972 1401,797.5C 1402.13,800.207 1403.63,802.707 1405.5,805C 1409.98,807.64 1413.32,806.64 1415.5,802C 1411.72,796.79 1410.72,790.957 1412.5,784.5C 1417.38,780.727 1422.71,778.061 1428.5,776.5 Z"/></g>
<g><path style="opacity:1" fill="#0b213b" d="M 1700.5,786.5 C 1756.59,797.862 1813.26,805.029 1870.5,808C 1900.82,809.316 1931.15,810.15 1961.5,810.5C 2031.87,809.616 2102.21,807.616 2172.5,804.5C 2176.39,804.435 2178.72,806.268 2179.5,810C 2177.42,813.901 2174.09,815.567 2169.5,815C 2100.19,817.671 2030.86,819.504 1961.5,820.5C 1884.68,820.918 1808.35,815.084 1732.5,803C 1721.58,801.271 1710.92,798.604 1700.5,795C 1697.9,792.17 1697.9,789.337 1700.5,786.5 Z"/></g>
<g><path style="opacity:1" fill="#0b213b" d="M 797.5,789.5 C 813.354,792.449 829.354,794.282 845.5,795C 853.5,798.333 861.5,801.667 869.5,805C 873.229,809.169 872.395,812.336 867,814.5C 858.238,810.871 849.404,807.371 840.5,804C 827.286,804.252 814.286,802.752 801.5,799.5C 790.625,802.802 779.625,805.636 768.5,808C 761.535,809.254 754.535,809.587 747.5,809C 744.582,805.528 744.915,802.528 748.5,800C 765.537,799.228 781.87,795.728 797.5,789.5 Z"/></g>
<g><path style="opacity:1" fill="#0b213b" d="M 306.5,802.5 C 314.763,803.515 316.097,807.015 310.5,813C 303.6,816.098 300.766,813.931 302,806.5C 303.992,805.672 305.492,804.339 306.5,802.5 Z"/></g>
<g><path style="opacity:1" fill="#fefffe" d="M 1238.5,804.5 C 1242.18,804.335 1245.85,804.501 1249.5,805C 1247.94,813.762 1246.61,822.596 1245.5,831.5C 1243.17,831.5 1240.83,831.5 1238.5,831.5C 1239.51,822.516 1239.51,813.516 1238.5,804.5 Z"/></g>
<g><path style="opacity:1" fill="#fefffe" d="M 1336.5,835.5 C 1337.45,836.919 1337.78,838.585 1337.5,840.5C 1334.48,840.665 1331.48,840.498 1328.5,840C 1331.85,839.512 1334.52,838.012 1336.5,835.5 Z"/></g>
<g><path style="opacity:1" fill="#0b213b" d="M 1785.5,857.5 C 1790.33,857.166 1794.83,858.166 1799,860.5C 1797.01,876.097 1792.68,891.097 1786,905.5C 1784.49,906.257 1783.15,907.257 1782,908.5C 1763.04,931.793 1743.71,954.793 1724,977.5C 1709.93,991.448 1695.76,1005.28 1681.5,1019C 1685.44,1022.95 1688.61,1027.45 1691,1032.5C 1692.95,1040.16 1690.12,1043.66 1682.5,1043C 1674.85,1041.42 1667.52,1038.92 1660.5,1035.5C 1650.65,1043.19 1641.98,1052.02 1634.5,1062C 1632.4,1063.77 1630.07,1065.1 1627.5,1066C 1614.87,1068.43 1604.7,1064.59 1597,1054.5C 1596.33,1052.17 1596.33,1049.83 1597,1047.5C 1604.65,1035.17 1613.82,1024 1624.5,1014C 1626.75,1012.35 1629.08,1012.01 1631.5,1013C 1622.7,1007.2 1616.53,999.369 1613,989.5C 1611.45,983.911 1613.45,980.578 1619,979.5C 1627.08,981.623 1634.91,984.456 1642.5,988C 1644.9,989.039 1647.23,989.206 1649.5,988.5C 1665.4,960.702 1684.24,935.035 1706,911.5C 1717.33,899.5 1728.67,887.5 1740,875.5C 1740.94,872.557 1742.11,869.724 1743.5,867C 1757.73,864.258 1771.73,861.091 1785.5,857.5 Z"/></g>
<g><path style="opacity:1" fill="#fefffe" d="M 1773.5,870.5 C 1774.55,870.351 1775.55,870.517 1776.5,871C 1769.3,877.864 1762.47,885.03 1756,892.5C 1727.83,928.014 1698.16,962.347 1667,995.5C 1665.69,999.7 1667.19,1002.37 1671.5,1003.5C 1675.45,1002.63 1677.95,1000.29 1679,996.5C 1709.2,965.311 1737.53,932.644 1764,898.5C 1770.13,891.364 1776.63,884.531 1783.5,878C 1784.33,877.312 1785,877.479 1785.5,878.5C 1783.34,885.814 1780.51,892.814 1777,899.5C 1760,919.833 1743,940.167 1726,960.5C 1709.6,978.905 1692.1,995.738 1673.5,1011C 1667.64,1006.25 1661.64,1001.75 1655.5,997.5C 1672.1,968.729 1691.6,942.062 1714,917.5C 1727.43,904.238 1739.93,890.238 1751.5,875.5C 1759.01,874.069 1766.34,872.402 1773.5,870.5 Z"/></g>
<g><path style="opacity:1" fill="#fefffe" d="M 1346.5,880.5 C 1360.12,881.94 1373.78,883.107 1387.5,884C 1373.84,884.5 1360.17,884.667 1346.5,884.5C 1346.5,883.167 1346.5,881.833 1346.5,880.5 Z"/></g>
<g><path style="opacity:1" fill="#0b213b" d="M 1308.5,921.5 C 1313.33,922.16 1315.17,924.827 1314,929.5C 1311.24,931.643 1308.08,932.81 1304.5,933C 1327.63,935.986 1348.13,944.819 1366,959.5C 1368.28,964.597 1366.62,967.597 1361,968.5C 1349.08,963.936 1336.74,961.27 1324,960.5C 1315.36,960.511 1307.2,962.345 1299.5,966C 1314.56,974.863 1330.56,981.53 1347.5,986C 1354.43,988.355 1356.6,992.855 1354,999.5C 1348.81,1002.1 1344.14,1005.43 1340,1009.5C 1335.64,1016.36 1336.97,1021.69 1344,1025.5C 1345.59,1027.67 1346.92,1030 1348,1032.5C 1348.73,1040.24 1348.23,1047.91 1346.5,1055.5C 1347.14,1058.88 1347.98,1062.22 1349,1065.5C 1352.28,1071.11 1355.94,1076.44 1360,1081.5C 1367.75,1097.07 1368.59,1113.07 1362.5,1129.5C 1366.87,1133.22 1368.7,1137.89 1368,1143.5C 1366.11,1148.94 1363.45,1153.94 1360,1158.5C 1352.88,1165.61 1347.38,1173.78 1343.5,1183C 1344.13,1186.3 1345.63,1189.13 1348,1191.5C 1353.33,1196.83 1358.67,1202.17 1364,1207.5C 1370.73,1216.44 1373.07,1226.44 1371,1237.5C 1367.45,1249 1364.61,1260.66 1362.5,1272.5C 1363.91,1277.99 1366.41,1282.99 1370,1287.5C 1371.77,1292.36 1372.93,1297.36 1373.5,1302.5C 1372.62,1310.4 1371.29,1318.24 1369.5,1326C 1373.65,1331.02 1373.31,1335.85 1368.5,1340.5C 1376.32,1343.77 1378.82,1349.44 1376,1357.5C 1375.24,1360.2 1374.07,1362.7 1372.5,1365C 1378.57,1370.86 1378.91,1376.86 1373.5,1383C 1358.82,1388.1 1343.82,1390.1 1328.5,1389C 1324.92,1386.47 1324.58,1383.47 1327.5,1380C 1330.23,1379.82 1332.89,1379.32 1335.5,1378.5C 1334.98,1377.39 1334.64,1376.23 1334.5,1375C 1335.42,1371.83 1335.92,1368.67 1336,1365.5C 1315.64,1343.47 1294.3,1322.47 1272,1302.5C 1264.98,1293.36 1263.65,1283.36 1268,1272.5C 1270.92,1263.64 1276.42,1256.98 1284.5,1252.5C 1288.81,1253.63 1290.31,1256.3 1289,1260.5C 1280.19,1266.62 1275.69,1275.12 1275.5,1286C 1276.04,1289.91 1277.54,1293.41 1280,1296.5C 1295.99,1310.49 1311.33,1325.16 1326,1340.5C 1324.7,1335.13 1326.86,1332.13 1332.5,1331.5C 1340.59,1334.75 1347.75,1339.42 1354,1345.5C 1354.54,1339.91 1357.04,1335.41 1361.5,1332C 1359.99,1330.53 1359.33,1328.69 1359.5,1326.5C 1361.05,1318.54 1362.38,1310.54 1363.5,1302.5C 1362.25,1294.34 1359.09,1287 1354,1280.5C 1353.07,1278.09 1352.57,1275.59 1352.5,1273C 1354.31,1260.6 1357.14,1248.43 1361,1236.5C 1362.77,1228.04 1361.1,1220.37 1356,1213.5C 1349.3,1207.14 1342.97,1200.47 1337,1193.5C 1332.33,1186.17 1332.33,1178.83 1337,1171.5C 1341.76,1164.98 1346.76,1158.65 1352,1152.5C 1354.58,1148.91 1356.75,1145.08 1358.5,1141C 1357.92,1139.29 1356.76,1138.12 1355,1137.5C 1354.6,1134.31 1353.77,1131.31 1352.5,1128.5C 1356.7,1117.14 1357.54,1105.48 1355,1093.5C 1349.67,1084.83 1344.33,1076.17 1339,1067.5C 1338.06,1063.52 1337.23,1059.52 1336.5,1055.5C 1338.16,1048.58 1338.66,1041.58 1338,1034.5C 1326.41,1026.04 1324.41,1015.71 1332,1003.5C 1334.87,1000.3 1338.04,997.463 1341.5,995C 1323.13,989.733 1305.97,981.9 1290,971.5C 1289.54,968.819 1288.71,966.319 1287.5,964C 1287.99,961.497 1289.32,959.497 1291.5,958C 1304.93,952.072 1318.93,949.739 1333.5,951C 1326.36,948.065 1319.03,945.732 1311.5,944C 1299.44,943.38 1287.44,943.713 1275.5,945C 1271.97,942.162 1271.63,938.995 1274.5,935.5C 1276.36,933.808 1278.36,932.308 1280.5,931C 1289.57,926.699 1298.9,923.532 1308.5,921.5 Z"/></g>
<g><path style="opacity:1" fill="#fefffe" d="M 1624.5,992.5 C 1624.56,991.957 1624.89,991.624 1625.5,991.5C 1630.85,993.689 1635.52,996.855 1639.5,1001C 1650.25,1005.76 1659.91,1012.09 1668.5,1020C 1666.96,1026.12 1669.29,1028.79 1675.5,1028C 1676.5,1029 1677.5,1030 1678.5,1031C 1669.7,1028.78 1661.37,1025.11 1653.5,1020C 1643.61,1010.94 1633.94,1001.77 1624.5,992.5 Z"/></g>
<g><path style="opacity:1" fill="#0b213b" d="M 1740.5,1001.5 C 1748.3,1002.69 1755.97,1004.52 1763.5,1007C 1767.92,1009.5 1770.92,1013.17 1772.5,1018C 1771.99,1021.18 1770.15,1023.01 1767,1023.5C 1763.59,1020.47 1760.09,1017.64 1756.5,1015C 1752.52,1012.71 1749.02,1013.21 1746,1016.5C 1744.18,1027.75 1747.01,1037.59 1754.5,1046C 1758.25,1044.56 1761.42,1045.4 1764,1048.5C 1764.83,1052.99 1763,1055.83 1758.5,1057C 1754.49,1058.1 1750.99,1057.26 1748,1054.5C 1743.05,1048.55 1739.39,1041.88 1737,1034.5C 1736.08,1037.1 1735.41,1039.77 1735,1042.5C 1731.02,1048.94 1727.35,1048.94 1724,1042.5C 1723.87,1030.33 1726.87,1019 1733,1008.5C 1735.4,1005.93 1737.9,1003.6 1740.5,1001.5 Z"/></g>
<g><path style="opacity:1" fill="#fefffe" d="M 1632.5,1014.5 C 1638.09,1020.59 1644.42,1025.76 1651.5,1030C 1642.17,1038 1633.5,1046.67 1625.5,1056C 1618.76,1057.7 1612.92,1056.2 1608,1051.5C 1607.33,1050.5 1607.33,1049.5 1608,1048.5C 1615.59,1038.24 1623.92,1028.58 1633,1019.5C 1633.38,1017.8 1633.22,1016.14 1632.5,1014.5 Z"/></g>
<g><path style="opacity:1" fill="#0b213b" d="M 1107.5,1119.5 C 1121.75,1124.15 1136.42,1126.99 1151.5,1128C 1177.8,1129.8 1204.13,1130.8 1230.5,1131C 1234.75,1133.71 1235.09,1136.71 1231.5,1140C 1194.97,1141.39 1158.63,1139.39 1122.5,1134C 1117.36,1132.73 1112.36,1131.07 1107.5,1129C 1103.65,1125.86 1103.65,1122.69 1107.5,1119.5 Z"/></g>
<g><path style="opacity:1" fill="#0b213b" d="M 1172.5,1161.5 C 1204.83,1162.71 1237.16,1163.87 1269.5,1165C 1272.36,1167.13 1272.86,1169.63 1271,1172.5C 1269.93,1173.19 1268.77,1173.69 1267.5,1174C 1261.67,1174.17 1255.83,1174.33 1250,1174.5C 1223.51,1173.03 1197.01,1171.86 1170.5,1171C 1167.52,1167.05 1168.19,1163.89 1172.5,1161.5 Z"/></g>
<g><path style="opacity:1" fill="#0b213b" d="M 1514.5,1176.5 C 1539.43,1178.83 1564.43,1181 1589.5,1183C 1596.23,1183.02 1600.9,1186.02 1603.5,1192C 1599.13,1201.49 1594.46,1201.83 1589.5,1193C 1564.84,1190.87 1540.18,1188.87 1515.5,1187C 1511.09,1186.25 1509.59,1183.75 1511,1179.5C 1512.15,1178.36 1513.31,1177.36 1514.5,1176.5 Z"/></g>
<g><path style="opacity:1" fill="#0b213b" d="M 1419.5,1250.5 C 1426.24,1249.73 1428.74,1252.39 1427,1258.5C 1422.07,1260.48 1417.23,1262.64 1412.5,1265C 1427.83,1265.67 1443.17,1265.67 1458.5,1265C 1496.97,1261.75 1535.47,1258.92 1574,1256.5C 1580.6,1256.59 1587.1,1257.42 1593.5,1259C 1599.81,1262.52 1599.81,1266.02 1593.5,1269.5C 1587.16,1267.47 1580.66,1266.47 1574,1266.5C 1535.47,1268.92 1496.97,1271.75 1458.5,1275C 1443.17,1275.67 1427.83,1275.67 1412.5,1275C 1407.6,1274.48 1402.93,1273.14 1398.5,1271C 1394.11,1265.56 1395.11,1261.23 1401.5,1258C 1407.7,1255.72 1413.7,1253.22 1419.5,1250.5 Z"/></g>
<g><path style="opacity:1" fill="#fefffe" d="M 1336.5,1347.5 C 1337.61,1348.95 1337.78,1350.61 1337,1352.5C 1335.48,1350.86 1335.31,1349.19 1336.5,1347.5 Z"/></g>
<g><path style="opacity:1" fill="#fefffe" d="M 1358.5,1350.5 C 1358.74,1349.9 1359.24,1349.57 1360,1349.5C 1362.54,1350.01 1365.04,1350.67 1367.5,1351.5C 1366.99,1353.23 1366.32,1354.89 1365.5,1356.5C 1363.15,1354.48 1360.81,1352.48 1358.5,1350.5 Z"/></g>
<g><path style="opacity:1" fill="#fefffe" d="M 1347.5,1353.5 C 1353.33,1357.82 1357.83,1363.15 1361,1369.5C 1362.24,1370.87 1363.74,1371.87 1365.5,1372.5C 1366.39,1373.32 1366.72,1374.32 1366.5,1375.5C 1363.82,1376.01 1361.16,1376.17 1358.5,1376C 1355.37,1371.87 1351.87,1368.03 1348,1364.5C 1347.5,1360.85 1347.33,1357.18 1347.5,1353.5 Z"/></g>
<g><path style="opacity:1" fill="#fefffe" d="M 1345.5,1377.5 C 1348,1377.51 1348.17,1378.18 1346,1379.5C 1345.54,1378.91 1345.37,1378.24 1345.5,1377.5 Z"/></g>
<g><path style="opacity:1" fill="#0b213b" d="M 1259.5,1469.5 C 1261.53,1469.34 1263.53,1469.5 1265.5,1470C 1268.67,1475.27 1273.33,1478.6 1279.5,1480C 1284.49,1484.26 1285.65,1489.43 1283,1495.5C 1279.55,1501.94 1275.71,1508.11 1271.5,1514C 1274.25,1515.8 1276.75,1517.97 1279,1520.5C 1281.04,1525.69 1282.71,1531.03 1284,1536.5C 1287.37,1539.21 1290.03,1542.54 1292,1546.5C 1291.79,1554.71 1287.62,1558.88 1279.5,1559C 1276.41,1554.88 1277.07,1551.55 1281.5,1549C 1275.19,1542.87 1271.69,1535.37 1271,1526.5C 1267.03,1524.68 1263.36,1522.35 1260,1519.5C 1259.33,1517.17 1259.33,1514.83 1260,1512.5C 1265.85,1505.48 1270.68,1497.81 1274.5,1489.5C 1268.98,1486.82 1263.81,1483.48 1259,1479.5C 1256.87,1475.98 1257.04,1472.64 1259.5,1469.5 Z"/></g>
<g><path style="opacity:1" fill="#0b213b" d="M 1221.5,1476.5 C 1227.75,1476.22 1229.91,1478.89 1228,1484.5C 1223.41,1487.54 1218.91,1490.71 1214.5,1494C 1211.42,1496.84 1209.08,1500.18 1207.5,1504C 1209.38,1506.11 1211.71,1507.44 1214.5,1508C 1221.14,1509.16 1227.81,1510.16 1234.5,1511C 1240.6,1513.31 1242.44,1517.48 1240,1523.5C 1236.55,1528.62 1232.71,1533.45 1228.5,1538C 1237.8,1539.96 1242.8,1545.63 1243.5,1555C 1241.63,1562.07 1242.3,1568.74 1245.5,1575C 1244,1580.42 1240.67,1582.08 1235.5,1580C 1234.54,1578.58 1233.71,1577.08 1233,1575.5C 1232.26,1568.64 1232.43,1561.81 1233.5,1555C 1233.37,1553.37 1232.87,1551.87 1232,1550.5C 1228.12,1548.81 1224.29,1546.98 1220.5,1545C 1218.61,1542.08 1218.11,1538.92 1219,1535.5C 1221.89,1530.22 1225.39,1525.39 1229.5,1521C 1222.84,1519.81 1216.17,1518.48 1209.5,1517C 1196.67,1511.19 1194.51,1502.69 1203,1491.5C 1208.78,1485.88 1214.94,1480.88 1221.5,1476.5 Z"/></g>
<g><path style="opacity:1" fill="#0b213b" d="M 1432.5,1518.5 C 1437.62,1518.09 1440.28,1520.42 1440.5,1525.5C 1436.73,1537.77 1428.73,1545.94 1416.5,1550C 1402.38,1552.95 1388.71,1557.28 1375.5,1563C 1368.27,1569.23 1362.1,1576.4 1357,1584.5C 1353.56,1589.68 1350.23,1589.68 1347,1584.5C 1346.48,1582.71 1346.81,1581.04 1348,1579.5C 1354.29,1570.38 1361.46,1562.05 1369.5,1554.5C 1359.12,1550.73 1348.62,1547.39 1338,1544.5C 1326.37,1546.79 1316.71,1552.46 1309,1561.5C 1297.25,1574.68 1288.91,1589.68 1284,1606.5C 1304.65,1588.45 1327.65,1584.45 1353,1594.5C 1354.54,1598.81 1353.21,1601.47 1349,1602.5C 1323.49,1594.46 1301.83,1600.46 1284,1620.5C 1276.2,1629.96 1268.04,1639.13 1259.5,1648C 1251.42,1656.08 1242.75,1663.42 1233.5,1670C 1232.41,1672.17 1231.08,1674.17 1229.5,1676C 1216.36,1680.62 1203.02,1684.62 1189.5,1688C 1185.22,1696.06 1181.05,1704.22 1177,1712.5C 1175.53,1719.12 1173.19,1725.45 1170,1731.5C 1168.72,1734.37 1168.56,1737.2 1169.5,1740C 1172.28,1741.04 1175.11,1741.87 1178,1742.5C 1180.52,1740.44 1183.36,1738.61 1186.5,1737C 1192.23,1734.68 1197.56,1735.34 1202.5,1739C 1206.39,1743.39 1210.72,1747.22 1215.5,1750.5C 1217.09,1747.58 1218.59,1744.58 1220,1741.5C 1222,1739.08 1224.5,1738.24 1227.5,1739C 1234.15,1742.68 1240.99,1745.84 1248,1748.5C 1250.79,1747.04 1252.96,1744.87 1254.5,1742C 1256.35,1741.16 1258.18,1740.33 1260,1739.5C 1265.07,1742.74 1270.57,1743.91 1276.5,1743C 1279.5,1740.67 1282.5,1738.33 1285.5,1736C 1287.36,1735.58 1289.19,1735.08 1291,1734.5C 1294.79,1735.56 1298.62,1735.73 1302.5,1735C 1303.68,1731.6 1305.02,1728.27 1306.5,1725C 1317.43,1723.73 1328.43,1723.07 1339.5,1723C 1340.78,1715.36 1345.12,1712.86 1352.5,1715.5C 1353.94,1709.24 1355.61,1703.07 1357.5,1697C 1362.82,1695.17 1365.49,1697 1365.5,1702.5C 1365.13,1711.13 1362.13,1718.63 1356.5,1725C 1352.26,1724.71 1349.26,1726.38 1347.5,1730C 1345.73,1731.44 1343.73,1732.44 1341.5,1733C 1332.17,1733.5 1322.84,1733.67 1313.5,1733.5C 1312.94,1739.23 1309.94,1743.06 1304.5,1745C 1300.11,1745.77 1295.78,1745.61 1291.5,1744.5C 1287.51,1747.83 1283.18,1750.66 1278.5,1753C 1272.33,1754.17 1266.49,1753.34 1261,1750.5C 1256.08,1758.4 1249.25,1760.57 1240.5,1757C 1236.24,1754.95 1232.07,1752.79 1228,1750.5C 1225.87,1753.91 1223.37,1757.07 1220.5,1760C 1215.39,1761.11 1210.72,1760.11 1206.5,1757C 1202.58,1752.4 1198.08,1748.57 1193,1745.5C 1189.95,1746.55 1187.45,1748.38 1185.5,1751C 1177.8,1753.25 1170.47,1752.25 1163.5,1748C 1158.31,1743.07 1157.15,1737.24 1160,1730.5C 1165.27,1714.28 1171.94,1698.61 1180,1683.5C 1181.87,1681.29 1184.04,1679.46 1186.5,1678C 1197.35,1675.62 1208.02,1672.62 1218.5,1669C 1225.02,1664.24 1231.35,1659.24 1237.5,1654C 1235.06,1654.55 1232.89,1653.72 1231,1651.5C 1229.77,1642.72 1226.61,1634.72 1221.5,1627.5C 1218.34,1626.29 1215.17,1626.29 1212,1627.5C 1209.42,1626.9 1206.92,1626.06 1204.5,1625C 1202.21,1620.8 1200.71,1616.3 1200,1611.5C 1197.28,1609.7 1194.28,1608.7 1191,1608.5C 1188.25,1609.61 1185.41,1610.11 1182.5,1610C 1179.21,1607.67 1178.71,1604.83 1181,1601.5C 1187.98,1597.89 1195.14,1597.72 1202.5,1601C 1204.62,1602.12 1206.46,1603.62 1208,1605.5C 1209.8,1609.39 1211.3,1613.39 1212.5,1617.5C 1217.23,1616.07 1221.9,1616.23 1226.5,1618C 1235.66,1627.8 1240.16,1639.3 1240,1652.5C 1248.67,1643.83 1257.33,1635.17 1266,1626.5C 1265.54,1622.22 1265.54,1617.88 1266,1613.5C 1267.6,1612.13 1269.43,1611.13 1271.5,1610.5C 1278.58,1583.81 1292.58,1561.65 1313.5,1544C 1324.64,1535.24 1336.97,1532.91 1350.5,1537C 1369.21,1547.5 1387.55,1546.83 1405.5,1535C 1414.43,1529.21 1423.43,1523.71 1432.5,1518.5 Z"/></g>
<g><path style="opacity:1" fill="#0b213b" d="M 1579.5,1531.5 C 1586.11,1531.41 1588.28,1534.41 1586,1540.5C 1580.67,1549.17 1575.33,1557.83 1570,1566.5C 1560.69,1577.58 1548.86,1584.75 1534.5,1588C 1516.54,1592.22 1498.54,1596.22 1480.5,1600C 1471.83,1605.67 1463.17,1611.33 1454.5,1617C 1445.46,1625.04 1436.12,1632.71 1426.5,1640C 1423.11,1641.69 1419.77,1641.69 1416.5,1640C 1415.41,1637.94 1415.24,1635.77 1416,1633.5C 1419.07,1631.93 1422.24,1630.43 1425.5,1629C 1442.09,1612.71 1460.75,1599.38 1481.5,1589C 1502.95,1585.78 1523.95,1580.78 1544.5,1574C 1552.57,1570.26 1559.07,1564.76 1564,1557.5C 1564.69,1556.67 1564.52,1556 1563.5,1555.5C 1553.38,1563.39 1542.05,1568.89 1529.5,1572C 1522.83,1572.67 1516.17,1572.67 1509.5,1572C 1501.5,1570 1493.5,1568 1485.5,1566C 1471.18,1564.46 1457.52,1566.8 1444.5,1573C 1423.29,1582.57 1403.96,1594.9 1386.5,1610C 1385.87,1612.8 1384.87,1615.47 1383.5,1618C 1376.24,1619.03 1373.41,1615.87 1375,1608.5C 1394.44,1589.01 1416.94,1573.85 1442.5,1563C 1464.68,1553.37 1487.02,1553.04 1509.5,1562C 1523.24,1564.4 1535.91,1561.73 1547.5,1554C 1558.41,1546.72 1569.08,1539.22 1579.5,1531.5 Z"/></g>
<g><path style="opacity:1" fill="#0b213b" d="M 1128.5,1573.5 C 1132.11,1573.38 1134.27,1575.05 1135,1578.5C 1136.36,1590.28 1138.36,1601.94 1141,1613.5C 1141.67,1618.17 1141.67,1622.83 1141,1627.5C 1138,1631.5 1135,1631.5 1132,1627.5C 1130.09,1611.1 1127.59,1594.76 1124.5,1578.5C 1125.13,1576.21 1126.46,1574.55 1128.5,1573.5 Z"/></g>
<g><path style="opacity:1" fill="#0b213b" d="M 1104.5,1578.5 C 1110.14,1578.62 1114.47,1581.12 1117.5,1586C 1115.26,1591.85 1111.6,1592.85 1106.5,1589C 1102.15,1586.09 1101.48,1582.59 1104.5,1578.5 Z"/></g>
<g><path style="opacity:1" fill="#0b213b" d="M 1035.5,1606.5 C 1052.64,1606.73 1056.48,1614.07 1047,1628.5C 1042.12,1632.27 1036.79,1635.27 1031,1637.5C 1032.42,1648.24 1038.59,1653.08 1049.5,1652C 1055.81,1649.24 1059.65,1644.41 1061,1637.5C 1062.51,1636.91 1064.01,1636.24 1065.5,1635.5C 1064.38,1629.71 1063.71,1624.05 1063.5,1618.5C 1065.11,1613.14 1068.28,1611.8 1073,1614.5C 1073.41,1622.13 1074.41,1629.79 1076,1637.5C 1078.79,1642.71 1081.79,1642.71 1085,1637.5C 1086.66,1634.69 1087.83,1631.69 1088.5,1628.5C 1088.31,1626.14 1087.14,1624.48 1085,1623.5C 1083.46,1619.19 1084.79,1616.53 1089,1615.5C 1091.41,1615.7 1093.41,1616.7 1095,1618.5C 1100.31,1630.45 1097.81,1640.61 1087.5,1649C 1080.35,1653.06 1074.18,1651.89 1069,1645.5C 1061.2,1661.82 1049.04,1666.32 1032.5,1659C 1025.85,1654.22 1021.85,1647.72 1020.5,1639.5C 1018.26,1637.42 1016.6,1634.92 1015.5,1632C 1016.65,1629.51 1018.49,1627.68 1021,1626.5C 1022.67,1617.46 1027.51,1610.8 1035.5,1606.5 Z"/></g>
<g><path style="opacity:1" fill="#0b213b" d="M 1649.5,1606.5 C 1654.23,1607.32 1658.9,1607.66 1663.5,1607.5C 1665.4,1609.87 1665.9,1612.53 1665,1615.5C 1646.1,1631.06 1630.93,1649.56 1619.5,1671C 1620.13,1673.14 1620.63,1675.3 1621,1677.5C 1621.75,1678.13 1622.58,1678.63 1623.5,1679C 1643.57,1682.62 1662.57,1679.62 1680.5,1670C 1689.33,1663.75 1698.33,1657.75 1707.5,1652C 1719.84,1644.78 1732.84,1643.11 1746.5,1647C 1752.85,1649.35 1757.18,1653.68 1759.5,1660C 1759.1,1662.89 1757.76,1665.22 1755.5,1667C 1732.98,1679.75 1711.32,1693.75 1690.5,1709C 1700.87,1708.97 1711.21,1708.14 1721.5,1706.5C 1735.14,1706.82 1743.81,1713.49 1747.5,1726.5C 1746.78,1731.72 1743.78,1734.89 1738.5,1736C 1720.12,1742.07 1701.79,1748.24 1683.5,1754.5C 1694.52,1767.03 1702.85,1781.2 1708.5,1797C 1708.36,1799.15 1707.36,1800.82 1705.5,1802C 1700.5,1802.67 1695.5,1802.67 1690.5,1802C 1675.37,1799.56 1660.21,1797.4 1645,1795.5C 1642.44,1795.58 1640.61,1796.75 1639.5,1799C 1633.12,1799.24 1626.78,1799.91 1620.5,1801C 1606.17,1806 1591.83,1811 1577.5,1816C 1572.26,1818.2 1567.42,1821.04 1563,1824.5C 1555.61,1837.76 1557.61,1849.43 1569,1859.5C 1574.19,1867.97 1572.69,1875.13 1564.5,1881C 1552.05,1889.26 1538.38,1893.26 1523.5,1893C 1519.37,1892.3 1515.87,1890.46 1513,1887.5C 1511.33,1881.51 1513.5,1879.01 1519.5,1880C 1523.64,1883.24 1528.31,1884.24 1533.5,1883C 1542.41,1881.04 1550.74,1877.71 1558.5,1873C 1560.02,1871.65 1561.35,1870.15 1562.5,1868.5C 1559.19,1863.36 1555.69,1858.36 1552,1853.5C 1547.19,1841.36 1548.19,1829.7 1555,1818.5C 1559.35,1813.83 1564.51,1810.33 1570.5,1808C 1588.17,1801.05 1606.17,1795.22 1624.5,1790.5C 1624.47,1785.99 1626.8,1783.99 1631.5,1784.5C 1653.26,1786.59 1674.92,1789.09 1696.5,1792C 1690.39,1779.9 1682.72,1768.9 1673.5,1759C 1664.64,1759.43 1662.14,1755.6 1666,1747.5C 1668.36,1745.23 1671.03,1744.9 1674,1746.5C 1694.83,1739.72 1715.67,1733.06 1736.5,1726.5C 1735.09,1721.92 1732.09,1718.75 1727.5,1717C 1714.83,1717.67 1702.17,1718.33 1689.5,1719C 1680.37,1716.92 1677.87,1711.76 1682,1703.5C 1702.75,1687.43 1724.58,1672.93 1747.5,1660C 1741.99,1655.37 1735.66,1653.71 1728.5,1655C 1723.98,1655.73 1719.65,1657.06 1715.5,1659C 1704.17,1666.33 1692.83,1673.67 1681.5,1681C 1661.6,1690.24 1640.94,1692.57 1619.5,1688C 1611.12,1683.75 1607.95,1676.91 1610,1667.5C 1618.58,1651.19 1628.75,1636.52 1640.5,1623.5C 1608.66,1642.25 1577.33,1661.75 1546.5,1682C 1542,1685.83 1537.5,1689.67 1533,1693.5C 1530.11,1697.06 1528.11,1701.06 1527,1705.5C 1522.09,1734.5 1518.09,1763.5 1515,1792.5C 1511.54,1800.75 1507.54,1808.75 1503,1816.5C 1501.29,1822.07 1499.95,1827.74 1499,1833.5C 1496,1837.5 1493,1837.5 1490,1833.5C 1489.91,1826.27 1491.25,1819.27 1494,1812.5C 1498.81,1804.55 1502.81,1796.22 1506,1787.5C 1507.96,1768.23 1510.29,1748.9 1513,1729.5C 1514.59,1717.65 1516.92,1705.98 1520,1694.5C 1527.86,1684.64 1537.03,1676.14 1547.5,1669C 1581.14,1647.51 1615.14,1626.68 1649.5,1606.5 Z"/></g>
<g><path style="opacity:1" fill="#0b213b" d="M 1103.5,1612.5 C 1106.04,1612.1 1108.21,1612.77 1110,1614.5C 1111.07,1618.08 1111.74,1621.75 1112,1625.5C 1113.89,1626.13 1115.56,1627.13 1117,1628.5C 1118.33,1634.92 1116,1639.26 1110,1641.5C 1105.73,1639.56 1103.39,1636.22 1103,1631.5C 1102.3,1626.79 1101.47,1622.13 1100.5,1617.5C 1101.26,1615.64 1102.26,1613.97 1103.5,1612.5 Z"/></g>
<g><path style="opacity:1" fill="#fefffe" d="M 1037.5,1616.5 C 1039.2,1616.34 1040.87,1616.51 1042.5,1617C 1040.16,1621.42 1036.66,1624.59 1032,1626.5C 1032.49,1622.52 1034.33,1619.19 1037.5,1616.5 Z"/></g>
<g><path style="opacity:1" fill="#0b213b" d="M 1452.5,1626.5 C 1476.24,1629.39 1491.74,1642.39 1499,1665.5C 1506.26,1691.29 1501.43,1714.45 1484.5,1735C 1489.42,1734.59 1491.59,1736.76 1491,1741.5C 1479.67,1756.17 1468.33,1770.83 1457,1785.5C 1447.4,1798.7 1439.9,1813.04 1434.5,1828.5C 1434.68,1829.55 1435.01,1830.55 1435.5,1831.5C 1440.25,1832.66 1442.25,1835.66 1441.5,1840.5C 1444.94,1840.7 1448.27,1840.2 1451.5,1839C 1460.17,1834.33 1468.83,1829.67 1477.5,1825C 1481.49,1823.67 1484.15,1825 1485.5,1829C 1484.87,1830.89 1483.87,1832.56 1482.5,1834C 1473.02,1839.24 1463.35,1844.24 1453.5,1849C 1442.49,1853.23 1433.99,1850.4 1428,1840.5C 1426.2,1836.52 1425.04,1832.35 1424.5,1828C 1427.55,1816.07 1432.38,1804.9 1439,1794.5C 1451.35,1775.82 1464.85,1757.98 1479.5,1741C 1473.74,1744.81 1467.58,1748.31 1461,1751.5C 1456.79,1750.41 1455.46,1747.74 1457,1743.5C 1484.59,1728.66 1495.92,1705.66 1491,1674.5C 1486.49,1651.99 1472.99,1639.15 1450.5,1636C 1447.74,1632.11 1448.41,1628.94 1452.5,1626.5 Z"/></g>
<g><path style="opacity:1" fill="#0b213b" d="M 1313.5,1632.5 C 1319,1631.83 1321.17,1634.16 1320,1639.5C 1319.17,1641 1318,1642.17 1316.5,1643C 1318.5,1643.5 1320.5,1644 1322.5,1644.5C 1328.21,1642.23 1333.71,1639.56 1339,1636.5C 1342.33,1637.19 1344.33,1639.19 1345,1642.5C 1356.56,1639.28 1364.56,1643.28 1369,1654.5C 1371.79,1660.42 1370.95,1665.58 1366.5,1670C 1351.91,1672.23 1337.58,1675.56 1323.5,1680C 1319.17,1681.49 1316.83,1679.99 1316.5,1675.5C 1316.39,1673.63 1317.06,1672.13 1318.5,1671C 1328.41,1668.02 1338.41,1665.36 1348.5,1663C 1347.41,1660.94 1347.24,1658.77 1348,1656.5C 1350.29,1654.63 1352.79,1653.13 1355.5,1652C 1348.2,1650.99 1341.54,1652.65 1335.5,1657C 1332.06,1660.23 1328.39,1663.23 1324.5,1666C 1318.5,1666.99 1316.33,1664.49 1318,1658.5C 1319.17,1657.33 1320.33,1656.17 1321.5,1655C 1316.84,1653.85 1312.18,1652.52 1307.5,1651C 1303.36,1648.28 1302.52,1644.78 1305,1640.5C 1307.73,1637.6 1310.56,1634.93 1313.5,1632.5 Z"/></g>
<g><path style="opacity:1" fill="#0b213b" d="M 1437.5,1666.5 C 1451.98,1665.48 1461.48,1671.82 1466,1685.5C 1468.6,1694.26 1467.6,1702.6 1463,1710.5C 1459.92,1715.59 1456.08,1720.09 1451.5,1724C 1443.91,1730.05 1436.41,1736.21 1429,1742.5C 1428.41,1745.97 1426.58,1748.47 1423.5,1750C 1424.37,1752.32 1423.7,1754.32 1421.5,1756C 1403.05,1763.89 1384.38,1771.23 1365.5,1778C 1357.92,1791.92 1348.42,1804.42 1337,1815.5C 1320.63,1830.87 1303.97,1845.87 1287,1860.5C 1283.84,1864.16 1281.17,1868.16 1279,1872.5C 1277.46,1878.75 1277.13,1885.08 1278,1891.5C 1281.24,1893.07 1283.41,1895.57 1284.5,1899C 1283.19,1902.42 1282.19,1905.92 1281.5,1909.5C 1282.43,1913.19 1283.76,1916.69 1285.5,1920C 1284.34,1924.41 1281.67,1925.91 1277.5,1924.5C 1280.14,1939.9 1283.81,1955.06 1288.5,1970C 1288.49,1973.33 1288.16,1976.66 1287.5,1980C 1280.43,1982.74 1273.09,1984.4 1265.5,1985C 1236.87,1986.12 1208.54,1989.45 1180.5,1995C 1175.48,1996.01 1170.81,1997.85 1166.5,2000.5C 1168.22,2001.93 1170.22,2002.77 1172.5,2003C 1181.08,2003.18 1189.58,2003.68 1198,2004.5C 1198.33,2004.17 1198.67,2003.83 1199,2003.5C 1200.07,2004.19 1201.23,2004.69 1202.5,2005C 1206.06,2012.8 1210.4,2020.13 1215.5,2027C 1224.87,2027.68 1234.2,2027.35 1243.5,2026C 1249.89,2023.84 1256.56,2022.84 1263.5,2023C 1285.22,2017.56 1307.22,2013.72 1329.5,2011.5C 1332.67,2003.16 1335.34,1994.66 1337.5,1986C 1335.34,1981.87 1335.17,1977.71 1337,1973.5C 1339.05,1972.73 1340.55,1971.4 1341.5,1969.5C 1343.87,1961.3 1344.7,1952.97 1344,1944.5C 1342.08,1940.39 1340.92,1936.22 1340.5,1932C 1342.83,1926.06 1346.83,1924.56 1352.5,1927.5C 1353.26,1928.63 1353.93,1929.79 1354.5,1931C 1353.5,1933.33 1352.5,1935.67 1351.5,1938C 1352.89,1939.17 1353.73,1940.67 1354,1942.5C 1354.56,1947.91 1354.56,1953.24 1354,1958.5C 1376.71,1955.11 1399.54,1954.61 1422.5,1957C 1467.21,1961.17 1511.54,1967.84 1555.5,1977C 1561.48,1978 1567.48,1978.33 1573.5,1978C 1573.83,1977.67 1574.17,1977.33 1574.5,1977C 1572.6,1974.03 1571.1,1970.86 1570,1967.5C 1569.18,1959.45 1569.51,1951.45 1571,1943.5C 1578.05,1913.67 1589.38,1885.67 1605,1859.5C 1615.48,1846.92 1628.65,1843.08 1644.5,1848C 1652.68,1849.05 1659.85,1852.22 1666,1857.5C 1667.65,1862.07 1666.15,1864.73 1661.5,1865.5C 1649.24,1857.51 1635.9,1855.01 1621.5,1858C 1618.37,1860.13 1615.54,1862.63 1613,1865.5C 1597.89,1891.83 1586.89,1919.83 1580,1949.5C 1575.9,1963.62 1580.56,1973.29 1594,1978.5C 1598.33,1976.5 1602.67,1974.5 1607,1972.5C 1610.18,1973.01 1612.01,1974.85 1612.5,1978C 1610.97,1981.03 1608.64,1983.2 1605.5,1984.5C 1615.34,1991.67 1626.34,1995.67 1638.5,1996.5C 1646.82,1995.59 1655.16,1995.43 1663.5,1996C 1669.06,1997.54 1674.73,1998.54 1680.5,1999C 1681.94,2000.76 1682.94,2002.76 1683.5,2005C 1692.94,2006.61 1702.27,2005.94 1711.5,2003C 1724.54,1998.9 1736.7,1993.07 1748,1985.5C 1749.03,1978.14 1753.2,1973.64 1760.5,1972C 1770.72,1968.59 1781.05,1965.59 1791.5,1963C 1809.85,1959.77 1828.19,1956.44 1846.5,1953C 1865.43,1949.03 1883.1,1942.03 1899.5,1932C 1903.59,1930.09 1905.92,1926.92 1906.5,1922.5C 1903.29,1910.92 1897.63,1900.75 1889.5,1892C 1885.33,1888.5 1880.66,1885.83 1875.5,1884C 1872.81,1883.46 1870.31,1883.96 1868,1885.5C 1865.2,1884.87 1862.53,1883.87 1860,1882.5C 1846.81,1888.69 1834.98,1896.85 1824.5,1907C 1802.75,1922.92 1778.42,1931.25 1751.5,1932C 1745.84,1931 1742.01,1927.84 1740,1922.5C 1738.43,1909.98 1735.1,1897.98 1730,1886.5C 1722.83,1877.66 1714.16,1870.66 1704,1865.5C 1702.67,1859.83 1704.84,1857.33 1710.5,1858C 1728.07,1865.9 1739.57,1879.07 1745,1897.5C 1746.56,1905.2 1748.23,1912.86 1750,1920.5C 1750.75,1921.13 1751.58,1921.63 1752.5,1922C 1766.08,1922.36 1779.08,1919.69 1791.5,1914C 1798.66,1910.59 1805.66,1906.92 1812.5,1903C 1823.5,1894.67 1834.5,1886.33 1845.5,1878C 1849.34,1876 1853.34,1874.5 1857.5,1873.5C 1860.2,1849.58 1872.2,1832.08 1893.5,1821C 1907.88,1818.7 1916.05,1824.87 1918,1839.5C 1919.43,1850.87 1915.6,1860.04 1906.5,1867C 1916.07,1866.58 1925.07,1868.58 1933.5,1873C 1942.9,1882.24 1942.23,1890.91 1931.5,1899C 1944.63,1905.12 1952.97,1915.12 1956.5,1929C 1956,1935.84 1952.67,1940.84 1946.5,1944C 1938.17,1949 1929.17,1952 1919.5,1953C 1921.93,1963.42 1917.6,1968.25 1906.5,1967.5C 1894.59,1966.36 1883.76,1962.36 1874,1955.5C 1848.63,1963.09 1822.79,1968.59 1796.5,1972C 1783.29,1974.68 1770.63,1978.85 1758.5,1984.5C 1760.08,1988.84 1758.75,1992.01 1754.5,1994C 1742.35,2001.08 1729.68,2007.08 1716.5,2012C 1702.33,2017.22 1688.16,2017.39 1674,2012.5C 1648.64,2020.17 1622.8,2025.67 1596.5,2029C 1584.93,2030.29 1573.6,2029.29 1562.5,2026C 1556.84,2021.69 1556,2016.53 1560,2010.5C 1565.61,2005.74 1572.11,2002.9 1579.5,2002C 1589.21,2000.86 1598.88,1999.53 1608.5,1998C 1604.17,1995.67 1599.83,1993.33 1595.5,1991C 1593.45,1990.68 1591.45,1991.01 1589.5,1992C 1576.4,1998.55 1563.07,2004.55 1549.5,2010C 1543.17,2011.5 1540.5,2009 1541.5,2002.5C 1532.16,2002.33 1522.83,2002.5 1513.5,2003C 1491.51,2005.43 1469.51,2007.76 1447.5,2010C 1422.73,2011.35 1398.39,2008.69 1374.5,2002C 1365.05,1999.24 1356.05,1995.41 1347.5,1990.5C 1344.7,1997.67 1342.2,2005.01 1340,2012.5C 1338.67,2016.35 1336.51,2019.52 1333.5,2022C 1327.5,2022.33 1321.5,2022.67 1315.5,2023C 1298.07,2025.82 1280.73,2029.15 1263.5,2033C 1250.48,2035.43 1237.31,2036.93 1224,2037.5C 1216.13,2039.1 1209.79,2036.77 1205,2030.5C 1201.96,2024.92 1198.79,2019.42 1195.5,2014C 1186.12,2013.85 1176.78,2013.19 1167.5,2012C 1161.71,2010.55 1157.38,2007.21 1154.5,2002C 1150.18,2001.5 1145.85,2001.33 1141.5,2001.5C 1141.93,2009.28 1141.43,2016.95 1140,2024.5C 1134.59,2027.58 1128.76,2029.42 1122.5,2030C 1102.82,2032.62 1083.49,2030.96 1064.5,2025C 1058.02,2022.19 1054.18,2017.36 1053,2010.5C 1049.77,1985.26 1048.77,1959.93 1050,1934.5C 1050.59,1924.05 1053.59,1914.38 1059,1905.5C 1060.21,1903.95 1061.71,1902.78 1063.5,1902C 1099.47,1891.68 1135.14,1880.34 1170.5,1868C 1176.02,1866.13 1181.69,1864.96 1187.5,1864.5C 1191.71,1863.71 1194.38,1865.38 1195.5,1869.5C 1194.87,1871.26 1193.87,1872.76 1192.5,1874C 1184.26,1874.52 1176.26,1876.18 1168.5,1879C 1135.55,1890.87 1102.21,1901.54 1068.5,1911C 1067,1911.83 1065.83,1913 1065,1914.5C 1060.13,1928.4 1058.29,1942.73 1059.5,1957.5C 1059.35,1976.01 1060.85,1994.35 1064,2012.5C 1065.32,2014.49 1067.15,2015.65 1069.5,2016C 1088.25,2021.65 1107.25,2022.82 1126.5,2019.5C 1126.32,2016.68 1127.65,2015.01 1130.5,2014.5C 1131.15,2007.94 1131.49,2001.44 1131.5,1995C 1134.25,1993.25 1137.25,1992.25 1140.5,1992C 1146.17,1991.67 1151.83,1991.33 1157.5,1991C 1154.92,1987.84 1152.59,1984.51 1150.5,1981C 1143.5,1980.67 1136.5,1980.33 1129.5,1980C 1124.01,1979.5 1118.85,1978 1114,1975.5C 1107.64,1979.88 1104.47,1978.05 1104.5,1970C 1107.93,1950.03 1115.1,1931.53 1126,1914.5C 1129.2,1910.96 1132.7,1907.8 1136.5,1905C 1145.66,1903.79 1154.66,1901.79 1163.5,1899C 1174.02,1894.6 1184.69,1890.6 1195.5,1887C 1194.43,1879.51 1196.27,1872.68 1201,1866.5C 1204.5,1863 1208,1859.5 1211.5,1856C 1221.61,1849.61 1232.28,1844.28 1243.5,1840C 1256.84,1831.34 1269,1821.17 1280,1809.5C 1282.51,1806.16 1284.35,1802.49 1285.5,1798.5C 1283.7,1792.93 1280.37,1791.26 1275.5,1793.5C 1269.16,1790.14 1268.83,1785.97 1274.5,1781C 1282.81,1780.91 1289.31,1784.41 1294,1791.5C 1296.26,1797.78 1295.6,1803.78 1292,1809.5C 1282.75,1822.09 1271.58,1832.59 1258.5,1841C 1257.07,1843.18 1255.4,1845.18 1253.5,1847C 1247.09,1850.54 1240.42,1853.54 1233.5,1856C 1228.17,1860 1223.5,1864.67 1219.5,1870C 1221.44,1872.15 1221.94,1874.65 1221,1877.5C 1216.62,1882.21 1212.62,1887.21 1209,1892.5C 1203.92,1902.65 1202.42,1913.32 1204.5,1924.5C 1208.08,1929.32 1210.91,1934.66 1213,1940.5C 1215.6,1943.22 1218.1,1946.06 1220.5,1949C 1219.13,1954.26 1215.97,1955.76 1211,1953.5C 1210.04,1959.47 1207.04,1961.14 1202,1958.5C 1198.7,1946.32 1196.03,1933.99 1194,1921.5C 1193.25,1914.4 1193.75,1907.4 1195.5,1900.5C 1194.56,1899.45 1193.4,1898.78 1192,1898.5C 1175.62,1906.29 1158.45,1911.46 1140.5,1914C 1132.28,1921.59 1126.45,1930.76 1123,1941.5C 1120.1,1948.86 1117.6,1956.36 1115.5,1964C 1116.66,1965.86 1118.33,1967.19 1120.5,1968C 1123.47,1968.79 1126.47,1969.46 1129.5,1970C 1138.17,1970.33 1146.83,1970.67 1155.5,1971C 1159.48,1977.14 1163.81,1982.97 1168.5,1988.5C 1178.34,1985.3 1188.34,1982.8 1198.5,1981C 1224.78,1977.82 1251.11,1975.32 1277.5,1973.5C 1277.33,1972.18 1277.66,1971.01 1278.5,1970C 1273.58,1955.33 1269.92,1940.33 1267.5,1925C 1268.05,1919.73 1269.05,1914.57 1270.5,1909.5C 1266.82,1895.86 1266.65,1882.19 1270,1868.5C 1272.5,1863.49 1275.5,1858.83 1279,1854.5C 1300.6,1835.57 1321.6,1815.9 1342,1795.5C 1345.29,1791.09 1348.46,1786.59 1351.5,1782C 1350.57,1781.01 1349.4,1780.51 1348,1780.5C 1338.63,1783.69 1329.13,1784.19 1319.5,1782C 1311.71,1780.47 1304.04,1778.47 1296.5,1776C 1292.64,1774.77 1290.31,1772.27 1289.5,1768.5C 1268.01,1772.17 1246.67,1776.67 1225.5,1782C 1218.25,1783.77 1210.91,1784.43 1203.5,1784C 1198.23,1781.02 1194.73,1776.52 1193,1770.5C 1191.69,1767.38 1190.52,1764.21 1189.5,1761C 1190.53,1756.79 1193.19,1755.46 1197.5,1757C 1200.4,1761.97 1202.9,1767.13 1205,1772.5C 1206.3,1773.98 1207.97,1774.65 1210,1774.5C 1232.84,1769.75 1255.68,1764.91 1278.5,1760C 1287.98,1758.34 1297.48,1756.84 1307,1755.5C 1312.98,1755.5 1314.98,1758.16 1313,1763.5C 1309.23,1764.82 1305.4,1765.99 1301.5,1767C 1312.84,1771.09 1324.51,1773.09 1336.5,1773C 1348.91,1770.65 1361.24,1767.99 1373.5,1765C 1387.72,1758.72 1402.05,1752.72 1416.5,1747C 1416.99,1743.57 1418.15,1740.41 1420,1737.5C 1427.91,1729.58 1436.41,1722.42 1445.5,1716C 1452.11,1710.43 1456.11,1703.43 1457.5,1695C 1457.56,1686.28 1453.73,1680.11 1446,1676.5C 1440.01,1683.29 1436.17,1681.95 1434.5,1672.5C 1434.63,1670.05 1435.63,1668.05 1437.5,1666.5 Z"/></g>
<g><path style="opacity:1" fill="#0b213b" d="M 1010.5,1686.5 C 1012.79,1686.24 1014.96,1686.58 1017,1687.5C 1018.25,1690.99 1019.41,1694.49 1020.5,1698C 1023.62,1697.78 1026.79,1697.28 1030,1696.5C 1034.98,1697.95 1036.15,1700.78 1033.5,1705C 1030.04,1706.74 1026.38,1707.74 1022.5,1708C 1024.75,1712.42 1025.25,1716.92 1024,1721.5C 1020.93,1724.06 1017.93,1724.06 1015,1721.5C 1014.5,1717.49 1014,1713.49 1013.5,1709.5C 1008.18,1710.27 1002.85,1710.43 997.5,1710C 992.649,1707.12 992.316,1703.78 996.5,1700C 1001.21,1701 1005.88,1700.66 1010.5,1699C 1008.08,1694.72 1008.08,1690.55 1010.5,1686.5 Z"/></g>
<g><path style="opacity:1" fill="#0b213b" d="M 1252.5,1697.5 C 1257.53,1697.21 1262.03,1698.55 1266,1701.5C 1268.27,1705.71 1267.77,1709.55 1264.5,1713C 1260.83,1715.33 1257.17,1717.67 1253.5,1720C 1247.5,1720.99 1245.33,1718.49 1247,1712.5C 1248.83,1711.33 1250.67,1710.17 1252.5,1709C 1245.08,1710.71 1238.41,1714.04 1232.5,1719C 1226.96,1719.44 1225.13,1716.94 1227,1711.5C 1234.32,1704.59 1242.82,1699.93 1252.5,1697.5 Z"/></g>
<g><path style="opacity:1" fill="#0b213b" d="M 1093.5,1702.5 C 1096.36,1702.05 1098.86,1702.72 1101,1704.5C 1103.21,1715.2 1105.54,1725.87 1108,1736.5C 1109.88,1734.96 1111.38,1733.12 1112.5,1731C 1115.35,1730.06 1117.85,1730.56 1120,1732.5C 1120.05,1735.28 1120.22,1737.94 1120.5,1740.5C 1125.36,1743.09 1130.03,1745.93 1134.5,1749C 1135.69,1753.19 1134.02,1755.69 1129.5,1756.5C 1124.37,1754.1 1119.37,1751.44 1114.5,1748.5C 1112,1754.84 1107.84,1756.51 1102,1753.5C 1098.06,1738.3 1094.56,1722.96 1091.5,1707.5C 1091.9,1705.7 1092.57,1704.03 1093.5,1702.5 Z"/></g>
<g><path style="opacity:1" fill="#0b213b" d="M 1048.5,1707.5 C 1051.36,1707.05 1053.86,1707.72 1056,1709.5C 1056.76,1712.69 1057.59,1715.85 1058.5,1719C 1055.49,1725.32 1051.65,1725.82 1047,1720.5C 1046.06,1715.94 1046.56,1711.61 1048.5,1707.5 Z"/></g>
<g><path style="opacity:1" fill="#0b213b" d="M 1127.5,1726.5 C 1129.31,1726.49 1130.98,1726.99 1132.5,1728C 1133.75,1730.66 1135.75,1732.49 1138.5,1733.5C 1139.91,1728.92 1142.91,1727.42 1147.5,1729C 1148.13,1729.75 1148.63,1730.58 1149,1731.5C 1148.72,1749.92 1145.72,1767.92 1140,1785.5C 1134.88,1788.19 1132.05,1786.52 1131.5,1780.5C 1133.99,1769.54 1136.32,1758.54 1138.5,1747.5C 1138.17,1746.5 1137.83,1745.5 1137.5,1744.5C 1130.9,1742.23 1126.23,1737.9 1123.5,1731.5C 1124.16,1729.19 1125.49,1727.52 1127.5,1726.5 Z"/></g>
<g><path style="opacity:1" fill="#0b213b" d="M 1010.5,1732.5 C 1013.27,1732.22 1015.77,1732.89 1018,1734.5C 1019.88,1739.96 1022.04,1745.3 1024.5,1750.5C 1030.18,1749.06 1035.84,1747.56 1041.5,1746C 1043.17,1744.33 1044.83,1742.67 1046.5,1741C 1049.03,1740.1 1051.19,1740.6 1053,1742.5C 1054.51,1746.38 1056.01,1750.21 1057.5,1754C 1057.41,1757.69 1055.58,1759.86 1052,1760.5C 1049.33,1759.17 1047.33,1757.17 1046,1754.5C 1040.09,1757.02 1033.92,1758.69 1027.5,1759.5C 1027.97,1762.7 1028.64,1765.86 1029.5,1769C 1027.31,1774.4 1024.15,1775.24 1020,1771.5C 1019.59,1766.32 1017.59,1761.99 1014,1758.5C 1014.2,1752.16 1012.53,1746.16 1009,1740.5C 1008.11,1737.5 1008.61,1734.84 1010.5,1732.5 Z"/></g>
<g><path style="opacity:1" fill="#0b213b" d="M 1075.5,1734.5 C 1079.52,1733.9 1083.02,1734.9 1086,1737.5C 1088.96,1744.34 1091.46,1751.34 1093.5,1758.5C 1091.57,1765.12 1088.07,1766.12 1083,1761.5C 1081.92,1756.1 1080.59,1750.77 1079,1745.5C 1077.18,1751.73 1075.84,1758.06 1075,1764.5C 1068.16,1766.61 1065.33,1763.94 1066.5,1756.5C 1066.25,1747.69 1069.25,1740.35 1075.5,1734.5 Z"/></g>
<g><path style="opacity:1" fill="#0b213b" d="M 977.5,1735.5 C 979.857,1735.34 982.19,1735.5 984.5,1736C 985.573,1737.31 986.24,1738.81 986.5,1740.5C 985.226,1743.61 983.06,1745.94 980,1747.5C 978.991,1749.02 978.491,1750.69 978.5,1752.5C 986.509,1753.89 994.509,1755.39 1002.5,1757C 1012.4,1761.17 1014.06,1767.5 1007.5,1776C 996.848,1782.83 985.514,1784.17 973.5,1780C 967.908,1774.83 968.241,1770.17 974.5,1766C 978.485,1764.67 981.152,1766 982.5,1770C 982.043,1770.41 981.709,1770.91 981.5,1771.5C 988.726,1773.41 995.392,1772.24 1001.5,1768C 1000.38,1766.96 999.044,1766.29 997.5,1766C 990.477,1764.77 983.477,1763.44 976.5,1762C 968.551,1759.93 966.051,1755.1 969,1747.5C 970.887,1742.79 973.721,1738.79 977.5,1735.5 Z"/></g>
<g><path style="opacity:1" fill="#0b213b" d="M 1101.5,1793.5 C 1108.19,1792.7 1111.03,1795.7 1110,1802.5C 1112.82,1811.65 1117.32,1819.81 1123.5,1827C 1127.17,1827.67 1130.83,1827.67 1134.5,1827C 1143.57,1824.31 1152.24,1820.64 1160.5,1816C 1162.11,1812.29 1160.95,1809.79 1157,1808.5C 1154.99,1804.54 1156.16,1801.7 1160.5,1800C 1173.03,1798.71 1185.53,1797.21 1198,1795.5C 1203.83,1795.17 1206.99,1797.83 1207.5,1803.5C 1204.16,1820.35 1196.49,1834.85 1184.5,1847C 1180.02,1851.1 1175.52,1851.27 1171,1847.5C 1169.18,1842.32 1171.01,1839.48 1176.5,1839C 1174.54,1835.58 1172.71,1832.08 1171,1828.5C 1170.1,1826.67 1168.77,1825.34 1167,1824.5C 1156.88,1829.64 1146.38,1833.81 1135.5,1837C 1124.27,1839.96 1115.77,1836.46 1110,1826.5C 1104.96,1818.25 1101.46,1809.42 1099.5,1800C 1099.48,1797.59 1100.15,1795.42 1101.5,1793.5 Z"/></g>
<g><path style="opacity:1" fill="#fefffe" d="M 1194.5,1805.5 C 1195.55,1805.35 1196.55,1805.52 1197.5,1806C 1194.48,1813.21 1191.31,1820.38 1188,1827.5C 1187.06,1829.06 1185.89,1830.39 1184.5,1831.5C 1181.78,1827.9 1179.45,1824.07 1177.5,1820C 1181.42,1817.69 1185.25,1815.19 1189,1812.5C 1189.74,1810.56 1189.58,1808.73 1188.5,1807C 1190.71,1806.81 1192.71,1806.31 1194.5,1805.5 Z"/></g>
<g><path style="opacity:1" fill="#fefffe" d="M 1169.5,1809.5 C 1171.29,1808.38 1173.29,1808.21 1175.5,1809C 1173.54,1810.61 1171.54,1810.78 1169.5,1809.5 Z"/></g>
<g><path style="opacity:1" fill="#0b213b" d="M 1617.5,1817.5 C 1643.44,1816.49 1667.44,1822.65 1689.5,1836C 1695.52,1841.05 1699.52,1847.38 1701.5,1855C 1700.18,1859.42 1697.52,1860.76 1693.5,1859C 1691.29,1855.73 1689.46,1852.23 1688,1848.5C 1680.28,1840.89 1671.11,1835.72 1660.5,1833C 1639.1,1826.12 1617.77,1826.12 1596.5,1833C 1592.14,1834.03 1589.47,1836.69 1588.5,1841C 1581.02,1843.18 1578.52,1840.34 1581,1832.5C 1581.78,1830.71 1582.95,1829.21 1584.5,1828C 1594.98,1822.56 1605.98,1819.06 1617.5,1817.5 Z"/></g>
<g><path style="opacity:1" fill="#fefffe" d="M 1895.5,1830.5 C 1901.3,1829.01 1905.14,1831.01 1907,1836.5C 1910.2,1851.25 1904.37,1860.41 1889.5,1864C 1887.44,1865.53 1886.1,1867.53 1885.5,1870C 1885.54,1872.57 1885.54,1875.07 1885.5,1877.5C 1879.83,1874.61 1873.83,1872.94 1867.5,1872.5C 1870.35,1854.13 1879.68,1840.13 1895.5,1830.5 Z"/></g>
<g><path style="opacity:1" fill="#fefffe" d="M 1904.5,1877.5 C 1912.51,1876.71 1920.18,1877.87 1927.5,1881C 1931.04,1884.74 1930.37,1888.08 1925.5,1891C 1923.28,1892.28 1920.95,1893.28 1918.5,1894C 1913.53,1893.91 1908.53,1893.58 1903.5,1893C 1900.17,1888.33 1896.17,1884.33 1891.5,1881C 1895.97,1879.88 1900.31,1878.71 1904.5,1877.5 Z"/></g>
<g><path style="opacity:1" fill="#fefffe" d="M 1917.5,1904.5 C 1930.06,1907.9 1939.56,1915.23 1946,1926.5C 1946.81,1931.06 1944.97,1934.23 1940.5,1936C 1929.91,1942.26 1918.74,1944.09 1907,1941.5C 1902.1,1942.97 1900.77,1945.97 1903,1950.5C 1913.31,1955.87 1912.81,1958.04 1901.5,1957C 1896.17,1955.84 1891.17,1953.84 1886.5,1951C 1896.15,1946.35 1904.98,1940.51 1913,1933.5C 1917.71,1924.33 1917.21,1915.33 1911.5,1906.5C 1913.63,1905.83 1915.63,1905.16 1917.5,1904.5 Z"/></g>
<g><path style="opacity:1" fill="#0b213b" d="M 1227.5,1948.5 C 1231.54,1948.35 1234.87,1949.85 1237.5,1953C 1243.68,1955.46 1250.01,1957.46 1256.5,1959C 1260.5,1962 1260.5,1965 1256.5,1968C 1247.77,1967.32 1239.44,1964.98 1231.5,1961C 1228.09,1959.26 1225.76,1956.59 1224.5,1953C 1225.31,1951.36 1226.31,1949.86 1227.5,1948.5 Z"/></g>
<g><path style="opacity:1" fill="#fefffe" d="M 1373.5,1965.5 C 1399.61,1965.06 1425.61,1966.56 1451.5,1970C 1491.92,1975.82 1532.25,1982.15 1572.5,1989C 1568.71,1990.98 1564.88,1992.81 1561,1994.5C 1560.5,1994 1560,1993.5 1559.5,1993C 1544.17,1992.33 1528.83,1992.33 1513.5,1993C 1491.5,1995.33 1469.5,1997.67 1447.5,2000C 1421.96,2001.49 1396.96,1998.49 1372.5,1991C 1364.83,1988.17 1357.5,1984.67 1350.5,1980.5C 1350.17,1980 1349.83,1979.5 1349.5,1979C 1350.41,1975.85 1351.24,1972.69 1352,1969.5C 1354.05,1970.42 1355.88,1969.92 1357.5,1968C 1362.96,1967.06 1368.29,1966.22 1373.5,1965.5 Z"/></g>
<g><path style="opacity:1" fill="#fefffe" d="M 1629.5,2006.5 C 1639.18,2007.46 1648.85,2007.63 1658.5,2007C 1634.56,2013.55 1610.23,2017.71 1585.5,2019.5C 1579.31,2019.78 1573.31,2018.95 1567.5,2017C 1571.49,2014.5 1575.83,2012.84 1580.5,2012C 1596.95,2009.89 1613.28,2008.06 1629.5,2006.5 Z"/></g>
</svg>
