<?xml version="1.0" standalone="no"?>
<!DOCTYPE svg PUBLIC "-//W3C//DTD SVG 20010904//EN"
 "http://www.w3.org/TR/2001/REC-SVG-20010904/DTD/svg10.dtd">
<svg version="1.0" xmlns="http://www.w3.org/2000/svg"
 width="1993.000000pt" height="1501.000000pt" viewBox="0 0 1993.000000 1501.000000"
 preserveAspectRatio="xMidYMid meet">

<g transform="translate(0.000000,1501.000000) scale(0.100000,-0.100000)"
fill="#000000" stroke="none">
<path d="M9690 14904 c-571 -26 -958 -71 -1568 -184 -568 -105 -886 -178
-1127 -260 -82 -29 -235 -73 -340 -100 -640 -163 -1223 -407 -1826 -766 -781
-465 -1484 -1103 -2052 -1861 -895 -1195 -1419 -2601 -1508 -4048 -15 -238 -6
-801 15 -1015 138 -1373 607 -2535 1420 -3519 164 -197 563 -597 766 -766
1085 -904 2478 -1490 4370 -1839 1372 -254 2939 -357 4088 -271 1481 112 2674
509 3802 1266 758 508 1479 1196 2051 1959 692 921 1106 1866 1233 2810 53
392 49 896 -10 1300 -134 924 -516 1869 -1084 2682 -57 80 -128 204 -198 340
-176 345 -286 519 -590 928 -250 336 -373 480 -570 664 -361 338 -974 786
-1456 1063 -346 199 -695 354 -1360 603 -1274 476 -1449 534 -2366 779 -568
152 -733 187 -1006 216 -144 15 -534 26 -684 19z m685 -119 c277 -29 408 -59
1210 -274 563 -151 754 -212 1385 -441 1274 -463 1656 -622 2085 -868 355
-204 862 -559 1210 -848 160 -133 400 -367 507 -494 213 -253 573 -753 692
-960 l37 -65 -68 75 c-161 178 -346 371 -402 419 l-59 51 30 -92 c29 -91 30
-93 146 -216 220 -235 447 -501 564 -662 60 -83 185 -410 195 -510 3 -30 9
-62 14 -71 12 -23 44 -29 68 -12 23 16 28 68 11 138 -5 22 -8 41 -6 42 1 1 41
-61 88 -140 400 -663 679 -1404 802 -2127 47 -274 58 -404 63 -718 7 -413 -14
-664 -87 -1023 -229 -1124 -920 -2307 -1955 -3345 -1263 -1267 -2712 -1990
-4435 -2213 -1001 -130 -2268 -111 -3585 55 -2042 256 -3604 762 -4775 1546
-375 251 -645 473 -966 793 -325 324 -559 613 -795 981 -136 212 -215 354
-345 619 -336 687 -538 1422 -619 2245 -22 222 -31 773 -16 1015 59 955 304
1877 734 2755 530 1082 1288 2004 2208 2688 599 445 1251 782 1966 1018 l233
77 21 -27 c11 -14 30 -26 41 -26 11 0 88 33 171 74 143 70 161 76 292 100 351
63 569 81 860 73 209 -7 346 -21 523 -54 103 -19 125 -14 130 29 5 40 -25 54
-153 76 -192 33 -306 44 -540 51 l-220 6 190 37 c815 160 1216 212 1865 242
147 7 547 -4 685 -19z"/>
<path d="M8848 14143 c7 -3 16 -2 19 1 4 3 -2 6 -13 5 -11 0 -14 -3 -6 -6z"/>
<path d="M8788 14133 c6 -2 18 -2 25 0 6 3 1 5 -13 5 -14 0 -19 -2 -12 -5z"/>
<path d="M8738 14123 c6 -2 18 -2 25 0 6 3 1 5 -13 5 -14 0 -19 -2 -12 -5z"/>
<path d="M8698 14113 c7 -3 16 -2 19 1 4 3 -2 6 -13 5 -11 0 -14 -3 -6 -6z"/>
<path d="M8530 13784 c-97 -86 -104 -96 -96 -130 10 -38 48 -41 92 -8 l37 28
-7 -29 c-15 -74 -36 -276 -47 -444 -17 -274 -6 -364 53 -405 26 -18 71 -21 99
-6 10 6 19 9 19 8 0 -2 5 -41 10 -86 9 -72 9 -85 -5 -99 -39 -39 21 -308 108
-484 l42 -85 -90 -23 c-125 -32 -373 -113 -542 -177 -1247 -471 -2510 -1493
-3325 -2689 -689 -1012 -1085 -2116 -1179 -3285 -15 -184 -14 -660 0 -850 104
-1325 566 -2280 1332 -2755 333 -206 684 -290 924 -220 17 5 26 -6 58 -72 272
-554 604 -879 1052 -1029 143 -48 192 -43 183 18 -4 27 -26 38 -138 74 -248
77 -500 247 -674 454 -125 149 -255 357 -339 542 -33 71 -34 78 -19 99 16 23
42 118 42 156 0 13 -11 29 -25 39 -23 15 -27 15 -50 0 -17 -11 -25 -26 -25
-46 0 -67 -21 -29 -78 143 -124 370 -198 737 -238 1177 -19 212 -22 693 -5
900 72 884 346 1724 802 2460 663 1071 1621 1757 2742 1964 122 23 392 56 442
55 11 0 94 3 185 7 361 15 807 -42 1223 -156 1069 -293 2103 -1018 2659 -1864
106 -163 233 -403 296 -561 339 -852 245 -1792 -283 -2844 -134 -268 -400
-699 -573 -931 -356 -474 -696 -813 -1067 -1062 -126 -85 -140 -98 -143 -126
-3 -26 1 -34 20 -41 13 -5 30 -6 38 -3 8 2 78 47 156 98 496 329 1020 920
1436 1619 156 263 309 563 402 793 150 364 253 757 298 1127 18 151 15 533 -6
690 -92 691 -405 1303 -955 1867 -633 650 -1474 1139 -2336 1356 -388 98 -672
135 -1047 136 l-238 1 0 46 c0 25 3 73 6 105 l7 59 69 45 c116 75 190 174 192
257 1 56 -29 88 -82 87 -50 -2 -90 -23 -147 -81 l-47 -47 7 34 c4 19 11 39 16
45 28 29 -13 82 -55 71 -52 -13 -59 -47 -69 -346 -6 -151 -14 -278 -20 -281
-5 -4 -48 -10 -95 -13 -128 -10 -409 -60 -568 -101 -1211 -309 -2198 -1169
-2825 -2460 -301 -620 -482 -1291 -540 -2005 -17 -212 -14 -679 5 -900 44
-500 149 -984 295 -1359 45 -118 54 -109 -111 -118 -89 -5 -122 -2 -205 17
-124 28 -230 67 -357 131 -812 407 -1320 1384 -1427 2749 -14 190 -15 667 0
850 130 1609 865 3135 2087 4330 1166 1140 2549 1815 3847 1877 l138 6 -17
-35 c-44 -94 36 -202 172 -229 114 -23 239 24 311 119 18 24 38 62 45 85 6 23
12 43 13 45 1 1 65 -5 141 -13 867 -98 1763 -407 2552 -881 1015 -609 1816
-1472 2303 -2478 251 -520 397 -1018 466 -1586 25 -207 25 -745 0 -950 -138
-1115 -658 -2150 -1635 -3255 -156 -176 -538 -555 -693 -688 -479 -410 -944
-704 -1334 -844 -42 -16 -51 -23 -53 -46 -4 -35 13 -57 44 -57 70 0 432 175
669 322 383 239 715 508 1096 888 429 428 782 855 1092 1321 316 476 559 964
708 1422 250 768 295 1523 139 2307 -249 1249 -1010 2436 -2114 3294 -788 614
-1782 1068 -2736 1251 -107 21 -201 39 -209 41 -9 3 0 18 27 48 22 24 43 53
47 66 7 23 7 23 32 -9 39 -49 65 -43 137 35 82 90 133 126 156 114 28 -15 54
-93 46 -138 -7 -48 10 -74 49 -74 43 0 64 31 58 89 -11 114 -63 204 -129 222
-61 17 -125 -13 -208 -98 -41 -41 -52 -48 -68 -40 -10 5 -23 7 -28 4 -6 -3 -7
46 -3 129 7 149 2 166 -46 166 -40 0 -51 -18 -51 -81 l0 -57 -37 20 c-97 50
-219 -23 -258 -155 -23 -76 -19 -128 10 -172 l26 -37 -63 6 c-119 13 -115 11
-122 69 -3 29 -9 96 -12 150 -11 153 -51 185 -128 102 -50 -55 -93 -85 -123
-85 -56 0 2 111 75 144 42 19 58 47 42 76 -34 63 -162 -6 -216 -115 -22 -45
-25 -63 -20 -100 4 -25 18 -58 31 -73 20 -24 30 -27 83 -27 49 0 67 5 110 32
l52 32 0 -52 c0 -29 3 -69 6 -89 l7 -38 -289 0 c-365 0 -595 -19 -889 -73
l-120 -22 0 115 c0 96 3 122 21 161 32 69 106 119 145 98 42 -22 89 23 67 64
-14 27 -74 49 -112 42 -41 -9 -104 -46 -138 -82 -15 -15 -39 -55 -55 -88 -26
-56 -28 -68 -26 -175 l1 -115 -30 60 c-17 33 -44 96 -59 140 -30 88 -33 78 38
105 49 18 51 69 3 93 -21 10 -26 24 -36 92 -27 182 -78 315 -126 331 -13 4
-33 -3 -56 -20 -33 -24 -37 -24 -44 -8 -26 67 20 642 68 845 15 62 15 69 0 92
-27 41 -54 31 -146 -51z m2245 -1364 c9 -14 48 -13 63 2 13 13 11 -8 -10 -106
-15 -68 -59 -116 -106 -116 -45 0 -82 32 -82 72 0 45 39 127 69 143 31 17 57
19 66 5z m-490 -367 c-26 -106 -173 -171 -278 -125 -59 26 -77 60 -53 96 9 14
16 32 16 41 0 13 23 15 161 15 l161 0 -7 -27z m-374 -2500 c-24 -42 -46 -62
-59 -54 -10 6 -5 16 19 39 36 35 55 42 40 15z"/>
<path d="M11505 13705 c-31 -30 -32 -58 -4 -84 22 -20 22 -22 10 -203 -7 -101
-18 -244 -25 -318 -9 -91 -10 -143 -4 -162 11 -30 43 -44 77 -33 11 3 75 80
143 170 l123 165 8 -88 c6 -54 5 -133 -2 -209 -6 -67 -8 -130 -4 -140 19 -55
74 -70 111 -30 27 28 28 63 4 78 -16 10 -17 20 -9 108 11 115 -5 306 -28 351
-26 50 -84 60 -128 22 -10 -9 -52 -61 -94 -116 -42 -56 -81 -105 -86 -111 -6
-6 -7 19 -3 70 31 407 30 501 -5 536 -26 26 -55 24 -84 -6z"/>
<path d="M10982 13618 c-5 -7 -17 -92 -25 -189 -13 -155 -17 -179 -36 -198
-17 -17 -20 -28 -14 -68 3 -27 10 -53 15 -60 5 -6 8 -89 7 -184 -3 -167 -2
-172 20 -190 12 -10 30 -15 39 -12 38 13 42 32 42 215 0 98 3 178 8 178 4 0
29 -7 56 -15 95 -29 170 -13 234 48 55 53 76 94 63 123 -19 42 -57 32 -116
-31 -42 -45 -57 -55 -84 -55 -44 0 -141 29 -147 43 -2 7 3 77 11 157 18 167
19 219 3 237 -13 17 -62 17 -76 1z"/>
<path d="M7960 13482 c-131 -35 -210 -106 -210 -187 0 -55 23 -88 122 -179
l85 -78 -18 -60 c-27 -85 -26 -217 2 -275 62 -128 250 -184 345 -101 20 17 36
43 40 62 14 79 -47 196 -169 323 l-78 81 25 51 c39 77 31 111 -26 111 -24 0
-32 -8 -50 -45 -12 -25 -25 -45 -29 -45 -4 0 -40 31 -80 68 -63 60 -71 71 -66
94 4 15 22 36 40 47 49 30 155 56 197 48 34 -7 35 -8 35 -54 0 -43 3 -48 28
-57 21 -8 31 -6 43 6 24 24 37 105 21 136 -30 62 -141 86 -257 54z m195 -644
c24 -32 51 -79 61 -104 17 -45 17 -47 -1 -60 -42 -31 -141 2 -175 58 -22 37
-28 155 -10 204 l11 27 36 -34 c19 -19 55 -60 78 -91z"/>
<path d="M8953 13419 c-63 -24 -139 -91 -197 -173 -53 -75 -70 -124 -63 -184
4 -37 12 -53 41 -79 50 -46 110 -46 199 0 l64 34 12 -45 c44 -166 214 -231
323 -123 42 43 43 75 1 94 -19 9 -28 7 -51 -11 -71 -58 -115 -50 -160 27 -23
40 -26 55 -25 125 2 94 -7 116 -46 116 -21 0 -38 -12 -70 -50 -79 -94 -182
-130 -189 -67 -6 53 96 190 170 228 l39 20 18 -23 c16 -19 23 -21 47 -13 25 9
29 16 32 53 3 34 -2 47 -22 67 -30 30 -54 31 -123 4z"/>
<path d="M9330 13270 c-34 -34 -24 -132 23 -225 54 -107 114 -155 206 -164
l57 -6 -54 -137 c-52 -134 -54 -138 -83 -138 -107 0 -159 -101 -108 -207 12
-24 34 -53 49 -65 16 -11 26 -26 23 -34 -7 -19 14 -51 38 -57 14 -4 29 2 44
17 13 13 40 27 61 31 21 4 51 13 66 21 26 14 28 13 43 -16 31 -60 127 -90 209
-66 58 17 87 45 79 76 -10 39 -30 45 -87 27 -74 -24 -112 -10 -127 45 -6 23
-8 51 -5 65 10 36 -10 63 -45 63 -24 0 -34 -8 -56 -44 -40 -67 -92 -90 -63
-29 39 84 39 87 23 120 -14 31 -13 36 35 160 64 164 107 259 121 267 6 4 11
16 11 28 0 11 16 35 35 53 28 25 36 40 37 69 1 42 -12 56 -54 56 -30 0 -70
-45 -113 -131 -26 -50 -57 -69 -114 -69 -58 0 -101 34 -140 113 -32 64 -33 68
-16 81 23 17 22 63 -1 86 -32 31 -69 35 -94 10z m157 -795 c10 -23 8 -65 -5
-65 -11 0 -31 36 -32 56 0 40 20 45 37 9z"/>
<path d="M12283 13204 c-88 -43 -157 -137 -170 -229 -5 -41 -8 -45 -34 -45
-18 0 -29 5 -29 13 0 36 -66 61 -87 35 -17 -22 -24 -65 -14 -91 11 -29 47 -45
122 -55 52 -6 59 -11 90 -52 91 -118 287 -138 355 -35 37 56 -35 106 -81 55
-28 -30 -109 -28 -158 5 -20 14 -37 29 -37 34 0 4 28 22 63 40 100 51 176 132
196 208 32 117 -88 182 -216 117z m127 -79 c0 -17 -33 -65 -67 -96 -38 -37
-121 -85 -130 -75 -3 2 0 20 6 39 14 42 66 102 106 122 29 14 85 21 85 10z"/>
<path d="M8499 12445 c-26 -8 -69 -30 -95 -47 -64 -43 -81 -88 -64 -167 10
-46 22 -64 69 -111 115 -115 230 -101 297 35 23 47 25 60 15 81 -9 21 -17 25
-43 22 -28 -3 -37 -11 -58 -51 -40 -76 -68 -82 -130 -30 -39 32 -63 79 -56
107 11 45 91 73 180 64 24 -2 33 3 45 24 15 26 15 29 -10 54 -32 32 -87 39
-150 19z"/>
<path d="M9203 12281 c-63 -8 -75 -17 -34 -26 26 -6 91 16 91 30 0 3 -1 4 -2
4 -2 -1 -26 -5 -55 -8z"/>
<path d="M8911 11297 c-27 -13 -44 -44 -19 -34 9 3 37 9 63 13 30 4 42 9 34
14 -31 17 -55 19 -78 7z"/>
<path d="M9736 11118 c-16 -27 -35 -154 -75 -503 -59 -520 -60 -544 -22 -579
41 -37 123 -29 134 13 6 26 -19 61 -45 61 -20 0 -20 4 -14 73 27 292 91 810
108 879 9 37 9 50 -1 62 -20 24 -68 20 -85 -6z"/>
<path d="M9412 10602 c-73 -49 -121 -129 -181 -303 -31 -89 -39 -103 -47 -85
-6 14 -20 22 -41 24 -42 4 -58 -23 -44 -76 13 -49 39 -280 47 -417 4 -60 10
-117 15 -126 12 -23 44 -29 67 -13 17 12 21 30 26 126 9 164 27 354 35 365 3
5 27 17 54 27 135 51 261 203 274 331 15 144 -94 222 -205 147z m106 -107 c8
-70 -50 -170 -138 -236 -58 -43 -76 -49 -60 -20 5 11 10 27 10 36 0 9 14 50
31 90 55 133 148 210 157 130z"/>
<path d="M10055 10490 c-3 -5 -29 -20 -56 -31 -53 -23 -113 -83 -156 -157 -71
-121 -39 -262 66 -292 119 -34 254 97 267 258 3 31 10 74 16 95 9 29 8 43 -3
63 -27 51 -116 93 -134 64z m-4 -188 c32 -19 33 -22 18 -75 -13 -47 -70 -113
-107 -122 -20 -5 -31 -2 -44 15 -33 41 -17 102 49 185 43 53 48 57 51 37 2
-14 16 -31 33 -40z"/>
<path d="M10754 10466 c-82 -26 -163 -98 -210 -186 -18 -34 -19 -34 -22 -10
-5 35 -30 60 -60 60 -41 0 -132 -110 -226 -272 -27 -47 -28 -47 -52 -32 -22
15 -26 15 -49 0 -36 -24 -32 -56 13 -99 66 -64 93 -50 181 92 71 116 123 186
134 182 4 -1 19 4 31 13 l24 15 -14 -46 c-42 -138 12 -256 137 -299 104 -36
287 -18 473 45 150 51 173 69 155 117 -11 32 -40 34 -105 7 -165 -68 -360
-104 -456 -84 -52 11 -108 47 -108 69 0 5 20 12 45 15 114 12 314 207 315 305
0 33 -25 76 -54 96 -36 23 -103 28 -152 12z m95 -95 c21 -13 5 -46 -53 -105
-61 -63 -140 -116 -173 -116 -28 0 -29 10 -2 63 34 66 70 106 124 138 51 30
80 35 104 20z"/>
<path d="M8898 10399 c-10 -5 -22 -26 -28 -47 -5 -20 -29 -72 -53 -114 l-43
-78 -52 60 c-66 74 -96 79 -148 24 -36 -38 -40 -53 -24 -85 11 -20 64 -27 75
-9 11 17 20 11 58 -39 l37 -50 -53 -46 c-60 -54 -204 -126 -297 -151 -96 -25
-265 -23 -351 5 -64 20 -110 51 -77 51 27 0 193 87 233 123 89 77 128 167 101
232 -52 125 -282 98 -431 -50 -54 -53 -95 -125 -95 -166 0 -15 -8 -28 -22 -34
-56 -26 -48 -66 18 -100 21 -11 45 -28 53 -39 22 -30 131 -95 185 -112 141
-42 309 -38 462 10 72 23 85 25 108 12 14 -7 38 -11 53 -8 33 6 97 69 142 139
l34 53 31 -25 c114 -93 205 -109 262 -48 40 43 27 93 -25 93 -13 0 -32 -7 -42
-16 -26 -23 -58 -12 -117 41 l-51 46 70 134 c38 74 69 141 69 150 0 18 -35 55
-52 55 -7 0 -21 -5 -30 -11z m-715 -158 c16 -16 -39 -98 -91 -136 -46 -34
-159 -86 -214 -100 -26 -7 -28 -5 -28 27 0 75 90 167 203 209 52 19 111 19
130 0z"/>
<path d="M10443 9898 c-6 -7 -13 -85 -16 -173 -4 -88 -12 -245 -19 -349 l-12
-189 23 -18 c33 -27 61 -11 95 52 47 89 113 194 135 213 19 17 19 16 31 -41 7
-32 17 -80 22 -108 13 -60 53 -105 95 -105 15 0 48 9 72 20 54 25 61 25 61 0
0 -11 15 -37 34 -58 31 -33 39 -37 83 -36 122 2 226 120 193 220 -15 45 -52
88 -90 104 -16 7 -30 16 -30 20 0 14 52 42 70 37 48 -12 79 53 42 86 -50 45
-166 -8 -211 -96 -32 -63 -21 -88 54 -121 68 -30 87 -62 61 -101 -10 -15 -34
-33 -53 -42 -32 -13 -38 -13 -51 1 -13 13 -13 20 -3 42 16 37 5 62 -36 79 -50
21 -61 19 -123 -20 -29 -19 -57 -32 -61 -27 -4 4 -15 45 -24 91 -22 108 -40
147 -81 166 -52 24 -101 -2 -167 -90 l-30 -40 6 50 c3 28 9 127 13 222 6 151
5 175 -10 198 -18 27 -57 34 -73 13z"/>
<path d="M8875 9787 c-18 -28 -35 -112 -35 -176 0 -25 -4 -51 -8 -57 -4 -6
-36 -16 -72 -23 -91 -17 -161 -52 -215 -106 -170 -170 -102 -415 116 -415 68
0 129 31 185 93 24 27 44 54 44 60 0 5 11 -2 25 -17 32 -34 76 -35 103 -1 25
32 18 61 -19 80 -34 18 -47 68 -30 117 6 17 14 62 18 100 6 72 -3 98 -37 98
-15 0 -17 6 -13 43 4 23 10 44 15 45 4 2 16 11 24 20 20 19 13 101 -11 138
-21 32 -69 33 -90 1z m-31 -417 c7 -79 -2 -108 -53 -178 -41 -56 -85 -82 -139
-82 -35 0 -49 6 -74 30 -28 28 -30 35 -26 85 9 113 126 210 259 214 25 1 26
-2 33 -69z"/>
<path d="M10109 9749 c-14 -14 -18 -26 -13 -37 4 -9 7 -62 5 -117 -2 -95 -4
-101 -32 -130 -16 -17 -29 -41 -29 -52 0 -22 24 -53 41 -53 17 0 9 -35 -11
-48 -27 -17 -25 -58 5 -87 29 -30 45 -31 75 -7 23 18 39 77 40 145 0 34 2 37
28 37 76 0 152 52 152 104 0 50 -57 62 -96 21 -14 -15 -34 -25 -50 -25 l-27 0
6 103 c8 120 4 141 -29 156 -34 15 -41 14 -65 -10z"/>
<path d="M9282 9606 c-92 -30 -163 -114 -183 -218 -10 -51 -15 -58 -35 -58
-29 0 -54 -25 -54 -54 0 -33 21 -46 73 -49 34 -2 54 -11 80 -34 107 -94 282
-81 414 31 47 41 57 66 36 95 -20 29 -50 26 -91 -10 -80 -71 -195 -98 -262
-64 -17 9 -30 17 -30 20 0 2 31 24 69 49 75 48 144 130 155 182 19 86 -69 142
-172 110z m68 -107 c-16 -30 -81 -91 -120 -113 l-33 -19 7 28 c15 60 86 123
139 125 15 0 16 -3 7 -21z"/>
<path d="M9391 9293 c-40 -14 -43 -17 -27 -29 23 -16 57 -4 67 24 5 12 7 22 6
21 -1 0 -22 -8 -46 -16z"/>
<path d="M10134 8375 c-28 -19 -61 -97 -80 -192 -14 -65 -15 -107 -8 -253 9
-196 9 -231 -1 -311 -6 -46 -4 -58 11 -73 14 -15 15 -22 6 -37 -29 -47 1 -111
53 -111 47 0 57 24 53 135 l-3 97 50 16 c142 45 230 91 262 140 13 20 14 30 5
49 -16 35 -53 32 -107 -9 -49 -38 -144 -77 -190 -80 l-30 -1 -9 160 c-9 162
-1 275 24 340 l12 30 23 -52 c21 -46 28 -53 52 -53 58 0 67 35 28 117 -43 94
-98 126 -151 88z"/>
<path d="M10549 8123 c-11 -13 -14 -63 -14 -228 0 -149 -4 -216 -12 -226 -40
-48 -32 -109 14 -109 21 0 24 -3 15 -12 -21 -21 -14 -66 13 -84 53 -35 100 15
93 100 l-4 53 59 11 c36 7 66 8 76 2 48 -25 92 50 54 92 -19 21 -59 21 -164 2
-36 -6 -37 -5 -43 31 -4 21 -6 110 -5 199 1 90 -1 168 -5 174 -11 18 -61 14
-77 -5z"/>
<path d="M8714 8092 c-85 -30 -188 -125 -225 -206 -22 -49 -24 -117 -5 -155
55 -106 242 -164 410 -126 59 13 80 22 92 41 15 22 15 26 0 49 -19 29 -30 30
-104 9 -127 -37 -312 17 -312 92 0 76 113 193 203 209 32 6 37 5 37 -12 0 -25
19 -43 45 -43 54 0 75 87 32 129 -34 31 -108 37 -173 13z"/>
<path d="M9515 7995 c-29 -14 -53 -21 -59 -16 -19 15 -155 33 -194 26 -68 -12
-121 -44 -147 -89 -21 -36 -25 -56 -25 -122 0 -130 25 -181 81 -167 25 7 43
56 30 81 -6 12 -11 49 -11 85 0 53 4 67 23 84 32 30 60 36 128 28 l59 -7 -19
-24 c-40 -51 -32 -140 14 -158 28 -11 89 -6 115 9 35 20 37 19 44 -23 16 -105
116 -182 233 -182 54 0 68 4 88 24 16 16 23 31 19 43 -12 34 -32 41 -99 35
l-65 -5 -41 42 -42 41 5 82 c5 76 3 84 -18 105 -17 17 -19 23 -8 23 17 0 33
37 26 63 -5 18 -50 47 -75 47 -7 0 -35 -11 -62 -25z m43 -120 c-24 -19 -56
-42 -73 -51 -25 -13 -22 -7 20 35 32 33 58 51 73 51 21 0 19 -4 -20 -35z"/>
<path d="M9462 7308 c-15 -15 -15 -55 -2 -94 5 -16 18 -69 29 -118 l19 -89
-67 7 c-76 7 -111 -8 -111 -48 0 -48 65 -98 85 -66 3 6 27 10 52 10 44 0 45
-1 30 -18 -20 -22 -22 -63 -5 -80 18 -18 52 -15 81 8 14 11 31 20 39 20 7 0
30 14 51 31 26 22 37 38 37 58 0 29 -26 61 -51 61 -30 0 -38 19 -69 155 -18
77 -36 148 -41 158 -11 20 -59 23 -77 5z"/>
<path d="M8762 6820 c-51 -12 -111 -59 -160 -125 -24 -33 -55 -69 -69 -81 -21
-16 -25 -27 -20 -50 7 -37 -13 -115 -36 -138 -20 -21 -22 -49 -3 -65 9 -8 15
-43 18 -109 3 -53 10 -107 17 -119 17 -33 58 -40 84 -15 20 20 20 24 7 149 -8
82 -9 144 -4 172 l9 44 97 1 c92 1 98 2 135 32 73 58 102 159 69 239 -23 54
-79 80 -144 65z m56 -138 c3 -36 -1 -47 -27 -72 -26 -26 -37 -30 -85 -30 -31
0 -56 3 -56 6 0 13 65 95 89 111 62 42 75 40 79 -15z"/>
<path d="M9254 6711 c-32 -19 -77 -71 -113 -131 -40 -67 -21 -164 39 -195 34
-18 102 -18 147 -2 88 33 183 132 183 192 0 34 -25 65 -54 65 -10 0 -21 12
-28 30 -19 57 -112 79 -174 41z m96 -113 c0 -17 7 -39 16 -49 15 -17 13 -20
-32 -49 -28 -18 -61 -30 -81 -30 -29 0 -33 3 -33 26 0 26 60 118 83 127 33 14
47 7 47 -25z"/>
<path d="M9719 6688 c-80 -28 -110 -47 -144 -92 -59 -77 -37 -160 54 -208 49
-26 60 -27 174 -27 67 1 141 6 165 11 40 10 45 9 70 -15 57 -53 139 -76 226
-63 33 5 51 14 62 32 15 22 15 26 0 49 -16 24 -20 25 -75 19 -37 -4 -72 -2
-96 6 l-37 12 50 27 c82 42 122 83 122 124 0 51 -40 81 -94 72 -76 -12 -196
-98 -196 -141 0 -17 -90 -38 -103 -25 -14 14 -64 14 -72 1 -3 -5 -35 -10 -70
-10 -53 0 -69 4 -92 24 l-28 24 20 28 c40 53 196 94 225 59 26 -32 90 -8 90
34 0 9 -14 30 -30 46 -42 40 -127 45 -221 13z"/>
<path d="M8974 6631 c-40 -24 -54 -65 -54 -153 0 -55 5 -76 21 -99 33 -47 99
-36 99 17 0 13 -4 26 -10 29 -5 3 -10 33 -10 65 l0 59 34 -6 c27 -4 36 -1 49
17 21 30 10 60 -29 76 -44 19 -63 18 -100 -5z"/>
<path d="M10515 6633 c-75 -20 -129 -55 -149 -98 -20 -41 -20 -66 -2 -109 11
-27 25 -38 68 -54 29 -11 66 -25 83 -32 l30 -11 -25 -19 c-14 -11 -41 -20 -61
-20 -42 0 -61 -18 -61 -57 0 -58 75 -67 159 -17 57 33 83 69 83 114 0 49 -41
87 -128 118 -34 13 -62 27 -62 32 0 19 54 49 108 61 87 19 115 55 74 92 -22
20 -39 20 -117 0z"/>
<path d="M10971 6535 c-35 -13 -80 -36 -100 -53 -89 -71 -79 -116 40 -191 43
-28 79 -55 79 -61 0 -16 -75 -12 -121 6 -26 11 -49 30 -65 55 -19 31 -30 39
-54 39 -68 0 -57 -88 19 -151 116 -96 335 -67 335 45 0 43 -42 91 -121 139
-29 17 -53 34 -53 37 0 13 93 50 123 50 40 0 57 15 57 51 0 29 -31 59 -60 58
-8 0 -44 -11 -79 -24z"/>
<path d="M9645 6069 c-228 -18 -485 -75 -701 -154 -147 -53 -403 -183 -534
-270 -562 -374 -1001 -981 -1199 -1658 -78 -268 -110 -465 -118 -742 -17 -571
127 -1091 463 -1677 269 -470 568 -785 834 -880 l60 -22 21 21 c27 27 19 72
-14 81 -12 3 -60 25 -107 48 -444 223 -999 1160 -1124 1899 -42 248 -46 605
-11 835 133 865 638 1647 1335 2065 175 104 341 180 540 244 683 220 1472 126
2039 -243 183 -119 334 -251 463 -406 300 -357 493 -823 559 -1345 20 -151 17
-552 -5 -705 -49 -356 -145 -683 -297 -1015 -47 -102 -65 -133 -67 -116 -4 25
14 349 24 457 6 59 5 63 -20 79 -24 16 -28 16 -49 2 -27 -18 -33 -51 -44 -269
-5 -110 -8 -128 -23 -128 -32 0 -106 -57 -143 -111 -64 -94 -59 -208 10 -225
40 -11 74 14 111 81 30 56 32 58 26 23 -5 -28 -2 -40 14 -56 20 -20 20 -20
-56 -149 -154 -256 -331 -483 -552 -703 -157 -158 -255 -240 -403 -341 -71
-47 -82 -60 -85 -87 -3 -26 1 -34 21 -43 29 -13 72 9 201 105 595 438 1108
1205 1326 1981 174 619 170 1218 -11 1785 -173 538 -489 967 -924 1255 -144
95 -196 120 -278 134 -96 17 -286 73 -423 126 -101 39 -122 44 -147 35 -86
-29 -225 0 -312 65 -36 28 -41 29 -164 31 -69 1 -175 -2 -236 -7z"/>
<path d="M9082 4757 c-6 -7 -18 -51 -26 -98 -13 -74 -13 -87 0 -106 16 -25 55
-31 72 -10 5 6 13 27 17 46 4 19 17 42 29 52 19 16 20 20 8 65 -7 27 -19 52
-25 56 -19 12 -64 9 -75 -5z"/>
<path d="M9784 4655 c-9 -14 -17 -42 -18 -62 -1 -46 19 -60 71 -47 49 12 62
44 40 97 -14 31 -21 37 -46 37 -22 0 -35 -7 -47 -25z"/>
<path d="M8285 4608 c-15 -12 -36 -40 -46 -62 -16 -35 -19 -37 -19 -15 0 32
-17 49 -50 49 -14 0 -31 -5 -38 -12 -25 -25 -5 -322 29 -426 20 -61 80 -66
104 -9 7 18 16 66 20 107 14 154 38 280 54 280 11 0 63 -117 91 -204 25 -76
48 -106 84 -106 36 0 63 28 110 110 23 41 48 75 56 75 10 0 27 -32 46 -85 53
-143 104 -175 163 -103 49 59 35 110 -28 101 -26 -4 -30 -1 -41 36 -30 101
-86 166 -142 166 -35 0 -99 -59 -134 -124 l-21 -40 -27 81 c-33 98 -75 167
-115 187 -41 21 -63 20 -96 -6z"/>
<path d="M9434 4511 c-54 -33 -114 -129 -155 -250 -35 -99 -19 -171 37 -171
35 0 45 15 47 76 2 44 12 78 39 134 38 78 73 130 88 130 14 0 30 -63 44 -176
11 -88 17 -111 34 -125 26 -21 57 -15 79 15 l16 22 23 -23 c27 -27 60 -21 78
16 17 34 21 258 5 277 -6 8 -22 14 -35 14 -37 0 -54 -26 -54 -83 0 -29 -3 -75
-6 -104 l-7 -52 -18 23 c-11 13 -19 38 -19 56 0 17 -7 63 -16 101 -28 125 -97
171 -180 120z"/>
<path d="M10508 4470 c-53 -29 -118 -121 -118 -170 0 -13 33 -53 89 -108 97
-96 147 -181 157 -269 5 -43 3 -51 -21 -73 -25 -23 -35 -25 -154 -30 -88 -3
-133 -9 -145 -19 -23 -19 -21 -70 3 -79 11 -4 80 -5 153 -2 117 5 138 9 176
30 80 45 106 122 78 230 -25 95 -73 177 -153 260 -40 41 -73 76 -73 78 0 2 9
16 20 32 15 21 25 26 45 22 14 -2 32 1 40 8 21 17 19 73 -3 93 -24 22 -48 21
-94 -3z"/>
<path d="M8991 4471 c-11 -7 -14 -42 -14 -168 0 -88 3 -164 6 -170 14 -22 49
-22 72 1 21 21 44 113 36 141 -2 6 -7 43 -12 84 -12 103 -42 141 -88 112z"/>
<path d="M10125 4406 c-34 -15 -137 -122 -161 -168 -19 -37 -8 -72 27 -81 18
-5 29 2 53 30 78 91 119 132 128 127 5 -3 6 -47 2 -104 -6 -91 -5 -99 15 -119
24 -24 78 -28 103 -8 28 23 29 47 2 74 -23 23 -25 30 -19 77 13 98 -31 186
-92 186 -15 -1 -42 -7 -58 -14z"/>
<path d="M9217 3756 c-27 -7 -62 -23 -78 -35 -17 -13 -55 -31 -86 -42 -213
-73 -365 -239 -366 -401 -1 -147 98 -242 267 -255 67 -5 74 -4 88 16 17 23 14
56 -6 68 -6 4 -39 10 -73 14 -117 12 -177 67 -176 159 1 82 60 170 158 234 75
51 85 53 85 24 0 -74 52 -150 124 -184 44 -21 66 -24 165 -24 133 0 196 21
208 67 12 51 -35 80 -82 49 -34 -22 -213 -22 -255 -1 -57 29 -77 120 -35 155
9 7 56 16 106 19 79 6 94 10 110 30 10 13 19 28 19 35 0 22 -33 58 -66 72 -39
17 -45 17 -107 0z"/>
<path d="M9562 2773 c-18 -7 -49 -71 -63 -129 -23 -97 -155 -305 -271 -429
-139 -149 -233 -145 -164 7 27 60 60 95 96 100 35 4 50 50 25 78 -61 68 -181
-34 -239 -203 -3 -10 -10 -16 -16 -12 -5 3 -31 -2 -58 -11 -90 -32 -129 1
-117 100 6 43 3 55 -15 79 -30 38 -57 34 -125 -22 -33 -26 -75 -53 -93 -59
l-33 -11 35 41 c46 54 72 71 109 72 23 1 35 8 47 29 14 27 14 29 -13 53 -35
30 -51 30 -115 -2 -64 -32 -148 -128 -158 -181 -15 -81 55 -126 151 -98 29 8
64 24 78 35 l26 21 6 -28 c19 -95 89 -148 182 -140 28 3 64 12 79 20 27 14 29
14 46 -14 42 -68 120 -81 208 -33 63 35 186 163 262 272 53 78 56 81 61 55 4
-16 21 -45 39 -66 18 -20 45 -52 61 -71 25 -31 193 -166 239 -192 41 -24 80
14 64 63 -4 10 -52 52 -107 93 -55 41 -105 80 -110 86 -6 8 2 23 26 47 37 37
47 81 23 105 -19 19 -66 15 -78 -8 -7 -13 -21 -20 -40 -20 l-30 0 0 74 c0 76
21 179 47 229 13 25 12 31 -2 53 -15 23 -35 28 -63 17z"/>
<path d="M10256 2698 c-10 -17 -16 -81 -21 -250 l-6 -227 25 -16 c29 -20 48
-15 116 27 26 16 63 31 81 31 27 2 36 -3 47 -26 18 -37 8 -93 -19 -108 -12 -6
-22 -9 -23 -7 -1 2 -10 15 -19 31 -23 35 -59 36 -86 1 -29 -37 -26 -65 9 -99
38 -36 109 -45 160 -18 98 51 118 207 36 289 -51 51 -106 54 -207 10 -15 -7
-16 9 -11 173 5 194 2 211 -44 211 -14 0 -30 -10 -38 -22z"/>
<path d="M7828 2640 l-22 -17 18 -124 c9 -68 20 -136 23 -151 4 -23 1 -29 -23
-39 -45 -16 -64 -39 -64 -74 0 -34 25 -65 53 -65 8 0 25 12 36 26 12 15 21 23
21 18 0 -5 9 -61 20 -124 11 -63 20 -129 20 -147 0 -61 81 -68 96 -8 3 13 -3
84 -15 155 -12 72 -21 136 -21 142 0 10 19 8 97 -8 26 -5 34 -2 48 20 16 23
16 28 2 49 -17 26 -75 47 -130 47 -19 0 -37 6 -40 13 -2 6 -12 71 -22 142 -10
72 -22 135 -27 141 -16 21 -48 23 -70 4z"/>
<path d="M11431 2523 c-27 -23 -71 -240 -101 -498 -24 -211 -25 -255 -7 -279
14 -19 62 -25 78 -9 4 4 11 51 13 103 7 153 61 525 92 637 4 14 -1 28 -15 42
-26 26 -33 26 -60 4z"/>
<path d="M11209 2461 c-32 -32 -37 -62 -14 -81 9 -8 15 -30 15 -59 0 -70 40
-107 78 -73 28 24 39 187 16 220 -21 31 -60 28 -95 -7z"/>
<path d="M8285 2370 c-33 -14 -66 -51 -89 -99 -28 -61 -30 -228 -3 -279 21
-39 57 -55 92 -42 34 13 38 64 7 87 -21 17 -28 119 -12 169 7 20 30 54 51 75
40 39 43 61 11 87 -18 14 -29 14 -57 2z"/>
<path d="M10708 2230 c-43 -25 -84 -139 -72 -200 4 -17 20 -45 36 -62 25 -26
33 -30 65 -25 20 4 53 18 74 32 30 20 39 22 39 10 0 -26 38 -55 73 -55 56 0
88 41 61 79 -8 11 -21 21 -28 21 -19 0 -24 28 -18 88 4 46 2 51 -23 68 -30 19
-52 12 -70 -22 -20 -37 -90 -114 -105 -114 -16 0 -12 23 15 76 29 57 31 77 9
98 -18 18 -32 20 -56 6z"/>
<path d="M11108 2153 c-15 -18 -38 -160 -38 -236 0 -59 64 -85 91 -36 5 11 14
72 20 137 10 114 10 117 -11 134 -28 23 -43 23 -62 1z"/>
</g>
</svg>
