<?xml version="1.0" encoding="UTF-8"?>
<!DOCTYPE svg PUBLIC "-//W3C//DTD SVG 1.1//EN" "http://www.w3.org/Graphics/SVG/1.1/DTD/svg11.dtd">
<svg xmlns="http://www.w3.org/2000/svg" version="1.1" width="2761px" height="1945px" style="shape-rendering:geometricPrecision; text-rendering:geometricPrecision; image-rendering:optimizeQuality; fill-rule:evenodd; clip-rule:evenodd" xmlns:xlink="http://www.w3.org/1999/xlink">
<g><path style="opacity:1" fill="#fefefe" d="M -0.5,-0.5 C 919.833,-0.5 1840.17,-0.5 2760.5,-0.5C 2760.5,647.833 2760.5,1296.17 2760.5,1944.5C 1840.17,1944.5 919.833,1944.5 -0.5,1944.5C -0.5,1296.17 -0.5,647.833 -0.5,-0.5 Z"/></g>
<g><path style="opacity:1" fill="#000000" d="M 1346.5,29.5 C 1349.36,29.0548 1351.86,29.7215 1354,31.5C 1353.18,35.5052 1353.35,39.5052 1354.5,43.5C 1357.71,42.7197 1360.71,42.8863 1363.5,44C 1366.01,48.157 1365.01,51.4903 1360.5,54C 1364.25,98.7765 1367.09,143.61 1369,188.5C 1366.62,191.93 1363.95,192.263 1361,189.5C 1359.78,183.551 1358.78,177.551 1358,171.5C 1357.34,181.148 1354.67,190.148 1350,198.5C 1346.27,201.358 1342.1,203.358 1337.5,204.5C 1335.14,210.695 1331.14,215.528 1325.5,219C 1350.56,218.617 1375.23,215.617 1399.5,210C 1403.47,215.745 1401.81,219.411 1394.5,221C 1379.67,224.396 1364.67,226.729 1349.5,228C 1322.54,230.125 1295.54,231.458 1268.5,232C 1214.34,233.571 1160.17,234.738 1106,235.5C 1068.29,235.332 1030.63,233.998 993,231.5C 988.285,231.31 983.785,231.977 979.5,233.5C 973.171,232.505 971.338,229.171 974,223.5C 974.605,175.825 975.271,128.158 976,80.5C 970.373,76.4543 970.207,71.9543 975.5,67C 977.5,66.3333 979.5,66.3333 981.5,67C 982.459,68.4638 983.792,69.2972 985.5,69.5C 1016.06,65.5646 1046.72,62.7313 1077.5,61C 1166.56,56.1462 1255.56,50.6462 1344.5,44.5C 1342.51,39.0457 1343.18,34.0457 1346.5,29.5 Z"/></g>
<g><path style="opacity:1" fill="#fefffe" d="M 1341.5,54.5 C 1343.5,54.5 1345.5,54.5 1347.5,54.5C 1350.2,69.5532 1351.87,84.7198 1352.5,100C 1352.3,127.667 1350.13,155.167 1346,182.5C 1346.87,171.716 1342.37,164.216 1332.5,160C 1305.01,149.92 1276.85,142.42 1248,137.5C 1237.5,137.583 1229.17,141.916 1223,150.5C 1213.32,163.545 1207.82,178.211 1206.5,194.5C 1206.77,200.118 1208.1,205.451 1210.5,210.5C 1208.94,213.614 1209.27,216.447 1211.5,219C 1223.76,221.789 1236.1,222.123 1248.5,220C 1256.06,218.734 1263.56,217.234 1271,215.5C 1284.56,216.415 1298.06,217.915 1311.5,220C 1258.86,222.563 1206.2,223.897 1153.5,224C 1164.37,215.43 1171.04,204.263 1173.5,190.5C 1171.5,185.3 1170,179.967 1169,174.5C 1163.37,170.957 1157.21,168.79 1150.5,168C 1141.41,167.829 1132.41,166.996 1123.5,165.5C 1113.86,165.965 1107.02,170.631 1103,179.5C 1100.73,186.814 1098.56,194.147 1096.5,201.5C 1099.25,210.272 1103.58,218.105 1109.5,225C 1094.5,225.667 1079.5,225.667 1064.5,225C 1037.84,223.648 1011.17,222.482 984.5,221.5C 984.135,173.908 985.135,126.408 987.5,79C 1017.42,75.4511 1047.42,72.7844 1077.5,71C 1147.48,66.6502 1217.48,62.6502 1287.5,59C 1305.7,58.0117 1323.7,56.5117 1341.5,54.5 Z"/></g>
<g><path style="opacity:1" fill="#fefffe" d="M 1241.5,147.5 C 1251.75,147.25 1261.75,148.75 1271.5,152C 1283.88,155.178 1296.21,158.511 1308.5,162C 1316.48,164.216 1324.15,167.216 1331.5,171C 1333,171.833 1334.17,173 1335,174.5C 1335.05,188.024 1330.55,199.857 1321.5,210C 1308.97,209.497 1296.47,208.331 1284,206.5C 1280.69,205.882 1277.69,204.549 1275,202.5C 1272.75,203.137 1270.59,203.97 1268.5,205C 1252.17,205.667 1235.83,205.667 1219.5,205C 1217.56,201.847 1216.56,198.347 1216.5,194.5C 1217.71,180.426 1222.54,167.76 1231,156.5C 1234.1,152.886 1237.6,149.886 1241.5,147.5 Z"/></g>
<g><path style="opacity:1" fill="#fefffe" d="M 1126.5,180.5 C 1130.6,180.234 1134.6,180.734 1138.5,182C 1145.14,188.659 1152.97,190.826 1162,188.5C 1162.69,189.025 1163.19,189.692 1163.5,190.5C 1162.52,193.096 1161.85,195.762 1161.5,198.5C 1157.97,198.346 1155.14,199.679 1153,202.5C 1151.11,215.735 1143.61,221.235 1130.5,219C 1122.31,216.993 1115.48,212.827 1110,206.5C 1106.2,193.241 1111.03,185.741 1124.5,184C 1125.82,183.184 1126.49,182.017 1126.5,180.5 Z"/></g>
<g><path style="opacity:1" fill="#000000" d="M 892.5,195.5 C 899.553,196.611 901.553,200.278 898.5,206.5C 898.808,207.308 899.308,207.975 900,208.5C 900.173,212.541 900.673,216.541 901.5,220.5C 906.932,223.02 908.765,227.02 907,232.5C 903.239,235.359 900.239,234.692 898,230.5C 896.075,231.88 894.241,233.38 892.5,235C 919.831,235.5 947.165,235.667 974.5,235.5C 974.333,337.834 974.5,440.167 975,542.5C 975.454,539.388 977.287,537.722 980.5,537.5C 985.451,538.142 990.451,538.475 995.5,538.5C 1075.92,535.518 1156.25,531.018 1236.5,525C 1280.47,521.641 1324.47,520.974 1368.5,523C 1376.22,523.59 1383.89,524.59 1391.5,526C 1398.86,526.931 1405.03,530.098 1410,535.5C 1412.64,539.983 1411.64,543.316 1407,545.5C 1401.21,539.521 1394.04,536.021 1385.5,535C 1365.92,532.524 1346.25,531.358 1326.5,531.5C 1296.48,532.068 1266.48,533.234 1236.5,535C 1171.52,539.398 1106.52,543.398 1041.5,547C 1021.5,547.917 1001.5,548.25 981.5,548C 977.878,548.379 975.711,546.879 975,543.5C 974.667,607.5 974.333,671.5 974,735.5C 972.367,738.14 972.533,740.807 974.5,743.5C 964.236,745.852 954.07,748.519 944,751.5C 943.333,747.167 943.333,742.833 944,738.5C 953.225,670.128 957.225,601.461 956,532.5C 952.975,463.862 951.975,395.196 953,326.5C 953.372,317.145 954.038,307.811 955,298.5C 958.582,297.254 961.249,294.92 963,291.5C 965.855,281.916 966.189,272.249 964,262.5C 963.027,260.36 961.527,258.693 959.5,257.5C 962.55,250.069 960.217,246.902 952.5,248C 940.604,261.832 938.271,277.166 945.5,294C 943.04,322.273 942.04,350.606 942.5,379C 943.834,450.504 945,522.004 946,593.5C 944.543,635.648 941.21,677.648 936,719.5C 932.727,729.587 930.894,739.921 930.5,750.5C 927.309,751.092 924.309,752.259 921.5,754C 916.979,758.022 912.312,761.856 907.5,765.5C 906.3,764.469 904.966,763.635 903.5,763C 897.99,762.95 892.657,762.283 887.5,761C 891.631,760.701 893.964,758.534 894.5,754.5C 892.932,749.702 891.098,745.035 889,740.5C 888.82,670.397 891.486,600.397 897,530.5C 908.256,445.505 914.923,360.172 917,274.5C 915.211,272.771 913.044,272.104 910.5,272.5C 910.223,267.767 910.557,263.1 911.5,258.5C 911.125,252.619 908.125,250.452 902.5,252C 899.054,344.464 893.887,436.964 887,529.5C 877.197,591.468 872.864,653.802 874,716.5C 874.423,731.824 875.923,746.99 878.5,762C 859.827,762.324 841.16,762.324 822.5,762C 819.044,762.18 815.711,762.847 812.5,764C 809.327,768.464 810.16,771.964 815,774.5C 820.4,772.108 826.067,771.108 832,771.5C 848.173,772.004 864.34,772.671 880.5,773.5C 881.632,779.633 885.299,782.966 891.5,783.5C 896.818,782.343 901.818,780.343 906.5,777.5C 906.347,787.473 906.681,797.473 907.5,807.5C 903.859,823.317 902.692,839.317 904,855.5C 906.51,860.255 909.51,860.588 913,856.5C 912.673,839.991 914.173,823.657 917.5,807.5C 916.446,800.523 916.279,793.523 917,786.5C 920.299,788.323 923.799,789.656 927.5,790.5C 930.645,866.891 929.479,943.224 924,1019.5C 923.667,1003.5 923.333,987.5 923,971.5C 920.847,969.556 918.347,969.056 915.5,970C 914.809,971.067 914.309,972.234 914,973.5C 913.667,994.833 913.333,1016.17 913,1037.5C 911.341,1048.1 910.508,1058.77 910.5,1069.5C 911.743,1092.83 912.91,1116.16 914,1139.5C 915.46,1141.42 917.127,1142.09 919,1141.5C 919.667,1147.5 919.667,1153.5 919,1159.5C 918.727,1161.1 918.227,1162.6 917.5,1164C 913.272,1165.41 908.939,1166.25 904.5,1166.5C 903.576,1135.72 901.41,1105.05 898,1074.5C 893.8,1067.66 887.967,1065.82 880.5,1069C 875.223,1073.57 872.723,1079.4 873,1086.5C 869.182,1119.44 867.015,1152.27 866.5,1185C 864.264,1238.54 862.597,1291.54 861.5,1344C 861.833,1345 862.167,1346 862.5,1347C 861.833,1368.33 861.167,1389.67 860.5,1411C 860.833,1412 861.167,1413 861.5,1414C 860.67,1455.1 860.17,1496.26 860,1537.5C 859.116,1544.95 856.783,1551.95 853,1558.5C 845.326,1594 858.826,1616.83 893.5,1627C 915.083,1630.79 931.583,1623.29 943,1604.5C 949.679,1590.62 953.512,1575.95 954.5,1560.5C 953.718,1537.89 942.384,1523.72 920.5,1518C 913.464,1517.28 906.464,1517.45 899.5,1518.5C 899.435,1510.46 899.435,1502.62 899.5,1495C 899.042,1485.96 898.042,1476.96 896.5,1468C 903.537,1423.56 907.537,1378.89 908.5,1334C 908.5,1316 908.5,1298 908.5,1280C 907.713,1253.33 906.713,1226.66 905.5,1200C 905.242,1192.68 905.575,1185.18 906.5,1177.5C 909.5,1178.17 912.5,1178.83 915.5,1179.5C 916.308,1181.42 916.808,1183.42 917,1185.5C 918.126,1186.94 919.626,1187.61 921.5,1187.5C 930.008,1184.5 938.674,1182 947.5,1180C 948.743,1178.85 949.743,1177.51 950.5,1176C 948.923,1172.75 946.923,1169.75 944.5,1167C 941.774,1166.82 939.107,1166.32 936.5,1165.5C 937.869,1159.86 935.535,1157.19 929.5,1157.5C 929.492,1133.16 929.992,1108.82 931,1084.5C 934.157,1024.52 936.823,964.521 939,904.5C 939.298,865.164 939.298,825.831 939,786.5C 945.832,779.162 948.332,770.495 946.5,760.5C 955.747,758.117 965.08,756.117 974.5,754.5C 974.667,971.5 974.5,1188.5 974,1405.5C 969.525,1405.02 965.025,1404.68 960.5,1404.5C 958.626,1404.39 957.126,1405.06 956,1406.5C 955.815,1414.22 956.482,1421.88 958,1429.5C 958.557,1464.36 959.724,1499.19 961.5,1534C 961.524,1545.19 961.024,1556.36 960,1567.5C 959.543,1572.42 957.543,1576.42 954,1579.5C 951.866,1582.61 952.366,1585.28 955.5,1587.5C 957.432,1588.52 959.432,1588.69 961.5,1588C 966.264,1582.39 969.097,1575.89 970,1568.5C 971.51,1549.19 971.843,1529.86 971,1510.5C 969.15,1483.53 968.15,1456.53 968,1429.5C 966.918,1425.14 966.751,1420.8 967.5,1416.5C 969.642,1415.4 971.808,1414.4 974,1413.5C 974.5,1576.17 974.667,1738.83 974.5,1901.5C 911.5,1901.5 848.5,1901.5 785.5,1901.5C 785.833,1741.5 785.5,1581.5 784.5,1421.5C 780.765,1422.33 778.598,1420.67 778,1416.5C 776.995,1401.44 775.495,1386.44 773.5,1371.5C 765.337,1342.83 752.504,1316.17 735,1291.5C 733.079,1298.44 731.413,1305.44 730,1312.5C 728.607,1316.29 726.941,1319.95 725,1323.5C 725.893,1333.12 722.726,1340.95 715.5,1347C 709.804,1350.26 704.138,1350.26 698.5,1347C 696.987,1344.08 697.32,1341.42 699.5,1339C 704.76,1340.73 709.26,1339.56 713,1335.5C 713.958,1330.88 714.625,1326.21 715,1321.5C 717.551,1317.07 719.551,1312.4 721,1307.5C 722.706,1298.01 725.04,1288.67 728,1279.5C 730.971,1275.91 734.304,1275.57 738,1278.5C 750.591,1295.79 761.591,1314.12 771,1333.5C 770.093,1309.5 768.926,1285.5 767.5,1261.5C 737.849,1262.37 708.349,1265.04 679,1269.5C 674.553,1269.2 674.719,1268.7 679.5,1268C 693.53,1266.22 707.53,1264.22 721.5,1262C 691.128,1262.19 660.795,1263.52 630.5,1266C 577.542,1270.56 524.542,1274.56 471.5,1278C 384.127,1281.94 296.794,1286.6 209.5,1292C 175.513,1293.29 141.513,1293.79 107.5,1293.5C 106.671,1309.82 106.338,1326.15 106.5,1342.5C 119.813,1340.84 133.146,1339.67 146.5,1339C 133.766,1340.85 121.099,1343.01 108.5,1345.5C 108.76,1355.73 108.093,1365.9 106.5,1376C 106.807,1381.33 107.807,1386.49 109.5,1391.5C 114.245,1387.47 117.912,1388.3 120.5,1394C 117.652,1398.44 113.652,1401.44 108.5,1403C 176.568,1403.48 244.568,1401.48 312.5,1397C 421.32,1390.26 529.986,1381.59 638.5,1371C 681.164,1367.83 723.831,1365.17 766.5,1363C 768.706,1365.21 769.04,1367.71 767.5,1370.5C 765.118,1372.07 762.451,1372.9 759.5,1373C 719.153,1375.46 678.82,1378.13 638.5,1381C 504.42,1394.42 370.086,1404.42 235.5,1411C 189.184,1413.03 142.851,1413.69 96.5,1413C 95.0564,1411.87 94.3898,1410.37 94.5,1408.5C 96.239,1405.89 97.239,1402.89 97.5,1399.5C 96.8079,1391.67 96.1412,1383.84 95.5,1376C 96.4915,1367.18 96.6582,1358.35 96,1349.5C 91.8847,1352.32 87.3847,1353.48 82.5,1353C 80.2936,1350.79 79.9602,1348.29 81.5,1345.5C 86.3771,1343.96 91.3771,1343.29 96.5,1343.5C 96.3337,1326.82 96.667,1310.15 97.5,1293.5C 91.4568,1293 85.4568,1292.16 79.5,1291C 76.3986,1286.85 77.2319,1283.68 82,1281.5C 87.4747,1282.56 92.9747,1283.06 98.5,1283C 102.311,1277.08 106.311,1277.08 110.5,1283C 143.512,1283.79 176.512,1283.45 209.5,1282C 296.794,1276.6 384.127,1271.94 471.5,1268C 534.521,1263.61 597.521,1258.94 660.5,1254C 696.154,1252.19 731.821,1251.02 767.5,1250.5C 765.516,1196.85 765.016,1143.18 766,1089.5C 765.667,1089.83 765.333,1090.17 765,1090.5C 760.245,1088.22 755.245,1086.56 750,1085.5C 743.622,1087.14 737.122,1087.64 730.5,1087C 727.992,1082.46 728.325,1077.96 731.5,1073.5C 732.628,1072.74 733.795,1072.07 735,1071.5C 745.769,1071.87 756.602,1072.87 767.5,1074.5C 767.299,1065.79 767.799,1057.13 769,1048.5C 772.49,1044.41 775.49,1044.75 778,1049.5C 777.581,1058.15 777.581,1066.81 778,1075.5C 780.124,1076.23 782.291,1076.89 784.5,1077.5C 785.251,1076.62 785.751,1075.62 786,1074.5C 788.5,1076.54 791.167,1076.87 794,1075.5C 797.243,1077.26 800.743,1077.93 804.5,1077.5C 803.261,1108.52 801.427,1139.52 799,1170.5C 798.667,1170.83 798.333,1171.17 798,1171.5C 793.546,1164.63 790.046,1165.13 787.5,1173C 789.087,1178.63 792.587,1180.8 798,1179.5C 798.026,1183.11 798.859,1186.44 800.5,1189.5C 803.901,1190.89 806.401,1189.89 808,1186.5C 810.901,1151.55 812.901,1116.55 814,1081.5C 816.04,1077.62 815.207,1074.45 811.5,1072C 814.298,1067.9 816.131,1063.4 817,1058.5C 821.23,1040.07 822.563,1021.4 821,1002.5C 818.297,994.057 815.797,985.557 813.5,977C 815.543,972.837 815.71,968.67 814,964.5C 812.933,963.809 811.766,963.309 810.5,963C 820.131,953.494 818.464,946.994 805.5,943.5C 801.546,944.027 797.546,944.193 793.5,944C 790.833,947.333 790.833,950.667 793.5,954C 796.7,954.101 799.7,954.768 802.5,956C 797.962,957.713 796.462,960.88 798,965.5C 800.233,967.733 802.4,969.9 804.5,972C 803.387,976.181 803.554,980.348 805,984.5C 806.798,990.895 808.798,997.228 811,1003.5C 811.5,1011.16 811.666,1018.83 811.5,1026.5C 808.813,1026.34 806.146,1026.5 803.5,1027C 799.116,1028.73 795.283,1031.23 792,1034.5C 789.861,1033.76 787.861,1032.76 786,1031.5C 785.667,958.167 785.333,884.833 785,811.5C 763.31,800.783 754.977,783.449 760,759.5C 763.785,747.216 771.952,739.549 784.5,736.5C 785.667,612.835 785.833,489.168 785,365.5C 784.833,368.333 783.333,369.833 780.5,370C 712.534,373.959 644.534,377.292 576.5,380C 572.495,380.145 568.662,380.978 565,382.5C 560.349,380.86 559.015,377.86 561,373.5C 565.86,371.177 571.027,370.011 576.5,370C 639.547,367.713 702.547,364.546 765.5,360.5C 771.167,360.667 776.833,360.833 782.5,361C 783.849,361.772 784.682,362.939 785,364.5C 785.832,355.482 785.665,346.482 784.5,337.5C 781.566,338.42 778.566,339.087 775.5,339.5C 773.312,339.693 771.645,338.859 770.5,337C 763.202,336.025 755.869,335.525 748.5,335.5C 682.464,338.08 616.464,337.913 550.5,335C 554.479,335.505 557.146,337.672 558.5,341.5C 557.743,344.426 555.91,346.093 553,346.5C 544.849,345.016 540.016,340.182 538.5,332C 540.479,326.086 544.646,323.586 551,324.5C 616.81,327.907 682.644,328.24 748.5,325.5C 758.844,325.785 769.177,326.285 779.5,327C 781.433,327.251 783.266,327.751 785,328.5C 785.5,297.502 785.667,266.502 785.5,235.5C 818.84,235.833 852.173,235.5 885.5,234.5C 884.48,232.568 884.313,230.568 885,228.5C 890.271,224.428 891.938,219.095 890,212.5C 888.38,209.425 886.88,206.258 885.5,203C 886.699,199.305 889.032,196.805 892.5,195.5 Z"/></g>
<g><path style="opacity:1" fill="#fefffe" d="M 838.5,295.5 C 843.227,294.727 845.727,296.727 846,301.5C 852.516,406.071 854.849,510.737 853,615.5C 850,619.5 847,619.5 844,615.5C 844.68,520.443 842.68,425.443 838,330.5C 837.654,320.434 836.82,310.434 835.5,300.5C 836.26,298.64 837.26,296.973 838.5,295.5 Z"/></g>
<g><path style="opacity:1" fill="#000000" d="M 2219.5,350.5 C 2224.86,350.688 2227.03,353.355 2226,358.5C 2224.29,359.878 2222.95,361.545 2222,363.5C 2214.26,380.705 2208.6,398.371 2205,416.5C 2204.33,418.5 2204.33,420.5 2205,422.5C 2205.62,420.884 2206.62,419.551 2208,418.5C 2208.39,412.923 2209.73,407.59 2212,402.5C 2214.63,400.012 2217.46,399.845 2220.5,402C 2221.1,403.062 2221.43,404.228 2221.5,405.5C 2219.05,411.355 2217.72,417.521 2217.5,424C 2217.34,428.187 2218.34,432.021 2220.5,435.5C 2227.46,423.746 2234.79,412.246 2242.5,401C 2250.02,395.275 2258.35,393.942 2267.5,397C 2271.15,398.799 2273.82,401.465 2275.5,405C 2273.02,409.897 2269.52,410.73 2265,407.5C 2261.73,415.532 2260.39,423.865 2261,432.5C 2262.98,435.239 2264.81,438.073 2266.5,441C 2265.46,446.023 2262.46,447.69 2257.5,446C 2251.53,439.308 2249.37,431.474 2251,422.5C 2251.72,417.059 2252.89,411.726 2254.5,406.5C 2254.17,406.167 2253.83,405.833 2253.5,405.5C 2250.85,407.65 2248.35,409.983 2246,412.5C 2240.59,422.331 2234.92,431.998 2229,441.5C 2224.8,445.714 2219.97,446.548 2214.5,444C 2211.69,440.886 2209.53,437.386 2208,433.5C 2202.86,436.674 2198.69,435.674 2195.5,430.5C 2187.56,439.652 2178.23,441.486 2167.5,436C 2165.26,434.261 2163.59,432.094 2162.5,429.5C 2144.11,426.381 2138.61,416.381 2146,399.5C 2153.53,389.31 2163.03,386.81 2174.5,392C 2176.99,395.379 2177.99,398.879 2177.5,402.5C 2184.18,399.581 2191.18,398.081 2198.5,398C 2203.35,382.8 2209.18,367.967 2216,353.5C 2217.15,352.364 2218.31,351.364 2219.5,350.5 Z"/></g>
<g><path style="opacity:1" fill="#000000" d="M 1989.5,356.5 C 2003.54,356.702 2009.37,363.702 2007,377.5C 1999.86,391.832 1988.7,401.665 1973.5,407C 1972.03,415.517 1967.87,416.684 1961,410.5C 1959.63,408.305 1959.29,405.971 1960,403.5C 1969.71,398.393 1979.21,392.893 1988.5,387C 1994.76,382.319 1997.59,376.152 1997,368.5C 1993.33,366.151 1989.5,365.985 1985.5,368C 1972.37,374.464 1963.53,384.631 1959,398.5C 1954.6,418.756 1949.27,438.756 1943,458.5C 1942.03,462.475 1939.7,465.142 1936,466.5C 1931.5,465.004 1929.66,461.837 1930.5,457C 1934.01,427.424 1943.84,400.257 1960,375.5C 1967.71,365.574 1977.55,359.241 1989.5,356.5 Z"/></g>
<g><path style="opacity:1" fill="#000000" d="M 2387.5,366.5 C 2390.96,366.796 2392.96,368.629 2393.5,372C 2380.8,391.778 2373.46,413.444 2371.5,437C 2371.68,443.219 2372.34,449.386 2373.5,455.5C 2372.53,462.608 2368.53,465.108 2361.5,463C 2358.62,461.334 2357.79,458.834 2359,455.5C 2360.31,454.228 2361.81,453.228 2363.5,452.5C 2361.95,444.601 2361.11,436.601 2361,428.5C 2355.18,434.666 2348.18,438.666 2340,440.5C 2337.7,440.506 2335.53,440.006 2333.5,439C 2330.53,436.205 2328.2,433.038 2326.5,429.5C 2307.15,437.64 2298.32,431.307 2300,410.5C 2296.03,413.464 2292.37,416.797 2289,420.5C 2287.72,424.097 2287.39,427.764 2288,431.5C 2292.4,433.605 2293.23,436.605 2290.5,440.5C 2286.07,444.434 2282.24,443.767 2279,438.5C 2276.69,430.247 2277.35,422.247 2281,414.5C 2286.94,406.216 2294.77,400.716 2304.5,398C 2307.1,397.231 2309.6,397.398 2312,398.5C 2318.03,396.063 2324.19,395.897 2330.5,398C 2332.87,400.039 2334.87,402.372 2336.5,405C 2334.67,410.414 2331.34,411.581 2326.5,408.5C 2325.28,411.059 2323.28,412.393 2320.5,412.5C 2317.63,412.069 2314.97,411.069 2312.5,409.5C 2309.18,413.887 2308.84,418.387 2311.5,423C 2312.83,423.667 2314.17,423.667 2315.5,423C 2320.42,420.954 2325.26,418.787 2330,416.5C 2331.98,416.99 2333.65,417.99 2335,419.5C 2336.25,422.993 2337.41,426.493 2338.5,430C 2340.64,430.635 2342.64,430.301 2344.5,429C 2347.17,427 2349.83,425 2352.5,423C 2355.21,418.115 2359.21,414.948 2364.5,413.5C 2368.61,399.606 2374.11,386.272 2381,373.5C 2382.73,370.609 2384.9,368.276 2387.5,366.5 Z"/></g>
<g><path style="opacity:1" fill="#000000" d="M 2014.5,379.5 C 2021.05,380.029 2025.72,383.362 2028.5,389.5C 2026.57,394.714 2023.4,395.714 2019,392.5C 2017.66,407.512 2014.66,422.179 2010,436.5C 2008.29,439.697 2005.62,441.697 2002,442.5C 1998.01,441.392 1994.18,439.892 1990.5,438C 1986.5,435 1986.5,432 1990.5,429C 1994.17,428.323 1997.5,429.156 2000.5,431.5C 2003.61,424.127 2005.78,416.46 2007,408.5C 2007.56,400.768 2008.56,393.102 2010,385.5C 2010.8,382.854 2012.3,380.854 2014.5,379.5 Z"/></g>
<g><path style="opacity:1" fill="#000000" d="M 2105.5,382.5 C 2115.41,381.514 2124.58,383.514 2133,388.5C 2135.91,392.661 2135.74,396.494 2132.5,400C 2128.06,401.235 2125.39,399.568 2124.5,395C 2115.93,391.354 2107.6,391.687 2099.5,396C 2092.85,402.051 2091.85,408.884 2096.5,416.5C 2099.02,418.857 2102.02,419.857 2105.5,419.5C 2109.84,419.218 2114.01,418.218 2118,416.5C 2123.73,418.449 2124.57,421.616 2120.5,426C 2110.23,430.979 2100.23,430.645 2090.5,425C 2080.18,411.188 2081.51,398.521 2094.5,387C 2098.05,384.879 2101.72,383.379 2105.5,382.5 Z"/></g>
<g><path style="opacity:1" fill="#000000" d="M 2062.5,388.5 C 2067.12,387.993 2071.45,388.826 2075.5,391C 2076.89,391.956 2077.56,393.289 2077.5,395C 2074.26,402.088 2071.1,409.255 2068,416.5C 2061.59,423.707 2053.59,428.04 2044,429.5C 2032.26,427.401 2028.59,420.734 2033,409.5C 2035.75,404.748 2039.25,400.581 2043.5,397C 2049.7,393.562 2056.03,390.729 2062.5,388.5 Z"/></g>
<g><path style="opacity:1" fill="#000000" d="M 1840.5,393.5 C 1859.65,395.708 1878.98,396.875 1898.5,397C 1906.15,397.306 1909.32,401.139 1908,408.5C 1904.22,411.943 1900.72,411.443 1897.5,407C 1877.83,406.311 1858.17,405.644 1838.5,405C 1834.59,403.312 1833.59,400.479 1835.5,396.5C 1837.14,395.304 1838.81,394.304 1840.5,393.5 Z"/></g>
<g><path style="opacity:1" fill="#fefffe" d="M 2060.5,399.5 C 2061.84,400.315 2062.84,401.482 2063.5,403C 2059.99,412.921 2052.99,418.254 2042.5,419C 2041.69,413.597 2043.69,409.263 2048.5,406C 2052.43,403.536 2056.43,401.369 2060.5,399.5 Z"/></g>
<g><path style="opacity:1" fill="#fefffe" d="M 2160.5,399.5 C 2162.53,399.338 2164.53,399.505 2166.5,400C 2163.43,402.024 2160.1,403.024 2156.5,403C 2157.73,401.595 2159.06,400.429 2160.5,399.5 Z"/></g>
<g><path style="opacity:1" fill="#fefffe" d="M 2189.5,408.5 C 2191.92,408.192 2194.26,408.526 2196.5,409.5C 2193.64,418.054 2188.31,424.554 2180.5,429C 2177.54,429.569 2174.87,428.902 2172.5,427C 2174.62,424.255 2174.29,421.588 2171.5,419C 2176.52,413.661 2182.52,410.161 2189.5,408.5 Z"/></g>
<g><path style="opacity:1" fill="#fefffe" d="M 2161.5,412.5 C 2162.24,412.369 2162.91,412.536 2163.5,413C 2161.42,419.64 2158.08,420.306 2153.5,415C 2156.38,414.454 2159.05,413.621 2161.5,412.5 Z"/></g>
<g><path style="opacity:1" fill="#000000" d="M 1069.5,421.5 C 1111.14,426.92 1152.98,429.587 1195,429.5C 1252.87,428.422 1310.71,426.255 1368.5,423C 1380.5,422.333 1392.5,422.333 1404.5,423C 1411.77,423.876 1413.77,427.543 1410.5,434C 1406.27,436.411 1401.77,438.244 1397,439.5C 1393.08,438.792 1391.58,436.459 1392.5,432.5C 1336.18,434.841 1279.84,437.007 1223.5,439C 1171.6,440.646 1119.93,437.979 1068.5,431C 1064.56,427.38 1064.89,424.214 1069.5,421.5 Z"/></g>
<g><path style="opacity:1" fill="#000000" d="M 687.5,460.5 C 693.514,462.188 694.681,465.522 691,470.5C 690.034,476.13 689.367,481.796 689,487.5C 688.084,508.533 688.417,529.533 690,550.5C 690.703,555.738 692.87,560.238 696.5,564C 699.351,565.289 702.351,565.789 705.5,565.5C 703.741,555.356 704.241,545.356 707,535.5C 709.11,530.055 712.944,528.222 718.5,530C 722.232,533.692 723.899,538.192 723.5,543.5C 723.219,551.626 721.219,559.292 717.5,566.5C 719.541,570.942 723.041,573.276 728,573.5C 734.906,572.309 741.573,570.309 748,567.5C 754.65,570.784 754.817,574.284 748.5,578C 741.946,580.847 735.112,582.68 728,583.5C 720.064,583.534 714.064,580.201 710,573.5C 696.355,577.919 687.022,573.252 682,559.5C 681.206,556.529 680.539,553.529 680,550.5C 678.047,525.842 678.047,501.175 680,476.5C 680.528,472.057 681.528,467.723 683,463.5C 684.409,462.219 685.909,461.219 687.5,460.5 Z"/></g>
<g><path style="opacity:1" fill="#000000" d="M 621.5,472.5 C 626.471,472.74 628.971,475.407 629,480.5C 630.767,504.176 632.601,527.843 634.5,551.5C 653.452,535.328 664.119,539.828 666.5,565C 666.774,573.187 664.107,580.187 658.5,586C 649.987,589.17 645.32,586.17 644.5,577C 644.299,570.533 647.299,567.533 653.5,568C 654.667,568.5 655.5,569.333 656,570.5C 656.667,566.833 656.667,563.167 656,559.5C 655.771,556.542 654.604,554.042 652.5,552C 649.458,552.327 646.791,553.66 644.5,556C 641.23,561.108 636.896,564.941 631.5,567.5C 629.813,567.24 628.313,566.573 627,565.5C 625.06,561.057 624.06,556.39 624,551.5C 622.579,531.511 621.412,511.511 620.5,491.5C 616.901,492.062 614.901,490.562 614.5,487C 615.464,483.109 616.63,479.275 618,475.5C 619.145,474.364 620.312,473.364 621.5,472.5 Z"/></g>
<g><path style="opacity:1" fill="#000000" d="M 2033.5,473.5 C 2037.85,473.334 2042.18,473.501 2046.5,474C 2054.14,478.29 2054.48,483.29 2047.5,489C 2042.56,490.367 2039.89,488.534 2039.5,483.5C 2032.8,484.012 2026.46,485.845 2020.5,489C 2018.79,490.378 2017.45,492.045 2016.5,494C 2026.44,495.026 2036.44,496.026 2046.5,497C 2050.55,501.696 2052.22,507.196 2051.5,513.5C 2055.85,513.666 2060.18,513.499 2064.5,513C 2065.87,506.897 2068.04,501.063 2071,495.5C 2074.4,491.797 2078.56,490.631 2083.5,492C 2085.05,493.214 2086.22,494.714 2087,496.5C 2087.56,500.988 2087.23,505.321 2086,509.5C 2093.87,504.318 2102.37,500.485 2111.5,498C 2130.44,495.38 2136.27,502.88 2129,520.5C 2124.81,525.555 2121.31,525.055 2118.5,519C 2120.56,515.385 2121.9,511.552 2122.5,507.5C 2116.96,507.087 2111.63,507.92 2106.5,510C 2096.81,515.034 2087.15,520.034 2077.5,525C 2073.49,526.098 2069.99,525.265 2067,522.5C 2061.33,523.833 2055.67,523.833 2050,522.5C 2046.52,540.981 2035.52,551.648 2017,554.5C 2003.39,552.225 1997.39,544.225 1999,530.5C 2000.03,524.371 2003.36,520.371 2009,518.5C 2011.71,518.872 2013.54,520.372 2014.5,523C 2013.09,526.082 2011.26,528.915 2009,531.5C 2008.78,543.564 2014.28,547.064 2025.5,542C 2033.52,537.469 2038.18,530.635 2039.5,521.5C 2032.22,520.735 2030.88,517.569 2035.5,512C 2037.47,511.505 2039.47,511.338 2041.5,511.5C 2041.74,509.533 2041.41,507.699 2040.5,506C 2032.5,505.667 2024.5,505.333 2016.5,505C 2006.35,501.216 2004.18,494.716 2010,485.5C 2016.58,478.926 2024.41,474.926 2033.5,473.5 Z"/></g>
<g><path style="opacity:1" fill="#000000" d="M 2359.5,485.5 C 2367.29,485.065 2369.62,488.565 2366.5,496C 2366.96,499.045 2367.63,502.045 2368.5,505C 2368.43,507.994 2366.93,509.827 2364,510.5C 2361.09,509.756 2358.93,508.09 2357.5,505.5C 2353.22,507.362 2350.56,506.029 2349.5,501.5C 2352.33,495.841 2355.66,490.507 2359.5,485.5 Z"/></g>
<g><path style="opacity:1" fill="#000000" d="M 2304.5,488.5 C 2308.15,488.814 2310.15,490.814 2310.5,494.5C 2309.49,500.204 2307.49,505.538 2304.5,510.5C 2316.4,508.129 2327.57,503.462 2338,496.5C 2341.17,497 2343,498.833 2343.5,502C 2340.51,508.99 2337.51,515.99 2334.5,523C 2339.45,523.273 2341.28,525.773 2340,530.5C 2336.83,534.7 2333.33,538.533 2329.5,542C 2324.58,543.211 2321.58,541.378 2320.5,536.5C 2322.4,528.642 2324.57,520.975 2327,513.5C 2317.89,517.26 2308.72,520.927 2299.5,524.5C 2296.58,531.426 2293.74,538.426 2291,545.5C 2285.31,550.944 2281.14,549.778 2278.5,542C 2280.58,539.123 2282.91,536.457 2285.5,534C 2285,533.5 2284.5,533 2284,532.5C 2276.8,537.084 2268.97,538.584 2260.5,537C 2253.78,534.948 2249.95,530.448 2249,523.5C 2241.03,527.983 2232.86,528.483 2224.5,525C 2223.3,524.097 2222.47,522.931 2222,521.5C 2221.48,517.425 2221.48,513.425 2222,509.5C 2207.92,514.247 2199.58,523.913 2197,538.5C 2192.47,542.47 2187.14,544.137 2181,543.5C 2168.46,544.21 2157.8,540.21 2149,531.5C 2147.86,528.938 2147.03,526.272 2146.5,523.5C 2147.83,521.167 2147.83,518.833 2146.5,516.5C 2156.93,501.119 2171.6,493.952 2190.5,495C 2196.53,497.75 2197.69,501.917 2194,507.5C 2188.98,512.093 2183.15,515.26 2176.5,517C 2170.19,518.661 2163.86,520.161 2157.5,521.5C 2156.6,524.56 2157.6,527.06 2160.5,529C 2169.11,533.186 2178.11,534.353 2187.5,532.5C 2192.63,516.201 2203.3,505.368 2219.5,500C 2228.33,499.305 2237,497.805 2245.5,495.5C 2251.65,496.951 2252.99,500.284 2249.5,505.5C 2245.65,506.206 2241.65,507.372 2237.5,509C 2233.68,510.641 2231.68,513.474 2231.5,517.5C 2236.03,517.733 2240.37,516.9 2244.5,515C 2248.48,512.097 2252.65,509.597 2257,507.5C 2259.99,507.571 2261.83,509.071 2262.5,512C 2255.92,526.254 2260.25,530.92 2275.5,526C 2282.24,522.598 2287.74,517.765 2292,511.5C 2293.88,504.515 2296.55,497.848 2300,491.5C 2301.41,490.219 2302.91,489.219 2304.5,488.5 Z"/></g>
<g><path style="opacity:1" fill="#000000" d="M 578.5,493.5 C 582.075,493.906 584.242,495.906 585,499.5C 588.324,517.111 591.324,534.778 594,552.5C 595.401,554.192 597.234,554.859 599.5,554.5C 600.469,550.392 602.136,546.559 604.5,543C 608.474,540.636 611.974,541.136 615,544.5C 618.942,558.929 614.775,570.262 602.5,578.5C 599.133,585.023 594.966,585.69 590,580.5C 584.555,557.056 580.222,533.389 577,509.5C 576.025,506.381 574.858,503.381 573.5,500.5C 573.497,496.798 575.164,494.465 578.5,493.5 Z"/></g>
<g><path style="opacity:1" fill="#000000" d="M 2392.5,500.5 C 2397.4,499.948 2400.73,501.948 2402.5,506.5C 2401.7,509.133 2400.03,510.967 2397.5,512C 2382.72,514.438 2373.22,522.938 2369,537.5C 2368.31,539.92 2368.81,542.087 2370.5,544C 2382.07,546.138 2391.23,542.305 2398,532.5C 2398.81,525.606 2400.48,518.939 2403,512.5C 2406.29,509.689 2409.29,510.022 2412,513.5C 2412.82,518.638 2412.32,523.638 2410.5,528.5C 2410.83,528.833 2411.17,529.167 2411.5,529.5C 2421.27,521.963 2432.27,518.796 2444.5,520C 2453.63,523.753 2457.46,530.586 2456,540.5C 2453.5,548.333 2448.33,553.5 2440.5,556C 2436.67,556.887 2432.84,557.721 2429,558.5C 2424.79,557.407 2423.46,554.74 2425,550.5C 2425.5,550 2426,549.5 2426.5,549C 2433.52,548.443 2439.68,545.943 2445,541.5C 2448.24,534.304 2446.07,530.304 2438.5,529.5C 2433.93,529.747 2429.59,530.914 2425.5,533C 2419.5,536.333 2413.5,539.667 2407.5,543C 2405.5,543.333 2403.5,543.667 2401.5,544C 2390.81,554.736 2378.48,557.403 2364.5,552C 2358.29,545.313 2357.12,537.813 2361,529.5C 2367.56,515.436 2378.06,505.769 2392.5,500.5 Z"/></g>
<g><path style="opacity:1" fill="#000000" d="M 517.5,543.5 C 520.579,543.26 523.579,543.593 526.5,544.5C 528.604,546.583 528.938,548.917 527.5,551.5C 515.498,553.66 506.331,559.993 500,570.5C 498.435,576.201 500.268,580.367 505.5,583C 508.456,583.989 511.456,584.822 514.5,585.5C 520.42,584.123 525.92,581.789 531,578.5C 534.18,579.014 536.014,580.847 536.5,584C 527.66,594.537 516.66,597.537 503.5,593C 487.792,584.517 485.292,573.017 496,558.5C 502.009,551.629 509.175,546.629 517.5,543.5 Z"/></g>
<g><path style="opacity:1" fill="#000000" d="M 550.5,548.5 C 554.497,547.668 557.164,549.168 558.5,553C 558.167,553.333 557.833,553.667 557.5,554C 570.54,561.657 571.874,570.99 561.5,582C 552.61,587.308 544.443,586.475 537,579.5C 531.69,564.793 536.19,554.46 550.5,548.5 Z"/></g>
<g><path style="opacity:1" fill="#000000" d="M 2154.5,549.5 C 2159.42,548.238 2162.09,550.071 2162.5,555C 2157.03,584.669 2151.2,614.169 2145,643.5C 2146.8,641.683 2148.97,640.516 2151.5,640C 2160.82,639.34 2169.49,636.84 2177.5,632.5C 2173.37,619.626 2176.04,608.459 2185.5,599C 2193.94,593.394 2201.11,594.56 2207,602.5C 2208.53,616.768 2203.53,628.101 2192,636.5C 2191.31,637.332 2191.48,637.998 2192.5,638.5C 2198.41,640.145 2203.74,638.978 2208.5,635C 2211,632.5 2213.5,630 2216,627.5C 2218.17,618.991 2221.5,610.991 2226,603.5C 2230.91,598.983 2234.74,599.649 2237.5,605.5C 2229.54,615.524 2225.21,627.024 2224.5,640C 2224.23,647.091 2227.23,649.425 2233.5,647C 2240.43,642.075 2245.93,635.908 2250,628.5C 2253.97,621.252 2257.13,613.752 2259.5,606C 2263.8,604.648 2266.46,606.148 2267.5,610.5C 2265.89,616.986 2263.89,623.319 2261.5,629.5C 2265.02,629.119 2268.36,628.119 2271.5,626.5C 2275.52,614.29 2282.19,603.79 2291.5,595C 2297.38,590.085 2303.71,589.085 2310.5,592C 2313.91,596.447 2314.41,601.281 2312,606.5C 2304.35,618.144 2294.18,626.977 2281.5,633C 2279.48,637.877 2280.81,641.543 2285.5,644C 2295.21,644.814 2303.88,642.147 2311.5,636C 2315.07,633.055 2318.4,629.889 2321.5,626.5C 2323.7,625.22 2325.87,625.22 2328,626.5C 2333.3,609.604 2339.97,593.271 2348,577.5C 2350.31,573.674 2353.47,572.674 2357.5,574.5C 2359.26,576.191 2359.76,578.191 2359,580.5C 2355.58,584.331 2352.91,588.665 2351,593.5C 2344.44,609.961 2338.44,626.628 2333,643.5C 2330.49,650.722 2325.99,656.222 2319.5,660C 2311.03,662.53 2308.69,659.863 2312.5,652C 2318.06,650.09 2321.73,646.256 2323.5,640.5C 2323.17,640.167 2322.83,639.833 2322.5,639.5C 2312.05,650.149 2299.39,654.983 2284.5,654C 2276.15,651.648 2271.32,646.148 2270,637.5C 2265.29,639.56 2260.46,639.894 2255.5,638.5C 2249.79,647.378 2242.13,653.878 2232.5,658C 2221.78,658.626 2215.95,653.46 2215,642.5C 2203.64,651.634 2192.48,651.634 2181.5,642.5C 2172.21,646.406 2162.54,648.906 2152.5,650C 2150.05,652.603 2147.22,653.103 2144,651.5C 2146.52,656.81 2144.85,660.476 2139,662.5C 2136.6,662.042 2134.94,660.708 2134,658.5C 2133.33,654.5 2133.33,650.5 2134,646.5C 2139.34,620.122 2144.84,593.789 2150.5,567.5C 2149.62,561.028 2150.95,555.028 2154.5,549.5 Z"/></g>
<g><path style="opacity:1" fill="#fefffe" d="M 549.5,559.5 C 551.762,562.401 554.596,564.734 558,566.5C 557.919,574.145 554.086,576.812 546.5,574.5C 545.104,573.148 544.437,571.481 544.5,569.5C 545.115,565.603 546.782,562.27 549.5,559.5 Z"/></g>
<g><path style="opacity:1" fill="#000000" d="M 2094.5,568.5 C 2098.76,567.454 2101.42,568.954 2102.5,573C 2097.3,588.61 2092.13,604.11 2087,619.5C 2099.05,614.769 2111.55,613.269 2124.5,615C 2127.36,617.132 2127.86,619.632 2126,622.5C 2124.93,623.191 2123.77,623.691 2122.5,624C 2107.83,622.96 2094,625.793 2081,632.5C 2078.55,637.907 2075.71,643.074 2072.5,648C 2068.22,650.477 2064.72,649.644 2062,645.5C 2052.85,654.147 2043.52,654.48 2034,646.5C 2030.85,641.39 2028.69,635.89 2027.5,630C 2024.14,629.663 2020.81,629.163 2017.5,628.5C 2012.81,634.014 2006.81,637.181 1999.5,638C 1990.88,639.204 1982.54,638.204 1974.5,635C 1967.03,627.418 1968.53,622.251 1979,619.5C 1980.71,619.439 1982.04,620.106 1983,621.5C 1983.8,623.533 1984.3,625.699 1984.5,628C 1989.17,628.667 1993.83,628.667 1998.5,628C 1995.5,627.667 1992.5,627.333 1989.5,627C 1986.51,623.136 1987.17,619.969 1991.5,617.5C 1985.55,611.913 1985.05,605.913 1990,599.5C 1997.22,589.97 2006.72,586.136 2018.5,588C 2024.89,589.727 2028.39,593.894 2029,600.5C 2029.96,604.572 2029.46,608.405 2027.5,612C 2024.65,612.944 2022.15,612.444 2020,610.5C 2019.98,606.107 2019.15,601.94 2017.5,598C 2008.34,596.748 2001.34,600.081 1996.5,608C 2001.83,611.333 2007.17,614.667 2012.5,618C 2017.88,618.672 2023.21,619.505 2028.5,620.5C 2030.39,611.548 2034.72,604.048 2041.5,598C 2049.79,592.907 2057.62,593.407 2065,599.5C 2069.65,608.836 2067.82,616.67 2059.5,623C 2053.12,627.184 2046.12,629.684 2038.5,630.5C 2038.93,641.369 2043.93,644.536 2053.5,640C 2064.85,630.47 2073.69,618.97 2080,605.5C 2084.87,593.111 2089.7,580.778 2094.5,568.5 Z"/></g>
<g><path style="opacity:1" fill="#000000" d="M 1862.5,595.5 C 1867.94,595.739 1869.94,598.406 1868.5,603.5C 1867.33,604.584 1866,605.417 1864.5,606C 1878.86,606.701 1893.19,607.701 1907.5,609C 1911.69,611.239 1912.36,614.239 1909.5,618C 1906.5,620 1903.5,620 1900.5,618C 1880.8,617.206 1861.13,615.873 1841.5,614C 1837.92,611.472 1837.58,608.472 1840.5,605C 1848.14,602.296 1855.47,599.129 1862.5,595.5 Z"/></g>
<g><path style="opacity:1" fill="#fefffe" d="M 2300.5,600.5 C 2301.55,600.351 2302.55,600.517 2303.5,601C 2299.04,607.792 2293.54,613.625 2287,618.5C 2288.07,615.034 2289.73,611.701 2292,608.5C 2294.73,605.601 2297.56,602.934 2300.5,600.5 Z"/></g>
<g><path style="opacity:1" fill="#fefffe" d="M 2049.5,604.5 C 2055.7,603.153 2058.2,605.487 2057,611.5C 2052.16,616.085 2046.5,619.085 2040,620.5C 2040.85,613.798 2044.02,608.465 2049.5,604.5 Z"/></g>
<g><path style="opacity:1" fill="#fefffe" d="M 2194.5,605.5 C 2195.5,605.5 2196.5,605.5 2197.5,605.5C 2197.93,614.718 2194.43,622.052 2187,627.5C 2185.18,622.605 2185.18,617.605 2187,612.5C 2188.77,609.228 2191.27,606.895 2194.5,605.5 Z"/></g>
<g><path style="opacity:1" fill="#000000" d="M 2052.5,658.5 C 2057.96,657.784 2061.46,660.117 2063,665.5C 2066.51,690.451 2060.51,712.784 2045,732.5C 2043.61,740.8 2042.95,749.133 2043,757.5C 2043.78,755.714 2044.95,754.214 2046.5,753C 2052.55,749.905 2058.88,747.571 2065.5,746C 2062.66,738.831 2063.5,731.998 2068,725.5C 2076.08,713.708 2087.25,708.208 2101.5,709C 2109.63,712.399 2112.13,718.233 2109,726.5C 2106.65,731.858 2103.15,736.358 2098.5,740C 2104.7,740.167 2106.87,743.001 2105,748.5C 2095.29,754.686 2084.96,756.353 2074,753.5C 2067.65,756.048 2061.15,758.214 2054.5,760C 2051.22,763.279 2047.89,766.613 2044.5,770C 2039.66,773.721 2035.83,772.888 2033,767.5C 2032.53,760.137 2032.53,752.803 2033,745.5C 2023.71,755.144 2012.38,760.811 1999,762.5C 1982.55,760.598 1976.22,751.598 1980,735.5C 1984.31,724.527 1991.48,716.027 2001.5,710C 2009.34,705.552 2017.68,702.385 2026.5,700.5C 2031.88,702.79 2032.55,705.957 2028.5,710C 2014.78,712.771 2003.28,719.271 1994,729.5C 1989.9,734.478 1988.23,740.145 1989,746.5C 1990.96,750.672 1994.29,752.672 1999,752.5C 2013.19,749.235 2024.86,741.902 2034,730.5C 2036.36,711.365 2039.69,692.365 2044,673.5C 2045.33,667.489 2048.16,662.489 2052.5,658.5 Z"/></g>
<g><path style="opacity:1" fill="#fefffe" d="M 2053.5,675.5 C 2054.7,686.812 2052.87,697.812 2048,708.5C 2048.99,697.401 2050.82,686.401 2053.5,675.5 Z"/></g>
<g><path style="opacity:1" fill="#fefffe" d="M 846.5,679.5 C 848.582,679.472 850.416,680.139 852,681.5C 853.093,685.216 853.593,689.05 853.5,693C 852.799,712.16 852.299,731.327 852,750.5C 848.147,754.222 845.147,753.556 843,748.5C 842.305,726.153 842.638,703.819 844,681.5C 844.995,680.934 845.828,680.267 846.5,679.5 Z"/></g>
<g><path style="opacity:1" fill="#000000" d="M 2190.5,685.5 C 2198.98,685.464 2201.65,689.298 2198.5,697C 2197.23,697.309 2196.07,697.809 2195,698.5C 2192.54,697.672 2190.04,696.672 2187.5,695.5C 2185.74,691.248 2186.74,687.914 2190.5,685.5 Z"/></g>
<g><path style="opacity:1" fill="#000000" d="M 2252.5,703.5 C 2258.75,704.423 2261.75,708.089 2261.5,714.5C 2260.53,717.464 2260.36,720.464 2261,723.5C 2266.74,717.082 2273.58,712.249 2281.5,709C 2294.05,707.189 2301.21,712.689 2303,725.5C 2303.67,732.833 2303.67,740.167 2303,747.5C 2302.89,752.753 2300.55,756.419 2296,758.5C 2294.49,757.743 2293.15,756.743 2292,755.5C 2298.36,711.405 2287.2,706.571 2258.5,741C 2251.71,744.106 2248.38,741.94 2248.5,734.5C 2249.18,728.101 2250.18,721.767 2251.5,715.5C 2245.31,713.834 2243.97,710.334 2247.5,705C 2249.38,704.802 2251.05,704.302 2252.5,703.5 Z"/></g>
<g><path style="opacity:1" fill="#000000" d="M 2210.5,712.5 C 2213.91,712.457 2217.24,712.957 2220.5,714C 2224.5,717 2224.5,720 2220.5,723C 2217.8,723.253 2215.13,723.253 2212.5,723C 2210.52,725.134 2209.18,727.634 2208.5,730.5C 2209,731.521 2209.67,731.688 2210.5,731C 2213.27,728.204 2216.43,726.037 2220,724.5C 2223.24,725.408 2225.58,727.408 2227,730.5C 2231.08,744.251 2230.08,757.584 2224,770.5C 2216.18,780.778 2207.18,782.111 2197,774.5C 2190.22,761.751 2192.05,750.251 2202.5,740C 2199.63,738.607 2198.3,736.274 2198.5,733C 2198.83,723.826 2202.83,716.992 2210.5,712.5 Z"/></g>
<g><path style="opacity:1" fill="#000000" d="M 2122.5,715.5 C 2130.42,715.403 2133.42,719.07 2131.5,726.5C 2145.75,745.325 2141.75,758.825 2119.5,767C 2108.11,769.61 2103.94,765.444 2107,754.5C 2112.35,748.641 2116.51,749.308 2119.5,756.5C 2124.65,754.518 2128.32,751.018 2130.5,746C 2129.86,743.755 2129.03,741.588 2128,739.5C 2124.03,733.719 2120.2,727.886 2116.5,722C 2117.35,718.653 2119.35,716.487 2122.5,715.5 Z"/></g>
<g><path style="opacity:1" fill="#fefffe" d="M 2092.5,718.5 C 2101.29,717.692 2102.79,720.692 2097,727.5C 2090.46,734.086 2082.96,738.919 2074.5,742C 2073.42,740.274 2073.26,738.441 2074,736.5C 2077.42,727.583 2083.58,721.583 2092.5,718.5 Z"/></g>
<g><path style="opacity:1" fill="#000000" d="M 2162.5,724.5 C 2164.83,724.247 2166.83,724.914 2168.5,726.5C 2170.17,736.323 2167.5,744.823 2160.5,752C 2154.15,754.399 2151.65,752.232 2153,745.5C 2157.49,740.368 2159.82,734.368 2160,727.5C 2161.04,726.627 2161.88,725.627 2162.5,724.5 Z"/></g>
<g><path style="opacity:1" fill="#fefffe" d="M 2217.5,737.5 C 2220.17,745.729 2220,754.062 2217,762.5C 2214.77,767.766 2210.94,769.933 2205.5,769C 2201.34,761.094 2202.51,753.927 2209,747.5C 2210.02,745.731 2210.19,744.064 2209.5,742.5C 2212.56,741.312 2215.23,739.646 2217.5,737.5 Z"/></g>
<g><path style="opacity:1" fill="#000000" d="M 629.5,742.5 C 658.852,742.148 688.185,742.648 717.5,744C 721.944,746.111 722.611,749.111 719.5,753C 627.177,751.176 535.177,755.842 443.5,767C 445.731,768.147 448.065,769.147 450.5,770C 453.164,774.513 451.831,777.346 446.5,778.5C 438.779,777.571 431.446,775.404 424.5,772C 421.431,767.675 422.098,764.008 426.5,761C 436.639,758.032 446.973,756.032 457.5,755C 514.858,749.033 572.192,744.866 629.5,742.5 Z"/></g>
<g><path style="opacity:1" fill="#fefffe" d="M 784.5,749.5 C 785.656,756.989 785.822,764.655 785,772.5C 781.921,764.881 781.754,757.214 784.5,749.5 Z"/></g>
<g><path style="opacity:1" fill="#fefffe" d="M 771.5,756.5 C 772.357,763.437 774.024,770.271 776.5,777C 774.112,777.303 771.945,778.137 770,779.5C 767.774,771.717 768.274,764.05 771.5,756.5 Z"/></g>
<g><path style="opacity:1" fill="#000000" d="M 926.5,767.5 C 927.8,769.223 928.467,771.39 928.5,774C 928.167,776.167 927.833,778.333 927.5,780.5C 923.415,779.245 920.415,776.745 918.5,773C 918.645,772.228 918.978,771.561 919.5,771C 921.925,769.787 924.259,768.621 926.5,767.5 Z"/></g>
<g><path style="opacity:1" fill="#000000" d="M 459.5,777.5 C 490.698,779.275 521.698,782.609 552.5,787.5C 555.016,791.773 553.85,794.773 549,796.5C 521.615,792.89 494.115,789.89 466.5,787.5C 460.889,786.059 457.722,788.059 457,793.5C 452.167,797.357 447.834,796.69 444,791.5C 441.339,786.723 442.172,782.89 446.5,780C 450.965,779.126 455.298,778.293 459.5,777.5 Z"/></g>
<g><path style="opacity:1" fill="#fefffe" d="M 844.5,777.5 C 850.179,777.85 852.513,780.85 851.5,786.5C 850.287,805.19 848.787,823.857 847,842.5C 845.829,843.893 844.329,844.727 842.5,845C 843.333,845.833 844.167,846.667 845,847.5C 845.195,853.564 845.861,859.564 847,865.5C 850.5,860.667 854,855.833 857.5,851C 861.74,849.461 864.407,850.794 865.5,855C 861.462,863.193 856.462,870.693 850.5,877.5C 850.33,881.833 848.164,884.499 844,885.5C 836.473,875.975 827.64,867.808 817.5,861C 815,859.182 813.334,856.848 812.5,854C 812.571,851.006 814.071,849.173 817,848.5C 823.235,852.227 829.068,856.56 834.5,861.5C 835.328,857.204 835.828,852.871 836,848.5C 837.236,846.462 839.069,845.295 841.5,845C 838.099,843.68 836.765,841.18 837.5,837.5C 839.11,818.509 840.61,799.509 842,780.5C 843.045,779.627 843.878,778.627 844.5,777.5 Z"/></g>
<g><path style="opacity:1" fill="#fefffe" d="M 780.5,790.5 C 785.347,792.3 786.68,795.633 784.5,800.5C 781.062,798.565 778.062,796.065 775.5,793C 777.653,792.901 779.319,792.067 780.5,790.5 Z"/></g>
<g><path style="opacity:1" fill="#000000" d="M 727.5,801.5 C 733.972,803.039 740.639,803.873 747.5,804C 751.064,806.855 751.064,809.855 747.5,813C 744.367,813.96 741.2,814.793 738,815.5C 734.606,814.277 731.106,813.61 727.5,813.5C 663.239,818.549 598.905,819.716 534.5,817C 504.344,815.23 474.178,813.73 444,812.5C 437.167,812.667 430.333,812.833 423.5,813C 418.769,816.757 415.769,815.757 414.5,810C 414.941,805.23 417.607,802.897 422.5,803C 436.5,802.333 450.5,802.333 464.5,803C 550.48,809.801 636.48,810.134 722.5,804C 724.653,803.901 726.319,803.067 727.5,801.5 Z"/></g>
<g><path style="opacity:1" fill="#000000" d="M 2354.5,801.5 C 2359.46,801.322 2363.3,803.322 2366,807.5C 2381.24,828.077 2397.24,848.077 2414,867.5C 2415.18,872.151 2413.51,875.151 2409,876.5C 2391.3,856.128 2374.3,835.128 2358,813.5C 2356.26,812.044 2354.42,810.711 2352.5,809.5C 2350.98,806.239 2351.65,803.573 2354.5,801.5 Z"/></g>
<g><path style="opacity:1" fill="#000000" d="M 2418.5,831.5 C 2424.36,830.52 2427.36,833.02 2427.5,839C 2426.92,841.458 2426.59,843.958 2426.5,846.5C 2428.1,864.813 2428.93,883.146 2429,901.5C 2428.8,904.692 2427.97,907.692 2426.5,910.5C 2422.68,913.391 2419.18,913.057 2416,909.5C 2410.12,899.566 2403.62,890.066 2396.5,881C 2394.67,879.833 2392.83,878.667 2391,877.5C 2386.35,884.494 2382.85,883.994 2380.5,876C 2380.4,872.196 2382.07,869.529 2385.5,868C 2390.11,866.993 2394.44,867.66 2398.5,870C 2407.11,877.05 2413.95,885.55 2419,895.5C 2418.56,878.001 2417.73,860.501 2416.5,843C 2416.67,839.833 2416.83,836.667 2417,833.5C 2417.72,832.956 2418.22,832.289 2418.5,831.5 Z"/></g>
<g><path style="opacity:1" fill="#000000" d="M 2519.5,894.5 C 2523.78,893.454 2526.45,894.954 2527.5,899C 2521.72,911.31 2518.38,924.143 2517.5,937.5C 2523.38,935.188 2529.38,934.521 2535.5,935.5C 2538.03,940.037 2536.7,943.203 2531.5,945C 2526.05,945.363 2520.71,946.363 2515.5,948C 2514.07,951.389 2512.9,954.889 2512,958.5C 2506.86,963.107 2503.36,962.107 2501.5,955.5C 2501.49,953.389 2502.15,951.555 2503.5,950C 2505.98,932.244 2510.48,914.744 2517,897.5C 2518.04,896.627 2518.88,895.627 2519.5,894.5 Z"/></g>
<g><path style="opacity:1" fill="#000000" d="M 707.5,898.5 C 710.148,898.738 711.982,900.072 713,902.5C 713.032,920.181 713.032,937.847 713,955.5C 714.986,951.423 718.153,949.923 722.5,951C 723.701,951.903 724.535,953.069 725,954.5C 725.333,957.5 725.667,960.5 726,963.5C 734.363,972.197 743.03,980.531 752,988.5C 754.234,993.035 752.901,996.035 748,997.5C 739.203,990.372 730.703,982.872 722.5,975C 720.179,975.887 717.679,976.72 715,977.5C 712.432,977.049 710.098,976.049 708,974.5C 704.493,986.343 696.826,993.677 685,996.5C 674.027,994.86 667.694,988.527 666,977.5C 665.632,988.735 661.132,997.902 652.5,1005C 642.625,1010.09 634.125,1008.26 627,999.5C 624.482,994.485 623.982,989.319 625.5,984C 623.833,983.333 622.167,983.333 620.5,984C 618.667,986.479 617.667,989.313 617.5,992.5C 618.722,1000.39 620.722,1008.05 623.5,1015.5C 623.296,1020.76 620.629,1022.93 615.5,1022C 613.006,1020.05 612.339,1017.72 613.5,1015C 608.007,1004.23 606.84,993.06 610,981.5C 612.375,975.806 616.709,973.139 623,973.5C 625.47,973.34 627.636,974.007 629.5,975.5C 634.698,967.647 641.865,964.647 651,966.5C 653.89,960.227 657.557,959.893 662,965.5C 663.275,967.717 664.275,970.051 665,972.5C 666.624,962.202 672.124,954.702 681.5,950C 692.568,947.103 697.402,951.27 696,962.5C 693.095,966.327 690.095,966.327 687,962.5C 686.517,961.552 686.351,960.552 686.5,959.5C 675.712,964.017 672.878,971.684 678,982.5C 683.244,987.885 688.244,987.552 693,981.5C 697.77,974.193 700.77,966.193 702,957.5C 702.182,938.812 702.849,920.145 704,901.5C 705.145,900.364 706.312,899.364 707.5,898.5 Z"/></g>
<g><path style="opacity:1" fill="#000000" d="M 1671.5,909.5 C 1675.19,909.861 1677.19,911.861 1677.5,915.5C 1674.2,947.994 1676.2,980.161 1683.5,1012C 1683.4,1018.77 1679.9,1022.27 1673,1022.5C 1668.79,1021.47 1667.46,1018.81 1669,1014.5C 1671.05,1013.73 1672.55,1012.4 1673.5,1010.5C 1672.81,1007.06 1671.81,1003.73 1670.5,1000.5C 1667.36,1006.81 1662.69,1011.64 1656.5,1015C 1651.6,1015.94 1646.93,1015.27 1642.5,1013C 1638.62,1009.29 1634.96,1005.46 1631.5,1001.5C 1620.49,1009.34 1608.16,1012.67 1594.5,1011.5C 1590.19,1025.32 1580.85,1032.49 1566.5,1033C 1559.26,1031.43 1554.1,1027.27 1551,1020.5C 1540.49,1028.15 1530.16,1027.81 1520,1019.5C 1510.8,1029.77 1499.46,1036.1 1486,1038.5C 1476.32,1037.49 1470.32,1032.16 1468,1022.5C 1461.61,995.953 1462.27,969.62 1470,943.5C 1473.33,939.5 1476.67,939.5 1480,943.5C 1480.67,947.167 1480.67,950.833 1480,954.5C 1478.43,955.614 1477.1,956.947 1476,958.5C 1472.27,979.651 1472.93,1000.65 1478,1021.5C 1481.08,1028.64 1486.25,1030.48 1493.5,1027C 1500.51,1023.66 1506.67,1019.16 1512,1013.5C 1510.34,1008.5 1508.34,1003.5 1506,998.5C 1504.07,993.151 1504.07,987.818 1506,982.5C 1509.82,978.279 1514.32,977.446 1519.5,980C 1528.92,986.608 1531.76,995.442 1528,1006.5C 1524.56,1010.82 1525.73,1013.66 1531.5,1015C 1539.3,1017.35 1545.14,1014.85 1549,1007.5C 1549.37,1001.8 1550.03,996.13 1551,990.5C 1553.15,988.556 1555.65,988.056 1558.5,989C 1559.72,990.438 1560.39,992.105 1560.5,994C 1559.16,1001.86 1559.32,1009.69 1561,1017.5C 1564.86,1024.01 1570.02,1025.17 1576.5,1021C 1584.11,1014.84 1587.45,1006.84 1586.5,997C 1586.36,992.484 1586.03,987.984 1585.5,983.5C 1585.51,978.001 1588.18,976.168 1593.5,978C 1594,978.5 1594.5,979 1595,979.5C 1597.06,986.596 1597.89,993.763 1597.5,1001C 1608.56,1002.28 1618.39,999.445 1627,992.5C 1624.63,982.846 1622.8,973.012 1621.5,963C 1621.58,949.213 1627.91,944.546 1640.5,949C 1649.49,957.433 1651.99,967.6 1648,979.5C 1645.5,984.838 1642.84,989.838 1640,994.5C 1642.08,998.579 1644.91,1002.08 1648.5,1005C 1652.58,1006.29 1655.75,1005.13 1658,1001.5C 1661.11,996.179 1663.44,990.512 1665,984.5C 1666.07,983.809 1667.23,983.309 1668.5,983C 1664.7,959.572 1664.53,936.072 1668,912.5C 1669.15,911.364 1670.31,910.364 1671.5,909.5 Z"/></g>
<g><path style="opacity:1" fill="#000000" d="M 2438.5,914.5 C 2441.36,914.055 2443.86,914.722 2446,916.5C 2446.18,922.228 2445.85,927.894 2445,933.5C 2447.73,927.437 2451.9,922.603 2457.5,919C 2462.38,917.859 2465.55,919.692 2467,924.5C 2467.33,927.833 2467.67,931.167 2468,934.5C 2471.8,927.371 2477.46,922.371 2485,919.5C 2491.13,921.391 2492.63,925.058 2489.5,930.5C 2491.82,931.652 2493.16,933.485 2493.5,936C 2492.59,947.572 2486.93,955.905 2476.5,961C 2471.27,961.119 2466.1,961.286 2461,961.5C 2456.6,961.262 2454.43,958.928 2454.5,954.5C 2456.14,947.56 2456.97,940.56 2457,933.5C 2450.94,941.897 2445.27,950.563 2440,959.5C 2434.67,962.749 2431.17,961.415 2429.5,955.5C 2432.04,941.666 2435.04,927.999 2438.5,914.5 Z"/></g>
<g><path style="opacity:1" fill="#000000" d="M 420.5,926.5 C 423.97,925.875 426.804,926.875 429,929.5C 440.067,954.038 447.067,979.704 450,1006.5C 462.935,999.248 476.101,998.748 489.5,1005C 500.612,1012.42 503.612,1022.25 498.5,1034.5C 501.241,1034.98 503.574,1033.98 505.5,1031.5C 500.333,1016.98 504,1005.15 516.5,996C 531.18,990.764 537.68,995.93 536,1011.5C 533.144,1019.69 528.644,1026.86 522.5,1033C 530.822,1035.2 538.655,1034.04 546,1029.5C 550.85,1031.23 552.016,1034.23 549.5,1038.5C 537.672,1046 525.672,1046.34 513.5,1039.5C 505.76,1045.03 497.26,1047.36 488,1046.5C 477.218,1054.04 465.718,1055.38 453.5,1050.5C 450.188,1056.45 446.688,1056.79 443,1051.5C 442.058,1028.69 439.725,1006.02 436,983.5C 433.083,968.416 428.75,953.75 423,939.5C 418.712,937.074 417.378,933.407 419,928.5C 419.717,927.956 420.217,927.289 420.5,926.5 Z"/></g>
<g><path style="opacity:1" fill="#000000" d="M 577.5,933.5 C 580.652,932.959 583.152,933.959 585,936.5C 584.609,962.868 592.109,986.702 607.5,1008C 606.301,1012.6 603.634,1013.93 599.5,1012C 595.555,1008.05 592.389,1003.55 590,998.5C 588.416,1007.58 585.416,1016.25 581,1024.5C 571.184,1036.41 560.851,1037.08 550,1026.5C 544.851,1017.33 545.518,1008.67 552,1000.5C 555.935,994.869 561.269,991.536 568,990.5C 573.632,990.458 575.966,993.124 575,998.5C 566.545,999.269 560.545,1003.6 557,1011.5C 555.376,1018.26 557.876,1022.59 564.5,1024.5C 570.173,1022.33 574.006,1018.33 576,1012.5C 578.304,1005.01 579.637,997.342 580,989.5C 580.652,987.277 582.152,986.11 584.5,986C 577.622,970.568 574.456,954.402 575,937.5C 575.48,935.867 576.313,934.534 577.5,933.5 Z"/></g>
<g><path style="opacity:1" fill="#000000" d="M 1199.5,933.5 C 1202.37,933.085 1204.53,934.085 1206,936.5C 1206.5,963.831 1206.67,991.165 1206.5,1018.5C 1207.82,1018.33 1208.99,1018.66 1210,1019.5C 1222.09,1010.13 1235.59,1006.97 1250.5,1010C 1265.27,1017.31 1270.11,1028.81 1265,1044.5C 1256.67,1061.25 1243.17,1067.75 1224.5,1064C 1210.38,1060.7 1200.21,1052.53 1194,1039.5C 1192.61,1033.09 1193.77,1027.26 1197.5,1022C 1196.35,993.53 1196.18,965.03 1197,936.5C 1198.04,935.627 1198.88,934.627 1199.5,933.5 Z"/></g>
<g><path style="opacity:1" fill="#fefffe" d="M 2479.5,934.5 C 2480.5,934.5 2481.5,934.5 2482.5,934.5C 2482.99,940.78 2480.82,945.78 2476,949.5C 2475.55,947.481 2474.72,945.648 2473.5,944C 2476.15,941.198 2478.15,938.032 2479.5,934.5 Z"/></g>
<g><path style="opacity:1" fill="#fefffe" d="M 1632.5,956.5 C 1635.43,957.591 1637.59,959.591 1639,962.5C 1640.41,969.375 1639.24,975.708 1635.5,981.5C 1632.2,973.398 1631.2,965.065 1632.5,956.5 Z"/></g>
<g><path style="opacity:1" fill="#fefffe" d="M 654.5,974.5 C 656.335,983.379 653.669,990.879 646.5,997C 639.644,999.337 635.644,996.837 634.5,989.5C 635.721,983.785 638.721,979.285 643.5,976C 646.035,975.383 648.368,975.883 650.5,977.5C 652.261,976.965 653.594,975.965 654.5,974.5 Z"/></g>
<g><path style="opacity:1" fill="#fefffe" d="M 1514.5,989.5 C 1516.75,989.916 1518.25,991.249 1519,993.5C 1519.82,996.227 1519.65,998.894 1518.5,1001.5C 1516.17,997.85 1514.84,993.85 1514.5,989.5 Z"/></g>
<g><path style="opacity:1" fill="#000000" d="M 2412.5,989.5 C 2418.66,988.331 2423.49,990.331 2427,995.5C 2434.39,1009.81 2432.56,1022.64 2421.5,1034C 2426.55,1034.22 2431.55,1034.72 2436.5,1035.5C 2440.88,1030.78 2446.22,1027.78 2452.5,1026.5C 2455.11,1026.56 2457.28,1027.56 2459,1029.5C 2458.28,1034.21 2457.44,1039.05 2456.5,1044C 2457.08,1045.71 2458.24,1046.88 2460,1047.5C 2464.55,1043.29 2469.38,1039.45 2474.5,1036C 2479.98,1033.02 2485.48,1032.85 2491,1035.5C 2494.85,1040.6 2493.85,1044.26 2488,1046.5C 2486.14,1044.59 2483.98,1043.76 2481.5,1044C 2473.36,1049.48 2465.53,1055.31 2458,1061.5C 2454.76,1060.59 2452.42,1058.59 2451,1055.5C 2444.89,1062.92 2438.56,1063.25 2432,1056.5C 2430.08,1052.69 2430.24,1049.03 2432.5,1045.5C 2426.46,1044.19 2420.46,1044.36 2414.5,1046C 2413.07,1046.47 2411.9,1047.3 2411,1048.5C 2410.65,1055.94 2409.65,1063.27 2408,1070.5C 2402.98,1074.6 2399.48,1073.44 2397.5,1067C 2400.04,1062.38 2400.7,1057.54 2399.5,1052.5C 2400.56,1038.83 2401.72,1025.16 2403,1011.5C 2403.37,1002.86 2406.54,995.529 2412.5,989.5 Z"/></g>
<g><path style="opacity:1" fill="#000000" d="M 1285.5,998.5 C 1291.72,996.904 1295.72,999.07 1297.5,1005C 1297.36,1007.15 1296.36,1008.82 1294.5,1010C 1289.15,1012.89 1283.65,1015.39 1278,1017.5C 1277.17,1022.59 1277.51,1027.59 1279,1032.5C 1283.16,1036.15 1287.33,1035.98 1291.5,1032C 1298.88,1024.74 1304.38,1016.24 1308,1006.5C 1310.15,1004.56 1312.65,1004.06 1315.5,1005C 1316.57,1006.31 1317.24,1007.81 1317.5,1009.5C 1314.57,1023.1 1316.74,1035.77 1324,1047.5C 1327.42,1048.62 1329.92,1050.79 1331.5,1054C 1331.01,1057.15 1329.18,1058.99 1326,1059.5C 1317.74,1056.67 1312.4,1051 1310,1042.5C 1308.66,1038.44 1307.33,1034.44 1306,1030.5C 1301.47,1038.04 1294.97,1042.87 1286.5,1045C 1273.33,1044.48 1266.99,1037.48 1267.5,1024C 1267.11,1010.9 1273.11,1002.4 1285.5,998.5 Z"/></g>
<g><path style="opacity:1" fill="#000000" d="M 1404.5,998.5 C 1411.53,997.342 1415.86,1000.18 1417.5,1007C 1416.33,1011.17 1414.5,1015 1412,1018.5C 1406.28,1023.61 1400.11,1028.11 1393.5,1032C 1396.54,1034.96 1400.2,1036.46 1404.5,1036.5C 1421.26,1033.58 1434.93,1025.42 1445.5,1012C 1450.94,1010.13 1453.44,1011.96 1453,1017.5C 1439.78,1035.86 1421.95,1045.36 1399.5,1046C 1392.44,1045.27 1387.28,1041.77 1384,1035.5C 1379.66,1037.17 1375.16,1038.34 1370.5,1039C 1371.32,1041.92 1370.82,1044.76 1369,1047.5C 1362.48,1056.04 1354.31,1058.54 1344.5,1055C 1339.01,1050.56 1337.68,1045.23 1340.5,1039C 1346.21,1037.38 1349.04,1039.54 1349,1045.5C 1351.79,1047.83 1354.62,1047.66 1357.5,1045C 1358.83,1043.67 1360.17,1042.33 1361.5,1041C 1354.91,1038.47 1348.24,1036.14 1341.5,1034C 1333.07,1030.93 1329.9,1025.09 1332,1016.5C 1336.65,1009.51 1342.82,1004.34 1350.5,1001C 1355.16,999.447 1358.5,1000.78 1360.5,1005C 1359.81,1006.07 1359.31,1007.23 1359,1008.5C 1354.73,1010.48 1350.56,1012.65 1346.5,1015C 1339.39,1020.02 1340.06,1023.68 1348.5,1026C 1353.15,1027.12 1357.65,1028.62 1362,1030.5C 1368.9,1029.2 1375.73,1027.53 1382.5,1025.5C 1385.49,1012.85 1392.83,1003.85 1404.5,998.5 Z"/></g>
<g><path style="opacity:1" fill="#fefffe" d="M 2416.5,999.5 C 2424.19,1010.64 2422.69,1020.64 2412,1029.5C 2411.5,1019.17 2413,1009.17 2416.5,999.5 Z"/></g>
<g><path style="opacity:1" fill="#fefffe" d="M 523.5,1003.5 C 524.5,1003.5 525.5,1003.5 526.5,1003.5C 525.941,1012.95 521.941,1020.62 514.5,1026.5C 511.597,1016.62 514.597,1008.96 523.5,1003.5 Z"/></g>
<g><path style="opacity:1" fill="#fefffe" d="M 466.5,1010.5 C 475.22,1009.22 482.72,1011.55 489,1017.5C 492.472,1024.45 491.306,1030.61 485.5,1036C 482.329,1036.51 479.996,1038.17 478.5,1041C 472.663,1043.49 466.663,1043.99 460.5,1042.5C 461.272,1039.1 459.772,1037.1 456,1036.5C 454.893,1036.59 453.893,1036.92 453,1037.5C 450.528,1030.5 451.028,1023.84 454.5,1017.5C 454.291,1016.91 453.957,1016.41 453.5,1016C 457.707,1013.66 462.041,1011.83 466.5,1010.5 Z"/></g>
<g><path style="opacity:1" fill="#fefffe" d="M 1403.5,1010.5 C 1404.53,1010.9 1404.69,1011.56 1404,1012.5C 1402.18,1014.4 1400.18,1016.07 1398,1017.5C 1398.8,1014.51 1400.64,1012.18 1403.5,1010.5 Z"/></g>
<g><path style="opacity:1" fill="#fefffe" d="M 1234.5,1018.5 C 1251.11,1016.94 1258.28,1024.28 1256,1040.5C 1249.46,1052.68 1239.29,1057.18 1225.5,1054C 1216.14,1051.25 1208.97,1045.75 1204,1037.5C 1203.51,1035.87 1203.34,1034.2 1203.5,1032.5C 1204.87,1032.66 1206.21,1032.49 1207.5,1032C 1216.31,1026.93 1225.31,1022.43 1234.5,1018.5 Z"/></g>
<g><path style="opacity:1" fill="#000000" d="M 1755.5,1029.5 C 1760.1,1028.38 1762.94,1030.05 1764,1034.5C 1762.89,1067.17 1762.22,1099.83 1762,1132.5C 1758.15,1137.76 1754.48,1137.76 1751,1132.5C 1748.92,1137.57 1745.76,1141.73 1741.5,1145C 1736.88,1146.3 1733.05,1145.13 1730,1141.5C 1727.01,1136.18 1725.01,1130.52 1724,1124.5C 1717.5,1137.67 1707.67,1147.5 1694.5,1154C 1690.83,1154.67 1687.17,1154.67 1683.5,1154C 1681.71,1153.22 1680.21,1152.05 1679,1150.5C 1668.96,1157 1660.63,1155.33 1654,1145.5C 1651.95,1136.96 1650.62,1128.3 1650,1119.5C 1649.44,1118.98 1648.77,1118.64 1648,1118.5C 1645.61,1119.28 1643.44,1120.44 1641.5,1122C 1634.47,1129.36 1627.14,1136.36 1619.5,1143C 1613.5,1144.67 1609.67,1142.51 1608,1136.5C 1604.14,1146.72 1597.98,1155.22 1589.5,1162C 1582.6,1165.75 1576.1,1165.25 1570,1160.5C 1564.56,1167.54 1557.39,1170.04 1548.5,1168C 1541.65,1165.32 1536.99,1160.49 1534.5,1153.5C 1525.87,1164.65 1514.53,1169.48 1500.5,1168C 1496.84,1167 1493.67,1165.16 1491,1162.5C 1478.48,1171.09 1465.64,1171.59 1452.5,1164C 1449.07,1161.24 1446.41,1157.91 1444.5,1154C 1437.16,1154.22 1431.32,1151.39 1427,1145.5C 1424.6,1139.15 1426.77,1136.65 1433.5,1138C 1435.67,1141.37 1438.67,1143.2 1442.5,1143.5C 1443.28,1130.23 1449.28,1120.06 1460.5,1113C 1467.6,1107.92 1474.1,1108.42 1480,1114.5C 1481.42,1117.03 1481.75,1119.7 1481,1122.5C 1476.52,1135.65 1467.86,1144.98 1455,1150.5C 1456.02,1154.19 1458.52,1156.69 1462.5,1158C 1471.09,1160.52 1479.09,1159.19 1486.5,1154C 1486.62,1146.3 1489.12,1139.47 1494,1133.5C 1500.37,1124.82 1508.71,1119.16 1519,1116.5C 1523.22,1116.89 1525.72,1119.22 1526.5,1123.5C 1524.85,1128.33 1521.69,1129.67 1517,1127.5C 1509.6,1131.56 1503.44,1137.06 1498.5,1144C 1505.62,1147.45 1505.95,1151.45 1499.5,1156C 1503.14,1158.41 1507.14,1159.07 1511.5,1158C 1516.59,1156.04 1521.09,1153.21 1525,1149.5C 1528.62,1145.09 1532.12,1140.59 1535.5,1136C 1537.77,1135.24 1539.94,1135.41 1542,1136.5C 1542.9,1142.61 1544.23,1148.61 1546,1154.5C 1548.95,1158.28 1552.79,1159.44 1557.5,1158C 1560.53,1156.82 1563.2,1155.16 1565.5,1153C 1561.92,1142.07 1564.92,1133.4 1574.5,1127C 1577.74,1125.03 1581.24,1123.87 1585,1123.5C 1592.13,1124.4 1594.79,1128.4 1593,1135.5C 1588.88,1138.59 1585.55,1137.93 1583,1133.5C 1573.55,1138.48 1571.71,1145.31 1577.5,1154C 1581.79,1155.2 1585.29,1154.03 1588,1150.5C 1595.75,1141.26 1600.42,1130.6 1602,1118.5C 1604.33,1117.23 1605.5,1115.23 1605.5,1112.5C 1605.07,1094.92 1603.73,1077.42 1601.5,1060C 1601.74,1056.93 1603.4,1055.43 1606.5,1055.5C 1609.89,1055.89 1611.73,1057.89 1612,1061.5C 1613.57,1084.88 1615.41,1108.21 1617.5,1131.5C 1624.89,1123.64 1632.89,1116.47 1641.5,1110C 1651.09,1105.77 1657.26,1108.61 1660,1118.5C 1660.61,1125.91 1661.61,1133.24 1663,1140.5C 1664.03,1143.88 1666.2,1145.04 1669.5,1144C 1674.85,1142.92 1676.19,1139.92 1673.5,1135C 1673.78,1122.78 1678.78,1113.11 1688.5,1106C 1700.65,1102.83 1705.82,1107.33 1704,1119.5C 1700.24,1128.42 1695.08,1136.42 1688.5,1143.5C 1689.72,1144.61 1691.06,1144.78 1692.5,1144C 1700.62,1139.55 1707.12,1133.38 1712,1125.5C 1715.78,1118.82 1718.78,1111.82 1721,1104.5C 1721.24,1096.4 1722.24,1088.4 1724,1080.5C 1726.79,1074.38 1730.96,1069.55 1736.5,1066C 1740.63,1065.15 1744.63,1065.48 1748.5,1067C 1750.05,1068.21 1751.22,1069.71 1752,1071.5C 1752.17,1062.33 1753.01,1053.33 1754.5,1044.5C 1754.41,1041.14 1754.08,1037.8 1753.5,1034.5C 1753.9,1032.7 1754.57,1031.03 1755.5,1029.5 Z"/></g>
<g><path style="opacity:1" fill="#fefffe" d="M 2445.5,1040.5 C 2446.3,1044.26 2445.13,1047.59 2442,1050.5C 2442.83,1047.15 2444,1043.82 2445.5,1040.5 Z"/></g>
<g><path style="opacity:1" fill="#000000" d="M 921.5,1046.5 C 922.163,1048.64 922.497,1050.97 922.5,1053.5C 921.861,1063.83 921.361,1074.16 921,1084.5C 920.345,1071.82 920.512,1059.15 921.5,1046.5 Z"/></g>
<g><path style="opacity:1" fill="#fefffe" d="M 1739.5,1075.5 C 1740.5,1075.5 1741.5,1075.5 1742.5,1075.5C 1741.42,1080.09 1743.08,1083.09 1747.5,1084.5C 1748.75,1083.96 1749.91,1083.29 1751,1082.5C 1750.2,1094.97 1748.2,1107.3 1745,1119.5C 1743.63,1125.28 1741.3,1130.62 1738,1135.5C 1731.73,1119.32 1730.06,1102.65 1733,1085.5C 1734.42,1081.66 1736.58,1078.33 1739.5,1075.5 Z"/></g>
<g><path style="opacity:1" fill="#000000" d="M 2601.5,1084.5 C 2605.49,1084.49 2607.49,1086.49 2607.5,1090.5C 2605.31,1099.29 2603.31,1108.12 2601.5,1117C 2603.38,1118.86 2605.54,1120.36 2608,1121.5C 2610.15,1119.56 2612.65,1119.06 2615.5,1120C 2618.2,1123.27 2617.86,1126.27 2614.5,1129C 2609.95,1132 2605.45,1131.83 2601,1128.5C 2599.85,1136.85 2598.51,1145.18 2597,1153.5C 2594.67,1156.79 2591.83,1157.29 2588.5,1155C 2587.9,1153.94 2587.57,1152.77 2587.5,1151.5C 2588.92,1143.21 2589.92,1134.88 2590.5,1126.5C 2588.61,1126.7 2587.11,1126.04 2586,1124.5C 2585.07,1120.76 2585.57,1117.26 2587.5,1114C 2589.02,1112.99 2590.69,1112.49 2592.5,1112.5C 2593.88,1104.08 2595.72,1095.75 2598,1087.5C 2599.15,1086.36 2600.31,1085.36 2601.5,1084.5 Z"/></g>
<g><path style="opacity:1" fill="#000000" d="M 2510.5,1088.5 C 2512.94,1088.32 2515.1,1088.98 2517,1090.5C 2517.12,1097.85 2516.62,1105.19 2515.5,1112.5C 2515.83,1114.5 2516.17,1116.5 2516.5,1118.5C 2523.78,1117.1 2531.11,1115.94 2538.5,1115C 2541.65,1108.52 2546.65,1104.18 2553.5,1102C 2556.17,1101.33 2558.83,1101.33 2561.5,1102C 2562.95,1105.12 2565.12,1107.62 2568,1109.5C 2572.62,1123.45 2568.79,1134.61 2556.5,1143C 2541.28,1146.94 2534.61,1141.11 2536.5,1125.5C 2529.46,1126.25 2522.46,1127.25 2515.5,1128.5C 2515.67,1133.84 2515.5,1139.18 2515,1144.5C 2512.69,1149.33 2509.36,1150.33 2505,1147.5C 2505.16,1142.85 2505.16,1138.18 2505,1133.5C 2503.21,1132.22 2502.05,1130.56 2501.5,1128.5C 2502.66,1125.5 2503.83,1122.5 2505,1119.5C 2505.42,1110.44 2506.42,1101.44 2508,1092.5C 2508.66,1091.02 2509.5,1089.68 2510.5,1088.5 Z"/></g>
<g><path style="opacity:1" fill="#fefffe" d="M 776.5,1089.5 C 779.393,1090.52 782.226,1090.52 785,1089.5C 785.833,1140.17 785.667,1190.84 784.5,1241.5C 782.025,1240.31 779.691,1240.65 777.5,1242.5C 775.293,1191.51 774.96,1140.51 776.5,1089.5 Z"/></g>
<g><path style="opacity:1" fill="#000000" d="M 2695.5,1092.5 C 2705.99,1092.49 2710.82,1097.83 2710,1108.5C 2715.54,1101.28 2722.2,1099.61 2730,1103.5C 2732.15,1108.33 2731.81,1112.99 2729,1117.5C 2724.82,1123.02 2719.32,1126.68 2712.5,1128.5C 2714.63,1129.6 2716.8,1130.6 2719,1131.5C 2721.18,1136.4 2719.52,1139.06 2714,1139.5C 2706.74,1138.74 2702.57,1134.74 2701.5,1127.5C 2700,1126.92 2698.67,1126.08 2697.5,1125C 2692.61,1125.51 2687.78,1125.34 2683,1124.5C 2675.5,1141.17 2668.83,1158.17 2663,1175.5C 2658.62,1179.57 2655.45,1178.73 2653.5,1173C 2659.59,1154.88 2663.76,1136.38 2666,1117.5C 2662.22,1122.72 2659.22,1128.39 2657,1134.5C 2650.12,1154.48 2642.45,1174.15 2634,1193.5C 2626.93,1196.61 2624.27,1194.27 2626,1186.5C 2633.89,1167.49 2641.39,1148.32 2648.5,1129C 2634.49,1130.96 2622.66,1126.12 2613,1114.5C 2610.74,1108.42 2612.91,1105.92 2619.5,1107C 2624.12,1111.97 2629.45,1115.97 2635.5,1119C 2639.48,1119.72 2643.31,1119.22 2647,1117.5C 2649.46,1117.89 2651.13,1119.22 2652,1121.5C 2654.05,1116.79 2656.88,1112.62 2660.5,1109C 2662.24,1108.35 2663.9,1108.52 2665.5,1109.5C 2666.17,1103.98 2669.17,1101.82 2674.5,1103C 2676.89,1104.95 2678.39,1107.45 2679,1110.5C 2682.98,1103.03 2688.48,1097.03 2695.5,1092.5 Z"/></g>
<g><path style="opacity:1" fill="#fefffe" d="M 2697.5,1102.5 C 2700.28,1106.3 2699.62,1109.8 2695.5,1113C 2693.35,1114.41 2691.02,1115.24 2688.5,1115.5C 2688.61,1113.22 2689.44,1111.22 2691,1109.5C 2693.37,1107.3 2695.54,1104.96 2697.5,1102.5 Z"/></g>
<g><path style="opacity:1" fill="#000000" d="M 2408.5,1104.5 C 2416.75,1103.26 2420.75,1106.76 2420.5,1115C 2418.88,1127.58 2412.55,1136.92 2401.5,1143C 2398.08,1143.89 2394.92,1143.39 2392,1141.5C 2388.69,1152.67 2386.03,1164 2384,1175.5C 2381,1179.5 2378,1179.5 2375,1175.5C 2374.83,1173.83 2374.67,1172.17 2374.5,1170.5C 2376.08,1160.08 2378.08,1149.75 2380.5,1139.5C 2378.37,1133.76 2380.37,1130.42 2386.5,1129.5C 2391.31,1118.83 2398.65,1110.49 2408.5,1104.5 Z"/></g>
<g><path style="opacity:1" fill="#000000" d="M 2466.5,1108.5 C 2469.52,1108.34 2472.52,1108.5 2475.5,1109C 2477.4,1110.81 2477.9,1112.97 2477,1115.5C 2471.64,1117.33 2466.64,1119.99 2462,1123.5C 2458.6,1128.03 2456.6,1133.03 2456,1138.5C 2457.47,1140.15 2459.3,1141.15 2461.5,1141.5C 2470.04,1139.73 2476.7,1135.23 2481.5,1128C 2479.63,1119.88 2482.63,1117.55 2490.5,1121C 2491.85,1122.57 2492.51,1124.41 2492.5,1126.5C 2487.29,1141.04 2476.95,1149.37 2461.5,1151.5C 2446.29,1148.25 2442.29,1139.75 2449.5,1126C 2439.9,1125.26 2434.4,1129.76 2433,1139.5C 2432.38,1145.31 2432.71,1150.97 2434,1156.5C 2432.17,1160.68 2429.34,1161.85 2425.5,1160C 2424.11,1158.83 2423.27,1157.33 2423,1155.5C 2421,1143.48 2423.34,1132.48 2430,1122.5C 2437.09,1116.19 2445.26,1114.19 2454.5,1116.5C 2458.27,1113.38 2462.27,1110.72 2466.5,1108.5 Z"/></g>
<g><path style="opacity:1" fill="#fefffe" d="M 2554.5,1111.5 C 2556.15,1112.71 2557.82,1114.05 2559.5,1115.5C 2560.93,1121.06 2559.76,1126.06 2556,1130.5C 2552.01,1135.52 2548.51,1135.52 2545.5,1130.5C 2546.06,1128.18 2546.56,1125.85 2547,1123.5C 2550.21,1121.99 2551.37,1119.66 2550.5,1116.5C 2551.51,1114.5 2552.84,1112.83 2554.5,1111.5 Z"/></g>
<g><path style="opacity:1" fill="#000000" d="M 1409.5,1113.5 C 1419.5,1112.65 1425.83,1117.15 1428.5,1127C 1426.31,1132.4 1423.15,1133.24 1419,1129.5C 1418.09,1125.23 1415.59,1123.4 1411.5,1124C 1397.72,1135.74 1392.55,1150.58 1396,1168.5C 1396.56,1172.17 1397.89,1175.51 1400,1178.5C 1402.15,1176.56 1404.65,1176.06 1407.5,1177C 1408.57,1178.31 1409.24,1179.81 1409.5,1181.5C 1406.46,1189.03 1401.46,1190.86 1394.5,1187C 1388.54,1180.37 1385.38,1172.54 1385,1163.5C 1383.91,1145.09 1390.08,1129.59 1403.5,1117C 1405.43,1115.54 1407.43,1114.37 1409.5,1113.5 Z"/></g>
<g><path style="opacity:1" fill="#fefffe" d="M 1691.5,1115.5 C 1692.5,1115.5 1693.5,1115.5 1694.5,1115.5C 1692.3,1122.22 1688.8,1128.22 1684,1133.5C 1684.45,1126.65 1686.95,1120.65 1691.5,1115.5 Z"/></g>
<g><path style="opacity:1" fill="#fefffe" d="M 2408.5,1115.5 C 2409.5,1115.47 2410.16,1115.97 2410.5,1117C 2409.49,1121.52 2407.33,1125.35 2404,1128.5C 2403.36,1127.03 2402.53,1125.7 2401.5,1124.5C 2403.48,1121.2 2405.81,1118.2 2408.5,1115.5 Z"/></g>
<g><path style="opacity:1" fill="#fefffe" d="M 1469.5,1119.5 C 1470.5,1119.47 1471.16,1119.97 1471.5,1121C 1467.74,1129.76 1461.57,1136.26 1453,1140.5C 1454.01,1133.35 1457.51,1127.51 1463.5,1123C 1465.73,1122.06 1467.73,1120.89 1469.5,1119.5 Z"/></g>
<g><path style="opacity:1" fill="#000000" d="M 2552.5,1175.5 C 2558.07,1176.11 2560.4,1179.27 2559.5,1185C 2557.14,1204.3 2554.31,1223.47 2551,1242.5C 2555.25,1241.5 2558.25,1243.17 2560,1247.5C 2561.33,1254.83 2562.67,1262.17 2564,1269.5C 2565.77,1271.42 2567.94,1271.92 2570.5,1271C 2573.5,1269.17 2576.5,1267.33 2579.5,1265.5C 2582.12,1256.26 2586.78,1248.26 2593.5,1241.5C 2597.14,1237.92 2600.81,1237.76 2604.5,1241C 2621.71,1241.56 2625.21,1248.73 2615,1262.5C 2608.63,1270.02 2600.63,1274.68 2591,1276.5C 2588.47,1276.43 2586.14,1275.77 2584,1274.5C 2577.79,1279.9 2570.62,1282.07 2562.5,1281C 2558.67,1279.83 2556.17,1277.33 2555,1273.5C 2553.34,1267.57 2552.01,1261.57 2551,1255.5C 2549.65,1259.51 2546.99,1262.18 2543,1263.5C 2540.54,1263.11 2538.87,1261.78 2538,1259.5C 2541.67,1236.33 2545.5,1213.16 2549.5,1190C 2546.71,1187.79 2545.88,1184.96 2547,1181.5C 2548.36,1178.98 2550.19,1176.98 2552.5,1175.5 Z"/></g>
<g><path style="opacity:1" fill="#000000" d="M 2502.5,1204.5 C 2508.16,1203.24 2511.99,1205.24 2514,1210.5C 2515.31,1223.48 2515.81,1236.48 2515.5,1249.5C 2516.81,1248.69 2517.98,1247.69 2519,1246.5C 2521.71,1241.58 2524.54,1236.75 2527.5,1232C 2531.74,1230.46 2534.41,1231.79 2535.5,1236C 2532.68,1243.99 2528.34,1250.99 2522.5,1257C 2519.38,1258.64 2516.21,1260.14 2513,1261.5C 2511.93,1270.17 2510.1,1278.67 2507.5,1287C 2505.38,1293.6 2501.38,1298.6 2495.5,1302C 2488.09,1303.8 2483.09,1301.13 2480.5,1294C 2481.59,1289.79 2484.26,1288.46 2488.5,1290C 2491.46,1293.14 2493.96,1292.64 2496,1288.5C 2499.76,1279.88 2501.92,1270.88 2502.5,1261.5C 2497.81,1261.16 2493.15,1261 2488.5,1261C 2487.09,1266.61 2483.75,1268.45 2478.5,1266.5C 2477.3,1265.44 2476.64,1264.11 2476.5,1262.5C 2477.87,1256.97 2481.2,1253.13 2486.5,1251C 2492.49,1250.96 2498.49,1251.13 2504.5,1251.5C 2505.29,1239.51 2505.46,1227.51 2505,1215.5C 2500.1,1212.77 2499.27,1209.1 2502.5,1204.5 Z"/></g>
<g><path style="opacity:1" fill="#fefffe" d="M 2598.5,1251.5 C 2602.51,1251.33 2606.51,1251.5 2610.5,1252C 2605.4,1259.05 2598.73,1263.88 2590.5,1266.5C 2591.89,1260.71 2594.56,1255.71 2598.5,1251.5 Z"/></g>
<g><path style="opacity:1" fill="#000000" d="M 1677.5,1257.5 C 1683.43,1257.92 1687.09,1261.09 1688.5,1267C 1686.81,1269.93 1684.98,1272.76 1683,1275.5C 1682.42,1279.83 1681.92,1284.17 1681.5,1288.5C 1686.19,1288.9 1690.53,1290.4 1694.5,1293C 1706.86,1301.03 1718.36,1310.19 1729,1320.5C 1734.6,1328.71 1732.76,1334.55 1723.5,1338C 1719.04,1339.02 1714.54,1339.85 1710,1340.5C 1706.5,1340.52 1704.67,1338.85 1704.5,1335.5C 1704.39,1333.63 1705.06,1332.13 1706.5,1331C 1711.69,1330.47 1716.69,1329.3 1721.5,1327.5C 1710.48,1315.82 1697.82,1306.32 1683.5,1299C 1681.87,1298.51 1680.2,1298.34 1678.5,1298.5C 1678.33,1305.54 1675.16,1310.54 1669,1313.5C 1664.09,1312.03 1661.93,1308.7 1662.5,1303.5C 1662.48,1301.04 1662.98,1298.7 1664,1296.5C 1666.31,1296.04 1668.31,1295.04 1670,1293.5C 1671.95,1282.87 1673.61,1272.21 1675,1261.5C 1675.66,1260.02 1676.5,1258.68 1677.5,1257.5 Z"/></g>
<g><path style="opacity:1" fill="#000000" d="M 1386.5,1269.5 C 1391.58,1268.76 1395.08,1270.76 1397,1275.5C 1398.03,1286.41 1395.03,1296.07 1388,1304.5C 1382.21,1311.29 1375.55,1316.96 1368,1321.5C 1363.03,1340.3 1359.03,1359.3 1356,1378.5C 1352.32,1382.53 1348.99,1382.2 1346,1377.5C 1341.38,1352.49 1337.88,1327.33 1335.5,1302C 1335.74,1298.79 1336.24,1295.63 1337,1292.5C 1340.86,1287.29 1344.53,1287.29 1348,1292.5C 1347.47,1295.88 1346.64,1299.21 1345.5,1302.5C 1345.95,1306.17 1346.45,1309.84 1347,1313.5C 1351.38,1310.49 1356.21,1308.65 1361.5,1308C 1365.74,1297.35 1370.91,1287.18 1377,1277.5C 1379.77,1274.22 1382.94,1271.55 1386.5,1269.5 Z"/></g>
<g><path style="opacity:1" fill="#000000" d="M 1585.5,1276.5 C 1589.5,1275.67 1592.16,1277.17 1593.5,1281C 1590.03,1285.81 1586.53,1290.65 1583,1295.5C 1579.84,1300.78 1578.84,1306.44 1580,1312.5C 1587.74,1324.63 1584.57,1332.13 1570.5,1335C 1561.04,1336.52 1551.54,1337.69 1542,1338.5C 1538.32,1338.07 1534.82,1337.07 1531.5,1335.5C 1527.69,1337.44 1523.69,1338.77 1519.5,1339.5C 1514.93,1338.11 1513.1,1335.11 1514,1330.5C 1516.07,1326.76 1519.07,1324.1 1523,1322.5C 1525.46,1322.89 1527.13,1324.22 1528,1326.5C 1532.26,1324.62 1536.09,1322.12 1539.5,1319C 1531.45,1315.9 1523.11,1313.57 1514.5,1312C 1501.05,1308.16 1499.05,1301.16 1508.5,1291C 1514.4,1286.63 1520.9,1283.47 1528,1281.5C 1533.23,1282.29 1535.23,1285.29 1534,1290.5C 1530.34,1296.17 1525.51,1300.33 1519.5,1303C 1528.42,1304.45 1537.08,1306.78 1545.5,1310C 1552.09,1315.59 1552.09,1321.26 1545.5,1327C 1554.67,1327.56 1563.67,1326.56 1572.5,1324C 1572.96,1323.59 1573.29,1323.09 1573.5,1322.5C 1569.83,1315.58 1568.66,1308.25 1570,1300.5C 1573.46,1291.21 1578.63,1283.21 1585.5,1276.5 Z"/></g>
<g><path style="opacity:1" fill="#000000" d="M 495.5,1278.5 C 498.365,1278.05 500.865,1278.72 503,1280.5C 506.092,1293.11 510.758,1305.11 517,1316.5C 519.69,1320.69 523.19,1324.02 527.5,1326.5C 530.779,1325.53 533.779,1324.03 536.5,1322C 547.5,1309.67 558.5,1297.33 569.5,1285C 572.959,1281.89 576.959,1280.89 581.5,1282C 586.675,1289.8 584.675,1293.47 575.5,1293C 564.969,1305.71 553.969,1318.04 542.5,1330C 530.583,1339.24 520.083,1337.74 511,1325.5C 501.768,1311.8 496.101,1296.8 494,1280.5C 494.717,1279.96 495.217,1279.29 495.5,1278.5 Z"/></g>
<g><path style="opacity:1" fill="#000000" d="M 1479.5,1279.5 C 1486.88,1279.04 1489.71,1282.38 1488,1289.5C 1481.15,1299.93 1471.81,1307.27 1460,1311.5C 1458.07,1317.48 1459.91,1321.65 1465.5,1324C 1474.18,1324.89 1482.18,1322.89 1489.5,1318C 1492.51,1314.98 1496.01,1312.81 1500,1311.5C 1504.58,1312.66 1505.91,1315.33 1504,1319.5C 1492.54,1330.15 1479.04,1334.98 1463.5,1334C 1453.8,1331.09 1449.13,1324.59 1449.5,1314.5C 1440,1315.17 1436.33,1310.84 1438.5,1301.5C 1443.11,1298.22 1446.45,1299.22 1448.5,1304.5C 1449.79,1303.9 1451.13,1303.4 1452.5,1303C 1459.25,1292.41 1468.25,1284.57 1479.5,1279.5 Z"/></g>
<g><path style="opacity:1" fill="#fefffe" d="M 1386.5,1281.5 C 1385.8,1289.56 1382.3,1296.56 1376,1302.5C 1377.87,1294.75 1381.37,1287.75 1386.5,1281.5 Z"/></g>
<g><path style="opacity:1" fill="#000000" d="M 1421.5,1287.5 C 1426.55,1287.13 1431.22,1288.29 1435.5,1291C 1438.26,1293.95 1437.93,1296.62 1434.5,1299C 1430.5,1298.67 1426.5,1298.33 1422.5,1298C 1417.16,1304.5 1414.83,1312 1415.5,1320.5C 1415.6,1327.64 1416.6,1334.64 1418.5,1341.5C 1421.37,1341.09 1423.53,1342.09 1425,1344.5C 1426.83,1350.12 1425.16,1354.12 1420,1356.5C 1415.35,1354.58 1412.02,1351.25 1410,1346.5C 1403.35,1328.81 1404.02,1311.47 1412,1294.5C 1414.53,1291.12 1417.7,1288.78 1421.5,1287.5 Z"/></g>
<g><path style="opacity:1" fill="#fefffe" d="M 1514.5,1298.5 C 1520.15,1302.48 1519.82,1303.14 1513.5,1300.5C 1513.86,1299.82 1514.2,1299.15 1514.5,1298.5 Z"/></g>
<g><path style="opacity:1" fill="#000000" d="M 338.5,1313.5 C 341.688,1313.62 344.688,1314.45 347.5,1316C 349.223,1320.06 351.389,1323.9 354,1327.5C 355.019,1334.96 352.185,1340.46 345.5,1344C 334.064,1345.61 327.064,1340.78 324.5,1329.5C 326.041,1321.3 330.708,1315.97 338.5,1313.5 Z"/></g>
<g><path style="opacity:1" fill="#fefffe" d="M 793.5,1318.5 C 797.376,1319.9 801.376,1320.9 805.5,1321.5C 810.226,1318.99 813.059,1320.32 814,1325.5C 815.493,1338.47 815.827,1351.47 815,1364.5C 813.667,1365.83 812.333,1365.83 811,1364.5C 810.667,1361.83 810.333,1359.17 810,1356.5C 808.141,1369.75 808.641,1382.91 811.5,1396C 811.355,1396.77 811.022,1397.44 810.5,1398C 811.416,1398.37 812.25,1398.87 813,1399.5C 819.987,1449.34 823.653,1499.34 824,1549.5C 822.759,1551.42 821.259,1551.75 819.5,1550.5C 818.843,1547.03 817.51,1543.86 815.5,1541C 816.456,1539.63 817.122,1538.13 817.5,1536.5C 814.314,1509.77 812.314,1482.93 811.5,1456C 811.573,1451.31 811.907,1446.64 812.5,1442C 809.576,1427.71 808.576,1413.38 809.5,1399C 807.153,1399.44 804.819,1400.28 802.5,1401.5C 797.284,1399.91 791.951,1399.25 786.5,1399.5C 786.5,1397.17 786.5,1394.83 786.5,1392.5C 792.733,1393.45 798.9,1393.45 805,1392.5C 804.78,1385.52 804.28,1378.52 803.5,1371.5C 804.917,1357.17 806.25,1342.83 807.5,1328.5C 802.798,1328.05 798.132,1327.38 793.5,1326.5C 793.5,1323.83 793.5,1321.17 793.5,1318.5 Z"/></g>
<g><path style="opacity:1" fill="#fefffe" d="M 1348.5,1326.5 C 1351.19,1326.34 1353.85,1326.5 1356.5,1327C 1354.54,1333.79 1352.71,1340.62 1351,1347.5C 1349.84,1340.53 1349,1333.53 1348.5,1326.5 Z"/></g>
<g><path style="opacity:1" fill="#000000" d="M 1953.5,1331.5 C 1959.17,1330.33 1962,1332.66 1962,1338.5C 1961.72,1348.19 1960.89,1357.86 1959.5,1367.5C 1966.68,1366.83 1973.68,1365.33 1980.5,1363C 1984.45,1354.39 1990.45,1347.72 1998.5,1343C 2002.38,1341.36 2006.38,1340.69 2010.5,1341C 2016.89,1344.3 2017.89,1348.63 2013.5,1354C 2015.54,1356.5 2015.87,1359.17 2014.5,1362C 2016.17,1363.17 2017.83,1364.33 2019.5,1365.5C 2027.55,1355.96 2037.21,1348.46 2048.5,1343C 2054.72,1340.17 2059.89,1341.34 2064,1346.5C 2065.23,1353.38 2062.73,1358.38 2056.5,1361.5C 2054.74,1360.87 2053.24,1359.87 2052,1358.5C 2051.76,1356.24 2051.59,1354.24 2051.5,1352.5C 2047.7,1354.47 2044.04,1356.63 2040.5,1359C 2033.92,1366.25 2026.75,1372.75 2019,1378.5C 2014.47,1377.18 2011.47,1374.18 2010,1369.5C 2007.61,1376.21 2003.44,1381.38 1997.5,1385C 1988.57,1386.1 1982.74,1382.26 1980,1373.5C 1974.64,1375.15 1969.14,1376.31 1963.5,1377C 1962.58,1377.37 1961.75,1377.87 1961,1378.5C 1960.92,1383.19 1960.09,1387.69 1958.5,1392C 1954.54,1394.01 1951.7,1392.84 1950,1388.5C 1945.08,1398.43 1937.41,1405.09 1927,1408.5C 1921.03,1407.86 1916.69,1404.86 1914,1399.5C 1909.04,1404.71 1904.04,1404.71 1899,1399.5C 1895.18,1391.64 1895.18,1383.64 1899,1375.5C 1900.4,1371.21 1902.9,1367.71 1906.5,1365C 1911.52,1363.51 1914.85,1365.17 1916.5,1370C 1916.26,1370.87 1915.93,1371.71 1915.5,1372.5C 1917.57,1373.13 1919.4,1374.13 1921,1375.5C 1919.63,1382.88 1920.63,1389.88 1924,1396.5C 1925.96,1398.9 1928.13,1399.07 1930.5,1397C 1945.73,1381.31 1952.23,1362.48 1950,1340.5C 1950.12,1337.04 1951.28,1334.04 1953.5,1331.5 Z"/></g>
<g><path style="opacity:1" fill="#000000" d="M 1770.5,1334.5 C 1772.79,1334.24 1774.96,1334.58 1777,1335.5C 1778.47,1360.77 1784.97,1384.77 1796.5,1407.5C 1800.15,1408.45 1803.31,1407.45 1806,1404.5C 1806.58,1400.81 1806.41,1397.14 1805.5,1393.5C 1805.88,1387.74 1808.71,1386.07 1814,1388.5C 1814.11,1379.52 1816.44,1371.19 1821,1363.5C 1826.78,1357.34 1832.78,1357 1839,1362.5C 1841.38,1375.7 1837.88,1387.2 1828.5,1397C 1834.38,1403.02 1841.05,1404.02 1848.5,1400C 1850.71,1398.13 1852.54,1395.96 1854,1393.5C 1852.78,1385.24 1852.45,1376.91 1853,1368.5C 1856.33,1364.5 1859.67,1364.5 1863,1368.5C 1861.69,1378.96 1863.36,1388.96 1868,1398.5C 1869.42,1400.64 1871.25,1401.8 1873.5,1402C 1878.04,1397.41 1880.88,1391.91 1882,1385.5C 1882.64,1377.73 1882.3,1370.06 1881,1362.5C 1883.21,1360.29 1885.71,1359.96 1888.5,1361.5C 1890.35,1364.2 1891.51,1367.2 1892,1370.5C 1893.78,1382.72 1891.44,1394.06 1885,1404.5C 1876.07,1415.08 1867.4,1414.74 1859,1403.5C 1846.95,1415.08 1834.62,1415.41 1822,1404.5C 1819.96,1406.87 1817.63,1408.87 1815,1410.5C 1813.33,1416.84 1809.49,1421.34 1803.5,1424C 1792.77,1427.05 1782.77,1425.55 1773.5,1419.5C 1762.53,1432.66 1749.2,1435.82 1733.5,1429C 1728.45,1425.62 1724.45,1421.29 1721.5,1416C 1717.35,1416.12 1713.18,1416.62 1709,1417.5C 1697.64,1414.58 1696.48,1409.08 1705.5,1401C 1710.77,1399.14 1713.44,1400.98 1713.5,1406.5C 1715.26,1406.64 1716.93,1406.31 1718.5,1405.5C 1719.41,1394.84 1724.08,1386.34 1732.5,1380C 1738.64,1375.73 1744.81,1375.57 1751,1379.5C 1753.92,1386.29 1752.92,1392.62 1748,1398.5C 1743.23,1404.1 1737.73,1408.77 1731.5,1412.5C 1736.51,1420.79 1743.85,1423.96 1753.5,1422C 1758.52,1419.98 1762.69,1416.82 1766,1412.5C 1765.51,1404.53 1765.51,1396.53 1766,1388.5C 1767.49,1383.51 1769.99,1379.18 1773.5,1375.5C 1769.78,1363.4 1767.95,1351.07 1768,1338.5C 1768.66,1337.02 1769.5,1335.68 1770.5,1334.5 Z"/></g>
<g><path style="opacity:1" fill="#fefffe" d="M 2001.5,1352.5 C 2001.92,1358.09 2001.09,1363.76 1999,1369.5C 1997.85,1372.15 1996.01,1374.15 1993.5,1375.5C 1991.95,1374.79 1990.95,1373.62 1990.5,1372C 1992.13,1370.18 1994.13,1368.85 1996.5,1368C 1999.01,1364.48 1998.34,1361.48 1994.5,1359C 1996.49,1356.36 1998.82,1354.19 2001.5,1352.5 Z"/></g>
<g><path style="opacity:1" fill="#fefffe" d="M 1829.5,1368.5 C 1830.22,1374.22 1828.72,1379.55 1825,1384.5C 1824.97,1378.76 1826.47,1373.43 1829.5,1368.5 Z"/></g>
<g><path style="opacity:1" fill="#fefffe" d="M 1910.5,1374.5 C 1911.38,1374.37 1912.04,1374.7 1912.5,1375.5C 1911.16,1379.38 1910.33,1383.38 1910,1387.5C 1909.25,1389.33 1908.25,1391 1907,1392.5C 1906.31,1391.97 1905.81,1391.31 1905.5,1390.5C 1906.37,1384.9 1908.04,1379.56 1910.5,1374.5 Z"/></g>
<g><path style="opacity:1" fill="#000000" d="M 1481.5,1376.5 C 1487.38,1377.27 1491.71,1380.27 1494.5,1385.5C 1508.35,1377.25 1520.18,1379.58 1530,1392.5C 1533.49,1399.14 1533.32,1405.64 1529.5,1412C 1537.68,1412.28 1545.85,1412.78 1554,1413.5C 1560.8,1410.6 1567.8,1408.27 1575,1406.5C 1578.97,1407.48 1582.81,1407.98 1586.5,1408C 1589.47,1409.76 1591.64,1412.26 1593,1415.5C 1597.58,1433.35 1591.08,1444.68 1573.5,1449.5C 1572.78,1466.84 1571.94,1484.17 1571,1501.5C 1570.48,1506.59 1569.48,1511.59 1568,1516.5C 1564.71,1524.16 1559.38,1526.49 1552,1523.5C 1550.41,1518.09 1552.41,1515.09 1558,1514.5C 1559.47,1510.28 1560.47,1505.94 1561,1501.5C 1562.63,1483.18 1562.79,1464.85 1561.5,1446.5C 1553.9,1442.9 1549.9,1436.9 1549.5,1428.5C 1544.46,1427.05 1539.3,1426.38 1534,1426.5C 1524.11,1427.05 1514.28,1428.05 1504.5,1429.5C 1506.98,1441.38 1507.82,1453.38 1507,1465.5C 1501.97,1469.37 1498.63,1468.04 1497,1461.5C 1496.17,1457.5 1495.33,1453.5 1494.5,1449.5C 1496.68,1443.95 1496.68,1438.28 1494.5,1432.5C 1489.52,1432.53 1484.52,1432.19 1479.5,1431.5C 1476.83,1428.17 1476.83,1424.83 1479.5,1421.5C 1467.17,1420.68 1454.83,1419.85 1442.5,1419C 1435.07,1415.61 1434.74,1411.77 1441.5,1407.5C 1445.64,1409.12 1449.98,1409.95 1454.5,1410C 1465.85,1410.83 1477.18,1410.67 1488.5,1409.5C 1488.07,1402.71 1486.9,1396.04 1485,1389.5C 1482.83,1387.88 1480.33,1387.05 1477.5,1387C 1473.67,1383.91 1473.67,1380.91 1477.5,1378C 1479.06,1377.79 1480.39,1377.29 1481.5,1376.5 Z"/></g>
<g><path style="opacity:1" fill="#000000" d="M 1093.5,1381.5 C 1204.55,1384.06 1315.55,1388.23 1426.5,1394C 1443.6,1394.73 1460.6,1396.4 1477.5,1399C 1481.69,1401.24 1482.36,1404.24 1479.5,1408C 1478,1408.5 1476.5,1409 1475,1409.5C 1468.36,1407.41 1461.52,1406.24 1454.5,1406C 1343.56,1399.81 1232.56,1394.97 1121.5,1391.5C 1081.66,1391.87 1041.99,1394.7 1002.5,1400C 997.322,1400.53 992.322,1401.69 987.5,1403.5C 983.19,1402.37 981.69,1399.7 983,1395.5C 985.042,1393.4 987.542,1392.23 990.5,1392C 1024.84,1387.08 1059.17,1383.58 1093.5,1381.5 Z"/></g>
<g><path style="opacity:1" fill="#fefffe" d="M 1740.5,1386.5 C 1741.5,1386.47 1742.16,1386.97 1742.5,1388C 1739.39,1393.44 1735.23,1397.94 1730,1401.5C 1730.02,1399.08 1730.69,1396.75 1732,1394.5C 1734.16,1391.02 1736.99,1388.36 1740.5,1386.5 Z"/></g>
<g><path style="opacity:1" fill="#fefffe" d="M 1776.5,1387.5 C 1780.85,1396.39 1784.85,1405.55 1788.5,1415C 1785.72,1414.63 1783.06,1413.63 1780.5,1412C 1779.97,1409.03 1778.64,1406.53 1776.5,1404.5C 1775.26,1398.81 1775.26,1393.15 1776.5,1387.5 Z"/></g>
<g><path style="opacity:1" fill="#fefffe" d="M 1504.5,1390.5 C 1520.25,1390.4 1525.25,1397.4 1519.5,1411.5C 1513.44,1411.79 1507.44,1411.46 1501.5,1410.5C 1499.54,1405.65 1498.7,1400.65 1499,1395.5C 1500.73,1393.6 1502.56,1391.93 1504.5,1390.5 Z"/></g>
<g><path style="opacity:1" fill="#000000" d="M 1625.5,1406.5 C 1632.56,1406.21 1639.56,1406.71 1646.5,1408C 1650.75,1410.71 1651.09,1413.71 1647.5,1417C 1643.18,1417.12 1638.85,1416.95 1634.5,1416.5C 1628.26,1415.54 1623.76,1417.87 1621,1423.5C 1618.87,1429.14 1616.87,1434.81 1615,1440.5C 1612.56,1442.66 1610.06,1442.83 1607.5,1441C 1599.32,1435.93 1599.66,1431.76 1608.5,1428.5C 1610.5,1418.19 1616.16,1410.85 1625.5,1406.5 Z"/></g>
<g><path style="opacity:1" fill="#fefffe" d="M 1572.5,1416.5 C 1574.17,1416.5 1575.83,1416.5 1577.5,1416.5C 1577.08,1421.81 1579.24,1424.15 1584,1423.5C 1584.78,1431.61 1581.28,1436.94 1573.5,1439.5C 1572.67,1433.53 1572.17,1427.53 1572,1421.5C 1569.92,1419.44 1570.09,1417.78 1572.5,1416.5 Z"/></g>
<g><path style="opacity:1" fill="#000000" d="M 1972.5,1420.5 C 1975.1,1420.55 1977.27,1421.55 1979,1423.5C 1980.26,1427.05 1981.09,1430.72 1981.5,1434.5C 1980.77,1442.15 1980.27,1449.81 1980,1457.5C 1976.71,1461.09 1973.71,1460.75 1971,1456.5C 1970.24,1449.47 1970.41,1442.47 1971.5,1435.5C 1966.08,1430.17 1966.41,1425.17 1972.5,1420.5 Z"/></g>
<g><path style="opacity:1" fill="#fefffe" d="M 1559.5,1424.5 C 1560.5,1424.5 1561.5,1424.5 1562.5,1424.5C 1562.67,1427.85 1562.5,1431.18 1562,1434.5C 1559.71,1431.64 1558.88,1428.3 1559.5,1424.5 Z"/></g>
<g><path style="opacity:1" fill="#000000" d="M 1934.5,1430.5 C 1937.1,1430.55 1939.27,1431.55 1941,1433.5C 1947.63,1452.87 1948.79,1472.54 1944.5,1492.5C 1945.1,1498.53 1945.93,1504.53 1947,1510.5C 1951.11,1508.59 1953.94,1509.75 1955.5,1514C 1954.2,1517.56 1952.7,1521.06 1951,1524.5C 1947.67,1527.17 1944.33,1527.17 1941,1524.5C 1939.04,1520.33 1937.54,1516 1936.5,1511.5C 1932.61,1518.89 1926.95,1524.39 1919.5,1528C 1910.96,1529.14 1905.12,1525.64 1902,1517.5C 1900.38,1507.12 1902.88,1497.96 1909.5,1490C 1918.34,1485.19 1924.34,1487.52 1927.5,1497C 1926.47,1501.21 1923.81,1502.54 1919.5,1501C 1918.79,1498.23 1917.29,1497.4 1915,1498.5C 1911.97,1503.81 1910.97,1509.47 1912,1515.5C 1913.99,1518.72 1916.49,1519.22 1919.5,1517C 1927.68,1508.64 1932.35,1498.64 1933.5,1487C 1931.44,1469.55 1930.61,1452.05 1931,1434.5C 1931.69,1432.65 1932.86,1431.32 1934.5,1430.5 Z"/></g>
<g><path style="opacity:1" fill="#000000" d="M 1873.5,1442.5 C 1878.93,1444.01 1881.43,1447.67 1881,1453.5C 1881.31,1473.2 1882.31,1492.87 1884,1512.5C 1884.81,1521.34 1886.47,1530 1889,1538.5C 1892.1,1535.72 1895.43,1533.39 1899,1531.5C 1905.62,1534.47 1905.78,1538.31 1899.5,1543C 1894.4,1548.03 1888.73,1549.03 1882.5,1546C 1880.96,1544.42 1879.79,1542.59 1879,1540.5C 1876.5,1531.32 1874.83,1521.98 1874,1512.5C 1872.17,1493.21 1871.34,1473.88 1871.5,1454.5C 1867.02,1454.18 1865.52,1451.84 1867,1447.5C 1868.8,1445.17 1870.97,1443.51 1873.5,1442.5 Z"/></g>
<g><path style="opacity:1" fill="#000000" d="M 2002.5,1462.5 C 2008.69,1460.99 2013.19,1462.99 2016,1468.5C 2016.78,1474.96 2017.95,1481.29 2019.5,1487.5C 2024.22,1484.21 2027.89,1485.04 2030.5,1490C 2028.21,1494.58 2024.38,1497.08 2019,1497.5C 2013.88,1497.04 2010.55,1494.38 2009,1489.5C 2008.24,1483.7 2007.24,1478.03 2006,1472.5C 1995.93,1482.71 1990.93,1495.04 1991,1509.5C 1988,1513.5 1985,1513.5 1982,1509.5C 1981.21,1490.42 1988.05,1474.75 2002.5,1462.5 Z"/></g>
<g><path style="opacity:1" fill="#000000" d="M 1858.5,1464.5 C 1862.53,1463.58 1864.86,1465.08 1865.5,1469C 1865.01,1471.82 1863.84,1474.32 1862,1476.5C 1861.67,1480.17 1861.33,1483.83 1861,1487.5C 1858,1491.5 1855,1491.5 1852,1487.5C 1849.66,1478.33 1851.83,1470.66 1858.5,1464.5 Z"/></g>
<g><path style="opacity:1" fill="#000000" d="M 2042.5,1466.5 C 2044.86,1466.34 2047.19,1466.5 2049.5,1467C 2052.36,1469.13 2052.86,1471.63 2051,1474.5C 2048.13,1477.7 2044.96,1480.54 2041.5,1483C 2061.28,1492.73 2068.45,1508.23 2063,1529.5C 2054.24,1545.79 2040.74,1552.29 2022.5,1549C 2017.11,1547.47 2012.11,1545.14 2007.5,1542C 2000.17,1535.35 2001.17,1531.68 2010.5,1531C 2025.28,1544.34 2039.11,1543.5 2052,1528.5C 2057.22,1518.52 2056.22,1509.18 2049,1500.5C 2042.51,1495.26 2035.85,1490.26 2029,1485.5C 2028.21,1482.37 2028.54,1479.37 2030,1476.5C 2034.07,1472.92 2038.23,1469.59 2042.5,1466.5 Z"/></g>
<g><path style="opacity:1" fill="#000000" d="M 1716.5,1467.5 C 1720.6,1467.47 1723.1,1469.47 1724,1473.5C 1725.13,1492.65 1727.47,1511.65 1731,1530.5C 1731.64,1533.11 1732.81,1535.45 1734.5,1537.5C 1741.58,1532.59 1748.25,1527.09 1754.5,1521C 1758.76,1518.02 1763.43,1516.69 1768.5,1517C 1773.87,1518.7 1776.53,1522.37 1776.5,1528C 1775.76,1536.09 1771.76,1542.09 1764.5,1546C 1757.85,1549.26 1750.85,1550.6 1743.5,1550C 1739.39,1548.11 1735.06,1547.11 1730.5,1547C 1727.67,1545.5 1725.5,1543.33 1724,1540.5C 1718.47,1521.25 1715.47,1501.58 1715,1481.5C 1710.1,1480.03 1708.77,1477.03 1711,1472.5C 1712.73,1470.6 1714.56,1468.93 1716.5,1467.5 Z"/></g>
<g><path style="opacity:1" fill="#000000" d="M 1961.5,1478.5 C 1964.2,1478.93 1966.36,1480.27 1968,1482.5C 1968.96,1486.8 1969.8,1491.13 1970.5,1495.5C 1972.11,1496.55 1973.11,1498.05 1973.5,1500C 1972.71,1506.28 1971.05,1512.28 1968.5,1518C 1964.79,1520.21 1961.96,1519.38 1960,1515.5C 1959.67,1506.17 1959.33,1496.83 1959,1487.5C 1956.61,1483.59 1957.45,1480.59 1961.5,1478.5 Z"/></g>
<g><path style="opacity:1" fill="#000000" d="M 981.5,1503.5 C 983.681,1503.28 985.347,1504.12 986.5,1506C 1008.09,1508.54 1029.76,1509.87 1051.5,1510C 1116.17,1510.58 1180.83,1510.41 1245.5,1509.5C 1320.29,1509.24 1394.95,1512.07 1469.5,1518C 1489.17,1519.15 1508.67,1521.32 1528,1524.5C 1532.32,1522.18 1535.15,1518.68 1536.5,1514C 1543.51,1512.68 1546.01,1515.51 1544,1522.5C 1540.67,1528.15 1536,1532.15 1530,1534.5C 1469.04,1527.37 1407.87,1522.87 1346.5,1521C 1237.83,1520.41 1129.17,1519.74 1020.5,1519C 1006.76,1518.39 993.094,1517.06 979.5,1515C 975.624,1513.04 974.791,1510.21 977,1506.5C 978.652,1505.6 980.152,1504.6 981.5,1503.5 Z"/></g>
<g><path style="opacity:1" fill="#000000" d="M 1792.5,1505.5 C 1796.41,1505.24 1798.75,1507.07 1799.5,1511C 1797.03,1516.58 1796.03,1522.41 1796.5,1528.5C 1800.02,1528.07 1803.02,1526.57 1805.5,1524C 1816.53,1506.34 1823.7,1507.84 1827,1528.5C 1828,1529.5 1829,1530.5 1830,1531.5C 1834.08,1527.02 1837.41,1522.02 1840,1516.5C 1841.51,1515.91 1843.01,1515.24 1844.5,1514.5C 1843.6,1511.43 1844.6,1508.93 1847.5,1507C 1850.03,1505.58 1852.7,1505.25 1855.5,1506C 1861.5,1514.84 1862.17,1524.17 1857.5,1534C 1854.67,1535.92 1852.17,1535.42 1850,1532.5C 1849.67,1527.5 1849.33,1522.5 1849,1517.5C 1846.8,1526.73 1841.97,1534.23 1834.5,1540C 1829.49,1542.11 1824.99,1541.28 1821,1537.5C 1818.91,1534.32 1817.08,1530.98 1815.5,1527.5C 1809.47,1536.02 1801.47,1539.19 1791.5,1537C 1789.11,1535.05 1787.61,1532.55 1787,1529.5C 1785.4,1520.57 1787.23,1512.57 1792.5,1505.5 Z"/></g>
<g><path style="opacity:1" fill="#fefffe" d="M 1764.5,1526.5 C 1765.65,1526.79 1766.32,1527.62 1766.5,1529C 1764.48,1534.01 1760.81,1537.35 1755.5,1539C 1753.18,1539.84 1750.85,1540.17 1748.5,1540C 1753.35,1534.77 1758.68,1530.27 1764.5,1526.5 Z"/></g>
<g><path style="opacity:1" fill="#000000" d="M 910.5,1544.5 C 912.429,1544.23 914.095,1544.73 915.5,1546C 910.828,1546.71 906.328,1547.88 902,1549.5C 901.312,1548.67 901.479,1548 902.5,1547.5C 905.282,1546.48 907.949,1545.48 910.5,1544.5 Z"/></g>
</svg>
