<?xml version="1.0" standalone="no"?>
<!DOCTYPE svg PUBLIC "-//W3C//DTD SVG 20010904//EN"
 "http://www.w3.org/TR/2001/REC-SVG-20010904/DTD/svg10.dtd">
<svg version="1.0" xmlns="http://www.w3.org/2000/svg"
 width="4000.000000pt" height="4000.000000pt" viewBox="0 0 4000.000000 4000.000000"
 preserveAspectRatio="xMidYMid meet">

<g transform="translate(0.000000,4000.000000) scale(0.100000,-0.100000)"
fill="#000000" stroke="none">
<path d="M18530 36960 c-13 -25 15 -262 35 -294 19 -31 66 -382 95 -721 14
-155 24 -201 50 -215 27 -14 37 -13 60 10 24 24 27 84 6 132 -8 18 -24 134
-35 258 -33 348 -104 803 -132 836 -18 21 -66 18 -79 -6z"/>
<path d="M18340 36402 c-43 -14 -40 -45 25 -212 31 -78 54 -144 52 -146 -2 -2
-22 25 -45 61 -35 55 -46 65 -70 65 -37 0 -52 -17 -52 -57 0 -21 8 -40 24 -55
13 -13 78 -104 144 -204 65 -99 132 -196 149 -215 16 -18 39 -50 50 -69 39
-64 74 -89 141 -101 97 -17 126 -7 202 69 67 68 142 173 285 405 44 70 89 136
100 146 11 11 32 31 47 44 31 29 28 63 -8 79 -18 8 -31 6 -61 -9 -40 -20 -57
-44 -271 -375 -135 -209 -155 -226 -66 -53 97 188 180 340 209 383 25 37 23
67 -7 83 -51 27 -72 -2 -253 -347 -75 -143 -144 -270 -154 -283 l-19 -25 -37
28 c-23 18 -47 50 -62 85 -39 86 -233 604 -233 620 0 22 -39 78 -58 83 -9 3
-24 3 -32 0z"/>
<path d="M20450 25125 l0 -10555 4315 0 4315 0 0 10555 0 10555 -4315 0 -4315
0 0 -10555z m8280 -65 l0 -10170 -4005 0 -4005 0 0 10170 0 10170 4005 0 4005
0 0 -10170z"/>
<path d="M25829 29573 c-29 -7 -48 -60 -74 -204 -21 -112 -35 -163 -66 -228
-103 -220 -260 -361 -401 -361 -47 0 -62 5 -88 27 l-32 26 47 18 c87 33 196
131 239 216 61 120 6 239 -115 251 -99 9 -192 -55 -249 -173 -30 -61 -55 -183
-45 -215 7 -23 -18 -30 -125 -30 -105 0 -211 -15 -220 -30 -5 -9 -46 -9 -161
0 -161 12 -235 24 -256 42 -23 19 15 67 193 249 140 141 174 181 174 203 0 44
-17 66 -51 66 -24 0 -33 -6 -44 -32 -8 -18 -75 -94 -150 -168 -208 -206 -250
-270 -225 -345 21 -65 93 -91 310 -113 l75 -8 -105 -21 c-137 -29 -201 -37
-199 -27 7 41 -25 64 -70 49 -29 -9 -53 -58 -45 -90 19 -75 144 -80 398 -16
142 36 206 66 220 103 12 32 24 34 204 42 65 3 112 1 112 -5 0 -21 75 -89 115
-105 68 -25 163 -16 250 24 53 25 89 53 155 120 l86 87 -9 -70 c-11 -93 3
-142 46 -160 39 -16 83 -9 101 17 19 27 8 59 -26 72 -33 12 -34 -17 7 261 14
94 36 207 49 252 33 111 50 227 37 251 -11 21 -36 30 -62 25z m-465 -369 c34
-33 9 -102 -62 -173 -47 -47 -148 -108 -159 -97 -10 9 16 128 37 172 30 62 91
114 134 114 19 0 42 -7 50 -16z"/>
<path d="M23433 29402 c-97 -35 -157 -99 -205 -222 -18 -47 -22 -78 -23 -205
-2 -128 0 -155 16 -186 22 -43 51 -54 81 -30 20 17 21 20 8 100 -20 127 -9
245 30 325 51 107 118 142 251 133 80 -5 100 1 112 35 3 9 -2 27 -12 39 -25
31 -182 38 -258 11z"/>
<path d="M22331 29285 c-68 -19 -152 -67 -197 -111 -23 -24 -40 -56 -55 -105
-46 -151 -6 -294 111 -402 81 -75 147 -100 265 -101 81 -1 97 2 158 31 93 44
169 119 214 210 31 63 37 87 41 157 6 110 -13 168 -79 240 -66 73 -131 101
-213 92 -80 -9 -103 -9 -151 -2 -24 3 -62 -1 -94 -9z m84 -122 c-4 -21 -11
-53 -15 -70 -11 -45 -2 -72 28 -80 34 -8 55 7 67 50 6 20 16 42 23 49 6 6 12
24 12 40 0 32 24 48 70 48 90 0 170 -98 170 -209 0 -120 -70 -235 -182 -296
-46 -26 -63 -30 -133 -30 -67 0 -88 5 -131 27 -102 54 -164 155 -164 267 0 60
28 134 58 158 44 35 146 80 185 82 15 1 17 -5 12 -36z"/>
<path d="M26195 29030 c-51 -52 -126 -100 -251 -163 -83 -42 -99 -58 -90 -92
11 -45 50 -44 141 5 158 85 217 124 271 179 54 55 65 86 42 109 -26 26 -63 13
-113 -38z"/>
<path d="M24416 27748 c-24 -34 -20 -135 15 -410 35 -272 34 -283 -20 -425
-73 -189 -226 -352 -332 -353 -48 0 -98 55 -113 125 -6 29 -3 33 73 83 226
151 326 372 186 411 -96 26 -233 -66 -304 -207 -27 -53 -37 -84 -55 -174 -6
-28 -46 -48 -96 -48 -40 0 -110 89 -110 141 0 61 -37 148 -66 155 -57 14 -75
-18 -49 -89 53 -147 -4 -411 -112 -522 -55 -56 -90 -45 -129 40 -16 34 -19 69
-20 223 -1 202 -6 221 -58 208 -39 -10 -49 -64 -44 -246 5 -164 21 -234 71
-302 45 -60 132 -75 203 -33 74 43 156 180 184 308 7 31 16 57 19 57 3 0 14
-7 25 -15 27 -20 94 -28 143 -17 l43 10 6 -33 c7 -39 50 -106 84 -133 140
-109 361 14 500 279 l37 71 6 -69 c16 -160 -3 -296 -53 -394 -17 -34 -30 -71
-28 -82 4 -28 38 -47 65 -37 26 11 76 110 100 200 23 87 22 320 -4 490 -11 77
-16 142 -11 170 10 68 9 225 -2 254 -6 16 -17 26 -29 26 -15 0 -20 10 -26 46
-6 40 -4 48 14 61 12 8 21 23 21 34 0 38 -42 184 -57 202 -22 24 -59 21 -77
-5z m-247 -715 c-33 -54 -96 -120 -147 -155 -43 -30 -44 -30 -37 -7 26 83 97
172 160 200 48 22 54 12 24 -38z"/>
<path d="M22119 27439 c-19 -19 -20 -28 -14 -92 4 -40 27 -191 51 -337 83
-489 122 -725 128 -772 15 -104 100 -134 136 -48 12 28 15 30 69 30 66 0 148
35 226 97 72 56 72 56 103 34 45 -31 111 -45 160 -32 45 13 114 61 145 103 19
25 19 28 3 52 -22 34 -55 33 -90 -3 -15 -16 -45 -37 -67 -46 -37 -17 -42 -17
-74 -2 -19 9 -35 21 -35 26 0 5 13 37 30 72 79 172 91 392 25 493 -20 30 -67
50 -99 42 -106 -26 -156 -383 -81 -577 4 -12 -14 -32 -67 -72 -90 -69 -132
-87 -201 -87 -56 0 -77 -12 -77 -44 0 -48 -12 2 -35 151 -14 89 -48 290 -75
447 -27 157 -57 345 -66 418 -14 106 -21 137 -37 151 -25 22 -32 22 -58 -4z
m736 -622 c-1 -105 -25 -217 -46 -217 -15 0 -6 251 11 304 20 66 35 29 35 -87z"/>
<path d="M25995 26262 c-106 -37 -203 -112 -231 -178 -19 -45 -18 -119 2 -138
38 -39 84 -7 84 58 0 36 6 49 37 79 36 37 115 81 163 92 62 14 135 -82 146
-193 8 -76 -19 -183 -79 -318 -54 -119 -87 -217 -87 -255 0 -34 33 -61 63 -50
15 6 28 31 47 92 15 46 43 119 63 162 67 144 90 231 90 337 0 111 -22 182 -78
247 -38 44 -106 83 -146 83 -13 -1 -47 -8 -74 -18z"/>
<path d="M23002 25844 c-28 -19 -56 -74 -71 -139 -37 -168 -44 -467 -14 -631
18 -101 18 -101 -3 -155 -35 -92 -104 -216 -146 -264 -73 -83 -131 -96 -182
-41 -40 42 -56 95 -55 182 0 95 23 152 71 176 51 27 108 33 132 16 18 -14 18
-16 0 -71 -18 -57 -18 -58 4 -79 18 -18 26 -20 49 -12 22 7 31 21 45 64 27 87
24 127 -13 161 -62 58 -159 62 -259 11 -89 -45 -130 -130 -130 -272 0 -94 20
-166 63 -222 61 -80 150 -108 232 -74 75 32 179 156 240 288 l23 49 22 -28
c27 -35 57 -52 93 -53 53 0 81 23 144 119 1 2 23 -14 47 -36 57 -50 115 -67
202 -60 88 7 169 48 272 138 83 72 104 107 84 139 -10 16 -7 16 36 1 26 -9 49
-17 51 -18 2 -1 -4 -20 -13 -43 -34 -85 -10 -174 54 -200 73 -30 216 15 284
90 30 33 36 48 36 84 0 78 -61 126 -186 146 -244 37 -243 37 -225 91 31 90
125 179 191 179 42 0 70 20 70 50 0 32 -28 50 -78 50 -92 0 -206 -93 -263
-213 -35 -76 -37 -113 -4 -161 23 -34 23 -36 5 -36 -10 0 -50 -29 -87 -65 -88
-84 -185 -135 -258 -135 -90 0 -150 58 -162 157 -5 45 -3 51 20 66 14 9 28 29
32 45 5 25 12 29 63 40 149 31 230 155 153 233 -77 77 -237 -5 -316 -161 -34
-68 -58 -182 -51 -241 5 -36 3 -48 -8 -52 -8 -3 -29 -29 -48 -56 -18 -28 -37
-50 -43 -48 -5 1 -23 28 -38 59 l-28 56 20 68 c11 38 30 118 42 177 25 127 19
157 -30 157 -38 0 -48 -15 -57 -78 -4 -29 -11 -49 -16 -46 -11 7 -3 179 13
324 15 127 15 127 54 122 26 -3 36 1 44 17 16 28 -3 96 -34 127 -28 28 -42 30
-73 8z m480 -527 c-27 -29 -102 -56 -80 -30 17 22 69 53 87 53 10 0 8 -7 -7
-23z m686 -322 c17 -8 32 -21 32 -29 0 -33 -106 -90 -156 -84 -25 3 -29 7 -27
33 0 17 7 47 15 68 l13 38 45 -6 c25 -4 60 -13 78 -20z"/>
<path d="M24506 25734 c-9 -8 -16 -27 -16 -42 0 -15 -7 -64 -17 -110 -16 -82
-16 -84 5 -104 29 -30 71 -18 79 23 4 23 10 28 24 24 24 -8 55 10 62 35 4 14
-4 32 -24 54 -21 25 -29 44 -29 73 0 21 -5 44 -12 51 -17 17 -54 15 -72 -4z"/>
<path d="M24873 25601 c-79 -57 -193 -240 -201 -321 -5 -58 19 -115 59 -135
38 -20 58 -19 98 6 18 11 34 19 36 17 1 -2 28 -81 60 -177 37 -114 54 -182 50
-198 -7 -28 -73 -62 -121 -63 -23 0 -34 6 -42 26 -10 21 -18 25 -44 22 -69 -7
-67 -95 3 -131 74 -39 221 -2 277 71 44 57 37 110 -47 356 -39 115 -78 217
-87 228 -28 30 -60 22 -95 -22 -62 -78 -68 -30 -9 78 53 97 86 139 131 168 42
26 55 54 39 84 -15 29 -59 25 -107 -9z"/>
<path d="M25192 25584 c-29 -20 -28 -58 2 -81 28 -23 30 -29 61 -263 21 -160
27 -187 46 -202 52 -43 75 -16 100 117 34 188 80 305 119 305 42 0 100 -143
125 -308 14 -97 19 -109 45 -112 56 -8 66 8 86 131 16 100 10 126 -32 131 -21
3 -29 13 -48 69 -26 75 -73 148 -110 172 -35 23 -101 22 -136 -3 -33 -24 -65
-73 -90 -137 l-17 -46 -12 69 c-23 133 -44 174 -90 174 -15 0 -37 -7 -49 -16z"/>
<path d="M24225 25177 c-21 -33 -7 -64 36 -79 36 -12 49 -41 49 -109 0 -59 32
-102 70 -92 30 8 45 37 66 125 19 86 13 108 -33 108 -13 0 -41 14 -62 30 -21
17 -54 33 -73 37 -31 4 -38 2 -53 -20z"/>
<path d="M26030 25150 c-17 -17 -20 -29 -16 -58 3 -20 8 -59 12 -85 7 -54 38
-84 74 -72 26 8 35 27 54 109 18 77 12 101 -31 109 -16 3 -38 8 -50 12 -15 5
-28 0 -43 -15z"/>
<path d="M9530 25045 l0 -10555 4055 0 4055 0 0 10555 0 10555 -4055 0 -4055
0 0 -10555z m7740 10 l0 -10215 -3650 0 -3650 0 0 10215 0 10215 3650 0 3650
0 0 -10215z"/>
<path d="M15575 34317 c-18 -29 -6 -117 95 -682 38 -214 87 -496 109 -626 42
-247 52 -284 80 -292 57 -15 81 35 81 172 0 99 -7 121 -41 121 -20 0 -17 -11
-59 235 -17 99 -58 329 -90 510 -33 182 -67 382 -76 445 -9 63 -21 121 -26
128 -17 20 -56 14 -73 -11z"/>
<path d="M15862 34288 c-18 -18 -15 -72 13 -209 83 -408 136 -734 170 -1059
15 -134 31 -252 36 -261 14 -26 47 -33 74 -15 31 20 44 80 22 104 -10 12 -21
78 -36 217 -26 240 -69 517 -123 795 -21 113 -48 254 -59 314 -11 61 -25 114
-32 118 -18 12 -51 10 -65 -4z"/>
<path d="M13847 34098 c-27 -21 -37 -65 -37 -161 0 -143 28 -474 55 -666 l26
-174 -21 -123 c-33 -192 -73 -299 -130 -348 -88 -74 -199 21 -200 170 0 85 50
183 143 279 66 67 69 69 79 48 20 -42 79 -38 93 7 9 28 -24 91 -56 109 -23 13
-31 12 -81 -11 -83 -39 -174 -141 -245 -278 -33 -64 -42 -180 -20 -252 l15
-48 -50 -45 c-55 -49 -93 -61 -166 -50 -60 8 -192 71 -192 91 0 8 19 23 43 33
106 46 217 231 217 364 0 42 -4 53 -31 78 -25 23 -40 29 -78 29 -72 0 -179
-56 -257 -134 -79 -80 -103 -129 -104 -215 0 -54 5 -73 31 -120 l31 -55 -23
-19 c-80 -65 -238 -112 -344 -102 -85 8 -125 24 -154 61 -29 37 -22 84 26 176
40 77 165 204 264 268 58 38 62 39 85 23 19 -12 30 -13 48 -5 38 17 39 48 3
89 -28 32 -34 35 -74 30 -59 -6 -161 -75 -273 -183 l-88 -85 -18 53 c-26 72
-77 119 -172 157 -129 51 -210 40 -326 -43 -84 -61 -120 -101 -151 -169 -88
-191 -27 -397 142 -482 49 -26 69 -30 138 -30 100 0 171 30 246 105 l52 52 27
-30 c41 -46 102 -72 194 -84 69 -9 97 -8 167 7 105 21 185 53 255 103 l55 39
87 -44 c95 -48 181 -68 254 -60 58 7 98 27 153 78 38 35 44 37 56 23 23 -28
87 -54 135 -54 114 0 192 83 249 265 23 70 23 70 34 40 43 -115 64 -139 118
-139 29 0 42 7 64 33 33 39 39 59 28 89 -10 27 -59 31 -80 6 -11 -14 -15 -10
-30 29 -29 74 -71 288 -65 333 3 27 0 48 -10 62 -19 27 -41 186 -59 431 -19
255 -19 251 5 251 35 0 43 34 24 101 -27 95 -64 129 -107 97z m-627 -1073 c0
-41 -49 -150 -87 -195 -20 -23 -56 -51 -82 -63 -25 -12 -50 -32 -56 -44 -11
-22 -11 -22 -28 7 -27 44 -22 108 12 161 45 72 163 157 219 159 17 0 22 -6 22
-25z m-1112 -35 c21 -38 56 -49 81 -26 17 16 20 15 50 -19 38 -44 44 -67 39
-158 -6 -122 -84 -253 -179 -302 -128 -67 -288 13 -319 158 -11 57 -3 125 26
196 30 75 174 181 247 181 32 0 41 -5 55 -30z"/>
<path d="M11020 33678 c-67 -33 -150 -122 -197 -214 -41 -80 -93 -227 -93
-266 0 -18 -4 -20 -31 -14 -17 3 -39 6 -48 6 -12 0 -24 23 -43 83 -14 45 -29
95 -32 110 -8 35 -45 54 -75 38 -37 -20 -26 -73 65 -337 120 -346 149 -443
169 -567 45 -283 149 -576 211 -591 32 -8 62 9 70 39 7 28 1 49 -118 430 l-90
290 -6 131 c-2 72 -2 160 2 196 l7 66 71 16 c150 34 291 138 358 266 45 86 54
194 21 257 -41 82 -145 108 -241 61z m144 -94 c11 -10 16 -34 16 -68 0 -105
-89 -225 -213 -286 -67 -33 -137 -49 -137 -33 0 19 50 164 71 206 75 148 206
238 263 181z m-454 -534 c0 -16 -4 -30 -8 -30 -4 0 -13 14 -19 30 -10 27 -9
30 8 30 14 0 19 -7 19 -30z"/>
<path d="M16771 33483 c-15 -13 -36 -69 -71 -193 -28 -96 -55 -190 -61 -208
l-11 -33 -36 58 c-87 141 -246 354 -269 359 -60 15 -104 -72 -49 -98 26 -11
175 -216 243 -333 74 -128 74 -113 5 -351 -147 -502 -173 -617 -188 -810 l-7
-92 -37 5 c-44 6 -81 -11 -160 -73 -76 -60 -139 -136 -165 -199 -18 -46 -23
-51 -32 -35 -8 12 -28 19 -67 22 -30 2 -62 11 -71 18 -14 12 -10 19 38 69 153
160 199 251 165 326 -13 29 -55 55 -89 55 -38 0 -105 -39 -149 -86 -63 -69
-103 -161 -108 -254 -4 -66 -7 -78 -26 -86 -12 -5 -22 -20 -24 -36 -4 -35 34
-63 68 -50 19 7 34 2 70 -20 52 -32 143 -48 176 -30 18 9 19 6 19 -52 1 -137
99 -218 212 -175 39 14 99 73 144 143 38 57 39 58 39 28 0 -30 29 -72 49 -72
44 0 75 55 59 103 -7 18 -9 123 -5 286 6 263 23 425 52 481 8 16 15 44 15 62
0 36 52 226 183 668 46 157 104 352 127 434 l43 149 -22 19 c-29 22 -33 22
-60 1z m-873 -1656 c-18 -35 -139 -180 -144 -174 -9 8 34 108 61 143 30 39 88
79 93 65 2 -6 -3 -21 -10 -34z m424 -200 c-6 -7 -21 -41 -35 -77 -63 -167
-143 -280 -199 -280 -24 0 -32 6 -44 35 -19 46 -18 73 7 148 17 51 33 77 81
126 57 58 61 60 81 46 31 -22 43 -19 79 21 31 34 33 35 36 15 2 -12 -1 -27 -6
-34z"/>
<path d="M15298 33430 c-38 -11 -88 -46 -124 -87 -28 -32 -33 -34 -52 -22 -17
11 -30 10 -79 -5 -124 -39 -156 -77 -228 -271 -58 -157 -87 -208 -118 -203
-30 4 -91 89 -128 178 -43 105 -54 120 -88 120 -36 0 -45 -12 -60 -75 -26
-108 -94 -194 -144 -181 -33 8 -47 50 -47 142 l0 73 34 -6 c27 -4 36 -1 49 17
19 28 12 54 -25 85 -39 33 -78 32 -110 -2 -39 -43 -51 -94 -46 -197 6 -104 25
-155 70 -188 84 -59 198 -16 264 100 10 17 21 32 24 32 3 0 16 -20 29 -45 31
-58 86 -122 122 -140 67 -35 141 -6 191 75 15 25 48 100 72 168 58 160 74 184
135 211 28 11 51 21 54 21 2 0 -7 -31 -19 -68 -19 -55 -21 -75 -13 -103 35
-123 170 -133 272 -20 l36 40 21 -63 c53 -160 157 -240 225 -172 42 42 81 220
55 251 -17 21 -67 19 -78 -2 -5 -10 -15 -51 -21 -91 -8 -44 -17 -72 -24 -69
-14 4 -52 78 -71 137 -32 98 -68 185 -79 192 -7 4 -25 8 -40 8 -23 0 -31 -7
-43 -35 -7 -19 -14 -46 -14 -60 0 -31 -78 -115 -108 -115 -37 0 -42 27 -15 94
46 112 119 186 185 186 27 0 58 28 58 52 0 39 -58 58 -122 38z"/>
<path d="M11314 32966 c-42 -19 -90 -80 -103 -132 -25 -98 -9 -176 69 -339 82
-172 133 -225 186 -190 25 16 26 21 21 69 -7 53 -37 92 -63 82 -9 -3 -26 20
-49 68 -73 153 -89 232 -61 301 25 59 74 69 202 39 103 -25 145 -7 123 52 -6
16 -27 26 -93 43 -96 24 -186 27 -232 7z"/>
<path d="M16613 32180 c-36 -11 -106 -86 -121 -130 -8 -21 -7 -33 4 -49 26
-36 58 -27 98 29 43 60 71 70 123 43 36 -19 38 -22 41 -76 2 -47 -6 -84 -53
-220 -30 -90 -55 -171 -55 -180 0 -9 11 -24 25 -33 46 -30 64 -6 124 172 44
132 54 174 58 249 5 82 3 93 -17 118 -49 62 -156 98 -227 77z"/>
<path d="M15322 32038 c-6 -7 -18 -56 -27 -108 -56 -313 -153 -600 -202 -600
-15 0 -57 81 -67 127 -9 40 -27 55 -63 51 -21 -2 -30 -10 -37 -33 -35 -118
-63 -169 -112 -197 -63 -36 -124 22 -124 117 0 39 9 65 40 121 40 73 119 154
149 154 41 0 55 54 23 83 -10 10 -27 17 -38 17 -29 0 -103 -50 -151 -103 -24
-26 -43 -42 -43 -37 0 5 -9 14 -21 20 -16 9 -34 7 -83 -10 -137 -45 -196 -166
-196 -405 0 -109 13 -162 43 -176 55 -25 110 39 72 81 -16 17 -17 35 -13 139
5 107 8 127 34 178 28 56 57 81 111 97 l22 7 -25 -50 c-46 -96 -30 -214 39
-285 81 -84 170 -84 255 2 26 26 52 55 57 66 10 17 13 16 35 -17 59 -85 142
-72 210 35 21 32 46 80 56 107 15 43 19 47 32 34 12 -11 13 -32 8 -106 -3 -51
-9 -108 -12 -129 -5 -31 -3 -38 16 -48 30 -16 67 1 81 37 6 16 14 87 16 159
l6 132 60 7 c34 3 69 10 78 15 24 13 29 45 12 70 -14 20 -21 21 -84 15 l-69
-7 0 207 c0 123 -4 214 -10 226 -12 22 -62 26 -78 7z"/>
<path d="M14082 31610 c-93 -57 -156 -189 -169 -346 -7 -93 -22 -116 -82 -128
-19 -3 -40 -11 -48 -17 -16 -14 -17 -51 -1 -67 17 -17 109 -14 132 3 27 21 32
19 46 -15 17 -40 79 -95 125 -110 75 -25 218 9 243 58 12 22 -2 59 -26 66 -10
4 -40 -3 -67 -15 -92 -41 -167 -12 -201 77 l-16 43 30 38 c51 66 143 214 158
256 22 62 18 119 -9 145 -34 32 -76 37 -115 12z m5 -172 c-20 -35 -43 -72 -51
-83 -14 -18 -15 -16 -2 22 19 55 34 83 59 110 34 38 31 18 -6 -49z"/>
<path d="M13363 31431 c-56 -35 -128 -160 -164 -286 -14 -47 -18 -54 -18 -29
-2 64 -82 87 -97 28 -8 -31 9 -135 42 -254 30 -107 60 -134 104 -90 13 13 20
33 20 59 0 61 28 206 57 293 33 99 94 198 123 198 28 0 73 -74 154 -255 37
-82 77 -160 88 -172 29 -31 73 -30 93 1 17 26 10 56 -18 73 -7 4 -42 73 -77
153 -74 164 -124 247 -168 278 -38 27 -96 28 -139 3z"/>
<path d="M11912 31377 c-30 -32 -105 -195 -142 -307 -92 -280 -70 -467 62
-536 61 -32 163 -7 221 54 14 15 39 52 56 81 l29 55 16 -55 c34 -118 67 -280
78 -391 19 -186 -8 -306 -82 -355 -74 -51 -179 -8 -282 115 -40 47 -88 131
-88 153 0 6 16 29 35 50 36 40 38 62 7 87 -25 19 -40 15 -87 -29 -73 -67 -71
-139 6 -257 145 -221 360 -303 489 -186 150 136 144 428 -20 979 -22 72 -44
160 -50 196 -15 89 -40 129 -80 129 -50 0 -57 -36 -30 -143 17 -66 21 -103 17
-147 -14 -132 -89 -250 -160 -250 -73 0 -108 92 -89 230 21 146 128 430 162
430 29 0 43 26 36 65 -11 56 -65 73 -104 32z"/>
<path d="M12585 31317 c-72 -34 -138 -105 -182 -194 -38 -76 -38 -78 -39 -207
-2 -129 5 -166 29 -166 7 0 39 -20 72 -45 173 -130 430 -108 572 49 61 69 78
102 64 132 -7 17 -19 24 -39 24 -22 0 -38 -12 -77 -62 -70 -87 -139 -122 -249
-126 -66 -2 -91 2 -135 20 -30 13 -56 28 -58 34 -2 6 20 25 48 44 84 54 173
144 209 211 60 113 51 229 -23 281 -47 33 -129 35 -192 5z m139 -93 c43 -42
-2 -162 -89 -242 -64 -58 -145 -114 -159 -109 -21 7 -18 120 4 179 22 60 85
139 135 169 37 23 88 24 109 3z"/>
<path d="M16552 31208 c-14 -14 -16 -106 -3 -127 10 -16 58 -18 73 -3 17 17
23 109 8 127 -15 18 -61 20 -78 3z"/>
<path d="M17950 24900 l0 -10120 995 0 995 0 0 10120 0 10120 -995 0 -995 0 0
-10120z"/>
<path d="M31865 34239 c-114 -65 -228 -143 -380 -261 -145 -112 -527 -489
-711 -703 -71 -82 -141 -161 -155 -175 -15 -14 -39 -45 -55 -70 -16 -25 -33
-48 -39 -52 -14 -11 -105 -10 -105 1 0 5 31 56 68 113 118 178 374 488 564
684 63 65 108 119 108 130 0 28 -19 44 -51 44 -76 0 -681 -718 -770 -914 -54
-118 15 -181 179 -162 161 19 661 126 828 177 73 22 109 56 100 93 -9 38 -50
62 -81 48 -14 -7 -25 -18 -25 -26 0 -15 -59 -33 -280 -85 -197 -46 -372 -82
-378 -77 -6 7 101 133 279 330 326 362 644 637 929 804 91 53 130 84 130 103
0 14 -38 49 -53 49 -7 0 -53 -23 -102 -51z"/>
<path d="M12702 14308 c-20 -20 -14 -360 12 -733 13 -187 27 -447 31 -579 4
-131 9 -245 12 -252 4 -11 -11 -14 -73 -14 -332 -1 -745 -85 -1131 -230 -58
-22 -108 -40 -110 -40 -1 0 -10 25 -19 56 -17 58 -12 73 23 74 7 0 20 11 29
25 15 23 15 27 0 50 -9 14 -26 25 -37 25 -38 0 -99 -40 -117 -76 -16 -34 -15
-39 5 -117 11 -45 20 -82 19 -82 0 0 -62 -30 -136 -67 -192 -96 -343 -184
-351 -205 -9 -25 7 -63 28 -64 33 -2 42 1 120 48 155 92 367 194 374 181 23
-43 68 -327 69 -430 0 -44 -3 -58 -14 -58 -8 0 -96 16 -195 35 -203 39 -324
55 -423 55 l-68 0 0 63 c0 159 16 193 202 424 131 163 358 361 399 348 52 -17
80 54 39 95 -28 28 -57 25 -117 -13 -78 -49 -255 -199 -318 -271 -80 -90 -214
-265 -252 -328 -39 -64 -55 -155 -51 -282 4 -122 11 -127 191 -137 149 -9 208
-17 420 -59 253 -51 279 -44 285 85 5 90 -21 300 -52 430 l-23 96 36 15 c20 8
90 35 156 59 335 121 638 180 977 192 154 5 190 9 202 22 13 14 13 53 5 276
-5 143 -21 429 -35 635 -13 206 -24 453 -24 548 0 101 -4 181 -10 193 -12 22
-59 26 -78 7z"/>
<path d="M26526 14121 c-14 -15 -17 -29 -12 -53 4 -18 18 -123 32 -233 13
-110 47 -362 75 -560 81 -581 95 -637 171 -643 31 -3 40 2 72 39 37 44 45 76
24 97 -15 15 -60 16 -75 1 -8 -8 -14 4 -22 42 -18 84 -117 791 -146 1045 -15
126 -32 240 -39 254 -15 32 -56 38 -80 11z"/>
<path d="M26922 12778 c-16 -16 -15 -63 1 -75 42 -33 1033 -389 1330 -479 83
-25 153 -47 154 -48 4 -3 -28 -221 -33 -225 -2 -3 -12 6 -21 18 -13 20 -22 22
-55 18 -22 -3 -48 -13 -59 -23 -25 -22 -26 -79 -1 -93 26 -16 -4 -13 -45 4
-67 28 -103 15 -103 -37 0 -25 7 -32 48 -49 120 -52 211 -45 272 21 l35 38
315 11 c173 6 383 13 465 15 193 6 235 21 235 85 0 42 -81 107 -399 318 -561
372 -702 449 -732 402 -17 -28 -8 -57 33 -104 34 -39 46 -46 67 -42 l27 6 -16
-125 c-9 -68 -19 -126 -22 -129 -17 -18 -919 294 -1371 474 -85 34 -107 37
-125 19z m2081 -583 c174 -115 314 -212 311 -217 -3 -4 -80 -8 -171 -8 -91 0
-275 -5 -410 -11 -134 -6 -247 -9 -249 -6 -7 7 17 180 26 190 11 12 231 -43
259 -64 59 -47 135 8 90 65 -22 28 -94 53 -242 86 l-98 22 6 56 c9 80 11 85
45 104 16 9 30 24 30 32 0 19 -17 29 403 -249z"/>
<path d="M4975 12558 c-18 -44 -44 -261 -51 -433 -8 -197 -12 -206 -80 -241
-80 -40 -187 -149 -208 -211 -23 -66 -31 -188 -16 -242 23 -85 93 -117 151
-68 37 32 88 110 120 186 l27 65 6 -35 c3 -18 7 -68 10 -110 8 -119 35 -169
88 -169 46 0 63 15 113 94 49 78 56 119 24 139 -30 19 -63 0 -87 -48 -12 -25
-26 -45 -30 -45 -13 0 -22 184 -22 449 0 270 14 464 36 495 18 26 20 176 2
194 -7 7 -25 12 -41 12 -22 0 -31 -7 -42 -32z m-114 -805 c-33 -110 -121 -293
-141 -293 -14 0 -13 88 2 150 9 41 22 62 72 110 33 33 63 60 67 60 4 0 4 -12
0 -27z"/>
<path d="M30581 12547 c-63 -20 -145 -108 -195 -210 -113 -228 -143 -538 -87
-872 32 -184 58 -237 111 -220 45 14 45 -9 -4 612 -16 200 -13 231 39 368 54
144 135 235 208 235 55 0 108 -76 128 -185 31 -169 -54 -293 -142 -206 -28 28
-29 32 -16 52 31 44 -10 86 -66 67 -58 -21 -64 -94 -14 -159 46 -61 79 -81
136 -87 64 -6 102 10 145 60 43 49 61 113 61 208 -1 160 -73 303 -172 341 -31
12 -88 10 -132 -4z"/>
<path d="M34953 12540 c-74 -45 -98 -186 -34 -203 21 -5 61 17 61 34 0 6 18
36 40 66 46 64 48 75 20 103 -25 25 -46 25 -87 0z"/>
<path d="M5504 12515 c-33 -79 -113 -470 -145 -705 -12 -93 -22 -223 -23 -298
l-1 -134 33 -29 c38 -34 59 -36 112 -9 42 21 90 90 90 128 0 16 6 22 23 22 12
0 42 10 67 21 42 19 46 19 55 3 23 -39 81 -97 124 -122 38 -22 58 -27 116 -27
86 0 164 34 237 105 41 40 47 50 40 70 -5 13 -18 27 -29 31 -22 8 -36 1 -107
-51 -53 -39 -97 -58 -139 -59 -53 -2 -136 56 -151 105 -5 16 6 29 59 68 80 58
127 112 165 190 56 111 33 186 -55 186 -109 0 -248 -159 -278 -318 -10 -54
-15 -62 -46 -77 -20 -10 -45 -14 -62 -10 -15 4 -38 1 -49 -5 -18 -10 -21 -19
-18 -50 3 -33 0 -40 -16 -42 -11 -2 -29 -20 -40 -40 -33 -64 -40 -47 -32 80
13 239 110 800 152 880 17 33 18 94 2 110 -7 7 -25 12 -41 12 -23 0 -31 -7
-43 -35z m456 -613 c0 -22 -81 -131 -120 -162 l-44 -35 34 63 c18 35 54 81 78
103 47 41 52 44 52 31z"/>
<path d="M7160 12415 c-17 -20 -8 -263 19 -575 12 -124 21 -283 21 -355 0
-180 16 -225 78 -225 43 0 70 73 37 100 -12 10 -15 38 -15 134 0 66 -9 222
-20 346 -11 124 -23 297 -26 385 -7 173 -16 205 -58 205 -13 0 -29 -7 -36 -15z"/>
<path d="M33320 12368 c-58 -29 -158 -128 -198 -198 -17 -30 -40 -61 -52 -68
-14 -8 -21 -23 -21 -45 0 -17 -2 -57 -5 -87 -5 -47 -2 -60 18 -90 39 -58 98
-84 187 -83 141 2 223 48 184 103 -17 24 -24 24 -138 0 -86 -18 -155 8 -155
59 0 24 5 31 30 36 45 10 166 93 252 174 91 85 113 132 84 176 -33 50 -112 59
-186 23z m75 -88 c-11 -18 -157 -140 -167 -140 -17 0 54 82 101 116 45 32 79
45 66 24z"/>
<path d="M32361 12278 c-95 -47 -231 -217 -231 -287 0 -82 67 -151 145 -151
23 0 62 7 86 15 23 9 46 12 51 7 15 -15 49 -273 55 -413 7 -161 -7 -219 -62
-268 -114 -100 -381 -45 -475 96 -47 72 -39 118 31 166 23 17 29 61 11 79 -32
32 -107 -8 -148 -78 -61 -104 5 -253 151 -339 223 -132 485 -87 566 98 33 77
37 235 10 442 -34 255 -48 303 -99 324 -24 10 -38 9 -88 -8 -66 -24 -105 -26
-122 -9 -26 26 -9 67 63 148 l31 35 21 -25 c18 -21 25 -23 49 -15 23 8 33 23
51 70 26 71 27 86 11 108 -22 27 -59 29 -107 5z"/>
<path d="M33925 12253 c-11 -2 -51 -14 -88 -24 -61 -18 -70 -24 -83 -54 -18
-44 -18 -59 2 -101 25 -53 83 -93 153 -105 33 -6 67 -16 76 -23 16 -11 15 -14
-9 -29 -35 -23 -122 -45 -211 -53 -59 -5 -77 -3 -96 10 -31 21 -45 20 -69 -4
-26 -26 -25 -62 1 -86 18 -16 36 -19 123 -18 194 1 336 54 363 137 26 77 -26
135 -140 159 -36 8 -69 22 -85 37 l-26 24 36 13 c21 7 59 16 85 20 26 3 56 13
66 22 20 17 22 53 5 70 -12 12 -63 14 -103 5z"/>
<path d="M31655 12227 c-59 -22 -162 -84 -185 -111 -9 -12 -18 -10 -53 9 -160
87 -296 68 -382 -54 -26 -37 -30 -51 -30 -109 0 -54 6 -80 31 -132 39 -83 77
-127 115 -135 25 -6 36 -2 60 21 47 45 35 99 -23 99 -37 0 -59 29 -79 107 -11
41 -11 52 4 83 21 44 70 75 120 75 20 0 65 -11 99 -25 34 -14 66 -25 73 -25 6
0 11 -21 11 -53 1 -29 8 -66 17 -82 53 -103 216 -163 364 -136 177 32 283 130
283 260 0 48 -4 57 -38 91 -37 37 -116 70 -169 70 -14 0 -23 6 -23 15 0 8 -9
24 -20 35 -27 27 -97 26 -175 -3z m96 -142 c5 -5 47 -9 92 -10 103 0 137 -17
137 -70 0 -74 -134 -155 -254 -155 -62 0 -142 27 -179 60 -27 24 -32 35 -31
71 1 36 7 48 35 72 37 31 119 76 159 87 22 6 25 3 28 -19 2 -14 8 -30 13 -36z"/>
<path d="M32762 12219 c-23 -12 -51 -33 -61 -48 -45 -63 -53 -262 -14 -338 11
-21 35 -45 56 -56 35 -18 39 -18 62 -3 34 22 31 51 -7 87 -32 29 -33 31 -33
117 0 48 3 99 7 113 11 37 53 52 134 47 64 -3 69 -2 81 22 15 30 -1 61 -38 71
-53 15 -143 9 -187 -12z"/>
<path d="M29758 12165 c-18 -39 8 -64 133 -129 137 -70 139 -72 139 -102 0
-33 41 -59 69 -44 45 24 56 96 19 129 -35 34 -296 171 -323 171 -17 0 -29 -8
-37 -25z"/>
<path d="M34415 12161 c-64 -29 -87 -103 -61 -195 13 -43 25 -62 61 -92 25
-20 45 -42 45 -49 0 -22 -64 -55 -108 -55 -50 0 -66 20 -46 59 31 59 -48 93
-90 38 -27 -36 -25 -97 5 -138 46 -65 150 -78 240 -31 120 62 131 166 26 246
-36 27 -54 76 -41 110 3 8 24 20 45 26 50 14 66 42 44 76 -19 30 -62 32 -120
5z"/>
<path d="M34764 12105 c-43 -29 -35 -154 11 -171 49 -19 100 33 98 98 -3 77
-55 111 -109 73z"/>
<path d="M35651 12079 c-52 -27 -167 -158 -213 -244 -17 -33 -40 -66 -50 -73
-40 -29 -2 -111 45 -98 12 3 25 6 29 6 4 0 23 33 41 73 57 121 178 257 230
257 44 0 91 -115 91 -225 l1 -70 -64 3 c-72 2 -91 -8 -91 -48 0 -38 16 -48 93
-56 114 -12 156 22 164 130 9 121 -45 288 -109 336 -45 33 -111 37 -167 9z"/>
<path d="M35156 12075 c-75 -27 -168 -139 -206 -251 -25 -72 -20 -101 26 -148
128 -131 358 -3 380 212 8 75 -7 123 -53 167 -41 39 -79 45 -147 20z m90 -110
c19 -26 17 -82 -5 -130 -21 -46 -79 -102 -118 -111 -34 -9 -77 14 -81 44 -5
32 54 136 103 180 45 42 79 48 101 17z"/>
<path d="M6414 11956 c-150 -80 -304 -219 -304 -273 1 -59 34 -78 181 -103
101 -17 159 -38 159 -59 0 -4 -9 -16 -21 -27 -16 -14 -34 -18 -74 -17 -44 2
-57 -1 -79 -22 -31 -29 -33 -48 -6 -75 35 -35 150 -17 220 35 l35 26 5 -39 c9
-57 35 -90 93 -118 115 -53 288 -7 327 86 26 63 -32 124 -160 168 -28 10 -30
14 -20 33 21 38 82 99 100 99 23 0 60 46 60 74 0 46 -53 61 -100 30 -80 -54
-180 -184 -180 -235 0 -37 41 -70 129 -104 39 -16 71 -31 71 -35 0 -14 -80
-40 -121 -40 -22 0 -54 7 -70 16 -29 15 -30 17 -24 63 8 56 -8 76 -55 69 -27
-4 -30 -2 -30 23 0 66 -97 129 -225 144 -103 13 -104 15 -44 69 70 63 207 146
240 146 52 0 77 51 41 83 -28 26 -81 20 -148 -17z"/>
<path d="M8066 11885 c-14 -19 -52 -86 -83 -150 -43 -87 -62 -117 -79 -121
-28 -7 -152 33 -289 92 -135 60 -181 56 -173 -12 2 -23 11 -31 48 -45 25 -10
95 -38 156 -63 61 -25 140 -53 176 -62 l66 -16 -38 -107 c-81 -227 -136 -348
-213 -469 -33 -53 -38 -67 -29 -86 13 -29 45 -38 71 -19 54 37 161 256 266
542 49 133 78 198 107 235 31 41 38 57 33 81 -5 30 6 54 75 162 11 17 11 27 2
47 -18 40 -62 36 -96 -9z"/>
<path d="M4263 11720 c-18 -10 -45 -42 -61 -71 -17 -28 -44 -59 -61 -70 -27
-16 -31 -24 -31 -64 0 -38 -3 -45 -20 -45 -11 0 -37 -11 -58 -25 -46 -30 -140
-55 -206 -55 l-51 0 50 34 c94 63 134 190 80 255 -51 60 -143 66 -243 15 -105
-54 -154 -156 -119 -246 20 -49 15 -61 -18 -46 -51 23 -89 -57 -47 -95 23 -21
50 -21 124 -1 48 14 64 15 86 5 81 -37 264 -20 369 35 48 25 70 31 86 25 45
-17 62 2 96 105 33 104 65 164 85 164 19 0 44 -64 61 -155 19 -100 42 -145 86
-169 43 -24 100 -16 134 19 42 41 3 95 -53 74 -13 -5 -27 -9 -31 -9 -13 0 -29
47 -41 119 -33 188 -115 264 -217 201z m-436 -106 c13 -34 -26 -89 -95 -132
l-67 -43 -17 22 c-23 27 -23 56 1 95 34 55 162 98 178 58z"/>
<path d="M2370 11610 c-26 -26 -25 -63 3 -95 l22 -26 270 -15 c149 -8 293 -21
320 -28 28 -7 79 -21 114 -31 71 -19 104 -12 114 24 7 30 -15 53 -64 66 -189
53 -201 54 -442 66 -230 12 -243 14 -270 36 -35 28 -42 28 -67 3z"/>
<path d="M34493 11458 c-6 -7 -17 -44 -26 -83 -14 -61 -14 -73 -1 -92 31 -48
12 -667 -22 -704 -19 -21 -15 -68 7 -82 25 -15 67 0 83 31 31 59 38 150 43
523 4 275 2 381 -6 397 -13 25 -62 30 -78 10z"/>
<path d="M33264 11166 c-17 -13 -19 -28 -19 -159 0 -135 -2 -147 -22 -169 -22
-25 -43 -86 -43 -130 0 -35 27 -61 57 -55 22 4 23 1 23 -48 0 -38 -4 -55 -15
-59 -26 -10 -19 -63 11 -83 24 -15 29 -15 53 -2 45 25 52 52 49 196 l-3 131
35 6 c74 12 119 7 160 -20 44 -29 76 -26 89 9 12 30 -2 51 -55 88 -46 31 -48
32 -139 27 l-93 -5 -7 88 c-4 48 -4 106 0 129 11 63 -31 92 -81 56z"/>
<path d="M5403 11119 c-12 -4 -26 -16 -31 -26 -22 -43 -39 -213 -52 -509 -5
-132 -15 -296 -21 -366 -16 -183 6 -268 70 -268 54 0 68 32 39 86 -20 37 -20
45 -9 179 6 77 16 245 21 374 6 129 15 273 20 320 5 47 10 89 10 94 0 4 6 7
14 7 20 0 46 28 46 49 0 42 -62 77 -107 60z"/>
<path d="M8418 11060 c-56 -44 -89 -196 -108 -505 -13 -197 -3 -400 24 -489
40 -133 139 -136 294 -7 l64 53 56 -25 c138 -62 339 -62 379 -1 14 22 14 26
-2 50 -14 22 -22 25 -48 20 -110 -22 -199 -16 -283 19 l-36 15 36 47 c55 72
134 206 151 253 43 122 -18 185 -126 130 -60 -31 -154 -132 -190 -205 -24 -50
-31 -76 -31 -123 0 -33 6 -70 12 -83 12 -21 10 -26 -26 -57 -41 -36 -123 -92
-135 -92 -15 0 -30 70 -40 188 -12 141 1 421 28 582 18 110 27 137 56 168 17
18 19 27 11 50 -12 35 -51 40 -86 12z m397 -607 c-38 -71 -114 -177 -121 -171
-6 7 17 79 36 111 18 30 108 127 117 127 3 0 -12 -30 -32 -67z"/>
<path d="M31323 11004 c-49 -24 -121 -107 -154 -178 -36 -78 -79 -243 -79
-306 0 -101 93 -229 207 -282 122 -58 241 -56 356 5 93 49 119 103 62 129 -19
9 -33 4 -82 -25 -79 -48 -128 -60 -202 -48 -79 13 -130 40 -180 97 -56 64 -68
107 -52 190 22 120 69 232 121 286 44 46 49 48 101 48 30 0 60 5 67 12 19 19
15 66 -7 78 -29 15 -122 12 -158 -6z"/>
<path d="M7848 10986 c-29 -15 -35 -52 -11 -78 16 -18 18 -39 17 -212 -1 -204
-21 -483 -35 -492 -5 -3 -9 8 -9 23 0 36 -16 53 -50 53 -37 0 -50 -18 -50 -66
0 -41 27 -83 70 -110 9 -5 21 -21 27 -35 6 -14 20 -29 32 -32 23 -6 61 18 61
37 0 8 10 16 23 20 46 11 104 64 131 118 70 143 26 295 -74 259 l-32 -11 7
168 c8 185 -4 313 -30 342 -22 24 -49 30 -77 16z m131 -693 c-13 -41 -39 -86
-46 -80 -2 2 8 32 23 66 29 67 44 76 23 14z"/>
<path d="M34115 10976 c-27 -7 -69 -22 -92 -34 -37 -19 -42 -20 -54 -6 -16 20
-63 44 -84 44 -34 0 -87 -34 -112 -70 -34 -53 -53 -129 -59 -245 -5 -84 -3
-105 13 -135 13 -25 26 -36 45 -38 52 -6 89 65 53 102 -10 10 -15 33 -14 68
l1 53 8 -48 c21 -124 135 -197 260 -167 94 22 165 96 217 223 20 49 23 65 14
84 -9 20 -17 24 -43 21 -30 -3 -36 -10 -78 -93 -48 -95 -83 -129 -146 -141
-100 -19 -166 100 -96 176 38 41 133 96 193 110 43 11 52 10 68 -4 24 -22 54
-20 76 4 15 16 16 25 7 45 -24 53 -93 73 -177 51z m-247 -145 c-18 -21 -34
-37 -36 -36 -6 4 17 53 33 69 33 32 35 4 3 -33z"/>
<path d="M32733 10915 c-90 -39 -223 -149 -271 -224 -19 -31 -43 -68 -54 -83
-26 -39 -24 -76 7 -90 35 -16 70 12 113 88 69 125 260 255 318 216 40 -26 41
-94 4 -251 -26 -109 -26 -127 6 -148 24 -16 28 -16 59 1 39 22 82 65 85 86 5
35 -1 50 -23 55 l-23 6 14 86 c16 97 6 172 -28 216 -42 53 -138 72 -207 42z"/>
<path d="M4725 10881 c-45 -27 -110 -102 -139 -160 -65 -127 -103 -361 -88
-528 6 -69 5 -83 -6 -83 -8 0 -32 -16 -54 -36 -54 -48 -95 -64 -170 -64 -78 0
-129 27 -173 88 -27 39 -30 53 -34 133 l-3 89 37 46 c20 24 63 84 96 131 49
72 59 94 59 128 0 65 -43 92 -97 62 -48 -27 -128 -152 -158 -247 -22 -68 -31
-80 -61 -80 -30 0 -55 -35 -45 -64 4 -11 22 -28 39 -36 28 -13 32 -20 32 -57
0 -103 77 -221 175 -269 50 -24 63 -26 148 -22 98 5 143 21 205 73 l31 26 6
-28 c18 -83 78 -281 93 -306 25 -43 54 -51 88 -25 l27 22 -7 110 c-3 61 -15
199 -26 306 -11 107 -20 222 -20 256 0 68 -22 101 -58 90 -18 -6 -19 -3 -11
41 22 122 74 237 129 287 48 44 77 46 91 9 23 -62 -37 -185 -117 -239 -48 -33
-57 -52 -40 -86 18 -36 51 -34 106 8 93 71 152 179 153 278 0 68 -18 112 -59
145 -34 27 -107 28 -149 2z"/>
<path d="M31945 10866 c-100 -42 -185 -160 -188 -263 -2 -72 95 -162 198 -183
170 -35 316 110 315 314 0 77 -28 143 -64 152 -34 8 -57 -1 -63 -25 -5 -19 -6
-19 -42 -1 -60 32 -90 33 -156 6z m225 -137 c0 -97 -53 -185 -126 -209 -46
-16 -114 2 -154 40 -35 33 -37 55 -9 114 25 55 54 82 104 99 36 12 44 12 80
-4 42 -19 70 -12 82 17 10 26 23 -6 23 -57z"/>
<path d="M6884 10662 c-16 -10 -94 -159 -144 -274 -34 -77 -47 -98 -63 -98
-11 0 -36 -18 -56 -39 -63 -68 -115 -64 -192 12 -51 51 -159 212 -159 237 0
26 -43 54 -70 45 -31 -10 -43 -41 -31 -77 16 -47 134 -219 186 -272 75 -78
172 -112 240 -86 21 8 26 7 22 -2 -2 -7 -41 -99 -85 -205 -124 -295 -143 -372
-102 -413 30 -30 58 -24 101 19 44 44 48 62 18 92 -18 18 -19 24 -8 57 35 107
327 781 379 877 41 74 44 91 21 114 -22 22 -38 26 -57 13z"/>
<path d="M5773 10612 c-102 -36 -255 -158 -295 -236 -63 -123 -8 -266 102
-266 68 0 131 50 193 153 l34 58 26 -43 c61 -103 170 -193 269 -223 43 -12 55
-12 82 -1 65 27 47 97 -23 94 -81 -3 -204 100 -265 223 -20 40 -36 77 -36 84
0 17 -48 37 -71 30 -11 -4 -38 -44 -64 -98 -53 -105 -87 -154 -121 -169 -48
-22 -70 35 -40 105 16 38 86 105 158 150 82 51 103 58 125 42 24 -19 48 -19
67 1 25 24 20 60 -12 83 -42 30 -72 33 -129 13z"/>
<path d="M7339 10558 c-74 -36 -218 -174 -263 -251 -56 -95 -43 -228 28 -282
25 -19 45 -25 83 -25 60 0 103 25 148 87 30 42 45 52 45 32 0 -26 58 -123 92
-155 32 -29 45 -34 86 -34 41 0 52 5 79 33 17 17 40 51 52 74 36 72 24 113
-31 113 -25 0 -31 -7 -53 -55 -13 -30 -32 -58 -41 -62 -37 -14 -91 89 -114
218 -16 87 -25 101 -62 97 -34 -3 -33 -2 -81 -108 -44 -97 -80 -140 -118 -140
-35 0 -49 23 -49 83 0 38 7 55 45 105 54 71 136 149 188 177 34 18 37 18 55 2
24 -22 45 -22 65 1 31 34 12 84 -40 111 -32 16 -43 14 -114 -21z"/>
<path d="M3738 10556 c-56 -20 -83 -41 -127 -96 -43 -55 -81 -142 -88 -207
-14 -116 114 -415 187 -438 41 -13 90 43 90 103 0 38 -22 55 -61 50 -30 -5
-33 -2 -60 57 -31 69 -59 169 -59 211 0 34 41 125 76 171 14 18 38 40 54 48
27 14 32 14 55 -1 20 -13 31 -14 49 -6 50 22 33 82 -30 108 -40 17 -39 17 -86
0z"/>
<path d="M34573 10035 c-13 -9 -27 -34 -33 -57 -55 -202 -87 -500 -70 -642 11
-89 19 -116 48 -149 15 -17 14 -20 -16 -43 -59 -47 -78 -115 -47 -173 20 -39
63 -55 135 -48 140 12 270 146 270 276 0 45 -4 57 -29 82 -37 37 -64 37 -163
2 -42 -15 -80 -24 -83 -21 -4 4 -11 41 -16 84 -13 101 12 368 47 514 39 165
39 156 13 174 -29 20 -29 20 -56 1z m187 -847 c0 -69 -112 -168 -190 -168 -40
0 -38 16 10 60 27 25 38 42 34 56 -4 16 7 24 63 46 84 33 83 33 83 6z"/>
<path d="M35712 10028 c-5 -7 -12 -22 -15 -33 -11 -39 -27 -283 -37 -560 -12
-367 -24 -474 -53 -497 -17 -13 -21 -27 -21 -58 2 -49 21 -72 60 -72 78 0 92
94 124 828 6 132 15 266 20 298 12 75 1 106 -39 106 -15 0 -33 -6 -39 -12z"/>
<path d="M32400 9925 c-18 -21 3 -739 23 -788 31 -72 78 -54 160 61 32 45 63
80 67 77 4 -3 11 -79 15 -170 7 -152 9 -167 28 -180 34 -24 65 -18 127 26 63
44 75 67 53 98 -17 25 -50 27 -79 6 -21 -14 -22 -13 -28 38 -3 29 -6 75 -6
104 0 217 -105 270 -220 111 -37 -50 -40 -40 -40 131 0 259 -12 472 -27 487
-19 18 -57 18 -73 -1z"/>
<path d="M10442 9777 c-28 -29 -28 -62 -1 -80 11 -9 26 -38 34 -68 17 -63 66
-343 95 -544 21 -143 34 -179 70 -190 32 -10 62 16 116 102 l49 78 5 -103 c5
-98 6 -105 33 -128 58 -50 213 -7 190 53 -3 8 10 4 33 -12 32 -22 46 -26 78
-20 21 3 51 14 66 25 l28 20 6 -38 c7 -49 58 -109 101 -121 98 -27 207 64 299
251 l43 88 17 -83 c9 -46 13 -98 10 -115 -5 -22 -2 -38 9 -50 24 -28 29 -58
12 -72 -46 -38 20 -120 74 -91 39 21 46 80 25 193 -5 25 0 30 75 68 92 46 120
77 103 115 -9 18 -19 25 -41 25 -16 0 -33 -5 -36 -10 -8 -14 -100 -60 -119
-60 -10 0 -17 22 -25 78 -25 176 -33 269 -27 314 8 61 -5 88 -43 88 -40 0 -49
-16 -61 -101 -6 -41 -15 -91 -21 -112 -5 -20 -7 -41 -4 -46 3 -5 2 -11 -3 -13
-4 -1 -24 -46 -45 -98 -43 -109 -118 -225 -167 -258 -41 -27 -50 -25 -73 19
-16 29 -18 49 -12 136 3 56 2 104 -3 107 -5 3 -7 27 -4 54 4 44 2 51 -23 70
-34 27 -61 28 -102 2 -62 -38 -174 -225 -176 -295 -1 -27 -4 -32 -14 -23 -10
8 -24 8 -52 -1 -21 -6 -41 -11 -45 -11 -3 0 -6 33 -6 73 -1 85 -15 155 -37
179 -10 11 -30 18 -51 18 -28 0 -43 -9 -76 -42 -23 -24 -49 -54 -57 -68 -16
-24 -16 -24 -23 35 -15 123 -76 463 -101 560 -14 58 -32 105 -42 113 -26 19
-57 14 -81 -11z m782 -706 c-24 -55 -79 -119 -91 -107 -5 5 41 97 75 148 39
59 49 32 16 -41z"/>
<path d="M35412 9640 c-23 -16 -49 -41 -58 -55 -15 -23 -15 -27 0 -50 13 -19
25 -25 49 -24 18 1 37 1 42 -1 40 -10 56 9 70 83 6 28 3 39 -14 56 -28 28 -40
27 -89 -9z"/>
<path d="M9956 9628 c-23 -32 -19 -97 18 -373 29 -215 31 -241 17 -249 -69
-38 -66 -137 4 -124 22 5 25 2 25 -22 0 -15 3 -55 6 -89 l7 -61 -31 0 c-44 0
-56 -26 -41 -87 25 -102 66 -140 116 -108 41 27 47 58 46 238 -1 92 2 167 5
167 35 1 150 34 188 53 55 28 74 56 99 139 20 69 10 98 -34 98 -35 0 -44 -10
-66 -78 -9 -29 -27 -59 -38 -67 -22 -14 -129 -45 -157 -45 -12 0 -21 46 -49
259 -20 157 -31 273 -27 295 4 20 2 44 -4 56 -15 28 -64 27 -84 -2z"/>
<path d="M31160 9619 c-23 -42 -50 -174 -57 -270 l-6 -97 -37 5 c-37 5 -38 5
-71 -57 -40 -76 -82 -120 -114 -120 -105 0 -195 124 -195 268 0 73 -10 92 -47
92 -12 0 -42 5 -66 12 -24 6 -54 8 -68 5 -93 -23 -261 -224 -261 -311 0 -54
28 -95 79 -118 84 -37 176 -7 256 82 l46 51 15 -28 c22 -43 96 -110 146 -132
102 -46 192 -14 260 91 22 33 42 69 46 80 5 16 13 6 40 -51 28 -57 43 -75 78
-96 86 -50 176 -19 279 96 l55 62 7 -59 c27 -219 128 -306 239 -204 24 22 57
65 72 95 16 29 37 56 46 58 15 4 18 -2 18 -43 0 -39 -4 -50 -19 -55 -10 -3
-21 -14 -24 -24 -7 -28 28 -98 52 -106 60 -19 91 33 91 153 l0 79 105 5 c94 4
109 8 151 34 51 32 66 57 53 92 -6 15 -17 22 -35 22 -14 0 -40 -10 -57 -22
-27 -19 -48 -24 -124 -26 l-93 -4 0 197 c0 116 -4 204 -10 216 -12 22 -59 26
-78 7 -9 -9 -12 -69 -12 -208 l0 -196 -35 -13 c-23 -8 -37 -21 -41 -37 -4 -14
-13 -24 -24 -24 -11 0 -29 -20 -48 -52 -16 -29 -40 -62 -52 -73 -22 -20 -22
-20 -36 0 -8 11 -20 38 -26 60 -17 55 -16 257 1 332 16 73 7 93 -40 93 -25 0
-33 -9 -73 -87 -81 -156 -202 -293 -260 -293 -24 0 -55 28 -77 70 -21 41 -13
198 18 324 30 121 26 139 -25 144 -23 2 -34 -2 -42 -19z m-587 -294 c-27 -138
-166 -261 -227 -200 -13 13 -12 20 12 63 14 26 54 75 87 110 55 56 65 62 97
60 35 -3 36 -4 31 -33z"/>
<path d="M36011 9605 c-52 -60 -54 -105 -6 -134 47 -29 69 -14 95 63 17 51 19
69 10 85 -18 34 -62 27 -99 -14z"/>
<path d="M36235 9606 c-12 -18 -13 -30 -5 -50 5 -15 10 -59 10 -97 0 -39 7
-85 15 -106 9 -20 15 -66 15 -108 0 -52 -4 -76 -15 -85 -19 -16 -19 -40 1 -69
20 -28 14 -102 -12 -148 -17 -29 -17 -32 -1 -57 29 -44 88 -30 106 26 5 18 13
57 16 86 4 29 10 51 14 50 72 -39 189 -88 206 -88 28 0 55 34 48 60 -3 13 -49
40 -134 81 l-129 62 0 83 c0 48 -6 100 -14 121 -8 21 -16 77 -18 124 -3 60
-10 95 -21 113 -22 33 -61 35 -82 2z"/>
<path d="M33115 9440 c-87 -26 -174 -203 -175 -354 0 -43 4 -53 38 -86 48 -48
95 -59 157 -35 122 46 193 245 135 374 -11 24 -20 52 -20 62 0 33 -79 56 -135
39z m61 -135 c27 -41 16 -144 -22 -197 -35 -50 -74 -69 -100 -48 -21 19 -15
91 16 174 35 93 74 119 106 71z"/>
<path d="M35195 9416 c-13 -19 -14 -28 -3 -50 17 -39 -4 -159 -35 -196 -31
-36 -53 -155 -36 -192 13 -30 35 -39 66 -27 16 6 28 31 52 106 65 212 75 295
41 351 -24 40 -62 43 -85 8z"/>
<path d="M36910 9360 c-11 -11 -20 -33 -20 -48 0 -48 126 -213 203 -268 l28
-20 -95 -140 c-52 -77 -127 -196 -166 -265 -104 -181 -330 -640 -330 -671 0
-31 34 -60 59 -51 27 10 51 35 51 55 0 22 150 331 260 533 111 205 332 538
403 606 30 30 37 48 26 77 -14 36 -64 30 -105 -13 -39 -42 -59 -43 -101 -7
-44 38 -133 159 -133 182 0 17 -34 50 -52 50 -5 0 -17 -9 -28 -20z"/>
<path d="M33862 9344 c-66 -33 -151 -109 -168 -151 -26 -62 -11 -157 33 -205
19 -21 73 -33 108 -24 14 4 43 22 64 41 42 38 51 42 51 22 0 -23 58 -95 89
-112 60 -31 121 -13 189 56 64 66 68 120 10 127 -20 2 -37 -9 -74 -48 -59 -63
-80 -63 -111 0 -23 47 -31 159 -17 243 13 79 -70 103 -174 51z m45 -121 c1
-43 -15 -78 -58 -128 -47 -53 -69 -44 -69 29 0 23 9 40 33 62 24 23 73 62 93
74 0 0 1 -17 1 -37z"/>
<path d="M35907 9352 c-20 -22 -21 -36 -6 -60 14 -22 -13 -161 -38 -199 -19
-29 -9 -79 19 -94 37 -20 64 3 83 68 30 103 46 197 40 231 -12 63 -64 91 -98
54z"/>
<path d="M29114 9335 c-21 -32 -10 -80 24 -103 23 -15 58 -17 297 -17 283 0
307 3 318 44 3 11 -1 28 -8 38 -12 17 -32 18 -267 14 l-253 -3 -28 26 c-35 33
-62 33 -83 1z"/>
<path d="M33474 9346 c-18 -8 -46 -35 -63 -60 -41 -59 -101 -185 -101 -211 0
-25 18 -50 41 -58 23 -8 59 20 59 44 0 22 39 103 78 162 l26 39 34 -37 c71
-77 147 -18 81 63 -53 64 -102 82 -155 58z"/>
<path d="M9006 9160 c-14 -17 -26 -39 -26 -49 0 -9 20 -35 44 -58 32 -30 50
-40 65 -36 45 12 47 59 7 143 -18 38 -57 38 -90 0z"/>
<path d="M9385 9126 c-70 -38 -84 -65 -67 -123 14 -46 95 -175 140 -222 37
-39 43 -84 13 -101 -57 -30 -180 7 -211 65 -14 24 -23 30 -51 30 -28 0 -35 -5
-43 -28 -26 -73 92 -165 223 -175 191 -13 266 142 138 284 -19 22 -53 68 -76
103 l-41 65 45 28 c44 27 49 36 45 68 -2 17 -28 40 -44 40 -6 0 -38 -15 -71
-34z"/>
<path d="M7009 9089 c-15 -15 -19 -27 -14 -42 4 -12 11 -78 16 -147 16 -217
24 -262 55 -289 31 -26 39 -26 194 3 50 10 195 20 350 26 373 15 435 25 484
79 43 48 -26 110 -74 66 -26 -24 -109 -33 -405 -44 -235 -9 -418 -27 -468 -46
-21 -9 -25 15 -33 213 -7 185 -12 202 -60 202 -13 0 -33 -9 -45 -21z"/>
<path d="M7798 9019 c-21 -12 -24 -59 -6 -77 8 -8 46 -12 103 -12 121 -1 337
-17 403 -31 94 -19 113 -65 66 -165 -42 -89 -198 -204 -334 -244 -48 -14 -55
-20 -58 -44 -8 -70 69 -73 203 -6 243 121 372 335 285 477 -38 63 -119 87
-345 103 -178 12 -295 12 -317 -1z"/>
<path d="M8900 8905 c-22 -27 -39 -245 -21 -274 10 -16 58 -18 73 -3 6 6 16
64 23 129 10 99 10 122 -2 141 -16 25 -54 29 -73 7z"/>
<path d="M13545 8346 c-87 -28 -182 -86 -195 -120 -9 -23 10 -79 37 -108 36
-40 89 -7 80 50 -6 33 -5 34 49 59 31 14 73 27 95 30 37 5 39 4 39 -21 0 -59
-25 -128 -106 -292 -46 -94 -84 -183 -84 -197 0 -30 33 -57 60 -50 11 3 48 65
104 176 125 250 153 387 95 461 -18 23 -28 26 -77 25 -31 0 -75 -6 -97 -13z"/>
<path d="M11408 8056 c-62 -25 -202 -119 -224 -150 -21 -30 -17 -70 9 -95 18
-16 51 -26 133 -40 176 -30 225 -61 183 -115 -21 -26 -87 -66 -110 -66 -6 0
-9 8 -6 19 7 27 -19 61 -46 61 -30 0 -64 -25 -82 -60 -21 -41 -19 -58 14 -91
25 -25 37 -29 83 -29 30 0 75 7 101 16 53 18 144 95 153 129 5 21 9 22 39 13
27 -9 41 -7 88 15 31 14 76 44 101 68 26 23 47 40 49 38 1 -2 15 -30 31 -62
50 -101 118 -140 174 -101 12 8 49 55 82 104 69 102 103 132 180 154 l55 16
19 -27 c36 -54 208 -212 242 -225 42 -15 47 9 -47 -262 -82 -239 -96 -319 -60
-355 47 -47 113 -7 89 55 -13 35 12 127 92 350 63 175 69 186 105 196 65 16
175 145 175 204 0 29 -23 46 -56 42 -21 -2 -33 -14 -51 -48 -30 -57 -47 -75
-33 -35 27 78 97 200 115 204 42 7 58 45 36 81 -13 19 -74 17 -106 -4 -30 -20
-90 -128 -141 -252 -28 -70 -42 -94 -56 -94 -21 0 -142 103 -192 163 -20 24
-36 54 -36 66 0 24 -33 61 -55 61 -8 0 -24 -9 -35 -20 -11 -11 -26 -17 -34
-14 -19 7 -109 -20 -151 -46 -43 -27 -90 -80 -140 -157 -22 -35 -44 -63 -48
-63 -5 0 -28 42 -52 94 -24 51 -51 96 -60 100 -38 14 -62 4 -110 -45 -28 -28
-63 -60 -80 -72 l-30 -22 22 30 c71 97 170 174 223 173 54 -2 77 45 40 82 -59
59 -199 -17 -328 -177 l-75 -93 -28 24 c-38 32 -97 53 -193 69 l-79 13 65 42
c46 30 74 42 96 40 38 -3 62 17 62 51 0 61 -38 77 -112 47z"/>
<path d="M10749 8042 c-82 -53 -137 -127 -160 -216 -11 -43 -16 -50 -58 -68
-25 -11 -73 -33 -107 -49 -86 -41 -174 -35 -216 13 -26 29 -23 39 26 106 35
47 49 59 64 55 33 -8 61 14 69 55 12 62 1 82 -46 82 -38 0 -126 -74 -182 -153
-47 -67 -50 -75 -46 -119 8 -85 77 -147 184 -164 63 -10 147 4 186 30 19 13
57 31 85 40 29 10 54 22 58 27 3 5 19 -2 35 -15 88 -74 283 -51 393 45 47 41
58 73 34 97 -21 21 -59 13 -99 -21 -65 -56 -178 -82 -245 -56 l-28 10 34 27
c61 46 162 146 176 174 54 104 -48 169 -157 100z"/>
<path d="M9350 8030 c-93 -48 -188 -199 -210 -331 -11 -62 -15 -71 -42 -85
-16 -8 -31 -14 -32 -12 -2 2 -11 33 -20 71 -36 135 -104 249 -168 283 -62 32
-145 1 -204 -76 -26 -35 -104 -187 -119 -231 l-8 -24 -4 24 c-3 13 0 28 6 34
18 18 12 60 -14 100 -20 28 -33 37 -54 37 -55 0 -56 -11 -32 -238 20 -178 26
-209 43 -224 27 -24 55 -22 72 5 8 12 31 75 50 139 62 204 153 368 205 368 49
0 100 -106 161 -335 23 -85 41 -115 72 -115 34 0 55 18 72 65 l18 46 20 -41
c26 -52 91 -107 142 -121 94 -26 213 16 292 103 35 39 36 61 6 86 -24 19 -36
15 -83 -24 -119 -99 -222 -96 -269 7 l-18 42 57 47 c118 100 196 196 217 266
18 64 13 96 -21 130 -30 30 -84 31 -135 4z m65 -102 c-4 -13 -13 -32 -20 -43
-22 -34 -137 -156 -143 -151 -3 3 9 34 27 70 43 88 156 190 136 124z"/>
<path d="M9787 7957 c-25 -17 -46 -106 -54 -217 -5 -79 -3 -101 11 -128 19
-38 63 -67 112 -77 96 -18 224 81 172 133 -18 18 -63 14 -82 -7 -23 -26 -69
-35 -97 -21 -21 12 -21 17 -16 99 8 108 13 124 40 136 28 13 34 51 11 76 -20
22 -72 25 -97 6z"/>
<path d="M13452 7648 c-7 -7 -12 -22 -12 -34 0 -12 -6 -34 -14 -49 -18 -34 -8
-65 23 -77 19 -7 29 -2 57 26 27 27 34 42 34 73 0 59 -53 96 -88 61z"/>
<path d="M8431 7017 c-26 -28 -35 -49 -51 -125 -39 -192 -51 -632 -18 -698 19
-40 63 -69 106 -69 37 0 37 0 38 -41 2 -81 69 -133 154 -119 56 9 154 77 200
139 110 145 113 284 8 369 -41 33 -103 57 -130 49 -24 -6 -38 -40 -28 -67 6
-15 -4 -33 -40 -75 -26 -30 -59 -74 -74 -97 -15 -23 -33 -40 -40 -37 -7 3 -29
-3 -50 -11 -29 -12 -42 -13 -50 -5 -15 15 -13 369 3 515 15 138 28 189 52 211
25 23 25 70 0 84 -31 16 -45 12 -80 -23z m409 -668 c33 -78 -64 -227 -182
-280 -22 -9 -31 -9 -42 0 -24 20 41 138 127 232 40 42 75 77 78 78 4 1 12 -13
19 -30z"/>
<path d="M10902 6941 c-29 -18 -44 -182 -19 -213 19 -24 44 -28 66 -10 17 14
22 34 27 109 5 68 4 97 -6 108 -14 16 -47 20 -68 6z"/>
<path d="M11693 6729 c-55 -27 -106 -92 -201 -252 -51 -86 -79 -124 -86 -117
-14 14 -49 13 -64 -2 -24 -24 -14 -64 28 -102 22 -20 45 -36 51 -36 28 0 53
32 143 183 54 91 116 184 138 207 l41 43 19 -23 c26 -32 45 -108 59 -230 13
-119 28 -157 65 -166 33 -8 89 18 97 45 6 23 -18 61 -37 61 -17 0 -26 22 -26
60 0 15 -7 67 -15 116 -33 190 -108 266 -212 213z"/>
<path d="M3850 6723 c-14 -3 -55 -36 -92 -75 l-68 -70 -63 65 c-73 76 -115 91
-166 61 -56 -33 -81 -129 -81 -310 0 -62 -3 -120 -6 -129 -5 -11 -30 29 -82
127 -101 194 -121 222 -157 226 -36 5 -55 -19 -55 -67 0 -42 7 -54 37 -69 13
-7 60 -85 120 -199 54 -104 106 -196 116 -205 23 -24 70 -23 92 2 21 23 33
145 34 327 1 116 16 203 36 203 7 0 34 -25 61 -56 88 -104 135 -105 225 -4 33
38 67 71 74 74 39 14 99 -79 149 -231 42 -126 90 -154 152 -86 52 56 40 108
-23 101 -26 -3 -29 1 -51 67 -13 39 -37 93 -53 122 -33 57 -102 123 -130 123
-10 0 -23 2 -31 4 -7 2 -24 1 -38 -1z"/>
<path d="M4580 6644 c-66 -31 -153 -119 -216 -220 -48 -77 -49 -80 -49 -159 0
-70 4 -87 30 -134 35 -64 80 -100 144 -117 129 -33 245 60 280 224 21 99 7
183 -41 259 -22 33 -31 58 -29 81 3 38 -19 77 -48 85 -11 2 -43 -6 -71 -19z
m50 -204 c29 0 54 -77 47 -146 -11 -108 -72 -189 -141 -187 -46 1 -81 27 -106
77 -40 83 -18 155 86 281 l37 46 29 -36 c16 -19 38 -35 48 -35z"/>
<path d="M6891 6648 c-129 -49 -242 -136 -311 -241 -24 -36 -53 -66 -70 -74
-17 -7 -32 -22 -36 -36 -7 -29 10 -67 31 -67 7 0 19 -16 25 -35 17 -51 55 -92
114 -123 46 -24 62 -27 151 -27 95 0 103 2 162 34 76 41 156 122 146 148 -7
22 -32 43 -50 43 -7 0 -36 -21 -64 -46 -29 -26 -71 -55 -93 -65 -83 -38 -219
-15 -260 42 -22 32 -21 34 27 48 86 26 249 112 300 159 114 106 141 209 66
247 -38 20 -73 18 -138 -7z m68 -95 c-46 -62 -94 -100 -183 -145 -54 -27 -100
-47 -103 -44 -3 3 22 32 55 65 75 73 273 179 231 124z"/>
<path d="M9585 6621 c-92 -71 -222 -251 -236 -327 -31 -166 107 -208 229 -69
22 25 42 45 46 45 3 0 6 -10 6 -23 0 -84 66 -197 133 -228 143 -64 294 26 410
245 21 39 37 60 37 49 0 -11 -7 -26 -15 -33 -31 -25 -7 -120 29 -120 18 0 25
-21 33 -93 9 -88 49 -121 93 -77 25 25 25 22 -4 147 l-23 103 54 41 c70 55
113 104 113 132 0 54 -56 63 -97 17 -15 -17 -41 -41 -59 -55 l-32 -24 -12 102
c-7 56 -18 108 -23 115 -6 7 -24 12 -41 10 -28 -3 -33 -9 -54 -68 -36 -102
-106 -242 -148 -299 -82 -110 -185 -144 -245 -80 -40 43 -50 86 -56 234 -3 72
-10 136 -15 143 -6 6 -23 12 -39 12 -25 0 -33 -9 -70 -81 -47 -91 -107 -172
-140 -189 -20 -11 -21 -10 -14 22 14 63 146 235 205 267 19 10 43 30 54 44 16
22 18 31 8 52 -18 39 -65 34 -127 -14z"/>
<path d="M7307 6562 c-42 -42 -77 -83 -77 -90 0 -9 -5 -10 -19 -2 -30 15 -66
12 -84 -8 -30 -33 -16 -82 23 -82 9 0 26 -13 38 -30 l22 -30 -56 -112 c-71
-142 -134 -238 -185 -282 -35 -29 -46 -34 -76 -29 -37 6 -63 -12 -63 -44 0
-29 48 -63 89 -63 82 0 186 112 295 318 l67 128 93 -93 c103 -103 166 -140
209 -124 14 6 30 17 35 26 6 12 11 -17 16 -91 16 -275 27 -358 47 -376 11 -9
28 -14 37 -11 39 13 42 31 42 224 0 103 5 223 10 266 12 88 40 234 47 246 2 4
21 -7 41 -24 55 -48 118 -73 187 -74 74 0 115 25 140 87 31 79 -7 200 -88 282
-128 127 -277 54 -353 -172 -30 -90 -32 -95 -39 -65 -11 47 -39 69 -73 57 -27
-10 -27 -11 -24 -89 1 -44 5 -90 7 -102 4 -18 0 -22 -22 -25 -17 -2 -32 -12
-38 -25 -5 -13 -14 -23 -20 -23 -5 0 -53 45 -107 101 l-98 101 67 129 c64 125
65 129 49 154 -28 42 -54 32 -139 -53z m692 -36 c51 -27 109 -141 97 -191 -9
-34 -47 -41 -102 -20 -47 18 -108 64 -124 95 -16 31 51 119 98 129 2 1 15 -5
31 -13z"/>
<path d="M5445 6618 c-52 -19 -158 -93 -212 -149 -148 -152 -175 -287 -74
-372 57 -47 122 -62 271 -61 131 1 343 29 429 58 43 14 57 47 32 77 l-18 23
-152 -28 c-334 -60 -521 -40 -521 57 0 70 123 217 230 276 l44 24 -45 -63
c-24 -35 -59 -75 -76 -89 -23 -18 -33 -34 -33 -53 0 -32 35 -60 66 -52 43 11
187 214 200 282 12 65 -58 99 -141 70z"/>
<path d="M11201 6611 c-10 -10 -44 -30 -75 -44 -60 -28 -159 -114 -182 -159
-21 -41 -18 -144 7 -195 76 -157 259 -100 330 103 62 175 6 381 -80 295z m-1
-146 c34 -41 -61 -246 -114 -245 -33 1 -56 43 -56 102 0 38 5 49 43 84 76 73
104 86 127 59z"/>
<path d="M5038 6559 c-24 -13 -94 -118 -124 -183 -13 -29 -27 -73 -30 -98 -6
-40 -3 -49 24 -79 27 -30 33 -33 58 -24 32 11 45 55 24 80 -15 19 6 76 58 156
l36 57 27 -20 c32 -24 66 -17 78 15 10 26 3 43 -35 80 -28 29 -82 36 -116 16z"/>
<path d="M10552 6548 c-17 -17 -15 -45 8 -92 13 -29 24 -88 35 -201 9 -88 20
-175 25 -194 20 -72 71 -92 116 -44 45 49 43 104 -5 111 -25 4 -26 9 -41 168
-13 141 -22 179 -53 225 -24 36 -63 49 -85 27z"/>
<path d="M9181 6530 c-89 -13 -120 -63 -121 -190 0 -50 -3 -56 -30 -72 -44
-25 -40 -57 15 -107 48 -45 61 -48 91 -27 17 13 19 29 22 133 4 165 1 159 67
168 60 7 87 30 78 66 -5 18 -42 41 -61 38 -4 -1 -31 -5 -61 -9z"/>
<path d="M12170 6421 c-15 -29 -13 -42 12 -68 20 -21 21 -27 10 -83 -6 -32
-28 -97 -50 -143 -34 -73 -46 -88 -83 -110 -24 -14 -59 -28 -77 -32 -23 -5
-34 -13 -38 -32 -11 -41 7 -58 57 -57 98 1 186 74 237 197 70 168 78 264 26
318 -33 34 -78 39 -94 10z"/>
<path d="M2482 6411 c-127 -5 -145 -8 -158 -25 -20 -28 -17 -53 7 -77 16 -16
28 -19 47 -14 47 12 284 24 368 18 78 -5 81 -5 101 21 20 25 21 60 3 71 -14 9
-221 12 -368 6z"/>
<path d="M8323 5368 c-14 -28 -17 -59 -18 -195 0 -153 -1 -161 -18 -151 -42
22 -204 -88 -314 -213 -98 -112 -125 -165 -131 -254 -5 -84 11 -124 61 -156
117 -74 299 90 400 361 l23 61 18 -168 c9 -93 16 -220 15 -282 -1 -112 2 -127
31 -131 34 -5 47 1 58 25 17 36 15 213 -3 375 -23 201 -45 475 -45 552 0 38 7
85 16 107 21 54 4 95 -43 99 -27 3 -34 -2 -50 -30z m-3 -446 c0 -26 -3 -28
-28 -24 -36 5 -42 -3 -88 -117 -65 -165 -180 -307 -239 -299 -30 4 -33 85 -6
141 26 53 132 175 191 221 34 26 149 99 168 105 1 1 2 -12 2 -27z"/>
<path d="M7648 5313 c-41 -48 -51 -113 -20 -135 10 -7 24 -28 31 -46 24 -59
78 -75 102 -30 8 14 6 30 -5 59 -9 22 -16 59 -16 82 0 74 -53 114 -92 70z"/>
<path d="M3717 5205 c-31 -29 -33 -42 -13 -71 11 -15 15 -73 18 -239 5 -228
13 -276 48 -295 34 -18 71 -11 100 19 36 36 31 68 -16 87 l-33 14 -3 245 c-3
205 -5 247 -18 255 -26 16 -54 11 -83 -15z"/>
<path d="M5506 5099 c-14 -11 -46 -47 -71 -79 -102 -132 -145 -292 -94 -346
28 -29 92 -50 185 -59 103 -9 118 -13 105 -29 -17 -20 -141 -73 -188 -80 -40
-6 -43 -5 -43 17 0 13 -5 28 -12 35 -20 20 -65 14 -82 -10 -37 -53 -3 -122 68
-138 132 -30 376 94 376 191 0 71 -38 93 -186 110 -125 14 -144 21 -144 56 0
56 42 126 164 278 18 23 18 25 2 49 -20 31 -45 33 -80 5z"/>
<path d="M6791 5056 c-18 -21 -26 -162 -11 -181 21 -25 69 -19 82 10 6 14 19
25 29 25 24 0 48 36 42 61 -3 11 -16 27 -28 35 -12 8 -27 25 -33 39 -13 28
-61 35 -81 11z"/>
<path d="M4435 5048 c-87 -31 -197 -132 -259 -237 -32 -55 -32 -56 -100 -69
-60 -12 -70 -12 -85 2 -60 54 -111 -28 -55 -89 24 -26 29 -27 87 -21 116 13
107 15 122 -29 32 -94 157 -154 293 -142 125 12 224 56 320 142 57 51 68 74
52 105 -18 34 -56 25 -118 -30 -111 -99 -252 -141 -366 -109 -71 20 -125 99
-78 116 96 33 169 71 214 111 114 103 143 208 67 247 -32 17 -52 18 -94 3z
m16 -116 c-12 -23 -81 -86 -111 -102 -65 -35 -9 39 69 91 52 34 55 35 42 11z"/>
<path d="M4842 5024 c-52 -31 -72 -68 -72 -135 0 -95 51 -172 130 -198 l55
-18 -55 -31 c-30 -18 -69 -32 -85 -32 -38 0 -55 -16 -55 -51 0 -38 22 -52 74
-47 58 7 129 42 177 88 33 31 39 43 39 77 0 49 -26 76 -94 99 -54 19 -86 59
-86 110 0 33 17 53 62 71 31 14 43 44 28 73 -15 28 -65 26 -118 -6z"/>
<path d="M7133 5011 c-69 -32 -114 -117 -127 -244 -10 -93 -1 -141 36 -177 24
-25 38 -30 77 -30 26 0 52 5 58 11 15 15 87 -171 108 -281 14 -69 15 -93 6
-128 -34 -126 -203 -100 -286 43 -34 59 -39 97 -20 154 21 65 9 94 -38 89 -44
-4 -72 -60 -71 -143 2 -190 210 -366 370 -315 177 57 194 243 53 579 -59 142
-94 169 -150 115 -42 -40 -53 -25 -45 64 9 95 41 162 88 182 42 19 50 60 16
84 -27 20 -24 20 -75 -3z"/>
<path d="M6632 4908 c-18 -18 -14 -55 7 -70 15 -11 21 -35 30 -119 20 -187 28
-222 55 -246 49 -42 90 -6 106 92 11 67 1 95 -33 95 -22 0 -24 5 -34 107 -9
97 -12 108 -37 130 -29 25 -75 30 -94 11z"/>
<path d="M7510 4907 c-18 -9 -25 -21 -25 -41 0 -30 12 -41 58 -51 l27 -5 0
-140 c0 -130 1 -140 21 -154 23 -16 47 -12 67 12 16 21 16 264 -1 311 -21 59
-96 94 -147 68z"/>
<path d="M6243 4830 c-60 -36 -69 -84 -38 -211 21 -91 69 -195 95 -209 47 -25
100 24 100 92 0 41 -15 58 -51 58 -26 0 -28 4 -47 83 -10 45 -17 88 -15 95 3
7 24 12 54 12 41 0 51 4 65 25 15 23 15 27 0 50 -14 22 -24 25 -74 25 -39 0
-67 -6 -89 -20z"/>
</g>
</svg>
