<?xml version="1.0" standalone="no"?>
<!DOCTYPE svg PUBLIC "-//W3C//DTD SVG 20010904//EN"
 "http://www.w3.org/TR/2001/REC-SVG-20010904/DTD/svg10.dtd">
<svg version="1.0" xmlns="http://www.w3.org/2000/svg"
 width="1883.000000pt" height="1099.000000pt" viewBox="0 0 1883.000000 1099.000000"
 preserveAspectRatio="xMidYMid meet">

<g transform="translate(0.000000,1099.000000) scale(0.100000,-0.100000)"
fill="#000000" stroke="none">
<path d="M14562 10301 c-88 -5 -106 -9 -118 -26 -9 -12 -12 -28 -8 -40 15 -44
15 -131 0 -174 -10 -30 -12 -50 -5 -62 5 -10 9 -65 9 -123 0 -95 2 -106 21
-119 15 -11 29 -13 52 -6 18 5 100 9 184 9 83 0 163 4 176 9 29 11 39 41 23
73 -12 23 -12 23 -184 19 l-172 -3 0 56 0 56 109 0 c101 0 111 2 125 21 8 12
12 29 9 38 -12 34 -35 41 -138 41 l-101 0 4 63 c2 34 6 64 8 66 2 2 82 5 179
5 116 1 178 5 186 13 13 13 16 60 5 71 -18 17 -178 23 -364 13z"/>
<path d="M11545 9714 c-132 -2 -629 -10 -1105 -19 -2405 -42 -3255 -43 -4910
-9 -426 9 -1176 16 -1666 17 -864 2 -893 1 -913 -17 -22 -20 -28 -60 -11 -71
5 -3 429 -8 942 -10 513 -2 1262 -11 1663 -19 1622 -35 2669 -32 4885 11 1026
20 2950 22 3595 5 248 -7 680 -19 960 -27 820 -24 1338 -35 1668 -35 l307 0 9
-23 c17 -43 40 -222 52 -387 16 -237 14 -1049 -5 -1660 -28 -916 -35 -1346
-41 -2515 -8 -1557 -18 -1981 -65 -2835 -20 -354 -26 -715 -14 -804 9 -60 41
-87 76 -64 22 15 22 17 20 259 -2 156 4 375 17 604 45 800 61 1348 61 2190 1
859 18 2226 35 2800 31 1044 36 1379 25 1735 -16 536 -48 752 -119 790 -13 6
-140 10 -343 10 -343 0 -834 10 -1688 35 -289 8 -698 20 -910 25 -393 10
-2092 20 -2525 14z"/>
<path d="M2810 9620 c-7 -13 -7 -39 -1 -82 15 -94 39 -352 50 -543 20 -323 31
-874 41 -1990 24 -2685 63 -4140 145 -5470 23 -368 30 -413 68 -440 29 -20 43
-19 67 5 23 23 26 62 6 79 -17 15 -22 58 -41 356 -53 864 -85 1693 -105 2705
-23 1164 -30 1694 -40 2765 -12 1388 -26 1876 -60 2265 -16 177 -40 343 -52
357 -17 20 -66 16 -78 -7z"/>
<path d="M14561 9513 c-12 -10 -28 -42 -36 -73 -22 -85 -88 -527 -82 -544 10
-26 41 -36 68 -22 20 10 28 9 50 -7 105 -76 376 30 449 174 48 93 3 216 -123
341 -65 64 -131 101 -210 119 -32 7 -60 16 -63 21 -8 13 -30 9 -53 -9z m165
-134 c85 -40 204 -189 204 -256 0 -69 -139 -170 -248 -181 -43 -4 -50 -2 -65
22 -11 17 -27 26 -43 26 -23 0 -25 3 -20 28 3 15 14 84 25 154 11 69 24 135
29 145 5 10 12 35 16 56 6 34 9 37 34 31 15 -3 46 -15 68 -25z"/>
<path d="M13523 9470 c-18 -11 -33 -25 -33 -32 0 -7 -1 -122 -4 -256 -3 -232
-3 -243 16 -256 25 -18 57 -9 70 20 11 23 11 23 37 4 33 -24 251 -97 318 -106
53 -7 83 9 83 45 0 10 8 17 21 18 49 4 52 16 47 185 -4 152 -5 158 -37 223
-27 53 -43 73 -87 102 -76 51 -166 73 -294 73 -87 0 -111 -3 -137 -20z m340
-118 c56 -28 69 -39 89 -80 20 -41 23 -66 26 -191 l4 -144 -43 7 c-89 14 -180
49 -201 78 -17 24 -26 28 -69 28 -34 0 -55 -6 -67 -18 -18 -18 -18 -13 -15
147 3 99 9 176 16 190 11 22 15 23 103 19 78 -3 101 -9 157 -36z"/>
<path d="M16003 9441 c-18 -5 -44 -17 -59 -27 -28 -20 -50 -33 -74 -44 -12 -6
-15 -29 -16 -111 -1 -113 -18 -234 -40 -288 -18 -43 -18 -78 0 -88 8 -4 16
-21 18 -38 5 -48 56 -67 197 -73 148 -6 213 10 271 68 47 47 64 100 64 196 -2
156 -80 311 -189 370 -65 36 -122 47 -172 35z m113 -116 c83 -42 146 -166 148
-290 1 -89 -18 -126 -74 -149 -56 -22 -206 -22 -259 1 -38 17 -39 18 -26 43
17 33 41 168 50 275 7 84 22 120 58 135 35 14 50 12 103 -15z"/>
<path d="M1578 6763 c-60 -71 -385 -882 -373 -930 8 -34 45 -49 78 -32 26 15
89 87 84 98 -2 3 -9 17 -15 31 -12 23 -4 48 81 260 52 129 124 300 161 379 36
79 66 153 66 165 0 44 -53 63 -82 29z"/>
<path d="M770 6483 c-8 -3 -28 -11 -45 -19 -16 -7 -39 -14 -49 -16 -23 -4 -31
-18 -46 -89 -11 -49 -10 -65 9 -135 12 -43 23 -106 24 -138 5 -71 31 -102 73
-86 19 7 24 6 24 -5 0 -26 38 -55 73 -55 69 1 172 66 213 137 74 125 15 321
-117 387 -51 25 -120 33 -159 19z m126 -113 c40 -25 84 -109 84 -161 0 -52
-14 -85 -51 -118 -31 -28 -31 -29 -50 -10 -25 25 -42 24 -78 -7 l-31 -26 -1
104 c0 56 -4 129 -8 160 -6 51 -5 58 14 67 33 16 86 12 121 -9z"/>
<path d="M1955 6354 c-11 -11 -14 -24 -10 -38 19 -58 17 -73 -7 -79 -12 -4
-73 -7 -133 -7 -120 0 -135 -6 -135 -51 0 -48 17 -52 175 -47 80 3 145 2 145
-3 0 -4 3 -14 6 -23 4 -11 1 -16 -10 -16 -27 0 -41 -44 -26 -80 11 -27 29 -37
55 -30 6 2 31 2 57 1 45 -1 50 1 78 41 17 23 56 62 87 87 77 63 114 111 115
151 2 47 -28 67 -110 75 -37 3 -101 13 -143 21 -98 18 -124 18 -144 -2z m204
-110 c41 -4 68 -11 65 -16 -11 -17 -127 -99 -132 -93 -3 3 2 11 11 18 32 25
25 72 -13 86 -16 5 -30 13 -30 17 0 3 6 4 14 1 8 -3 46 -9 85 -13z"/>
<path d="M5791 5944 c-23 -29 -48 -104 -57 -169 -3 -22 -10 -50 -16 -62 -6
-12 -8 -33 -6 -47 3 -15 1 -26 -6 -26 -6 0 -155 -20 -331 -45 -176 -24 -390
-51 -475 -60 -101 -10 -168 -22 -192 -34 -30 -15 -46 -17 -80 -9 -24 5 -122
15 -218 23 -96 7 -176 14 -177 14 -2 1 -3 9 -3 19 0 22 -30 52 -52 52 -48 0
-57 -67 -38 -290 5 -58 14 -181 20 -275 10 -146 15 -172 31 -187 22 -19 55
-13 69 11 14 27 24 139 13 153 -6 7 -16 83 -22 168 -7 85 -14 177 -18 204 l-5
49 33 -6 c19 -4 95 -9 169 -13 210 -10 457 12 1012 90 441 63 519 69 773 63
127 -3 258 -11 293 -17 l62 -12 0 -42 c0 -72 20 -419 26 -462 l6 -41 -46 -5
c-57 -7 -76 -22 -76 -60 0 -20 6 -31 21 -36 31 -12 145 3 175 23 26 17 26 19
21 89 -18 216 -29 529 -20 549 14 30 -1 65 -29 71 -13 2 -48 9 -78 15 -91 19
-255 30 -422 31 l-157 0 5 28 c4 20 -9 57 -51 142 -31 63 -62 118 -68 122 -26
16 -66 8 -86 -18z m67 -185 c-22 -15 -31 -10 -24 14 3 12 6 29 6 37 1 8 8 2
16 -14 13 -24 14 -30 2 -37z"/>
<path d="M2073 5609 c-15 -5 -24 -20 -28 -46 -16 -90 -37 -185 -50 -230 -26
-86 -15 -124 38 -127 20 -1 23 -8 33 -102 14 -130 20 -152 42 -156 57 -13 73
20 61 123 -12 106 -12 105 21 119 63 26 75 76 35 143 -13 24 -36 87 -51 142
-14 55 -30 107 -35 116 -11 21 -39 28 -66 18z"/>
<path d="M5717 5492 c-11 -12 -17 -36 -17 -68 0 -63 -9 -94 -26 -94 -7 0 -29
-10 -49 -21 -30 -18 -45 -20 -96 -15 -84 10 -105 20 -114 53 -3 15 -11 34 -17
40 -14 18 -63 16 -78 -2 -14 -16 -12 -29 22 -189 25 -113 41 -139 79 -129 29
8 39 35 32 90 l-5 50 55 -10 c37 -7 72 -7 107 0 45 9 55 8 70 -7 27 -27 125
-60 176 -60 25 0 59 7 75 16 62 32 74 134 23 190 -22 22 -31 26 -64 21 -22 -3
-53 -15 -69 -26 l-30 -22 6 84 c5 70 3 86 -11 100 -23 22 -49 22 -69 -1z m173
-252 c0 -5 -7 -10 -16 -10 -8 0 -12 5 -9 10 3 6 10 10 16 10 5 0 9 -4 9 -10z"/>
<path d="M4990 5401 c-5 -11 -10 -38 -10 -61 0 -36 -2 -41 -17 -35 -40 17 -64
17 -82 1 -43 -39 -25 -106 29 -106 16 0 32 -4 35 -10 9 -14 -13 -50 -31 -50
-8 0 -26 -12 -40 -27 l-26 -28 -20 25 c-12 14 -34 52 -49 85 -16 33 -42 74
-60 90 -43 41 -108 41 -176 -1 -65 -40 -90 -90 -74 -145 24 -80 133 -107 201
-50 l34 28 28 -43 c15 -24 41 -52 58 -63 l31 -18 -38 -6 c-21 -3 -129 -9 -241
-13 -197 -7 -204 -8 -218 -30 -20 -29 -4 -61 34 -71 77 -19 1805 93 1849 120
19 12 21 47 5 67 -14 17 -33 22 -120 27 -84 5 -105 3 -120 -9 -18 -17 -168
-31 -672 -63 -129 -8 -275 -17 -325 -20 l-90 -6 34 23 c44 29 107 89 112 107
4 10 16 8 55 -12 72 -36 159 -60 194 -52 16 4 38 17 49 31 36 46 -4 97 -58 74
-30 -12 -88 6 -164 50 l-38 23 7 78 c7 89 -1 109 -47 109 -18 0 -32 -7 -39
-19z m-346 -193 c-18 -31 -39 -48 -61 -48 -33 0 -25 19 17 42 40 21 54 23 44
6z"/>
<path d="M1630 5290 c-6 -10 -29 -83 -51 -161 -49 -171 -83 -261 -200 -531
-49 -113 -92 -226 -95 -251 -6 -39 -3 -46 17 -61 34 -23 60 -20 98 12 24 20
34 36 34 57 0 16 -6 31 -12 33 -19 6 -14 22 60 192 94 217 141 344 191 509 50
167 54 187 38 206 -18 22 -67 19 -80 -5z"/>
<path d="M743 5238 c-28 -30 -63 -148 -63 -209 0 -123 79 -183 190 -145 l45
15 51 -50 c59 -58 102 -71 152 -45 63 32 113 152 97 232 -8 43 -60 104 -89
104 -47 0 -61 -52 -26 -97 11 -14 20 -35 20 -47 0 -26 -36 -106 -47 -106 -5 0
-31 22 -58 50 -58 59 -88 67 -155 45 -28 -9 -57 -14 -65 -11 -29 11 -12 149
22 187 15 18 21 69 9 88 -12 19 -61 12 -83 -11z"/>
<path d="M5760 4898 c-12 -13 -27 -30 -35 -39 -32 -34 -19 -81 47 -173 78
-110 118 -146 163 -146 44 0 68 30 89 117 10 36 24 72 33 78 19 14 20 64 2 76
-8 5 -22 9 -32 9 -10 0 -22 11 -26 24 -12 31 -30 36 -91 29 -45 -5 -52 -3 -75
21 -30 32 -49 33 -75 4z m184 -155 c-7 -21 -13 -46 -14 -55 0 -33 -17 -26 -53
22 -20 27 -37 52 -37 54 0 3 21 7 48 9 26 2 52 4 58 5 8 1 8 -9 -2 -35z"/>
<path d="M2072 4829 c-29 -11 -38 -51 -19 -92 8 -17 20 -70 27 -117 6 -47 14
-93 17 -103 3 -13 -1 -12 -21 8 -29 29 -48 31 -70 9 -20 -19 -20 -53 -1 -78 8
-11 15 -28 15 -38 0 -22 117 -135 168 -162 50 -26 97 -25 125 2 18 19 22 34
22 92 0 83 -11 98 -81 111 -26 5 -48 10 -50 12 -1 1 -12 67 -24 147 -30 199
-47 232 -108 209z m166 -477 c2 -7 -2 -10 -12 -6 -9 3 -16 11 -16 16 0 13 23
5 28 -10z"/>
<path d="M6869 4757 c-83 -13 -153 -28 -163 -37 -20 -16 -19 -68 5 -288 10
-97 11 -127 1 -142 -7 -11 -12 -29 -12 -40 0 -22 43 -55 59 -46 6 4 76 10 156
14 87 5 150 13 157 20 20 20 13 69 -13 91 -28 24 -56 26 -78 7 -9 -8 -46 -15
-88 -18 l-73 -4 0 47 c0 58 10 63 142 59 94 -2 97 -1 113 24 16 24 16 28 1 51
-15 23 -23 25 -99 27 -45 2 -103 3 -129 2 l-47 0 -7 54 c-3 29 -3 57 2 62 13
12 224 38 262 33 60 -9 106 43 75 86 -18 27 -68 27 -264 -2z"/>
<path d="M954 4721 c-88 -57 -147 -123 -147 -162 0 -37 20 -55 78 -69 86 -21
141 -41 165 -60 22 -17 23 -21 10 -34 -8 -9 -31 -19 -49 -22 -29 -6 -33 -5
-28 8 8 22 -20 58 -46 58 -13 0 -38 -13 -57 -28 -28 -24 -34 -36 -34 -67 0
-55 29 -75 108 -75 86 0 135 16 178 60 83 82 19 190 -140 236 -29 9 -50 20
-46 25 3 6 37 30 75 55 53 33 69 49 69 67 0 58 -54 62 -136 8z"/>
<path d="M5168 4119 c-286 -30 -472 -87 -626 -190 -77 -52 -89 -71 -67 -105
21 -33 44 -30 106 12 153 103 323 155 599 183 103 11 134 29 123 72 -5 16 -47
45 -56 38 -1 -1 -37 -5 -79 -10z"/>
<path d="M6216 4114 c-40 -40 -3 -79 85 -87 40 -4 100 -21 162 -47 113 -46
130 -48 151 -19 26 38 6 61 -90 102 -152 66 -274 86 -308 51z"/>
<path d="M4750 3780 c-12 -7 -16 -44 -21 -187 -4 -138 -9 -187 -22 -218 -21
-46 -16 -80 13 -95 40 -21 58 -4 85 81 22 72 25 97 25 243 0 113 -4 166 -12
174 -14 14 -47 15 -68 2z"/>
<path d="M3976 3514 c-59 -51 -248 -261 -334 -371 -62 -79 -82 -172 -44 -206
38 -35 82 -6 82 55 0 25 11 49 37 84 71 95 226 270 310 349 87 84 94 101 55
133 -25 20 -37 15 -106 -44z"/>
<path d="M6495 3445 c-123 -34 -197 -90 -235 -177 -52 -122 10 -289 128 -342
l37 -17 0 -82 c0 -79 -1 -82 -24 -87 -20 -4 -37 -29 -87 -131 -34 -70 -67
-130 -73 -134 -6 -3 -11 -22 -11 -40 0 -38 27 -61 60 -50 21 7 72 86 118 183
l30 62 7 -100 c6 -86 5 -103 -9 -113 -26 -20 -96 -182 -122 -285 -14 -53 -27
-131 -31 -173 -5 -71 -4 -77 17 -92 31 -22 61 -9 84 37 14 28 16 43 9 59 -15
33 16 170 63 282 l16 40 45 -125 c28 -78 45 -146 47 -180 4 -91 40 -129 91
-96 40 26 33 78 -39 291 -61 183 -64 195 -70 319 -4 71 -9 141 -12 155 -3 15
19 -11 53 -63 45 -67 58 -95 55 -116 -3 -20 3 -32 23 -49 15 -11 35 -21 44
-21 26 0 61 29 61 51 0 48 -172 320 -220 347 -34 19 -35 27 -17 71 10 22 30
39 76 62 49 24 73 45 107 91 85 116 86 227 3 306 -16 15 -29 37 -29 49 0 26
-53 73 -83 73 -12 0 -31 2 -42 5 -11 2 -42 -2 -70 -10z"/>
<path d="M4685 2795 c-264 -141 -491 -258 -505 -261 -14 -4 -34 -14 -45 -24
-11 -9 -85 -52 -164 -96 -79 -43 -150 -89 -158 -101 -14 -21 -14 -26 1 -48 9
-14 25 -25 35 -25 10 0 56 22 102 48 123 71 209 116 213 111 1 -2 36 -67 76
-144 40 -77 89 -167 108 -199 28 -46 33 -61 21 -64 -8 -3 -107 -52 -222 -110
-168 -85 -208 -109 -213 -129 -7 -25 18 -63 41 -63 6 0 198 92 426 204 368
181 416 202 434 191 27 -18 63 -3 71 30 5 21 29 37 125 85 110 56 119 59 144
46 14 -8 35 -11 46 -9 20 6 49 50 49 75 0 8 30 29 68 47 106 52 180 100 187
121 9 29 -12 60 -41 60 -13 0 -64 -22 -112 -49 -48 -27 -109 -60 -137 -74
l-49 -25 -84 150 c-45 83 -99 175 -118 205 -19 29 -35 58 -37 63 -1 6 56 41
127 78 71 37 135 77 142 88 17 25 -2 68 -31 72 -11 1 -236 -113 -500 -253z
m209 -92 c49 -76 196 -340 196 -351 0 -15 -239 -127 -249 -117 -15 17 -261
378 -261 384 0 5 257 149 268 151 1 0 22 -30 46 -67z m-270 -331 c69 -100 126
-186 126 -191 0 -16 -224 -111 -261 -111 -34 0 -38 4 -76 73 -22 39 -68 125
-102 189 l-61 117 63 35 c114 63 162 84 174 77 6 -3 68 -88 137 -189z"/>
<path d="M7428 2741 c-12 -17 -12 -34 4 -123 10 -60 17 -156 18 -230 0 -117 2
-128 21 -141 27 -19 58 -10 70 20 23 62 -1 393 -33 461 -17 35 -60 42 -80 13z"/>
<path d="M7436 2157 c-12 -9 -20 -34 -26 -78 -13 -107 -32 -131 -159 -201 -40
-22 -44 -72 -7 -89 19 -9 33 -6 80 17 122 59 174 136 184 268 4 59 2 71 -13
83 -23 16 -36 16 -59 0z"/>
<path d="M4830 1580 c-28 -28 -26 -66 6 -87 33 -21 200 -31 231 -14 27 14 34
45 16 70 -12 18 -25 21 -96 21 -56 1 -88 5 -101 15 -26 19 -32 19 -56 -5z"/>
<path d="M8230 1264 c-882 -26 -1107 -35 -2455 -99 -1308 -62 -1456 -67 -2003
-64 -520 3 -501 5 -502 -47 0 -48 3 -49 484 -52 522 -5 743 2 2021 63 986 47
1437 66 2000 87 461 17 2326 17 2725 0 440 -19 892 -40 1195 -57 964 -53 1223
-67 1585 -85 450 -22 986 -43 1545 -62 232 -7 809 -11 1550 -10 1173 1 1180 1
1197 22 20 24 14 53 -19 98 -20 27 -31 33 -56 30 -21 -2 -35 -10 -41 -24 -9
-21 -11 -21 -800 -27 -765 -7 -1584 2 -2176 23 -799 28 -1247 50 -2780 135
-255 14 -661 33 -1165 56 -220 10 -2061 20 -2305 13z"/>
</g>
</svg>
