<?xml version="1.0" standalone="no"?>
<!DOCTYPE svg PUBLIC "-//W3C//DTD SVG 20010904//EN"
 "http://www.w3.org/TR/2001/REC-SVG-20010904/DTD/svg10.dtd">
<svg version="1.0" xmlns="http://www.w3.org/2000/svg"
 width="1927.000000pt" height="1363.000000pt" viewBox="0 0 1927.000000 1363.000000"
 preserveAspectRatio="xMidYMid meet">

<g transform="translate(0.000000,1363.000000) scale(0.100000,-0.100000)"
fill="#000000" stroke="none">
<path d="M18740 13100 c-8 -14 -8 -37 -1 -78 25 -141 32 -374 41 -1382 5 -591
12 -1262 15 -1490 8 -440 -4 -945 -30 -1319 -17 -244 -24 -322 -65 -716 -64
-617 -70 -721 -80 -1420 -6 -422 -13 -656 -24 -760 -28 -276 -67 -580 -78
-617 -10 -33 -9 -41 7 -58 24 -26 53 -22 76 10 15 19 26 81 49 267 58 472 61
516 70 1158 10 699 16 804 80 1420 92 891 107 1280 91 2417 -6 425 -11 994
-11 1263 -1 783 -23 1265 -61 1311 -18 21 -66 18 -79 -6z"/>
<path d="M5940 12844 c-63 -2 -684 -8 -1380 -14 -974 -9 -1542 -9 -2470 1
-1207 12 -1434 9 -1491 -21 -12 -7 -19 -21 -19 -39 0 -50 14 -54 172 -40 113
10 400 9 1363 0 999 -11 1434 -10 2405 1 1454 16 3795 16 4650 0 349 -7 1051
-21 1560 -32 1696 -36 1899 -40 2900 -60 1092 -22 1589 -33 2285 -52 627 -16
1994 -17 2235 0 167 11 187 14 203 33 9 12 17 25 17 29 0 4 -8 17 -17 29 -18
22 -18 22 -203 9 -240 -17 -1600 -17 -2235 0 -696 19 -1193 30 -2285 52 -547
11 -1213 24 -1480 30 -1964 42 -2437 51 -2910 60 -511 10 -3059 21 -3300 14z"/>
<path d="M605 12696 c-15 -11 -18 -40 -20 -267 -2 -200 -9 -318 -33 -554 -53
-507 -74 -813 -87 -1260 -22 -782 -29 -934 -80 -1735 -19 -300 -39 -642 -45
-760 -13 -273 -13 -929 0 -1125 10 -147 54 -640 69 -761 5 -45 3 -67 -6 -81
-11 -16 -11 -30 -3 -64 6 -24 26 -117 44 -206 47 -229 77 -274 180 -273 23 0
50 0 61 0 22 -1 45 25 45 50 0 8 -7 26 -16 38 -14 20 -23 23 -67 20 -47 -3
-52 -1 -64 24 -24 48 -38 138 -25 159 16 25 15 49 -2 91 -28 66 -45 195 -91
688 -28 305 -35 463 -35 845 0 430 6 587 55 1355 51 801 58 953 80 1735 13
441 33 740 86 1260 36 355 48 705 27 774 -15 49 -45 68 -73 47z"/>
<path d="M11066 12624 c-22 -21 -20 -60 4 -77 24 -17 66 -167 151 -542 114
-503 414 -1687 499 -1968 104 -347 219 -616 334 -785 54 -79 54 -81 28 -77
-15 2 -72 7 -127 10 -55 3 -201 17 -325 30 -303 32 -460 43 -820 55 -599 20
-841 31 -1240 55 -614 37 -982 55 -1120 55 -133 0 -894 -33 -1170 -50 -442
-28 -970 -77 -1032 -96 -15 -5 -18 2 -18 42 0 26 5 62 12 80 10 29 9 36 -7 54
-27 29 -76 24 -92 -11 -8 -16 -13 -90 -15 -208 -3 -179 -3 -183 19 -201 26
-21 62 -16 70 9 3 9 13 24 21 33 10 12 13 29 8 57 -4 29 -2 40 9 45 48 18 569
67 1025 96 276 17 1037 50 1170 50 138 0 506 -18 1120 -55 399 -24 641 -35
1240 -55 360 -12 517 -23 820 -55 348 -37 529 -48 705 -41 162 7 424 29 548
46 121 18 670 70 730 70 l57 0 0 -88 c0 -90 8 -113 42 -125 9 -3 26 2 37 11
18 15 23 40 37 201 18 207 15 253 -16 286 -26 27 -82 40 -110 25 -27 -14 -27
-65 0 -82 15 -10 20 -24 20 -57 0 -54 -18 -70 -80 -71 -54 0 -599 -54 -755
-74 -148 -19 -385 -39 -411 -35 -20 4 -18 10 31 92 70 116 232 445 341 687
234 525 414 1025 619 1720 117 399 184 601 199 599 35 -4 46 3 55 39 14 48 14
148 1 173 -15 27 -64 25 -85 -3 -44 -64 -122 -295 -309 -923 -221 -745 -481
-1410 -782 -2007 -137 -269 -206 -378 -242 -378 -24 0 -115 104 -167 191 -120
204 -234 508 -350 939 -75 278 -356 1404 -410 1640 -113 502 -152 638 -192
669 -31 25 -56 27 -77 5z"/>
<path d="M7479 10071 c-30 -31 -36 -59 -19 -92 8 -15 7 -19 -4 -19 -17 0 -36
-30 -36 -55 0 -9 13 -24 30 -33 29 -17 30 -18 29 -97 0 -57 -3 -74 -9 -58 -5
12 -22 26 -37 29 -15 4 -142 8 -281 8 l-254 1 6 40 c3 22 9 85 12 141 l7 101
-37 28 c-48 37 -76 32 -270 -47 -83 -33 -240 -93 -349 -133 -235 -86 -291
-117 -295 -162 -5 -48 24 -59 94 -37 59 18 81 13 46 -12 -14 -10 -22 -26 -22
-45 0 -26 6 -33 48 -51 41 -19 73 -23 254 -29 218 -7 278 -16 367 -56 85 -37
104 -23 115 89 6 56 11 67 29 72 30 8 308 7 430 -1 l97 -6 0 -28 c0 -15 5 -31
10 -34 6 -3 10 -19 10 -34 0 -52 19 -56 133 -33 56 12 141 28 189 37 131 24
449 125 481 152 9 9 17 26 17 38 0 23 -28 55 -49 55 -22 0 -244 110 -263 130
-10 10 -35 22 -55 26 -21 4 -100 38 -175 75 -162 81 -201 87 -249 40z m276
-411 c-44 -11 -75 -11 -75 0 0 6 23 9 53 9 44 -1 48 -2 22 -9z"/>
<path d="M7492 9046 c-96 -32 -154 -110 -173 -238 -15 -94 -1 -216 37 -320 20
-55 27 -97 30 -173 2 -55 5 -119 7 -142 2 -34 -1 -40 -13 -33 -35 19 -135 22
-207 6 -40 -8 -88 -12 -106 -9 -80 13 -357 -130 -484 -250 -92 -87 -197 -267
-224 -382 -6 -27 -17 -72 -25 -99 -25 -88 -16 -128 31 -128 20 0 45 18 100 72
l72 72 28 -49 c37 -65 74 -103 100 -103 22 0 55 28 55 47 0 6 11 8 25 5 34 -6
65 23 65 60 0 33 -31 97 -89 183 -42 61 -49 91 -31 125 14 26 120 100 200 140
59 30 230 93 236 87 1 -1 -3 -26 -9 -55 -9 -43 -8 -69 6 -135 24 -119 61 -186
120 -218 l47 -25 -41 -40 c-68 -65 -93 -125 -94 -219 l0 -80 -91 -91 c-86 -86
-117 -105 -168 -105 -29 0 -54 -16 -61 -40 -5 -15 -10 -18 -18 -10 -15 15 -60
14 -75 -1 -22 -22 -14 -67 14 -80 14 -7 32 -25 40 -40 8 -15 19 -28 25 -28 17
0 8 -11 -53 -68 -64 -60 -66 -60 -142 5 -42 35 -91 44 -114 21 -8 -8 -12 -47
-12 -107 -1 -173 -38 -431 -71 -491 -10 -19 -68 102 -164 343 -100 252 -120
325 -364 1322 -81 333 -165 593 -194 604 -32 12 -59 -1 -81 -39 -34 -58 -114
-278 -192 -525 -153 -488 -303 -921 -515 -1480 -39 -104 -96 -262 -126 -350
-29 -88 -58 -164 -63 -169 -6 -6 -45 6 -102 29 -149 61 -216 98 -327 179 -58
42 -131 91 -163 108 -76 41 -196 166 -280 293 -36 55 -114 188 -173 295 -59
107 -121 219 -137 248 -75 133 -108 142 -195 56 -110 -108 -156 -113 -319 -36
-173 82 -204 81 -414 -18 -163 -76 -227 -90 -311 -66 -95 26 -143 59 -289 202
-144 140 -179 161 -238 145 -74 -22 -138 -94 -242 -275 -119 -206 -385 -787
-445 -972 -43 -131 -60 -225 -46 -252 23 -43 91 -26 91 22 0 40 47 207 86 301
97 241 341 755 422 890 56 94 113 165 144 181 l29 15 143 -139 c157 -153 233
-202 350 -223 103 -19 164 -4 351 84 168 80 192 81 326 14 180 -89 271 -83
400 24 l46 39 138 -248 c241 -432 362 -589 515 -667 25 -13 92 -58 150 -100
58 -42 144 -97 192 -121 113 -57 282 -124 311 -124 31 0 61 33 91 102 14 31
30 59 35 63 6 3 11 19 11 35 0 48 76 238 151 380 134 250 157 307 270 655 28
88 93 268 144 400 100 257 120 323 160 510 25 121 83 282 96 268 10 -11 82
-317 129 -548 82 -403 140 -608 295 -1038 31 -88 72 -193 91 -234 19 -42 34
-85 34 -98 0 -28 37 -140 61 -185 25 -46 40 -65 62 -73 24 -9 67 9 67 28 0 9
11 20 24 25 14 5 32 19 40 32 28 42 76 267 88 411 6 76 14 136 17 134 82 -46
182 -56 336 -33 61 9 301 63 535 121 524 130 1087 245 1199 245 28 0 42 -29
127 -275 89 -260 104 -296 165 -416 61 -119 107 -175 152 -183 18 -3 98 -26
177 -51 251 -78 436 -126 725 -185 154 -32 300 -63 325 -70 145 -38 295 47
432 246 79 114 80 115 64 139 -18 27 -53 31 -78 8 -11 -10 -42 -50 -68 -88
-60 -90 -132 -160 -192 -191 -49 -25 -115 -31 -147 -15 -10 6 -143 35 -297 66
-290 58 -456 100 -733 185 -90 27 -169 50 -177 50 -7 0 -27 21 -44 46 -37 52
-124 233 -117 240 7 7 68 -72 102 -131 43 -75 78 -107 106 -97 50 19 49 43 -2
121 l-23 33 67 -43 c36 -24 68 -52 70 -62 7 -23 109 -69 168 -75 39 -4 49 -1
62 18 27 39 8 61 -104 120 -159 85 -276 170 -381 278 -87 89 -101 110 -158
226 -45 92 -69 130 -86 136 -12 5 -28 18 -34 29 -5 11 -28 26 -50 32 -53 16
-214 -5 -545 -73 -137 -28 -261 -52 -275 -54 -23 -4 -24 -4 -4 5 12 5 28 18
35 29 8 10 25 23 39 27 33 10 136 90 156 121 9 13 14 29 12 36 -3 7 19 39 48
71 59 66 68 87 47 116 -30 43 -60 28 -167 -84 -98 -101 -104 -106 -186 -136
-47 -17 -89 -35 -94 -40 -12 -11 -69 22 -197 112 -102 73 -190 119 -227 119
-15 0 -26 8 -32 25 -10 25 -50 42 -70 30 -7 -4 -5 5 3 22 20 37 91 103 162
148 30 20 55 40 55 46 0 9 58 39 75 39 3 0 -1 -10 -9 -22 -39 -56 -6 -118 52
-97 18 7 22 5 22 -9 0 -26 20 -42 50 -42 38 0 131 70 190 143 49 60 160 264
160 293 0 8 -11 36 -25 61 -13 26 -23 49 -20 51 2 2 19 -4 37 -15 43 -25 78
-89 85 -157 5 -49 4 -54 -16 -61 -45 -14 -46 -45 -6 -128 19 -42 44 -81 55
-87 29 -15 61 5 94 58 l28 46 13 -38 c16 -46 29 -56 73 -56 42 0 129 44 137
69 15 48 -29 74 -88 52 -23 -9 -25 -7 -31 28 -11 69 -70 94 -125 53 l-28 -21
-6 72 c-12 144 -60 221 -171 276 -36 18 -69 30 -74 27 -4 -2 8 27 26 64 18 38
37 97 43 132 8 51 21 80 70 154 117 178 131 306 44 419 -24 32 -129 100 -195
125 -19 8 -56 29 -81 47 -25 18 -64 40 -85 49 -54 23 -234 29 -292 10z m296
-125 c37 -24 52 -39 52 -55 0 -12 5 -27 12 -34 15 -15 64 -16 73 -2 11 17 124
-51 151 -90 36 -52 33 -119 -8 -201 -24 -46 -39 -65 -55 -67 -28 -4 -53 -38
-53 -72 0 -14 -6 -47 -13 -75 l-14 -50 -17 35 c-49 95 -94 123 -138 83 -17
-15 -19 -15 -36 0 -41 37 -102 7 -118 -58 -4 -16 -16 -36 -26 -43 -24 -17 -23
-57 2 -82 34 -34 82 -23 108 25 9 15 11 16 12 4 1 -46 80 -68 109 -30 16 21
16 21 44 -14 57 -71 10 -101 -146 -92 -98 6 -151 16 -209 39 l-28 10 0 136 c0
121 -2 140 -24 186 -36 77 -50 151 -51 256 0 80 4 103 24 144 35 71 77 88 201
83 86 -4 100 -7 148 -36z m-459 -871 c18 -5 40 -19 48 -30 19 -28 57 -25 80 5
18 24 18 25 71 9 28 -9 52 -21 52 -29 0 -7 12 -20 26 -29 21 -14 25 -24 22
-54 -3 -32 -7 -37 -38 -44 -19 -5 -110 -5 -202 -2 -167 6 -167 6 -156 28 6 11
21 33 34 48 43 53 3 100 -62 73 -22 -9 -42 -12 -51 -6 -46 25 104 52 176 31z
m-318 -47 c-5 -11 -28 -25 -51 -32 -57 -17 -182 -84 -257 -137 -62 -44 -153
-151 -153 -179 0 -9 25 -52 55 -97 43 -64 52 -85 43 -96 -9 -11 -14 -9 -27 13
-9 14 -35 35 -58 46 -24 12 -43 27 -43 35 0 8 -7 17 -15 20 -12 5 -11 12 7 47
80 160 207 273 407 363 52 24 97 41 99 39 2 -2 -1 -12 -7 -22z m763 -18 c11
-8 27 -15 37 -15 9 0 22 -7 29 -15 11 -13 7 -15 -26 -15 -22 0 -46 -4 -54 -10
-11 -7 -17 -1 -27 22 -7 17 -13 34 -13 39 0 14 33 10 54 -6z m133 -158 c4 -4
-3 -21 -15 -37 -13 -17 -22 -44 -22 -65 0 -43 -12 -44 -40 -5 -12 17 -28 30
-36 30 -9 0 -14 11 -14 29 0 16 -2 35 -5 43 -4 10 10 13 60 12 36 0 68 -4 72
-7z m-243 -98 c-58 -64 -209 -122 -262 -100 -44 18 -79 58 -64 73 15 15 15 51
1 65 -9 9 18 10 102 7 73 -3 136 0 174 8 60 13 60 13 63 -10 2 -13 -4 -32 -14
-43z m-412 53 c16 -6 15 -10 -7 -37 -22 -28 -24 -28 -25 -8 0 12 -3 28 -6 37
-7 17 8 20 38 8z m528 -157 c10 -12 10 -19 2 -27 -7 -7 -12 -20 -12 -29 0 -19
-55 -66 -109 -94 l-34 -17 48 59 c26 32 55 73 63 91 18 36 24 39 42 17z m-373
-500 c20 -8 79 -46 132 -84 53 -37 106 -73 118 -79 14 -8 23 -23 25 -44 2 -20
13 -38 31 -52 25 -19 31 -19 87 -8 33 7 65 10 72 6 6 -4 -151 -47 -348 -96
-365 -91 -585 -141 -592 -134 -2 2 5 7 16 10 11 4 32 30 47 59 20 41 36 57 68
73 44 20 56 43 39 78 -17 36 -21 68 -11 88 5 10 56 58 112 108 111 98 132 105
204 75z"/>
<path d="M7519 8736 c-13 -6 -25 -22 -27 -34 -4 -29 23 -72 46 -72 9 0 46 -23
80 -51 35 -28 76 -53 90 -55 15 -2 43 -6 63 -10 30 -5 39 -2 52 16 18 26 11
57 -17 71 -11 6 -37 29 -57 50 -30 32 -44 39 -74 39 -22 0 -48 9 -68 24 -44
32 -60 36 -88 22z"/>
<path d="M7958 8672 c-7 -10 -26 -25 -43 -33 -19 -9 -31 -23 -33 -39 -2 -14
-8 -29 -13 -34 -16 -18 -9 -55 13 -70 12 -9 26 -16 29 -16 4 0 31 18 59 41 48
38 80 87 80 123 0 41 -68 62 -92 28z"/>
<path d="M13641 8559 c-29 -12 -70 -38 -92 -60 -62 -62 -68 -108 -41 -330 19
-156 95 -227 294 -273 19 -4 28 -14 33 -35 5 -25 -1 -35 -59 -91 -36 -34 -106
-94 -156 -132 -77 -60 -90 -73 -90 -99 0 -22 7 -32 25 -41 22 -10 32 -6 94 35
38 25 102 74 141 108 39 33 73 59 75 58 2 -2 7 -53 11 -112 6 -103 6 -109 -15
-123 -11 -8 -21 -21 -21 -27 0 -7 -25 -64 -56 -127 -81 -167 -85 -178 -67
-222 25 -64 62 -58 129 20 37 42 47 62 46 85 -2 21 16 58 64 135 37 59 73 113
79 120 10 11 23 -6 67 -81 l55 -94 -36 -16 c-21 -8 -51 -13 -73 -10 -36 5 -37
4 -84 -68 -53 -84 -72 -108 -279 -349 -83 -96 -177 -209 -210 -250 -32 -41
-92 -109 -132 -151 l-73 -77 -293 -1 c-160 -1 -462 -6 -671 -12 -400 -12 -743
-4 -1159 28 -311 23 -337 20 -337 -37 0 -33 20 -52 57 -52 16 -1 136 -7 268
-14 574 -32 750 -36 1215 -24 250 6 559 12 686 13 207 2 234 4 252 20 11 10
23 17 28 16 24 -4 40 5 95 58 32 31 59 54 59 51 0 -3 -23 -45 -51 -94 -123
-214 -148 -284 -113 -318 34 -34 84 -10 84 40 0 9 28 68 62 131 43 80 70 119
90 129 16 8 30 26 34 42 13 61 38 113 112 233 70 114 97 147 284 339 201 206
209 213 233 202 35 -16 67 -15 91 2 18 14 26 7 115 -87 145 -153 250 -207 446
-227 212 -22 501 45 723 167 191 105 331 215 589 461 104 99 177 160 206 173
41 18 47 19 82 4 55 -23 139 -118 209 -236 34 -57 92 -156 129 -219 155 -263
300 -398 556 -519 188 -88 539 -194 794 -240 140 -25 339 -44 366 -36 23 8 38
40 31 68 -5 20 -48 41 -68 33 -7 -3 -55 -1 -106 5 -371 38 -855 181 -1100 326
-90 53 -217 166 -282 252 -24 31 -65 94 -93 141 -27 47 -85 144 -127 216 -163
275 -296 364 -442 293 -48 -23 -101 -69 -309 -269 -294 -283 -567 -442 -870
-505 -107 -23 -289 -23 -375 -1 -126 32 -164 58 -316 212 -77 79 -146 144
-152 144 -6 0 -14 10 -17 21 -4 12 -18 31 -31 43 -14 12 -55 73 -92 136 -57
98 -72 116 -100 125 -31 9 -32 11 -33 65 0 30 -4 81 -8 113 -4 31 -5 56 -2 54
4 -1 32 -16 63 -32 32 -16 61 -37 64 -47 3 -12 19 -20 45 -24 21 -4 39 -11 39
-16 0 -18 45 -26 70 -11 22 12 32 11 95 -10 74 -26 104 -23 115 9 12 34 0 48
-90 102 -73 44 -95 53 -129 51 -58 -4 -181 55 -181 87 0 37 -25 49 -81 38 -27
-6 -49 -8 -49 -4 0 3 21 26 46 50 25 25 60 72 77 105 29 56 32 67 32 160 0 79
-4 108 -19 139 -28 56 -81 105 -145 135 -48 22 -72 26 -166 28 -93 3 -118 0
-164 -18z m259 -259 c0 -5 -5 -10 -11 -10 -5 0 -7 5 -4 10 3 6 8 10 11 10 2 0
4 -4 4 -10z m43 -220 c-16 -28 -33 -39 -33 -23 0 7 41 53 47 53 2 0 -4 -13
-14 -30z"/>
<path d="M880 5649 c-75 -12 -90 -21 -90 -59 0 -47 16 -52 126 -38 77 9 159 9
379 0 560 -25 1444 -33 2705 -27 1256 7 1564 3 2665 -30 1559 -47 2672 -65
4055 -65 1934 0 2520 -18 5705 -170 374 -18 740 -30 1230 -40 264 -6 525 -15
579 -21 55 -6 109 -8 121 -5 42 11 37 78 -7 89 -70 18 -251 27 -688 37 -496
10 -862 22 -1235 40 -3185 152 -3771 170 -5705 170 -619 0 -1386 5 -1705 10
-957 16 -2677 60 -3030 77 -82 4 -1032 8 -2110 9 -1245 1 -2064 5 -2245 13
-457 18 -680 21 -750 10z"/>
<path d="M3678 3229 c-22 -12 -34 -58 -48 -189 -6 -58 -31 -271 -55 -475 -89
-739 -107 -991 -103 -1410 2 -246 4 -268 21 -280 10 -7 27 -10 38 -8 40 11 43
36 41 299 -2 138 2 339 8 445 16 282 31 419 147 1389 l6 55 25 -55 c40 -90
174 -427 277 -700 185 -487 294 -749 441 -1062 46 -99 84 -182 84 -185 0 -9
-324 6 -510 23 -91 8 -222 16 -291 17 -140 2 -159 -4 -159 -54 0 -25 7 -33 45
-51 39 -19 47 -20 72 -8 33 16 107 15 338 -5 88 -8 248 -18 357 -21 l196 -7 6
-29 c3 -15 12 -28 19 -28 7 0 35 -49 62 -111 27 -61 58 -117 68 -124 24 -17
56 -8 69 20 8 19 2 41 -36 125 -25 56 -46 105 -46 108 0 4 18 17 39 29 47 27
59 55 37 88 -15 22 -23 25 -84 25 l-67 0 -79 168 c-166 349 -269 600 -542
1311 -139 362 -252 629 -289 676 -27 36 -54 43 -87 24z"/>
<path d="M5516 2539 c-14 -17 -26 -42 -26 -55 0 -14 -29 -86 -65 -161 -60
-126 -66 -135 -83 -121 -87 75 -187 149 -206 154 -34 8 -65 -12 -82 -51 -19
-46 -18 -69 6 -90 20 -18 70 -15 70 5 0 6 5 10 10 10 14 0 172 -131 168 -139
-2 -4 -34 -68 -73 -141 l-69 -135 -8 44 c-9 52 -23 71 -52 71 -52 -1 -59 -31
-35 -152 14 -72 43 -111 84 -111 39 1 55 22 155 210 l82 155 65 -63 c35 -35
89 -101 119 -146 30 -45 64 -88 75 -94 27 -14 64 1 71 29 8 29 -100 184 -199
283 l-85 86 56 111 c31 61 72 150 91 197 34 82 35 88 20 111 -22 34 -57 31
-89 -7z"/>
<path d="M10273 2383 c-26 -20 -86 -68 -133 -107 -47 -39 -157 -127 -245 -196
-88 -68 -225 -178 -303 -244 -183 -154 -240 -196 -265 -196 -58 0 -156 166
-277 470 -33 85 -66 160 -72 167 -14 18 -63 16 -78 -2 -16 -19 -7 -90 13 -113
8 -9 40 -80 72 -157 117 -291 221 -445 308 -461 79 -14 116 8 359 212 78 66
213 175 299 242 86 67 210 165 276 219 65 54 129 105 142 113 15 11 24 25 24
44 0 57 -52 61 -120 9z"/>
<path d="M7943 1902 c-11 -7 -16 -25 -14 -54 1 -22 149 -97 400 -204 262 -110
368 -167 601 -323 113 -76 238 -157 278 -181 40 -23 71 -44 70 -45 -2 -2 -50
1 -108 5 -149 13 -620 12 -907 -1 -133 -6 -254 -8 -267 -5 -23 6 -24 10 -28
108 -2 57 0 113 5 124 10 24 -14 81 -39 91 -7 3 -14 17 -14 32 0 35 -48 307
-61 349 -11 33 -44 50 -74 38 -21 -8 -35 -47 -24 -67 19 -36 60 -301 75 -482
8 -106 18 -220 20 -255 5 -51 10 -65 28 -78 27 -17 76 -4 76 20 0 34 1084 44
1385 13 163 -18 172 -20 210 -50 22 -17 44 -37 48 -44 4 -7 17 -18 28 -24 42
-22 92 44 59 77 -7 7 -7 20 -2 35 19 53 -10 79 -91 79 -58 0 -285 126 -582
325 -270 180 -366 232 -655 355 -118 50 -248 109 -288 131 -72 38 -105 46
-129 31z"/>
</g>
</svg>
