<svg width="1920" height="1080" viewBox="0 0 1920 1080" fill="none" xmlns="http://www.w3.org/2000/svg">
<rect width="1920" height="1080" fill="#1E1E1E"/>
<rect width="1920" height="1080" fill="white"/>
<path d="M524.648 102.909H538.102L569.739 180.182H570.83L602.466 102.909H615.92V196H605.375V125.273H604.466L575.375 196H565.193L536.102 125.273H535.193V196H524.648V102.909ZM630.523 102.909H643.432L669.25 146.364H670.341L696.159 102.909H709.068L675.432 157.636V196H664.159V157.636L630.523 102.909ZM724.432 112.909V102.909H794.25V112.909H764.977V196H753.705V112.909H724.432ZM811.648 196V102.909H822.92V144.364H872.557V102.909H883.83V196H872.557V154.364H822.92V196H811.648ZM971.125 196H942.398V102.909H972.398C981.428 102.909 989.155 104.773 995.58 108.5C1002 112.197 1006.93 117.515 1010.35 124.455C1013.78 131.364 1015.49 139.636 1015.49 149.273C1015.49 158.97 1013.76 167.318 1010.31 174.318C1006.85 181.288 1001.82 186.652 995.216 190.409C988.61 194.136 980.58 196 971.125 196ZM953.67 186H970.398C978.095 186 984.473 184.515 989.534 181.545C994.595 178.576 998.367 174.348 1000.85 168.864C1003.34 163.379 1004.58 156.848 1004.58 149.273C1004.58 141.758 1003.35 135.288 1000.9 129.864C998.443 124.409 994.777 120.227 989.898 117.318C985.019 114.379 978.943 112.909 971.67 112.909H953.67V186ZM1045.67 102.909V196H1034.4V102.909H1045.67ZM1131.91 132C1130.91 128.939 1129.59 126.197 1127.95 123.773C1126.35 121.318 1124.42 119.227 1122.18 117.5C1119.97 115.773 1117.45 114.455 1114.64 113.545C1111.82 112.636 1108.73 112.182 1105.36 112.182C1099.85 112.182 1094.83 113.606 1090.32 116.455C1085.8 119.303 1082.21 123.5 1079.55 129.045C1076.88 134.591 1075.55 141.394 1075.55 149.455C1075.55 157.515 1076.89 164.318 1079.59 169.864C1082.29 175.409 1085.94 179.606 1090.55 182.455C1095.15 185.303 1100.33 186.727 1106.09 186.727C1111.42 186.727 1116.12 185.591 1120.18 183.318C1124.27 181.015 1127.45 177.773 1129.73 173.591C1132.03 169.379 1133.18 164.424 1133.18 158.727L1136.64 159.455H1108.64V149.455H1144.09V159.455C1144.09 167.121 1142.45 173.788 1139.18 179.455C1135.94 185.121 1131.45 189.515 1125.73 192.636C1120.03 195.727 1113.48 197.273 1106.09 197.273C1097.85 197.273 1090.61 195.333 1084.36 191.455C1078.15 187.576 1073.3 182.061 1069.82 174.909C1066.36 167.758 1064.64 159.273 1064.64 149.455C1064.64 142.091 1065.62 135.47 1067.59 129.591C1069.59 123.682 1072.41 118.652 1076.05 114.5C1079.68 110.348 1083.98 107.167 1088.95 104.955C1093.92 102.742 1099.39 101.636 1105.36 101.636C1110.27 101.636 1114.85 102.379 1119.09 103.864C1123.36 105.318 1127.17 107.394 1130.5 110.091C1133.86 112.758 1136.67 115.955 1138.91 119.682C1141.15 123.379 1142.7 127.485 1143.55 132H1131.91ZM1227.03 132C1226.03 128.939 1224.72 126.197 1223.08 123.773C1221.47 121.318 1219.55 119.227 1217.31 117.5C1215.09 115.773 1212.58 114.455 1209.76 113.545C1206.94 112.636 1203.85 112.182 1200.49 112.182C1194.97 112.182 1189.96 113.606 1185.44 116.455C1180.93 119.303 1177.34 123.5 1174.67 129.045C1172 134.591 1170.67 141.394 1170.67 149.455C1170.67 157.515 1172.02 164.318 1174.72 169.864C1177.41 175.409 1181.06 179.606 1185.67 182.455C1190.28 185.303 1195.46 186.727 1201.22 186.727C1206.55 186.727 1211.25 185.591 1215.31 183.318C1219.4 181.015 1222.58 177.773 1224.85 173.591C1227.16 169.379 1228.31 164.424 1228.31 158.727L1231.76 159.455H1203.76V149.455H1239.22V159.455C1239.22 167.121 1237.58 173.788 1234.31 179.455C1231.06 185.121 1226.58 189.515 1220.85 192.636C1215.16 195.727 1208.61 197.273 1201.22 197.273C1192.97 197.273 1185.73 195.333 1179.49 191.455C1173.28 187.576 1168.43 182.061 1164.94 174.909C1161.49 167.758 1159.76 159.273 1159.76 149.455C1159.76 142.091 1160.75 135.47 1162.72 129.591C1164.72 123.682 1167.53 118.652 1171.17 114.5C1174.81 110.348 1179.11 107.167 1184.08 104.955C1189.05 102.742 1194.52 101.636 1200.49 101.636C1205.4 101.636 1209.97 102.379 1214.22 103.864C1218.49 105.318 1222.29 107.394 1225.62 110.091C1228.99 112.758 1231.79 115.955 1234.03 119.682C1236.28 123.379 1237.82 127.485 1238.67 132H1227.03ZM1258.52 196V102.909H1314.7V112.909H1269.8V144.364H1311.8V154.364H1269.8V186H1315.43V196H1258.52ZM1335.02 196V102.909H1366.48C1373.75 102.909 1379.72 104.152 1384.39 106.636C1389.05 109.091 1392.51 112.47 1394.75 116.773C1396.99 121.076 1398.11 125.97 1398.11 131.455C1398.11 136.939 1396.99 141.803 1394.75 146.045C1392.51 150.288 1389.07 153.621 1384.43 156.045C1379.8 158.439 1373.87 159.636 1366.66 159.636H1341.2V149.455H1366.3C1371.27 149.455 1375.27 148.727 1378.3 147.273C1381.36 145.818 1383.57 143.758 1384.93 141.091C1386.33 138.394 1387.02 135.182 1387.02 131.455C1387.02 127.727 1386.33 124.47 1384.93 121.682C1383.54 118.894 1381.31 116.742 1378.25 115.227C1375.19 113.682 1371.14 112.909 1366.11 112.909H1346.3V196H1335.02ZM1378.84 154.182L1401.75 196H1388.66L1366.11 154.182H1378.84Z" fill="black"/>
<rect x="450" y="310" width="1000" height="200" fill="#D9D9D9"/>
<rect x="450" y="570" width="1000" height="200" fill="#D9D9D9"/>
<rect x="450" y="820" width="1000" height="200" fill="#D9D9D9"/>
<path d="M837.486 445V375.182H861.077C866.554 375.182 871.031 376.17 874.509 378.148C878.009 380.102 880.599 382.75 882.281 386.091C883.963 389.432 884.804 393.159 884.804 397.273C884.804 401.386 883.963 405.125 882.281 408.489C880.622 411.852 878.054 414.534 874.577 416.534C871.099 418.511 866.645 419.5 861.213 419.5H844.304V412H860.94C864.69 412 867.702 411.352 869.974 410.057C872.247 408.761 873.895 407.011 874.918 404.807C875.963 402.58 876.486 400.068 876.486 397.273C876.486 394.477 875.963 391.977 874.918 389.773C873.895 387.568 872.236 385.841 869.94 384.591C867.645 383.318 864.599 382.682 860.804 382.682H845.94V445H837.486ZM898.423 445V375.182H906.878V437.5H939.332V445H898.423ZM959.693 445H950.83L976.466 375.182H985.193L1010.83 445H1001.97L981.102 386.227H980.557L959.693 445ZM962.966 417.727H998.693V425.227H962.966V417.727ZM1008.58 375.182H1018.26L1037.62 407.773H1038.44L1057.81 375.182H1067.49L1042.26 416.227V445H1033.81V416.227L1008.58 375.182Z" fill="black"/>
<path d="M802.52 670.091C802.52 677.455 801.19 683.818 798.531 689.182C795.872 694.545 792.224 698.682 787.588 701.591C782.952 704.5 777.656 705.955 771.702 705.955C765.747 705.955 760.452 704.5 755.815 701.591C751.179 698.682 747.531 694.545 744.872 689.182C742.213 683.818 740.884 677.455 740.884 670.091C740.884 662.727 742.213 656.364 744.872 651C747.531 645.636 751.179 641.5 755.815 638.591C760.452 635.682 765.747 634.227 771.702 634.227C777.656 634.227 782.952 635.682 787.588 638.591C792.224 641.5 795.872 645.636 798.531 651C801.19 656.364 802.52 662.727 802.52 670.091ZM794.338 670.091C794.338 664.045 793.327 658.943 791.304 654.784C789.304 650.625 786.588 647.477 783.156 645.341C779.747 643.205 775.929 642.136 771.702 642.136C767.474 642.136 763.645 643.205 760.213 645.341C756.804 647.477 754.088 650.625 752.065 654.784C750.065 658.943 749.065 664.045 749.065 670.091C749.065 676.136 750.065 681.239 752.065 685.398C754.088 689.557 756.804 692.705 760.213 694.841C763.645 696.977 767.474 698.045 771.702 698.045C775.929 698.045 779.747 696.977 783.156 694.841C786.588 692.705 789.304 689.557 791.304 685.398C793.327 681.239 794.338 676.136 794.338 670.091ZM816.736 705V635.182H840.327C845.804 635.182 850.281 636.17 853.759 638.148C857.259 640.102 859.849 642.75 861.531 646.091C863.213 649.432 864.054 653.159 864.054 657.273C864.054 661.386 863.213 665.125 861.531 668.489C859.872 671.852 857.304 674.534 853.827 676.534C850.349 678.511 845.895 679.5 840.463 679.5H823.554V672H840.19C843.94 672 846.952 671.352 849.224 670.057C851.497 668.761 853.145 667.011 854.168 664.807C855.213 662.58 855.736 660.068 855.736 657.273C855.736 654.477 855.213 651.977 854.168 649.773C853.145 647.568 851.486 645.841 849.19 644.591C846.895 643.318 843.849 642.682 840.054 642.682H825.19V705H816.736ZM873.855 642.682V635.182H926.219V642.682H904.264V705H895.81V642.682H873.855ZM947.722 635.182V705H939.267V635.182H947.722ZM1023.58 670.091C1023.58 677.455 1022.25 683.818 1019.59 689.182C1016.93 694.545 1013.29 698.682 1008.65 701.591C1004.01 704.5 998.719 705.955 992.764 705.955C986.81 705.955 981.514 704.5 976.878 701.591C972.241 698.682 968.594 694.545 965.935 689.182C963.276 683.818 961.946 677.455 961.946 670.091C961.946 662.727 963.276 656.364 965.935 651C968.594 645.636 972.241 641.5 976.878 638.591C981.514 635.682 986.81 634.227 992.764 634.227C998.719 634.227 1004.01 635.682 1008.65 638.591C1013.29 641.5 1016.93 645.636 1019.59 651C1022.25 656.364 1023.58 662.727 1023.58 670.091ZM1015.4 670.091C1015.4 664.045 1014.39 658.943 1012.37 654.784C1010.37 650.625 1007.65 647.477 1004.22 645.341C1000.81 643.205 996.991 642.136 992.764 642.136C988.537 642.136 984.707 643.205 981.276 645.341C977.866 647.477 975.151 650.625 973.128 654.784C971.128 658.943 970.128 664.045 970.128 670.091C970.128 676.136 971.128 681.239 973.128 685.398C975.151 689.557 977.866 692.705 981.276 694.841C984.707 696.977 988.537 698.045 992.764 698.045C996.991 698.045 1000.81 696.977 1004.22 694.841C1007.65 692.705 1010.37 689.557 1012.37 685.398C1014.39 681.239 1015.4 676.136 1015.4 670.091ZM1093.16 635.182V705H1084.98L1046.93 650.182H1046.25V705H1037.8V635.182H1045.98L1084.16 690.136H1084.84V635.182H1093.16ZM1148.26 652.636C1147.85 649.182 1146.19 646.5 1143.28 644.591C1140.38 642.682 1136.81 641.727 1132.58 641.727C1129.49 641.727 1126.78 642.227 1124.47 643.227C1122.17 644.227 1120.38 645.602 1119.08 647.352C1117.81 649.102 1117.17 651.091 1117.17 653.318C1117.17 655.182 1117.61 656.784 1118.5 658.125C1119.41 659.443 1120.57 660.545 1121.98 661.432C1123.39 662.295 1124.86 663.011 1126.41 663.58C1127.95 664.125 1129.38 664.568 1130.67 664.909L1137.76 666.818C1139.58 667.295 1141.6 667.955 1143.83 668.795C1146.08 669.636 1148.23 670.784 1150.27 672.239C1152.34 673.67 1154.05 675.511 1155.39 677.761C1156.73 680.011 1157.4 682.773 1157.4 686.045C1157.4 689.818 1156.41 693.227 1154.43 696.273C1152.48 699.318 1149.61 701.739 1145.84 703.534C1142.09 705.33 1137.53 706.227 1132.17 706.227C1127.17 706.227 1122.84 705.42 1119.18 703.807C1115.55 702.193 1112.68 699.943 1110.59 697.057C1108.52 694.17 1107.35 690.818 1107.08 687H1115.81C1116.03 689.636 1116.92 691.818 1118.47 693.545C1120.03 695.25 1122.01 696.523 1124.4 697.364C1126.81 698.182 1129.4 698.591 1132.17 698.591C1135.4 698.591 1138.3 698.068 1140.86 697.023C1143.43 695.955 1145.47 694.477 1146.97 692.591C1148.47 690.682 1149.22 688.455 1149.22 685.909C1149.22 683.591 1148.57 681.705 1147.27 680.25C1145.98 678.795 1144.27 677.614 1142.16 676.705C1140.05 675.795 1137.76 675 1135.31 674.318L1126.72 671.864C1121.26 670.295 1116.94 668.057 1113.76 665.148C1110.58 662.239 1108.99 658.432 1108.99 653.727C1108.99 649.818 1110.05 646.409 1112.16 643.5C1114.3 640.568 1117.16 638.295 1120.75 636.682C1124.36 635.045 1128.4 634.227 1132.85 634.227C1137.35 634.227 1141.35 635.034 1144.85 636.648C1148.35 638.239 1151.13 640.42 1153.17 643.193C1155.24 645.966 1156.33 649.114 1156.44 652.636H1148.26Z" fill="black"/>
<path d="M867.178 933.182H876.45L884.223 943.409L886.268 946.136L897.859 961.545H888.587L880.95 951.318L879.041 948.727L867.178 933.182ZM900.723 920.091C900.723 927.455 899.393 933.818 896.734 939.182C894.075 944.545 890.428 948.682 885.791 951.591C881.155 954.5 875.859 955.955 869.905 955.955C863.95 955.955 858.655 954.5 854.018 951.591C849.382 948.682 845.734 944.545 843.075 939.182C840.416 933.818 839.087 927.455 839.087 920.091C839.087 912.727 840.416 906.364 843.075 901C845.734 895.636 849.382 891.5 854.018 888.591C858.655 885.682 863.95 884.227 869.905 884.227C875.859 884.227 881.155 885.682 885.791 888.591C890.428 891.5 894.075 895.636 896.734 901C899.393 906.364 900.723 912.727 900.723 920.091ZM892.541 920.091C892.541 914.045 891.53 908.943 889.507 904.784C887.507 900.625 884.791 897.477 881.359 895.341C877.95 893.205 874.132 892.136 869.905 892.136C865.678 892.136 861.848 893.205 858.416 895.341C855.007 897.477 852.291 900.625 850.268 904.784C848.268 908.943 847.268 914.045 847.268 920.091C847.268 926.136 848.268 931.239 850.268 935.398C852.291 939.557 855.007 942.705 858.416 944.841C861.848 946.977 865.678 948.045 869.905 948.045C874.132 948.045 877.95 946.977 881.359 944.841C884.791 942.705 887.507 939.557 889.507 935.398C891.53 931.239 892.541 926.136 892.541 920.091ZM960.757 885.182H969.212V931.409C969.212 936.182 968.087 940.443 965.837 944.193C963.609 947.92 960.462 950.864 956.393 953.023C952.325 955.159 947.553 956.227 942.075 956.227C936.598 956.227 931.825 955.159 927.757 953.023C923.689 950.864 920.53 947.92 918.28 944.193C916.053 940.443 914.939 936.182 914.939 931.409V885.182H923.393V930.727C923.393 934.136 924.143 937.17 925.643 939.83C927.143 942.466 929.28 944.545 932.053 946.068C934.848 947.568 938.189 948.318 942.075 948.318C945.962 948.318 949.303 947.568 952.098 946.068C954.893 944.545 957.03 942.466 958.507 939.83C960.007 937.17 960.757 934.136 960.757 930.727V885.182ZM994.55 885.182V955H986.095V885.182H994.55ZM1007.68 892.682V885.182H1060.05V892.682H1038.09V955H1029.64V892.682H1007.68Z" fill="black"/>
</svg>
