<?xml version="1.0" encoding="UTF-8"?>
<!DOCTYPE svg PUBLIC "-//W3C//DTD SVG 1.1//EN" "http://www.w3.org/Graphics/SVG/1.1/DTD/svg11.dtd">
<svg xmlns="http://www.w3.org/2000/svg" version="1.1" width="1640px" height="1548px" style="shape-rendering:geometricPrecision; text-rendering:geometricPrecision; image-rendering:optimizeQuality; fill-rule:evenodd; clip-rule:evenodd" xmlns:xlink="http://www.w3.org/1999/xlink">
<g><path style="opacity:1" fill="#fefffe" d="M -0.5,-0.5 C 266.167,-0.5 532.833,-0.5 799.5,-0.5C 799.5,77.1667 799.5,154.833 799.5,232.5C 767.851,230.847 736.184,229.514 704.5,228.5C 668.528,233.091 632.528,237.924 596.5,243C 595.333,244.167 594.167,245.333 593,246.5C 592.965,296.177 593.798,345.843 595.5,395.5C 595.333,402.514 595,409.514 594.5,416.5C 595.5,416.5 596.5,416.5 597.5,416.5C 598.104,410.2 598.437,403.867 598.5,397.5C 597.005,347.843 596.005,298.176 595.5,248.5C 663.49,246.917 731.49,245.917 799.5,245.5C 799.5,302.833 799.5,360.167 799.5,417.5C 770.167,417.5 740.833,417.5 711.5,417.5C 711.545,405.146 711.045,392.813 710,380.5C 709.926,376.299 709.093,372.299 707.5,368.5C 705.291,367.894 703.124,367.227 701,366.5C 690.768,366.961 680.601,367.961 670.5,369.5C 671.733,385.491 671.733,401.491 670.5,417.5C 581.833,417.5 493.167,417.5 404.5,417.5C 405.205,399.36 404.038,381.36 401,363.5C 400.348,361.277 398.848,360.11 396.5,360C 382.514,356.996 368.514,356.996 354.5,360C 350.089,360.354 347.755,362.688 347.5,367C 348.214,383.797 349.547,400.297 351.5,416.5C 348.914,417.48 346.247,417.813 343.5,417.5C 340.91,397.246 339.744,376.913 340,356.5C 342.133,354.862 344.633,354.029 347.5,354C 367.612,351.241 387.445,352.407 407,357.5C 409.045,361.903 410.045,366.57 410,371.5C 411.131,386.479 411.631,401.479 411.5,416.5C 412.5,416.5 413.5,416.5 414.5,416.5C 414.688,397.456 413.855,378.456 412,359.5C 411,357.833 410,356.167 409,354.5C 386.006,348.75 362.839,348.084 339.5,352.5C 338.689,353.216 338.022,354.05 337.5,355C 336.67,375.89 337.67,396.723 340.5,417.5C 331.827,417.666 323.16,417.5 314.5,417C 313,414.167 310.833,412 308,410.5C 304.811,401.528 306.311,400.028 312.5,406C 313.448,406.483 314.448,406.649 315.5,406.5C 315.719,405.325 315.386,404.325 314.5,403.5C 311.418,401.628 308.751,399.295 306.5,396.5C 311.633,393.566 313.467,389.233 312,383.5C 306.879,379.125 302.545,379.791 299,385.5C 298.333,387.167 298.333,388.833 299,390.5C 300.339,392.665 301.839,394.665 303.5,396.5C 300.862,399.474 298.195,402.474 295.5,405.5C 296.365,406.583 297.365,406.749 298.5,406C 299.685,404.647 301.019,403.48 302.5,402.5C 302.833,403.167 303.167,403.833 303.5,404.5C 302.07,409.195 299.737,413.362 296.5,417C 197.501,417.5 98.5006,417.667 -0.5,417.5C -0.5,278.167 -0.5,138.833 -0.5,-0.5 Z"/></g>
<g><path style="opacity:1" fill="#6f706f" d="M 799.5,-0.5 C 1079.5,-0.5 1359.5,-0.5 1639.5,-0.5C 1639.5,515.5 1639.5,1031.5 1639.5,1547.5C 1092.83,1547.5 546.167,1547.5 -0.5,1547.5C -0.5,1198.17 -0.5,848.833 -0.5,499.5C 266.167,499.5 532.833,499.5 799.5,499.5C 799.5,472.167 799.5,444.833 799.5,417.5C 799.5,360.167 799.5,302.833 799.5,245.5C 799.5,244.5 799.5,243.5 799.5,242.5C 799.5,240.167 799.5,237.833 799.5,235.5C 799.5,234.5 799.5,233.5 799.5,232.5C 799.5,154.833 799.5,77.1667 799.5,-0.5 Z"/></g>
<g><path style="opacity:1" fill="#fefffe" d="M 1618.5,233.5 C 1586.85,231.847 1555.18,230.514 1523.5,229.5C 1487.53,234.091 1451.53,238.924 1415.5,244C 1414.33,245.167 1413.17,246.333 1412,247.5C 1411.96,297.177 1412.8,346.843 1414.5,396.5C 1414.33,403.514 1414,410.514 1413.5,417.5C 1414.5,417.5 1415.5,417.5 1416.5,417.5C 1417.1,411.2 1417.44,404.867 1417.5,398.5C 1416.01,348.843 1415.01,299.176 1414.5,249.5C 1482.49,247.917 1550.49,246.917 1618.5,246.5C 1618.5,303.833 1618.5,361.167 1618.5,418.5C 1589.17,418.5 1559.83,418.5 1530.5,418.5C 1530.54,406.146 1530.04,393.813 1529,381.5C 1528.93,377.299 1528.09,373.299 1526.5,369.5C 1524.29,368.894 1522.12,368.227 1520,367.5C 1509.77,367.961 1499.6,368.961 1489.5,370.5C 1490.73,386.491 1490.73,402.491 1489.5,418.5C 1400.83,418.5 1312.17,418.5 1223.5,418.5C 1224.2,400.36 1223.04,382.36 1220,364.5C 1219.35,362.277 1217.85,361.11 1215.5,361C 1201.51,357.996 1187.51,357.996 1173.5,361C 1169.09,361.354 1166.76,363.688 1166.5,368C 1167.21,384.797 1168.55,401.297 1170.5,417.5C 1167.91,418.48 1165.25,418.813 1162.5,418.5C 1159.91,398.246 1158.74,377.913 1159,357.5C 1161.13,355.862 1163.63,355.029 1166.5,355C 1186.61,352.241 1206.45,353.407 1226,358.5C 1228.04,362.903 1229.04,367.57 1229,372.5C 1230.13,387.479 1230.63,402.479 1230.5,417.5C 1231.5,417.5 1232.5,417.5 1233.5,417.5C 1233.69,398.456 1232.85,379.456 1231,360.5C 1230,358.833 1229,357.167 1228,355.5C 1205.01,349.75 1181.84,349.084 1158.5,353.5C 1157.69,354.216 1157.02,355.05 1156.5,356C 1155.67,376.89 1156.67,397.723 1159.5,418.5C 1045.83,418.5 932.167,418.5 818.5,418.5C 818.5,279.167 818.5,139.833 818.5,0.5C 1085.17,0.5 1351.83,0.5 1618.5,0.5C 1618.5,78.1667 1618.5,155.833 1618.5,233.5 Z"/></g>
<g><path style="opacity:1" fill="#000000" d="M 35.5,19.5 C 39.5138,19.3345 43.5138,19.5012 47.5,20C 49.5598,21.4926 49.8932,23.3259 48.5,25.5C 39.5563,20.4498 31.8896,22.1165 25.5,30.5C 30.7838,34.8154 36.4505,38.6488 42.5,42C 44.3333,43.8333 46.1667,45.6667 48,47.5C 51.2598,53.7962 49.4265,57.6295 42.5,59C 36.6058,60.0375 30.9391,59.3708 25.5,57C 22.291,55.417 21.1244,52.917 22,49.5C 23.3561,48.6198 24.8561,48.2865 26.5,48.5C 26.6399,50.1238 25.9733,51.2904 24.5,52C 26.1558,53.8294 28.1558,55.1628 30.5,56C 35.857,56.957 41.0237,56.457 46,54.5C 46.8684,50.3283 45.3684,47.1617 41.5,45C 36.1667,41.6667 30.8333,38.3333 25.5,35C 21.7043,30.8152 22.371,27.1486 27.5,24C 30.3911,22.7258 33.0578,21.2258 35.5,19.5 Z"/></g>
<g><path style="opacity:1" fill="#000000" d="M 104.5,19.5 C 106.199,19.3398 107.866,19.5065 109.5,20C 111.821,22.8083 113.488,25.975 114.5,29.5C 114.444,30.737 113.944,31.737 113,32.5C 111.673,29.8685 110.34,27.2019 109,24.5C 107.815,22.4407 106.648,22.274 105.5,24C 103.399,33.1146 103.065,42.2812 104.5,51.5C 106.144,51.7135 107.644,51.3802 109,50.5C 109.692,51.0253 110.192,51.6919 110.5,52.5C 108.827,54.0863 106.827,54.7529 104.5,54.5C 105.254,59.4635 105.587,64.4635 105.5,69.5C 104.5,69.5 103.5,69.5 102.5,69.5C 102.665,65.8183 102.499,62.1516 102,58.5C 101.727,56.6711 100.893,55.1711 99.5,54C 100.804,53.196 101.471,52.0293 101.5,50.5C 99.6441,39.8296 100.644,29.4963 104.5,19.5 Z"/></g>
<g><path style="opacity:1" fill="#000000" d="M 854.5,20.5 C 858.514,20.3345 862.514,20.5012 866.5,21C 868.56,22.4926 868.893,24.3259 867.5,26.5C 858.556,21.4498 850.89,23.1165 844.5,31.5C 849.784,35.8154 855.45,39.6488 861.5,43C 863.333,44.8333 865.167,46.6667 867,48.5C 870.26,54.7962 868.426,58.6295 861.5,60C 855.606,61.0375 849.939,60.3708 844.5,58C 841.291,56.417 840.124,53.917 841,50.5C 842.356,49.6198 843.856,49.2865 845.5,49.5C 845.64,51.1238 844.973,52.2904 843.5,53C 845.156,54.8294 847.156,56.1628 849.5,57C 854.857,57.957 860.024,57.457 865,55.5C 865.868,51.3283 864.368,48.1617 860.5,46C 855.167,42.6667 849.833,39.3333 844.5,36C 840.704,31.8152 841.371,28.1486 846.5,25C 849.391,23.7258 852.058,22.2258 854.5,20.5 Z"/></g>
<g><path style="opacity:1" fill="#000000" d="M 923.5,20.5 C 925.199,20.3398 926.866,20.5065 928.5,21C 930.821,23.8083 932.488,26.975 933.5,30.5C 933.444,31.737 932.944,32.737 932,33.5C 930.673,30.8685 929.34,28.2019 928,25.5C 926.815,23.4407 925.648,23.274 924.5,25C 922.399,34.1146 922.065,43.2812 923.5,52.5C 925.144,52.7135 926.644,52.3802 928,51.5C 928.692,52.0253 929.192,52.6919 929.5,53.5C 927.827,55.0863 925.827,55.7529 923.5,55.5C 924.254,60.4635 924.587,65.4635 924.5,70.5C 923.5,70.5 922.5,70.5 921.5,70.5C 921.665,66.8183 921.499,63.1516 921,59.5C 920.727,57.6711 919.893,56.1711 918.5,55C 919.804,54.196 920.471,53.0293 920.5,51.5C 918.644,40.8296 919.644,30.4963 923.5,20.5 Z"/></g>
<g><path style="opacity:1" fill="#000000" d="M 86.5,41.5 C 88.604,41.2011 90.604,41.5344 92.5,42.5C 89.2711,43.8697 86.1045,45.5364 83,47.5C 82.1263,50.961 82.9597,53.961 85.5,56.5C 82.0181,57.8231 80.1848,56.4898 80,52.5C 79.3333,50.5 79.3333,48.5 80,46.5C 81.9651,44.4497 84.1318,42.783 86.5,41.5 Z"/></g>
<g><path style="opacity:1" fill="#000000" d="M 57.5,42.5 C 59.1033,42.3118 60.4366,42.8118 61.5,44C 57.9905,47.048 57.6572,50.3813 60.5,54C 61.8333,54.6667 63.1667,54.6667 64.5,54C 65.6403,51.5417 67.1403,49.375 69,47.5C 71.1019,50.5926 72.9352,53.926 74.5,57.5C 73.635,58.5827 72.635,58.7494 71.5,58C 70.6705,56.1839 69.8372,54.3506 69,52.5C 65.7211,58.0912 61.7211,58.7579 57,54.5C 55.0675,50.4221 55.2342,46.4221 57.5,42.5 Z"/></g>
<g><path style="opacity:1" fill="#000000" d="M 905.5,42.5 C 907.604,42.2011 909.604,42.5344 911.5,43.5C 908.271,44.8697 905.104,46.5364 902,48.5C 901.126,51.961 901.96,54.961 904.5,57.5C 901.018,58.8231 899.185,57.4898 899,53.5C 898.333,51.5 898.333,49.5 899,47.5C 900.965,45.4497 903.132,43.783 905.5,42.5 Z"/></g>
<g><path style="opacity:1" fill="#020202" d="M 152.5,43.5 C 154.958,43.2275 156.625,44.2275 157.5,46.5C 156.232,50.7671 153.565,53.7671 149.5,55.5C 148.914,55.2907 148.414,54.9574 148,54.5C 147.576,57.3277 148.91,58.661 152,58.5C 154.764,57.7856 157.431,56.7856 160,55.5C 160.5,55.8333 161,56.1667 161.5,56.5C 157.356,61.2689 152.356,62.4356 146.5,60C 144.027,56.654 143.86,53.154 146,49.5C 148.063,47.2659 150.229,45.2659 152.5,43.5 Z"/></g>
<g><path style="opacity:1" fill="#000000" d="M 876.5,43.5 C 878.103,43.3118 879.437,43.8118 880.5,45C 876.99,48.048 876.657,51.3813 879.5,55C 880.833,55.6667 882.167,55.6667 883.5,55C 884.64,52.5417 886.14,50.375 888,48.5C 890.102,51.5926 891.935,54.926 893.5,58.5C 892.635,59.5827 891.635,59.7494 890.5,59C 889.671,57.1839 888.837,55.3506 888,53.5C 884.721,59.0912 880.721,59.7579 876,55.5C 874.067,51.4221 874.234,47.4221 876.5,43.5 Z"/></g>
<g><path style="opacity:1" fill="#020202" d="M 971.5,44.5 C 973.958,44.2275 975.625,45.2275 976.5,47.5C 975.232,51.7671 972.565,54.7671 968.5,56.5C 967.914,56.2907 967.414,55.9574 967,55.5C 966.576,58.3277 967.91,59.661 971,59.5C 973.764,58.7856 976.431,57.7856 979,56.5C 979.5,56.8333 980,57.1667 980.5,57.5C 976.356,62.2689 971.356,63.4356 965.5,61C 963.027,57.654 962.86,54.154 965,50.5C 967.063,48.2659 969.229,46.2659 971.5,44.5 Z"/></g>
<g><path style="opacity:1" fill="#000000" d="M 134.5,45.5 C 136.977,45.0508 138.977,45.7175 140.5,47.5C 140.167,48.5 139.5,49.1667 138.5,49.5C 134.18,48.3165 132.014,49.9832 132,54.5C 135.104,56.4636 138.271,58.1303 141.5,59.5C 135.314,61.0738 130.981,58.9072 128.5,53C 129,51.5 129.5,50 130,48.5C 131.652,47.6006 133.152,46.6006 134.5,45.5 Z"/></g>
<g><path style="opacity:1" fill="#fefffe" d="M 152.5,46.5 C 153.239,46.369 153.906,46.5357 154.5,47C 153.359,49.3079 151.692,51.1413 149.5,52.5C 149.167,52.1667 148.833,51.8333 148.5,51.5C 149.857,49.8144 151.19,48.1477 152.5,46.5 Z"/></g>
<g><path style="opacity:1" fill="#000000" d="M 953.5,46.5 C 955.977,46.0508 957.977,46.7175 959.5,48.5C 959.167,49.5 958.5,50.1667 957.5,50.5C 953.18,49.3165 951.014,50.9832 951,55.5C 954.104,57.4636 957.271,59.1303 960.5,60.5C 954.314,62.0738 949.981,59.9072 947.5,54C 948,52.5 948.5,51 949,49.5C 950.652,48.6006 952.152,47.6006 953.5,46.5 Z"/></g>
<g><path style="opacity:1" fill="#000000" d="M 115.5,47.5 C 117.527,47.3379 119.527,47.5045 121.5,48C 122.525,50.0715 123.358,52.2381 124,54.5C 125.688,56.7894 127.521,58.1228 129.5,58.5C 125.253,60.9687 122.42,59.6353 121,54.5C 119.04,58.3759 116.207,59.2092 112.5,57C 110.808,52.9431 111.808,49.7764 115.5,47.5 Z"/></g>
<g><path style="opacity:1" fill="#fefffe" d="M 971.5,47.5 C 972.239,47.369 972.906,47.5357 973.5,48C 972.359,50.3079 970.692,52.1413 968.5,53.5C 968.167,53.1667 967.833,52.8333 967.5,52.5C 968.857,50.8144 970.19,49.1477 971.5,47.5 Z"/></g>
<g><path style="opacity:1" fill="#000000" d="M 934.5,48.5 C 936.527,48.3379 938.527,48.5045 940.5,49C 941.525,51.0715 942.358,53.2381 943,55.5C 944.688,57.7894 946.521,59.1228 948.5,59.5C 944.253,61.9687 941.42,60.6353 940,55.5C 938.04,59.3759 935.207,60.2092 931.5,58C 929.808,53.9431 930.808,50.7764 934.5,48.5 Z"/></g>
<g><path style="opacity:1" fill="#fefffe" d="M 115.5,50.5 C 120.353,51.3092 120.353,52.9758 115.5,55.5C 114.334,53.8327 114.334,52.166 115.5,50.5 Z"/></g>
<g><path style="opacity:1" fill="#fefffe" d="M 934.5,51.5 C 939.353,52.3092 939.353,53.9758 934.5,56.5C 933.334,54.8327 933.334,53.166 934.5,51.5 Z"/></g>
<g><path style="opacity:1" fill="#000000" d="M 799.5,232.5 C 799.5,233.5 799.5,234.5 799.5,235.5C 761.864,232.563 724.197,232.063 686.5,234C 657.201,237.948 627.868,241.614 598.5,245C 665.49,243.886 732.49,243.052 799.5,242.5C 799.5,243.5 799.5,244.5 799.5,245.5C 731.49,245.917 663.49,246.917 595.5,248.5C 596.005,298.176 597.005,347.843 598.5,397.5C 598.437,403.867 598.104,410.2 597.5,416.5C 596.5,416.5 595.5,416.5 594.5,416.5C 595,409.514 595.333,402.514 595.5,395.5C 593.798,345.843 592.965,296.177 593,246.5C 594.167,245.333 595.333,244.167 596.5,243C 632.528,237.924 668.528,233.091 704.5,228.5C 736.184,229.514 767.851,230.847 799.5,232.5 Z"/></g>
<g><path style="opacity:1" fill="#000000" d="M 1618.5,233.5 C 1618.5,234.5 1618.5,235.5 1618.5,236.5C 1580.86,233.563 1543.2,233.063 1505.5,235C 1476.2,238.948 1446.87,242.614 1417.5,246C 1484.49,244.886 1551.49,244.052 1618.5,243.5C 1618.5,244.5 1618.5,245.5 1618.5,246.5C 1550.49,246.917 1482.49,247.917 1414.5,249.5C 1415.01,299.176 1416.01,348.843 1417.5,398.5C 1417.44,404.867 1417.1,411.2 1416.5,417.5C 1415.5,417.5 1414.5,417.5 1413.5,417.5C 1414,410.514 1414.33,403.514 1414.5,396.5C 1412.8,346.843 1411.96,297.177 1412,247.5C 1413.17,246.333 1414.33,245.167 1415.5,244C 1451.53,238.924 1487.53,234.091 1523.5,229.5C 1555.18,230.514 1586.85,231.847 1618.5,233.5 Z"/></g>
<g><path style="opacity:1" fill="#fefffe" d="M 799.5,235.5 C 799.5,237.833 799.5,240.167 799.5,242.5C 732.49,243.052 665.49,243.886 598.5,245C 627.868,241.614 657.201,237.948 686.5,234C 724.197,232.063 761.864,232.563 799.5,235.5 Z"/></g>
<g><path style="opacity:1" fill="#fefffe" d="M 1618.5,236.5 C 1618.5,238.833 1618.5,241.167 1618.5,243.5C 1551.49,244.052 1484.49,244.886 1417.5,246C 1446.87,242.614 1476.2,238.948 1505.5,235C 1543.2,233.063 1580.86,233.563 1618.5,236.5 Z"/></g>
<g><path style="opacity:1" fill="#000000" d="M 1229.5,309.5 C 1240.84,309.333 1252.17,309.5 1263.5,310C 1264.77,310.309 1265.93,310.809 1267,311.5C 1267.71,319.933 1267.04,328.266 1265,336.5C 1263.27,340.785 1260.1,343.285 1255.5,344C 1248.49,344.324 1241.49,344.824 1234.5,345.5C 1232.31,345.674 1230.47,345.007 1229,343.5C 1228.67,335.833 1228.33,328.167 1228,320.5C 1227.75,318.567 1227.25,316.734 1226.5,315C 1227.45,314.383 1228.28,314.549 1229,315.5C 1230.35,324.775 1230.85,334.109 1230.5,343.5C 1240.22,343.154 1249.89,342.321 1259.5,341C 1261.05,339.786 1262.22,338.286 1263,336.5C 1264.25,330.558 1265.09,324.558 1265.5,318.5C 1265.41,316.036 1264.74,313.87 1263.5,312C 1251.83,311.667 1240.17,311.333 1228.5,311C 1229.06,310.617 1229.39,310.117 1229.5,309.5 Z"/></g>
<g><path style="opacity:1" fill="#000000" d="M 1174.5,332.5 C 1176.22,333.807 1178.06,333.807 1180,332.5C 1180.5,333 1181,333.5 1181.5,334C 1176.56,336.69 1173.06,335.524 1171,330.5C 1167.66,333.696 1163.66,335.363 1159,335.5C 1157.71,330.703 1156.04,326.036 1154,321.5C 1152.48,316.343 1154.31,313.343 1159.5,312.5C 1167.99,314.474 1172.49,319.807 1173,328.5C 1174.74,326.375 1176.9,325.542 1179.5,326C 1180.71,327.113 1180.71,328.28 1179.5,329.5C 1178.06,330.952 1176.39,331.952 1174.5,332.5 Z"/></g>
<g><path style="opacity:1" fill="#fefffe" d="M 1157.5,314.5 C 1168.08,315.849 1171.75,321.349 1168.5,331C 1165.65,332.289 1162.65,332.789 1159.5,332.5C 1158.69,327.64 1157.69,322.806 1156.5,318C 1156.65,316.744 1156.98,315.577 1157.5,314.5 Z"/></g>
<g><path style="opacity:1" fill="#050505" d="M 1221.5,316.5 C 1222.12,316.611 1222.62,316.944 1223,317.5C 1223.15,323.478 1223.98,329.312 1225.5,335C 1223.19,335.271 1222.03,334.105 1222,331.5C 1221.03,333.64 1219.53,335.307 1217.5,336.5C 1214.69,334.7 1212.69,332.367 1211.5,329.5C 1207.82,329.754 1204.99,331.42 1203,334.5C 1202.26,333.426 1201.26,332.759 1200,332.5C 1196.35,334.147 1193.01,333.813 1190,331.5C 1187.21,332.783 1184.37,332.783 1181.5,331.5C 1183.77,330.686 1186.1,330.186 1188.5,330C 1182.51,328.265 1182.18,326.099 1187.5,323.5C 1189.93,324.806 1189.6,325.806 1186.5,326.5C 1187.33,327.415 1188.33,328.081 1189.5,328.5C 1191.94,324.614 1195.27,322.948 1199.5,323.5C 1197.51,324.498 1195.51,325.498 1193.5,326.5C 1192.05,327.85 1191.38,329.516 1191.5,331.5C 1193.86,331.663 1196.19,331.497 1198.5,331C 1199.21,328.119 1200.88,325.952 1203.5,324.5C 1205.07,325.714 1205.9,327.381 1206,329.5C 1209.1,326.647 1211.76,326.98 1214,330.5C 1214.61,327.968 1216.11,327.135 1218.5,328C 1215.21,329.959 1214.88,332.125 1217.5,334.5C 1218.84,332.658 1220.51,331.158 1222.5,330C 1221.53,325.599 1221.2,321.099 1221.5,316.5 Z"/></g>
<g><path style="opacity:1" fill="#000000" d="M 1246.5,316.5 C 1248.86,316.337 1251.19,316.503 1253.5,317C 1248.02,318.763 1242.35,319.93 1236.5,320.5C 1236.5,322.5 1236.5,324.5 1236.5,326.5C 1238.6,326.201 1240.6,326.534 1242.5,327.5C 1240.95,328.452 1239.29,328.785 1237.5,328.5C 1237.5,330.833 1237.5,333.167 1237.5,335.5C 1241.55,334.816 1245.55,334.816 1249.5,335.5C 1245.03,337.31 1240.53,337.643 1236,336.5C 1235.3,330.511 1234.8,324.511 1234.5,318.5C 1238.71,318.283 1242.71,317.617 1246.5,316.5 Z"/></g>
<g><path style="opacity:1" fill="#fefffe" d="M 1202.5,326.5 C 1203.71,327.497 1203.55,328.497 1202,329.5C 1201.53,328.423 1201.7,327.423 1202.5,326.5 Z"/></g>
<g><path style="opacity:1" fill="#fefffe" d="M 1174.5,332.5 C 1173.32,329.192 1174.65,327.692 1178.5,328C 1176.81,329.307 1175.47,330.807 1174.5,332.5 Z"/></g>
<g><path style="opacity:1" fill="#000000" d="M 799.5,417.5 C 799.5,444.833 799.5,472.167 799.5,499.5C 532.833,499.5 266.167,499.5 -0.5,499.5C -0.5,472.167 -0.5,444.833 -0.5,417.5C 98.5006,417.667 197.501,417.5 296.5,417C 299.737,413.362 302.07,409.195 303.5,404.5C 303.167,403.833 302.833,403.167 302.5,402.5C 301.019,403.48 299.685,404.647 298.5,406C 297.365,406.749 296.365,406.583 295.5,405.5C 298.195,402.474 300.862,399.474 303.5,396.5C 301.839,394.665 300.339,392.665 299,390.5C 298.333,388.833 298.333,387.167 299,385.5C 302.545,379.791 306.879,379.125 312,383.5C 313.467,389.233 311.633,393.566 306.5,396.5C 308.751,399.295 311.418,401.628 314.5,403.5C 315.386,404.325 315.719,405.325 315.5,406.5C 314.448,406.649 313.448,406.483 312.5,406C 306.311,400.028 304.811,401.528 308,410.5C 310.833,412 313,414.167 314.5,417C 323.16,417.5 331.827,417.666 340.5,417.5C 337.67,396.723 336.67,375.89 337.5,355C 338.022,354.05 338.689,353.216 339.5,352.5C 362.839,348.084 386.006,348.75 409,354.5C 410,356.167 411,357.833 412,359.5C 413.855,378.456 414.688,397.456 414.5,416.5C 413.5,416.5 412.5,416.5 411.5,416.5C 411.631,401.479 411.131,386.479 410,371.5C 410.045,366.57 409.045,361.903 407,357.5C 387.445,352.407 367.612,351.241 347.5,354C 344.633,354.029 342.133,354.862 340,356.5C 339.744,376.913 340.91,397.246 343.5,417.5C 346.247,417.813 348.914,417.48 351.5,416.5C 349.547,400.297 348.214,383.797 347.5,367C 347.755,362.688 350.089,360.354 354.5,360C 368.514,356.996 382.514,356.996 396.5,360C 398.848,360.11 400.348,361.277 401,363.5C 404.038,381.36 405.205,399.36 404.5,417.5C 493.167,417.5 581.833,417.5 670.5,417.5C 671.733,401.491 671.733,385.491 670.5,369.5C 680.601,367.961 690.768,366.961 701,366.5C 703.124,367.227 705.291,367.894 707.5,368.5C 709.093,372.299 709.926,376.299 710,380.5C 711.045,392.813 711.545,405.146 711.5,417.5C 740.833,417.5 770.167,417.5 799.5,417.5 Z"/></g>
<g><path style="opacity:1" fill="#000000" d="M 1618.5,418.5 C 1618.5,445.833 1618.5,473.167 1618.5,500.5C 1351.83,500.5 1085.17,500.5 818.5,500.5C 818.5,473.167 818.5,445.833 818.5,418.5C 932.167,418.5 1045.83,418.5 1159.5,418.5C 1156.67,397.723 1155.67,376.89 1156.5,356C 1157.02,355.05 1157.69,354.216 1158.5,353.5C 1181.84,349.084 1205.01,349.75 1228,355.5C 1229,357.167 1230,358.833 1231,360.5C 1232.85,379.456 1233.69,398.456 1233.5,417.5C 1232.5,417.5 1231.5,417.5 1230.5,417.5C 1230.63,402.479 1230.13,387.479 1229,372.5C 1229.04,367.57 1228.04,362.903 1226,358.5C 1206.45,353.407 1186.61,352.241 1166.5,355C 1163.63,355.029 1161.13,355.862 1159,357.5C 1158.74,377.913 1159.91,398.246 1162.5,418.5C 1165.25,418.813 1167.91,418.48 1170.5,417.5C 1168.55,401.297 1167.21,384.797 1166.5,368C 1166.76,363.688 1169.09,361.354 1173.5,361C 1187.51,357.996 1201.51,357.996 1215.5,361C 1217.85,361.11 1219.35,362.277 1220,364.5C 1223.04,382.36 1224.2,400.36 1223.5,418.5C 1312.17,418.5 1400.83,418.5 1489.5,418.5C 1490.73,402.491 1490.73,386.491 1489.5,370.5C 1499.6,368.961 1509.77,367.961 1520,367.5C 1522.12,368.227 1524.29,368.894 1526.5,369.5C 1528.09,373.299 1528.93,377.299 1529,381.5C 1530.04,393.813 1530.54,406.146 1530.5,418.5C 1559.83,418.5 1589.17,418.5 1618.5,418.5 Z"/></g>
<g><path style="opacity:1" fill="#fefffe" d="M 374.5,360.5 C 382.571,361.009 390.571,362.009 398.5,363.5C 401.039,381.399 402.039,399.399 401.5,417.5C 385.833,417.5 370.167,417.5 354.5,417.5C 352.436,399.559 351.103,381.559 350.5,363.5C 355.637,362.672 360.803,362.005 366,361.5C 367.833,361.833 369.667,362.167 371.5,362.5C 372.999,377.446 374.165,392.446 375,407.5C 375.333,410.167 375.667,412.833 376,415.5C 376.414,415.957 376.914,416.291 377.5,416.5C 377.833,415 378.167,413.5 378.5,412C 377.239,394.81 375.905,377.644 374.5,360.5 Z"/></g>
<g><path style="opacity:1" fill="#fefffe" d="M 1193.5,361.5 C 1201.57,362.009 1209.57,363.009 1217.5,364.5C 1220.04,382.399 1221.04,400.399 1220.5,418.5C 1215.46,418.827 1210.46,418.494 1205.5,417.5C 1204.2,414.362 1202.03,412.029 1199,410.5C 1195.81,401.528 1197.31,400.028 1203.5,406C 1204.45,406.483 1205.45,406.649 1206.5,406.5C 1206.72,405.325 1206.39,404.325 1205.5,403.5C 1202.42,401.628 1199.75,399.295 1197.5,396.5C 1202.63,393.566 1204.47,389.233 1203,383.5C 1201,381.253 1198.5,380.253 1195.5,380.5C 1195.03,374.138 1194.36,367.805 1193.5,361.5 Z"/></g>
<g><path style="opacity:1" fill="#fefffe" d="M 1179.5,362.5 C 1183.67,361.956 1187.51,362.623 1191,364.5C 1191.43,369.174 1191.93,373.841 1192.5,378.5C 1191.8,381.723 1190.8,384.89 1189.5,388C 1190.85,391.342 1192.18,394.675 1193.5,398C 1190.98,400.349 1188.65,402.849 1186.5,405.5C 1187.36,406.583 1188.36,406.749 1189.5,406C 1190.67,404.833 1191.83,403.667 1193,402.5C 1193.17,403.5 1193.33,404.5 1193.5,405.5C 1192.57,410.037 1190.57,414.037 1187.5,417.5C 1182.88,418.493 1178.21,418.827 1173.5,418.5C 1171.44,400.559 1170.1,382.559 1169.5,364.5C 1173.04,364.247 1176.37,363.581 1179.5,362.5 Z"/></g>
<g><path style="opacity:1" fill="#fefffe" d="M 700.5,369.5 C 702.352,370.089 704.185,370.756 706,371.5C 707.607,386.972 708.44,402.306 708.5,417.5C 696.833,417.5 685.167,417.5 673.5,417.5C 674.713,401.82 674.713,386.154 673.5,370.5C 682.682,370.827 691.682,370.493 700.5,369.5 Z"/></g>
<g><path style="opacity:1" fill="#fefffe" d="M 1519.5,370.5 C 1521.35,371.089 1523.19,371.756 1525,372.5C 1526.61,387.972 1527.44,403.306 1527.5,418.5C 1515.83,418.5 1504.17,418.5 1492.5,418.5C 1493.71,402.82 1493.71,387.154 1492.5,371.5C 1501.68,371.827 1510.68,371.493 1519.5,370.5 Z"/></g>
<g><path style="opacity:1" fill="#171717" d="M 695.5,388.5 C 699.257,388.071 702.757,388.737 706,390.5C 706.865,392.888 706.032,394.388 703.5,395C 699.191,396.198 695.524,395.198 692.5,392C 693.365,390.641 694.365,389.474 695.5,388.5 Z"/></g>
<g><path style="opacity:1" fill="#171717" d="M 1514.5,389.5 C 1518.26,389.071 1521.76,389.737 1525,391.5C 1525.87,393.888 1525.03,395.388 1522.5,396C 1518.19,397.198 1514.52,396.198 1511.5,393C 1512.36,391.641 1513.36,390.474 1514.5,389.5 Z"/></g>
<g><path style="opacity:1" fill="#fefffe" d="M 303.5,411.5 C 306.25,412.744 308.583,414.577 310.5,417C 307.118,417.824 303.784,417.657 300.5,416.5C 301.763,414.971 302.763,413.305 303.5,411.5 Z"/></g>
<g><path style="opacity:1" fill="#fefffe" d="M 1193.5,412.5 C 1194.23,413.878 1194.9,415.378 1195.5,417C 1195.83,417.167 1196.17,417.333 1196.5,417.5C 1197.28,416.271 1197.78,414.938 1198,413.5C 1199.17,415.333 1200.67,416.833 1202.5,418C 1198.5,418.667 1194.5,418.667 1190.5,418C 1191.76,416.259 1192.76,414.426 1193.5,412.5 Z"/></g>
<g><path style="opacity:1" fill="#fefffe" d="M 1234.5,767.5 C 1202.85,765.847 1171.18,764.514 1139.5,763.5C 1103.53,768.091 1067.53,772.924 1031.5,778C 1030.33,779.167 1029.17,780.333 1028,781.5C 1027.96,831.177 1028.8,880.843 1030.5,930.5C 1030.33,937.514 1030,944.514 1029.5,951.5C 1030.5,951.5 1031.5,951.5 1032.5,951.5C 1033.1,945.2 1033.44,938.867 1033.5,932.5C 1032.01,882.843 1031.01,833.176 1030.5,783.5C 1098.49,781.917 1166.49,780.917 1234.5,780.5C 1234.5,837.833 1234.5,895.167 1234.5,952.5C 1205.17,952.5 1175.83,952.5 1146.5,952.5C 1146.54,940.146 1146.04,927.813 1145,915.5C 1144.93,911.299 1144.09,907.299 1142.5,903.5C 1140.29,902.894 1138.12,902.227 1136,901.5C 1125.77,901.961 1115.6,902.961 1105.5,904.5C 1106.73,920.491 1106.73,936.491 1105.5,952.5C 1016.83,952.5 928.167,952.5 839.5,952.5C 840.205,934.36 839.038,916.36 836,898.5C 835.348,896.277 833.848,895.11 831.5,895C 817.514,891.996 803.514,891.996 789.5,895C 785.089,895.354 782.755,897.688 782.5,902C 783.214,918.797 784.547,935.297 786.5,951.5C 783.914,952.48 781.247,952.813 778.5,952.5C 775.91,932.246 774.744,911.913 775,891.5C 777.133,889.862 779.633,889.029 782.5,889C 802.612,886.241 822.445,887.407 842,892.5C 844.045,896.903 845.045,901.57 845,906.5C 846.131,921.479 846.631,936.479 846.5,951.5C 847.5,951.5 848.5,951.5 849.5,951.5C 849.688,932.456 848.855,913.456 847,894.5C 846,892.833 845,891.167 844,889.5C 821.006,883.75 797.839,883.084 774.5,887.5C 773.689,888.216 773.022,889.05 772.5,890C 771.67,910.89 772.67,931.723 775.5,952.5C 661.833,952.5 548.167,952.5 434.5,952.5C 434.5,813.167 434.5,673.833 434.5,534.5C 701.167,534.5 967.833,534.5 1234.5,534.5C 1234.5,612.167 1234.5,689.833 1234.5,767.5 Z"/></g>
<g><path style="opacity:1" fill="#000000" d="M 470.5,554.5 C 474.514,554.334 478.514,554.501 482.5,555C 484.56,556.493 484.893,558.326 483.5,560.5C 474.556,555.45 466.89,557.117 460.5,565.5C 465.784,569.815 471.45,573.649 477.5,577C 479.333,578.833 481.167,580.667 483,582.5C 486.26,588.796 484.426,592.63 477.5,594C 471.606,595.037 465.939,594.371 460.5,592C 457.291,590.417 456.124,587.917 457,584.5C 458.356,583.62 459.856,583.286 461.5,583.5C 461.64,585.124 460.973,586.29 459.5,587C 461.156,588.829 463.156,590.163 465.5,591C 470.857,591.957 476.024,591.457 481,589.5C 481.868,585.328 480.368,582.162 476.5,580C 471.167,576.667 465.833,573.333 460.5,570C 456.704,565.815 457.371,562.149 462.5,559C 465.391,557.726 468.058,556.226 470.5,554.5 Z"/></g>
<g><path style="opacity:1" fill="#000000" d="M 539.5,554.5 C 541.199,554.34 542.866,554.506 544.5,555C 546.821,557.808 548.488,560.975 549.5,564.5C 549.444,565.737 548.944,566.737 548,567.5C 546.673,564.869 545.34,562.202 544,559.5C 542.815,557.441 541.648,557.274 540.5,559C 538.399,568.115 538.065,577.281 539.5,586.5C 541.144,586.714 542.644,586.38 544,585.5C 544.692,586.025 545.192,586.692 545.5,587.5C 543.827,589.086 541.827,589.753 539.5,589.5C 540.254,594.463 540.587,599.463 540.5,604.5C 539.5,604.5 538.5,604.5 537.5,604.5C 537.665,600.818 537.499,597.152 537,593.5C 536.727,591.671 535.893,590.171 534.5,589C 535.804,588.196 536.471,587.029 536.5,585.5C 534.644,574.83 535.644,564.496 539.5,554.5 Z"/></g>
<g><path style="opacity:1" fill="#000000" d="M 521.5,576.5 C 523.604,576.201 525.604,576.534 527.5,577.5C 524.271,578.87 521.104,580.536 518,582.5C 517.126,585.961 517.96,588.961 520.5,591.5C 517.018,592.823 515.185,591.49 515,587.5C 514.333,585.5 514.333,583.5 515,581.5C 516.965,579.45 519.132,577.783 521.5,576.5 Z"/></g>
<g><path style="opacity:1" fill="#000000" d="M 492.5,577.5 C 494.103,577.312 495.437,577.812 496.5,579C 492.99,582.048 492.657,585.381 495.5,589C 496.833,589.667 498.167,589.667 499.5,589C 500.64,586.542 502.14,584.375 504,582.5C 506.102,585.593 507.935,588.926 509.5,592.5C 508.635,593.583 507.635,593.749 506.5,593C 505.671,591.184 504.837,589.351 504,587.5C 500.721,593.091 496.721,593.758 492,589.5C 490.067,585.422 490.234,581.422 492.5,577.5 Z"/></g>
<g><path style="opacity:1" fill="#020202" d="M 587.5,578.5 C 589.958,578.227 591.625,579.227 592.5,581.5C 591.232,585.767 588.565,588.767 584.5,590.5C 583.914,590.291 583.414,589.957 583,589.5C 582.576,592.328 583.91,593.661 587,593.5C 589.764,592.786 592.431,591.786 595,590.5C 595.5,590.833 596,591.167 596.5,591.5C 592.356,596.269 587.356,597.436 581.5,595C 579.027,591.654 578.86,588.154 581,584.5C 583.063,582.266 585.229,580.266 587.5,578.5 Z"/></g>
<g><path style="opacity:1" fill="#000000" d="M 569.5,580.5 C 571.977,580.051 573.977,580.717 575.5,582.5C 575.167,583.5 574.5,584.167 573.5,584.5C 569.18,583.317 567.014,584.983 567,589.5C 570.104,591.464 573.271,593.13 576.5,594.5C 570.314,596.074 565.981,593.907 563.5,588C 564,586.5 564.5,585 565,583.5C 566.652,582.601 568.152,581.601 569.5,580.5 Z"/></g>
<g><path style="opacity:1" fill="#fefffe" d="M 587.5,581.5 C 588.239,581.369 588.906,581.536 589.5,582C 588.359,584.308 586.692,586.141 584.5,587.5C 584.167,587.167 583.833,586.833 583.5,586.5C 584.857,584.814 586.19,583.148 587.5,581.5 Z"/></g>
<g><path style="opacity:1" fill="#000000" d="M 550.5,582.5 C 552.527,582.338 554.527,582.505 556.5,583C 557.525,585.071 558.358,587.238 559,589.5C 560.688,591.789 562.521,593.123 564.5,593.5C 560.253,595.969 557.42,594.635 556,589.5C 554.04,593.376 551.207,594.209 547.5,592C 545.808,587.943 546.808,584.776 550.5,582.5 Z"/></g>
<g><path style="opacity:1" fill="#fefffe" d="M 550.5,585.5 C 555.353,586.309 555.353,587.976 550.5,590.5C 549.334,588.833 549.334,587.166 550.5,585.5 Z"/></g>
<g><path style="opacity:1" fill="#000000" d="M 1234.5,767.5 C 1234.5,768.5 1234.5,769.5 1234.5,770.5C 1196.86,767.563 1159.2,767.063 1121.5,769C 1092.2,772.948 1062.87,776.614 1033.5,780C 1100.49,778.886 1167.49,778.052 1234.5,777.5C 1234.5,778.5 1234.5,779.5 1234.5,780.5C 1166.49,780.917 1098.49,781.917 1030.5,783.5C 1031.01,833.176 1032.01,882.843 1033.5,932.5C 1033.44,938.867 1033.1,945.2 1032.5,951.5C 1031.5,951.5 1030.5,951.5 1029.5,951.5C 1030,944.514 1030.33,937.514 1030.5,930.5C 1028.8,880.843 1027.96,831.177 1028,781.5C 1029.17,780.333 1030.33,779.167 1031.5,778C 1067.53,772.924 1103.53,768.091 1139.5,763.5C 1171.18,764.514 1202.85,765.847 1234.5,767.5 Z"/></g>
<g><path style="opacity:1" fill="#fefffe" d="M 1234.5,770.5 C 1234.5,772.833 1234.5,775.167 1234.5,777.5C 1167.49,778.052 1100.49,778.886 1033.5,780C 1062.87,776.614 1092.2,772.948 1121.5,769C 1159.2,767.063 1196.86,767.563 1234.5,770.5 Z"/></g>
<g><path style="opacity:1" fill="#000000" d="M 1157.5,843.5 C 1168.84,843.333 1180.17,843.5 1191.5,844C 1192.77,844.309 1193.93,844.809 1195,845.5C 1195.71,853.933 1195.04,862.266 1193,870.5C 1191.27,874.785 1188.1,877.285 1183.5,878C 1176.49,878.324 1169.49,878.824 1162.5,879.5C 1160.31,879.674 1158.47,879.007 1157,877.5C 1156.67,869.833 1156.33,862.167 1156,854.5C 1155.75,852.567 1155.25,850.734 1154.5,849C 1155.45,848.383 1156.28,848.549 1157,849.5C 1158.35,858.775 1158.85,868.109 1158.5,877.5C 1168.22,877.154 1177.89,876.321 1187.5,875C 1189.05,873.786 1190.22,872.286 1191,870.5C 1192.25,864.558 1193.09,858.558 1193.5,852.5C 1193.41,850.036 1192.74,847.87 1191.5,846C 1179.83,845.667 1168.17,845.333 1156.5,845C 1157.06,844.617 1157.39,844.117 1157.5,843.5 Z"/></g>
<g><path style="opacity:1" fill="#000000" d="M 1087.5,847.5 C 1092.6,848.613 1097.77,848.613 1103,847.5C 1105.05,847.423 1106.88,847.923 1108.5,849C 1101.85,849.831 1095.19,850.331 1088.5,850.5C 1088.5,853.833 1088.5,857.167 1088.5,860.5C 1104.3,860.698 1104.3,861.364 1088.5,862.5C 1088.5,865.167 1088.5,867.833 1088.5,870.5C 1092.85,870.334 1097.18,870.501 1101.5,871C 1099.2,872.109 1096.7,872.609 1094,872.5C 1091.58,872.47 1089.24,872.137 1087,871.5C 1086.2,863.421 1086.37,855.421 1087.5,847.5 Z"/></g>
<g><path style="opacity:1" fill="#000000" d="M 1174.5,850.5 C 1176.86,850.337 1179.19,850.503 1181.5,851C 1176.02,852.763 1170.35,853.93 1164.5,854.5C 1164.5,856.5 1164.5,858.5 1164.5,860.5C 1166.6,860.201 1168.6,860.534 1170.5,861.5C 1168.95,862.452 1167.29,862.785 1165.5,862.5C 1165.5,864.833 1165.5,867.167 1165.5,869.5C 1169.55,868.816 1173.55,868.816 1177.5,869.5C 1173.03,871.31 1168.53,871.643 1164,870.5C 1163.3,864.511 1162.8,858.511 1162.5,852.5C 1166.71,852.283 1170.71,851.617 1174.5,850.5 Z"/></g>
<g><path style="opacity:1" fill="#000000" d="M 1115.5,857.5 C 1117.12,858.841 1118.12,860.674 1118.5,863C 1124.96,864.44 1124.96,865.44 1118.5,866C 1119.75,867.494 1119.75,868.994 1118.5,870.5C 1116.71,866.348 1115.71,862.014 1115.5,857.5 Z"/></g>
<g><path style="opacity:1" fill="#000000" d="M 1127.5,857.5 C 1129.66,857.116 1131.33,857.783 1132.5,859.5C 1130.85,861.65 1129.02,863.65 1127,865.5C 1126.02,868.259 1126.86,870.259 1129.5,871.5C 1132.27,866.232 1136.43,862.565 1142,860.5C 1142.5,860.833 1143,861.167 1143.5,861.5C 1137.75,863.269 1133.92,866.935 1132,872.5C 1128.82,873.748 1126.48,872.748 1125,869.5C 1123.89,865.019 1124.72,861.019 1127.5,857.5 Z"/></g>
<g><path style="opacity:1" fill="#000000" d="M 1108.5,859.5 C 1110.17,860.343 1111.34,861.676 1112,863.5C 1112.24,865.764 1112.74,867.931 1113.5,870C 1113,870.5 1112.5,871 1112,871.5C 1110.91,868.245 1109.91,864.911 1109,861.5C 1106.27,863.829 1104.77,866.829 1104.5,870.5C 1102.75,865.667 1104.09,862 1108.5,859.5 Z"/></g>
<g><path style="opacity:1" fill="#fefffe" d="M 1128.5,859.5 C 1129.24,859.369 1129.91,859.536 1130.5,860C 1129.33,861.167 1128.17,862.333 1127,863.5C 1126.7,861.934 1127.2,860.601 1128.5,859.5 Z"/></g>
<g><path style="opacity:1" fill="#000000" d="M 1234.5,952.5 C 1234.5,979.833 1234.5,1007.17 1234.5,1034.5C 1096.17,1034.5 957.833,1034.5 819.5,1034.5C 817.827,1020.79 815.827,1007.13 813.5,993.5C 812.914,993.709 812.414,994.043 812,994.5C 811.833,996 811.667,997.5 811.5,999C 813.401,1010.81 815.068,1022.64 816.5,1034.5C 812.167,1034.5 807.833,1034.5 803.5,1034.5C 802.5,1034.5 801.5,1034.5 800.5,1034.5C 678.5,1034.5 556.5,1034.5 434.5,1034.5C 434.5,1007.17 434.5,979.833 434.5,952.5C 548.167,952.5 661.833,952.5 775.5,952.5C 772.67,931.723 771.67,910.89 772.5,890C 773.022,889.05 773.689,888.216 774.5,887.5C 797.839,883.084 821.006,883.75 844,889.5C 845,891.167 846,892.833 847,894.5C 848.855,913.456 849.688,932.456 849.5,951.5C 848.5,951.5 847.5,951.5 846.5,951.5C 846.631,936.479 846.131,921.479 845,906.5C 845.045,901.57 844.045,896.903 842,892.5C 822.445,887.407 802.612,886.241 782.5,889C 779.633,889.029 777.133,889.862 775,891.5C 774.744,911.913 775.91,932.246 778.5,952.5C 781.247,952.813 783.914,952.48 786.5,951.5C 784.547,935.297 783.214,918.797 782.5,902C 782.755,897.688 785.089,895.354 789.5,895C 803.514,891.996 817.514,891.996 831.5,895C 833.848,895.11 835.348,896.277 836,898.5C 839.038,916.36 840.205,934.36 839.5,952.5C 928.167,952.5 1016.83,952.5 1105.5,952.5C 1106.73,936.491 1106.73,920.491 1105.5,904.5C 1115.6,902.961 1125.77,901.961 1136,901.5C 1138.12,902.227 1140.29,902.894 1142.5,903.5C 1144.09,907.299 1144.93,911.299 1145,915.5C 1146.04,927.813 1146.54,940.146 1146.5,952.5C 1175.83,952.5 1205.17,952.5 1234.5,952.5 Z"/></g>
<g><path style="opacity:1" fill="#fefffe" d="M 809.5,895.5 C 817.571,896.009 825.571,897.009 833.5,898.5C 836.039,916.399 837.039,934.399 836.5,952.5C 820.833,952.5 805.167,952.5 789.5,952.5C 787.436,934.559 786.103,916.559 785.5,898.5C 790.637,897.672 795.803,897.005 801,896.5C 802.833,896.833 804.667,897.167 806.5,897.5C 807.999,912.446 809.165,927.446 810,942.5C 810.333,945.167 810.667,947.833 811,950.5C 811.414,950.957 811.914,951.291 812.5,951.5C 812.833,950 813.167,948.5 813.5,947C 812.239,929.81 810.905,912.644 809.5,895.5 Z"/></g>
<g><path style="opacity:1" fill="#fefffe" d="M 1135.5,904.5 C 1137.35,905.089 1139.19,905.756 1141,906.5C 1142.61,921.972 1143.44,937.306 1143.5,952.5C 1140.1,952.82 1136.77,952.487 1133.5,951.5C 1132.2,948.362 1130.03,946.029 1127,944.5C 1123.81,935.528 1125.31,934.028 1131.5,940C 1132.45,940.483 1133.45,940.649 1134.5,940.5C 1134.72,939.325 1134.39,938.325 1133.5,937.5C 1130.42,935.628 1127.75,933.295 1125.5,930.5C 1127.32,928.089 1129.32,927.922 1131.5,930C 1133.83,930.667 1136.17,930.667 1138.5,930C 1142.5,928 1142.5,926 1138.5,924C 1136.19,923.503 1133.86,923.337 1131.5,923.5C 1132.22,916.724 1129.22,913.89 1122.5,915C 1118.44,916.947 1116.94,920.114 1118,924.5C 1119.34,926.665 1120.84,928.665 1122.5,930.5C 1119.86,933.474 1117.2,936.474 1114.5,939.5C 1115.36,940.583 1116.36,940.749 1117.5,940C 1118.69,938.647 1120.02,937.48 1121.5,936.5C 1122.61,937.723 1122.78,939.056 1122,940.5C 1120.34,944.496 1118.17,948.163 1115.5,951.5C 1113.26,952.474 1110.92,952.808 1108.5,952.5C 1109.71,936.82 1109.71,921.154 1108.5,905.5C 1117.68,905.827 1126.68,905.493 1135.5,904.5 Z"/></g>
<g><path style="opacity:1" fill="#fefffe" d="M 1122.5,945.5 C 1125.59,947.082 1128.25,949.248 1130.5,952C 1126.5,952.667 1122.5,952.667 1118.5,952C 1120.06,949.948 1121.39,947.781 1122.5,945.5 Z"/></g>
<g><path style="opacity:1" fill="#0104ff" d="M 819.5,1034.5 C 820.084,1045.17 820.75,1055.84 821.5,1066.5C 820.5,1066.5 819.5,1066.5 818.5,1066.5C 818.802,1063.94 818.468,1061.61 817.5,1059.5C 817.821,1053.97 817.488,1048.64 816.5,1043.5C 816.5,1040.5 816.5,1037.5 816.5,1034.5C 815.068,1022.64 813.401,1010.81 811.5,999C 811.667,997.5 811.833,996 812,994.5C 812.414,994.043 812.914,993.709 813.5,993.5C 815.827,1007.13 817.827,1020.79 819.5,1034.5 Z"/></g>
<g><path style="opacity:1" fill="#0104ff" d="M 800.5,1034.5 C 801.5,1034.5 802.5,1034.5 803.5,1034.5C 803.508,1037.54 803.841,1040.54 804.5,1043.5C 807.269,1053.04 811.602,1061.7 817.5,1069.5C 817.762,1071.56 818.929,1072.9 821,1073.5C 826.162,1068.18 829.495,1061.85 831,1054.5C 832.33,1049.52 833.496,1044.52 834.5,1039.5C 835.5,1039.5 836.5,1039.5 837.5,1039.5C 837.634,1041.29 837.301,1042.96 836.5,1044.5C 835.343,1048.79 834.343,1053.13 833.5,1057.5C 831.24,1063.35 828.407,1069.02 825,1074.5C 822.712,1076.66 820.212,1076.99 817.5,1075.5C 810.082,1065.94 804.749,1055.27 801.5,1043.5C 800.841,1040.54 800.508,1037.54 800.5,1034.5 Z"/></g>
<g><path style="opacity:1" fill="#6f706f" d="M 803.5,1034.5 C 807.833,1034.5 812.167,1034.5 816.5,1034.5C 816.5,1037.5 816.5,1040.5 816.5,1043.5C 812.5,1043.5 808.5,1043.5 804.5,1043.5C 803.841,1040.54 803.508,1037.54 803.5,1034.5 Z"/></g>
<g><path style="opacity:1" fill="#fefffe" d="M 801.5,1043.5 C 804.749,1055.27 810.082,1065.94 817.5,1075.5C 817.5,1181.83 817.5,1288.17 817.5,1394.5C 749.473,1395.05 681.473,1394.05 613.5,1391.5C 582.158,1391.79 550.825,1392.46 519.5,1393.5C 618.823,1394.5 718.156,1395.5 817.5,1396.5C 817.5,1445.5 817.5,1494.5 817.5,1543.5C 550.833,1543.5 284.167,1543.5 17.5,1543.5C 17.5,1520.5 17.5,1497.5 17.5,1474.5C 39.7606,1475.65 62.094,1475.82 84.5,1475C 103.798,1472.97 123.131,1471.97 142.5,1472C 141.294,1473.02 141.627,1473.52 143.5,1473.5C 145.568,1473.03 147.568,1472.37 149.5,1471.5C 150.475,1479.48 151.308,1487.48 152,1495.5C 152.718,1496.45 153.551,1496.62 154.5,1496C 153.707,1492.59 153.207,1489.09 153,1485.5C 152.333,1461.5 152.333,1437.5 153,1413.5C 153.246,1410.11 153.746,1406.78 154.5,1403.5C 153.369,1402.4 152.535,1402.73 152,1404.5C 150.608,1426.14 150.108,1447.8 150.5,1469.5C 128.45,1469.78 106.45,1470.95 84.5,1473C 62.1692,1473.5 39.8358,1473.67 17.5,1473.5C 17.5,1471.83 17.5,1470.17 17.5,1468.5C 28.1639,1466.74 38.6639,1467.41 49,1470.5C 53.7949,1470.23 58.2949,1469.07 62.5,1467C 73.5121,1466.42 84.5121,1466.08 95.5,1466C 92.1358,1466.73 88.8025,1467.56 85.5,1468.5C 86.5,1468.83 87.5,1469.17 88.5,1469.5C 94.5166,1467.55 100.683,1466.55 107,1466.5C 118.172,1467.08 129.339,1467.75 140.5,1468.5C 143.037,1468.6 145.371,1468.1 147.5,1467C 139.18,1466.22 130.847,1465.72 122.5,1465.5C 121.43,1458.98 123.597,1453.98 129,1450.5C 132.976,1454.09 137.143,1457.59 141.5,1461C 136.5,1461.33 131.5,1461.67 126.5,1462C 125.376,1462.25 124.376,1462.75 123.5,1463.5C 124,1463.83 124.5,1464.17 125,1464.5C 132.299,1464.02 139.465,1463.18 146.5,1462C 144.074,1460.86 141.741,1459.52 139.5,1458C 127.734,1444.53 121.401,1447.03 120.5,1465.5C 115.508,1465 110.508,1464.5 105.5,1464C 108.394,1463.13 109.561,1461.3 109,1458.5C 103.423,1454.38 97.4227,1451.05 91,1448.5C 83.5264,1451.09 80.3597,1456.43 81.5,1464.5C 76.1667,1464.5 70.8333,1464.5 65.5,1464.5C 65.67,1463.18 65.3366,1462.01 64.5,1461C 59.8815,1458.05 55.5482,1454.72 51.5,1451C 45.8246,1448.57 41.3246,1450.07 38,1455.5C 35.4661,1458.58 34.9661,1461.91 36.5,1465.5C 30.1373,1465.41 23.8039,1465.74 17.5,1466.5C 17.5,1439.83 17.5,1413.17 17.5,1386.5C 42.8333,1385.83 42.8333,1385.17 17.5,1384.5C 17.5,1270.83 17.5,1157.17 17.5,1043.5C 278.833,1043.5 540.167,1043.5 801.5,1043.5 Z"/></g>
<g><path style="opacity:1" fill="#fefffe" d="M 804.5,1043.5 C 808.5,1043.5 812.5,1043.5 816.5,1043.5C 817.488,1048.64 817.821,1053.97 817.5,1059.5C 817.5,1062.83 817.5,1066.17 817.5,1069.5C 811.602,1061.7 807.269,1053.04 804.5,1043.5 Z"/></g>
<g><path style="opacity:1" fill="#fefffe" d="M 836.5,1044.5 C 1102.17,1044.5 1367.83,1044.5 1633.5,1044.5C 1633.5,1161.5 1633.5,1278.5 1633.5,1395.5C 1565.47,1396.05 1497.47,1395.05 1429.5,1392.5C 1398.16,1392.79 1366.82,1393.46 1335.5,1394.5C 1434.82,1395.5 1534.16,1396.5 1633.5,1397.5C 1633.5,1446.5 1633.5,1495.5 1633.5,1544.5C 1366.83,1544.5 1100.17,1544.5 833.5,1544.5C 833.5,1521.5 833.5,1498.5 833.5,1475.5C 855.761,1476.65 878.094,1476.82 900.5,1476C 919.798,1473.97 939.131,1472.97 958.5,1473C 957.294,1474.02 957.627,1474.52 959.5,1474.5C 961.568,1474.03 963.568,1473.37 965.5,1472.5C 966.475,1480.48 967.308,1488.48 968,1496.5C 968.718,1497.45 969.551,1497.62 970.5,1497C 969.707,1493.59 969.207,1490.09 969,1486.5C 968.333,1462.5 968.333,1438.5 969,1414.5C 969.246,1411.11 969.746,1407.78 970.5,1404.5C 969.369,1403.4 968.535,1403.73 968,1405.5C 966.608,1427.14 966.108,1448.8 966.5,1470.5C 944.45,1470.78 922.45,1471.95 900.5,1474C 878.169,1474.5 855.836,1474.67 833.5,1474.5C 833.5,1472.83 833.5,1471.17 833.5,1469.5C 844.164,1467.74 854.664,1468.41 865,1471.5C 869.795,1471.23 874.295,1470.07 878.5,1468C 889.512,1467.42 900.512,1467.08 911.5,1467C 908.136,1467.73 904.803,1468.56 901.5,1469.5C 902.5,1469.83 903.5,1470.17 904.5,1470.5C 910.517,1468.55 916.683,1467.55 923,1467.5C 934.172,1468.08 945.339,1468.75 956.5,1469.5C 959.037,1469.6 961.371,1469.1 963.5,1468C 955.18,1467.22 946.847,1466.72 938.5,1466.5C 937.43,1459.98 939.597,1454.98 945,1451.5C 948.976,1455.09 953.143,1458.59 957.5,1462C 952.5,1462.33 947.5,1462.67 942.5,1463C 941.376,1463.25 940.376,1463.75 939.5,1464.5C 940,1464.83 940.5,1465.17 941,1465.5C 948.299,1465.02 955.465,1464.18 962.5,1463C 960.074,1461.86 957.741,1460.52 955.5,1459C 943.734,1445.53 937.401,1448.03 936.5,1466.5C 931.508,1466 926.508,1465.5 921.5,1465C 924.394,1464.13 925.561,1462.3 925,1459.5C 919.423,1455.38 913.423,1452.05 907,1449.5C 899.526,1452.09 896.36,1457.43 897.5,1465.5C 892.167,1465.5 886.833,1465.5 881.5,1465.5C 881.67,1464.18 881.337,1463.01 880.5,1462C 875.882,1459.05 871.548,1455.72 867.5,1452C 861.825,1449.57 857.325,1451.07 854,1456.5C 851.466,1459.58 850.966,1462.91 852.5,1466.5C 846.137,1466.41 839.804,1466.74 833.5,1467.5C 833.5,1440.83 833.5,1414.17 833.5,1387.5C 858.833,1386.83 858.833,1386.17 833.5,1385.5C 833.5,1276.17 833.5,1166.83 833.5,1057.5C 834.343,1053.13 835.343,1048.79 836.5,1044.5 Z"/></g>
<g><path style="opacity:1" fill="#000000" d="M 658.5,1085.5 C 661.187,1085.34 663.854,1085.5 666.5,1086C 668.481,1086.61 668.815,1087.61 667.5,1089C 669.686,1092.2 671.186,1095.7 672,1099.5C 674.114,1126.8 671.614,1153.64 664.5,1180C 667.029,1182.03 669.696,1183.86 672.5,1185.5C 669.785,1188.21 667.285,1187.88 665,1184.5C 662.527,1197.78 661.694,1197.78 662.5,1184.5C 547.873,1188.56 433.206,1190.72 318.5,1191C 285.985,1191.76 253.485,1192.93 221,1194.5C 212.742,1194.64 204.575,1193.97 196.5,1192.5C 195.167,1191.83 195.167,1191.17 196.5,1190.5C 204.575,1191.97 212.742,1192.64 221,1192.5C 317.793,1188.73 414.626,1186.9 511.5,1187C 561.535,1185.86 611.535,1184.03 661.5,1181.5C 655.378,1176.55 649.378,1171.38 643.5,1166C 641.833,1165.83 640.167,1165.67 638.5,1165.5C 611.556,1168.62 584.556,1171.12 557.5,1173C 478.166,1175.96 398.832,1178.96 319.5,1182C 279.833,1182.33 240.167,1182.67 200.5,1183C 196.957,1184.61 193.957,1186.94 191.5,1190C 192.5,1190.33 193.5,1190.67 194.5,1191C 191.706,1192.56 188.706,1192.89 185.5,1192C 184.884,1190.6 184.551,1189.1 184.5,1187.5C 186.049,1178.6 186.716,1169.6 186.5,1160.5C 186.143,1144.5 185.643,1128.5 185,1112.5C 184.716,1105.75 183.882,1099.08 182.5,1092.5C 183.651,1091.27 184.817,1091.27 186,1092.5C 187.067,1091.81 188.234,1091.31 189.5,1091C 253.33,1091.64 317.164,1092.48 381,1093.5C 463.198,1092.24 545.364,1089.91 627.5,1086.5C 635.684,1086.56 643.851,1086.89 652,1087.5C 654.484,1087.5 656.651,1086.84 658.5,1085.5 Z"/></g>
<g><path style="opacity:1" fill="#000000" d="M 1474.5,1086.5 C 1477.19,1086.34 1479.85,1086.5 1482.5,1087C 1484.48,1087.61 1484.81,1088.61 1483.5,1090C 1485.69,1093.2 1487.19,1096.7 1488,1100.5C 1490.11,1127.8 1487.61,1154.64 1480.5,1181C 1483.03,1183.03 1485.7,1184.86 1488.5,1186.5C 1485.79,1189.21 1483.29,1188.88 1481,1185.5C 1478.53,1198.78 1477.69,1198.78 1478.5,1185.5C 1363.87,1189.56 1249.21,1191.72 1134.5,1192C 1101.99,1192.76 1069.49,1193.93 1037,1195.5C 1028.74,1195.64 1020.58,1194.97 1012.5,1193.5C 1011.17,1192.83 1011.17,1192.17 1012.5,1191.5C 1020.58,1192.97 1028.74,1193.64 1037,1193.5C 1133.79,1189.73 1230.63,1187.9 1327.5,1188C 1377.54,1186.86 1427.54,1185.03 1477.5,1182.5C 1471.38,1177.55 1465.38,1172.38 1459.5,1167C 1457.83,1166.83 1456.17,1166.67 1454.5,1166.5C 1427.56,1169.62 1400.56,1172.12 1373.5,1174C 1294.17,1176.96 1214.83,1179.96 1135.5,1183C 1095.83,1183.33 1056.17,1183.67 1016.5,1184C 1012.96,1185.61 1009.96,1187.94 1007.5,1191C 1008.5,1191.33 1009.5,1191.67 1010.5,1192C 1007.71,1193.56 1004.71,1193.89 1001.5,1193C 1000.88,1191.6 1000.55,1190.1 1000.5,1188.5C 1002.05,1179.6 1002.72,1170.6 1002.5,1161.5C 1002.14,1145.5 1001.64,1129.5 1001,1113.5C 1000.72,1106.75 999.882,1100.08 998.5,1093.5C 999.651,1092.27 1000.82,1092.27 1002,1093.5C 1003.07,1092.81 1004.23,1092.31 1005.5,1092C 1069.33,1092.64 1133.16,1093.48 1197,1094.5C 1279.2,1093.24 1361.36,1090.91 1443.5,1087.5C 1451.68,1087.56 1459.85,1087.89 1468,1088.5C 1470.48,1088.5 1472.65,1087.84 1474.5,1086.5 Z"/></g>
<g><path style="opacity:1" fill="#fefffe" d="M 637.5,1160.5 C 638.058,1161.79 639.058,1162.62 640.5,1163C 612.911,1166.47 585.244,1169.14 557.5,1171C 478.166,1173.96 398.832,1176.96 319.5,1180C 279.501,1180.5 239.501,1180.67 199.5,1180.5C 199.712,1154.11 199.045,1127.78 197.5,1101.5C 198.025,1100.81 198.692,1100.31 199.5,1100C 195.993,1097.75 192.327,1095.75 188.5,1094C 188.833,1093.67 189.167,1093.33 189.5,1093C 253.33,1093.64 317.164,1094.48 381,1095.5C 462.699,1094.28 544.365,1091.94 626,1088.5C 632.5,1088.67 639,1088.83 645.5,1089C 643.381,1089.1 641.714,1089.93 640.5,1091.5C 641,1091.83 641.5,1092.17 642,1092.5C 648.904,1089.65 656.07,1088.49 663.5,1089C 667.296,1091.41 669.462,1094.91 670,1099.5C 671.766,1123.09 670.099,1146.42 665,1169.5C 665.727,1153.03 666.227,1136.53 666.5,1120C 666.167,1112.17 665.833,1104.33 665.5,1096.5C 665.169,1123.91 663.669,1151.24 661,1178.5C 655.775,1175.21 651.108,1171.21 647,1166.5C 646.383,1165.55 646.549,1164.72 647.5,1164C 644.704,1162.58 642.704,1160.41 641.5,1157.5C 640.904,1158.72 640.737,1160.05 641,1161.5C 639.989,1160.66 638.822,1160.33 637.5,1160.5 Z"/></g>
<g><path style="opacity:1" fill="#fefffe" d="M 1453.5,1161.5 C 1454.06,1162.79 1455.06,1163.62 1456.5,1164C 1428.91,1167.47 1401.24,1170.14 1373.5,1172C 1294.17,1174.96 1214.83,1177.96 1135.5,1181C 1095.5,1181.5 1055.5,1181.67 1015.5,1181.5C 1015.71,1155.11 1015.05,1128.78 1013.5,1102.5C 1014.03,1101.81 1014.69,1101.31 1015.5,1101C 1011.99,1098.75 1008.33,1096.75 1004.5,1095C 1004.83,1094.67 1005.17,1094.33 1005.5,1094C 1069.33,1094.64 1133.16,1095.48 1197,1096.5C 1278.7,1095.28 1360.37,1092.94 1442,1089.5C 1448.5,1089.67 1455,1089.83 1461.5,1090C 1459.38,1090.1 1457.71,1090.93 1456.5,1092.5C 1457,1092.83 1457.5,1093.17 1458,1093.5C 1464.9,1090.65 1472.07,1089.49 1479.5,1090C 1483.3,1092.41 1485.46,1095.91 1486,1100.5C 1487.77,1124.09 1486.1,1147.42 1481,1170.5C 1481.73,1154.03 1482.23,1137.53 1482.5,1121C 1482.17,1113.17 1481.83,1105.33 1481.5,1097.5C 1481.17,1124.91 1479.67,1152.24 1477,1179.5C 1471.77,1176.21 1467.11,1172.21 1463,1167.5C 1462.38,1166.55 1462.55,1165.72 1463.5,1165C 1460.7,1163.58 1458.7,1161.41 1457.5,1158.5C 1456.9,1159.72 1456.74,1161.05 1457,1162.5C 1455.99,1161.66 1454.82,1161.33 1453.5,1161.5 Z"/></g>
<g><path style="opacity:1" fill="#000000" d="M 193.5,1093.5 C 197.263,1094.7 200.93,1096.2 204.5,1098C 205.451,1098.72 205.617,1099.55 205,1100.5C 201.646,1098.55 198.146,1096.88 194.5,1095.5C 193.702,1095.04 193.369,1094.38 193.5,1093.5 Z"/></g>
<g><path style="opacity:1" fill="#fefffe" d="M 185.5,1094.5 C 189.14,1096.32 192.807,1098.15 196.5,1100C 196.043,1100.41 195.709,1100.91 195.5,1101.5C 197.221,1128.11 197.721,1154.78 197,1181.5C 194.395,1185.06 191.229,1188.06 187.5,1190.5C 188.898,1158.62 188.232,1126.62 185.5,1094.5 Z"/></g>
<g><path style="opacity:1" fill="#000000" d="M 660.5,1096.5 C 652.601,1098.98 644.601,1101.14 636.5,1103C 635.833,1103.67 635.167,1104.33 634.5,1105C 636.765,1108.83 637.932,1113 638,1117.5C 638.656,1131.85 638.49,1146.18 637.5,1160.5C 636.883,1160.61 636.383,1160.94 636,1161.5C 635.833,1159.83 635.667,1158.17 635.5,1156.5C 636.568,1143.51 636.735,1130.51 636,1117.5C 636.474,1111.88 634.474,1107.55 630,1104.5C 614.013,1101.23 597.846,1099.39 581.5,1099C 564.833,1098.83 548.167,1098.67 531.5,1098.5C 474.491,1099.41 417.491,1100.74 360.5,1102.5C 307.458,1101.49 254.458,1101.49 201.5,1102.5C 204.785,1101.68 208.118,1101.18 211.5,1101C 261.163,1099.39 310.83,1099.23 360.5,1100.5C 417.491,1098.74 474.491,1097.41 531.5,1096.5C 553.849,1096.45 576.182,1096.95 598.5,1098C 608.853,1098.56 619.019,1100.06 629,1102.5C 639.398,1100.86 649.565,1098.19 659.5,1094.5C 660.298,1094.96 660.631,1095.62 660.5,1096.5 Z"/></g>
<g><path style="opacity:1" fill="#000000" d="M 1009.5,1094.5 C 1013.26,1095.7 1016.93,1097.2 1020.5,1099C 1021.45,1099.72 1021.62,1100.55 1021,1101.5C 1017.65,1099.55 1014.15,1097.88 1010.5,1096.5C 1009.7,1096.04 1009.37,1095.38 1009.5,1094.5 Z"/></g>
<g><path style="opacity:1" fill="#000000" d="M 660.5,1096.5 C 662.79,1094.97 663.456,1095.3 662.5,1097.5C 656.922,1103.12 650.256,1106.29 642.5,1107C 646.883,1105.2 651.217,1103.2 655.5,1101C 657.618,1099.95 659.284,1098.45 660.5,1096.5 Z"/></g>
<g><path style="opacity:1" fill="#fefffe" d="M 1001.5,1095.5 C 1005.14,1097.32 1008.81,1099.15 1012.5,1101C 1012.04,1101.41 1011.71,1101.91 1011.5,1102.5C 1013.22,1129.11 1013.72,1155.78 1013,1182.5C 1010.4,1186.06 1007.23,1189.06 1003.5,1191.5C 1004.9,1159.62 1004.23,1127.62 1001.5,1095.5 Z"/></g>
<g><path style="opacity:1" fill="#000000" d="M 1476.5,1097.5 C 1468.6,1099.98 1460.6,1102.14 1452.5,1104C 1451.83,1104.67 1451.17,1105.33 1450.5,1106C 1452.77,1109.83 1453.93,1114 1454,1118.5C 1454.66,1132.85 1454.49,1147.18 1453.5,1161.5C 1452.88,1161.61 1452.38,1161.94 1452,1162.5C 1451.83,1160.83 1451.67,1159.17 1451.5,1157.5C 1452.57,1144.51 1452.73,1131.51 1452,1118.5C 1452.47,1112.88 1450.47,1108.55 1446,1105.5C 1430.01,1102.23 1413.85,1100.39 1397.5,1100C 1380.83,1099.83 1364.17,1099.67 1347.5,1099.5C 1290.49,1100.41 1233.49,1101.74 1176.5,1103.5C 1123.46,1102.49 1070.46,1102.49 1017.5,1103.5C 1020.78,1102.68 1024.12,1102.18 1027.5,1102C 1077.16,1100.39 1126.83,1100.23 1176.5,1101.5C 1233.49,1099.74 1290.49,1098.41 1347.5,1097.5C 1369.85,1097.45 1392.18,1097.95 1414.5,1099C 1424.85,1099.56 1435.02,1101.06 1445,1103.5C 1455.4,1101.86 1465.56,1099.19 1475.5,1095.5C 1476.3,1095.96 1476.63,1096.62 1476.5,1097.5 Z"/></g>
<g><path style="opacity:1" fill="#000000" d="M 1476.5,1097.5 C 1478.79,1095.97 1479.46,1096.3 1478.5,1098.5C 1472.92,1104.12 1466.26,1107.29 1458.5,1108C 1462.88,1106.2 1467.22,1104.2 1471.5,1102C 1473.62,1100.95 1475.28,1099.45 1476.5,1097.5 Z"/></g>
<g><path style="opacity:1" fill="#000000" d="M 348.5,1103.5 C 349.765,1104.51 350.431,1106.01 350.5,1108C 352.123,1120.15 353.623,1132.32 355,1144.5C 355.292,1147.42 356.792,1149.42 359.5,1150.5C 356.589,1151.79 354.756,1150.79 354,1147.5C 353,1143.17 352,1138.83 351,1134.5C 349.944,1138.8 347.778,1142.3 344.5,1145C 339.658,1146.16 336.491,1144.33 335,1139.5C 333.906,1134.02 335.406,1129.35 339.5,1125.5C 340.891,1124.36 342.224,1124.36 343.5,1125.5C 336.032,1129.95 334.699,1135.78 339.5,1143C 342.025,1143.9 344.192,1143.4 346,1141.5C 347.674,1137.8 349.341,1134.13 351,1130.5C 350.036,1121.56 349.202,1112.56 348.5,1103.5 Z"/></g>
<g><path style="opacity:1" fill="#000000" d="M 1164.5,1104.5 C 1165.76,1105.51 1166.43,1107.01 1166.5,1109C 1168.12,1121.15 1169.62,1133.32 1171,1145.5C 1171.29,1148.42 1172.79,1150.42 1175.5,1151.5C 1172.59,1152.79 1170.76,1151.79 1170,1148.5C 1169,1144.17 1168,1139.83 1167,1135.5C 1165.94,1139.8 1163.78,1143.3 1160.5,1146C 1155.66,1147.16 1152.49,1145.33 1151,1140.5C 1149.91,1135.02 1151.41,1130.35 1155.5,1126.5C 1156.89,1125.36 1158.22,1125.36 1159.5,1126.5C 1152.03,1130.95 1150.7,1136.78 1155.5,1144C 1158.03,1144.9 1160.19,1144.4 1162,1142.5C 1163.67,1138.8 1165.34,1135.13 1167,1131.5C 1166.04,1122.56 1165.2,1113.56 1164.5,1104.5 Z"/></g>
<g><path style="opacity:1" fill="#000000" d="M 297.5,1116.5 C 299.973,1116.95 300.14,1117.95 298,1119.5C 297.517,1118.55 297.351,1117.55 297.5,1116.5 Z"/></g>
<g><path style="opacity:1" fill="#000000" d="M 1113.5,1117.5 C 1115.97,1117.95 1116.14,1118.95 1114,1120.5C 1113.52,1119.55 1113.35,1118.55 1113.5,1117.5 Z"/></g>
<g><path style="opacity:1" fill="#000000" d="M 425.5,1120.5 C 435.642,1121.48 439.142,1126.81 436,1136.5C 432.215,1145.72 425.548,1148.72 416,1145.5C 411.134,1147.29 406.3,1147.46 401.5,1146C 398.024,1142.26 397.524,1138.1 400,1133.5C 401.013,1131.15 402.679,1129.49 405,1128.5C 405.5,1128.67 406,1128.83 406.5,1129C 402.449,1131.49 400.449,1135.16 400.5,1140C 400.484,1142.31 401.484,1143.97 403.5,1145C 411.453,1143.57 419.453,1143.24 427.5,1144C 433.078,1140.34 435.578,1135.18 435,1128.5C 434.225,1124.4 431.725,1122.57 427.5,1123C 426.244,1122.58 425.577,1121.75 425.5,1120.5 Z"/></g>
<g><path style="opacity:1" fill="#000000" d="M 276.5,1121.5 C 283.684,1125.54 285.851,1131.54 283,1139.5C 281.089,1144.42 277.589,1146.25 272.5,1145C 270.252,1143.09 267.752,1141.59 265,1140.5C 262.618,1141.74 260.785,1143.58 259.5,1146C 253.786,1148.4 249.286,1146.9 246,1141.5C 243.151,1137.15 242.984,1132.82 245.5,1128.5C 245.094,1132.1 245.594,1135.76 247,1139.5C 249.077,1144.12 252.577,1145.95 257.5,1145C 259.716,1142.45 262.216,1140.28 265,1138.5C 267.752,1139.59 270.252,1141.09 272.5,1143C 276.475,1144.38 279.309,1143.21 281,1139.5C 283.466,1132.41 281.966,1126.41 276.5,1121.5 Z"/></g>
<g><path style="opacity:1" fill="#000000" d="M 1241.5,1121.5 C 1251.64,1122.48 1255.14,1127.81 1252,1137.5C 1248.21,1146.72 1241.55,1149.72 1232,1146.5C 1227.13,1148.29 1222.3,1148.46 1217.5,1147C 1214.02,1143.26 1213.52,1139.1 1216,1134.5C 1217.01,1132.15 1218.68,1130.49 1221,1129.5C 1221.5,1129.67 1222,1129.83 1222.5,1130C 1218.45,1132.49 1216.45,1136.16 1216.5,1141C 1216.48,1143.31 1217.48,1144.97 1219.5,1146C 1227.45,1144.57 1235.45,1144.24 1243.5,1145C 1249.08,1141.34 1251.58,1136.18 1251,1129.5C 1250.23,1125.4 1247.73,1123.57 1243.5,1124C 1242.24,1123.58 1241.58,1122.75 1241.5,1121.5 Z"/></g>
<g><path style="opacity:1" fill="#000000" d="M 1092.5,1122.5 C 1099.68,1126.54 1101.85,1132.54 1099,1140.5C 1097.09,1145.42 1093.59,1147.25 1088.5,1146C 1086.25,1144.09 1083.75,1142.59 1081,1141.5C 1078.62,1142.74 1076.78,1144.58 1075.5,1147C 1069.79,1149.4 1065.29,1147.9 1062,1142.5C 1059.15,1138.15 1058.98,1133.82 1061.5,1129.5C 1061.09,1133.1 1061.59,1136.76 1063,1140.5C 1065.08,1145.12 1068.58,1146.95 1073.5,1146C 1075.72,1143.45 1078.22,1141.28 1081,1139.5C 1083.75,1140.59 1086.25,1142.09 1088.5,1144C 1092.48,1145.38 1095.31,1144.21 1097,1140.5C 1099.47,1133.41 1097.97,1127.41 1092.5,1122.5 Z"/></g>
<g><path style="opacity:1" fill="#000000" d="M 377.5,1124.5 C 384.336,1126.57 389.003,1130.9 391.5,1137.5C 388.315,1148.26 381.648,1151.76 371.5,1148C 366.61,1139.95 367.943,1133.12 375.5,1127.5C 379.017,1129.5 378.683,1130.34 374.5,1130C 370.872,1133.83 369.705,1138.33 371,1143.5C 374.514,1149.07 379.014,1149.9 384.5,1146C 388.815,1142.58 389.982,1138.41 388,1133.5C 385.407,1130.46 382.24,1128.29 378.5,1127C 377.748,1126.33 377.414,1125.5 377.5,1124.5 Z"/></g>
<g><path style="opacity:1" fill="#000000" d="M 1193.5,1125.5 C 1200.34,1127.57 1205,1131.9 1207.5,1138.5C 1204.31,1149.26 1197.65,1152.76 1187.5,1149C 1182.61,1140.95 1183.94,1134.12 1191.5,1128.5C 1195.02,1130.5 1194.68,1131.34 1190.5,1131C 1186.87,1134.83 1185.71,1139.33 1187,1144.5C 1190.51,1150.07 1195.01,1150.9 1200.5,1147C 1204.82,1143.58 1205.98,1139.41 1204,1134.5C 1201.41,1131.46 1198.24,1129.29 1194.5,1128C 1193.75,1127.33 1193.41,1126.5 1193.5,1125.5 Z"/></g>
<g><path style="opacity:1" fill="#000000" d="M 317.5,1129.5 C 320.675,1129.84 322.841,1131.51 324,1134.5C 325.499,1138.47 325.666,1142.47 324.5,1146.5C 323.667,1142.5 322.833,1138.5 322,1134.5C 319.451,1130.74 316.784,1130.74 314,1134.5C 312.241,1137.96 311.074,1141.63 310.5,1145.5C 308.993,1138.51 311.326,1133.18 317.5,1129.5 Z"/></g>
<g><path style="opacity:1" fill="#000000" d="M 1133.5,1130.5 C 1136.67,1130.84 1138.84,1132.51 1140,1135.5C 1141.5,1139.47 1141.67,1143.47 1140.5,1147.5C 1139.67,1143.5 1138.83,1139.5 1138,1135.5C 1135.45,1131.74 1132.78,1131.74 1130,1135.5C 1128.24,1138.96 1127.07,1142.63 1126.5,1146.5C 1124.99,1139.51 1127.33,1134.18 1133.5,1130.5 Z"/></g>
<g><path style="opacity:1" fill="#000000" d="M 294.5,1132.5 C 296.23,1135.39 297.23,1138.72 297.5,1142.5C 297.192,1143.31 296.692,1143.97 296,1144.5C 294.734,1140.6 294.234,1136.6 294.5,1132.5 Z"/></g>
<g><path style="opacity:1" fill="#000000" d="M 1110.5,1133.5 C 1112.23,1136.39 1113.23,1139.72 1113.5,1143.5C 1113.19,1144.31 1112.69,1144.97 1112,1145.5C 1110.73,1141.6 1110.23,1137.6 1110.5,1133.5 Z"/></g>
<g><path style="opacity:1" fill="#000000" d="M 216.5,1378.5 C 240.836,1378.33 265.169,1378.5 289.5,1379C 311.984,1380.08 334.318,1382.42 356.5,1386C 355.975,1386.69 355.308,1387.19 354.5,1387.5C 320.881,1382.37 287.048,1380.03 253,1380.5C 213.171,1381.58 173.338,1382.58 133.5,1383.5C 118.464,1383.57 103.464,1382.9 88.5,1381.5C 91.8333,1381.17 95.1667,1380.83 98.5,1380.5C 138.022,1381.86 177.356,1381.19 216.5,1378.5 Z"/></g>
<g><path style="opacity:1" fill="#000000" d="M 1032.5,1379.5 C 1056.84,1379.33 1081.17,1379.5 1105.5,1380C 1127.98,1381.08 1150.32,1383.42 1172.5,1387C 1171.97,1387.69 1171.31,1388.19 1170.5,1388.5C 1136.88,1383.37 1103.05,1381.03 1069,1381.5C 1029.17,1382.58 989.338,1383.58 949.5,1384.5C 934.464,1384.57 919.464,1383.9 904.5,1382.5C 907.833,1382.17 911.167,1381.83 914.5,1381.5C 954.022,1382.86 993.356,1382.19 1032.5,1379.5 Z"/></g>
<g><path style="opacity:1" fill="#000000" d="M 374.5,1382.5 C 387.275,1382.68 399.942,1383.84 412.5,1386C 411.975,1386.69 411.308,1387.19 410.5,1387.5C 395.046,1384.38 379.546,1384.05 364,1386.5C 362,1385.83 362,1385.17 364,1384.5C 367.654,1383.94 371.154,1383.27 374.5,1382.5 Z"/></g>
<g><path style="opacity:1" fill="#000000" d="M 1190.5,1383.5 C 1203.28,1383.68 1215.94,1384.84 1228.5,1387C 1227.97,1387.69 1227.31,1388.19 1226.5,1388.5C 1211.05,1385.38 1195.55,1385.05 1180,1387.5C 1178,1386.83 1178,1386.17 1180,1385.5C 1183.65,1384.94 1187.15,1384.27 1190.5,1383.5 Z"/></g>
<g><path style="opacity:1" fill="#000000" d="M 17.5,1384.5 C 42.8333,1385.17 42.8333,1385.83 17.5,1386.5C 17.5,1385.83 17.5,1385.17 17.5,1384.5 Z"/></g>
<g><path style="opacity:1" fill="#000000" d="M 442.5,1385.5 C 457.324,1385.02 471.99,1385.52 486.5,1387C 479.167,1387.17 471.833,1387.33 464.5,1387.5C 456.802,1387.5 449.468,1386.83 442.5,1385.5 Z"/></g>
<g><path style="opacity:1" fill="#000000" d="M 833.5,1385.5 C 858.833,1386.17 858.833,1386.83 833.5,1387.5C 833.5,1386.83 833.5,1386.17 833.5,1385.5 Z"/></g>
<g><path style="opacity:1" fill="#000000" d="M 1258.5,1386.5 C 1273.32,1386.02 1287.99,1386.52 1302.5,1388C 1295.17,1388.17 1287.83,1388.33 1280.5,1388.5C 1272.8,1388.5 1265.47,1387.83 1258.5,1386.5 Z"/></g>
<g><path style="opacity:1" fill="#000000" d="M 817.5,1394.5 C 817.5,1395.17 817.5,1395.83 817.5,1396.5C 718.156,1395.5 618.823,1394.5 519.5,1393.5C 550.825,1392.46 582.158,1391.79 613.5,1391.5C 681.473,1394.05 749.473,1395.05 817.5,1394.5 Z"/></g>
<g><path style="opacity:1" fill="#000000" d="M 1633.5,1395.5 C 1633.5,1396.17 1633.5,1396.83 1633.5,1397.5C 1534.16,1396.5 1434.82,1395.5 1335.5,1394.5C 1366.82,1393.46 1398.16,1392.79 1429.5,1392.5C 1497.47,1395.05 1565.47,1396.05 1633.5,1395.5 Z"/></g>
<g><path style="opacity:1" fill="#000000" d="M 173.5,1396.5 C 211.854,1396.8 250.187,1397.63 288.5,1399C 290.013,1401.02 291.346,1400.86 292.5,1398.5C 296.694,1430.39 298.361,1462.39 297.5,1494.5C 296.034,1469.17 294.534,1443.83 293,1418.5C 292.707,1424.59 290.207,1429.42 285.5,1433C 275.884,1434.49 266.217,1435.15 256.5,1435C 256,1434.5 255.5,1434 255,1433.5C 254.667,1425.83 254.333,1418.17 254,1410.5C 253.749,1408.57 253.249,1406.73 252.5,1405C 252.833,1404.83 253.167,1404.67 253.5,1404.5C 255.131,1406.06 255.964,1408.06 256,1410.5C 256.5,1418.16 256.666,1425.83 256.5,1433.5C 266.221,1433.15 275.887,1432.32 285.5,1431C 287.049,1429.79 288.215,1428.29 289,1426.5C 290.254,1420.56 291.087,1414.56 291.5,1408.5C 291.41,1406.04 290.743,1403.87 289.5,1402C 259.483,1400.18 228.649,1399.01 197,1398.5C 194.167,1398.83 191.333,1399.17 188.5,1399.5C 190.035,1403.85 189.701,1408.01 187.5,1412C 184.068,1413.81 180.735,1413.81 177.5,1412C 186.537,1412.97 189.703,1409.13 187,1400.5C 183.952,1398.3 181.286,1398.97 179,1402.5C 178.138,1404.09 177.471,1405.75 177,1407.5C 176.847,1415.17 176.847,1422.84 177,1430.5C 176.085,1429.67 175.419,1428.67 175,1427.5C 174.285,1420.16 173.951,1412.83 174,1405.5C 176.14,1403.36 178.306,1401.19 180.5,1399C 171.96,1398.37 163.96,1400.2 156.5,1404.5C 156.167,1404.17 155.833,1403.83 155.5,1403.5C 161.14,1399.96 167.14,1397.63 173.5,1396.5 Z"/></g>
<g><path style="opacity:1" fill="#000000" d="M 989.5,1397.5 C 1024.5,1398.04 1059.5,1398.54 1094.5,1399C 1098.36,1399.08 1102.02,1399.75 1105.5,1401C 1066.84,1400.48 1028.18,1400.14 989.5,1400C 983.477,1400.73 977.811,1402.56 972.5,1405.5C 971.167,1404.83 971.167,1404.17 972.5,1403.5C 978.008,1400.67 983.675,1398.67 989.5,1397.5 Z"/></g>
<g><path style="opacity:1" fill="#000000" d="M 1107.5,1399.5 C 1108.79,1401.05 1109.46,1403.05 1109.5,1405.5C 1112.88,1435.43 1114.21,1465.43 1113.5,1495.5C 1112.03,1463.46 1110.03,1431.46 1107.5,1399.5 Z"/></g>
<g><path style="opacity:1" fill="#000000" d="M 1550.5,1400.5 C 1561.84,1400.33 1573.17,1400.5 1584.5,1401C 1585.77,1401.31 1586.93,1401.81 1588,1402.5C 1588.71,1410.93 1588.04,1419.27 1586,1427.5C 1583.92,1431.96 1580.42,1434.63 1575.5,1435.5C 1574.87,1437.57 1573.87,1439.4 1572.5,1441C 1540.48,1442.62 1508.48,1444.45 1476.5,1446.5C 1475.17,1446.17 1473.83,1445.83 1472.5,1445.5C 1478.43,1444.21 1484.43,1443.37 1490.5,1443C 1517.84,1442.01 1545.18,1440.84 1572.5,1439.5C 1572.5,1438.17 1572.5,1436.83 1572.5,1435.5C 1565.48,1435.75 1558.48,1435.91 1551.5,1436C 1551,1435.5 1550.5,1435 1550,1434.5C 1549.5,1427.17 1549.33,1419.84 1549.5,1412.5C 1547.4,1412.2 1545.4,1412.53 1543.5,1413.5C 1540.78,1415.53 1537.78,1417.03 1534.5,1418C 1531.31,1419.69 1528.97,1422.19 1527.5,1425.5C 1524.83,1423.83 1524.83,1422.17 1527.5,1420.5C 1528.47,1418.26 1528.81,1415.92 1528.5,1413.5C 1524.49,1412.82 1521.49,1414.16 1519.5,1417.5C 1518.41,1416.61 1518.41,1415.61 1519.5,1414.5C 1518.31,1413.57 1516.98,1413.24 1515.5,1413.5C 1515.34,1415.86 1515.5,1418.19 1516,1420.5C 1516.41,1420.96 1516.91,1421.29 1517.5,1421.5C 1520.19,1419.98 1522.86,1418.81 1525.5,1418C 1522.68,1420.57 1519.68,1422.91 1516.5,1425C 1517.59,1427.06 1517.76,1429.23 1517,1431.5C 1514.75,1425.77 1513.59,1419.77 1513.5,1413.5C 1506.79,1413.29 1500.12,1413.62 1493.5,1414.5C 1492.9,1418.52 1493.9,1422.02 1496.5,1425C 1496,1425.5 1495.5,1426 1495,1426.5C 1492.05,1423.05 1490.88,1419.05 1491.5,1414.5C 1486.14,1414.67 1480.81,1415.17 1475.5,1416C 1473.93,1419.89 1474.27,1423.56 1476.5,1427C 1481.14,1428.65 1485.81,1429.99 1490.5,1431C 1483.55,1432.57 1477.72,1430.74 1473,1425.5C 1472.22,1422.24 1472.38,1419.07 1473.5,1416C 1469.46,1415.83 1465.46,1415.33 1461.5,1414.5C 1466.13,1413.67 1470.8,1413.17 1475.5,1413C 1479.38,1408.4 1484.05,1407.4 1489.5,1410C 1489,1410.5 1488.5,1411 1488,1411.5C 1484.22,1409.95 1480.72,1410.45 1477.5,1413C 1478.5,1413.17 1479.5,1413.33 1480.5,1413.5C 1491.45,1411.99 1502.45,1411.33 1513.5,1411.5C 1513.34,1409.47 1513.5,1407.47 1514,1405.5C 1515.83,1401.96 1518.16,1401.63 1521,1404.5C 1522.2,1406.68 1522.7,1409.01 1522.5,1411.5C 1524.5,1411.5 1526.5,1411.5 1528.5,1411.5C 1528.16,1408.84 1528.83,1406.51 1530.5,1404.5C 1530.84,1406.66 1530.84,1408.99 1530.5,1411.5C 1536.53,1411.57 1542.53,1411.24 1548.5,1410.5C 1548.19,1408.55 1548.19,1406.89 1548.5,1405.5C 1550.22,1406.67 1550.88,1408.34 1550.5,1410.5C 1558.45,1408.96 1566.45,1408.13 1574.5,1408C 1572.38,1409.19 1570.04,1409.86 1567.5,1410C 1568.7,1410.9 1569.53,1412.07 1570,1413.5C 1571.85,1420.25 1573.69,1426.92 1575.5,1433.5C 1579.58,1433.25 1582.41,1431.25 1584,1427.5C 1585.25,1421.56 1586.09,1415.56 1586.5,1409.5C 1586.41,1407.04 1585.74,1404.87 1584.5,1403C 1572.83,1402.67 1561.17,1402.33 1549.5,1402C 1550.06,1401.62 1550.39,1401.12 1550.5,1400.5 Z"/></g>
<g><path style="opacity:1" fill="#000000" d="M 17.5,1474.5 C 17.5,1474.17 17.5,1473.83 17.5,1473.5C 39.8358,1473.67 62.1692,1473.5 84.5,1473C 106.45,1470.95 128.45,1469.78 150.5,1469.5C 150.108,1447.8 150.608,1426.14 152,1404.5C 152.535,1402.73 153.369,1402.4 154.5,1403.5C 153.746,1406.78 153.246,1410.11 153,1413.5C 152.333,1437.5 152.333,1461.5 153,1485.5C 153.207,1489.09 153.707,1492.59 154.5,1496C 153.551,1496.62 152.718,1496.45 152,1495.5C 151.308,1487.48 150.475,1479.48 149.5,1471.5C 147.568,1472.37 145.568,1473.03 143.5,1473.5C 141.627,1473.52 141.294,1473.02 142.5,1472C 123.131,1471.97 103.798,1472.97 84.5,1475C 62.094,1475.82 39.7606,1475.65 17.5,1474.5 Z"/></g>
<g><path style="opacity:1" fill="#000000" d="M 833.5,1475.5 C 833.5,1475.17 833.5,1474.83 833.5,1474.5C 855.836,1474.67 878.169,1474.5 900.5,1474C 922.45,1471.95 944.45,1470.78 966.5,1470.5C 966.108,1448.8 966.608,1427.14 968,1405.5C 968.535,1403.73 969.369,1403.4 970.5,1404.5C 969.746,1407.78 969.246,1411.11 969,1414.5C 968.333,1438.5 968.333,1462.5 969,1486.5C 969.207,1490.09 969.707,1493.59 970.5,1497C 969.551,1497.62 968.718,1497.45 968,1496.5C 967.308,1488.48 966.475,1480.48 965.5,1472.5C 963.568,1473.37 961.568,1474.03 959.5,1474.5C 957.627,1474.52 957.294,1474.02 958.5,1473C 939.131,1472.97 919.798,1473.97 900.5,1476C 878.094,1476.82 855.761,1476.65 833.5,1475.5 Z"/></g>
<g><path style="opacity:1" fill="#fefffe" d="M 1516.5,1404.5 C 1517.68,1404.28 1518.68,1404.61 1519.5,1405.5C 1520.35,1407.41 1520.68,1409.41 1520.5,1411.5C 1518.83,1411.5 1517.17,1411.5 1515.5,1411.5C 1515.3,1409.05 1515.63,1406.72 1516.5,1404.5 Z"/></g>
<g><path style="opacity:1" fill="#000000" d="M 272.5,1406.5 C 274.857,1406.34 277.19,1406.5 279.5,1407C 274.02,1408.76 268.353,1409.93 262.5,1410.5C 262.5,1412.5 262.5,1414.5 262.5,1416.5C 264.604,1416.2 266.604,1416.53 268.5,1417.5C 266.955,1418.45 265.288,1418.79 263.5,1418.5C 263.5,1420.83 263.5,1423.17 263.5,1425.5C 267.554,1424.82 271.554,1424.82 275.5,1425.5C 271.033,1427.31 266.533,1427.64 262,1426.5C 261.301,1420.51 260.801,1414.51 260.5,1408.5C 264.705,1408.28 268.705,1407.62 272.5,1406.5 Z"/></g>
<g><path style="opacity:1" fill="#000000" d="M 727.5,1409.5 C 736.085,1409.18 744.585,1409.52 753,1410.5C 756.091,1418.2 757.925,1426.2 758.5,1434.5C 758.674,1436.69 758.007,1438.53 756.5,1440C 724.484,1441.62 692.484,1443.45 660.5,1445.5C 659.167,1445.17 657.833,1444.83 656.5,1444.5C 662.43,1443.21 668.43,1442.37 674.5,1442C 701.845,1441.01 729.178,1439.84 756.5,1438.5C 756.453,1429.33 754.787,1420.5 751.5,1412C 719.811,1411.83 688.144,1412.67 656.5,1414.5C 652.833,1414.17 649.167,1413.83 645.5,1413.5C 672.951,1411.33 700.284,1410 727.5,1409.5 Z"/></g>
<g><path style="opacity:1" fill="#000000" d="M 201.5,1410.5 C 204.292,1410.45 206.125,1411.79 207,1414.5C 206.804,1422.7 202.637,1426.86 194.5,1427C 191.142,1425.1 190.642,1422.6 193,1419.5C 194.714,1415.29 197.547,1412.29 201.5,1410.5 Z"/></g>
<g><path style="opacity:1" fill="#fefffe" d="M 201.5,1412.5 C 203.456,1413.12 204.789,1414.46 205.5,1416.5C 204.531,1422.98 200.864,1425.81 194.5,1425C 194.085,1419.33 196.418,1415.17 201.5,1412.5 Z"/></g>
<g><path style="opacity:1" fill="#fefffe" d="M 1551.5,1412.5 C 1552.83,1412.5 1554.17,1412.5 1555.5,1412.5C 1555.87,1417.75 1556.54,1422.91 1557.5,1428C 1561.94,1428.58 1566.28,1428.08 1570.5,1426.5C 1566.55,1425.82 1562.55,1425.82 1558.5,1426.5C 1558.5,1424.17 1558.5,1421.83 1558.5,1419.5C 1560.29,1419.79 1561.95,1419.45 1563.5,1418.5C 1561.6,1417.53 1559.6,1417.2 1557.5,1417.5C 1557.5,1415.83 1557.5,1414.17 1557.5,1412.5C 1561.11,1412.21 1564.61,1412.54 1568,1413.5C 1569.98,1419.74 1571.48,1426.07 1572.5,1432.5C 1565.54,1433.57 1558.54,1434.24 1551.5,1434.5C 1551.5,1427.17 1551.5,1419.83 1551.5,1412.5 Z"/></g>
<g><path style="opacity:1" fill="#000000" d="M 187.5,1413.5 C 191.5,1414.17 191.5,1414.83 187.5,1415.5C 186.846,1419.84 187.846,1423.67 190.5,1427C 190,1427.5 189.5,1428 189,1428.5C 185.111,1423.74 184.611,1418.74 187.5,1413.5 Z"/></g>
<g><path style="opacity:1" fill="#000000" d="M 219.5,1424.5 C 219.134,1425.69 218.301,1426.36 217,1426.5C 207.905,1424.55 206.738,1420.71 213.5,1415C 215.586,1413.17 217.586,1413.17 219.5,1415C 215.538,1415.31 212.538,1417.15 210.5,1420.5C 212.743,1423.37 215.743,1424.7 219.5,1424.5 Z"/></g>
<g><path style="opacity:1" fill="#000000" d="M 219.5,1424.5 C 219.198,1417.98 222.198,1414.48 228.5,1414C 229.095,1418.43 227.095,1421.43 222.5,1423C 224.044,1423.29 225.377,1423.96 226.5,1425C 224.071,1425.7 221.738,1425.54 219.5,1424.5 Z"/></g>
<g><path style="opacity:1" fill="#000000" d="M 235.5,1413.5 C 236.675,1413.28 237.675,1413.61 238.5,1414.5C 231.768,1418.16 232.435,1419.32 240.5,1418C 242.792,1415.98 243.459,1416.31 242.5,1419C 244.223,1419.52 245.556,1420.52 246.5,1422C 245.278,1425.12 243.278,1426.62 240.5,1426.5C 242.167,1425.5 243.5,1424.17 244.5,1422.5C 243.372,1421.74 242.205,1421.07 241,1420.5C 239.019,1422.66 236.686,1424.32 234,1425.5C 233.333,1424.83 233.333,1424.17 234,1423.5C 235.419,1422.54 236.919,1421.71 238.5,1421C 235.629,1420.88 232.962,1420.22 230.5,1419C 232.3,1417.19 233.967,1415.35 235.5,1413.5 Z"/></g>
<g><path style="opacity:1" fill="#fefffe" d="M 1530.5,1413.5 C 1533.52,1413.34 1536.52,1413.5 1539.5,1414C 1536.34,1414.94 1533.51,1416.44 1531,1418.5C 1530.51,1416.87 1530.34,1415.2 1530.5,1413.5 Z"/></g>
<g><path style="opacity:1" fill="#000000" d="M 642.5,1414.5 C 644.045,1415.23 644.878,1416.56 645,1418.5C 645.569,1426.86 646.403,1435.19 647.5,1443.5C 647.167,1444.5 646.833,1445.5 646.5,1446.5C 644.509,1435.92 643.176,1425.26 642.5,1414.5 Z"/></g>
<g><path style="opacity:1" fill="#fefffe" d="M 224.5,1415.5 C 225.675,1415.28 226.675,1415.61 227.5,1416.5C 226.141,1418.69 224.308,1420.36 222,1421.5C 221.333,1420.5 221.333,1419.5 222,1418.5C 223.045,1417.63 223.878,1416.63 224.5,1415.5 Z"/></g>
<g><path style="opacity:1" fill="#000000" d="M 1458.5,1415.5 C 1460.05,1416.23 1460.88,1417.56 1461,1419.5C 1461.57,1427.86 1462.4,1436.19 1463.5,1444.5C 1463.17,1445.5 1462.83,1446.5 1462.5,1447.5C 1460.51,1436.92 1459.18,1426.26 1458.5,1415.5 Z"/></g>
<g><path style="opacity:1" fill="#000000" d="M 1504.5,1415.5 C 1505.38,1415.37 1506.04,1415.7 1506.5,1416.5C 1503.76,1417.86 1501.43,1419.7 1499.5,1422C 1500.5,1422.67 1501.5,1422.67 1502.5,1422C 1506.04,1416.88 1507.71,1417.38 1507.5,1423.5C 1509.31,1423.49 1510.98,1423.99 1512.5,1425C 1509.65,1426.28 1507.15,1425.44 1505,1422.5C 1502.33,1424.99 1499.83,1424.99 1497.5,1422.5C 1498.88,1419.12 1501.22,1416.78 1504.5,1415.5 Z"/></g>
<g><path style="opacity:1" fill="#000000" d="M 753.5,1442.5 C 753.735,1441.9 754.235,1441.57 755,1441.5C 760.678,1443.59 766.178,1446.09 771.5,1449C 773.01,1450.35 774.01,1452.02 774.5,1454C 773.668,1456.48 773.501,1458.98 774,1461.5C 771.322,1459.76 768.322,1458.76 765,1458.5C 725.875,1458.86 686.709,1459.36 647.5,1460C 641.81,1460.47 636.143,1461.14 630.5,1462C 630.043,1462.41 629.709,1462.91 629.5,1463.5C 630.747,1465.32 631.414,1467.32 631.5,1469.5C 639.785,1468.29 648.118,1467.45 656.5,1467C 676.167,1466.67 695.833,1466.33 715.5,1466C 722.943,1465.77 730.276,1464.77 737.5,1463C 750.988,1462.02 764.321,1462.35 777.5,1464C 776.919,1464.89 776.585,1465.89 776.5,1467C 778.245,1474.46 779.412,1481.96 780,1489.5C 778.829,1490.89 777.329,1491.73 775.5,1492C 772.574,1492.22 769.74,1492.72 767,1493.5C 766.5,1492.5 766,1491.5 765.5,1490.5C 766.822,1481.97 766.822,1473.47 765.5,1465C 756.167,1464.33 746.833,1464.33 737.5,1465C 730.276,1466.77 722.943,1467.77 715.5,1468C 695.833,1468.33 676.167,1468.67 656.5,1469C 650.769,1469.21 645.103,1469.88 639.5,1471C 640.263,1480.45 640.93,1489.95 641.5,1499.5C 654.803,1498.69 654.803,1499.52 641.5,1502C 642.711,1502.89 642.711,1503.73 641.5,1504.5C 640.73,1502.73 639.397,1501.73 637.5,1501.5C 635.239,1502.65 632.905,1503.15 630.5,1503C 633.072,1500.71 636.072,1499.55 639.5,1499.5C 638.949,1490.5 638.282,1481.5 637.5,1472.5C 635.224,1471.79 632.891,1471.29 630.5,1471C 629.722,1467.77 628.388,1464.77 626.5,1462C 627.623,1460.96 628.956,1460.29 630.5,1460C 636.143,1459.14 641.81,1458.47 647.5,1458C 677.003,1457.64 706.503,1457.14 736,1456.5C 747.91,1456.78 759.743,1457.11 771.5,1457.5C 771.286,1455.86 771.62,1454.36 772.5,1453C 766.786,1448.47 760.453,1444.97 753.5,1442.5 Z"/></g>
<g><path style="opacity:1" fill="#000000" d="M 1569.5,1443.5 C 1569.74,1442.9 1570.24,1442.57 1571,1442.5C 1576.68,1444.59 1582.18,1447.09 1587.5,1450C 1589.01,1451.35 1590.01,1453.02 1590.5,1455C 1589.67,1457.48 1589.5,1459.98 1590,1462.5C 1587.32,1460.76 1584.32,1459.76 1581,1459.5C 1541.88,1459.86 1502.71,1460.36 1463.5,1461C 1457.81,1461.47 1452.14,1462.14 1446.5,1463C 1446.04,1463.41 1445.71,1463.91 1445.5,1464.5C 1446.75,1466.32 1447.41,1468.32 1447.5,1470.5C 1455.78,1469.29 1464.12,1468.45 1472.5,1468C 1492.17,1467.67 1511.83,1467.33 1531.5,1467C 1538.94,1466.77 1546.28,1465.77 1553.5,1464C 1566.99,1463.02 1580.32,1463.35 1593.5,1465C 1592.92,1465.89 1592.59,1466.89 1592.5,1468C 1594.25,1475.46 1595.41,1482.96 1596,1490.5C 1594.83,1491.89 1593.33,1492.73 1591.5,1493C 1588.57,1493.22 1585.74,1493.72 1583,1494.5C 1582.5,1493.5 1582,1492.5 1581.5,1491.5C 1582.82,1482.97 1582.82,1474.47 1581.5,1466C 1572.17,1465.33 1562.83,1465.33 1553.5,1466C 1546.28,1467.77 1538.94,1468.77 1531.5,1469C 1511.83,1469.33 1492.17,1469.67 1472.5,1470C 1466.77,1470.21 1461.1,1470.88 1455.5,1472C 1456.26,1481.45 1456.93,1490.95 1457.5,1500.5C 1470.8,1499.69 1470.8,1500.52 1457.5,1503C 1458.71,1503.89 1458.71,1504.73 1457.5,1505.5C 1456.73,1503.73 1455.4,1502.73 1453.5,1502.5C 1451.24,1503.65 1448.91,1504.15 1446.5,1504C 1449.07,1501.71 1452.07,1500.55 1455.5,1500.5C 1454.95,1491.5 1454.28,1482.5 1453.5,1473.5C 1451.22,1472.79 1448.89,1472.29 1446.5,1472C 1445.72,1468.77 1444.39,1465.77 1442.5,1463C 1443.62,1461.96 1444.96,1461.29 1446.5,1461C 1452.14,1460.14 1457.81,1459.47 1463.5,1459C 1493,1458.64 1522.5,1458.14 1552,1457.5C 1563.91,1457.78 1575.74,1458.11 1587.5,1458.5C 1587.29,1456.86 1587.62,1455.36 1588.5,1454C 1582.79,1449.47 1576.45,1445.97 1569.5,1443.5 Z"/></g>
<g><path style="opacity:1" fill="#000000" d="M 649.5,1447.5 C 650.289,1447.78 650.956,1448.28 651.5,1449C 642.815,1453.23 633.981,1457.06 625,1460.5C 624.383,1459.55 624.549,1458.72 625.5,1458C 633.891,1455.16 641.891,1451.66 649.5,1447.5 Z"/></g>
<g><path style="opacity:1" fill="#040404" d="M 17.5,1468.5 C 17.5,1467.83 17.5,1467.17 17.5,1466.5C 23.8039,1465.74 30.1373,1465.41 36.5,1465.5C 34.9661,1461.91 35.4661,1458.58 38,1455.5C 41.3246,1450.07 45.8246,1448.57 51.5,1451C 55.5482,1454.72 59.8815,1458.05 64.5,1461C 65.3366,1462.01 65.67,1463.18 65.5,1464.5C 70.8333,1464.5 76.1667,1464.5 81.5,1464.5C 80.3597,1456.43 83.5264,1451.09 91,1448.5C 97.4227,1451.05 103.423,1454.38 109,1458.5C 109.561,1461.3 108.394,1463.13 105.5,1464C 110.508,1464.5 115.508,1465 120.5,1465.5C 121.401,1447.03 127.734,1444.53 139.5,1458C 141.741,1459.52 144.074,1460.86 146.5,1462C 139.465,1463.18 132.299,1464.02 125,1464.5C 124.5,1464.17 124,1463.83 123.5,1463.5C 124.376,1462.75 125.376,1462.25 126.5,1462C 131.5,1461.67 136.5,1461.33 141.5,1461C 137.143,1457.59 132.976,1454.09 129,1450.5C 123.597,1453.98 121.43,1458.98 122.5,1465.5C 130.847,1465.72 139.18,1466.22 147.5,1467C 145.371,1468.1 143.037,1468.6 140.5,1468.5C 129.339,1467.75 118.172,1467.08 107,1466.5C 100.683,1466.55 94.5166,1467.55 88.5,1469.5C 87.5,1469.17 86.5,1468.83 85.5,1468.5C 88.8025,1467.56 92.1358,1466.73 95.5,1466C 84.5121,1466.08 73.5121,1466.42 62.5,1467C 58.2949,1469.07 53.7949,1470.23 49,1470.5C 38.6639,1467.41 28.1639,1466.74 17.5,1468.5 Z"/></g>
<g><path style="opacity:1" fill="#000000" d="M 1465.5,1448.5 C 1466.29,1448.78 1466.96,1449.28 1467.5,1450C 1458.81,1454.23 1449.98,1458.06 1441,1461.5C 1440.38,1460.55 1440.55,1459.72 1441.5,1459C 1449.89,1456.16 1457.89,1452.66 1465.5,1448.5 Z"/></g>
<g><path style="opacity:1" fill="#040404" d="M 833.5,1469.5 C 833.5,1468.83 833.5,1468.17 833.5,1467.5C 839.804,1466.74 846.137,1466.41 852.5,1466.5C 850.966,1462.91 851.466,1459.58 854,1456.5C 857.325,1451.07 861.825,1449.57 867.5,1452C 871.548,1455.72 875.882,1459.05 880.5,1462C 881.337,1463.01 881.67,1464.18 881.5,1465.5C 886.833,1465.5 892.167,1465.5 897.5,1465.5C 896.36,1457.43 899.526,1452.09 907,1449.5C 913.423,1452.05 919.423,1455.38 925,1459.5C 925.561,1462.3 924.394,1464.13 921.5,1465C 926.508,1465.5 931.508,1466 936.5,1466.5C 937.401,1448.03 943.734,1445.53 955.5,1459C 957.741,1460.52 960.074,1461.86 962.5,1463C 955.465,1464.18 948.299,1465.02 941,1465.5C 940.5,1465.17 940,1464.83 939.5,1464.5C 940.376,1463.75 941.376,1463.25 942.5,1463C 947.5,1462.67 952.5,1462.33 957.5,1462C 953.143,1458.59 948.976,1455.09 945,1451.5C 939.597,1454.98 937.43,1459.98 938.5,1466.5C 946.847,1466.72 955.18,1467.22 963.5,1468C 961.371,1469.1 959.037,1469.6 956.5,1469.5C 945.339,1468.75 934.172,1468.08 923,1467.5C 916.683,1467.55 910.517,1468.55 904.5,1470.5C 903.5,1470.17 902.5,1469.83 901.5,1469.5C 904.803,1468.56 908.136,1467.73 911.5,1467C 900.512,1467.08 889.512,1467.42 878.5,1468C 874.295,1470.07 869.795,1471.23 865,1471.5C 854.664,1468.41 844.164,1467.74 833.5,1469.5 Z"/></g>
<g><path style="opacity:1" fill="#fefffe" d="M 88.5,1450.5 C 90.1992,1450.34 91.8659,1450.51 93.5,1451C 98.4535,1453.63 103.12,1456.63 107.5,1460C 106.556,1461.48 105.223,1462.48 103.5,1463C 96.8,1463.29 90.1333,1463.79 83.5,1464.5C 82.4506,1458.79 84.1173,1454.12 88.5,1450.5 Z"/></g>
<g><path style="opacity:1" fill="#fefffe" d="M 44.5,1451.5 C 46.9892,1451.3 49.3225,1451.8 51.5,1453C 55.6735,1456.34 59.6735,1459.84 63.5,1463.5C 62.9747,1464.19 62.3081,1464.69 61.5,1465C 53.8406,1465.5 46.1739,1465.67 38.5,1465.5C 37.1871,1459.46 39.1871,1454.79 44.5,1451.5 Z"/></g>
<g><path style="opacity:1" fill="#010101" d="M 160.5,1479.5 C 159.007,1476.27 160.007,1473.94 163.5,1472.5C 163.833,1472.83 164.167,1473.17 164.5,1473.5C 162.985,1474.59 162.152,1475.92 162,1477.5C 171.13,1476.46 180.297,1475.3 189.5,1474C 190.973,1473.29 191.64,1472.12 191.5,1470.5C 185.192,1471.31 178.859,1471.98 172.5,1472.5C 169.408,1472.49 166.408,1471.99 163.5,1471C 164.475,1465.26 164.808,1459.43 164.5,1453.5C 160.842,1452.75 161.176,1452.08 165.5,1451.5C 174.51,1452.59 183.51,1452.76 192.5,1452C 193.473,1457.41 193.807,1462.91 193.5,1468.5C 198.22,1468.23 198.554,1469.06 194.5,1471C 196.597,1472.61 198.93,1473.78 201.5,1474.5C 200.675,1475.39 199.675,1475.72 198.5,1475.5C 198.666,1479.85 198.499,1484.18 198,1488.5C 195.383,1493.84 194.716,1493.84 196,1488.5C 196.499,1484.18 196.666,1479.85 196.5,1475.5C 184.482,1476.84 172.482,1478.17 160.5,1479.5 Z"/></g>
<g><path style="opacity:1" fill="#fefffe" d="M 904.5,1451.5 C 906.199,1451.34 907.866,1451.51 909.5,1452C 914.454,1454.63 919.12,1457.63 923.5,1461C 922.556,1462.48 921.223,1463.48 919.5,1464C 912.8,1464.29 906.133,1464.79 899.5,1465.5C 898.451,1459.79 900.117,1455.12 904.5,1451.5 Z"/></g>
<g><path style="opacity:1" fill="#fefffe" d="M 860.5,1452.5 C 862.989,1452.3 865.323,1452.8 867.5,1454C 871.673,1457.34 875.673,1460.84 879.5,1464.5C 878.975,1465.19 878.308,1465.69 877.5,1466C 869.841,1466.5 862.174,1466.67 854.5,1466.5C 853.187,1460.46 855.187,1455.79 860.5,1452.5 Z"/></g>
<g><path style="opacity:1" fill="#010101" d="M 976.5,1480.5 C 975.007,1477.27 976.007,1474.94 979.5,1473.5C 979.833,1473.83 980.167,1474.17 980.5,1474.5C 978.985,1475.59 978.152,1476.92 978,1478.5C 987.13,1477.46 996.297,1476.3 1005.5,1475C 1006.97,1474.29 1007.64,1473.12 1007.5,1471.5C 1001.19,1472.31 994.859,1472.98 988.5,1473.5C 985.408,1473.49 982.408,1472.99 979.5,1472C 980.475,1466.26 980.808,1460.43 980.5,1454.5C 976.842,1453.75 977.176,1453.08 981.5,1452.5C 990.51,1453.59 999.51,1453.76 1008.5,1453C 1009.47,1458.41 1009.81,1463.91 1009.5,1469.5C 1014.22,1469.23 1014.55,1470.06 1010.5,1472C 1012.6,1473.61 1014.93,1474.78 1017.5,1475.5C 1016.68,1476.39 1015.68,1476.72 1014.5,1476.5C 1014.67,1480.85 1014.5,1485.18 1014,1489.5C 1011.38,1494.84 1010.72,1494.84 1012,1489.5C 1012.5,1485.18 1012.67,1480.85 1012.5,1476.5C 1000.48,1477.84 988.482,1479.17 976.5,1480.5 Z"/></g>
<g><path style="opacity:1" fill="#fefffe" d="M 166.5,1453.5 C 174.813,1454.77 183.147,1454.77 191.5,1453.5C 191.5,1458.5 191.5,1463.5 191.5,1468.5C 183.22,1469.75 174.887,1470.42 166.5,1470.5C 166.5,1464.83 166.5,1459.17 166.5,1453.5 Z"/></g>
<g><path style="opacity:1" fill="#fefffe" d="M 982.5,1454.5 C 990.813,1455.77 999.147,1455.77 1007.5,1454.5C 1007.5,1459.5 1007.5,1464.5 1007.5,1469.5C 999.22,1470.75 990.887,1471.42 982.5,1471.5C 982.5,1465.83 982.5,1460.17 982.5,1454.5 Z"/></g>
<g><path style="opacity:1" fill="#fefffe" d="M 767.5,1465.5 C 769.607,1464.53 771.941,1464.2 774.5,1464.5C 775.674,1472.86 777.007,1481.19 778.5,1489.5C 775.397,1489.33 772.23,1489 769,1488.5C 768.829,1480.66 768.329,1472.99 767.5,1465.5 Z"/></g>
<g><path style="opacity:1" fill="#fefffe" d="M 1583.5,1466.5 C 1585.61,1465.53 1587.94,1465.2 1590.5,1465.5C 1591.67,1473.86 1593.01,1482.19 1594.5,1490.5C 1591.4,1490.33 1588.23,1490 1585,1489.5C 1584.83,1481.66 1584.33,1473.99 1583.5,1466.5 Z"/></g>
<g><path style="opacity:1" fill="#000000" d="M 220.5,1470.5 C 227.88,1470.04 230.713,1473.38 229,1480.5C 227.691,1482.98 225.858,1484.98 223.5,1486.5C 225.751,1489.29 228.418,1491.63 231.5,1493.5C 232.386,1494.32 232.719,1495.32 232.5,1496.5C 229.339,1495.53 226.506,1493.86 224,1491.5C 223.231,1494.1 223.398,1496.6 224.5,1499C 248.928,1499.76 273.261,1498.59 297.5,1495.5C 300.317,1495.76 300.817,1496.76 299,1498.5C 298.439,1497.98 297.772,1497.64 297,1497.5C 273.591,1500.19 250.091,1501.69 226.5,1502C 228.552,1502.93 230.052,1504.43 231,1506.5C 231.591,1507.48 231.257,1508.15 230,1508.5C 226.754,1506.68 223.92,1504.35 221.5,1501.5C 219.174,1504 217.007,1506.66 215,1509.5C 213.528,1506.54 214.361,1504.04 217.5,1502C 194.5,1501.67 171.5,1501.33 148.5,1501C 171.686,1499.68 195.019,1499.01 218.5,1499C 220.378,1497.01 220.712,1494.84 219.5,1492.5C 218.019,1493.48 216.685,1494.65 215.5,1496C 214.365,1496.75 213.365,1496.58 212.5,1495.5C 215.195,1492.47 217.862,1489.47 220.5,1486.5C 213.914,1481 213.914,1475.67 220.5,1470.5 Z"/></g>
<g><path style="opacity:1" fill="#000000" d="M 626.5,1470.5 C 627.75,1470.58 628.583,1471.24 629,1472.5C 630.231,1479.16 631.398,1485.82 632.5,1492.5C 634.853,1495.12 634.687,1497.78 632,1500.5C 630.285,1490.55 628.452,1480.55 626.5,1470.5 Z"/></g>
<g><path style="opacity:1" fill="#000000" d="M 1442.5,1471.5 C 1443.75,1471.58 1444.58,1472.24 1445,1473.5C 1446.23,1480.16 1447.4,1486.82 1448.5,1493.5C 1450.85,1496.12 1450.69,1498.78 1448,1501.5C 1446.29,1491.55 1444.45,1481.55 1442.5,1471.5 Z"/></g>
<g><path style="opacity:1" fill="#000000" d="M 1515.5,1471.5 C 1522.88,1471.04 1525.71,1474.38 1524,1481.5C 1522.69,1483.98 1520.86,1485.98 1518.5,1487.5C 1520.75,1490.29 1523.42,1492.63 1526.5,1494.5C 1527.39,1495.32 1527.72,1496.32 1527.5,1497.5C 1524.34,1496.53 1521.51,1494.86 1519,1492.5C 1518.33,1494.83 1518.33,1497.17 1519,1499.5C 1521.33,1502.17 1523.67,1504.83 1526,1507.5C 1526.59,1508.48 1526.26,1509.15 1525,1509.5C 1521.75,1507.68 1518.92,1505.35 1516.5,1502.5C 1514.17,1505 1512.01,1507.66 1510,1510.5C 1509.31,1509.97 1508.81,1509.31 1508.5,1508.5C 1511.61,1504.61 1513.95,1500.27 1515.5,1495.5C 1515.17,1494.83 1514.83,1494.17 1514.5,1493.5C 1513.02,1494.48 1511.69,1495.65 1510.5,1497C 1509.36,1497.75 1508.36,1497.58 1507.5,1496.5C 1510.2,1493.47 1512.86,1490.47 1515.5,1487.5C 1508.91,1482 1508.91,1476.67 1515.5,1471.5 Z"/></g>
<g><path style="opacity:1" fill="#000000" d="M 160.5,1479.5 C 160.362,1485.38 162.029,1490.55 165.5,1495C 164.584,1495.37 163.75,1495.87 163,1496.5C 160.584,1492.18 159.084,1487.52 158.5,1482.5C 158.453,1480.96 159.12,1479.96 160.5,1479.5 Z"/></g>
<g><path style="opacity:1" fill="#000000" d="M 976.5,1480.5 C 976.362,1486.38 978.029,1491.55 981.5,1496C 980.584,1496.37 979.75,1496.87 979,1497.5C 976.584,1493.18 975.084,1488.52 974.5,1483.5C 974.453,1481.96 975.12,1480.96 976.5,1480.5 Z"/></g>
<g><path style="opacity:1" fill="#000000" d="M 139.5,1484.5 C 143.048,1484.09 146.381,1484.59 149.5,1486C 147.375,1487.5 145.041,1487.66 142.5,1486.5C 140.701,1486.58 139.034,1487.08 137.5,1488C 102.465,1487.96 67.4652,1488.96 32.5,1491C 30.7818,1491.35 29.1151,1491.85 27.5,1492.5C 27.1667,1492.17 26.8333,1491.83 26.5,1491.5C 28.0588,1489.87 30.0588,1489.04 32.5,1489C 67.4652,1486.96 102.465,1485.96 137.5,1486C 138.416,1485.72 139.082,1485.22 139.5,1484.5 Z"/></g>
<g><path style="opacity:1" fill="#000000" d="M 955.5,1485.5 C 959.048,1485.09 962.381,1485.59 965.5,1487C 963.375,1488.5 961.041,1488.66 958.5,1487.5C 956.701,1487.58 955.034,1488.08 953.5,1489C 918.465,1488.96 883.465,1489.96 848.5,1492C 846.782,1492.35 845.115,1492.85 843.5,1493.5C 843.167,1493.17 842.833,1492.83 842.5,1492.5C 844.059,1490.87 846.059,1490.04 848.5,1490C 883.465,1487.96 918.465,1486.96 953.5,1487C 954.416,1486.72 955.082,1486.22 955.5,1485.5 Z"/></g>
<g><path style="opacity:1" fill="#000000" d="M 1111.5,1496.5 C 1113.43,1496.23 1115.1,1496.73 1116.5,1498C 1115.58,1499.76 1114.41,1499.92 1113,1498.5C 1099.54,1499.96 1086.04,1501.13 1072.5,1502C 1036.5,1502.67 1000.5,1502.67 964.5,1502C 1000.36,1500.67 1036.36,1500.01 1072.5,1500C 1085.69,1499.21 1098.69,1498.05 1111.5,1496.5 Z"/></g>
</svg>
