<?xml version="1.0" encoding="UTF-8"?>
<!DOCTYPE svg PUBLIC "-//W3C//DTD SVG 1.1//EN" "http://www.w3.org/Graphics/SVG/1.1/DTD/svg11.dtd">
<svg xmlns="http://www.w3.org/2000/svg" version="1.1" width="1750px" height="1000px" style="shape-rendering:geometricPrecision; text-rendering:geometricPrecision; image-rendering:optimizeQuality; fill-rule:evenodd; clip-rule:evenodd" xmlns:xlink="http://www.w3.org/1999/xlink">
<g><path style="opacity:1" fill="#fefefe" d="M -0.5,-0.5 C 582.833,-0.5 1166.17,-0.5 1749.5,-0.5C 1749.5,332.833 1749.5,666.167 1749.5,999.5C 1166.17,999.5 582.833,999.5 -0.5,999.5C -0.5,666.167 -0.5,332.833 -0.5,-0.5 Z"/></g>
<g><path style="opacity:1" fill="#363cac" d="M 652.5,208.5 C 652.679,216.408 653.679,224.074 655.5,231.5C 656.929,243.125 658.096,254.792 659,266.5C 659.5,267 660,267.5 660.5,268C 676.447,269.272 692.447,269.939 708.5,270C 710.14,272.776 709.473,274.776 706.5,276C 692.455,276.798 678.455,276.632 664.5,275.5C 662.485,274.076 660.152,273.41 657.5,273.5C 654.994,272.185 653.161,270.185 652,267.5C 650.112,249.351 648.278,231.351 646.5,213.5C 646.638,208.586 645.972,203.919 644.5,199.5C 643.997,191.14 643.164,182.807 642,174.5C 641.333,163.5 641.333,152.5 642,141.5C 644.267,140.065 646.267,140.398 648,142.5C 647.797,164.626 649.297,186.626 652.5,208.5 Z"/></g>
<g><path style="opacity:1" fill="#3239ab" d="M 1194.5,180.5 C 1198.17,180.5 1201.83,180.5 1205.5,180.5C 1205.78,178.585 1205.45,176.919 1204.5,175.5C 1204.5,174.5 1204.5,173.5 1204.5,172.5C 1204.19,168.64 1203.52,164.974 1202.5,161.5C 1201.47,155.537 1201.3,149.537 1202,143.5C 1203.58,140.447 1205.91,139.78 1209,141.5C 1208.13,150.17 1208.47,158.837 1210,167.5C 1211.07,171.084 1211.74,174.75 1212,178.5C 1213.01,179.337 1214.18,179.67 1215.5,179.5C 1215.53,182.23 1214.86,184.73 1213.5,187C 1216.34,202.528 1219.17,218.028 1222,233.5C 1222.78,236.76 1222.62,239.927 1221.5,243C 1219.11,243.865 1217.61,243.032 1217,240.5C 1213.3,222.52 1209.8,204.52 1206.5,186.5C 1200.5,187.002 1194.5,187.168 1188.5,187C 1187.02,181.974 1189.02,179.807 1194.5,180.5 Z"/></g>
<g><path style="opacity:1" fill="#2d36aa" d="M 1073.5,161.5 C 1073.14,169.403 1073.8,177.07 1075.5,184.5C 1078.4,212.244 1082.07,239.91 1086.5,267.5C 1086.7,272.591 1084.87,273.591 1081,270.5C 1078.55,259.936 1076.72,249.269 1075.5,238.5C 1075.19,234.64 1074.52,230.974 1073.5,227.5C 1072.71,217.627 1071.37,207.96 1069.5,198.5C 1069.5,196.833 1069.5,195.167 1069.5,193.5C 1069.48,187.288 1068.81,181.288 1067.5,175.5C 1067.29,167.149 1067.12,158.816 1067,150.5C 1069.27,149.065 1071.27,149.398 1073,151.5C 1073.5,154.817 1073.67,158.15 1073.5,161.5 Z"/></g>
<g><path style="opacity:1" fill="#3038ab" d="M 883.5,202.5 C 883.656,209.422 884.656,216.089 886.5,222.5C 887.466,230.486 887.966,238.486 888,246.5C 885.224,248.14 883.224,247.473 882,244.5C 881.596,236.403 880.763,228.403 879.5,220.5C 879.638,215.586 878.972,210.919 877.5,206.5C 875.823,194.426 873.657,182.426 871,170.5C 870.501,165.177 870.334,159.844 870.5,154.5C 872.467,154.261 874.301,154.594 876,155.5C 878.695,171.14 881.195,186.807 883.5,202.5 Z"/></g>
<g><path style="opacity:1" fill="#2f38ab" d="M 970.5,154.5 C 988.286,153.519 1004.95,157.353 1020.5,166C 1024.78,169.168 1026.44,173.168 1025.5,178C 1024.17,178.667 1022.83,178.667 1021.5,178C 1017.12,170.966 1010.79,166.632 1002.5,165C 992.38,161.827 982.047,160.827 971.5,162C 967.673,165.308 966.506,169.474 968,174.5C 970,177.833 972,181.167 974,184.5C 983.904,192.47 993.237,201.136 1002,210.5C 1009.53,218.747 1012.86,228.414 1012,239.5C 1007.55,251.275 999.051,256.442 986.5,255C 975.723,249.866 965.89,243.366 957,235.5C 956.506,233.866 956.34,232.199 956.5,230.5C 958.199,230.34 959.866,230.506 961.5,231C 968.324,236.245 975.324,241.245 982.5,246C 994.837,251.495 1002.84,247.829 1006.5,235C 1003.16,221.981 996.158,211.314 985.5,203C 975.903,196.737 968.403,188.57 963,178.5C 961.494,173.254 961.161,167.921 962,162.5C 964.074,158.923 966.907,156.256 970.5,154.5 Z"/></g>
<g><path style="opacity:1" fill="#b1b3df" d="M 1202.5,161.5 C 1203.52,164.974 1204.19,168.64 1204.5,172.5C 1202.78,169.155 1202.12,165.489 1202.5,161.5 Z"/></g>
<g><path style="opacity:1" fill="#7277c6" d="M 1204.5,175.5 C 1205.45,176.919 1205.78,178.585 1205.5,180.5C 1201.83,180.5 1198.17,180.5 1194.5,180.5C 1197.62,179.521 1200.96,179.187 1204.5,179.5C 1204.5,178.167 1204.5,176.833 1204.5,175.5 Z"/></g>
<g><path style="opacity:1" fill="#9195d3" d="M 1073.5,161.5 C 1074.51,168.989 1075.18,176.656 1075.5,184.5C 1073.8,177.07 1073.14,169.403 1073.5,161.5 Z"/></g>
<g><path style="opacity:1" fill="#3139ab" d="M 1168.5,184.5 C 1172.72,183.979 1176.39,185.146 1179.5,188C 1186.26,193.243 1191.26,199.743 1194.5,207.5C 1193.9,210.246 1192.24,211.08 1189.5,210C 1185.41,202.405 1179.74,196.239 1172.5,191.5C 1171.81,192.025 1171.31,192.692 1171,193.5C 1167.62,207.965 1166.62,222.631 1168,237.5C 1170,243.535 1173.83,245.035 1179.5,242C 1184.12,238.535 1187.45,234.035 1189.5,228.5C 1192.47,226.822 1194.14,227.655 1194.5,231C 1191.31,244.193 1182.98,250.526 1169.5,250C 1164.79,246.763 1161.96,242.263 1161,236.5C 1159.48,220.895 1160.81,205.562 1165,190.5C 1165.93,188.308 1167.09,186.308 1168.5,184.5 Z"/></g>
<g><path style="opacity:1" fill="#3038ab" d="M 1125.5,220.5 C 1124.17,220.5 1122.83,220.5 1121.5,220.5C 1121.19,224.042 1121.52,227.375 1122.5,230.5C 1123.25,239.399 1125.08,248.066 1128,256.5C 1128.67,257.833 1129.33,257.833 1130,256.5C 1130.94,253.344 1132.44,250.511 1134.5,248C 1137.24,246.92 1138.9,247.754 1139.5,250.5C 1137.95,255.274 1135.61,259.608 1132.5,263.5C 1129.39,265.062 1126.55,264.729 1124,262.5C 1118.16,249.5 1115.33,235.833 1115.5,221.5C 1104.83,221.667 1094.16,221.5 1083.5,221C 1082.17,219 1082.17,217 1083.5,215C 1094.16,214.5 1104.83,214.333 1115.5,214.5C 1115.16,207.426 1115.66,200.426 1117,193.5C 1118.37,188.433 1121.54,186.267 1126.5,187C 1134.6,193.095 1142.1,199.928 1149,207.5C 1152.83,211.79 1152.33,215.29 1147.5,218C 1140.24,219.426 1132.9,220.26 1125.5,220.5 Z"/></g>
<g><path style="opacity:1" fill="#3239ab" d="M 830.5,213.5 C 831.924,211.485 832.59,209.152 832.5,206.5C 833.446,200.441 836.113,195.274 840.5,191C 845.948,191.48 850.448,193.98 854,198.5C 858.219,203.606 861.385,209.273 863.5,215.5C 863.536,218.301 862.203,220.135 859.5,221C 851.173,221.5 842.84,221.666 834.5,221.5C 833.968,229.337 834.801,237.003 837,244.5C 840.034,251.574 845.201,255.407 852.5,256C 855.167,252.667 857.833,249.333 860.5,246C 864.667,244.833 866.167,246.333 865,250.5C 857.473,264.522 847.806,266.189 836,255.5C 828.28,244.953 825.78,233.286 828.5,220.5C 824.486,220.666 820.486,220.499 816.5,220C 815.424,218.274 815.257,216.441 816,214.5C 820.737,213.531 825.57,213.197 830.5,213.5 Z"/></g>
<g><path style="opacity:1" fill="#979bd5" d="M 1067.5,175.5 C 1068.81,181.288 1069.48,187.288 1069.5,193.5C 1067.94,187.739 1067.28,181.739 1067.5,175.5 Z"/></g>
<g><path style="opacity:1" fill="#3138ab" d="M 753.5,193.5 C 755.467,193.261 757.301,193.594 759,194.5C 768.963,220.094 780.296,245.094 793,269.5C 795.015,251.252 796.682,232.918 798,214.5C 799.667,213.167 801.333,213.167 803,214.5C 803.407,233.575 802.407,252.575 800,271.5C 799.728,274.432 798.562,276.932 796.5,279C 794.833,279.667 793.167,279.667 791.5,279C 776.993,253.484 764.493,226.984 754,199.5C 753.505,197.527 753.338,195.527 753.5,193.5 Z"/></g>
<g><path style="opacity:1" fill="#2e37aa" d="M 742.5,211.5 C 742.893,214.513 742.226,217.18 740.5,219.5C 731.553,220.444 722.553,220.778 713.5,220.5C 713.613,230.672 716.613,239.838 722.5,248C 723.745,248.791 725.078,249.291 726.5,249.5C 731.779,251.311 737.112,251.644 742.5,250.5C 745.002,248.83 747.002,246.664 748.5,244C 753.645,243.602 754.812,245.769 752,250.5C 749.499,253.848 746.332,256.182 742.5,257.5C 737.507,257.084 732.507,256.751 727.5,256.5C 720.198,255.376 715.031,251.376 712,244.5C 710.185,239.237 708.685,233.904 707.5,228.5C 707.5,225.5 707.5,222.5 707.5,219.5C 700.167,219.5 692.833,219.5 685.5,219.5C 683.324,218.287 682.991,216.62 684.5,214.5C 692.472,213.502 700.472,213.169 708.5,213.5C 709.845,208.475 712.012,203.808 715,199.5C 719.676,192.696 725.176,191.862 731.5,197C 736.521,200.907 740.187,205.74 742.5,211.5 Z"/></g>
<g><path style="opacity:1" fill="#2f37aa" d="M 1042.5,217.5 C 1040.39,216.532 1038.06,216.198 1035.5,216.5C 1035.21,218.735 1035.54,220.735 1036.5,222.5C 1037.55,232.481 1041.21,241.315 1047.5,249C 1051.99,251.583 1055.15,250.416 1057,245.5C 1058,242.833 1059,240.167 1060,237.5C 1061.67,236.167 1063.33,236.167 1065,237.5C 1065.13,244.404 1062.63,250.237 1057.5,255C 1052.67,257.147 1048.01,256.814 1043.5,254C 1033.89,243.442 1029.23,230.942 1029.5,216.5C 1025.82,216.665 1022.15,216.499 1018.5,216C 1015.79,214.54 1015.12,212.54 1016.5,210C 1021.15,209.501 1025.82,209.334 1030.5,209.5C 1030.35,203.699 1032.02,198.533 1035.5,194C 1037.5,193.333 1039.5,193.333 1041.5,194C 1044.98,197.15 1048.15,200.65 1051,204.5C 1057.8,214.885 1054.97,219.218 1042.5,217.5 Z"/></g>
<g><path style="opacity:1" fill="#f4f4fa" d="M 1128.5,213.5 C 1126.5,213.5 1124.5,213.5 1122.5,213.5C 1122.5,209.833 1122.5,206.167 1122.5,202.5C 1122.29,200.08 1122.63,197.747 1123.5,195.5C 1124.36,194.417 1125.36,194.251 1126.5,195C 1132.65,199.983 1138.32,205.483 1143.5,211.5C 1138.52,212.407 1133.52,213.073 1128.5,213.5 Z"/></g>
<g><path style="opacity:1" fill="#f3f3fa" d="M 842.5,198.5 C 848.7,202.204 853.367,207.371 856.5,214C 850.175,214.5 843.842,214.666 837.5,214.5C 837.963,208.779 839.63,203.445 842.5,198.5 Z"/></g>
<g><path style="opacity:1" fill="#3a41ae" d="M 800.5,199.5 C 805.159,199.015 806.492,200.848 804.5,205C 799.728,205.81 798.395,203.977 800.5,199.5 Z"/></g>
<g><path style="opacity:1" fill="#f4f4fa" d="M 735.5,212.5 C 729.021,213.491 722.354,213.824 715.5,213.5C 716.569,207.775 719.569,203.442 724.5,200.5C 729.601,203.264 733.268,207.264 735.5,212.5 Z"/></g>
<g><path style="opacity:1" fill="#e8e9f6" d="M 1038.5,201.5 C 1042.17,203.282 1044.83,206.115 1046.5,210C 1043.18,210.498 1039.85,210.665 1036.5,210.5C 1036.7,207.37 1037.37,204.37 1038.5,201.5 Z"/></g>
<g><path style="opacity:1" fill="#b0b2df" d="M 1069.5,198.5 C 1071.37,207.96 1072.71,217.627 1073.5,227.5C 1071.25,218.091 1069.92,208.425 1069.5,198.5 Z"/></g>
<g><path style="opacity:1" fill="#696cc1" d="M 832.5,206.5 C 832.59,209.152 831.924,211.485 830.5,213.5C 830.41,210.848 831.076,208.515 832.5,206.5 Z"/></g>
<g><path style="opacity:1" fill="#8d92d1" d="M 1122.5,202.5 C 1122.5,206.167 1122.5,209.833 1122.5,213.5C 1124.5,213.5 1126.5,213.5 1128.5,213.5C 1126.39,214.468 1124.06,214.802 1121.5,214.5C 1121.18,210.298 1121.52,206.298 1122.5,202.5 Z"/></g>
<g><path style="opacity:1" fill="#aeb0de" d="M 644.5,199.5 C 645.972,203.919 646.638,208.586 646.5,213.5C 645.028,209.081 644.362,204.414 644.5,199.5 Z"/></g>
<g><path style="opacity:1" fill="#676fc2" d="M 735.5,212.5 C 736.043,212.56 736.376,212.893 736.5,213.5C 729.344,214.819 722.344,214.819 715.5,213.5C 722.354,213.824 729.021,213.491 735.5,212.5 Z"/></g>
<g><path style="opacity:1" fill="#686bc1" d="M 883.5,202.5 C 885.344,208.911 886.344,215.578 886.5,222.5C 884.656,216.089 883.656,209.422 883.5,202.5 Z"/></g>
<g><path style="opacity:1" fill="#777ac7" d="M 652.5,208.5 C 654.134,215.949 655.134,223.615 655.5,231.5C 653.679,224.074 652.679,216.408 652.5,208.5 Z"/></g>
<g><path style="opacity:1" fill="#b8bae2" d="M 742.5,211.5 C 743.629,213.628 743.796,215.961 743,218.5C 742.329,219.252 741.496,219.586 740.5,219.5C 742.226,217.18 742.893,214.513 742.5,211.5 Z"/></g>
<g><path style="opacity:1" fill="#6a72c3" d="M 685.5,219.5 C 692.833,219.5 700.167,219.5 707.5,219.5C 707.5,222.5 707.5,225.5 707.5,228.5C 706.527,226.052 706.194,223.385 706.5,220.5C 699.313,220.825 692.313,220.491 685.5,219.5 Z"/></g>
<g><path style="opacity:1" fill="#a5a9db" d="M 877.5,206.5 C 878.972,210.919 879.638,215.586 879.5,220.5C 878.028,216.081 877.362,211.414 877.5,206.5 Z"/></g>
<g><path style="opacity:1" fill="#9197d3" d="M 1042.5,217.5 C 1040.5,217.5 1038.5,217.5 1036.5,217.5C 1036.5,219.167 1036.5,220.833 1036.5,222.5C 1035.54,220.735 1035.21,218.735 1035.5,216.5C 1038.06,216.198 1040.39,216.532 1042.5,217.5 Z"/></g>
<g><path style="opacity:1" fill="#a9addc" d="M 1125.5,220.5 C 1124.79,221.404 1123.79,221.737 1122.5,221.5C 1122.5,224.5 1122.5,227.5 1122.5,230.5C 1121.52,227.375 1121.19,224.042 1121.5,220.5C 1122.83,220.5 1124.17,220.5 1125.5,220.5 Z"/></g>
<g><path style="opacity:1" fill="#b6b9e1" d="M 1073.5,227.5 C 1074.52,230.974 1075.19,234.64 1075.5,238.5C 1073.78,235.155 1073.12,231.489 1073.5,227.5 Z"/></g>
<g><path style="opacity:1" fill="#a8acdc" d="M 726.5,249.5 C 731.833,249.833 737.167,250.167 742.5,250.5C 737.112,251.644 731.779,251.311 726.5,249.5 Z"/></g>
<g><path style="opacity:1" fill="#8c90d0" d="M 727.5,256.5 C 732.507,256.751 737.507,257.084 742.5,257.5C 737.448,258.579 732.448,258.246 727.5,256.5 Z"/></g>
<g><path style="opacity:1" fill="#8184cb" d="M 657.5,273.5 C 660.152,273.41 662.485,274.076 664.5,275.5C 661.848,275.59 659.515,274.924 657.5,273.5 Z"/></g>
<g><path style="opacity:1" fill="#3138ab" d="M 1122.5,429.5 C 1087.66,429.752 1053,430.419 1018.5,431.5C 991.517,432.935 964.517,433.935 937.5,434.5C 884.012,435.827 830.678,436.827 777.5,437.5C 737.165,437.333 696.832,437.5 656.5,438C 649.618,440.05 642.618,440.717 635.5,440C 631.074,436.212 629.408,431.378 630.5,425.5C 630.558,420.453 631.058,415.453 632,410.5C 635.832,407.327 637.999,408.161 638.5,413C 637.639,419.806 637.306,426.639 637.5,433.5C 642.177,433.165 646.844,432.665 651.5,432C 730.167,431.377 808.834,430.71 887.5,430C 967.105,425.614 1046.77,423.281 1126.5,423C 1133.92,422.699 1141.26,421.866 1148.5,420.5C 1149.27,391.169 1149.43,361.836 1149,332.5C 1148.63,331.584 1148.13,330.75 1147.5,330C 1136.84,329.833 1126.17,329.999 1115.5,330.5C 1104.31,330.472 1093.31,331.139 1082.5,332.5C 1043.48,334.908 1004.48,337.241 965.5,339.5C 954.306,339.472 943.306,340.139 932.5,341.5C 867.816,344.334 803.149,347.501 738.5,351C 708.5,351.667 678.5,351.667 648.5,351C 647.167,349.333 647.167,347.667 648.5,346C 761.674,343.61 874.674,338.777 987.5,331.5C 1003.37,331.342 1019.04,330.342 1034.5,328.5C 1069.49,326.46 1104.49,324.46 1139.5,322.5C 1149.25,320.782 1154.75,324.782 1156,334.5C 1156.17,344.167 1156.33,353.833 1156.5,363.5C 1155.99,383.177 1155.16,402.843 1154,422.5C 1153.07,425.102 1151.23,426.602 1148.5,427C 1144.97,427.089 1141.64,427.756 1138.5,429C 1133.18,429.499 1127.84,429.666 1122.5,429.5 Z"/></g>
<g><path style="opacity:1" fill="#8084cb" d="M 1034.5,328.5 C 1019.04,330.342 1003.37,331.342 987.5,331.5C 1002.98,329.922 1018.64,328.922 1034.5,328.5 Z"/></g>
<g><path style="opacity:1" fill="#9b9ed6" d="M 1115.5,330.5 C 1104.69,331.861 1093.69,332.528 1082.5,332.5C 1093.31,331.139 1104.31,330.472 1115.5,330.5 Z"/></g>
<g><path style="opacity:1" fill="#a1a5d9" d="M 965.5,339.5 C 954.694,340.861 943.694,341.528 932.5,341.5C 943.306,340.139 954.306,339.472 965.5,339.5 Z"/></g>
<g><path style="opacity:1" fill="#363cac" d="M 644.5,354.5 C 648.887,354.533 651.054,356.866 651,361.5C 652.07,373.488 652.403,385.488 652,397.5C 649.46,398.876 647.46,398.21 646,395.5C 645.565,382.797 644.732,370.13 643.5,357.5C 643.685,356.416 644.018,355.416 644.5,354.5 Z"/></g>
<g><path style="opacity:1" fill="#333aab" d="M 991.5,359.5 C 995.594,358.705 998.761,360.038 1001,363.5C 1001.67,368.833 1001.67,374.167 1001,379.5C 999.861,389.235 998.528,398.901 997,408.5C 995.062,409.86 993.396,409.527 992,407.5C 991.844,396.75 992.677,386.083 994.5,375.5C 994.167,372.5 993.833,369.5 993.5,366.5C 985.689,373.901 977.689,381.068 969.5,388C 967.866,388.494 966.199,388.66 964.5,388.5C 964.34,386.801 964.506,385.134 965,383.5C 973.73,375.265 982.563,367.265 991.5,359.5 Z"/></g>
<g><path style="opacity:1" fill="#2f37aa" d="M 705.5,364.5 C 707.144,364.286 708.644,364.62 710,365.5C 710.333,377.5 710.667,389.5 711,401.5C 719.981,403.768 729.148,404.935 738.5,405C 740.698,406.67 741.032,408.67 739.5,411C 729,411.862 718.667,410.862 708.5,408C 707.667,407.167 706.833,406.333 706,405.5C 704.869,398.601 704.369,391.601 704.5,384.5C 704.518,377.756 704.851,371.09 705.5,364.5 Z"/></g>
<g><path style="opacity:1" fill="#2f38ab" d="M 812.5,370.5 C 816.677,369.842 818.177,371.508 817,375.5C 811.829,383.172 807.162,391.172 803,399.5C 799.645,404.31 795.979,404.644 792,400.5C 787.789,394.284 784.455,387.617 782,380.5C 781.503,377.854 781.336,375.187 781.5,372.5C 783.467,372.261 785.301,372.594 787,373.5C 788.717,381.599 792.05,388.932 797,395.5C 801.995,387.017 807.162,378.683 812.5,370.5 Z"/></g>
<g><path style="opacity:1" fill="#3038ab" d="M 758.5,373.5 C 764.416,373.083 768.083,375.75 769.5,381.5C 769.514,383.593 768.848,385.426 767.5,387C 764.439,389.035 761.105,390.201 757.5,390.5C 758.926,399.724 764.259,403.224 773.5,401C 776.02,399.237 778.353,397.237 780.5,395C 784,394.5 785.5,396 785,399.5C 774.771,410.946 764.438,411.28 754,400.5C 752.293,398.091 751.46,395.425 751.5,392.5C 748.201,393.376 744.868,393.543 741.5,393C 739.789,391.867 739.289,390.367 740,388.5C 743.459,386.34 747.292,385.173 751.5,385C 753.233,380.774 755.567,376.941 758.5,373.5 Z"/></g>
<g><path style="opacity:1" fill="#2f38aa" d="M 852.5,392.5 C 848.833,392.5 845.167,392.5 841.5,392.5C 841.263,393.791 841.596,394.791 842.5,395.5C 850.418,405.445 860.751,409.278 873.5,407C 878.628,405.458 883.628,403.625 888.5,401.5C 889.5,401.5 890.5,401.5 891.5,401.5C 891.784,399.585 891.451,397.919 890.5,396.5C 887.93,385.978 887.097,375.311 888,364.5C 889.667,363.167 891.333,363.167 893,364.5C 894.331,377.164 895.664,389.831 897,402.5C 881.973,415.683 865.473,417.849 847.5,409C 841.896,405.397 837.729,400.563 835,394.5C 830.916,393.799 829.583,391.465 831,387.5C 832.011,386.663 833.178,386.33 834.5,386.5C 836.632,378.201 841.965,374.367 850.5,375C 855.2,377.738 858.2,381.738 859.5,387C 858.784,390.882 856.451,392.715 852.5,392.5 Z"/></g>
<g><path style="opacity:1" fill="#b7bae2" d="M 760.5,380.5 C 763.012,381.216 763.012,382.216 760.5,383.5C 759.913,382.767 759.913,381.767 760.5,380.5 Z"/></g>
<g><path style="opacity:1" fill="#ebecf7" d="M 845.5,381.5 C 848.439,381.918 850.772,383.418 852.5,386C 848.789,386.825 845.122,386.659 841.5,385.5C 842.549,383.784 843.882,382.451 845.5,381.5 Z"/></g>
<g><path style="opacity:1" fill="#7078c6" d="M 852.5,392.5 C 848.881,392.881 845.548,393.881 842.5,395.5C 841.596,394.791 841.263,393.791 841.5,392.5C 845.167,392.5 848.833,392.5 852.5,392.5 Z"/></g>
<g><path style="opacity:1" fill="#8c90d0" d="M 890.5,396.5 C 891.451,397.919 891.784,399.585 891.5,401.5C 890.5,401.5 889.5,401.5 888.5,401.5C 889.968,400.221 890.635,398.554 890.5,396.5 Z"/></g>
<g><path style="opacity:1" fill="#595bba" d="M 636.5,399.5 C 641.159,399.015 642.492,400.848 640.5,405C 635.728,405.81 634.395,403.977 636.5,399.5 Z"/></g>
<g><path style="opacity:1" fill="#b3b6e0" d="M 1122.5,429.5 C 1088.02,431.202 1053.35,431.869 1018.5,431.5C 1053,430.419 1087.66,429.752 1122.5,429.5 Z"/></g>
<g><path style="opacity:1" fill="#a0a4d9" d="M 937.5,434.5 C 920.365,436.132 903.032,436.965 885.5,437C 849.502,437.5 813.502,437.667 777.5,437.5C 830.678,436.827 884.012,435.827 937.5,434.5 Z"/></g>
<g><path style="opacity:1" fill="#d0d0d2" d="M 1100.5,458.5 C 1110.51,458.334 1120.51,458.5 1130.5,459C 1134.17,460.668 1136.33,463.501 1137,467.5C 1139.93,479.333 1141.93,491.333 1143,503.5C 1144.01,518.657 1144.84,533.823 1145.5,549C 1147.19,557.951 1143.53,562.951 1134.5,564C 1129.88,565.207 1125.21,566.207 1120.5,567C 1028.25,576.053 935.921,584.386 843.5,592C 776.54,595.44 709.54,597.44 642.5,598C 641.213,596.59 640.046,595.09 639,593.5C 638.333,582.833 638.333,572.167 639,561.5C 640.733,559.398 642.733,559.065 645,560.5C 645.5,570.828 645.666,581.161 645.5,591.5C 700.811,589.4 756.144,587.9 811.5,587C 916.913,578.481 1022.25,569.148 1127.5,559C 1131.1,558.06 1134.6,556.893 1138,555.5C 1138.75,528.637 1136.75,501.97 1132,475.5C 1131.63,471.715 1130.46,468.215 1128.5,465C 1101.38,465.021 1074.38,466.688 1047.5,470C 1028.5,470.333 1009.5,470.667 990.5,471C 955.652,475.348 920.652,477.682 885.5,478C 805.472,485.956 725.305,489.456 645,488.5C 644.175,486.299 644.675,484.466 646.5,483C 732.693,482.238 818.693,477.904 904.5,470C 917.5,469.667 930.5,469.333 943.5,469C 955.113,467.247 966.78,465.914 978.5,465C 1007.5,463.946 1036.5,462.946 1065.5,462C 1077.14,460.104 1088.81,458.937 1100.5,458.5 Z"/></g>
<g><path style="opacity:1" fill="#d0d0d3" d="M 645.5,491.5 C 647.144,491.286 648.644,491.62 650,492.5C 651.167,508.161 651.834,523.828 652,539.5C 649.224,541.14 647.224,540.473 646,537.5C 644.937,525.849 644.104,514.183 643.5,502.5C 643.58,498.573 644.247,494.907 645.5,491.5 Z"/></g>
<g><path style="opacity:1" fill="#ceced1" d="M 1017.5,491.5 C 1025.63,490.93 1032.46,493.596 1038,499.5C 1040.12,505.287 1039.79,510.953 1037,516.5C 1030.92,525.252 1024.09,533.418 1016.5,541C 1027.15,540.596 1037.82,540.596 1048.5,541C 1049.83,542.667 1049.83,544.333 1048.5,546C 1038.61,547.514 1028.61,548.348 1018.5,548.5C 1014.58,548.483 1010.75,548.15 1007,547.5C 1006.06,544.12 1006.73,541.12 1009,538.5C 1017.09,530.469 1024.59,521.969 1031.5,513C 1023.64,513.802 1017.48,510.969 1013,504.5C 1011.63,502.305 1011.29,499.971 1012,497.5C 1013.36,494.977 1015.19,492.977 1017.5,491.5 Z"/></g>
<g><path style="opacity:1" fill="#fcfcfc" d="M 1019.5,498.5 C 1025.84,497.497 1030.17,499.83 1032.5,505.5C 1026.68,506.693 1022.01,505.026 1018.5,500.5C 1018.86,499.817 1019.2,499.15 1019.5,498.5 Z"/></g>
<g><path style="opacity:1" fill="#ceced1" d="M 891.5,500.5 C 893.467,500.261 895.301,500.594 897,501.5C 898.056,512.783 900.39,523.783 904,534.5C 904.769,537.099 904.602,539.599 903.5,542C 898.888,542.562 896.554,540.395 896.5,535.5C 886.72,546.036 874.72,550.536 860.5,549C 850.38,544.932 845.713,537.432 846.5,526.5C 842.818,526.665 839.152,526.499 835.5,526C 833.398,524.267 833.065,522.267 834.5,520C 839.5,519.667 844.5,519.333 849.5,519C 854.523,509.298 861.857,506.965 871.5,512C 875.963,517.76 875.296,522.76 869.5,527C 863.843,527.499 858.176,527.666 852.5,527.5C 854.339,540.489 861.673,545.322 874.5,542C 882.439,539.391 888.605,534.558 893,527.5C 893.667,524.5 893.667,521.5 893,518.5C 890.575,512.594 890.075,506.594 891.5,500.5 Z"/></g>
<g><path style="opacity:1" fill="#cfcfd2" d="M 702.5,506.5 C 704.167,506.5 705.833,506.5 707.5,506.5C 707.333,522.837 707.5,539.17 708,555.5C 708.833,557.667 710.333,559.167 712.5,560C 718.179,560.198 723.845,560.198 729.5,560C 732.326,562.522 731.993,564.522 728.5,566C 720.488,568.583 712.821,567.916 705.5,564C 703.064,561.293 701.564,558.127 701,554.5C 700.333,539.167 700.333,523.833 701,508.5C 701.717,507.956 702.217,507.289 702.5,506.5 Z"/></g>
<g><path style="opacity:1" fill="#cfcfd2" d="M 781.5,513.5 C 783.722,513.178 785.556,513.845 787,515.5C 789.803,523.11 793.636,530.11 798.5,536.5C 800.073,530.26 801.239,523.926 802,517.5C 804,516.167 806,516.167 808,517.5C 807.825,525.563 806.825,533.563 805,541.5C 800.951,546.818 796.951,546.818 793,541.5C 788.477,534.455 784.477,527.122 781,519.5C 780.51,517.455 780.677,515.455 781.5,513.5 Z"/></g>
<g><path style="opacity:1" fill="#f8f8f9" d="M 861.5,515.5 C 865.349,515.019 867.349,516.686 867.5,520.5C 864.102,520.82 860.768,520.487 857.5,519.5C 859.188,518.479 860.521,517.145 861.5,515.5 Z"/></g>
<g><path style="opacity:1" fill="#ceced1" d="M 758.5,519.5 C 764.944,518.971 770.111,521.305 774,526.5C 775.538,531.169 774.038,534.336 769.5,536C 764.167,537 758.833,538 753.5,539C 750.528,543.78 751.528,547.78 756.5,551C 763.83,553.763 770.497,552.763 776.5,548C 778.134,547.506 779.801,547.34 781.5,547.5C 782.041,550.652 781.041,553.152 778.5,555C 767.613,561.676 757.447,560.843 748,552.5C 745.668,549.178 744.502,545.511 744.5,541.5C 740.993,542.006 737.826,541.34 735,539.5C 734.333,538.167 734.333,536.833 735,535.5C 738.745,534.703 742.579,534.203 746.5,534C 749.456,528.226 753.456,523.393 758.5,519.5 Z"/></g>
<g><path style="opacity:1" fill="#fafafa" d="M 760.5,526.5 C 767.732,527.182 768.065,528.682 761.5,531C 759.833,531.667 758.167,531.667 756.5,531C 758.041,529.629 759.375,528.129 760.5,526.5 Z"/></g>
<g><path style="opacity:1" fill="#ceced1" d="M 892.5,710.5 C 971.167,710.5 1049.83,710.5 1128.5,710.5C 1128.5,707.5 1128.5,704.5 1128.5,701.5C 1128.94,678.976 1129.94,656.476 1131.5,634C 1131.63,624.093 1130.97,614.26 1129.5,604.5C 1070.96,608.947 1012.29,612.447 953.5,615C 888.504,616.598 823.504,617.932 758.5,619C 723.545,622.09 688.545,624.59 653.5,626.5C 654.361,647.089 656.361,667.589 659.5,688C 660.101,691.271 658.934,693.438 656,694.5C 654.674,694.245 653.674,693.578 653,692.5C 649.195,669.316 647.195,645.983 647,622.5C 648.255,621.789 649.421,620.956 650.5,620C 680.825,617.546 711.158,615.213 741.5,613C 818.171,611.253 894.838,609.253 971.5,607C 1012.14,604.422 1052.81,602.422 1093.5,601C 1104.11,599.384 1114.78,598.217 1125.5,597.5C 1133.01,597.169 1136.84,600.836 1137,608.5C 1137.75,634.181 1137.42,659.847 1136,685.5C 1134.72,694.733 1134.05,704.066 1134,713.5C 1133.17,714.333 1132.33,715.167 1131.5,716C 975.501,717.085 819.501,717.419 663.5,717C 659.954,713.548 658.787,709.382 660,704.5C 661.494,703.253 662.994,703.253 664.5,704.5C 665.577,706.729 666.244,709.063 666.5,711.5C 741.852,711.818 817.185,711.485 892.5,710.5 Z"/></g>
<g><path style="opacity:1" fill="#cfcfd1" d="M 997.5,627.5 C 1005.83,628.019 1014.16,628.519 1022.5,629C 1024.4,630.808 1024.9,632.975 1024,635.5C 1022.58,637.336 1021.41,639.336 1020.5,641.5C 1025.19,647.694 1029.69,654.028 1034,660.5C 1038.22,669.99 1035.39,676.157 1025.5,679C 1014.18,680.946 1002.85,680.946 991.5,679C 989.75,677.246 989.083,675.079 989.5,672.5C 1000.49,673.376 1011.49,673.543 1022.5,673C 1024.09,672.138 1025.75,671.471 1027.5,671C 1028.57,667.057 1028.07,663.223 1026,659.5C 1022,654.167 1018,648.833 1014,643.5C 1013.01,640.258 1013.85,637.592 1016.5,635.5C 1010.53,634.67 1004.53,634.17 998.5,634C 996.316,632.102 995.983,629.936 997.5,627.5 Z"/></g>
<g><path style="opacity:1" fill="#cfcfd2" d="M 882.5,629.5 C 884.5,629.5 886.5,629.5 888.5,629.5C 887.99,641.142 888.99,652.642 891.5,664C 891.333,665.5 891.167,667 891,668.5C 888.546,670.013 886.879,669.346 886,666.5C 881.625,654.425 880.459,642.092 882.5,629.5 Z"/></g>
<g><path style="opacity:1" fill="#ceced1" d="M 716.5,635.5 C 718.722,635.178 720.556,635.845 722,637.5C 722.333,644.833 722.667,652.167 723,659.5C 724.274,663.99 725.941,668.323 728,672.5C 731.659,674.387 735.492,675.887 739.5,677C 745.5,677.333 751.5,677.667 757.5,678C 758.833,679.667 758.833,681.333 757.5,683C 749.833,683.667 742.167,683.667 734.5,683C 729.62,681.645 725.453,679.145 722,675.5C 715.581,662.807 713.748,649.474 716.5,635.5 Z"/></g>
<g><path style="opacity:1" fill="#cfcfd2" d="M 848.5,644.5 C 856.13,644.96 859.63,648.96 859,656.5C 856.181,660.493 852.347,662.16 847.5,661.5C 847.02,664.685 847.686,667.519 849.5,670C 857.529,671.356 865.195,670.356 872.5,667C 874.429,664.562 876.762,662.728 879.5,661.5C 881.739,661.574 882.739,662.741 882.5,665C 880.716,669.089 877.716,672.089 873.5,674C 865.441,677.204 857.107,678.204 848.5,677C 841.712,673.589 839.045,668.089 840.5,660.5C 834.711,659.979 829.211,658.646 824,656.5C 822.728,652.771 824.061,651.104 828,651.5C 833.078,652.864 838.245,653.531 843.5,653.5C 843.891,649.779 845.558,646.779 848.5,644.5 Z"/></g>
<g><path style="opacity:1" fill="#cfcfd2" d="M 765.5,646.5 C 774.992,646.444 778.492,651.111 776,660.5C 775.214,663.583 773.381,665.749 770.5,667C 773.703,673.513 777.537,674.013 782,668.5C 785.215,662.857 788.048,657.024 790.5,651C 793.025,650.104 795.192,650.604 797,652.5C 799.038,657.579 801.371,662.579 804,667.5C 807.406,671.652 809.739,670.986 811,665.5C 811.925,661.054 813.425,656.888 815.5,653C 817.367,652.289 818.867,652.789 820,654.5C 819.765,663.543 816.598,671.377 810.5,678C 808.833,678.667 807.167,678.667 805.5,678C 800.161,673.833 796.161,668.666 793.5,662.5C 790.448,668.106 786.781,673.273 782.5,678C 778.5,680 774.5,680 770.5,678C 767.974,674.974 765.64,671.807 763.5,668.5C 760.634,667.792 757.8,667.125 755,666.5C 754.28,664.888 754.446,663.388 755.5,662C 757.473,661.505 759.473,661.338 761.5,661.5C 760.555,655.764 761.889,650.764 765.5,646.5 Z"/></g>
<g><path style="opacity:1" fill="#e4e4e6" d="M 1128.5,701.5 C 1128.5,704.5 1128.5,707.5 1128.5,710.5C 1049.83,710.5 971.167,710.5 892.5,710.5C 970.665,709.501 1049,709.167 1127.5,709.5C 1127.19,706.615 1127.53,703.948 1128.5,701.5 Z"/></g>
<g><path style="opacity:1" fill="#3239ab" d="M 1130.5,730.5 C 1130.41,733.152 1131.08,735.485 1132.5,737.5C 1135.3,759.141 1135.13,780.807 1132,802.5C 1130.2,805.785 1127.37,807.619 1123.5,808C 1119.23,809.075 1114.9,809.575 1110.5,809.5C 1105.27,809.444 1100.27,810.111 1095.5,811.5C 1088.6,811.294 1081.94,811.961 1075.5,813.5C 1071.51,813.116 1067.84,813.783 1064.5,815.5C 1063.83,815.5 1063.17,815.5 1062.5,815.5C 1057.27,815.444 1052.27,816.111 1047.5,817.5C 1038.84,818.62 1030.18,819.62 1021.5,820.5C 1016.27,820.444 1011.27,821.111 1006.5,822.5C 948.02,826.517 889.687,831.684 831.5,838C 798.161,838.645 764.828,838.479 731.5,837.5C 714.326,836.713 696.993,836.047 679.5,835.5C 677.623,834.341 677.123,832.674 678,830.5C 680.075,829.866 682.241,829.532 684.5,829.5C 707.874,829.978 731.207,830.811 754.5,832C 778.5,832.667 802.5,832.667 826.5,832C 869.408,826.909 912.408,822.743 955.5,819.5C 965.041,819.655 974.374,818.988 983.5,817.5C 995.798,816.088 1008.13,815.088 1020.5,814.5C 1025.41,814.638 1030.08,813.972 1034.5,812.5C 1064.36,807.813 1094.36,803.98 1124.5,801C 1127.06,787.335 1128.06,773.502 1127.5,759.5C 1127.86,751.597 1127.2,743.93 1125.5,736.5C 1125.5,735.5 1125.5,734.5 1125.5,733.5C 1097.11,732.859 1068.77,733.693 1040.5,736C 1001.15,737.246 961.817,738.746 922.5,740.5C 904.018,741.613 885.685,742.613 867.5,743.5C 826.46,744.342 785.46,746.342 744.5,749.5C 739.269,749.444 734.269,750.111 729.5,751.5C 714.933,752.772 700.6,754.772 686.5,757.5C 681.798,758.004 677.131,758.671 672.5,759.5C 669.848,759.41 667.515,760.076 665.5,761.5C 665.335,765.182 665.501,768.848 666,772.5C 668.807,788.196 671.474,803.862 674,819.5C 671.224,821.14 669.224,820.473 668,817.5C 663.678,801.06 660.845,784.393 659.5,767.5C 659.034,761.509 658.701,755.509 658.5,749.5C 663.327,747.31 665.327,748.977 664.5,754.5C 674.711,752.179 685.044,750.513 695.5,749.5C 700.731,749.556 705.731,748.889 710.5,747.5C 731.653,743.694 752.986,741.361 774.5,740.5C 785.359,740.488 796.026,739.821 806.5,738.5C 807.167,738.5 807.833,738.5 808.5,738.5C 831.348,738.569 854.014,737.903 876.5,736.5C 908.283,735.738 939.949,733.905 971.5,731C 991.833,730.667 1012.17,730.333 1032.5,730C 1063.75,727.057 1095.08,726.057 1126.5,727C 1128.32,727.66 1129.66,728.827 1130.5,730.5 Z"/></g>
<g><path style="opacity:1" fill="#6a6ec2" d="M 1130.5,730.5 C 1131.92,732.515 1132.59,734.848 1132.5,737.5C 1131.08,735.485 1130.41,733.152 1130.5,730.5 Z"/></g>
<g><path style="opacity:1" fill="#7d80ca" d="M 876.5,736.5 C 854.014,737.903 831.348,738.569 808.5,738.5C 830.982,736.971 853.649,736.304 876.5,736.5 Z"/></g>
<g><path style="opacity:1" fill="#898ecf" d="M 806.5,738.5 C 796.026,739.821 785.359,740.488 774.5,740.5C 784.97,739.099 795.636,738.433 806.5,738.5 Z"/></g>
<g><path style="opacity:1" fill="#9498d4" d="M 922.5,740.5 C 915.05,741.969 907.383,742.803 899.5,743C 888.839,743.5 878.172,743.667 867.5,743.5C 885.685,742.613 904.018,741.613 922.5,740.5 Z"/></g>
<g><path style="opacity:1" fill="#6064be" d="M 710.5,747.5 C 705.731,748.889 700.731,749.556 695.5,749.5C 700.269,748.111 705.269,747.444 710.5,747.5 Z"/></g>
<g><path style="opacity:1" fill="#9da1d7" d="M 744.5,749.5 C 739.731,750.889 734.731,751.556 729.5,751.5C 734.269,750.111 739.269,749.444 744.5,749.5 Z"/></g>
<g><path style="opacity:1" fill="#b8bae2" d="M 729.5,751.5 C 715.4,754.228 701.067,756.228 686.5,757.5C 700.6,754.772 714.933,752.772 729.5,751.5 Z"/></g>
<g><path style="opacity:1" fill="#2f37aa" d="M 790.5,760.5 C 790.335,763.85 790.502,767.183 791,770.5C 791.232,771.737 791.732,772.737 792.5,773.5C 792.704,776.518 793.037,779.518 793.5,782.5C 793.192,784.924 793.526,787.257 794.5,789.5C 795.107,789.376 795.44,789.043 795.5,788.5C 799.025,784.817 803.025,781.65 807.5,779C 813.775,775.981 816.941,777.815 817,784.5C 812.813,787.337 808.313,789.503 803.5,791C 810.949,795.391 818.615,799.224 826.5,802.5C 826.5,803.833 826.5,805.167 826.5,806.5C 824.833,806.5 823.167,806.5 821.5,806.5C 813.165,804.166 805.499,800.499 798.5,795.5C 796.32,798.329 794.653,801.496 793.5,805C 791.299,805.825 789.466,805.325 788,803.5C 788.106,790.685 786.94,778.018 784.5,765.5C 784.532,763.241 784.866,761.075 785.5,759C 787.674,758.123 789.341,758.623 790.5,760.5 Z"/></g>
<g><path style="opacity:1" fill="#979cd5" d="M 1125.5,736.5 C 1127.2,743.93 1127.86,751.597 1127.5,759.5C 1126.49,752.011 1125.82,744.344 1125.5,736.5 Z"/></g>
<g><path style="opacity:1" fill="#b3b5e0" d="M 672.5,759.5 C 670.485,760.924 668.152,761.59 665.5,761.5C 667.515,760.076 669.848,759.41 672.5,759.5 Z"/></g>
<g><path style="opacity:1" fill="#797dc8" d="M 704.5,764.5 C 701.14,764.616 697.807,764.949 694.5,765.5C 697.708,763.469 701.041,763.135 704.5,764.5 Z"/></g>
<g><path style="opacity:1" fill="#2e37aa" d="M 704.5,764.5 C 708.254,765.865 709.421,768.532 708,772.5C 705.317,775.016 702.817,777.683 700.5,780.5C 706.458,781.43 712.124,783.264 717.5,786C 720.072,789.819 719.905,793.652 717,797.5C 710.604,806.409 702.104,809.576 691.5,807C 689.014,803.863 687.181,800.363 686,796.5C 683.716,788.49 681.55,780.49 679.5,772.5C 684.357,773.162 688.023,771.329 690.5,767C 691.745,766.209 693.078,765.709 694.5,765.5C 697.807,764.949 701.14,764.616 704.5,764.5 Z"/></g>
<g><path style="opacity:1" fill="#8e92d1" d="M 658.5,749.5 C 658.701,755.509 659.034,761.509 659.5,767.5C 657.595,761.557 657.262,755.557 658.5,749.5 Z"/></g>
<g><path style="opacity:1" fill="#656ac0" d="M 790.5,760.5 C 791.449,764.657 792.116,768.99 792.5,773.5C 791.732,772.737 791.232,771.737 791,770.5C 790.502,767.183 790.335,763.85 790.5,760.5 Z"/></g>
<g><path style="opacity:1" fill="#2e37aa" d="M 750.5,790.5 C 748.856,790.714 747.356,790.38 746,789.5C 745.22,791.387 745.387,793.054 746.5,794.5C 747.011,797.028 747.678,799.528 748.5,802C 748.116,805.745 746.282,806.911 743,805.5C 742.009,803.192 741.176,800.859 740.5,798.5C 740.719,797.325 740.386,796.325 739.5,795.5C 738.893,795.624 738.56,795.957 738.5,796.5C 734.668,803.083 729.001,805.916 721.5,805C 719.496,802.159 718.996,798.993 720,795.5C 722.078,787.822 726.244,781.655 732.5,777C 736.167,775 739.833,775 743.5,777C 747.383,779.869 750.05,783.535 751.5,788C 751.472,789.07 751.139,789.903 750.5,790.5 Z"/></g>
<g><path style="opacity:1" fill="#3039ab" d="M 759.5,790.5 C 760.924,788.485 761.59,786.152 761.5,783.5C 762.278,780.39 764.278,778.724 767.5,778.5C 770.949,779.141 774.116,780.474 777,782.5C 777.72,784.112 777.554,785.612 776.5,787C 773.725,787.778 771.225,787.278 769,785.5C 768.228,785.645 767.561,785.978 767,786.5C 766.313,792.204 766.479,797.87 767.5,803.5C 770.644,803.044 773.644,802.044 776.5,800.5C 780.075,801.994 780.409,804.161 777.5,807C 773.405,809.22 769.072,809.887 764.5,809C 760.018,803.695 758.351,797.528 759.5,790.5 Z"/></g>
<g><path style="opacity:1" fill="#e4e5f4" d="M 735.5,782.5 C 737.75,782.181 739.75,782.681 741.5,784C 736.679,788.655 732.012,793.488 727.5,798.5C 726.417,797.635 726.251,796.635 727,795.5C 728.849,790.454 731.682,786.121 735.5,782.5 Z"/></g>
<g><path style="opacity:1" fill="#f2f2f9" d="M 695.5,771.5 C 696.873,771.343 698.207,771.51 699.5,772C 695.254,775.355 692.754,779.522 692,784.5C 692.833,785.333 693.667,786.167 694.5,787C 700.325,787.149 705.992,788.149 711.5,790C 712.022,790.561 712.355,791.228 712.5,792C 709.013,798.248 703.68,801.748 696.5,802.5C 692.78,795.757 690.113,788.59 688.5,781C 689.516,776.823 691.85,773.656 695.5,771.5 Z"/></g>
<g><path style="opacity:1" fill="#959ad4" d="M 793.5,782.5 C 794.167,784.5 794.833,786.5 795.5,788.5C 795.44,789.043 795.107,789.376 794.5,789.5C 793.526,787.257 793.192,784.924 793.5,782.5 Z"/></g>
<g><path style="opacity:1" fill="#8c90d0" d="M 761.5,783.5 C 761.59,786.152 760.924,788.485 759.5,790.5C 759.41,787.848 760.076,785.515 761.5,783.5 Z"/></g>
<g><path style="opacity:1" fill="#7a80c9" d="M 750.5,790.5 C 749.432,791.434 748.099,791.768 746.5,791.5C 746.5,792.5 746.5,793.5 746.5,794.5C 745.387,793.054 745.22,791.387 746,789.5C 747.356,790.38 748.856,790.714 750.5,790.5 Z"/></g>
<g><path style="opacity:1" fill="#9ea1d8" d="M 738.5,796.5 C 738.56,795.957 738.893,795.624 739.5,795.5C 740.386,796.325 740.719,797.325 740.5,798.5C 739.833,797.833 739.167,797.167 738.5,796.5 Z"/></g>
<g><path style="opacity:1" fill="#babde3" d="M 826.5,802.5 C 827.451,803.919 827.784,805.585 827.5,807.5C 825.265,807.795 823.265,807.461 821.5,806.5C 823.167,806.5 824.833,806.5 826.5,806.5C 826.5,805.167 826.5,803.833 826.5,802.5 Z"/></g>
<g><path style="opacity:1" fill="#9fa3d8" d="M 1110.5,809.5 C 1105.73,810.889 1100.73,811.556 1095.5,811.5C 1100.27,810.111 1105.27,809.444 1110.5,809.5 Z"/></g>
<g><path style="opacity:1" fill="#6165be" d="M 1034.5,812.5 C 1030.08,813.972 1025.41,814.638 1020.5,814.5C 1024.92,813.028 1029.59,812.362 1034.5,812.5 Z"/></g>
<g><path style="opacity:1" fill="#b0b3df" d="M 1075.5,813.5 C 1072.03,814.525 1068.36,815.192 1064.5,815.5C 1067.84,813.783 1071.51,813.116 1075.5,813.5 Z"/></g>
<g><path style="opacity:1" fill="#b3b5e0" d="M 1062.5,815.5 C 1057.73,816.889 1052.73,817.556 1047.5,817.5C 1052.27,816.111 1057.27,815.444 1062.5,815.5 Z"/></g>
<g><path style="opacity:1" fill="#8387cd" d="M 983.5,817.5 C 974.374,818.988 965.041,819.655 955.5,819.5C 964.637,818.181 973.971,817.514 983.5,817.5 Z"/></g>
<g><path style="opacity:1" fill="#9fa3d8" d="M 1021.5,820.5 C 1016.73,821.889 1011.73,822.556 1006.5,822.5C 1011.27,821.111 1016.27,820.444 1021.5,820.5 Z"/></g>
<g><path style="opacity:1" fill="#787ec8" d="M 679.5,835.5 C 696.993,836.047 714.326,836.713 731.5,837.5C 716.496,837.667 701.496,837.5 686.5,837C 683.964,836.814 681.631,836.314 679.5,835.5 Z"/></g>
</svg>
