<?xml version="1.0" encoding="UTF-8"?>
<svg version="1.1" xmlns="http://www.w3.org/2000/svg" width="1039" height="965">
<path d="M0 0 C342.87 0 685.74 0 1039 0 C1039 318.45 1039 636.9 1039 965 C696.13 965 353.26 965 0 965 C0 646.55 0 328.1 0 0 Z " fill="#FEFEFE" transform="translate(0,0)"/>
<path d="M0 0 C0.89783203 0.44424316 1.79566406 0.88848633 2.72070312 1.34619141 C23.09116539 11.48946091 42.81442945 23.3005251 61 37 C61.99257813 37.7321875 62.98515625 38.464375 64.0078125 39.21875 C67.02411576 41.45538218 70.01669876 43.71955078 73 46 C73.81138428 46.6199585 73.81138428 46.6199585 74.63916016 47.25244141 C92.86089157 61.22751606 109.73392892 76.68339752 126 92.875 C126.69399902 93.56432617 127.38799805 94.25365234 128.10302734 94.96386719 C132.60504822 99.48002143 136.84663888 104.16314282 141 109 C141.9496144 110.08282684 142.90008695 111.16490193 143.8515625 112.24609375 C151.65280819 121.18962992 158.91465334 130.48227626 166 140 C166.82250244 141.09900635 166.82250244 141.09900635 167.66162109 142.22021484 C175.27084248 152.42171135 182.23983456 162.86011695 188.70898438 173.81933594 C189.95380806 175.92197685 191.21644545 178.01279424 192.484375 180.1015625 C213.66089916 215.21189427 230.46002983 253.33911225 241 293 C241.25394531 293.94004883 241.50789062 294.88009766 241.76953125 295.84863281 C246.66807124 314.11750285 250.19580772 332.31024398 253 351 C253.26731934 352.64923462 253.26731934 352.64923462 253.54003906 354.33178711 C255.06917214 364.13710473 255.65958439 373.91199317 256.125 383.8125 C256.18753967 385.10314362 256.18753967 385.10314362 256.25134277 386.41986084 C256.93283497 400.62309144 257.43321956 414.78032366 257 429 C256.9804425 429.66412903 256.96088501 430.32825806 256.94073486 431.01251221 C256.30606018 451.90809267 254.56949813 472.12679751 250.63037109 492.68457031 C250.03143843 495.83464994 249.47056383 498.98859586 248.92578125 502.1484375 C245.48150495 522.03635551 240.39201892 540.8456111 234 560 C233.70722168 560.88623047 233.41444336 561.77246094 233.11279297 562.68554688 C213.28931703 622.42245042 180.71009672 679.20935802 137.59765625 725.19140625 C135.6163975 727.33354917 133.70464701 729.49880019 131.8046875 731.7109375 C127.4443986 736.71461545 122.76429367 741.38186969 118.0625 746.0625 C117.20720703 746.92166016 116.35191406 747.78082031 115.47070312 748.66601562 C110.47522678 753.65387111 105.36447353 758.4139586 100 763 C98.79667673 764.05688796 97.59483018 765.11545983 96.39453125 766.17578125 C88.49100839 773.11317259 80.43625224 779.72311424 72 786 C71.41250977 786.44053711 70.82501953 786.88107422 70.21972656 787.33496094 C45.24515504 806.04265433 18.61099229 821.75326238 -9.25 835.75 C-9.87749146 836.06642456 -10.50498291 836.38284912 -11.15148926 836.7088623 C-17.94405358 840.12715061 -24.78071762 843.43633298 -31.734375 846.515625 C-32.86584961 847.01868164 -33.99732422 847.52173828 -35.16308594 848.04003906 C-38 849 -38 849 -41 848 C-40.41847168 847.7097998 -39.83694336 847.41959961 -39.23779297 847.12060547 C-13.38794777 834.13751945 10.90978812 818.7322363 33 800 C34.49853516 798.76056641 34.49853516 798.76056641 36.02734375 797.49609375 C50.95141344 785.1096184 65.44283626 771.80231151 78 757 C78.77472656 756.11441406 79.54945313 755.22882812 80.34765625 754.31640625 C97.4825205 734.60630406 112.52208468 713.03257496 124.90087891 690.03369141 C126.0469473 687.91313394 127.21650958 685.80653708 128.38671875 683.69921875 C144.61871885 654.09931183 155.89425368 621.93963946 163 589 C163.39226774 587.24978424 163.78545638 585.49977456 164.1796875 583.75 C166.138425 574.9261137 167.81685175 566.11054708 168.7734375 557.11376953 C168.93086874 555.64497681 169.09826197 554.17723147 169.2734375 552.71044922 C180.17412836 459.77837697 153.81999206 365.08925298 93.26171875 283.8125 C92.14216797 282.4203125 92.14216797 282.4203125 91 281 C90.24332031 280.05125 89.48664062 279.1025 88.70703125 278.125 C84.3735662 272.75478514 79.88744237 267.55585217 75.23828125 262.45703125 C73.76541193 260.84021658 72.30407575 259.212807 70.85546875 257.57421875 C62.48344641 248.11609622 53.64022362 239.16882107 44 231 C42.98590881 230.1118978 41.9729921 229.2224536 40.9609375 228.33203125 C25.92673448 215.16760272 9.78058565 203.82783967 -7 193 C-7.64727051 192.58153809 -8.29454102 192.16307617 -8.96142578 191.73193359 C-28.86034185 179.0047921 -50.40825738 168.94577103 -72.26513672 160.11181641 C-74.59549826 159.16444393 -76.91154275 158.19230656 -79.22265625 157.19921875 C-88.73864434 153.19194194 -98.49727012 150.41308592 -108.44238281 147.70703125 C-110.7805215 147.06067294 -113.10580461 146.38308399 -115.4296875 145.6875 C-139.45151721 138.5650206 -164.16184405 135.59361842 -189 133 C-189.77305481 132.91305374 -190.54610962 132.82610748 -191.34259033 132.73652649 C-197.21344812 132.10063248 -203.01843398 131.81392225 -208.921875 131.76171875 C-209.84826279 131.75201553 -210.77465057 131.74231232 -211.72911072 131.73231506 C-214.73611848 131.70740068 -217.7428992 131.69477354 -220.75 131.6875 C-221.78323395 131.68488159 -222.8164679 131.68226318 -223.88101196 131.67956543 C-249.87165768 131.67255737 -276.13333624 133.39222112 -301.49707031 139.4140625 C-304.43631446 140.1021415 -307.38518141 140.73813358 -310.3359375 141.375 C-322.39289864 144.01575793 -334.08705653 147.06833405 -345.70776367 151.22314453 C-348.52728641 152.17870118 -351.37427452 153.02231781 -354.2265625 153.875 C-394.34421764 166.1348583 -433.12589079 188.1847486 -466 214 C-466.81984375 214.639375 -467.6396875 215.27875 -468.484375 215.9375 C-543.39400514 275.10179387 -595.2914524 359.2409392 -612.375 469.125 C-615.57754168 497.35405687 -615.58670798 526.81302982 -612 555 C-611.90879883 555.75265137 -611.81759766 556.50530273 -611.72363281 557.28076172 C-611.01836147 562.89447413 -610.04337774 568.44034097 -609 574 C-608.79310547 575.13953125 -608.58621094 576.2790625 -608.37304688 577.453125 C-602.84175588 607.40529687 -593.88160032 636.36259729 -581 664 C-580.21456194 665.73034086 -579.42941347 667.46081319 -578.64453125 669.19140625 C-566.81172896 694.96009263 -551.76875572 718.90413797 -534 741 C-532.86498047 742.423125 -532.86498047 742.423125 -531.70703125 743.875 C-527.3735662 749.24521486 -522.88744237 754.44414783 -518.23828125 759.54296875 C-516.76541193 761.15978342 -515.30407575 762.787193 -513.85546875 764.42578125 C-505.48344641 773.88390378 -496.64022362 782.83117893 -487 791 C-485.98590881 791.8881022 -484.9729921 792.7775464 -483.9609375 793.66796875 C-459.11735416 815.42180411 -431.29609598 832.92217462 -402 848 C-405.93686729 849.3122891 -407.08642244 848.35851663 -410.828125 846.67578125 C-412.00922852 846.14766846 -413.19033203 845.61955566 -414.40722656 845.07543945 C-415.68853982 844.48864115 -416.96945548 843.900974 -418.25 843.3125 C-418.89771362 843.01822113 -419.54542725 842.72394226 -420.21276855 842.42074585 C-466.05378953 821.58924511 -508.40384547 794.05692738 -545.640625 760.140625 C-547.13786166 758.78220498 -548.64704408 757.4367458 -550.171875 756.109375 C-556.247055 750.78835528 -561.96920499 745.13774587 -567.6875 739.4375 C-568.49566162 738.63393066 -569.30382324 737.83036133 -570.13647461 737.00244141 C-574.96412198 732.16238874 -579.55796146 727.19439123 -584 722 C-584.94938203 720.91696942 -585.89985044 719.83488989 -586.8515625 718.75390625 C-594.65280819 709.81037008 -601.91465334 700.51772374 -609 691 C-609.54833496 690.2673291 -610.09666992 689.5346582 -610.66162109 688.77978516 C-618.27291562 678.57550923 -625.24280077 668.13424656 -631.71337891 657.171875 C-632.9438469 655.09478899 -634.19341619 653.03059083 -635.44921875 650.96875 C-659.65262483 610.95147699 -677.66827235 566.63587759 -688 521 C-688.32591608 519.6404073 -688.6527785 518.28104118 -688.98046875 516.921875 C-691.78942647 505.04072482 -693.70466135 493.04161665 -695.52880859 480.97485352 C-695.83462482 479.04409146 -696.1643358 477.11690643 -696.52197266 475.19506836 C-698.16783783 466.26682395 -698.67853177 457.36348235 -699.125 448.3125 C-699.16669312 447.49376404 -699.20838623 446.67502808 -699.25134277 445.83148193 C-700.29704978 425.08322296 -700.13026966 404.55844917 -699.125 383.8125 C-699.06632751 382.56439545 -699.06632751 382.56439545 -699.00646973 381.29107666 C-698.51506086 371.08689326 -697.63418625 361.09699455 -696 351 C-695.7609048 349.37010067 -695.52369107 347.7399233 -695.2890625 346.109375 C-693.7805247 336.07568765 -691.86884759 326.20255387 -689.54150391 316.32763672 C-688.99144644 313.96323281 -688.46856032 311.59398041 -687.94921875 309.22265625 C-683.30816097 288.43079909 -677.10719386 267.71588184 -669 248 C-668.6915918 247.24477051 -668.38318359 246.48954102 -668.06542969 245.71142578 C-655.75232786 215.7733381 -641.18078437 186.82280398 -623 160 C-622.62069336 159.43458496 -622.24138672 158.86916992 -621.85058594 158.28662109 C-609.67863426 140.16810801 -596.29329394 122.60834402 -581.4140625 106.625 C-579.51738612 104.56259461 -577.68676917 102.4733145 -575.86328125 100.34765625 C-571.32840237 95.14803585 -566.44954083 90.30370057 -561.5625 85.4375 C-560.20801758 84.0772168 -560.20801758 84.0772168 -558.82617188 82.68945312 C-553.71179072 77.58247875 -548.49618375 72.69108859 -543 68 C-541.79659863 66.94320097 -540.59475439 65.88462596 -539.39453125 64.82421875 C-531.49100839 57.88682741 -523.43625224 51.27688576 -515 45 C-514.41250977 44.55946289 -513.82501953 44.11892578 -513.21972656 43.66503906 C-445.09438679 -7.36558493 -365.5663199 -39.24277719 -281.19238281 -49.59765625 C-278.62981401 -49.92062301 -276.07702532 -50.27034194 -273.5234375 -50.65625 C-183.54369203 -63.75822579 -86.71979764 -42.61827429 0 0 Z " fill="#EA157A" transform="translate(739,68)"/>
<path d="M0 0 C1.40258057 0.27336182 1.40258057 0.27336182 2.83349609 0.55224609 C28.66942018 5.7734614 54.84538908 15.78527647 78.65527344 26.91064453 C80.86517943 27.93736262 83.08809387 28.92529743 85.3203125 29.90234375 C103.52114324 37.98898505 120.69306211 48.60839166 137 60 C137.85198975 60.58612061 137.85198975 60.58612061 138.72119141 61.18408203 C151.64946583 70.08295334 163.88640683 79.89096426 175.375 90.5859375 C177.49006789 92.53104458 179.63353275 94.41654434 181.80859375 96.29296875 C186.06735328 100.0072704 190.07946401 103.93128436 194.0625 107.9375 C194.73087891 108.60201172 195.39925781 109.26652344 196.08789062 109.95117188 C200.59714353 114.46918912 204.84390118 119.15705854 209 124 C209.85722656 124.97582031 210.71445312 125.95164062 211.59765625 126.95703125 C232.19208311 150.81523416 249.4718769 177.71070197 263.09570312 206.11767578 C263.97469055 207.94731752 264.86926072 209.76866709 265.765625 211.58984375 C276.41133927 233.6725078 284.23987096 257.19908715 290 281 C290.17772949 281.7213916 290.35545898 282.4427832 290.53857422 283.18603516 C294.343497 298.88804043 296.18191475 314.96702 298 331 C298.08808929 331.77220383 298.17617859 332.54440765 298.26693726 333.3400116 C298.87857454 339.00411546 299.17138123 344.59766462 299.203125 350.29296875 C299.21022995 351.14880554 299.2173349 352.00464233 299.22465515 352.88641357 C299.40032111 380.37340657 297.80723508 406.8406612 292.625 433.875 C292.41386063 434.98112137 292.41386063 434.98112137 292.19845581 436.10958862 C290.098996 446.94840913 287.2816064 457.46271659 284 468 C283.64856934 469.1432373 283.29713867 470.28647461 282.93505859 471.46435547 C277.72394357 488.17080048 271.45679057 504.17254543 264 520 C263.33097656 521.42868408 263.33097656 521.42868408 262.6484375 522.88623047 C250.81253736 547.94667254 235.62196361 570.9019457 218.24658203 592.44921875 C217.10076617 593.87464419 215.96957289 595.31179148 214.83984375 596.75 C202.19182428 612.6368581 187.55560684 627.93214646 172 641 C170.6078125 642.20849609 170.6078125 642.20849609 169.1875 643.44140625 C151.45993653 658.77342814 132.17940229 672.16381217 111.8984375 683.89794922 C110.62883675 684.63495768 109.36320053 685.37883672 108.1015625 686.12939453 C93.05966479 695.06618466 77.03656317 702.06012753 61 709 C60.09999268 709.41056641 59.19998535 709.82113281 58.27270508 710.24414062 C56 711 56 711 53 710 C53.94875 709.5359375 54.8975 709.071875 55.875 708.59375 C74.04364919 699.46166106 91.31700196 687.94207985 107 675 C107.55316895 674.54689453 108.10633789 674.09378906 108.67626953 673.62695312 C123.70572459 661.23752683 138.19950086 647.53374796 150 632 C150.98521381 630.76421553 151.97235145 629.52996345 152.9609375 628.296875 C171.62155393 604.78477955 185.75069066 578.42597046 196.1159668 550.31396484 C196.84998351 548.3926695 197.67563174 546.50668062 198.5234375 544.6328125 C200.67510491 539.3390276 202.09021957 533.89051076 203.5625 528.375 C204.01786133 526.72564453 204.01786133 526.72564453 204.48242188 525.04296875 C206.30942587 518.25240488 207.64769754 511.53908137 208.58569336 504.56884766 C209 502 209 502 210 500 C218.89143481 454.75582514 213.02793975 405.14701999 198 362 C197.7844043 361.35691895 197.56880859 360.71383789 197.34667969 360.05126953 C181.01777828 311.47843147 147.70140002 264.32516127 107 233 C105.71312437 231.9849038 104.42669933 230.96923621 103.140625 229.953125 C71.12147757 204.84978551 35.06049085 187.28355709 -4 176 C-5.72476563 175.49146484 -5.72476563 175.49146484 -7.484375 174.97265625 C-18.52338851 171.89599339 -29.68502039 169.7868687 -41 168 C-41.95680664 167.84611816 -42.91361328 167.69223633 -43.89941406 167.53369141 C-71.25879067 163.30309573 -100.56227089 163.17269893 -128 167 C-129.15387207 167.16072998 -129.15387207 167.16072998 -130.33105469 167.32470703 C-135.58072484 168.08461504 -140.78903111 169.01245135 -146 170 C-146.72654785 170.13100098 -147.4530957 170.26200195 -148.20166016 170.39697266 C-197.35282043 179.32079473 -244.74200931 201.93787887 -283 234 C-284.50820313 235.23169922 -284.50820313 235.23169922 -286.046875 236.48828125 C-300.25355403 248.23956215 -313.83328086 261.30053698 -325 276 C-325.98521381 277.23578447 -326.97235145 278.47003655 -327.9609375 279.703125 C-356.59372377 315.78000416 -376.1704638 359.22490881 -384.1875 404.5625 C-384.34234863 405.43479248 -384.49719727 406.30708496 -384.65673828 407.20581055 C-387.2459222 422.62962707 -388.37624453 437.87070997 -388.3125 453.5 C-388.31167419 454.36319855 -388.31084839 455.22639709 -388.30999756 456.11575317 C-388.27085709 473.99161569 -387.08389915 491.54755781 -383 509 C-382.68720448 510.44077978 -382.37730685 511.88219175 -382.0703125 513.32421875 C-379.27863768 526.27383643 -376.01657377 538.710839 -371 551 C-370.64276855 551.89477051 -370.28553711 552.78954102 -369.91748047 553.71142578 C-359.24319346 580.44179575 -346.18299523 605.57229893 -328 628 C-327.26265625 628.92941406 -326.5253125 629.85882812 -325.765625 630.81640625 C-312.86442246 646.89716047 -298.36000149 662.40879467 -282 675 C-280.71312437 676.0150962 -279.42669933 677.03076379 -278.140625 678.046875 C-264.71314322 688.57415823 -250.73414549 697.73788935 -235.71118164 705.82885742 C-234.63404907 706.41050659 -234.63404907 706.41050659 -233.53515625 707.00390625 C-232.899729 707.34236572 -232.26430176 707.6808252 -231.60961914 708.02954102 C-230 709 -230 709 -228 711 C-232.27249417 710.42717369 -235.81640224 709.40640228 -239.75390625 707.6640625 C-241.39020996 706.94210693 -241.39020996 706.94210693 -243.05957031 706.20556641 C-244.79352051 705.42318604 -244.79352051 705.42318604 -246.5625 704.625 C-247.76616211 704.08407715 -248.96982422 703.5431543 -250.20996094 702.98583984 C-300.40013978 680.27238232 -348.39525809 646.47023026 -384 604 C-384.78117187 603.10796875 -385.56234375 602.2159375 -386.3671875 601.296875 C-447.50928145 531.11431579 -476.00011044 440.51182132 -473.87896729 338.90594482 C-473.39239321 332.08595936 -472.49854863 325.33665281 -471.41015625 318.58935547 C-471.01026549 316.06480704 -470.66810199 313.53915755 -470.34375 311.00390625 C-467.47110782 289.15745159 -462.24505537 267.79362806 -455 247 C-454.71511719 246.17564453 -454.43023437 245.35128906 -454.13671875 244.50195312 C-448.06627933 227.08062356 -440.54172674 210.34343292 -432 194 C-431.64776367 193.32066406 -431.29552734 192.64132812 -430.93261719 191.94140625 C-421.14219978 173.21494446 -409.29190926 155.42065251 -396 139 C-394.99794364 137.73236672 -393.9966893 136.46409917 -392.99609375 135.1953125 C-379.26462426 117.90336752 -363.95305699 101.19620473 -347 87 C-346.07316406 86.195625 -345.14632812 85.39125 -344.19140625 84.5625 C-325.9152309 68.75329351 -305.97739409 54.98017575 -285 43 C-284.20674316 42.54657227 -283.41348633 42.09314453 -282.59619141 41.62597656 C-262.91065099 30.45703436 -242.77732705 20.84164814 -221.26269531 13.76318359 C-219.1340322 13.04520767 -217.03150701 12.28096453 -214.9296875 11.48828125 C-185.5763395 0.46997349 -154.13087222 -5.15448025 -123 -8 C-121.97656494 -8.09571289 -120.95312988 -8.19142578 -119.89868164 -8.29003906 C-79.46659825 -11.64310476 -39.65595351 -7.82508782 0 0 Z " fill="#FEB80A" transform="translate(605,215)"/>
<path d="M0 0 C1.24398056 -0.00101212 1.24398056 -0.00101212 2.51309204 -0.00204468 C17.07909902 0.0166317 31.29066992 0.91761513 45.6875 3.25 C46.8228418 3.43224121 47.95818359 3.61448242 49.12792969 3.80224609 C62.93579892 6.07445113 76.42694592 8.76680926 89.6875 13.25 C90.6667041 13.57033203 91.6459082 13.89066406 92.65478516 14.22070312 C128.40478169 25.98260675 161.68293861 43.09522728 190.6875 67.25 C191.5846875 67.96285156 192.481875 68.67570312 193.40625 69.41015625 C201.00691511 75.59059399 207.9973151 82.34499576 214.9375 89.25 C215.86014648 90.16346191 216.78279297 91.07692383 217.73339844 92.01806641 C223.80901171 98.12094904 229.37327275 104.47594565 234.6875 111.25 C235.28272461 112.00619629 235.87794922 112.76239258 236.49121094 113.54150391 C257.23542824 140.27032544 274.22297023 171.65246883 283.6875 204.25 C284.04473145 205.46598877 284.04473145 205.46598877 284.40917969 206.70654297 C291.61745193 231.63400914 294.91724829 256.8319354 294.875 282.75 C294.87406342 283.49733398 294.87312683 284.24466797 294.87216187 285.01464844 C294.83923448 297.18642846 294.50053302 309.1931055 292.6875 321.25 C292.5421582 322.21679688 292.39681641 323.18359375 292.24707031 324.1796875 C282.67408815 384.86589778 253.54396036 438.33417038 210.5625 481.625 C209.65628906 482.54063721 208.75007813 483.45627441 207.81640625 484.3996582 C201.74789225 490.4390811 195.41424899 495.95682047 188.6875 501.25 C188.00800293 501.78882813 187.32850586 502.32765625 186.62841797 502.8828125 C158.59815942 524.87430269 126.66573138 541.00220253 93 552.4375 C91.25251465 553.03630981 91.25251465 553.03630981 89.46972656 553.6472168 C88.38272461 554.00468994 87.29572266 554.36216309 86.17578125 554.73046875 C84.73005737 555.20842896 84.73005737 555.20842896 83.25512695 555.69604492 C80.6107518 556.26655811 79.20367865 556.15348127 76.6875 555.25 C77.74324219 554.75693359 77.74324219 554.75693359 78.8203125 554.25390625 C99.08630372 544.49130734 118.32250834 530.63418238 132.6875 513.25 C133.37328125 512.45207031 134.0590625 511.65414063 134.765625 510.83203125 C164.5744946 475.55125377 177.5018519 431.02846018 174.6875 385.25 C173.90378917 377.79633818 172.43444446 370.53098207 170.6875 363.25 C170.52733398 362.54891113 170.36716797 361.84782227 170.20214844 361.12548828 C163.55978057 332.29253477 148.48626844 303.52398412 126.6875 283.25 C121.6875 278.25 121.6875 278.25 120.19921875 276.5859375 C113.36158132 269.21766302 104.99004283 263.81887398 96.6875 258.25 C96.10806641 257.85748047 95.52863281 257.46496094 94.93164062 257.06054688 C86.31379205 251.27682633 77.16282203 247.08147581 67.63037109 243.07373047 C66.08321845 242.41777508 64.54890876 241.73154923 63.01953125 241.03515625 C54.34483687 237.21214935 44.91455238 235.26053706 35.6875 233.25 C34.91180664 233.08048828 34.13611328 232.91097656 33.33691406 232.73632812 C-2.43655146 225.30728444 -41.55235257 230.34522128 -74.3125 246.25 C-75.50101563 246.80558594 -76.68953125 247.36117187 -77.9140625 247.93359375 C-119.06354438 267.68716987 -150.60640859 303.39267347 -166 346.3125 C-180.16655463 390.92514154 -176.75460562 438.64300627 -155.40234375 480.46875 C-147.87203738 494.45514958 -137.95285296 508.42386862 -126.3125 519.25 C-121.3125 524.25 -121.3125 524.25 -119.82421875 525.9140625 C-108.76956522 537.82661598 -91.64772482 549.65783155 -76.3125 555.25 C-80.28030831 556.80025051 -83.06487253 555.64793709 -87.0078125 554.36328125 C-87.66407623 554.1505658 -88.32033997 553.93785034 -88.99649048 553.71868896 C-91.14844844 553.01400551 -93.2933254 552.29050262 -95.4375 551.5625 C-96.54212585 551.19111404 -96.54212585 551.19111404 -97.66906738 550.81222534 C-131.18515679 539.48513772 -161.77940663 522.42071586 -189.3125 500.25 C-189.82893066 499.8379834 -190.34536133 499.4259668 -190.87744141 499.00146484 C-199.2788186 492.24140771 -206.9838622 484.78456571 -214.625 477.1875 C-215.544021 476.27774414 -216.46304199 475.36798828 -217.40991211 474.43066406 C-223.46774709 468.34492791 -229.0127641 462.00402033 -234.3125 455.25 C-234.90780518 454.49372314 -235.50311035 453.73744629 -236.11645508 452.95825195 C-255.35098015 428.1738552 -270.59274192 400.11231069 -280.3125 370.25 C-280.63702148 369.26902344 -280.96154297 368.28804687 -281.29589844 367.27734375 C-290.26810756 339.81311676 -294.53974784 312.34127533 -294.5 283.5 C-294.49972809 282.75199127 -294.49945618 282.00398254 -294.49917603 281.23330688 C-294.48185051 270.84728161 -294.20618288 260.62852795 -292.62011719 250.34912109 C-292.28253275 248.04550922 -292.01756751 245.73942365 -291.7578125 243.42578125 C-285.98322989 194.6004968 -263.70205613 146.8332808 -232.3125 109.25 C-231.59835937 108.35152344 -230.88421875 107.45304687 -230.1484375 106.52734375 C-223.97028559 98.92723624 -217.21614746 91.93882121 -210.3125 85 C-208.94230713 83.61603027 -208.94230713 83.61603027 -207.54443359 82.20410156 C-201.44168257 76.12861931 -195.07953792 70.57237468 -188.3125 65.25 C-187.63316406 64.71133301 -186.95382812 64.17266602 -186.25390625 63.61767578 C-133.00012332 21.83372189 -67.4828051 0.0500457 0 0 Z " fill="#00ADDC" transform="translate(517.3125,385.75)"/>
<path d="M0 0 C1.23234375 0.01804687 2.4646875 0.03609375 3.734375 0.0546875 C46.18611802 1.81488172 86.89159825 24.05265351 116.01953125 54.08203125 C117.7498868 56.00689983 119.38350537 57.97846947 121 60 C121.76699219 60.94101562 122.53398438 61.88203125 123.32421875 62.8515625 C137.75862182 80.85958572 148.51200121 101.55322668 154 124 C154.18933105 124.76795898 154.37866211 125.53591797 154.57373047 126.32714844 C155.14820921 128.69390389 155.70457339 131.06388878 156.25 133.4375 C156.41346924 134.14656494 156.57693848 134.85562988 156.74536133 135.58618164 C165.81310134 177.13335736 154.28979052 220.53219635 131.859375 255.76953125 C128.13427132 261.41690023 123.88812684 266.52582282 119.34082031 271.52392578 C117.99998696 273.00001436 116.68352783 274.49812189 115.3671875 275.99609375 C110.54989855 281.42475117 105.67701921 286.47669759 100 291 C99.46697266 291.42893555 98.93394531 291.85787109 98.38476562 292.29980469 C70.65323529 314.4400589 35.68953535 328.84872467 0 330 C-0.8235498 330.02723145 -1.64709961 330.05446289 -2.49560547 330.08251953 C-50.32470025 331.44808356 -93.83576355 314.95008613 -128.74511719 282.16601562 C-132.76631205 278.30628365 -136.52581882 274.35638899 -140 270 C-140.79019531 269.01257813 -141.58039063 268.02515625 -142.39453125 267.0078125 C-169.47415074 232.73428842 -181.10722855 191.09974066 -177.7265625 147.7109375 C-172.847808 106.1954983 -151.98665046 65.24802664 -119 39 C-118.48969238 38.58314941 -117.97938477 38.16629883 -117.45361328 37.73681641 C-98.07425173 22.0091935 -76.08354428 11.31838868 -52 5 C-51.02804687 4.72285156 -50.05609375 4.44570313 -49.0546875 4.16015625 C-32.90390759 -0.26260501 -16.6242015 -0.37695153 0 0 Z " fill="#738AC8" transform="translate(527,622)"/>
<path d="M0 0 C2.701875 -0.103125 5.40375 -0.20625 8.1875 -0.3125 C9.02949951 -0.35802002 9.87149902 -0.40354004 10.73901367 -0.45043945 C14.89300133 -0.52697197 16.52888249 -0.36544629 19.92578125 2.26953125 C23.4404539 6.89619073 24.45359875 9.91029678 24.3203125 15.6796875 C23.78303444 19.57167738 22.32636099 21.8335642 20 25 C16.29515357 27.69848189 12.12872541 27.22479749 7.75 27.125 C5.1925 27.08375 2.635 27.0425 0 27 C0 18.09 0 9.18 0 0 Z " fill="#FEFAF0" transform="translate(379,275)"/>
<path d="M0 0 C2.51625 -0.103125 5.0325 -0.20625 7.625 -0.3125 C8.79603271 -0.38078003 8.79603271 -0.38078003 9.99072266 -0.45043945 C13.91839574 -0.5277166 16.33876294 -0.15656396 19.4609375 2.33203125 C23.5501886 6.62889049 23.33408209 10.59315706 23.2890625 16.265625 C22.88896865 20.05029655 21.51679356 22.19557289 19 25 C15.20548348 27.52967768 12.18802503 27.22360092 7.8125 27.125 C3.9453125 27.063125 3.9453125 27.063125 0 27 C0 18.09 0 9.18 0 0 Z " fill="#FEF9FB" transform="translate(353,74)"/>
<path d="M0 0 C2.701875 -0.103125 5.40375 -0.20625 8.1875 -0.3125 C9.02949951 -0.35802002 9.87149902 -0.40354004 10.73901367 -0.45043945 C14.9861432 -0.52868801 16.56353999 -0.33612437 20.05859375 2.35546875 C22 5 22 5 21.875 7.625 C21.58625 8.40875 21.2975 9.1925 21 10 C20.67 10.99 20.34 11.98 20 13 C20.495 13.5775 20.99 14.155 21.5 14.75 C23 17 23 17 22.9375 20.5625 C22 24 22 24 20.51953125 25.703125 C16.66866841 27.68527456 13.00637467 27.31619345 8.75 27.1875 C5.8625 27.125625 2.975 27.06375 0 27 C0 18.09 0 9.18 0 0 Z " fill="#FBFBFD" transform="translate(475,749)"/>
<path d="M0 0 C2.97 0 5.94 0 9 0 C10.65 4.95 12.3 9.9 14 15 C15.27499705 10.4386325 15.27499705 10.4386325 16.54272461 5.87524414 C17.88888889 1.11111111 17.88888889 1.11111111 19 0 C21.64 0 24.28 0 27 0 C27 8.91 27 17.82 27 27 C25.35 27 23.7 27 22 27 C21.67 21.39 21.34 15.78 21 10 C19.68 15.61 18.36 21.22 17 27 C15.02 27 13.04 27 11 27 C9.68 21.72 8.36 16.44 7 11 C6.67 16.28 6.34 21.56 6 27 C4.02 27 2.04 27 0 27 C0 18.09 0 9.18 0 0 Z " fill="#F4FBFD" transform="translate(384,479)"/>
<path d="M0 0 C3.3125 0.5 3.3125 0.5 5.3125 2.5 C5.6425 1.84 5.9725 1.18 6.3125 0.5 C7.9625 0.5 9.6125 0.5 11.3125 0.5 C11.45810195 4.22875388 11.54667043 7.95677434 11.625 11.6875 C11.66689453 12.74259766 11.70878906 13.79769531 11.75195312 14.88476562 C11.8749267 22.68129021 11.8749267 22.68129021 9.109375 26.70703125 C6.13983359 28.61068978 4.73210304 29.12916611 1.25 29 C-0.00490234 28.98453125 -0.00490234 28.98453125 -1.28515625 28.96875 C-4.18054774 28.40379556 -5.6204675 27.60044873 -7.6875 25.5 C-7.6875 24.18 -7.6875 22.86 -7.6875 21.5 C-5.3125 21.375 -5.3125 21.375 -2.6875 21.5 C-2.0275 22.16 -1.3675 22.82 -0.6875 23.5 C2.39597826 23.66681109 2.39597826 23.66681109 5.3125 23.5 C4.9825 22.18 4.6525 20.86 4.3125 19.5 C3.9825 19.83 3.6525 20.16 3.3125 20.5 C0.0625 20.9375 0.0625 20.9375 -3.6875 20.5 C-6.68803754 17.94635103 -8.23976921 16.33460422 -9.16796875 12.53125 C-9.43672582 8.75412361 -8.82677506 6.10150374 -6.625 3 C-3.6875 0.5 -3.6875 0.5 0 0 Z " fill="#EFF9FC" transform="translate(525.6875,485.5)"/>
<path d="M0 0 C2.33333333 0 4.66666667 0 7 0 C8.093125 -0.0825 9.18625 -0.165 10.3125 -0.25 C14 0 14 0 16.9375 1.3125 C19.7617602 4.99259662 19.70337434 7.80905531 19.484375 12.359375 C19 15 19 15 16.875 18.1875 C13.52749823 20.29788155 11.88447979 20.59111649 8 20 C7.01 19.34 6.02 18.68 5 18 C5 21.3 5 24.6 5 28 C3.35 28 1.7 28 0 28 C0 18.76 0 9.52 0 0 Z " fill="#F6FCFD" transform="translate(461,486)"/>
<path d="M0 0 C2.33333333 0 4.66666667 0 7 0 C8.093125 -0.103125 9.18625 -0.20625 10.3125 -0.3125 C14 0 14 0 16.9375 1.875 C19.82245211 6.24613956 20.0361864 9.90263144 19 15 C16.875 18.125 16.875 18.125 14 20 C10.79647701 20.37688506 8.88861709 20.44430855 6 19 C5.67 21.97 5.34 24.94 5 28 C3.35 28 1.7 28 0 28 C0 18.76 0 9.52 0 0 Z " fill="#F4FBFD" transform="translate(438,486)"/>
<path d="M0 0 C2.33333333 0 4.66666667 0 7 0 C8.093125 -0.0825 9.18625 -0.165 10.3125 -0.25 C14 0 14 0 16.9375 1.3125 C19.7617602 4.99259662 19.70337434 7.80905531 19.484375 12.359375 C19 15 19 15 16.875 18.1875 C13.52749823 20.29788155 11.88447979 20.59111649 8 20 C7.01 19.34 6.02 18.68 5 18 C5 21.3 5 24.6 5 28 C3.35 28 1.7 28 0 28 C0 18.76 0 9.52 0 0 Z " fill="#FEF7FA" transform="translate(616,81)"/>
<path d="M0 0 C1.65 0 3.3 0 5 0 C5 8.91 5 17.82 5 27 C2.66666667 27 0.33333333 27 -2 27 C-3.093125 27.103125 -4.18625 27.20625 -5.3125 27.3125 C-9 27 -9 27 -11.9375 25.125 C-14.8341813 20.73608894 -14.88919844 17.11708539 -14 12 C-12.4375 8.875 -12.4375 8.875 -10 7 C-5.58440935 6.45773448 -3.73255448 6.51163035 0 9 C0 6.03 0 3.06 0 0 Z " fill="#FBFBFD" transform="translate(560,749)"/>
<path d="M0 0 C1.65 0 3.3 0 5 0 C5 8.91 5 17.82 5 27 C2.66666667 27 0.33333333 27 -2 27 C-3.093125 27.103125 -4.18625 27.20625 -5.3125 27.3125 C-9 27 -9 27 -11.9375 25.125 C-14.8341813 20.73608894 -14.88919844 17.11708539 -14 12 C-12.4375 8.875 -12.4375 8.875 -10 7 C-5.58440935 6.45773448 -3.73255448 6.51163035 0 9 C0 6.03 0 3.06 0 0 Z " fill="#FEF8FB" transform="translate(472,74)"/>
<path d="M0 0 C13.81354839 -0.12790323 13.81354839 -0.12790323 18 1 C18.33 0.67 18.66 0.34 19 0 C22.41571123 -0.37952347 24.31018614 -0.47509541 27.18359375 1.50390625 C29.71581903 4.98367389 29.4393898 8.12712965 29.25 12.25 C29.23195313 12.99507812 29.21390625 13.74015625 29.1953125 14.5078125 C29.14835649 16.33909701 29.07661652 18.16971649 29 20 C27.02 20 25.04 20 23 20 C22.67 15.05 22.34 10.1 22 5 C20.68 5.33 19.36 5.66 18 6 C17.67 10.62 17.34 15.24 17 20 C15.02 20 13.04 20 11 20 C10.67 15.05 10.34 10.1 10 5 C8.68 5.33 7.36 5.66 6 6 C5.67 10.62 5.34 15.24 5 20 C3.35 20 1.7 20 0 20 C0 13.4 0 6.8 0 0 Z " fill="#FEF3F8" transform="translate(582,81)"/>
<path d="M0 0 C2.66666667 0 5.33333333 0 8 0 C8.969375 -0.020625 9.93875 -0.04125 10.9375 -0.0625 C13.53840057 -0.0094204 15.51635739 0.35609266 18 1 C18.33 0.67 18.66 0.34 19 0 C25.36341719 -0.47136424 25.36341719 -0.47136424 27.70825195 1.26489258 C29.27805558 3.37349102 29.35167549 4.40905338 29.29296875 7.01171875 C29.28330078 7.76904297 29.27363281 8.52636719 29.26367188 9.30664062 C29.23853516 10.09232422 29.21339844 10.87800781 29.1875 11.6875 C29.16719727 12.88342773 29.16719727 12.88342773 29.14648438 14.10351562 C29.11117089 16.06929967 29.05736447 18.03473582 29 20 C27.35 20 25.7 20 24 20 C24 15.05 24 10.1 24 5 C22.02 5 20.04 5 18 5 C17.67 9.95 17.34 14.9 17 20 C15.35 20 13.7 20 12 20 C11.67 15.05 11.34 10.1 11 5 C9.68 5.33 8.36 5.66 7 6 C6.67 10.62 6.34 15.24 6 20 C4.02 20 2.04 20 0 20 C0 13.4 0 6.8 0 0 Z " fill="#FEFCF6" transform="translate(572,282)"/>
<path d="M0 0 C1.98 0 3.96 0 6 0 C6.99 3.3 7.98 6.6 9 10 C9.99 6.7 10.98 3.4 12 0 C13.98 0 15.96 0 18 0 C18.99 2.97 19.98 5.94 21 9 C21.99 6.03 22.98 3.06 24 0 C25.98 0 27.96 0 30 0 C28.38808348 6.85921925 26.64031672 13.46207289 24 20 C22.02 20 20.04 20 18 20 C17.01 17.03 16.02 14.06 15 11 C14.01 13.97 13.02 16.94 12 20 C10.02 20 8.04 20 6 20 C4.99513105 17.04329782 3.99693976 14.08438423 3 11.125 C2.71382812 10.28324219 2.42765625 9.44148438 2.1328125 8.57421875 C1.86210938 7.76855469 1.59140625 6.96289062 1.3125 6.1328125 C1.06113281 5.38918457 0.80976562 4.64555664 0.55078125 3.87939453 C0 2 0 2 0 0 Z " fill="#EDF9FC" transform="translate(586,486)"/>
<path d="M0 0 C1.98 0 3.96 0 6 0 C6.99 2.97 7.98 5.94 9 9 C9.99 6.03 10.98 3.06 12 0 C14.31 0 16.62 0 19 0 C19.66 2.64 20.32 5.28 21 8 C21.433125 7.13375 21.433125 7.13375 21.875 6.25 C22.91666667 4.16666667 23.95833333 2.08333333 25 0 C26.65 0 28.3 0 30 0 C26.28571429 17.71428571 26.28571429 17.71428571 24 20 C22.00041636 20.04080783 19.99954746 20.04254356 18 20 C17.34 17.36 16.68 14.72 16 12 C14.0549 14.91765 13.54723683 16.62537285 13 20 C10.69 20 8.38 20 6 20 C4.02 13.4 2.04 6.8 0 0 Z " fill="#F5F7FB" transform="translate(494,802)"/>
<path d="M0 0 C2.87029869 1.79393668 4.49131638 2.98263276 6 6 C6.5811138 13.08958838 6.5811138 13.08958838 4.125 16.9375 C0.84328755 20.1226915 -1.40169745 20.28500258 -5.96484375 20.21875 C-8.93774757 19.89920564 -10.70998159 18.88589752 -13 17 C-15.32826375 13.78477863 -15.39711181 10.89169575 -15 7 C-11.68933924 0.06337746 -7.20314329 -1.06151585 0 0 Z " fill="#F5F6FB" transform="translate(487,802)"/>
<path d="M0 0 C2.75569447 2.18159145 4.43588747 3.87177494 6 7 C6.41204834 11.63554388 5.87454146 14.30416098 3 18 C-0.00705729 20.33882234 -3.278524 20.43380699 -7.03125 20.30078125 C-10.44366629 19.77943987 -11.85165455 18.66915647 -14 16 C-15.29947616 11.67379366 -15.52896531 8.24306847 -13.75 4.0625 C-9.82155584 -0.56745205 -5.72895173 -1.01513004 0 0 Z " fill="#EEF9FC" transform="translate(530,532)"/>
<path d="M0 0 C2.75569447 2.18159145 4.43588747 3.87177494 6 7 C6.41204834 11.63554388 5.87454146 14.30416098 3 18 C-0.00705729 20.33882234 -3.278524 20.43380699 -7.03125 20.30078125 C-10.44366629 19.77943987 -11.85165455 18.66915647 -14 16 C-15.29947616 11.67379366 -15.52896531 8.24306847 -13.75 4.0625 C-9.82155584 -0.56745205 -5.72895173 -1.01513004 0 0 Z " fill="#EEF9FC" transform="translate(579,486)"/>
<path d="M0 0 C0.77085937 -0.03738281 1.54171875 -0.07476562 2.3359375 -0.11328125 C5.6561588 0.50430258 6.68387667 1.55610488 8.625 4.3125 C9.07388571 7.17846259 9.31925198 9.6940111 9.375 12.5625 C9.40464844 13.30757813 9.43429687 14.05265625 9.46484375 14.8203125 C9.5352343 16.65046672 9.58241832 18.48148769 9.625 20.3125 C6.625 20.3125 3.625 20.3125 0.625 20.3125 C-1.1075 20.4053125 -1.1075 20.4053125 -2.875 20.5 C-6.375 20.3125 -6.375 20.3125 -8.3125 19.125 C-9.79528065 16.59555066 -9.95052523 15.19012613 -9.375 12.3125 C-5.72843718 9.2184467 -2.04077113 8.76992854 2.625 8.3125 C2.295 7.3225 1.965 6.3325 1.625 5.3125 C0.305 5.3125 -1.015 5.3125 -2.375 5.3125 C-2.705 5.9725 -3.035 6.6325 -3.375 7.3125 C-5.025 6.9825 -6.675 6.6525 -8.375 6.3125 C-6.53170435 1.17760497 -5.42829302 0.17132486 0 0 Z " fill="#EEF9FC" transform="translate(424.375,485.6875)"/>
<path d="M0 0 C2.80771042 0.56247955 3.56511683 1.26409893 5.33984375 3.46875 C5.7722168 5.36987305 5.7722168 5.36987305 5.8515625 7.48046875 C5.90473633 8.61645508 5.90473633 8.61645508 5.95898438 9.77539062 C5.98154297 10.56107422 6.00410156 11.34675781 6.02734375 12.15625 C6.07858398 13.35217773 6.07858398 13.35217773 6.13085938 14.57226562 C6.21322479 16.53726904 6.27821442 18.50298696 6.33984375 20.46875 C4.68984375 20.46875 3.03984375 20.46875 1.33984375 20.46875 C1.33984375 19.80875 1.33984375 19.14875 1.33984375 18.46875 C0.34984375 19.12875 -0.64015625 19.78875 -1.66015625 20.46875 C-4.42036621 20.84042184 -6.84868101 20.64725636 -9.66015625 20.46875 C-11.66015625 18.46875 -11.66015625 18.46875 -12.03515625 15.53125 C-11.66015625 12.46875 -11.66015625 12.46875 -10.09765625 10.65625 C-6.98219733 9.13846232 -4.09059667 8.79860004 -0.66015625 8.46875 C-0.99015625 7.47875 -1.32015625 6.48875 -1.66015625 5.46875 C-2.65015625 5.46875 -3.64015625 5.46875 -4.66015625 5.46875 C-4.99015625 6.12875 -5.32015625 6.78875 -5.66015625 7.46875 C-7.31015625 7.46875 -8.96015625 7.46875 -10.66015625 7.46875 C-10.99015625 6.80875 -11.32015625 6.14875 -11.66015625 5.46875 C-8.64826041 -0.00742425 -5.76140612 -0.06931015 0 0 Z " fill="#EFF9FC" transform="translate(484.66015625,531.53125)"/>
<path d="M0 0 C2.80771042 0.56247955 3.56511683 1.26409893 5.33984375 3.46875 C5.7722168 5.36987305 5.7722168 5.36987305 5.8515625 7.48046875 C5.90473633 8.61645508 5.90473633 8.61645508 5.95898438 9.77539062 C5.98154297 10.56107422 6.00410156 11.34675781 6.02734375 12.15625 C6.07858398 13.35217773 6.07858398 13.35217773 6.13085938 14.57226562 C6.21322479 16.53726904 6.27821442 18.50298696 6.33984375 20.46875 C4.68984375 20.46875 3.03984375 20.46875 1.33984375 20.46875 C1.33984375 19.80875 1.33984375 19.14875 1.33984375 18.46875 C0.34984375 19.12875 -0.64015625 19.78875 -1.66015625 20.46875 C-4.42036621 20.84042184 -6.84868101 20.64725636 -9.66015625 20.46875 C-11.66015625 18.46875 -11.66015625 18.46875 -12.03515625 15.53125 C-11.66015625 12.46875 -11.66015625 12.46875 -10.09765625 10.65625 C-6.98219733 9.13846232 -4.09059667 8.79860004 -0.66015625 8.46875 C-0.99015625 7.47875 -1.32015625 6.48875 -1.66015625 5.46875 C-2.65015625 5.46875 -3.64015625 5.46875 -4.66015625 5.46875 C-4.99015625 6.12875 -5.32015625 6.78875 -5.66015625 7.46875 C-7.31015625 7.46875 -8.96015625 7.46875 -10.66015625 7.46875 C-10.99015625 6.80875 -11.32015625 6.14875 -11.66015625 5.46875 C-8.64826041 -0.00742425 -5.76140612 -0.06931015 0 0 Z " fill="#FEFAEF" transform="translate(472.66015625,281.53125)"/>
<path d="M0 0 C1.65 0 3.3 0 5 0 C5.33 2.64 5.66 5.28 6 8 C6.66 7.67 7.32 7.34 8 7 C11.43193041 6.62696409 13.29683777 6.51484326 16.1796875 8.50390625 C18.7169394 11.9830993 18.43947803 15.12520896 18.25 19.25 C18.23195313 19.99507812 18.21390625 20.74015625 18.1953125 21.5078125 C18.14835649 23.33909701 18.07661652 25.16971649 18 27 C16.02 27 14.04 27 12 27 C11.67 22.05 11.34 17.1 11 12 C9.35 12.33 7.7 12.66 6 13 C5.67 17.62 5.34 22.24 5 27 C3.35 27 1.7 27 0 27 C0 18.09 0 9.18 0 0 Z " fill="#FEFEFE" transform="translate(506,74)"/>
<path d="M0 0 C1.98 0 3.96 0 6 0 C6.50559908 1.43554025 7.0042749 2.8735202 7.5 4.3125 C7.7784375 5.11300781 8.056875 5.91351562 8.34375 6.73828125 C9 9 9 9 9 12 C9.66 12 10.32 12 11 12 C11.13277344 11.38511719 11.26554687 10.77023437 11.40234375 10.13671875 C11.66724609 8.92435547 11.66724609 8.92435547 11.9375 7.6875 C12.11152344 6.88699219 12.28554688 6.08648438 12.46484375 5.26171875 C13 3 13 3 14 0 C15.98 0 17.96 0 20 0 C18.45152306 6.53348605 16.44006665 12.81445056 14 19.0625 C13.7510498 19.71742432 13.50209961 20.37234863 13.24560547 21.04711914 C11.86116563 24.50640545 11.18611253 25.87592498 8 28 C5.66800612 28.07905064 3.33167378 28.08798769 1 28 C1 26.68 1 25.36 1 24 C2.65 23.34 4.3 22.68 6 22 C5.39956447 17.43807028 4.17207981 13.56740945 2.4375 9.3125 C0 3.32577904 0 3.32577904 0 0 Z " fill="#EFFAFC" transform="translate(493,532)"/>
<path d="M0 0 C3.46145669 0.86536417 4.94931405 2.62635769 6.9375 5.484375 C6.9375 7.464375 6.9375 9.444375 6.9375 11.484375 C2.9775 11.484375 -0.9825 11.484375 -5.0625 11.484375 C-4.4025 12.804375 -3.7425 14.124375 -3.0625 15.484375 C-1.78375 15.278125 -0.505 15.071875 0.8125 14.859375 C2.9921875 14.5078125 2.9921875 14.5078125 4.9375 14.484375 C5.5975 15.144375 6.2575 15.804375 6.9375 16.484375 C5.19644589 18.90671115 3.81220667 20.29996856 0.84375 20.92578125 C-3.29299119 21.13951288 -5.53934032 20.80467685 -9.125 18.609375 C-11.85358983 14.20842366 -12.071803 10.53089 -11.0625 5.484375 C-8.13139383 0.90452161 -5.26103352 -0.35870683 0 0 Z " fill="#F1FAFD" transform="translate(628.0625,485.515625)"/>
<path d="M0 0 C3.46145669 0.86536417 4.94931405 2.62635769 6.9375 5.484375 C6.9375 7.464375 6.9375 9.444375 6.9375 11.484375 C2.9775 11.484375 -0.9825 11.484375 -5.0625 11.484375 C-4.4025 12.804375 -3.7425 14.124375 -3.0625 15.484375 C-1.78375 15.278125 -0.505 15.071875 0.8125 14.859375 C2.9921875 14.5078125 2.9921875 14.5078125 4.9375 14.484375 C5.5975 15.144375 6.2575 15.804375 6.9375 16.484375 C5.19644589 18.90671115 3.81220667 20.29996856 0.84375 20.92578125 C-3.29299119 21.13951288 -5.53934032 20.80467685 -9.125 18.609375 C-11.85358983 14.20842366 -12.071803 10.53089 -11.0625 5.484375 C-8.13139383 0.90452161 -5.26103352 -0.35870683 0 0 Z " fill="#FEFBF2" transform="translate(627.0625,281.515625)"/>
<path d="M0 0 C3.46145669 0.86536417 4.94931405 2.62635769 6.9375 5.484375 C6.9375 7.464375 6.9375 9.444375 6.9375 11.484375 C2.9775 11.484375 -0.9825 11.484375 -5.0625 11.484375 C-4.4025 12.804375 -3.7425 14.124375 -3.0625 15.484375 C-1.78375 15.278125 -0.505 15.071875 0.8125 14.859375 C2.9921875 14.5078125 2.9921875 14.5078125 4.9375 14.484375 C5.5975 15.144375 6.2575 15.804375 6.9375 16.484375 C5.19644589 18.90671115 3.81220667 20.29996856 0.84375 20.92578125 C-3.29299119 21.13951288 -5.53934032 20.80467685 -9.125 18.609375 C-11.85358983 14.20842366 -12.071803 10.53089 -11.0625 5.484375 C-8.13139383 0.90452161 -5.26103352 -0.35870683 0 0 Z " fill="#FEFBF2" transform="translate(561.0625,281.515625)"/>
<path d="M0 0 C3.46145669 0.86536417 4.94931405 2.62635769 6.9375 5.484375 C6.9375 7.464375 6.9375 9.444375 6.9375 11.484375 C2.9775 11.484375 -0.9825 11.484375 -5.0625 11.484375 C-4.4025 12.804375 -3.7425 14.124375 -3.0625 15.484375 C-1.78375 15.278125 -0.505 15.071875 0.8125 14.859375 C2.9921875 14.5078125 2.9921875 14.5078125 4.9375 14.484375 C5.5975 15.144375 6.2575 15.804375 6.9375 16.484375 C5.19644589 18.90671115 3.81220667 20.29996856 0.84375 20.92578125 C-3.29299119 21.13951288 -5.53934032 20.80467685 -9.125 18.609375 C-11.85358983 14.20842366 -12.071803 10.53089 -11.0625 5.484375 C-8.13139383 0.90452161 -5.26103352 -0.35870683 0 0 Z " fill="#FDF2F8" transform="translate(424.0625,80.515625)"/>
<path d="M0 0 C3.46145669 0.86536417 4.94931405 2.62635769 6.9375 5.484375 C6.9375 7.464375 6.9375 9.444375 6.9375 11.484375 C2.9775 11.484375 -0.9825 11.484375 -5.0625 11.484375 C-4.4025 12.804375 -3.7425 14.124375 -3.0625 15.484375 C-1.78375 15.278125 -0.505 15.071875 0.8125 14.859375 C2.9921875 14.5078125 2.9921875 14.5078125 4.9375 14.484375 C5.5975 15.144375 6.2575 15.804375 6.9375 16.484375 C5.19644589 18.90671115 3.81220667 20.29996856 0.84375 20.92578125 C-3.29299119 21.13951288 -5.53934032 20.80467685 -9.125 18.609375 C-11.85358983 14.20842366 -12.071803 10.53089 -11.0625 5.484375 C-8.13139383 0.90452161 -5.26103352 -0.35870683 0 0 Z " fill="#FDF2F8" transform="translate(390.0625,80.515625)"/>
<path d="M0 0 C2.42896745 0.54344602 3.35375548 1.29835252 5.0078125 3.13671875 C7.0078125 6.44921875 7.0078125 6.44921875 7.0078125 11.44921875 C2.7178125 11.44921875 -1.5721875 11.44921875 -5.9921875 11.44921875 C-5.3321875 12.76921875 -4.6721875 14.08921875 -3.9921875 15.44921875 C0.4628125 14.95421875 0.4628125 14.95421875 5.0078125 14.44921875 C5.0078125 15.76921875 5.0078125 17.08921875 5.0078125 18.44921875 C1.29501632 20.9244162 -1.68921845 21.0950835 -5.9921875 20.44921875 C-8.9296875 19.01171875 -8.9296875 19.01171875 -10.9921875 16.44921875 C-12.29166366 12.12301241 -12.52115281 8.69228722 -10.7421875 4.51171875 C-7.56817377 0.77091685 -4.87409949 -0.11690645 0 0 Z " fill="#FDF3F8" transform="translate(570.9921875,80.55078125)"/>
<path d="M0 0 C2.875 1.5625 2.875 1.5625 5 4 C5.8125 7.75 5.8125 7.75 6 11 C1.71 11 -2.58 11 -7 11 C-6.34 12.32 -5.68 13.64 -5 15 C-0.545 14.505 -0.545 14.505 4 14 C4 15.32 4 16.64 4 18 C0.28720382 20.47519745 -2.69703095 20.64586475 -7 20 C-9.9375 18.5625 -9.9375 18.5625 -12 16 C-13.29947616 11.67379366 -13.52896531 8.24306847 -11.75 4.0625 C-8.15680906 -0.17233218 -5.36625519 -0.55512985 0 0 Z " fill="#F8F9FC" transform="translate(538,802)"/>
<path d="M0 0 C2.875 1.5625 2.875 1.5625 5 4 C5.8125 7.75 5.8125 7.75 6 11 C1.71 11 -2.58 11 -7 11 C-6.34 12.32 -5.68 13.64 -5 15 C-0.545 14.505 -0.545 14.505 4 14 C4 15.32 4 16.64 4 18 C0.28720382 20.47519745 -2.69703095 20.64586475 -7 20 C-9.9375 18.5625 -9.9375 18.5625 -12 16 C-13.29947616 11.67379366 -13.52896531 8.24306847 -11.75 4.0625 C-8.15680906 -0.17233218 -5.36625519 -0.55512985 0 0 Z " fill="#FFFBF3" transform="translate(518,282)"/>
<path d="M0 0 C2.875 1.5625 2.875 1.5625 5 4 C5.8125 7.75 5.8125 7.75 6 11 C1.71 11 -2.58 11 -7 11 C-6.34 12.32 -5.68 13.64 -5 15 C-0.545 14.505 -0.545 14.505 4 14 C4 15.32 4 16.64 4 18 C0.28720382 20.47519745 -2.69703095 20.64586475 -7 20 C-9.9375 18.5625 -9.9375 18.5625 -12 16 C-13.29947616 11.67379366 -13.52896531 8.24306847 -11.75 4.0625 C-8.15680906 -0.17233218 -5.36625519 -0.55512985 0 0 Z " fill="#FFFBF3" transform="translate(452,282)"/>
<path d="M0 0 C2.875 1.5625 2.875 1.5625 5 4 C5.8125 7.75 5.8125 7.75 6 11 C1.71 11 -2.58 11 -7 11 C-6.34 12.32 -5.68 13.64 -5 15 C-0.545 14.505 -0.545 14.505 4 14 C4 15.32 4 16.64 4 18 C0.28720382 20.47519745 -2.69703095 20.64586475 -7 20 C-9.9375 18.5625 -9.9375 18.5625 -12 16 C-13.29947616 11.67379366 -13.52896531 8.24306847 -11.75 4.0625 C-8.15680906 -0.17233218 -5.36625519 -0.55512985 0 0 Z " fill="#FFFBF3" transform="translate(418,282)"/>
<path d="M0 0 C3.46145669 0.86536417 4.94931405 2.62635769 6.9375 5.484375 C6.9375 7.464375 6.9375 9.444375 6.9375 11.484375 C2.6475 11.484375 -1.6425 11.484375 -6.0625 11.484375 C-5.7325 12.804375 -5.4025 14.124375 -5.0625 15.484375 C-3.39638095 15.527096 -1.72867115 15.52501332 -0.0625 15.484375 C0.2675 15.154375 0.5975 14.824375 0.9375 14.484375 C2.60367115 14.44373668 4.27138095 14.441654 5.9375 14.484375 C5.9375 17.484375 5.9375 17.484375 4.4375 19.171875 C0.92894048 21.01386875 -2.23773538 21.25690172 -6.0625 20.484375 C-9.0625 18.609375 -9.0625 18.609375 -11.0625 15.484375 C-12.0776866 10.40844201 -11.87239899 6.74984217 -9.0625 2.359375 C-5.74695285 0.28715803 -3.84503359 -0.26216138 0 0 Z " fill="#FDF3F8" transform="translate(675.0625,80.515625)"/>
<path d="M0 0 C3.46145669 0.86536417 4.94931405 2.62635769 6.9375 5.484375 C6.9375 7.464375 6.9375 9.444375 6.9375 11.484375 C2.6475 11.484375 -1.6425 11.484375 -6.0625 11.484375 C-5.7325 12.804375 -5.4025 14.124375 -5.0625 15.484375 C-3.39638095 15.527096 -1.72867115 15.52501332 -0.0625 15.484375 C0.2675 15.154375 0.5975 14.824375 0.9375 14.484375 C2.60367115 14.44373668 4.27138095 14.441654 5.9375 14.484375 C5.9375 17.484375 5.9375 17.484375 4.4375 19.171875 C0.92894048 21.01386875 -2.23773538 21.25690172 -6.0625 20.484375 C-9.0625 18.609375 -9.0625 18.609375 -11.0625 15.484375 C-12.0776866 10.40844201 -11.87239899 6.74984217 -9.0625 2.359375 C-5.74695285 0.28715803 -3.84503359 -0.26216138 0 0 Z " fill="#FDF3F8" transform="translate(539.0625,80.515625)"/>
<path d="M0 0 C2.38671875 0.37109375 2.38671875 0.37109375 5.01171875 2.37109375 C5.69234375 3.36109375 5.69234375 3.36109375 6.38671875 4.37109375 C5.72671875 5.03109375 5.06671875 5.69109375 4.38671875 6.37109375 C2.22265625 6.34765625 2.22265625 6.34765625 -0.23828125 5.99609375 C-1.05554688 5.88523437 -1.8728125 5.774375 -2.71484375 5.66015625 C-3.65457031 5.51707031 -3.65457031 5.51707031 -4.61328125 5.37109375 C-2.04986518 6.70655996 0.31016836 7.68412752 3.07421875 8.62109375 C4.16734375 9.19859375 5.26046875 9.77609375 6.38671875 10.37109375 C7.32421875 13.55859375 7.32421875 13.55859375 7.38671875 16.37109375 C4.37648631 19.47843047 2.14502515 20.70047713 -2.11328125 20.87109375 C-6.37158765 20.70047713 -8.60304881 19.47843047 -11.61328125 16.37109375 C-11.28328125 15.38109375 -10.95328125 14.39109375 -10.61328125 13.37109375 C-8.96328125 13.37109375 -7.31328125 13.37109375 -5.61328125 13.37109375 C-5.61328125 14.03109375 -5.61328125 14.69109375 -5.61328125 15.37109375 C-3.30328125 15.37109375 -0.99328125 15.37109375 1.38671875 15.37109375 C1.38671875 14.71109375 1.38671875 14.05109375 1.38671875 13.37109375 C-0.19109375 13.21640625 -0.19109375 13.21640625 -1.80078125 13.05859375 C-5.56835097 12.37919593 -7.7447611 11.89191448 -10.61328125 9.37109375 C-11.11328125 6.37109375 -11.11328125 6.37109375 -10.61328125 3.37109375 C-7.71890617 -0.55896826 -4.54968177 -0.11291181 0 0 Z " fill="#F5F6FB" transform="translate(572.61328125,801.62890625)"/>
<path d="M0 0 C2.625 2.5 2.625 2.5 4 5 C3 6 3 6 0.8125 6.1875 C-2.39035942 5.97397604 -5.00198135 5.11554182 -8 4 C-7.18727401 6.18371009 -7.18727401 6.18371009 -5.00390625 6.78125 C-4.19824219 7.0184375 -3.39257812 7.255625 -2.5625 7.5 C1.78359909 8.78359909 1.78359909 8.78359909 4 11 C4.42151163 14.30184112 4.62848726 16.18023401 2.5625 18.875 C-1.28857445 20.56571561 -4.86454843 20.6990532 -9 20 C-12.0625 18 -12.0625 18 -14 16 C-13.67 15.01 -13.34 14.02 -13 13 C-11.35 13 -9.7 13 -8 13 C-8 13.66 -8 14.32 -8 15 C-5.69 15 -3.38 15 -1 15 C-1 14.34 -1 13.68 -1 13 C-2.5778125 12.8453125 -2.5778125 12.8453125 -4.1875 12.6875 C-7.94743097 12.00947966 -10.06847441 11.41419755 -13 9 C-14.0625 6.5625 -14.0625 6.5625 -14 4 C-11.00979887 -1.2684496 -5.40659702 -1.08670804 0 0 Z " fill="#FEFAEF" transform="translate(651,282)"/>
<path d="M0 0 C1.98 0 3.96 0 6 0 C6.33 4.95 6.66 9.9 7 15 C8.65 15 10.3 15 12 15 C12.33 10.05 12.66 5.1 13 0 C14.65 0 16.3 0 18 0 C18 6.6 18 13.2 18 20 C15.33333333 20 12.66666667 20 10 20 C8.2675 20.0928125 8.2675 20.0928125 6.5 20.1875 C3 20 3 20 1.29956055 18.73901367 C-0.27831952 16.6275653 -0.35182155 15.59742193 -0.29296875 12.98828125 C-0.28330078 12.23095703 -0.27363281 11.47363281 -0.26367188 10.69335938 C-0.23853516 9.90767578 -0.21339844 9.12199219 -0.1875 8.3125 C-0.17396484 7.51521484 -0.16042969 6.71792969 -0.14648438 5.89648438 C-0.11117089 3.93070033 -0.05736447 1.96526418 0 0 Z " fill="#FAFBFD" transform="translate(502,756)"/>
<path d="M0 0 C1.65 0 3.3 0 5 0 C5.33 4.62 5.66 9.24 6 14 C7.32 14.33 8.64 14.66 10 15 C11.94090826 13.05909174 11.39919435 9.52706098 11.5625 6.9375 C11.64628906 5.64714844 11.73007812 4.35679687 11.81640625 3.02734375 C11.87699219 2.02832031 11.93757812 1.02929688 12 0 C13.98 0 15.96 0 18 0 C18 6.6 18 13.2 18 20 C15.33333333 20 12.66666667 20 10 20 C8.2675 20.0928125 8.2675 20.0928125 6.5 20.1875 C3 20 3 20 1.29956055 18.73901367 C-0.27831952 16.6275653 -0.35182155 15.59742193 -0.29296875 12.98828125 C-0.28330078 12.23095703 -0.27363281 11.47363281 -0.26367188 10.69335938 C-0.23853516 9.90767578 -0.21339844 9.12199219 -0.1875 8.3125 C-0.17396484 7.51521484 -0.16042969 6.71792969 -0.14648438 5.89648438 C-0.11117089 3.93070033 -0.05736447 1.96526418 0 0 Z " fill="#F4FBFD" transform="translate(540,532)"/>
<path d="M0 0 C2.66666667 0 5.33333333 0 8 0 C9.7325 -0.0928125 9.7325 -0.0928125 11.5 -0.1875 C15 0 15 0 16.70043945 1.26098633 C18.27831952 3.3724347 18.35182155 4.40257807 18.29296875 7.01171875 C18.28330078 7.76904297 18.27363281 8.52636719 18.26367188 9.30664062 C18.23853516 10.09232422 18.21339844 10.87800781 18.1875 11.6875 C18.16719727 12.88342773 18.16719727 12.88342773 18.14648438 14.10351562 C18.11117089 16.06929967 18.05736447 18.03473582 18 20 C16.35 20 14.7 20 13 20 C12.67 15.38 12.34 10.76 12 6 C10.68 5.67 9.36 5.34 8 5 C6.05909174 6.94090826 6.60080565 10.47293902 6.4375 13.0625 C6.35371094 14.35285156 6.26992188 15.64320313 6.18359375 16.97265625 C6.12300781 17.97167969 6.06242187 18.97070312 6 20 C4.02 20 2.04 20 0 20 C0 13.4 0 6.8 0 0 Z " fill="#F4FBFD" transform="translate(495,486)"/>
<path d="M0 0 C2.66666667 0 5.33333333 0 8 0 C9.7325 -0.0928125 9.7325 -0.0928125 11.5 -0.1875 C15 0 15 0 16.70043945 1.26098633 C18.27831952 3.3724347 18.35182155 4.40257807 18.29296875 7.01171875 C18.28330078 7.76904297 18.27363281 8.52636719 18.26367188 9.30664062 C18.23853516 10.09232422 18.21339844 10.87800781 18.1875 11.6875 C18.16719727 12.88342773 18.16719727 12.88342773 18.14648438 14.10351562 C18.11117089 16.06929967 18.05736447 18.03473582 18 20 C16.35 20 14.7 20 13 20 C12.67 15.38 12.34 10.76 12 6 C10.68 5.67 9.36 5.34 8 5 C6.05909174 6.94090826 6.60080565 10.47293902 6.4375 13.0625 C6.35371094 14.35285156 6.26992188 15.64320313 6.18359375 16.97265625 C6.12300781 17.97167969 6.06242188 18.97070312 6 20 C4.02 20 2.04 20 0 20 C0 13.4 0 6.8 0 0 Z " fill="#FFFCF5" transform="translate(528,282)"/>
<path d="M0 0 C2.33333333 0 4.66666667 0 7 0 C8.670625 -0.12375 8.670625 -0.12375 10.375 -0.25 C14 0 14 0 16.2109375 1.5 C18.70608067 4.98666295 18.43884822 8.13891956 18.25 12.25 C18.23195313 12.99507812 18.21390625 13.74015625 18.1953125 14.5078125 C18.14835649 16.33909701 18.07661652 18.16971649 18 20 C16.02 20 14.04 20 12 20 C11.67 15.05 11.34 10.1 11 5 C9.35 5.33 7.7 5.66 6 6 C5.67 10.62 5.34 15.24 5 20 C3.35 20 1.7 20 0 20 C0 13.4 0 6.8 0 0 Z " fill="#FDEFF6" transform="translate(436,81)"/>
<path d="M0 0 C8.11111111 0 8.11111111 0 11 2 C12.29376578 4.58753156 12.16832397 6.54958985 12.1875 9.4375 C12.20167969 10.40558594 12.21585937 11.37367187 12.23046875 12.37109375 C12 15 12 15 10 18 C7 19 7 19 0 19 C0 12.73 0 6.46 0 0 Z " fill="#EB2080" transform="translate(358,78)"/>
<path d="M0 0 C0 1.32 0 2.64 0 4 C-1.65 4 -3.3 4 -5 4 C-5 4.99 -5 5.98 -5 7 C-3.68 7 -2.36 7 -1 7 C-1 8.32 -1 9.64 -1 11 C-2.32 11 -3.64 11 -5 11 C-5 16.28 -5 21.56 -5 27 C-6.98 27 -8.96 27 -11 27 C-11 21.72 -11 16.44 -11 11 C-11.99 11 -12.98 11 -14 11 C-14 9.68 -14 8.36 -14 7 C-13.01 7 -12.02 7 -11 7 C-10.87625 6.030625 -10.7525 5.06125 -10.625 4.0625 C-10.41875 3.051875 -10.2125 2.04125 -10 1 C-6.78548731 -0.60725635 -3.56387464 -0.05748185 0 0 Z " fill="#FDF2F7" transform="translate(413,74)"/>
<path d="M0 0 C9 1 9 1 11.0625 2.5625 C12.81422243 7.11697832 12.45710441 11.34739175 11.1875 15.9375 C10 18 10 18 7 19 C4.69 19 2.38 19 0 19 C0 12.73 0 6.46 0 0 Z " fill="#FEB90F" transform="translate(385,279)"/>
<path d="M0 0 C0 2.31 0 4.62 0 7 C1.32 7 2.64 7 4 7 C4 8.32 4 9.64 4 11 C2.68 11 1.36 11 0 11 C0 14.96 0 18.92 0 23 C1.32 22.67 2.64 22.34 4 22 C4 23.65 4 25.3 4 27 C2.72125 27.061875 1.4425 27.12375 0.125 27.1875 C-0.95394531 27.23970703 -0.95394531 27.23970703 -2.0546875 27.29296875 C-2.69664062 27.19628906 -3.33859375 27.09960938 -4 27 C-6.42130331 23.36804504 -6.21022785 21.61650652 -6.125 17.3125 C-6.09792969 15.54326172 -6.09792969 15.54326172 -6.0703125 13.73828125 C-6.04710937 12.83464844 -6.02390625 11.93101562 -6 11 C-6.66 11 -7.32 11 -8 11 C-8 9.68 -8 8.36 -8 7 C-7.34 7 -6.68 7 -6 7 C-5.896875 6.21625 -5.79375 5.4325 -5.6875 4.625 C-4.82572663 1.33459258 -3.53157582 0 0 0 Z " fill="#F6F7FB" transform="translate(467,795)"/>
<path d="M0 0 C0 2.31 0 4.62 0 7 C1.32 7 2.64 7 4 7 C4 8.32 4 9.64 4 11 C2.68 11 1.36 11 0 11 C0 14.96 0 18.92 0 23 C1.32 22.67 2.64 22.34 4 22 C4 23.65 4 25.3 4 27 C2.72125 27.061875 1.4425 27.12375 0.125 27.1875 C-0.95394531 27.23970703 -0.95394531 27.23970703 -2.0546875 27.29296875 C-2.69664062 27.19628906 -3.33859375 27.09960938 -4 27 C-6.42130331 23.36804504 -6.21022785 21.61650652 -6.125 17.3125 C-6.09792969 15.54326172 -6.09792969 15.54326172 -6.0703125 13.73828125 C-6.04710937 12.83464844 -6.02390625 11.93101563 -6 11 C-6.66 11 -7.32 11 -8 11 C-8 9.68 -8 8.36 -8 7 C-7.34 7 -6.68 7 -6 7 C-5.896875 6.21625 -5.79375 5.4325 -5.6875 4.625 C-4.82572663 1.33459258 -3.53157582 0 0 0 Z " fill="#FDF0F6" transform="translate(499,74)"/>
<path d="M0 0 C0 2.31 0 4.62 0 7 C1.32 7 2.64 7 4 7 C4 8.32 4 9.64 4 11 C2.68 11 1.36 11 0 11 C0 14.96 0 18.92 0 23 C1.32 23 2.64 23 4 23 C4 24.32 4 25.64 4 27 C-2.42821782 27.36386139 -2.42821782 27.36386139 -4.71875 25.90625 C-6.63271296 23.05864657 -6.28800847 20.69628509 -6.1875 17.3125 C-6.16042969 16.13300781 -6.13335938 14.95351563 -6.10546875 13.73828125 C-6.07066406 12.83464844 -6.03585937 11.93101562 -6 11 C-6.66 11 -7.32 11 -8 11 C-8 9.68 -8 8.36 -8 7 C-7.34 7 -6.68 7 -6 7 C-5.896875 6.21625 -5.79375 5.4325 -5.6875 4.625 C-4.82572663 1.33459258 -3.53157582 0 0 0 Z " fill="#F1FAFD" transform="translate(569,525)"/>
<path d="M0 0 C2.01822917 0.06510417 4.03645833 0.13020833 6.0546875 0.1953125 C6.0546875 1.5153125 6.0546875 2.8353125 6.0546875 4.1953125 C5.4153125 4.3190625 4.7759375 4.4428125 4.1171875 4.5703125 C3.4365625 4.7765625 2.7559375 4.9828125 2.0546875 5.1953125 C1.7246875 5.8553125 1.3946875 6.5153125 1.0546875 7.1953125 C2.3746875 7.1953125 3.6946875 7.1953125 5.0546875 7.1953125 C5.0546875 8.5153125 5.0546875 9.8353125 5.0546875 11.1953125 C3.7346875 11.1953125 2.4146875 11.1953125 1.0546875 11.1953125 C1.0546875 16.4753125 1.0546875 21.7553125 1.0546875 27.1953125 C-0.5953125 27.1953125 -2.2453125 27.1953125 -3.9453125 27.1953125 C-3.9453125 21.9153125 -3.9453125 16.6353125 -3.9453125 11.1953125 C-4.9353125 11.1953125 -5.9253125 11.1953125 -6.9453125 11.1953125 C-6.9453125 9.8753125 -6.9453125 8.5553125 -6.9453125 7.1953125 C-5.9553125 7.1953125 -4.9653125 7.1953125 -3.9453125 7.1953125 C-4.0071875 6.0196875 -4.0071875 6.0196875 -4.0703125 4.8203125 C-3.9192653 1.64832125 -3.30925083 0.3322541 0 0 Z " fill="#FFFEFC" transform="translate(432.9453125,274.8046875)"/>
<path d="M0 0 C0 2.31 0 4.62 0 7 C1.32 7 2.64 7 4 7 C4 8.32 4 9.64 4 11 C2.68 11 1.36 11 0 11 C0 14.96 0 18.92 0 23 C1.32 22.67 2.64 22.34 4 22 C4 23.65 4 25.3 4 27 C0.625 27.125 0.625 27.125 -3 27 C-5 25 -5 25 -5.1953125 21.7421875 C-5.17210937 20.46601563 -5.14890625 19.18984375 -5.125 17.875 C-5.10695313 16.59367187 -5.08890625 15.31234375 -5.0703125 13.9921875 C-5.04710937 13.00476563 -5.02390625 12.01734375 -5 11 C-5.99 11 -6.98 11 -8 11 C-8 9.68 -8 8.36 -8 7 C-7.01 7 -6.02 7 -5 7 C-5 5.35 -5 3.7 -5 2 C-1.125 0 -1.125 0 0 0 Z " fill="#FAFDFE" transform="translate(558,479)"/>
<path d="M0 0 C0 2.31 0 4.62 0 7 C1.32 7 2.64 7 4 7 C4 8.32 4 9.64 4 11 C2.68 11 1.36 11 0 11 C0 14.96 0 18.92 0 23 C1.32 22.67 2.64 22.34 4 22 C4 23.65 4 25.3 4 27 C0.625 27.125 0.625 27.125 -3 27 C-5 25 -5 25 -5.1953125 21.7421875 C-5.17210937 20.46601563 -5.14890625 19.18984375 -5.125 17.875 C-5.10695313 16.59367187 -5.08890625 15.31234375 -5.0703125 13.9921875 C-5.04710937 13.00476563 -5.02390625 12.01734375 -5 11 C-5.99 11 -6.98 11 -8 11 C-8 9.68 -8 8.36 -8 7 C-7.01 7 -6.02 7 -5 7 C-5 5.35 -5 3.7 -5 2 C-1.125 0 -1.125 0 0 0 Z " fill="#FFFDFA" transform="translate(489,275)"/>
<path d="M0 0 C1.98 0 3.96 0 6 0 C6 8.91 6 17.82 6 27 C4.02 27 2.04 27 0 27 C0 18.09 0 9.18 0 0 Z " fill="#F4F6FA" transform="translate(536,749)"/>
<path d="M0 0 C1.98 0 3.96 0 6 0 C6 8.91 6 17.82 6 27 C4.02 27 2.04 27 0 27 C0 18.09 0 9.18 0 0 Z " fill="#EBF8FC" transform="translate(463,525)"/>
<path d="M0 0 C4.29 0 8.58 0 13 0 C12.67 1.65 12.34 3.3 12 5 C11.360625 5.12375 10.72125 5.2475 10.0625 5.375 C9.381875 5.58125 8.70125 5.7875 8 6 C6.64908472 8.70183055 6.66141942 11.11808206 6.4375 14.125 C6.35371094 15.22070312 6.26992188 16.31640625 6.18359375 17.4453125 C6.12300781 18.28835938 6.06242188 19.13140625 6 20 C4.02 20 2.04 20 0 20 C0 13.4 0 6.8 0 0 Z " fill="#EDF9FC" transform="translate(639,486)"/>
<path d="M0 0 C4 0 8 0 12 0 C12.33 0.99 12.66 1.98 13 3 C12 5 12 5 7 7 C6.67 11.29 6.34 15.58 6 20 C4.02 20 2.04 20 0 20 C0 13.4 0 6.8 0 0 Z " fill="#FDF2F7" transform="translate(650,81)"/>
<path d="M0 0 C4 0 8 0 12 0 C12.33 0.66 12.66 1.32 13 2 C12.67 2.99 12.34 3.98 12 5 C11.195625 5.12375 10.39125 5.2475 9.5625 5.375 C8.2940625 5.684375 8.2940625 5.684375 7 6 C5.64908472 8.70183055 5.66141942 11.11808206 5.4375 14.125 C5.35371094 15.22070312 5.26992188 16.31640625 5.18359375 17.4453125 C5.12300781 18.28835938 5.06242188 19.13140625 5 20 C3.35 20 1.7 20 0 20 C0 13.4 0 6.8 0 0 Z " fill="#FDFDFE" transform="translate(548,802)"/>
<path d="M0 0 C3.38648598 -0.30786236 5.33360498 -0.45695658 8.1875 1.5 C10.71284523 4.98323479 10.43937364 8.12748145 10.25 12.25 C10.23195313 12.99507812 10.21390625 13.74015625 10.1953125 14.5078125 C10.14835649 16.33909701 10.07661652 18.16971649 10 20 C8.02 20 6.04 20 4 20 C3.67 15.05 3.34 10.1 3 5 C1.35 5 -0.3 5 -2 5 C-1.34 3.35 -0.68 1.7 0 0 Z " fill="#FDEFF6" transform="translate(514,81)"/>
<path d="M0 0 C1.98 0 3.96 0 6 0 C6 6.6 6 13.2 6 20 C4.02 20 2.04 20 0 20 C0 13.4 0 6.8 0 0 Z " fill="#F4F6FA" transform="translate(525,756)"/>
<path d="M0 0 C1.98 0 3.96 0 6 0 C6 6.6 6 13.2 6 20 C4.02 20 2.04 20 0 20 C0 13.4 0 6.8 0 0 Z " fill="#EBF8FC" transform="translate(484,486)"/>
<path d="M0 0 C5 0 5 0 8 2 C7.68289063 2.51046875 7.36578125 3.0209375 7.0390625 3.546875 C5.66023727 6.80214659 5.5706427 9.72843132 5.375 13.25 C5.30023438 14.51328125 5.22546875 15.7765625 5.1484375 17.078125 C5.09945313 18.04234375 5.05046875 19.0065625 5 20 C3.35 20 1.7 20 0 20 C0 13.4 0 6.8 0 0 Z " fill="#FEFCFD" transform="translate(436,81)"/>
<path d="M0 0 C1.65 0 3.3 0 5 0 C5 6.6 5 13.2 5 20 C3.35 20 1.7 20 0 20 C0 13.4 0 6.8 0 0 Z " fill="#FFFFFF" transform="translate(607,282)"/>
<path d="M0 0 C1.65 0 3.3 0 5 0 C5 6.6 5 13.2 5 20 C3.35 20 1.7 20 0 20 C0 13.4 0 6.8 0 0 Z " fill="#FFFFFF" transform="translate(640,81)"/>
<path d="M0 0 C2.375 0.75 2.375 0.75 3.375 1.75 C3.74586093 7.5910596 3.74586093 7.5910596 3.375 9.75 C0.375 11.75 0.375 11.75 -2.25 11.5 C-3.03375 11.2525 -3.8175 11.005 -4.625 10.75 C-6.02435013 7.95129973 -5.87765405 5.84501208 -5.625 2.75 C-3.92079816 -0.03053984 -3.27136899 -0.31155895 0 0 Z " fill="#778DC9" transform="translate(483.625,806.25)"/>
<path d="M0 0 C0.78375 0.2475 1.5675 0.495 2.375 0.75 C3.77435013 3.54870027 3.62765405 5.65498792 3.375 8.75 C2.1875 10.6875 2.1875 10.6875 0.375 11.75 C-4.04605263 11.32894737 -4.04605263 11.32894737 -5.625 9.75 C-5.99586093 3.9089404 -5.99586093 3.9089404 -5.625 1.75 C-2.625 -0.25 -2.625 -0.25 0 0 Z " fill="#07AFDC" transform="translate(526.625,536.25)"/>
<path d="M0 0 C0.78375 0.2475 1.5675 0.495 2.375 0.75 C3.77435013 3.54870027 3.62765405 5.65498792 3.375 8.75 C2.1875 10.6875 2.1875 10.6875 0.375 11.75 C-4.04605263 11.32894737 -4.04605263 11.32894737 -5.625 9.75 C-5.99586093 3.9089404 -5.99586093 3.9089404 -5.625 1.75 C-2.625 -0.25 -2.625 -0.25 0 0 Z " fill="#07AFDC" transform="translate(575.625,490.25)"/>
<path d="M0 0 C8.57142857 -0.28571429 8.57142857 -0.28571429 12 2 C11.625 4.4375 11.625 4.4375 11 7 C8.59454362 8.20272819 7.05003047 8.10071472 4.375 8.0625 C3.14910156 8.04896484 3.14910156 8.04896484 1.8984375 8.03515625 C0.95871094 8.01775391 0.95871094 8.01775391 0 8 C0 5.36 0 2.72 0 0 Z " fill="#798FCA" transform="translate(480,764)"/>
<path d="M0 0 C1.9375 0.8125 1.9375 0.8125 3.9375 2.8125 C4.2778296 6.01159824 4.45898335 8.0042008 2.6875 10.75 C0.9375 11.8125 0.9375 11.8125 -1.125 11.625 C-3.0625 10.8125 -3.0625 10.8125 -5.0625 8.8125 C-5.4028296 5.61340176 -5.58398335 3.6207992 -3.8125 0.875 C-2.0625 -0.1875 -2.0625 -0.1875 0 0 Z " fill="#7C92CB" transform="translate(556.0625,760.1875)"/>
<path d="M0 0 C1.9375 0.8125 1.9375 0.8125 3.9375 2.8125 C4.2778296 6.01159824 4.45898335 8.0042008 2.6875 10.75 C0.9375 11.8125 0.9375 11.8125 -1.125 11.625 C-3.0625 10.8125 -3.0625 10.8125 -5.0625 8.8125 C-5.4028296 5.61340176 -5.58398335 3.6207992 -3.8125 0.875 C-2.0625 -0.1875 -2.0625 -0.1875 0 0 Z " fill="#EB2583" transform="translate(468.0625,85.1875)"/>
<path d="M0 0 C4.55555556 0.55555556 4.55555556 0.55555556 6 2 C6.37086093 7.8410596 6.37086093 7.8410596 6 10 C3 12 3 12 0.875 11.6875 C-1 11 -1 11 -2 10 C-2.27314815 4.26388889 -2.27314815 4.26388889 -2 2 C-1.34 1.34 -0.68 0.68 0 0 Z " fill="#07AFDD" transform="translate(525,490)"/>
<path d="M0 0 C2.5625 0.25 2.5625 0.25 5 1 C6.39935013 3.79870027 6.25265405 5.90498792 6 9 C4.75 10.9375 4.75 10.9375 3 12 C0.86254078 11.74853421 -0.45925779 11.54074221 -2 10 C-2.27314815 4.26388889 -2.27314815 4.26388889 -2 2 C-1.34 1.34 -0.68 0.68 0 0 Z " fill="#07AFDD" transform="translate(469,490)"/>
<path d="M0 0 C2.5625 0.25 2.5625 0.25 5 1 C6.39935013 3.79870027 6.25265405 5.90498792 6 9 C4.75 10.9375 4.75 10.9375 3 12 C0.86254078 11.74853421 -0.45925779 11.54074221 -2 10 C-2.27314815 4.26388889 -2.27314815 4.26388889 -2 2 C-1.34 1.34 -0.68 0.68 0 0 Z " fill="#EA1C7D" transform="translate(624,85)"/>
<path d="M0 0 C1.89488952 1.89488952 1.18019112 4.57139146 1.23046875 7.08984375 C1 9 1 9 -1 11 C-3 10.8125 -3 10.8125 -5 10 C-7 7 -7 7 -6.75 3.375 C-6.5025 2.26125 -6.255 1.1475 -6 0 C-3.49749232 -1.25125384 -2.59701335 -0.83774624 0 0 Z " fill="#06AFDC" transform="translate(450,491)"/>
<path d="M0 0 C1.45792884 -0.05399736 2.91642712 -0.09279177 4.375 -0.125 C5.18710937 -0.14820313 5.99921875 -0.17140625 6.8359375 -0.1953125 C9 0 9 0 11 2 C10.46428571 5.53571429 10.46428571 5.53571429 9 7 C7.48071962 7.07179964 5.95832518 7.08392007 4.4375 7.0625 C3.61121094 7.05347656 2.78492188 7.04445313 1.93359375 7.03515625 C1.29550781 7.02355469 0.65742188 7.01195312 0 7 C0 4.69 0 2.38 0 0 Z " fill="#7A8FCA" transform="translate(480,753)"/>
<path d="M0 0 C0.66 0.33 1.32 0.66 2 1 C1 4 1 4 -1.08544922 5.27441406 C-1.98279785 5.68401367 -2.88014648 6.09361328 -3.8046875 6.515625 C-4.78050781 6.96164062 -5.75632812 7.40765625 -6.76171875 7.8671875 C-7.78910156 8.32351563 -8.81648437 8.77984375 -9.875 9.25 C-10.89464844 9.72179687 -11.91429687 10.19359375 -12.96484375 10.6796875 C-20.61696429 14.12767857 -20.61696429 14.12767857 -24 13 C-23.30849854 12.64172119 -22.61699707 12.28344238 -21.90454102 11.91430664 C-18.7895148 10.29898162 -15.67599157 8.68078087 -12.5625 7.0625 C-11.47388672 6.49853516 -10.38527344 5.93457031 -9.26367188 5.35351562 C-8.22919922 4.81533203 -7.19472656 4.27714844 -6.12890625 3.72265625 C-4.69140015 2.97640991 -4.69140015 2.97640991 -3.22485352 2.21508789 C-1.09189487 1.1857807 -1.09189487 1.1857807 0 0 Z " fill="#ED3B8F" transform="translate(722,903)"/>
<path d="M0 0 C3.89608498 1.48904175 7.59097018 3.24378713 11.3125 5.125 C12.38113281 5.66382813 13.44976562 6.20265625 14.55078125 6.7578125 C15.76314453 7.37269531 15.76314453 7.37269531 17 8 C13.62073443 9.12642186 13.27071722 8.96344705 10.20703125 7.56640625 C9.1387207 7.0878418 9.1387207 7.0878418 8.04882812 6.59960938 C7.31083984 6.25736328 6.57285156 5.91511719 5.8125 5.5625 C5.06291016 5.22412109 4.31332031 4.88574219 3.54101562 4.53710938 C1.69007302 3.7000589 -0.15549666 2.85114596 -2 2 C-1.34 1.34 -0.68 0.68 0 0 Z " fill="#EE4696" transform="translate(320,908)"/>
<path d="M0 0 C0.66 0.33 1.32 0.66 2 1 C2 1.66 2 2.32 2 3 C0.06767179 3.86580287 -1.87107194 4.71729941 -3.8125 5.5625 C-4.89144531 6.03816406 -5.97039063 6.51382813 -7.08203125 7.00390625 C-10 8 -10 8 -13 7 C-10.88002166 5.80266012 -8.75486324 4.61701287 -6.625 3.4375 C-6.02171875 3.09525391 -5.4184375 2.75300781 -4.796875 2.40039062 C-3.23021759 1.53872905 -1.61709138 0.76281817 0 0 Z " fill="#FEC22F" transform="translate(671,918)"/>
<path d="M0 0 C1.98 0 3.96 0 6 0 C6 1.32 6 2.64 6 4 C4.02 4 2.04 4 0 4 C0 2.68 0 1.36 0 0 Z " fill="#F4F6FA" transform="translate(525,749)"/>
<path d="M0 0 C0.639375 0.2475 1.27875 0.495 1.9375 0.75 C2.2675 1.74 2.5975 2.73 2.9375 3.75 C0.2975 3.75 -2.3425 3.75 -5.0625 3.75 C-4.7325 2.76 -4.4025 1.77 -4.0625 0.75 C-2.0625 -0.25 -2.0625 -0.25 0 0 Z " fill="#0DB1DD" transform="translate(627.0625,490.25)"/>
<path d="M0 0 C1.98 0 3.96 0 6 0 C6 1.32 6 2.64 6 4 C4.02 4 2.04 4 0 4 C0 2.68 0 1.36 0 0 Z " fill="#EBF8FC" transform="translate(484,479)"/>
<path d="M0 0 C0.639375 0.2475 1.27875 0.495 1.9375 0.75 C2.2675 1.74 2.5975 2.73 2.9375 3.75 C0.2975 3.75 -2.3425 3.75 -5.0625 3.75 C-4.7325 2.76 -4.4025 1.77 -4.0625 0.75 C-2.0625 -0.25 -2.0625 -0.25 0 0 Z " fill="#FEBB16" transform="translate(626.0625,286.25)"/>
<path d="M0 0 C0.639375 0.2475 1.27875 0.495 1.9375 0.75 C2.2675 1.74 2.5975 2.73 2.9375 3.75 C0.2975 3.75 -2.3425 3.75 -5.0625 3.75 C-4.7325 2.76 -4.4025 1.77 -4.0625 0.75 C-2.0625 -0.25 -2.0625 -0.25 0 0 Z " fill="#FEBB16" transform="translate(560.0625,286.25)"/>
<path d="M0 0 C0.639375 0.2475 1.27875 0.495 1.9375 0.75 C2.2675 1.74 2.5975 2.73 2.9375 3.75 C0.2975 3.75 -2.3425 3.75 -5.0625 3.75 C-4.7325 2.76 -4.4025 1.77 -4.0625 0.75 C-2.0625 -0.25 -2.0625 -0.25 0 0 Z " fill="#EB2180" transform="translate(423.0625,85.25)"/>
<path d="M0 0 C0.639375 0.2475 1.27875 0.495 1.9375 0.75 C2.2675 1.74 2.5975 2.73 2.9375 3.75 C0.2975 3.75 -2.3425 3.75 -5.0625 3.75 C-4.7325 2.76 -4.4025 1.77 -4.0625 0.75 C-2.0625 -0.25 -2.0625 -0.25 0 0 Z " fill="#EB2180" transform="translate(389.0625,85.25)"/>
<path d="M0 0 C1.65 0.33 3.3 0.66 5 1 C5 1.99 5 2.98 5 4 C2.69 4 0.38 4 -2 4 C-1.34 2.68 -0.68 1.36 0 0 Z " fill="#788ECA" transform="translate(533,806)"/>
<path d="M0 0 C1.65 0.33 3.3 0.66 5 1 C5 1.99 5 2.98 5 4 C2.69 4 0.38 4 -2 4 C-1.34 2.68 -0.68 1.36 0 0 Z " fill="#FEBA12" transform="translate(513,286)"/>
<path d="M0 0 C1.65 0.33 3.3 0.66 5 1 C5 1.99 5 2.98 5 4 C2.69 4 0.38 4 -2 4 C-1.34 2.68 -0.68 1.36 0 0 Z " fill="#FEBA12" transform="translate(447,286)"/>
<path d="M0 0 C1.65 0.33 3.3 0.66 5 1 C5 1.99 5 2.98 5 4 C2.69 4 0.38 4 -2 4 C-1.34 2.68 -0.68 1.36 0 0 Z " fill="#FEBA12" transform="translate(413,286)"/>
<path d="M0 0 C1.65 0.33 3.3 0.66 5 1 C5 1.99 5 2.98 5 4 C2.69 4 0.38 4 -2 4 C-1.34 2.68 -0.68 1.36 0 0 Z " fill="#EA1D7E" transform="translate(567,85)"/>
<path d="M0 0 C1.65 0.33 3.3 0.66 5 1 C5 1.99 5 2.98 5 4 C2.69 4 0.38 4 -2 4 C-1.34 2.68 -0.68 1.36 0 0 Z " fill="#EA1A7D" transform="translate(671,85)"/>
<path d="M0 0 C1.65 0.33 3.3 0.66 5 1 C5 1.99 5 2.98 5 4 C2.69 4 0.38 4 -2 4 C-1.34 2.68 -0.68 1.36 0 0 Z " fill="#EA1A7D" transform="translate(535,85)"/>
<path d="M0 0 C1.65 0 3.3 0 5 0 C5 0.99 5 1.98 5 3 C3.35 3.33 1.7 3.66 0 4 C0 2.68 0 1.36 0 0 Z " fill="#0DB1DD" transform="translate(479,544)"/>
<path d="M0 0 C0.33 0.99 0.66 1.98 1 3 C0.34 3.66 -0.32 4.32 -1 5 C-3.125 4.625 -3.125 4.625 -5 4 C-4.67 3.01 -4.34 2.02 -4 1 C-1.9375 0.3125 -1.9375 0.3125 0 0 Z " fill="#0AB0DD" transform="translate(426,497)"/>
<path d="M0 0 C1.65 0 3.3 0 5 0 C5 0.99 5 1.98 5 3 C3.35 3.33 1.7 3.66 0 4 C0 2.68 0 1.36 0 0 Z " fill="#FEBB17" transform="translate(467,294)"/>
<path d="M0 0 C1.65 0 3.3 0 5 0 C5 1.32 5 2.64 5 4 C3.35 4 1.7 4 0 4 C0 2.68 0 1.36 0 0 Z " fill="#FFFFFF" transform="translate(607,275)"/>
<path d="M0 0 C1.65 0 3.3 0 5 0 C5 1.32 5 2.64 5 4 C3.35 4 1.7 4 0 4 C0 2.68 0 1.36 0 0 Z " fill="#FFFFFF" transform="translate(640,74)"/>
</svg>
